<?xml version="1.0" encoding="utf-8"?>
<!-- Generator: Adobe Illustrator 22.1.0, SVG Export Plug-In . SVG Version: 6.00 Build 0)  -->
<svg version="1.1" id="knossos" xmlns="http://www.w3.org/2000/svg" xmlns:xlink="http://www.w3.org/1999/xlink" x="0px" y="0px"
	 viewBox="269.2 324.5 463.5 172.3" style="enable-background:new 269.2 324.5 463.5 172.3;" xml:space="preserve">
<style type="text/css">
	.st0{fill:#E8D7D7;}
	.st1{fill:#4A2D37;}
</style>
<g>
	<path class="st0" d="M729.5,404.7l0.6-0.2c0.4,0.7,1.6,0.7,2.2,0.8c0.3,0.2,0.5,0.8,0.4,1.2l-0.5,0.5c-0.8-0.2-1.6-0.4-2.4-0.3
		l-0.5-0.5l-0.1-0.6L729.5,404.7z M721.2,434.8c-0.1,0.3-0.2,0.6-0.4,0.9C720.9,435.4,721.1,435.1,721.2,434.8z M719.1,439.4
		c-0.3,0.8-0.4,1.4,0,1.9c-0.1,0.2-0.1,0.4-0.2,0.6c0.1-0.2,0.2-0.4,0.2-0.6C718.7,440.9,718.8,440.2,719.1,439.4z M701.9,394.5
		c2.2-0.2,5.4-4.3,3.3-4.7c-1.1,0.1-3.3,4.2-3.3,4.3L701.9,394.5z M697,472.7l-0.1,0.8l-0.4,0.6l0.1,0.4c0.9-1,2.2-1.2,3.1-2.2
		l0.2-0.7c-0.7-1.2-2.3-1.2-3.4-1.6c-0.7,0.2-1.7,0.6-1.4,1.7C695.5,472.4,696.4,472.2,697,472.7z M652.4,421
		c-0.6,0.5-1.4,1.2-1.1,2.2l0.4,0.5c0.9-0.2,1.3-1.3,1.7-2.1C653.9,420.6,652.8,421,652.4,421z M622.9,483.9l0.4,0.6
		c3.1,1.6,3.7,0.4,6.5-0.5c0.4-0.1,0.8-0.6,0.4-1.1c-1.3-0.1-4.4,1.1-5.4-0.5c-0.5,0.1-1.2,0.3-1.7,0.7L622.9,483.9z M542,372.8
		l0.2,0.6c0.7,0.4,2.9,0.9,3.6,0.7l0.7,0.3l0.7-0.2c0.9,0.8,2.1,0.7,2.5,2.1l0.6,0.1c0,0,0.2-3.5,0.5-4.4l-0.3-0.5
		c-0.5-0.3-1-0.5-1.5-0.5c-0.8-1.2-1.9-1.6-3.1-1.8c-0.5,0.5-0.3,1.9-0.9,2.7c-0.9-0.1-1.7,0.4-2.6,0.4L542,372.8z M379.4,349.7
		c0.3,0.7,0.7,1.4,1,2.1C380.1,351.1,379.8,350.4,379.4,349.7z M369.5,495.3c-1.3-1.4-4.1-5-2-7.1l0.6-0.2l0.3-0.6l-0.1-0.5
		c-0.8-0.6-3,0.4-3-1l-0.7-0.3c-1.8,0.9-3.3-0.5-5-0.6c-0.4,0.9-0.8,1.8-1.4,2.6c-1.2,0.6-2.6-0.3-3.5,0.3l0,0.8
		c1.5,1.9,13.2,10.4,14.8,7.4L369.5,495.3z M282.4,337.5l0.5,0.9C282.8,338,282.7,337.7,282.4,337.5z M279.8,346.6
		c0.1-0.1,0.1-0.2,0.2-0.3C279.9,346.4,279.8,346.5,279.8,346.6z M279.4,347.2c0.1-0.1,0.1-0.2,0.2-0.3
		C279.5,347,279.5,347.1,279.4,347.2z M275.3,378.6l1.1-0.6c0,0,0,0,0,0L275.3,378.6z M273.8,407.3c1.7,1.1,5.1-0.3,6,2.6
		c-0.8,2.3-0.2,3.9,2.1,4.2c0.6-0.1,12.3-0.6,12.7-0.4c0.6,0.3,0.8,1.5,0.9,1.6c0.1,0,2.3-1.4,2.6-1.5c1.1-0.5,11-0.4,11.8,0.9
		c2.4,1.5,3.8-2.9,5.9-2.2c4-2.4,7.3-0.2,11.5,1.1c1.1,0.4,2-0.3,3.1,0c2.2,0.6,3.9,2.5,6.3,2.6c3.8,0.3,4.9-2.9,9.9-1.1
		c4.3,1.5,4.4,8.2,9.7,7c0.9-0.2,0.9-1.2,2.3-1.3c0.6,0.3,0.4,1.3,1.8,1.5c0.7-1.1,0.4-2.4,2-2.8c0.9,0,1.5,1.2,2.5,1.3
		c1.9,0.1,3.2-1.5,5.6-0.6c0.1,0.1,0.2,0.1,0.3,0.2c0,0,0,0,0,0c0.1,0,0.1,0.1,0.1,0.1c0.3,0.3,0.4,0.6,0.6,0.8
		c0.1,0.1,0.1,0.1,0.2,0.2c0.3,0.2,0.7,0.2,1.4,0.1c2.1-0.2,5.2-2.4,7.4-1.4c1.8,0.8,3.6,3.2,5.8,3.9c1.7,0.5,3-0.4,4.3-0.2
		c0.1,0,0.2,0,0.3,0.1c0.4,0.1,0.7,0.3,1.1,0.5c0.4,0.2,0.7,0.4,1,0.5c0.2,0.1,0.5,0.2,0.8,0.2c3.4,0.2,6.6-5.4,10.3-1.5
		c3.2-0.4,5.4-3,8.3,0.3c-1.5,2,3.1,2,3.6,2.1c3.5,4.4,6.3,3.1,10.5,3.4c2.1,1.6,5.9,0.7,7.7,2.4c2.2,2,3.7,6.6,5.8,8.3
		c0.7,0,1.1-0.6,2.2-1c2.9,3.3,18.7-0.2,23.5,2.5c3,1.7,3.7,5.6,5.4,8.6c-0.2,1.9,0.9,4.2,1.1,6.1c-0.9,2-0.5,2-2.1,3.6
		c0,0.2,0.5,0.7-0.1,2c0.8,1.7,0.9,3,0.1,4.8c1.2,1.8,0.8,2.1,0.3,4c-0.6,0.7-1.4,1.1-2.6,1.8c0.2,0.6,0.6,1.2,1.1,1.5
		c1.5-0.5,2.2,0.2,3.6,0.1c0.5-0.4,1.1-0.7,1.7-0.9c6.8,1.6,4.4-1.6,9.9-2.3c3.4-0.4,6.2,1.4,9.2,2c2.2,0.5,1.7-1.2,4.7,0.7
		c1.3,0,3.5-1.3,5.2-1.3c0.1,0.1,0.2,0.2,0.3,0.3c0.2,0.2,0.4,0.5,0.5,0.8c0.1,0.1,0.2,0.3,0.3,0.4l1.5-1.2c1.2-1.4,6.1,0.4,7.8,0.4
		c4.2-0.2,7.2-2.3,12.1-1.4c0.4,0.6,1.1,1,1.7,1.2c1-0.3,1.9-0.8,2.8-1.5c0.6-2.7,9.2-3.4,11-2.9c0.9,0.7,0.4,1.6,2,1.7
		c2.3,0.1,4-1.9,6-2.4c2.2-0.6,4.6-0.1,6.7-1.4c0.3-0.9,0.6-2.3,1.3-2.7c1.1-0.7,3.1-0.4,4.3-0.4c3.9-0.2,8.1-3.3,11.5-3.3
		c1.7,0,4,1.2,5.7,1.7c4.1,1,8.7,0.3,13.1,1.4c0.7,0.2,1.5,0.4,2.2,0.3c1.3-0.1,2.3-1.1,3.2-2c1.4-0.1,2.3,0.7,3.8,0.4
		c2.2-1.7,5.9-4,8.6-4.2c1-0.1,2.3,0.2,3.3,0.4l1.4,0.2c3.4,0,10.1-1.4,12-1.1c4.8,0.8,11.6,3.3,16.4,3.1c3.3-0.1,12.6-4.7,16.8-5.7
		c2.9-0.7,7.5,0.6,8.9,0.2c1-0.3,1.2-1.8,2.2-2l3.9,1.8c0.1,0.5,0.1,1.1,0.2,2.2c1.3,0.4,3.1-1.7,5.1,0.6c3.6-1.8,10.4-2.8,11,3.3
		c2.7,2.6,9.7-3.7,12.8-3.8c0.7,0,1.4,0.7,2.1,0.4c2.4-0.9,4.3-3.3,7.1-4.1c1.6-2.1,2-5.4,3.4-7.7c0.6-0.9,1.9-1.8,2.5-3.1
		c0.1-0.2,0.2-0.4,0.2-0.6c-0.3-0.4-0.3-1.1,0-1.9c0.4-1.1,1.1-2.4,1.7-3.7c0.1-0.3,0.3-0.6,0.4-0.9c0.2-0.5,0.3-0.9,0.4-1.3
		c0.1-1.1-2.4-2.8-0.4-6.1c1.1-1.8,3.2-0.6,4.8-3.2c0.4-0.6,0.6-1.4,0-2.7c-0.6,0.6-1.1,1.6-1.8,2c-1.2,0.4-1.8-1.1-2.9-1.6
		c-0.6-1.3-2.9-3.2-2.5-4.4c0.4-0.6,0.9-0.9,1.3-1.4c0.3-2.8-2.3-5.9-2-8.1c0.3-2.3,2.9-2.1,4.2-3.1c0.9-0.7,0.9-1.8,1.6-2.3
		l1.4-0.2l-0.1-1.7c0.5-0.4,0.9-1,1.3-1.6c-0.2-0.5,0.4-1-0.1-1.4c-1.4-0.1-3.3,0.4-4.9,1.9l1.5,0.4c1.7-0.3-3.3,1.9-2.3,2.3
		l0.4,1.3c-1.5,0.2-4.3,1-5.9,2.6c-0.5-1-1.2-2.3-2.2-0.7c-0.2,0.4-0.3,1.1-0.4,2.2c-0.6,0.1-1.2,0.4-2,1.7c0.4,2.1,0.4,3.3-2.5,3
		l-0.2,1.5c-0.7,1.1-1.8,1.2-2.6,2c-0.6,1.1,0.8,1.5,0.1,2.3c-2.2,2.6-11.5,4.9-13.2,1c0.5-0.8,1.3-1.4,1-3
		c-2.5-0.7-5.7,2.5-8.1-0.1c0-0.4-0.1-1.7-0.6-1.5l-1.3,1.5c-1.6,0.6-5.5-3.6-7.6,2.8c-0.2,0.6-0.4,1.2-0.9,1.6
		c-0.6,0.6-3,1.4-3.8,1.2c-0.8-0.2-1.4-0.8-2.2-0.6c-1.4,0.3-1.3,2.8-4.2,2.9c-2.1,0.1-5-1.5-6.6-1.3c-0.8,0.4-1.1,1.7-1.1,3.3
		c-0.6,0.6-4.7,3.5-6.2,2.6c-2.8,1.5-4,10.3-8.8,9.4c-2.7-0.5-4.4-2.3-6.8-3.2c-1.8-0.7-4,0.6-5.6-0.2c-0.2-1,0.3-2.1,0.1-3
		c-0.3-1.8-3.5-5.2-2.7-7.2c0.6-0.7,1.4-1.1,2-1.7c-0.7-1.8-1.9-5-0.5-6.8c1-0.4,2-0.8,3.2-2.1c-1.2-2.7-0.6-5.6,2.4-3.7
		c0.7-0.6-1.2-1.9-0.6-4.6c0.3-0.2,0.6-0.8,0.6-1.2c-0.4-0.8-1.5-1.2-2.2-0.8c-0.3,0.4-0.5,0.8-0.1,2.5c0,1.1-0.1,2.1-0.7,2.9
		c-3.4,2.2-1.6-7-1.1-7.8c0.8-1.3,4.7-2.1,6-7.2c-3.9-0.2-8.8,0.9-12.7,0.4c-1.8-0.2-3.4-2-5-1.8c-4.7,0.6-9.3,3.4-13.8,4.6
		c-1.4,0.3-2.6-0.3-3.9-0.1c-4.4,0.5-10.1,5.3-16.2,5.5c-6.8,0.3-9.3-7.7-10.1-8.2c-4.9-2.9-27.9,3-30.8-0.6
		c0.1-0.9-0.5-1.7-1.2-1.7c-5.6-0.4-21.9,4.4-23.6-3.8c-0.5-2.6-0.3-3.5,1.2-6.1c-0.3-0.5-3.7-1.2-4.7-1.8l-0.7-1.8
		c-1.8-0.2-3.9,0.5-5.6,0c-0.6-0.2-1.2-1.5-1.5-1.5c-0.7-0.1-1.1,2.9-2.2,3.5c-0.7,0.4-6.3-0.7-7.8-0.4c-1.2-1.7-3.1-2.5-4.8-2.8
		c-0.6,0.1-7.6,5.6-9.9,2.3c-1.8-0.3-4.1,0.3-6.6-1.2c-4.3-1.7-16.9-2.4-21.3-1.1c-0.9,1.3-2.9,1.8-2.9,3.3l-1.3,0.5
		c-1.1,1.4-3.1,2.9-4.7,3.3c-1.8,0.5-18.1,3.7-19,3.7c-0.7-0.1-1.5-0.7-3.2,0.6c-4.2-0.9-3.8,0-6.8-0.4c-0.5,0.4-1,0.9-1.5,1.1
		c-3.5-1.3-20.2,4.2-24.1-1.8c-0.9-1.3-0.1-4.6-0.5-6.5c0.4-0.7,0.3-1.7,0.7-2.4c-0.3-1.2,0.3-2.9-1.4-4c1.2-3.5,0.7-5.4-2.3-8
		c-0.9,0.5-2.2,2.4-2.9,2.6c-0.7,0.2-1.5-0.4-2.2,0c-4.2,5.4-6.3,0.4-9.9-1.8c-1.2-0.8-3.7,0.3-6.6-1.4c-1.5-0.9-8.2-2.9-7.5-4.2
		c3.4-6.8,14.5,3.1,19.6-2.2c-0.1-3.2,3.3-4.1,2.9-6.4c-0.2-0.4-0.4-0.7-0.5-1.1c-0.4-0.7-0.7-1.4-1-2.1c-0.8-1.8-1.7-3.5-2.5-5.5
		c-2.2-1.8-6.6-1.1-8.9-2.9c-1.6,0.3-8.1,2.8-7.9,5c0.3,1.1,2.9,3.5,2.5,4.3c-0.8,1.1-2.1,1.4-3.3,1l-1.2-0.4
		c-1.4-0.2-2.9,0.8-1.7,3.4c-1,0.4-0.9,1.8-1.7,2.3c-0.8,0.6-8,1.6-8.4,0.9c-1-0.2-2.3,0.7-3.4,0.6c-1.8-0.1-3.6-1.3-5.3-1.4
		c-4.4-0.4-9.5,0.5-13.9,0.1c-3.1-0.3-2.1-2.4-3.7-2.8c-2.1-0.5-5.7,0.1-7.1-2.4c-1.5-2.8-0.8-6.6-1.3-9.7
		c-0.6-3.5-3.4-9.6-0.6-13.4c-0.3-0.9-4.7-4.3-5.5-4.3c-1.1,0.5-2,3.2-4,4.4c-2.6,7.1,0.2,5-0.4,8c0,0.1,0.1,0.2,0.1,0.3
		c0.1,0.1,0.1,0.2,0.2,0.4c0.1,0.1,0.2,0.3,0.3,0.4c0.1,0.2,0.2,0.4,0.3,0.6c-0.4,1.3-1.5,1.8-1.8,3.1c0.2,2.1,4.3,4.6,3.2,8.6
		c0.6,2.7-0.2,5.4-0.3,8.2c-1.5,2.5-11.8,6.1-14.1-0.1c-8.1-1.2-2.4-5.6-5.8-12.1c0.1-0.9,0.5-2.2,0-3c0.3-1.3,1.2-2.2,0.6-3.7
		l-0.6-1.1c0.1,0.3,0.1,0.6,0.2,0.9c-0.4,1.2-1.4,2.7-2,3.9c-0.4,0.2-1,0.2-1.4,0.1c-0.6,0.5,0.2,1.3,0.6,1.6
		c0.1,0.5-0.1,0.9-0.3,1.3c-0.1,0.1-0.1,0.2-0.2,0.3c-0.1,0.1-0.1,0.2-0.2,0.3c-0.1,0.1-0.1,0.2-0.2,0.3c-0.1,0.3-0.2,0.7-0.1,1
		c0,0.1,0,0.1,0,0.2c0.5,0.6,0.5,1.3,0.2,2.1c-0.2,0.4-0.4,0.9-0.6,1.3c-0.1,0.2-0.2,0.5-0.4,0.7c-0.1,0.2-0.2,0.4-0.3,0.6
		c-0.1,0.2-0.2,0.4-0.3,0.6c0,0.1-0.1,0.2-0.1,0.3c-0.1,0.2-0.2,0.5-0.2,0.7c-0.4,1.2-0.4,2.4,0.2,3.8l-1.3,1.4
		c0.4,1.7,4.1,2.3,2.3,4.6c-0.6,0.2-1.2,0.4-1.7,0.9l-0.3,1.6l-1.1,0.7c-0.2,0.3-0.3,0.7-0.4,1.2c-0.1,1,0.2,2.2,0.8,2.9l1.6,0.1
		c0.2,0.2,0.1,1-0.1,2c0,0,0,0,0,0c-0.1,0.4-0.2,0.8-0.3,1.3c0,0,0,0,0,0c-0.1,0.3-0.1,0.6-0.2,0.8c-0.2,0.9-0.5,1.7-0.7,1.8
		c0,0,0,0,0,0l-1.1,0.6l-1.1,0.6c-0.3,0.9,0,1.8,0.4,2.6c-1.3,3.9-4.4,2.1-1.8,8.7c-0.3,0.7-0.8,1.2-1.1,1.9
		c0.1,0.5,0.2,0.8,0.4,1.2c0.2,0.3,0.4,0.6,0.7,0.8c0.5,0.5,1,1,1.2,1.8c0,0.2-0.1,0.5-0.3,0.7c-0.1,0.2-0.3,0.4-0.4,0.6
		c-0.7,0.2-1.4,0-2.2,0.1c-0.4,1.1-1.1,1.5-2,1.9c-0.1,0.1,0,2.8,0.7,3.6c0.4-0.1,0.8-0.2,1.2-0.2
		C272.1,404.3,272.4,406.3,273.8,407.3z"/>
</g>
<path class="st1" d="M537.5,402.7c0,0-0.1,0-0.1,0c-0.1,0-0.1,0-0.1,0l-3.3-3.3c0,0,0-0.1,0-0.1c0-0.1,0-0.1,0-0.1l3.3-3.4
	c0,0,0,0,0.1,0c0.1,0,0.1,0,0.1,0l3.3,3.4c0,0,0,0,0,0.1c0,0.1,0,0.1,0,0.1L537.5,402.7z"/>
<g>
	<path class="st1" d="M545.1,405.3l0.5-0.4c0.3,0.5,0.8,0.8,1.3,0.8c0.9,0,1.3-0.5,1.3-1.3c0-0.8-0.5-1.2-1.3-1.2h-0.3v-0.6h0.4
		c0.7,0,1.1-0.4,1.1-1.1c0-0.6-0.3-1-1.1-1c-0.5,0-0.8,0.2-1.1,0.7l-0.5-0.4c0.3-0.5,0.9-0.9,1.6-0.9c1,0,1.7,0.6,1.7,1.6
		c0,0.8-0.4,1.2-0.9,1.5c0.6,0.1,1.1,0.5,1.1,1.5c0,1.2-0.8,1.9-2,1.9C546.1,406.3,545.5,405.9,545.1,405.3z"/>
	<path class="st1" d="M550.7,405.4l0.5-0.4c0.3,0.4,0.7,0.7,1.2,0.7c0.9,0,1.2-0.6,1.2-1.6c0-0.9-0.4-1.4-1.1-1.4
		c-0.5,0-0.8,0.2-1.1,0.5l-0.6-0.2l0.2-3.2h3v0.6h-2.4l-0.2,2.1c0.3-0.2,0.6-0.4,1.1-0.4c1.1,0,1.7,0.8,1.7,1.9
		c0,1.4-0.7,2.2-1.9,2.2C551.6,406.3,551.1,406,550.7,405.4z"/>
	<path class="st1" d="M556.2,401.6c0-1,0.7-1.7,1.7-1.7c1,0,1.7,0.8,1.7,1.7c0,1-0.7,1.7-1.7,1.7C557,403.3,556.2,402.6,556.2,401.6
		z M559,401.6c0-0.7-0.4-1.2-1.1-1.2c-0.6,0-1.1,0.5-1.1,1.2c0,0.7,0.4,1.2,1.1,1.2C558.6,402.7,559,402.3,559,401.6z"/>
	<path class="st1" d="M567.2,405.6h1.3v-4.4h-1.2v-0.5c0.8,0,1.3-0.2,1.4-0.8h0.5v5.7h1.2v0.6h-3.2V405.6z"/>
	<path class="st1" d="M575.2,400.6H572v-0.6h4v0.6c-1.1,1.4-2,3.2-2.1,5.7h-0.7C573.2,404,574,402.1,575.2,400.6z"/>
	<path class="st1" d="M579.1,399.9h0.8l-0.2,2.8h-0.5L579.1,399.9z"/>
	<path class="st1" d="M588.5,405.4l0.5-0.4c0.3,0.4,0.7,0.7,1.2,0.7c0.9,0,1.2-0.6,1.2-1.6c0-0.9-0.4-1.4-1.1-1.4
		c-0.5,0-0.8,0.2-1.1,0.5l-0.6-0.2l0.2-3.2h3v0.6h-2.4l-0.2,2.1c0.3-0.2,0.6-0.4,1.1-0.4c1.1,0,1.7,0.8,1.7,1.9
		c0,1.4-0.7,2.2-1.9,2.2C589.4,406.3,588.9,406,588.5,405.4z"/>
	<path class="st1" d="M593.7,405.3l0.5-0.4c0.3,0.5,0.8,0.8,1.3,0.8c0.9,0,1.3-0.5,1.3-1.3c0-0.8-0.5-1.2-1.3-1.2h-0.3v-0.6h0.4
		c0.7,0,1.1-0.4,1.1-1.1c0-0.6-0.3-1-1.1-1c-0.5,0-0.8,0.2-1.1,0.7l-0.5-0.4c0.3-0.5,0.9-0.9,1.6-0.9c1,0,1.7,0.6,1.7,1.6
		c0,0.8-0.4,1.2-0.9,1.5c0.6,0.1,1.1,0.5,1.1,1.5c0,1.2-0.8,1.9-2,1.9C594.7,406.3,594.1,405.9,593.7,405.3z"/>
	<path class="st1" d="M599.8,399.9h0.8l-0.2,2.8h-0.5L599.8,399.9z M601.6,399.9h0.8l-0.2,2.8h-0.5L601.6,399.9z"/>
	<path class="st1" d="M610.1,399.9h0.6l1.8,3.7c0.2,0.5,0.5,1,0.6,1.4c0-0.2,0-0.7,0-1v-4h0.6v6.3h-0.6l-1.9-3.8
		c-0.2-0.4-0.5-1-0.6-1.3c0,0.2,0,0.7,0,1v4.1h-0.6V399.9z"/>
	<path class="st1" d="M616.8,404.9h1.1l-0.8,2.4h-0.5L616.8,404.9z"/>
	<path class="st1" d="M628,403c0.9-0.7,1.1-1,1.1-1.6c0-0.6-0.4-1-1.1-1c-0.6,0-0.9,0.3-1.3,0.7l-0.5-0.4c0.4-0.5,0.9-0.9,1.8-0.9
		c1,0,1.7,0.5,1.7,1.6c0,0.8-0.4,1.3-1.4,2c-1.1,0.9-1.4,1.3-1.5,2.1h2.9v0.6h-3.6C626.3,404.6,626.9,403.9,628,403z"/>
	<path class="st1" d="M631.7,405.4l0.5-0.4c0.3,0.4,0.7,0.7,1.2,0.7c0.9,0,1.2-0.6,1.2-1.6c0-0.9-0.4-1.4-1.1-1.4
		c-0.5,0-0.8,0.2-1.1,0.5l-0.6-0.2l0.2-3.2h3v0.6h-2.4l-0.2,2.1c0.3-0.2,0.6-0.4,1.1-0.4c1.1,0,1.7,0.8,1.7,1.9
		c0,1.4-0.7,2.2-1.9,2.2C632.6,406.3,632.1,406,631.7,405.4z"/>
	<path class="st1" d="M637.2,401.6c0-1,0.7-1.7,1.7-1.7c1,0,1.7,0.8,1.7,1.7c0,1-0.7,1.7-1.7,1.7C638,403.3,637.2,402.6,637.2,401.6
		z M640,401.6c0-0.7-0.4-1.2-1.1-1.2c-0.6,0-1.1,0.5-1.1,1.2c0,0.7,0.4,1.2,1.1,1.2C639.6,402.7,640,402.3,640,401.6z"/>
	<path class="st1" d="M648.6,405.7c1.2-0.3,2-1.1,2.3-2.6c-0.3,0.4-0.7,0.7-1.3,0.7c-1,0-1.8-0.7-1.8-2c0-1.2,0.8-2,1.9-2
		c1.1,0,1.9,0.8,1.9,2.5c0,1.7-0.8,3.7-3,4V405.7z M650.9,401.8c0-0.8-0.5-1.4-1.2-1.4c-0.8,0-1.2,0.5-1.2,1.4
		c0,0.9,0.5,1.4,1.2,1.4C650.4,403.2,650.9,402.6,650.9,401.8z"/>
	<path class="st1" d="M654.7,399.9h0.8l-0.2,2.8h-0.5L654.7,399.9z"/>
	<path class="st1" d="M666.7,404.7h-3v-0.6l2.9-4.2h0.7v4.2h0.7v0.6h-0.7v1.5h-0.7V404.7z M666.7,404.1v-2.7c0-0.1,0-0.5,0-0.6
		c-0.2,0.3-0.5,0.7-0.7,1.1l-0.8,1.2c-0.3,0.4-0.5,0.8-0.7,1H666.7z"/>
	<path class="st1" d="M672.4,400.6h-3.2v-0.6h4v0.6c-1.1,1.4-2,3.2-2.1,5.7h-0.7C670.4,404,671.2,402.1,672.4,400.6z"/>
	<path class="st1" d="M675.4,399.9h0.8l-0.2,2.8h-0.5L675.4,399.9z M677.2,399.9h0.8l-0.2,2.8h-0.5L677.2,399.9z"/>
	<path class="st1" d="M685.8,399.9h3.6v0.6h-2.9v2h1.8v0.6h-1.8v2.4h3.1v0.6h-3.8V399.9z"/>
</g>
</svg>
