<?xml version="1.0" encoding="utf-8"?>
<!-- Generator: Adobe Illustrator 22.1.0, SVG Export Plug-In . SVG Version: 6.00 Build 0)  -->
<svg version="1.1" id="Layer_6" xmlns="http://www.w3.org/2000/svg" xmlns:xlink="http://www.w3.org/1999/xlink" x="0px" y="0px"
	 viewBox="0 0 1564 1269.5" style="enable-background:new 0 0 1564 1269.5;" xml:space="preserve">
<style type="text/css">
	.st0{fill:#9EC6BD;}
</style>
<path class="st0" d="M276.9,42.8c0,2.2,1.3,2.8,1.3,2.8l-2.8,2.4c0,0-1.8-1-1.8-3.9c0-3.4,2.2-6.1,5.7-6.1
	C279.3,38,276.9,39.2,276.9,42.8z M283.8,42.8c0,2.2,1.3,2.8,1.3,2.8l-2.8,2.4c0,0-1.8-1-1.8-3.9c0-3.4,2.2-6.1,5.7-6.1
	C286.2,38,283.8,39.2,283.8,42.8z M293.3,66.2c-2,0-3,0.1-3,0.1l0.4-0.6c0.8-1.3,1.1-1.6,2.5-12.4l1.3-10.4h-2.1
	c-1.6,0-3,0.4-3.9,0.9c-1,0.6-1.3,0.9-1.3,1c0-0.1,0.3-1.3,0.5-3l0.1-1.1h17.4c0,0.2-0.1,0.5-0.1,1.1c-0.2,1.6-0.3,2.9-0.3,3
	c0,0-0.2-0.4-1.1-1c-0.8-0.5-2-0.9-3.6-0.9h-2.2l-1.4,10.8c-0.4,2.7-1,8.1-1,9.7c0,1.1,0.1,1.7,0.4,2.4l0.3,0.6
	C296.2,66.3,295.3,66.2,293.3,66.2z M320.3,63.4c0,0.6,0.1,0.9,0.7,1.4l0.5,0.4c0,0-0.9,1.5-2.8,1.5c-1.8,0-1.9-1.2-1.9-1.9
	c0-1.8,1.8-11.3,1.8-14.2c0-0.8,0-2.4-2.3-2.4c-2.1,0-3.7,1.3-5.8,4.1l-0.6,4.4c-1,7.6-1.2,9.7-1.2,9.7s-0.7-0.1-1.7-0.1
	c-0.9,0-1.9,0.1-1.9,0.1s0.5-2.6,1.8-11.8c0.9-6.7,1.6-11.4,1.6-12.9c0-1-0.1-1.7-0.4-2.2l-0.3-0.5l4.8-0.9c0,0-0.5,3-1.3,8.6
	l-0.1,0.8c-0.4,2.6-0.9,4.6-0.9,4.6c2.7-6.2,5.8-6.6,7.5-6.6c4.1,0,4.2,3,4.2,4.2C322,52,320.3,61.4,320.3,63.4z M333,57.4
	c-2.4,0-3.5-0.2-3.5-0.2s-0.1,0.7-0.1,1c0,2.9,0.7,6,4.7,6c4,0,5.6-2.1,5.8-2.6c0,1.5-1.3,5-6.7,5c-2.5,0-7.2-0.5-7.2-7.8
	c0-8.2,3.5-13.4,9.5-13.4c4.6,0,6.2,2.4,6.2,5.1C341.7,56.3,336.9,57.4,333,57.4z M335.1,47.6c-2.6,0-4.8,1.7-5.5,7.6
	c0,0,0.8,0.2,3,0.2c3.9,0,5.6-1.5,5.6-4.7C338.1,49.3,337.6,47.6,335.1,47.6z M372.5,65.8l-0.4,0.5c0,0-0.7-0.1-1.8-0.1
	c-1.1,0-1.8,0.1-1.8,0.1l-1.7-15.2c-0.1-1.1-0.2-2.3-0.2-2.4c0,0.1-0.2,1.1-0.6,2.4l-5.5,15.2c0,0-0.7-0.1-2.1-0.1
	c-1.4,0-2.2,0.1-2.2,0.1L353.9,50c-0.2-1.4-0.8-2.4-1.2-3l-0.4-0.6l4.2-0.9c0,0,0.2,0.8,0.8,6l1.2,10.4c0.1,1,0.1,2.1,0.1,2.1
	c0-0.1,0.2-0.8,0.7-2.1l5.8-16.1c0,0,0.8,0.1,1.9,0.1s1.9-0.1,1.9-0.1L371,62c0.1,1.4,0.2,2.1,0.2,2.1s5.5-9.9,5.5-15.7
	c0-1.7-1-2.1-1-2.1s0.8-0.8,2.2-0.8c2,0,2.1,1.5,2.1,2.2C380,53,374.8,62.6,372.5,65.8z M387.8,55.4c-0.5,3.4-1,7.3-1,8
	c0,0.6,0.1,0.9,0.7,1.4l0.5,0.4c0,0-0.9,1.5-2.8,1.5c-1.8,0-1.9-1.2-1.9-1.9c0-1.9,2-12.1,2-15.4c0-1-0.1-1.7-0.4-2.3l-0.3-0.4
	l4.6-0.9C389.2,45.6,388.8,48.4,387.8,55.4z M388,42.5c-1.7,0-2.2-1.2-2.2-2c0-1.2,0.8-2.2,2.3-2.2c1.7,0,2.2,1.2,2.2,1.9
	C390.3,41.5,389.5,42.5,388,42.5z M408,63.4c0,0.6,0.1,0.9,0.7,1.4l0.5,0.4c0,0-0.9,1.5-2.8,1.5c-1.8,0-1.9-1.2-1.9-1.9
	c0-1.8,1.8-11.3,1.8-14.2c0-0.8,0-2.4-2.3-2.4c-2.1,0-3.7,1.3-5.8,4.1l-0.6,4.4c-1,7.6-1.2,9.7-1.2,9.7s-0.8-0.1-1.8-0.1
	c-0.9,0-1.8,0.1-1.8,0.1s0.4-2.3,1.6-10.3c0.5-3.5,0.8-6.1,0.8-7.1c0-0.6-0.1-1.5-0.5-2.1l-0.2-0.4l4.5-0.9l-1,6.4
	c2.7-6.2,5.8-6.6,7.5-6.6c4.1,0,4.2,3,4.2,4.2C409.7,52,408,61.4,408,63.4z M429.9,53.5c-1,7.1-1.2,9.2-1.2,9.9
	c0,0.6,0.1,0.9,0.6,1.4l0.5,0.4c0,0-0.8,1.5-2.7,1.5c-1.8,0-1.9-1.2-1.9-1.9c0-1.5,0.7-4.6,0.7-4.6c-2.6,6.2-5.2,6.6-7.1,6.6
	c-3.3,0-5.1-2.2-5.1-7.2c0-2.6,0.6-14,9.7-14c2.8,0,4.1,1.3,4.1,1.3c0.2-1.9,0.5-4.2,0.5-5.2c0-1-0.1-1.7-0.4-2.2l-0.3-0.5l4.7-0.9
	C432.2,38,431.8,40.1,429.9,53.5z M423.9,47.7c-5.4,0-6.6,6.8-6.6,11.6c0,2.9,0.6,4.8,2.9,4.8c1,0,2.8-0.2,5.6-4.1l1.5-11.3
	C427.3,48.6,426.4,47.7,423.9,47.7z M439.3,55.4c-0.5,3.4-1,7.3-1,8c0,0.6,0.1,0.9,0.7,1.4l0.5,0.4c0,0-0.9,1.5-2.8,1.5
	c-1.8,0-1.9-1.2-1.9-1.9c0-1.9,2-12.1,2-15.4c0-1-0.1-1.7-0.4-2.3l-0.3-0.4l4.6-0.9C440.7,45.6,440.3,48.4,439.3,55.4z M439.5,42.5
	c-1.7,0-2.2-1.2-2.2-2c0-1.2,0.8-2.2,2.3-2.2c1.7,0,2.2,1.2,2.2,1.9C441.8,41.5,441,42.5,439.5,42.5z M459.5,63.4
	c0,0.6,0.1,0.9,0.7,1.4l0.5,0.4c0,0-0.9,1.5-2.8,1.5c-1.8,0-1.9-1.2-1.9-1.9c0-1.8,1.8-11.3,1.8-14.2c0-0.8,0-2.4-2.3-2.4
	c-2.1,0-3.7,1.3-5.8,4.1l-0.6,4.4c-1,7.6-1.2,9.7-1.2,9.7s-0.8-0.1-1.8-0.1c-0.9,0-1.8,0.1-1.8,0.1s0.4-2.3,1.6-10.3
	c0.5-3.5,0.8-6.1,0.8-7.1c0-0.6-0.1-1.5-0.5-2.1l-0.2-0.4l4.5-0.9l-1,6.4c2.7-6.2,5.8-6.6,7.5-6.6c4.1,0,4.2,3,4.2,4.2
	C461.2,52,459.5,61.4,459.5,63.4z M481.2,55.6l-1.2,9c-0.4,2.7-0.6,5.4-2.6,7.2c-1.7,1.5-4,2.1-6.6,2.1c-4.2,0-6.5-0.7-6.5-0.7
	s0.3-0.8,0.4-2.1c0.3-1.5,0.3-2.6,0.3-2.6c1.3,2.4,2.1,3.3,5.4,3.3c4.6,0,5.7-2.2,6.2-6l0.1-1.1c0.3-2.3,0.8-4.6,0.8-4.6
	c-2.6,6.2-5.3,6.5-7.1,6.5c-3.3,0-5.1-2.2-5.1-7.1c0-2.6,0.6-14,9.6-14c3.3,0,4.7,1.7,4.7,1.7l3.1-1.7
	C482.8,45.4,482.2,48.1,481.2,55.6z M475.5,47.7c-5.4,0-6.6,6.8-6.6,11.6c0,2.9,0.5,4.8,2.9,4.8c1,0,2.8-0.2,5.6-4.1l1.5-11.3
	C478.9,48.6,477.9,47.7,475.5,47.7z M497.7,48.6c-0.1,1.4-0.3,2.5-0.3,2.5c-0.9-1.9-1.9-3.5-4.8-3.5c-2.6,0-3.3,1.3-3.3,2.7
	c0,1.6,0.8,2.3,2.3,3.5l1.8,1.4c1.9,1.5,3.5,2.7,3.5,5.7c0,1.7-0.8,5.7-6.8,5.7c-3.6,0-5.4-1-5.4-1s0.1-0.6,0.3-2
	c0.2-1.4,0.3-2.6,0.3-2.6c0.9,1.7,1.8,3.5,5,3.5c2.8,0,3.5-1.8,3.5-3.1c0-1.8-0.9-2.6-2.2-3.6l-1.9-1.5c-2.3-1.8-3.2-3.2-3.2-5.4
	c0-3,2.1-5.4,6.4-5.4c3.4,0,5.2,1.1,5.2,1.1S497.8,47.2,497.7,48.6z M516.6,66.7c-3.3,0-4.8-1.7-4.8-1.7l-3,1.7
	c0,0,0.3-1.3,1.9-12.2c0.8-5.8,1.6-11.7,1.6-13c0-1-0.1-1.7-0.4-2.2l-0.3-0.5l4.8-0.9c0,0-0.5,2.8-1.3,8.5l-0.1,0.8
	c-0.3,2-0.8,4.4-0.9,4.8c2.6-6.2,5.2-6.5,7.1-6.5c3.3,0,5.1,2.2,5.1,7.2C526.2,55.3,525.6,66.7,516.6,66.7z M519.8,48.1
	c-1,0-2.8,0.2-5.6,4.1l-1.6,11.3c0,0,1,0.9,3.5,0.9c5.4,0,6.6-6.8,6.6-11.6C522.8,49.9,522.2,48.1,519.8,48.1z M536.8,57.4
	c-2.4,0-3.5-0.2-3.5-0.2s-0.1,0.7-0.1,1c0,2.9,0.7,6,4.7,6c4,0,5.6-2.1,5.8-2.6c0,1.5-1.3,5-6.7,5c-2.5,0-7.2-0.5-7.2-7.8
	c0-8.2,3.5-13.4,9.5-13.4c4.6,0,6.2,2.4,6.2,5.1C545.5,56.3,540.7,57.4,536.8,57.4z M538.9,47.6c-2.6,0-4.8,1.7-5.5,7.6
	c0,0,0.8,0.2,3,0.2c3.9,0,5.6-1.5,5.6-4.7C542,49.3,541.4,47.6,538.9,47.6z M568,65.8l-0.4,0.5c0,0-0.7-0.1-1.8-0.1
	c-1.1,0-1.8,0.1-1.8,0.1l-1.7-15.2c-0.1-1.1-0.2-2.3-0.2-2.4c0,0.1-0.2,1.1-0.6,2.4l-5.5,15.2c0,0-0.7-0.1-2.1-0.1
	c-1.4,0-2.2,0.1-2.2,0.1L549.4,50c-0.2-1.4-0.8-2.4-1.2-3l-0.4-0.6l4.2-0.9c0,0,0.2,0.8,0.8,6l1.2,10.4c0.1,1,0.1,2.1,0.1,2.1
	c0-0.1,0.2-0.8,0.7-2.1l5.8-16.1c0,0,0.8,0.1,1.9,0.1s1.9-0.1,1.9-0.1l1.9,16.1c0.1,1.4,0.2,2.1,0.2,2.1s5.5-9.9,5.5-15.7
	c0-1.7-1-2.1-1-2.1s0.8-0.8,2.2-0.8c2,0,2.1,1.5,2.1,2.2C575.5,53,570.3,62.6,568,65.8z M583.3,55.4c-0.5,3.4-1,7.3-1,8
	c0,0.6,0.1,0.9,0.7,1.4l0.5,0.4c0,0-0.9,1.5-2.8,1.5c-1.8,0-1.9-1.2-1.9-1.9c0-1.9,2-12.1,2-15.4c0-1-0.1-1.7-0.4-2.3l-0.3-0.4
	l4.6-0.9C584.7,45.6,584.3,48.4,583.3,55.4z M583.6,42.5c-1.7,0-2.2-1.2-2.2-2c0-1.2,0.8-2.2,2.3-2.2c1.7,0,2.2,1.2,2.2,1.9
	C585.8,41.5,585,42.5,583.6,42.5z M593.6,53.1c-1,7.2-1.3,9.5-1.3,10.2c0,0.6,0.1,0.9,0.7,1.4l0.5,0.4c0,0-0.9,1.5-2.8,1.5
	c-1.8,0-1.9-1.2-1.9-1.9c0-2.6,3-19.6,3-23.1c0-1-0.1-1.7-0.4-2.2l-0.3-0.5l4.8-0.9C595.8,38,595.4,40,593.6,53.1z M614,53.5
	c-1,7.1-1.2,9.2-1.2,9.9c0,0.6,0.1,0.9,0.6,1.4l0.5,0.4c0,0-0.8,1.5-2.7,1.5c-1.8,0-1.9-1.2-1.9-1.9c0-1.5,0.7-4.6,0.7-4.6
	c-2.6,6.2-5.2,6.6-7.1,6.6c-3.3,0-5.1-2.2-5.1-7.2c0-2.6,0.6-14,9.7-14c2.8,0,4.1,1.3,4.1,1.3c0.2-1.9,0.5-4.2,0.5-5.2
	c0-1-0.1-1.7-0.4-2.2l-0.3-0.5l4.7-0.9C616.3,38,615.9,40.1,614,53.5z M608,47.7c-5.4,0-6.6,6.8-6.6,11.6c0,2.9,0.6,4.8,2.9,4.8
	c1,0,2.8-0.2,5.6-4.1l1.5-11.3C611.4,48.6,610.5,47.7,608,47.7z M625.4,57.4c-2.4,0-3.5-0.2-3.5-0.2s-0.1,0.7-0.1,1
	c0,2.9,0.7,6,4.7,6c4,0,5.6-2.1,5.8-2.6c0,1.5-1.3,5-6.7,5c-2.5,0-7.2-0.5-7.2-7.8c0-8.2,3.5-13.4,9.5-13.4c4.6,0,6.2,2.4,6.2,5.1
	C634.1,56.3,629.3,57.4,625.4,57.4z M627.4,47.6c-2.6,0-4.8,1.7-5.5,7.6c0,0,0.8,0.2,3,0.2c3.9,0,5.6-1.5,5.6-4.7
	C630.5,49.3,630,47.6,627.4,47.6z M649.1,48.2c-0.3,1.8-0.3,2.3-0.3,2.3c-0.6-1.3-1.2-2-2.5-2c-2.5,0-4.3,3.9-4.3,3.9l-0.6,4.2
	c-1,7.7-1.1,9.6-1.1,9.6s-0.8-0.1-1.8-0.1c-0.9,0-1.8,0.1-1.8,0.1s0.4-2.3,1.5-10.3c0.5-3.5,0.7-6.1,0.7-7.1c0-0.6-0.1-1.5-0.5-2.1
	l-0.2-0.4l4.6-0.9l-1.1,6.7c1.4-4.2,3.3-6.8,5.7-6.8c1.4,0,2,0.6,2,0.6S649.4,46.6,649.1,48.2z M657.1,57.4c-2.4,0-3.5-0.2-3.5-0.2
	s-0.1,0.7-0.1,1c0,2.9,0.7,6,4.7,6c4,0,5.6-2.1,5.8-2.6c0,1.5-1.3,5-6.7,5c-2.5,0-7.2-0.5-7.2-7.8c0-8.2,3.5-13.4,9.5-13.4
	c4.6,0,6.2,2.4,6.2,5.1C665.8,56.3,661,57.4,657.1,57.4z M659.2,47.6c-2.6,0-4.8,1.7-5.5,7.6c0,0,0.8,0.2,3,0.2
	c3.9,0,5.6-1.5,5.6-4.7C662.3,49.3,661.7,47.6,659.2,47.6z M684.5,53.5c-1,7.1-1.2,9.2-1.2,9.9c0,0.6,0.1,0.9,0.6,1.4l0.5,0.4
	c0,0-0.8,1.5-2.7,1.5c-1.8,0-1.9-1.2-1.9-1.9c0-1.5,0.7-4.6,0.7-4.6c-2.6,6.2-5.2,6.6-7.1,6.6c-3.3,0-5.1-2.2-5.1-7.2
	c0-2.6,0.6-14,9.7-14c2.8,0,4.1,1.3,4.1,1.3c0.2-1.9,0.5-4.2,0.5-5.2c0-1-0.1-1.7-0.4-2.2l-0.3-0.5l4.7-0.9
	C686.8,38,686.4,40.1,684.5,53.5z M678.5,47.7c-5.4,0-6.6,6.8-6.6,11.6c0,2.9,0.6,4.8,2.9,4.8c1,0,2.8-0.2,5.6-4.1l1.5-11.3
	C681.9,48.6,681,47.7,678.5,47.7z M713.2,55.8c-0.4,2.6-0.9,6.7-0.9,7.5c0,0.6,0.1,1,0.7,1.4l0.5,0.4c0,0-0.8,1.5-2.8,1.5
	c-1.7,0-1.9-1.2-1.9-1.9c0-1.5,0.7-4.6,0.7-4.6c-2.7,6.2-5.7,6.6-7.6,6.6c-4.1,0-4.1-3.1-4.1-4.3c0-2.3,1.5-11.1,1.5-13.2
	c0-0.9-0.1-1.7-0.4-2.2l-0.3-0.5l4.7-0.9c0,0-2.2,13.3-2.2,15.9c0,1,0.1,2.6,2.3,2.6c2.1,0,3.7-1.3,5.7-4.1l0.6-4.3
	c0.5-3.4,0.7-5.3,0.7-6.4c0-0.9-0.1-1.7-0.4-2.2l-0.3-0.5l4.7-0.9C714.7,45.6,714.3,47.9,713.2,55.8z M730.1,48.6
	c-0.1,1.4-0.3,2.5-0.3,2.5c-0.9-1.9-1.9-3.5-4.8-3.5c-2.6,0-3.3,1.3-3.3,2.7c0,1.6,0.8,2.3,2.3,3.5l1.8,1.4c1.9,1.5,3.5,2.7,3.5,5.7
	c0,1.7-0.8,5.7-6.8,5.7c-3.6,0-5.4-1-5.4-1s0.1-0.6,0.3-2c0.2-1.4,0.3-2.6,0.3-2.6c0.9,1.7,1.8,3.5,5,3.5c2.8,0,3.5-1.8,3.5-3.1
	c0-1.8-0.9-2.6-2.2-3.6l-1.9-1.5c-2.3-1.8-3.2-3.2-3.2-5.4c0-3,2.1-5.4,6.4-5.4c3.4,0,5.2,1.1,5.2,1.1S730.3,47.2,730.1,48.6z
	 M670.8,1106.7c-1,0-1.4,0-1.4,0s0.3-0.5,0-3.5l-0.2-2.3l-10.5-0.4c-0.8,0-2.4,0-3,0c-1.1,0.1-2.8,0.4-2.6,2.9c0.2,2,1.4,3,1.4,3
	s-3.3,0-3.7-4.5c-0.4-4,2.3-4.6,3.8-4.7c1.2-0.1,2.8-0.1,4.4,0c6.6,0.3,9.9,0.6,9.9,0.6l-0.2-2.4c0,0.1,1.2,1.3,3.3,2.5
	c2.2,1.4,3.8,2,3.8,2l0.1,1.3l-4.6-0.2l0.2,2.3c0.3,2.9,0.7,3.5,0.7,3.5S671.8,1106.7,670.8,1106.7z M656.2,1124.8
	c-0.6,0.1-0.9,0.2-1.3,0.8l-0.3,0.5c0,0-1.5-0.7-1.7-2.7c-0.2-1.8,1-2,1.7-2.1c1.8-0.2,11.5,0.8,14.3,0.5c0.8-0.1,2.4-0.3,2.2-2.5
	c-0.2-2.1-1.6-3.6-4.6-5.4l-4.4-0.2c-7.7-0.3-9.8-0.3-9.8-0.3s0-0.7-0.1-1.7c-0.1-0.9-0.2-1.9-0.2-1.9s2.7,0.2,12,0.7
	c6.7,0.3,11.5,0.5,13,0.4c1-0.1,1.6-0.2,2.2-0.6l0.4-0.3l1.3,4.6c0,0-3-0.3-8.7-0.5l-0.8,0c-2.6-0.1-4.7-0.4-4.7-0.4
	c6.4,2.1,7.1,5.1,7.2,6.8c0.4,4-2.5,4.5-3.8,4.6C667.6,1125.5,658.1,1124.6,656.2,1124.8z M663.3,1136.9c-0.2-2.4-0.1-3.5-0.1-3.5
	s-0.7,0-1,0c-2.9,0.3-5.9,1.3-5.5,5.3c0.4,4,2.6,5.4,3.1,5.5c-1.5,0.1-5.1-0.8-5.6-6.2c-0.2-2.5-0.1-7.3,7.1-7.9
	c8.2-0.8,13.7,2.3,14.2,8.2c0.4,4.6-1.8,6.4-4.5,6.7C665.2,1145.5,663.7,1140.8,663.3,1136.9z M673.3,1138.1
	c-0.2-2.6-2.1-4.6-8.1-4.7c0,0-0.1,0.8,0.1,3c0.4,3.8,2,5.4,5.2,5.1C671.8,1141.3,673.5,1140.6,673.3,1138.1z M675.3,1170
	c-1.3-0.1-2.7,0-2.7,0c1.8-1,3.4-1.9,3.2-5c-0.4-4.5-5.5-5.6-10.7-5.1c-2.6,0.2-6.4,0.7-6,5c0.3,3.5,2.5,4.8,3,5
	c-1.8,0.2-5.1-0.9-5.5-5.7c-0.6-6.3,4.5-7.4,7.5-7.7c1.8-0.2,13-1.1,13.9,8.3c0.3,3.6-0.6,5.3-0.6,5.3S676.6,1170,675.3,1170z
	 M671.4,1177.9c-7.3-0.3-9.6-0.4-10.3-0.3c-0.6,0.1-0.9,0.2-1.3,0.8l-0.3,0.5c0,0-1.5-0.7-1.7-2.7c-0.2-1.8,1-2,1.7-2.1
	c2.5-0.2,19.8,1.2,23.3,0.8c1-0.1,1.6-0.2,2.2-0.6l0.4-0.3l1.3,4.6C686.7,1178.7,684.7,1178.5,671.4,1177.9z M670.6,1198.5
	c-2.6-0.1-6.8-0.3-7.5-0.2c-0.6,0.1-1,0.2-1.4,0.8l-0.3,0.5c0,0-1.5-0.7-1.7-2.6c-0.2-1.7,1-2,1.7-2c1.5-0.1,4.6,0.3,4.6,0.3
	c-6.4-2.1-7.1-5-7.3-6.9c-0.4-4,2.7-4.4,3.9-4.5c2.3-0.2,11.1,0.5,13.3,0.3c0.9-0.1,1.6-0.2,2.2-0.6l0.4-0.3l1.3,4.6
	c0,0-13.4-0.9-16-0.7c-1,0.1-2.6,0.3-2.4,2.6c0.2,2.1,1.6,3.6,4.7,5.3l4.4,0.2c3.4,0.2,5.4,0.2,6.5,0.1c0.9-0.1,1.6-0.2,2.2-0.6
	l0.4-0.3l1.3,4.6C680.9,1199,678.7,1198.8,670.6,1198.5z M670.2,1210.5c-0.2-2.4-0.1-3.5-0.1-3.5s-0.7,0-1,0
	c-2.9,0.3-5.9,1.3-5.5,5.3c0.4,4,2.6,5.4,3.1,5.5c-1.5,0.1-5.1-0.8-5.6-6.2c-0.2-2.5-0.1-7.3,7.1-7.9c8.2-0.8,13.7,2.3,14.2,8.2
	c0.4,4.6-1.8,6.4-4.5,6.7C672.1,1219,670.6,1214.3,670.2,1210.5z M680.2,1211.6c-0.2-2.6-2.1-4.6-8.1-4.7c0,0-0.1,0.8,0.1,3
	c0.4,3.8,2,5.4,5.2,5.1C678.7,1214.9,680.4,1214.2,680.2,1211.6z M662.3,1225.2c0-1.4,1-1.9,1.9-2c1.1-0.1,2.5,0.4,2.9,2.1
	c-0.1,1.4-0.9,1.9-1.9,2C663.9,1227.4,662.7,1226.9,662.3,1225.2z M688.1,1228.5c-1.3-0.5-3.4-0.8-12.9-1.4l-6.3-0.4l-0.2-2.5l6.2,0
	c9.5,0,11.6-0.1,12.7-0.5l0.7-0.2c0,0,0,0.5,0.2,2.7c0.2,2.1,0.3,2.6,0.3,2.6L688.1,1228.5z M681.7,1233.1c0,0,1.4,2.3,5,1.9
	c2.2-0.2,2.7-1.6,2.7-1.6l2.6,2.6c0,0-0.9,1.9-3.8,2.2C685,1238.6,682.1,1236.6,681.7,1233.1z M682.4,1240c0,0,1.4,2.3,5,1.9
	c2.2-0.2,2.7-1.6,2.7-1.6l2.6,2.6c0,0-0.9,1.9-3.8,2.2C685.6,1245.5,682.7,1243.5,682.4,1240z M445.1,1117.5c0,1.4,0.1,2.5,0.1,2.5
	c-1.1-1.8-2.3-3.2-5.2-2.8c-2.5,0.4-3.1,1.8-2.9,3.2c0.2,1.6,1.1,2.2,2.7,3.1l1.9,1.1c2.1,1.2,3.9,2.2,4.3,5.1
	c0.2,1.7,0,5.8-5.9,6.6c-3.6,0.5-5.5-0.3-5.5-0.3s0.1-0.7,0-2c0-1.4-0.1-2.6-0.1-2.6c1.1,1.6,2.3,3.2,5.4,2.8c2.8-0.4,3.2-2.3,3-3.5
	c-0.2-1.8-1.2-2.4-2.7-3.3l-2.1-1.2c-2.5-1.4-3.6-2.7-3.9-4.9c-0.4-3,1.3-5.6,5.6-6.2c3.4-0.5,5.3,0.4,5.3,0.4
	S445.1,1116.1,445.1,1117.5z M465.2,1129.6c0.1,0.6,0.2,0.9,0.9,1.3l0.5,0.3c0,0-0.7,1.6-2.6,1.8c-1.7,0.2-2.1-0.9-2.2-1.6
	c-0.2-1.8,0.3-11.5-0.1-14.3c-0.1-0.8-0.4-2.3-2.6-2c-2.1,0.3-3.5,1.8-5.2,4.9l0,4.4c0,7.7,0.2,9.8,0.2,9.8s-0.7,0-1.7,0.2
	c-0.9,0.1-1.8,0.3-1.8,0.3s0.1-2.7,0.2-12c0-6.7,0-11.5-0.2-13c-0.1-1-0.3-1.6-0.7-2.2l-0.3-0.4l4.6-1.5c0,0-0.1,3-0.1,8.7l0,0.8
	c0,2.6-0.2,4.7-0.2,4.7c1.8-6.5,4.8-7.3,6.5-7.5c4-0.6,4.6,2.3,4.8,3.6C465.3,1118.2,464.9,1127.7,465.2,1129.6z M478.4,1131.2
	c-5.7,0.8-7.7-2.8-8.4-7.9c-0.4-2.9-0.4-12.3,7.5-13.4c5.7-0.8,7.7,2.8,8.4,7.9C486.3,1120.7,486.3,1130.1,478.4,1131.2z
	 M477.7,1112c-5.1,0.7-4.5,9-4.2,11.3c0.8,5.8,3,5.9,4.7,5.7c5.1-0.7,4.5-9,4.2-11.3C481.6,1112,479.4,1111.8,477.7,1112z
	 M505.3,1116.5c0,2.6,0,6.8,0.1,7.5c0.1,0.6,0.2,1,0.9,1.3l0.5,0.3c0,0-0.6,1.6-2.5,1.8c-1.7,0.2-2-1-2.1-1.6
	c-0.2-1.5,0.1-4.6,0.1-4.6c-1.8,6.5-4.7,7.3-6.6,7.6c-4,0.6-4.5-2.5-4.7-3.7c-0.3-2.3,0-11.2-0.3-13.3c-0.1-0.9-0.3-1.6-0.7-2.2
	l-0.3-0.4l4.5-1.5c0,0-0.4,13.5,0,16.1c0.1,1,0.4,2.6,2.7,2.2c2.1-0.3,3.5-1.8,5.1-4.9l0-4.4c0-3.4-0.1-5.4-0.2-6.5
	c-0.1-0.9-0.3-1.6-0.7-2.2l-0.3-0.4l4.5-1.5C505.4,1106.2,505.3,1108.5,505.3,1116.5z M515.1,1112.4c0,7.3,0,9.6,0.1,10.3
	c0.1,0.6,0.2,0.9,0.9,1.3l0.5,0.3c0,0-0.7,1.6-2.6,1.9c-1.7,0.2-2.1-1-2.2-1.6c-0.4-2.5,0.3-19.8-0.2-23.3c-0.1-1-0.3-1.6-0.7-2.2
	l-0.3-0.4l4.6-1.5C515.2,1097.1,515.1,1099.1,515.1,1112.4z M535.4,1109.9c0,7.2,0,9.3,0.1,10c0.1,0.6,0.2,0.9,0.8,1.3l0.5,0.3
	c0,0-0.6,1.6-2.5,1.8c-1.7,0.2-2.1-1-2.2-1.6c-0.2-1.5,0.1-4.6,0.1-4.6c-1.8,6.5-4.3,7.2-6.1,7.5c-3.3,0.5-5.3-1.5-6-6.4
	c-0.4-2.6-1.3-14,7.7-15.2c2.8-0.4,4.2,0.7,4.2,0.7c0-1.9,0-4.2-0.2-5.2c-0.1-1-0.3-1.6-0.7-2.2l-0.3-0.4l4.5-1.5
	C535.5,1094.2,535.4,1096.4,535.4,1109.9z M528.6,1105.1c-5.3,0.7-5.6,7.7-4.9,12.4c0.4,2.9,1.2,4.7,3.5,4.3c1-0.1,2.8-0.6,5-4.9
	l0-11.4C532.1,1105.5,531.1,1104.7,528.6,1105.1z M553.1,1107.1c0,7.3,0,9.6,0.1,10.3c0.1,0.6,0.2,0.9,0.9,1.3l0.5,0.3
	c0,0-0.7,1.6-2.6,1.9c-1.7,0.2-2.1-1-2.2-1.6c-0.4-2.5,0.3-19.8-0.2-23.3c-0.1-1-0.3-1.6-0.7-2.2l-0.3-0.4l4.6-1.5
	C553.2,1091.8,553.1,1093.8,553.1,1107.1z M566.4,1119c-5.7,0.8-7.7-2.8-8.4-7.9c-0.4-2.9-0.4-12.3,7.5-13.4
	c5.7-0.8,7.7,2.8,8.4,7.9C574.3,1108.5,574.3,1117.9,566.4,1119z M565.7,1099.8c-5.1,0.7-4.5,9-4.2,11.3c0.8,5.8,3,5.9,4.7,5.7
	c5.1-0.7,4.5-9,4.2-11.3C569.6,1099.8,567.4,1099.6,565.7,1099.8z M588.2,1097.7c0,1.4,0.1,2.5,0.1,2.5c-1.1-1.8-2.3-3.2-5.2-2.8
	c-2.5,0.4-3.1,1.8-2.9,3.2c0.2,1.6,1.1,2.2,2.7,3.1l1.9,1.1c2.1,1.2,3.9,2.2,4.3,5.1c0.2,1.7,0,5.8-5.9,6.6
	c-3.6,0.5-5.5-0.3-5.5-0.3s0.1-0.7,0-2c0-1.4-0.1-2.6-0.1-2.6c1.1,1.6,2.3,3.2,5.4,2.8c2.8-0.4,3.2-2.3,3-3.5
	c-0.2-1.8-1.2-2.4-2.7-3.3l-2.1-1.2c-2.5-1.4-3.6-2.7-3.9-4.9c-0.4-3,1.3-5.6,5.6-6.2c3.4-0.5,5.3,0.4,5.3,0.4
	S588.2,1096.3,588.2,1097.7z M599.2,1105c-2.4,0.3-3.5,0.3-3.5,0.3s0,0.7,0.1,1c0.4,2.9,1.5,5.9,5.5,5.3c4-0.5,5.2-2.8,5.4-3.4
	c0.2,1.5-0.6,5.2-6,5.9c-2.5,0.3-7.2,0.5-8.2-6.7c-1.1-8.1,1.7-13.7,7.6-14.6c4.5-0.6,6.5,1.5,6.9,4.2
	C607.7,1102.8,603.1,1104.5,599.2,1105z M599.9,1095c-2.6,0.4-4.5,2.3-4.4,8.3c0,0,0.8,0.1,3-0.2c3.8-0.5,5.3-2.2,4.9-5.4
	C603.2,1096.3,602.4,1094.7,599.9,1095z M323.1,989.9c0,0-0.4-0.2-1.3-0.2c-2.3-0.1-12,3.6-26.3,4.5c0,0-0.4-0.7-1.1-1.9
	c-0.7-1.2-1.3-1.9-1.3-1.9l16.5-13.3c0.8-0.6,1.5-1,1.5-1.1c-0.1,0-0.9,0.4-1.9,0.6l-21.8,4.8c0,0-0.5-0.9-1.2-2
	c-0.7-1.2-1.3-1.9-1.3-1.9l13.3-11.1c4.6-3.9,5.6-4.7,6.1-6.3c0,0,0.5,1,1.6,2.7c1.1,1.7,1.9,2.8,1.9,2.8c-1.1-0.5-2-0.4-3.2,0.3
	c-0.8,0.5-1.8,1.2-4.4,3.3l-10.6,8.6c-0.8,0.7-1.5,1.1-1.5,1.1c0.1,0,0.8-0.3,1.9-0.5l22.7-5.1c0,0,0.5,0.9,1.1,1.9
	c0.6,0.9,1.2,1.9,1.2,1.9l-18.4,14.7c7-0.7,18.7-3,22.2-5.2c0.5-0.3,1-0.7,1.1-1.6c0,0,0.4,0.8,1.5,2.4
	C322.5,989,323.1,989.8,323.1,989.9z M311.6,1014.4c-0.5,0.3-0.8,0.6-0.8,1.3l-0.1,0.6c0,0-1.7,0.1-2.7-1.6c-0.9-1.5,0-2.3,0.6-2.7
	c1.5-1,10.6-4.5,13-6c0.7-0.4,2-1.3,0.8-3.2c-1.1-1.8-3.1-2.5-6.6-2.7l-4,1.8c-7,3.2-8.9,4.2-8.9,4.2s-0.3-0.6-0.9-1.5
	c-0.5-0.8-1.1-1.5-1.1-1.5s2.5-1,11-4.8c6.1-2.8,10.5-4.7,11.8-5.5c0.8-0.5,1.4-0.9,1.7-1.5l0.3-0.5l3.3,3.5c0,0-2.8,1.1-8,3.5
	l-0.7,0.3c-2.4,1.1-4.4,1.7-4.4,1.7c6.6-1,8.6,1.4,9.5,2.9c2.2,3.4-0.3,5.1-1.4,5.8C322.1,1009.8,313.3,1013.4,311.6,1014.4z
	 M329.4,1028.5c-2.4,1.1-6.2,2.8-6.8,3.2c-0.5,0.3-0.8,0.6-0.9,1.3l-0.1,0.6c0,0-1.7,0.1-2.7-1.6c-0.9-1.5,0-2.2,0.6-2.6
	c1.3-0.8,4.3-1.8,4.3-1.8c-6.7,1.1-8.3-1-9.3-2.5c-1.8-2.8-0.8-5.4,3.4-8c2.3-1.4,12.2-7,17,0.7c1.8,2.8,1.1,4.8,1.1,4.8l3,1.7
	C339,1024.3,336.7,1025.3,329.4,1028.5z M333.2,1019.4c-2.9-4.5-9.3-1.9-13.3,0.6c-2.4,1.5-3.8,3-2.5,5c0.5,0.9,1.7,2.2,6.5,2.5
	l10.4-4.7C334.3,1022.8,334.5,1021.5,333.2,1019.4z M345.8,1038.2c-0.9,0.4-1.3,0.6-1.3,0.6s0.1-0.6-1.5-3.1l-1.2-2l-9.6,4.4
	c-0.7,0.3-2.2,1.1-2.7,1.4c-1,0.6-2.4,1.6-1,3.7c1.1,1.7,2.6,2,2.6,2s-2.9,1.4-5.3-2.4c-2.1-3.4,0-5.1,1.3-5.9c1-0.6,2.5-1.4,3.9-2
	c6.1-2.7,9.1-3.9,9.1-3.9l-1.3-2c0.1,0,1.7,0.6,4.1,0.8c2.5,0.2,4.3,0,4.3,0l0.7,1.1l-4.1,1.9l1.2,1.9c1.6,2.5,2.2,2.8,2.2,2.8
	S346.6,1037.8,345.8,1038.2z M346.6,1055c-3.1,1.4-6.7,3-7.3,3.4c-0.5,0.3-0.8,0.6-0.8,1.3l-0.1,0.6c0,0-1.7,0.1-2.8-1.6
	c-0.9-1.5,0-2.3,0.6-2.6c1.6-1,11.3-4.8,14.1-6.5c0.8-0.5,1.4-1,1.7-1.5l0.2-0.4l3.3,3.4C355.6,1051,353,1052.1,346.6,1055z
	 M357.7,1048.3c-0.9-1.5-0.1-2.5,0.5-2.9c1-0.7,2.3-0.5,3.1,0.8c0.9,1.5,0.1,2.5-0.5,2.9C359.7,1049.7,358.4,1049.6,357.7,1048.3z
	 M369.3,1062.2c-1.1,0.5-1.8,0.9-1.8,0.9c0.9-1.7,0.6-2.8,0.1-3.7c-0.6-1-1.3-1.4-2.2-1.5c-1.1-0.1-2.1,0.5-3.6,1.1l-1.6,0.8
	l0.5,0.9c1.5,2.3,2.2,2.8,2.2,2.8s-0.5,0.2-1.4,0.6c-0.8,0.4-1.2,0.7-1.2,0.7s-0.1-0.9-1.5-3.2l-0.5-0.8l-13.3,6.2
	c-5.2,2.4-9.6,5.1-12.3,0.8c-1.2-1.9-1.2-2.7-1.2-2.7s0.4-0.1,1.4-0.6c1.1-0.5,1.7-0.9,1.7-0.9c-0.9,1.5-0.8,2.3-0.4,3
	c1,1.5,2.2,0.9,5.2-0.6l17.2-8.1l-1.1-1.7l0.6,0.2c1.7,0.6,2.5,0.6,3.4,0.2l0.5-0.2c2.6-1.2,6.3-3,9.6,2.3c1.2,2,1.4,2.9,1.4,2.9
	S370.3,1061.7,369.3,1062.2z M354,1088.1c-3.1-4.9-0.6-8.1,3.7-10.9c2.5-1.6,11.1-5.4,15.3,1.3c3.1,4.9,0.6,8.1-3.7,10.9
	C366.8,1091,358.2,1094.8,354,1088.1z M371.2,1079.6c-2.7-4.3-10.1-0.4-12.1,0.8c-4.9,3.1-4.2,5.2-3.3,6.6
	c2.7,4.3,10.1,0.4,12.1-0.8C372.8,1083.1,372.1,1081,371.2,1079.6z M371.6,1109.9c-0.5,0.3-0.8,0.6-0.8,1.3l-0.1,0.6
	c0,0-1.7,0.1-2.7-1.6c-0.9-1.5,0-2.3,0.6-2.7c1.5-1,10.6-4.5,13-6c0.7-0.4,2-1.3,0.8-3.2c-1.1-1.8-3.1-2.5-6.6-2.7l-4,1.8
	c-7,3.2-8.9,4.2-8.9,4.2s-0.3-0.7-0.9-1.6c-0.5-0.8-1-1.5-1-1.5s2.2-0.9,9.5-4.1c3.2-1.4,5.6-2.6,6.4-3.1c0.5-0.3,1.2-0.8,1.5-1.5
	l0.2-0.4l3.2,3.4l-6,2.6c6.6-1,8.6,1.4,9.5,2.9c2.2,3.4-0.3,5.1-1.4,5.8C382.1,1105.3,373.3,1108.8,371.6,1109.9z M383.5,1117.6
	c-1.3-2-1.7-3.1-1.7-3.1s-0.6,0.3-0.9,0.5c-2.4,1.5-4.7,3.8-2.6,7.2c2.1,3.4,4.7,3.6,5.3,3.5c-1.3,0.8-5,1.6-7.8-3
	c-1.3-2.1-3.4-6.4,2.8-10.3c6.9-4.4,13.2-4.1,16.4,0.9c2.4,3.9,1.3,6.6-1,8C389.1,1124.3,385.6,1120.9,383.5,1117.6z M392.9,1114.1
	c-1.4-2.2-4-3.1-9.3-0.6c0,0,0.3,0.8,1.4,2.6c2,3.3,4.2,3.9,6.9,2.2C393.1,1117.6,394.3,1116.2,392.9,1114.1z M526.8,767.5
	c-4.4,3.8-7.9,1.9-11.3-2c-1.9-2.2-7.1-10.1-1.1-15.4c4.3-3.8,7.9-1.9,11.3,2C527.6,754.4,532.7,762.2,526.8,767.5z M515.6,751.9
	c-3.8,3.4,1.2,10,2.7,11.8c3.8,4.4,5.8,3.3,7,2.2c3.8-3.4-1.2-10-2.7-11.8C518.9,749.7,516.9,750.7,515.6,751.9z M533.4,737
	c1,1.5,1.3,1.9,1.3,1.9c-1.3-0.5-2.2-0.7-3.2,0.1c-1.9,1.7-0.6,5.8-0.6,5.8l2.4,3.6c4.3,6.4,5.5,8,5.5,8s-0.6,0.4-1.4,1.1
	c-0.7,0.6-1.3,1.2-1.3,1.2s-1.2-2-5.6-8.7c-1.9-2.9-3.5-5.1-4.1-5.8c-0.4-0.5-1-1.1-1.8-1.3l-0.4-0.1l2.8-3.7l3.5,5.7
	c-1.7-4.1-2-7.3-0.2-8.9c1.1-0.9,1.9-0.9,1.9-0.9S532.5,735.7,533.4,737z M547.6,731.2c4,6.1,5.3,8,5.8,8.5c0.4,0.4,0.7,0.7,1.4,0.6
	l0.6,0c0,0,0.3,1.7-1.2,3c-1.3,1.2-2.2,0.3-2.7-0.2c-1.7-1.9-10.7-16.7-13-19.4c-0.6-0.7-1.1-1.2-1.8-1.4l-0.5-0.2l3-3.8
	C539.3,718.3,540.3,720.1,547.6,731.2z M559,726.9c-1.8,1.6-2.8,2.2-2.8,2.2s0.4,0.6,0.6,0.8c1.9,2.2,4.5,4,7.5,1.4
	c3-2.6,2.8-5.2,2.7-5.8c1,1.1,2.3,4.6-1.7,8.2c-1.9,1.6-5.8,4.4-10.6-1.1c-5.4-6.2-6.2-12.4-1.7-16.3c3.4-3,6.3-2.3,8.1-0.2
	C564.8,720.4,561.9,724.3,559,726.9z M554,718.1c-2,1.7-2.5,4.4,0.9,9.3c0,0,0.7-0.4,2.4-1.8c2.9-2.5,3.2-4.8,1.1-7.2
	C557.5,717.4,555.9,716.5,554,718.1z M565.9,697.6c0.7,1,1.2,1.6,1.2,1.6c-1.8-0.6-2.9-0.1-3.6,0.5c-0.9,0.8-1.2,1.5-1.2,2.4
	c0.1,1.2,0.8,2,1.7,3.4l1,1.5l0.8-0.7c2.1-1.8,2.4-2.6,2.4-2.6s0.3,0.5,0.8,1.3c0.5,0.8,0.8,1.1,0.8,1.1s-0.9,0.2-2.9,2l-0.7,0.6
	l8.2,12.2c3.2,4.7,6.5,8.7,2.7,12c-1.7,1.4-2.5,1.6-2.5,1.6s-0.2-0.4-0.8-1.2c-0.7-1-1.1-1.6-1.1-1.6c1.7,0.6,2.4,0.4,3,0
	c1.4-1.2,0.5-2.3-1.4-5.1l-10.7-15.7l-1.5,1.4l0.1-0.6c0.3-1.7,0.2-2.6-0.3-3.4l-0.3-0.5c-1.6-2.4-3.9-5.7,0.8-9.8
	c1.7-1.5,2.6-1.9,2.6-1.9S565.3,696.7,565.9,697.6z M578.3,696.3c0.6,0.8,0.8,1.2,0.8,1.2s-0.6,0-2.8,2l-1.7,1.5l5.8,8.8
	c0.4,0.7,1.4,2,1.8,2.4c0.8,0.9,2,2.1,3.9,0.4c1.5-1.3,1.6-2.9,1.6-2.9s1.9,2.7-1.5,5.6c-3,2.7-5.1,0.8-6-0.3
	c-0.8-0.9-1.7-2.3-2.6-3.5c-3.7-5.5-5.3-8.4-5.3-8.4l-1.8,1.6c0-0.1,0.3-1.7,0.1-4.2c-0.2-2.5-0.6-4.3-0.6-4.3l0.9-0.8l2.6,3.8
	l1.7-1.5c2.2-1.9,2.4-2.6,2.4-2.6S577.8,695.5,578.3,696.3z M593.8,715.1c0,0,0.6-2.4-1.4-4.7c-1.2-1.4-2.2-0.9-2.2-0.9L590,709
	c-0.9-1.3-0.8-2.4,0.2-3.6c1.4-0.9,2.5-0.2,3.5,0.9C595.8,708.8,596.8,712.6,593.8,715.1z M601.9,677.6c0.8,1.1,1.5,2.1,1.5,2.1
	c-1.9-0.9-3.7-1.4-5.9,0.5c-1.9,1.7-1.6,3.2-0.7,4.3c1,1.2,2.1,1.2,4,1.1l2.2-0.1c2.4-0.1,4.5-0.3,6.4,2c1.1,1.3,3.1,4.9-1.3,8.8
	c-2.7,2.4-4.7,2.8-4.7,2.8s-0.3-0.6-1.1-1.7c-0.8-1.1-1.5-2.1-1.5-2.1c1.8,0.7,3.7,1.4,6.1-0.7c2.1-1.8,1.4-3.7,0.6-4.6
	c-1.2-1.4-2.4-1.4-4.1-1.3l-2.4,0.1c-2.9,0.2-4.5-0.3-6-2c-2-2.3-2-5.4,1.3-8.3c2.5-2.2,4.6-2.6,4.6-2.6S601.1,676.4,601.9,677.6z
	 M621.4,684.6c-4.4,3.8-7.9,1.9-11.3-2c-1.9-2.2-7.1-10.1-1.1-15.4c4.3-3.8,7.9-1.9,11.3,2C622.3,671.4,627.4,679.3,621.4,684.6z
	 M610.3,668.9c-3.8,3.4,1.2,10,2.7,11.8c3.8,4.4,5.8,3.3,7,2.2c3.8-3.4-1.2-10-2.7-11.8C613.5,666.7,611.6,667.8,610.3,668.9z
	 M648.6,656.3c0.4,0.4,0.7,0.7,1.4,0.6l0.6,0c0,0,0.3,1.7-1.1,3c-1.3,1.2-2.2,0.3-2.7-0.2c-1.2-1.4-6.1-9.7-8-11.9
	c-0.5-0.6-1.6-1.8-3.3-0.3c-1.6,1.4-2,3.4-1.6,6.9l2.4,3.7c4.2,6.4,5.5,8.1,5.5,8.1s-0.6,0.4-1.4,1.1c-0.7,0.6-1.4,1.3-1.4,1.3
	s-0.8-1.6-4.3-6.9c-1.2-1.8-3.5-5.4-4.4-6.3c-0.7-0.8-1.7-1.9-3.4-0.4c-1.6,1.4-1.9,3.4-1.6,6.9l2.5,3.7c4.2,6.4,5.5,8.1,5.5,8.1
	s-0.6,0.4-1.4,1.1c-0.7,0.6-1.3,1.2-1.3,1.2s-1.2-2-5.6-8.8c-1.9-2.9-3.4-5.1-4.1-5.9c-0.4-0.5-1-1.1-1.8-1.3l-0.4-0.1l2.8-3.7
	l3.5,5.5c-1.8-5.6-0.6-8.2,1.2-9.8c3.1-2.8,5.2-0.4,5.9,0.4c0.5,0.5,1.1,1.6,1.2,1.7c-2-6.2,0.1-8.5,1.4-9.6c3.1-2.7,5.1-0.6,6,0.4
	C642.4,646.7,647.3,654.9,648.6,656.3z M654.3,643.3c-1.8,1.6-2.8,2.2-2.8,2.2s0.4,0.6,0.6,0.8c1.9,2.2,4.5,4,7.5,1.4
	c3-2.6,2.8-5.2,2.7-5.8c1,1.1,2.3,4.6-1.7,8.2c-1.9,1.6-5.8,4.4-10.6-1.1c-5.4-6.2-6.2-12.4-1.7-16.3c3.4-3,6.3-2.3,8.1-0.2
	C660.1,636.8,657.3,640.8,654.3,643.3z M649.4,634.6c-2,1.7-2.5,4.4,0.9,9.3c0,0,0.7-0.4,2.4-1.8c2.9-2.5,3.2-4.8,1.1-7.2
	C652.9,633.9,651.3,632.9,649.4,634.6z M665,620.4c0.6,0.8,0.8,1.2,0.8,1.2s-0.6,0-2.8,2l-1.7,1.5l5.8,8.8c0.4,0.7,1.4,2,1.8,2.4
	c0.8,0.9,2,2.1,3.9,0.4c1.5-1.3,1.6-2.9,1.6-2.9s1.9,2.7-1.5,5.6c-3,2.7-5.1,0.8-6-0.3c-0.8-0.9-1.7-2.3-2.6-3.5
	c-3.7-5.5-5.3-8.4-5.3-8.4l-1.8,1.6c0-0.1,0.3-1.7,0.1-4.2c-0.2-2.5-0.6-4.3-0.6-4.3l0.9-0.8l2.6,3.8l1.7-1.5
	c2.2-1.9,2.4-2.6,2.4-2.6S664.5,619.5,665,620.4z M675.3,622.3c1.9,2.9,4.1,6.1,4.5,6.7c0.4,0.4,0.7,0.7,1.4,0.6l0.6,0
	c0,0,0.3,1.7-1.2,3c-1.3,1.2-2.2,0.3-2.7-0.2c-1.3-1.4-6.5-10.4-8.7-12.9c-0.6-0.7-1.2-1.2-1.8-1.4l-0.5-0.2l2.9-3.8
	C669.9,614,671.4,616.4,675.3,622.3z M666.9,612.4c-1.3,1.1-2.4,0.5-2.9-0.1c-0.8-0.9-0.9-2.2,0.3-3.1c1.3-1.1,2.4-0.5,2.9,0
	C668,610.2,668.1,611.5,666.9,612.4z M704.2,607.6c0.4,0.4,0.7,0.7,1.4,0.6l0.6,0c0,0,0.3,1.7-1.1,3c-1.3,1.2-2.2,0.3-2.7-0.2
	c-1.2-1.4-6.1-9.7-8-11.9c-0.5-0.6-1.6-1.8-3.3-0.3c-1.6,1.4-2,3.4-1.6,6.9l2.4,3.7c4.2,6.4,5.5,8.1,5.5,8.1s-0.6,0.4-1.4,1.1
	c-0.7,0.6-1.4,1.3-1.4,1.3s-0.8-1.6-4.3-6.9c-1.2-1.8-3.5-5.4-4.4-6.3c-0.7-0.8-1.7-1.9-3.4-0.4c-1.6,1.4-1.9,3.4-1.6,6.9l2.5,3.7
	c4.2,6.4,5.5,8.1,5.5,8.1s-0.6,0.4-1.4,1.1c-0.7,0.6-1.3,1.2-1.3,1.2s-1.2-2-5.6-8.8c-1.9-2.9-3.4-5.1-4.1-5.9
	c-0.4-0.5-1-1.1-1.8-1.3l-0.4-0.1l2.8-3.7l3.5,5.5c-1.8-5.6-0.6-8.2,1.2-9.8c3.1-2.8,5.2-0.4,5.9,0.4c0.5,0.5,1.1,1.6,1.2,1.7
	c-2-6.2,0.1-8.5,1.4-9.6c3.1-2.7,5.1-0.6,6,0.4C698,598,702.9,606.2,704.2,607.6z M709.9,594.7c-1.8,1.6-2.8,2.2-2.8,2.2
	s0.4,0.6,0.6,0.8c1.9,2.2,4.5,4,7.5,1.4c3-2.6,2.8-5.2,2.7-5.8c1,1.1,2.3,4.6-1.7,8.2c-1.9,1.6-5.8,4.4-10.6-1.1
	c-5.4-6.2-6.2-12.4-1.7-16.3c3.4-3,6.3-2.3,8.1-0.2C715.7,588.2,712.8,592.1,709.9,594.7z M705,585.9c-2,1.7-2.5,4.4,0.9,9.3
	c0,0,0.7-0.4,2.4-1.8c2.9-2.5,3.2-4.8,1.1-7.2C708.5,585.2,706.9,584.3,705,585.9z M721.6,572.7c0.8,1.1,1.5,2.1,1.5,2.1
	c-1.9-0.9-3.7-1.4-5.9,0.5c-1.9,1.7-1.6,3.2-0.7,4.3c1,1.2,2.1,1.2,4,1.1l2.2-0.1c2.4-0.1,4.5-0.3,6.4,2c1.1,1.3,3.1,4.9-1.3,8.8
	c-2.7,2.4-4.7,2.8-4.7,2.8s-0.3-0.6-1.1-1.7c-0.8-1.1-1.5-2.1-1.5-2.1c1.8,0.7,3.7,1.4,6.1-0.7c2.1-1.8,1.4-3.7,0.6-4.6
	c-1.2-1.4-2.4-1.4-4.1-1.3l-2.4,0.1c-2.9,0.2-4.5-0.3-6-2c-2-2.3-2-5.4,1.3-8.3c2.5-2.2,4.6-2.6,4.6-2.6S720.8,571.6,721.6,572.7z
	 M516.6,834.1c-0.9,0.5-1.3,0.7-1.3,0.7s0-0.6-1.6-3.1l-1.3-1.9l-9.4,4.7c-0.7,0.4-2.1,1.1-2.6,1.5c-1,0.6-2.3,1.7-0.9,3.8
	c1.1,1.6,2.6,2,2.6,2s-2.9,1.5-5.4-2.2c-2.3-3.3-0.2-5.1,1.1-6c1-0.7,2.5-1.4,3.8-2.1c6-2.9,9-4.3,9-4.3l-1.4-2
	c0.1,0,1.7,0.5,4.1,0.6c2.5,0.2,4.3-0.1,4.3-0.1l0.7,1l-4.1,2.1l1.3,1.9c1.7,2.4,2.3,2.7,2.3,2.7S517.5,833.7,516.6,834.1z
	 M505.2,852.2c-3.2-4.8-0.9-8.1,3.4-11c2.4-1.7,10.9-5.8,15.4,0.8c3.2,4.8,0.9,8.1-3.4,11C518.1,854.7,509.7,858.8,505.2,852.2z
	 M522.1,843.2c-2.9-4.2-10.1-0.1-12,1.2c-4.8,3.3-4,5.3-3,6.7c2.9,4.2,10.1,0.1,12-1.2C523.9,846.6,523.1,844.6,522.1,843.2z
	 M540,871.3c-1.2,0.6-2.4,1.3-2.4,1.3c1.1-1.8,2.1-3.3,0.4-5.9c-2.5-3.7-7.5-2.3-11.8,0.7c-2.1,1.5-5.3,3.7-2.9,7.2c2,3,4.5,3,5.1,3
	c-1.5,1-4.9,1.7-7.6-2.4c-3.6-5.2,0.4-8.6,2.8-10.3c1.5-1,10.9-7.2,16.2,0.6c2,3,2,4.9,2,4.9S541.2,870.7,540,871.3z M537.6,894.1
	c-0.5,0.3-0.7,0.6-0.8,1.4l0,0.6c0,0-1.7,0.1-2.8-1.5c-1-1.5-0.1-2.3,0.5-2.7c1.5-1,10.4-4.8,12.8-6.5c0.7-0.4,1.9-1.4,0.7-3.2
	c-1.2-1.8-3.1-2.4-6.6-2.5l-4,2c-6.9,3.4-8.7,4.5-8.7,4.5s-0.3-0.6-0.9-1.5c-0.5-0.8-1.1-1.5-1.1-1.5s2.4-1.1,10.8-5.1
	c6-3,10.3-5.1,11.6-5.9c0.8-0.5,1.3-1,1.6-1.6l0.2-0.5l3.4,3.4c0,0-2.8,1.2-7.9,3.8l-0.7,0.4c-2.3,1.1-4.3,1.9-4.3,1.9
	c6.6-1.2,8.7,1.1,9.6,2.5c2.3,3.4-0.1,5.1-1.2,5.9C547.9,889.1,539.2,893,537.6,894.1z M542,906.6c-3.2-4.8-0.9-8.1,3.4-11
	c2.4-1.7,10.9-5.8,15.4,0.8c3.2,4.8,0.9,8.1-3.4,11C555,909.1,546.5,913.2,542,906.6z M558.9,897.5c-2.9-4.2-10.1-0.1-12,1.2
	c-4.8,3.3-4,5.3-3,6.7c2.9,4.2,10.1,0.1,12-1.2C560.7,901,559.9,899,558.9,897.5z M553.2,923.1c-3.2-4.8-0.9-8.1,3.4-11
	c2.4-1.7,10.9-5.8,15.4,0.8c3.2,4.8,0.9,8.1-3.4,11C566.1,925.6,557.7,929.7,553.2,923.1z M570.1,914c-2.9-4.2-10.1-0.1-12,1.2
	c-4.8,3.3-4,5.3-3,6.7c2.9,4.2,10.1,0.1,12-1.2C571.9,917.5,571.1,915.5,570.1,914z M582,933.3c-1.2,0.6-2.2,1.2-2.2,1.2
	c1.1-1.8,1.9-3.5,0.3-5.9c-1.4-2.1-3-2-4.1-1.2c-1.3,0.9-1.4,2-1.6,3.8l-0.1,2.2c-0.2,2.4-0.3,4.5-2.7,6.1c-1.4,0.9-5.2,2.5-8.5-2.4
	c-2-3-2.2-5-2.2-5s0.6-0.2,1.8-0.9c1.2-0.6,2.3-1.2,2.3-1.2c-0.9,1.7-1.9,3.4-0.1,6.1c1.6,2.3,3.5,1.9,4.5,1.2
	c1.5-1,1.6-2.2,1.8-3.9l0.2-2.4c0.2-2.9,0.8-4.4,2.7-5.7c2.5-1.7,5.6-1.3,8,2.3c1.9,2.8,2,4.9,2,4.9S583.2,932.6,582,933.3z
	 M580.2,946.4c-1.4-2-1.8-3-1.8-3s-0.6,0.3-0.9,0.5c-2.4,1.6-4.6,4-2.3,7.3c2.2,3.3,4.9,3.4,5.4,3.3c-1.2,0.8-4.9,1.8-7.9-2.7
	c-1.4-2.1-3.6-6.3,2.4-10.4c6.8-4.6,13.1-4.6,16.4,0.4c2.6,3.8,1.5,6.5-0.8,8C586,953,582.4,949.6,580.2,946.4z M589.5,942.6
	c-1.5-2.2-4.1-3-9.4-0.3c0,0,0.3,0.8,1.5,2.6c2.2,3.2,4.3,3.8,7,2C589.8,946.1,590.9,944.7,589.5,942.6z M587.5,973.8
	c-3.2-4.8-0.9-8.1,3.4-11c2.4-1.7,10.9-5.8,15.4,0.8c3.2,4.8,0.9,8.1-3.4,11C600.4,976.2,592,980.4,587.5,973.8z M604.4,964.7
	c-2.9-4.2-10.1-0.1-12,1.2c-4.8,3.3-4,5.3-3,6.7c2.9,4.2,10.1,0.1,12-1.2C606.2,968.1,605.4,966.1,604.4,964.7z M605.9,995
	c-0.5,0.3-0.7,0.6-0.8,1.4l0,0.6c0,0-1.7,0.1-2.8-1.5c-1-1.5-0.1-2.3,0.5-2.7c1.5-1,10.4-4.8,12.8-6.5c0.7-0.4,1.9-1.4,0.7-3.2
	c-1.2-1.8-3.1-2.4-6.6-2.5l-4,2c-6.9,3.4-8.7,4.5-8.7,4.5s-0.4-0.7-0.9-1.5c-0.5-0.7-1.1-1.4-1.1-1.4s2.1-0.9,9.4-4.4
	c3.1-1.5,5.5-2.8,6.3-3.3c0.5-0.4,1.2-0.9,1.5-1.6l0.2-0.4l3.3,3.3l-5.9,2.8c6.6-1.2,8.7,1.1,9.6,2.5c2.3,3.4-0.1,5.1-1.2,5.9
	C616.2,990,607.5,993.9,605.9,995z M618.1,1002.3c-1.4-2-1.8-3-1.8-3s-0.6,0.3-0.9,0.5c-2.4,1.6-4.6,4-2.3,7.3
	c2.2,3.3,4.9,3.4,5.4,3.3c-1.2,0.8-4.9,1.8-7.9-2.7c-1.4-2.1-3.6-6.3,2.4-10.4c6.8-4.6,13.1-4.6,16.4,0.4c2.6,3.8,1.5,6.5-0.8,8
	C623.8,1008.8,620.2,1005.5,618.1,1002.3z M627.3,998.4c-1.5-2.2-4.1-3-9.4-0.3c0,0,0.3,0.8,1.5,2.6c2.2,3.2,4.3,3.8,7,2
	C627.6,1002,628.8,1000.6,627.3,998.4z M625.3,1029.6c-3.2-4.8-0.9-8.1,3.4-11c2.4-1.7,10.9-5.8,15.4,0.8c3.2,4.8,0.9,8.1-3.4,11
	C638.3,1032.1,629.8,1036.2,625.3,1029.6z M642.2,1020.5c-2.9-4.2-10.1-0.1-12,1.2c-4.8,3.3-4,5.3-3,6.7c2.9,4.2,10.1,0.1,12-1.2
	C644,1024,643.2,1022,642.2,1020.5z M662,1036c-1.1,0.5-1.7,1-1.7,1c0.8-1.7,0.5-2.9,0-3.7c-0.7-1-1.3-1.4-2.2-1.5
	c-1.1-0.1-2.1,0.5-3.6,1.3l-1.6,0.8l0.6,0.8c1.5,2.3,2.3,2.7,2.3,2.7s-0.5,0.2-1.4,0.6c-0.8,0.4-1.2,0.7-1.2,0.7s-0.1-0.9-1.6-3.1
	l-0.5-0.8l-13.1,6.6c-5.1,2.6-9.4,5.4-12.3,1.2c-1.2-1.8-1.3-2.7-1.3-2.7s0.4-0.1,1.3-0.6c1-0.5,1.7-0.9,1.7-0.9
	c-0.8,1.6-0.7,2.4-0.3,3c1,1.5,2.2,0.8,5.2-0.7l16.9-8.6l-1.2-1.7l0.6,0.2c1.7,0.5,2.5,0.6,3.4,0.1l0.5-0.3c2.6-1.3,6.2-3.2,9.6,2
	c1.3,1.9,1.5,2.8,1.5,2.8S663,1035.5,662,1036z M570.4,1032.1c0.4-0.9,0.6-1.3,0.6-1.3s0.3,0.5,3.1,1.6l2.2,0.8l5-9.2
	c0.4-0.7,1.1-2.2,1.3-2.7c0.4-1.1,0.9-2.7-1.4-3.6c-1.8-0.7-3.3-0.1-3.3-0.1s1.5-2.9,5.7-1.3c3.8,1.4,3.1,4.1,2.5,5.5
	c-0.4,1.1-1.2,2.6-1.9,3.9c-3.2,5.8-4.9,8.6-4.9,8.6l2.3,0.9c-0.1,0-1.7,0.6-3.7,1.8c-2.2,1.3-3.5,2.6-3.5,2.6l-1.2-0.4l2.2-4
	l-2.1-0.8c-2.8-1.1-3.5-0.9-3.5-0.9S569.9,1032.9,570.4,1032.1z M560.6,1011c0.2-0.5,0.3-0.9-0.1-1.6l-0.3-0.5c0,0,1.3-1.1,3.1-0.4
	c1.6,0.6,1.4,1.8,1.1,2.5c-0.6,1.7-5.8,9.9-6.8,12.6c-0.3,0.7-0.8,2.2,1.3,3c2,0.8,3.9,0.2,6.9-1.8l2.1-3.9c3.7-6.8,4.6-8.7,4.6-8.7
	s0.6,0.3,1.6,0.7c0.9,0.3,1.8,0.6,1.8,0.6s-1.4,2.3-5.9,10.4c-3.3,5.9-5.6,10.1-6.1,11.5c-0.3,0.9-0.5,1.6-0.4,2.2l0.1,0.5l-4.8-0.9
	c0,0,1.6-2.6,4.3-7.6l0.4-0.7c1.2-2.3,2.5-4,2.5-4c-4.7,4.8-7.7,4.1-9.3,3.4c-3.8-1.5-2.9-4.3-2.4-5.5
	C555,1021,559.9,1012.8,560.6,1011z M538.2,1018.7c0.9-1.6,1.1-2.1,1.1-2.1c0.1,1.4,0.4,2.3,1.6,2.8c2.4,0.9,5.4-2.1,5.4-2.1
	l2.1-3.8c3.7-6.8,4.5-8.6,4.5-8.6s0.7,0.3,1.7,0.7c0.8,0.3,1.7,0.6,1.7,0.6s-1.2,2-5.1,9c-1.7,3.1-2.8,5.4-3.2,6.4
	c-0.2,0.6-0.5,1.4-0.3,2.2l0.1,0.4l-4.6-0.8l3.4-5.8c-2.8,3.5-5.5,5.1-7.8,4.3c-1.3-0.5-1.7-1.3-1.7-1.3S537.5,1020,538.2,1018.7z
	 M534,1007.2c2.3,0.9,3.2,1.5,3.2,1.5s0.3-0.6,0.4-0.9c1-2.7,1.5-5.9-2.3-7.3c-3.7-1.4-6,0-6.3,0.4c0.5-1.4,3-4.2,8.1-2.3
	c2.3,0.9,6.6,3.1,4,9.9c-2.9,7.7-8.1,11.2-13.7,9.1c-4.3-1.6-5-4.5-4-7C525.6,1005.1,530.4,1005.8,534,1007.2z M528.6,1015.6
	c2.5,0.9,5,0.1,7.8-5.1c0,0-0.7-0.5-2.7-1.2c-3.6-1.4-5.7-0.6-6.9,2.4C526.4,1012.9,526.2,1014.7,528.6,1015.6z M517,1000.7
	c2.3,0.9,3.2,1.5,3.2,1.5s0.3-0.6,0.4-0.9c1-2.7,1.5-5.9-2.3-7.3c-3.7-1.4-6,0-6.3,0.4c0.5-1.4,3-4.2,8.1-2.3c2.3,0.9,6.6,3.1,4,9.9
	c-2.9,7.7-8.1,11.2-13.7,9.1c-4.3-1.6-5-4.5-4-7C508.5,998.6,513.3,999.3,517,1000.7z M511.5,1009.1c2.5,0.9,5,0.1,7.8-5.1
	c0,0-0.7-0.5-2.7-1.2c-3.6-1.4-5.7-0.6-6.9,2.4C509.3,1006.4,509.1,1008.2,511.5,1009.1z M495.3,982.4c5.4,2.1,5.4,6.1,3.6,11
	c-1.1,2.8-5.6,11-13.1,8.1c-5.4-2.1-5.4-6.1-3.6-11C483.3,987.8,487.9,979.6,495.3,982.4z M486.7,999.5c4.8,1.8,8.3-5.7,9.2-7.9
	c2.1-5.4,0.2-6.6-1.4-7.2c-4.8-1.8-8.3,5.7-9.2,7.9C483.2,997.7,485.1,998.9,486.7,999.5z M465.3,990.8c0.9-1.6,1.1-2.1,1.1-2.1
	c0.1,1.4,0.4,2.3,1.6,2.8c2.4,0.9,5.4-2.1,5.4-2.1l2.1-3.8c3.7-6.8,4.5-8.6,4.5-8.6s0.7,0.3,1.7,0.7c0.8,0.3,1.7,0.6,1.7,0.6
	s-1.2,2-5.1,9c-1.7,3.1-2.8,5.4-3.2,6.4c-0.2,0.6-0.5,1.4-0.3,2.2l0.1,0.4l-4.6-0.8l3.4-5.8c-2.8,3.5-5.5,5.1-7.8,4.3
	c-1.3-0.5-1.7-1.3-1.7-1.3S464.5,992.2,465.3,990.8z M441.3,990.4c0.6-1.1,0.8-1.8,0.8-1.8c0.3,1.9,1.2,2.6,2.1,3
	c1.1,0.4,1.9,0.4,2.6-0.1c1-0.6,1.4-1.6,2.2-3.1l0.8-1.6l-0.9-0.4c-2.6-1-3.5-0.9-3.5-0.9s0.3-0.5,0.8-1.3c0.4-0.8,0.6-1.3,0.6-1.3
	s0.6,0.7,3.1,1.6l0.9,0.3l7-12.9c2.7-5.1,4.6-9.8,9.3-8c2.1,0.8,2.6,1.4,2.6,1.4s-0.3,0.4-0.7,1.3c-0.5,1-0.9,1.8-0.9,1.8
	c-0.2-1.8-0.8-2.4-1.4-2.6c-1.7-0.6-2.2,0.6-3.8,3.6l-8.9,16.8l1.9,0.7l-0.6,0.2c-1.7,0.6-2.4,1-2.8,1.8l-0.3,0.5
	c-1.4,2.5-3.2,6.1-9,3.9c-2.2-0.8-2.9-1.4-2.9-1.4S440.8,991.4,441.3,990.4z M445.8,963.5c5.4,2.1,5.4,6.1,3.6,11
	c-1.1,2.8-5.6,11-13.1,8.1c-5.4-2.1-5.4-6.1-3.6-11C433.8,968.9,438.4,960.7,445.8,963.5z M437.2,980.6c4.8,1.8,8.3-5.7,9.2-7.9
	c2.1-5.4,0.2-6.6-1.4-7.2c-4.8-1.8-8.3,5.7-9.2,7.9C433.7,978.8,435.6,980,437.2,980.6z M415.2,963.4c1.3-2.3,3.3-6,3.5-6.7
	c0.2-0.5,0.3-0.9-0.1-1.6l-0.3-0.5c0,0,1.3-1.1,3.1-0.4c1.6,0.6,1.3,1.8,1.1,2.5c-0.6,1.4-2.3,4-2.3,4c4.7-4.8,7.7-4.1,9.4-3.5
	c3.8,1.5,2.7,4.3,2.3,5.5c-0.8,2.2-5.4,9.8-6.2,11.8c-0.3,0.9-0.5,1.6-0.4,2.2l0.1,0.5l-4.7-0.8c0,0,6.8-11.6,7.7-14.1
	c0.4-1,0.9-2.4-1.3-3.3c-2-0.7-3.9-0.1-6.8,1.8l-2.1,3.8c-1.7,3-2.5,4.7-2.9,5.8c-0.3,0.9-0.5,1.6-0.4,2.2l0.1,0.5l-4.7-0.8
	C410.1,972.4,411.3,970.5,415.2,963.4z M396.2,964.4c0.9-1.6,1.1-2.1,1.1-2.1c0.1,1.4,0.4,2.3,1.6,2.8c2.4,0.9,5.4-2.1,5.4-2.1
	l2.1-3.8c3.7-6.8,4.5-8.6,4.5-8.6s0.7,0.3,1.7,0.7c0.8,0.3,1.7,0.6,1.7,0.6s-1.2,2-5.1,9c-1.7,3.1-2.8,5.4-3.2,6.4
	c-0.2,0.6-0.5,1.4-0.3,2.2l0.1,0.4l-4.6-0.8l3.4-5.8c-2.8,3.5-5.5,5.1-7.8,4.3c-1.3-0.5-1.7-1.3-1.7-1.3S395.4,965.7,396.2,964.4z
	 M375.9,956.6c0.9-1.6,1.1-2.1,1.1-2.1c0.1,1.4,0.4,2.3,1.6,2.8c2.4,0.9,5.4-2.1,5.4-2.1l2.1-3.8c3.7-6.8,4.5-8.6,4.5-8.6
	s0.7,0.3,1.7,0.7c0.8,0.3,1.7,0.6,1.7,0.6s-1.2,2-5.1,9c-1.7,3.1-2.8,5.4-3.2,6.4c-0.2,0.6-0.5,1.4-0.3,2.2l0.1,0.4l-4.6-0.8
	l3.4-5.8c-2.8,3.5-5.5,5.1-7.8,4.3c-1.3-0.5-1.7-1.3-1.7-1.3S375.1,958,375.9,956.6z M374.9,936.4c5.4,2.1,5.4,6.1,3.6,11
	c-1.1,2.8-5.6,11-13.1,8.1c-5.4-2.1-5.4-6.1-3.6-11C362.9,941.8,367.5,933.5,374.9,936.4z M366.3,953.5c4.8,1.8,8.3-5.7,9.2-7.9
	c2.1-5.4,0.2-6.6-1.4-7.2c-4.8-1.8-8.3,5.7-9.2,7.9C362.8,951.7,364.6,952.9,366.3,953.5z M344.4,936.4c1.3-2.3,3.3-6,3.5-6.7
	c0.2-0.5,0.3-0.9-0.1-1.6l-0.3-0.5c0,0,1.3-1.1,3.1-0.4c1.6,0.6,1.3,1.8,1.1,2.5c-0.6,1.4-2.3,4-2.3,4c4.7-4.9,7.2-4.2,8.9-3.6
	c3.1,1.2,3.9,3.8,2.1,8.5c-1,2.5-5.6,12.9-14,9.7c-3.1-1.2-3.7-3.2-3.7-3.2l-3.4,0.5C339.2,945.5,340.5,943.4,344.4,936.4z
	 M346.9,946c5,1.9,8.6-4,10.3-8.5c1-2.7,1.2-4.7-0.9-5.5c-0.9-0.4-2.7-0.8-6.7,1.9l-5.5,10C344,943.9,344.5,945.1,346.9,946z
	 M323.9,931.1c3.5-6.3,4.4-8.1,4.7-8.8c0.2-0.5,0.3-0.9-0.1-1.5l-0.3-0.5c0,0,1.3-1.1,3.1-0.4c1.6,0.6,1.3,1.8,1.1,2.5
	c-0.6,1.4-2.3,4-2.3,4c4.7-4.8,7.2-4.3,8.9-3.6c3.1,1.2,4,3.9,2.2,8.5c-0.9,2.5-5.6,12.9-14.1,9.7c-2.6-1-3.4-2.7-3.4-2.7
	c-0.9,1.7-2,3.7-2.4,4.7c-0.3,0.9-0.5,1.6-0.4,2.2l0.1,0.5l-4.7-0.8C316.3,944.8,317.4,942.9,323.9,931.1z M327.5,938.6
	c5,1.9,8.6-4,10.3-8.5c1-2.7,1.2-4.7-1-5.5c-0.9-0.3-2.7-0.8-6.7,1.9l-5.5,10C324.6,936.5,325.2,937.7,327.5,938.6z M306.9,929.8
	c0.6-1.2,1.1-2.3,1.1-2.3c0.1,2.1,0.5,4,3.2,5c2.4,0.9,3.6,0,4.1-1.4c0.6-1.5,0-2.4-0.9-4l-1.2-1.9c-1.2-2.1-2.3-3.8-1.3-6.6
	c0.6-1.6,2.8-5,8.4-2.9c3.4,1.3,4.7,2.9,4.7,2.9s-0.4,0.6-1,1.8c-0.7,1.2-1.1,2.3-1.1,2.3c-0.2-1.9-0.4-3.9-3.4-5
	c-2.6-1-3.9,0.5-4.4,1.6c-0.6,1.7-0.1,2.7,0.8,4.2l1.3,2.1c1.5,2.5,1.9,4.1,1.1,6.2c-1.1,2.8-3.8,4.3-7.9,2.7
	c-3.2-1.2-4.5-2.9-4.5-2.9S306.3,931.1,306.9,929.8z M309.6,911.3c1.5,0.8,1.7,1.9,1.3,3c-0.5,1.3-1.7,2-3.4,1.5
	c-1.5-0.8-1.8-1.9-1.3-3C306.6,911.6,307.9,910.9,309.6,911.3z M378.2,516.6c-2-0.3-3.2-0.5-3.2-0.5c1.1-0.5,1.6-1.3,1.9-2.7
	c0.2-0.9,0.2-2,0.3-5.3l0.1-2.4l-7.7-1.3l-1.2,2c-2.3,3.7-2.9,4.7-3.1,5.9c-0.2,1.1,0.2,1.8,0.5,2.1c0,0-1.2-0.3-2.9-0.6
	c-1.9-0.3-2.9-0.4-2.9-0.4c1.5-1.1,2.5-2.5,5.8-7.7l8.6-13.6c0.3-0.4,0.6-1,0.7-1.5c0.1-0.6-0.1-0.7-0.1-0.7l6.6,1.1
	c0,0-0.4,0.2-0.5,1c-0.1,0.4-0.1,1-0.1,1.3l-0.2,14.9c-0.1,6.1-0.1,7.3,0.7,8.8C381.3,517.2,380.2,516.9,378.2,516.6z M377.3,494.3
	c0-1.8,0.1-2.6,0.1-2.7c0,0.1-0.4,0.8-1.4,2.5l-5.2,8.3l6.4,1L377.3,494.3z M398.7,500.6c-0.3,0.9-0.4,1.4-0.4,1.4s-0.4-0.4-3.4-0.9
	l-2.3-0.4l-3.1,10.1c-0.2,0.8-0.6,2.3-0.7,2.9c-0.2,1.1-0.4,2.8,2.1,3.2c2,0.3,3.2-0.6,3.2-0.6s-0.8,3.1-5.3,2.4
	c-4-0.7-3.8-3.4-3.6-4.9c0.2-1.2,0.6-2.8,1.1-4.2c2-6.4,3.1-9.4,3.1-9.4l-2.4-0.4c0.1,0,1.5-0.9,3.3-2.6c1.9-1.7,2.9-3.2,2.9-3.2
	l1.2,0.2l-1.3,4.4l2.2,0.4c2.9,0.5,3.6,0.2,3.6,0.2S399,499.7,398.7,500.6z M413.5,513.4c-2.4-0.4-3.4-0.8-3.4-0.8s-0.2,0.7-0.2,1
	c-0.5,2.8-0.3,6,3.7,6.7c3.9,0.7,5.8-1.2,6.1-1.6c-0.2,1.5-2.1,4.8-7.5,3.9c-2.5-0.4-7.1-1.7-5.9-8.9c1.3-8.1,5.7-12.6,11.6-11.7
	c4.5,0.7,5.8,3.4,5.3,6.1C422.3,513.8,417.4,514.1,413.5,513.4z M417.2,504.1c-2.6-0.4-5,0.9-6.6,6.6c0,0,0.8,0.3,2.9,0.7
	c3.8,0.6,5.7-0.5,6.3-3.7C419.9,506.3,419.7,504.5,417.2,504.1z M430.9,524.8l-0.5,0.5c0,0-0.5-0.2-1.8-0.4c-1.1-0.2-2-0.3-2-0.3
	l0.4-16.4c0.1-1.5-0.3-2.6-0.7-3.1l-0.4-0.6l4.4-0.2c0,0,0,0.9-0.2,7.8l-0.2,8.5c-0.1,1.5-0.2,2.6-0.2,2.6s8-9.4,8.9-14.7
	c0.3-1.7-0.6-2.3-0.6-2.3s0.9-0.6,2.3-0.4c2,0.3,1.8,1.8,1.7,2.5C441.3,513.1,433.7,522,430.9,524.8z M449.6,519.4
	c-2.4-0.4-3.4-0.8-3.4-0.8s-0.2,0.7-0.2,1c-0.5,2.8-0.3,6,3.7,6.7c3.9,0.7,5.8-1.2,6.1-1.6c-0.2,1.5-2.1,4.8-7.5,3.9
	c-2.5-0.4-7.1-1.7-5.9-8.9c1.3-8.1,5.7-12.6,11.6-11.7c4.5,0.7,5.8,3.4,5.3,6.1C458.3,519.7,453.4,520,449.6,519.4z M453.2,510
	c-2.6-0.4-5,0.9-6.6,6.6c0,0,0.8,0.3,2.9,0.7c3.8,0.6,5.7-0.5,6.3-3.7C456,512.3,455.7,510.4,453.2,510z M474.5,514.2
	c-0.5,1.7-0.7,2.3-0.7,2.3c-0.4-1.3-0.9-2.2-2.2-2.4c-2.5-0.4-4.9,3.2-4.9,3.2l-1.3,4.1c-2.2,7.4-2.7,9.3-2.7,9.3s-0.7-0.2-1.8-0.4
	c-0.9-0.1-1.8-0.2-1.8-0.2s0.8-2.2,3.2-9.9c1-3.3,1.7-5.9,1.9-6.9c0.1-0.6,0.2-1.5-0.1-2.2l-0.2-0.4l4.7-0.1l-2.2,6.4
	c2.1-4,4.4-6.1,6.7-5.7c1.4,0.2,1.9,0.9,1.9,0.9S475,512.7,474.5,514.2z M482.2,533c-4.6,5.3-6.8,7.4-10.4,6.8
	c-2-0.3-2.7-0.9-2.7-0.9s0.3-0.6,0.6-1.6c0.4-1.1,0.5-2,0.5-2c0.6,1.7,1.3,2.2,2,2.3c1.3,0.2,2.3-0.1,5.8-3.9l-0.6-17.3
	c0-1.5-0.3-2.6-0.7-3.1l-0.4-0.6l4.7-0.1c0,0-0.1,1.9-0.1,7.8l0.1,7.8c0,1.9-0.1,2.8-0.1,2.9c0.2-0.3,7.2-9.2,8.1-14.3
	c0.3-1.7-0.6-2.3-0.6-2.3s1-0.6,2.4-0.4c2,0.3,1.8,1.8,1.7,2.5C491.8,521,485.5,529.2,482.2,533z M514.7,519.7
	c-0.3,0.9-0.4,1.4-0.4,1.4s-0.4-0.4-3.4-0.9l-2.3-0.4l-3.1,10.1c-0.2,0.8-0.6,2.3-0.7,2.9c-0.2,1.1-0.4,2.8,2.1,3.2
	c2,0.3,3.2-0.6,3.2-0.6s-0.8,3.1-5.3,2.4c-4-0.7-3.8-3.4-3.6-4.9c0.2-1.2,0.6-2.8,1.1-4.2c2-6.4,3.1-9.4,3.1-9.4l-2.4-0.4
	c0.1,0,1.5-0.9,3.3-2.6c1.9-1.7,2.9-3.2,2.9-3.2l1.2,0.2l-1.3,4.4l2.2,0.4c2.9,0.5,3.6,0.2,3.6,0.2S515,518.8,514.7,519.7z
	 M521.4,531.2c-2.4-0.4-3.4-0.8-3.4-0.8s-0.2,0.7-0.2,1c-0.5,2.8-0.3,6,3.7,6.7c3.9,0.7,5.8-1.2,6.1-1.6c-0.2,1.5-2.1,4.8-7.5,3.9
	c-2.5-0.4-7.1-1.7-5.9-8.9c1.3-8.1,5.7-12.6,11.6-11.7c4.5,0.7,5.8,3.4,5.3,6.1C530.1,531.6,525.2,531.9,521.4,531.2z M525,521.9
	c-2.6-0.4-5,0.9-6.6,6.6c0,0,0.8,0.3,2.9,0.7c3.8,0.6,5.7-0.5,6.3-3.7C527.8,524.1,527.5,522.3,525,521.9z M546.6,541.5
	c-0.1,0.6-0.1,0.9,0.4,1.5l0.4,0.4c0,0-1.1,1.3-3,1c-1.7-0.3-1.7-1.5-1.6-2.2c0.3-1.8,3.7-10.9,4.1-13.7c0.1-0.8,0.4-2.3-1.9-2.7
	c-2.1-0.3-3.9,0.6-6.4,3.1l-1.3,4.2c-2.3,7.4-2.8,9.4-2.8,9.4s-0.7-0.2-1.8-0.4c-0.9-0.1-1.8-0.2-1.8-0.2s0.8-2.2,3.2-9.9
	c1.1-3.3,1.8-5.9,1.9-6.9c0.1-0.6,0.2-1.5-0.1-2.2l-0.2-0.4l4.6-0.1l-2,6.2c3.6-5.6,6.7-5.5,8.5-5.2c4,0.7,3.7,3.6,3.5,4.9
	C550.1,530.5,546.9,539.5,546.6,541.5z M574.7,531.1c-0.4,1.3-0.7,2.4-0.7,2.4c-0.5-2.1-1.3-3.8-4.1-4.3c-2.5-0.4-3.5,0.8-3.7,2.2
	c-0.3,1.6,0.4,2.4,1.7,3.8l1.5,1.6c1.6,1.8,3,3.3,2.6,6.2c-0.3,1.7-1.7,5.5-7.6,4.5c-3.6-0.6-5.2-1.9-5.2-1.9s0.2-0.6,0.6-1.9
	c0.4-1.3,0.7-2.5,0.7-2.5c0.6,1.8,1.2,3.7,4.4,4.3c2.8,0.5,3.7-1.2,3.9-2.5c0.3-1.8-0.5-2.7-1.6-4l-1.6-1.8c-2-2.1-2.6-3.6-2.3-5.9
	c0.5-3,2.9-5,7.2-4.2c3.3,0.6,4.9,1.9,4.9,1.9S575.1,529.8,574.7,531.1z M589.6,532.1c-0.3,0.9-0.4,1.4-0.4,1.4s-0.4-0.4-3.4-0.9
	l-2.3-0.4l-3.1,10.1c-0.2,0.8-0.6,2.3-0.7,2.9c-0.2,1.1-0.4,2.8,2.1,3.2c2,0.3,3.2-0.6,3.2-0.6s-0.8,3.1-5.3,2.4
	c-4-0.7-3.8-3.4-3.6-4.9c0.2-1.2,0.6-2.8,1.1-4.2c2-6.4,3.1-9.4,3.1-9.4l-2.4-0.4c0.1,0,1.5-0.9,3.3-2.6c1.9-1.7,2.9-3.2,2.9-3.2
	l1.2,0.2l-1.3,4.4l2.2,0.4c2.9,0.5,3.6,0.2,3.6,0.2S589.9,531.2,589.6,532.1z M596.2,543.6c-2.4-0.4-3.4-0.8-3.4-0.8s-0.2,0.7-0.2,1
	c-0.5,2.8-0.3,6,3.7,6.7c3.9,0.7,5.8-1.2,6.1-1.6c-0.2,1.5-2.1,4.8-7.5,3.9c-2.5-0.4-7.1-1.7-5.9-8.9c1.3-8.1,5.7-12.6,11.6-11.7
	c4.5,0.7,5.8,3.4,5.3,6.1C605,543.9,600.1,544.2,596.2,543.6z M599.8,534.2c-2.6-0.4-5,0.9-6.6,6.6c0,0,0.8,0.3,2.9,0.7
	c3.8,0.6,5.7-0.5,6.3-3.7C602.6,536.5,602.4,534.6,599.8,534.2z M613.5,555.8c-2.8-0.5-3.8-2-3.8-2l-0.4,1.2c-0.9,3-1.1,4-1.2,4.4
	c-0.2,0.9-0.2,1.5,0,2.3l0.1,0.6c0,0-0.5-0.2-2.6-0.5c-2.1-0.3-2.7-0.4-2.7-0.4l0.5-0.6c0.9-1,1.2-2,3.3-8.5l1.9-6.1
	c1.8-5.6,2.3-7.4,2.5-8.7c0.1-0.6,0.2-1.5-0.1-2.2l-0.2-0.4l4.7-0.1l-2,6.2c3.6-5.7,6.2-5.6,8-5.3c3.3,0.5,4.7,3,3.8,7.9
	C624.9,546.2,622.4,557.3,613.5,555.8z M619.8,538c-1-0.2-2.8-0.3-6.2,3.1l-3.4,10.9c0,0,0.8,1,3.3,1.5c5.3,0.9,7.6-5.7,8.4-10.3
	C622.3,540.3,622.1,538.4,619.8,538z M641,542c-0.4,1.3-0.7,2.4-0.7,2.4c-0.5-2.1-1.3-3.8-4.1-4.3c-2.5-0.4-3.5,0.8-3.7,2.2
	c-0.3,1.6,0.4,2.4,1.7,3.8l1.5,1.6c1.6,1.8,3,3.3,2.6,6.2c-0.3,1.7-1.7,5.5-7.6,4.5c-3.6-0.6-5.2-1.9-5.2-1.9s0.2-0.6,0.6-1.9
	c0.4-1.3,0.7-2.5,0.7-2.5c0.6,1.8,1.2,3.7,4.4,4.3c2.8,0.5,3.7-1.2,3.9-2.5c0.3-1.8-0.5-2.7-1.6-4l-1.6-1.8c-2-2.1-2.6-3.6-2.3-5.9
	c0.5-3,2.9-5,7.2-4.2c3.3,0.6,4.9,1.9,4.9,1.9S641.4,540.7,641,542z M307.5,550.1c-3.2-4.8-0.9-8.1,3.4-11
	c2.5-1.6,10.9-5.7,15.4,0.9c3.2,4.8,0.9,8.1-3.4,11C320.4,552.7,311.9,556.7,307.5,550.1z M324.5,541.1c-2.8-4.3-10.1-0.1-12,1.2
	c-4.9,3.2-4,5.3-3.1,6.7c2.8,4.3,10.1,0.1,12-1.2C326.2,544.6,325.4,542.6,324.5,541.1z M325.8,571.4c-0.5,0.3-0.7,0.6-0.8,1.3
	l0,0.6c0,0-1.7,0.1-2.8-1.5c-1-1.5-0.1-2.3,0.5-2.7c1.5-1,10.5-4.8,12.8-6.4c0.7-0.4,2-1.3,0.7-3.2c-1.2-1.8-3.1-2.4-6.6-2.5l-4,2
	c-6.9,3.4-8.7,4.4-8.7,4.4s-0.4-0.7-0.9-1.5c-0.5-0.7-1.1-1.5-1.1-1.5s2.2-0.9,9.4-4.4c3.2-1.5,5.5-2.7,6.3-3.3
	c0.5-0.4,1.2-0.9,1.5-1.6l0.2-0.4l3.3,3.3l-5.9,2.7c6.6-1.2,8.6,1.2,9.6,2.6c2.3,3.4-0.1,5.1-1.2,5.9
	C336.2,566.5,327.4,570.4,325.8,571.4z M337.9,578.8c-1.3-2-1.8-3.1-1.8-3.1s-0.6,0.3-0.9,0.5c-2.4,1.6-4.6,3.9-2.4,7.3
	c2.2,3.3,4.8,3.5,5.4,3.4c-1.2,0.8-4.9,1.7-7.9-2.8c-1.4-2.1-3.6-6.3,2.5-10.4c6.8-4.6,13.1-4.5,16.4,0.5c2.5,3.8,1.4,6.5-0.8,8
	C343.6,585.4,340,582,337.9,578.8z M347.2,575.1c-1.5-2.2-4-3-9.4-0.3c0,0,0.3,0.8,1.5,2.6c2.1,3.2,4.3,3.8,7,2
	C347.4,578.6,348.6,577.2,347.2,575.1z M352.8,616.3l-0.7,0c0,0-0.3-0.6-0.9-1.5c-0.6-0.9-1.1-1.5-1.1-1.5l11.6-9.8
	c0.8-0.7,1.8-1.4,1.9-1.5c-0.1,0-1,0.4-2.3,0.8l-15.7,3.8c0,0-0.3-0.6-1.1-1.7c-0.8-1.1-1.3-1.8-1.3-1.8l12.3-10.9
	c1.1-1,1.6-2,1.8-2.6l0.2-0.7l3.1,3c0,0-0.5,0.6-4.5,4l-7.9,6.8c-0.7,0.6-1.6,1.3-1.7,1.3c0.1-0.1,0.8-0.3,2.1-0.6l16.6-4.1
	c0,0,0.4,0.7,1,1.7c0.7,1,1.1,1.6,1.1,1.6L355.1,613c-1.1,0.9-1.6,1.3-1.6,1.3s11.3-0.9,16.1-4.1c1.4-1,1.2-2,1.2-2s1.1,0.2,1.9,1.4
	c1.1,1.7-0.1,2.6-0.7,3C367.6,615.5,356.7,616.5,352.8,616.3z M375.5,632.4c-2.4,1.1-6.1,3-6.7,3.4c-0.5,0.3-0.8,0.6-0.8,1.4l0,0.6
	c0,0-1.7,0.1-2.8-1.5c-1-1.4,0-2.2,0.5-2.6c1.3-0.9,4.2-1.9,4.2-1.9c-6.6,1.3-8.4-0.7-9.4-2.2c-1.8-2.8-1-5.4,3.2-8.1
	c2.2-1.5,12-7.3,17,0.2c1.9,2.8,1.2,4.8,1.2,4.8l3.1,1.6C385,627.9,382.7,628.9,375.5,632.4z M379.1,623.2c-3-4.5-9.3-1.7-13.3,1
	c-2.4,1.6-3.7,3.1-2.4,5c0.6,0.8,1.7,2.2,6.5,2.3l10.3-5C380.2,626.5,380.5,625.2,379.1,623.2z M390.9,642.4
	c-1.2,0.6-2.2,1.2-2.2,1.2c1.1-1.8,1.9-3.5,0.3-5.9c-1.4-2.1-3-2-4.1-1.3c-1.3,0.9-1.5,2-1.6,3.8l-0.2,2.2c-0.2,2.4-0.3,4.5-2.8,6.1
	c-1.4,0.9-5.2,2.5-8.5-2.5c-2-3-2.2-5.1-2.2-5.1s0.6-0.2,1.8-0.9c1.2-0.6,2.3-1.2,2.3-1.2c-1,1.7-1.9,3.4-0.1,6.1
	c1.6,2.3,3.5,1.9,4.5,1.2c1.5-1,1.7-2.2,1.8-3.9l0.2-2.4c0.2-2.9,0.9-4.4,2.7-5.7c2.5-1.7,5.6-1.3,8,2.4c1.9,2.8,2,4.9,2,4.9
	S392.2,641.8,390.9,642.4z M399.8,668.8c-2.4,1.1-6.1,3-6.7,3.4c-0.5,0.3-0.8,0.6-0.8,1.4l0,0.6c0,0-1.7,0.1-2.8-1.5
	c-1-1.4,0-2.2,0.5-2.6c1.3-0.9,4.2-1.9,4.2-1.9c-6.6,1.3-8.4-0.7-9.4-2.2c-1.8-2.8-1-5.4,3.2-8.1c2.2-1.5,12-7.3,17,0.2
	c1.9,2.8,1.2,4.8,1.2,4.8l3.1,1.6C409.3,664.4,407,665.4,399.8,668.8z M403.4,659.6c-3-4.5-9.3-1.7-13.3,1c-2.4,1.6-3.7,3.1-2.4,5
	c0.6,0.8,1.7,2.2,6.5,2.3l10.3-5C404.5,662.9,404.7,661.7,403.4,659.6z M415.9,679.1c-1.6,0.8-2.1,1.1-2.1,1.1
	c0.7-1.2,1-2.1,0.3-3.2c-1.4-2.1-5.6-1.4-5.6-1.4l-3.9,1.9c-6.9,3.4-8.6,4.4-8.6,4.4s-0.4-0.7-0.9-1.5c-0.5-0.7-1.1-1.5-1.1-1.5
	s2.2-1,9.4-4.4c3.1-1.5,5.5-2.8,6.3-3.3c0.5-0.4,1.2-0.9,1.5-1.6l0.2-0.4l3.3,3.3l-6.2,2.8c4.3-1.2,7.5-1,8.8,1c0.8,1.2,0.6,2,0.6,2
	S417.3,678.4,415.9,679.1z M423.3,690.3c-1.6,0.8-2.1,1.1-2.1,1.1c0.7-1.2,1-2.1,0.3-3.2c-1.4-2.1-5.6-1.4-5.6-1.4l-3.9,1.9
	c-6.9,3.4-8.6,4.4-8.6,4.4s-0.4-0.7-0.9-1.5c-0.5-0.7-1.1-1.5-1.1-1.5s2.2-1,9.4-4.4c3.1-1.5,5.5-2.8,6.3-3.3
	c0.5-0.4,1.2-0.9,1.5-1.6l0.2-0.4l3.3,3.3l-6.2,2.8c4.3-1.2,7.5-1,8.8,1c0.8,1.2,0.6,2,0.6,2S424.7,689.6,423.3,690.3z M420.1,702
	c-1.3-2-1.8-3.1-1.8-3.1s-0.6,0.3-0.9,0.5c-2.4,1.6-4.6,3.9-2.4,7.3c2.2,3.3,4.8,3.5,5.4,3.4c-1.2,0.8-4.9,1.7-7.9-2.8
	c-1.4-2.1-3.6-6.3,2.5-10.4c6.8-4.6,13.1-4.5,16.4,0.5c2.5,3.8,1.4,6.5-0.8,8C425.8,708.6,422.2,705.2,420.1,702z M429.4,698.3
	c-1.5-2.2-4-3-9.4-0.3c0,0,0.3,0.8,1.5,2.6c2.1,3.2,4.3,3.8,7,2C429.6,701.8,430.8,700.4,429.4,698.3z M440.3,716.4
	c-1.2,0.6-2.2,1.2-2.2,1.2c1.1-1.8,1.9-3.5,0.3-5.9c-1.4-2.1-3-2-4.1-1.3c-1.3,0.9-1.5,2-1.6,3.8l-0.2,2.2c-0.2,2.4-0.3,4.5-2.8,6.1
	c-1.4,0.9-5.2,2.5-8.5-2.5c-2-3-2.2-5.1-2.2-5.1s0.6-0.2,1.8-0.9c1.2-0.6,2.3-1.2,2.3-1.2c-1,1.7-1.9,3.4-0.1,6.1
	c1.6,2.3,3.5,1.9,4.5,1.2c1.5-1,1.7-2.2,1.8-3.9l0.2-2.4c0.2-2.9,0.9-4.4,2.7-5.7c2.5-1.7,5.6-1.3,8,2.4c1.9,2.8,2,4.9,2,4.9
	S441.5,715.8,440.3,716.4z M449.7,727.9c-0.9,0.4-1.3,0.7-1.3,0.7s0-0.6-1.6-3.1l-1.3-1.9l-9.5,4.6c-0.7,0.3-2.1,1.1-2.6,1.4
	c-1,0.6-2.3,1.7-0.9,3.8c1.1,1.6,2.6,2,2.6,2s-2.9,1.5-5.4-2.2c-2.2-3.4-0.1-5.1,1.1-6c1-0.7,2.5-1.4,3.8-2.1c6-2.9,9-4.2,9-4.2
	l-1.3-2c0.1,0,1.7,0.5,4.1,0.7c2.5,0.2,4.3-0.1,4.3-0.1l0.7,1l-4.1,2l1.3,1.9c1.6,2.5,2.3,2.7,2.3,2.7S450.6,727.5,449.7,727.9z
	 M445.8,740.6c-1.3-2-1.8-3.1-1.8-3.1s-0.6,0.3-0.9,0.5c-2.4,1.6-4.6,3.9-2.4,7.3c2.2,3.3,4.8,3.5,5.4,3.4c-1.2,0.8-4.9,1.7-7.9-2.8
	c-1.4-2.1-3.6-6.3,2.5-10.4c6.8-4.6,13.1-4.5,16.4,0.5c2.5,3.8,1.4,6.5-0.8,8C451.6,747.3,448,743.9,445.8,740.6z M455.2,736.9
	c-1.5-2.2-4-3-9.4-0.3c0,0,0.3,0.8,1.5,2.6c2.1,3.2,4.3,3.8,7,2C455.4,740.5,456.6,739,455.2,736.9z M464.3,761.3
	c-6.5,3.1-8.3,4.1-8.9,4.5c-0.5,0.3-0.7,0.6-0.8,1.3l0,0.6c0,0-1.7,0.1-2.7-1.5c-1-1.5,0-2.3,0.5-2.6c1.3-0.9,4.2-1.9,4.2-1.9
	c-6.6,1.2-8.3-0.7-9.4-2.2c-1.9-2.8-1-5.4,3.1-8.2c2.2-1.5,12-7.3,17.1,0.3c1.6,2.3,1.2,4.1,1.2,4.1c1.7-0.9,3.8-1.9,4.6-2.4
	c0.8-0.5,1.3-1,1.6-1.6l0.2-0.5l3.4,3.4C478.5,754.5,476.4,755.4,464.3,761.3z M465.7,753c-3-4.5-9.3-1.7-13.3,1
	c-2.4,1.6-3.7,3.1-2.4,5.1c0.5,0.8,1.7,2.2,6.5,2.3l10.3-5C466.9,756.4,467.1,755.1,465.7,753z M450.5,773.1c0,0,2.3,1,4.9-0.7
	c1.6-1,1.2-2,1.2-2l0.5-0.3c1.4-0.7,2.5-0.4,3.5,0.7c0.7,1.5-0.1,2.5-1.3,3.3C456.5,775.9,452.7,776.3,450.5,773.1z M285.5,853.5
	c0.2,1,0.3,1.4,0.3,1.4s-0.5-0.2-3.4,0.6l-2.2,0.6l1.5,10.4c0.1,0.8,0.4,2.4,0.6,2.9c0.3,1.1,0.9,2.7,3.3,2c1.9-0.5,2.7-1.9,2.7-1.9
	s0.6,3.2-3.8,4.4c-3.9,1.1-4.9-1.5-5.3-2.9c-0.3-1.1-0.6-2.8-0.8-4.3c-0.9-6.6-1.2-9.9-1.2-9.9l-2.3,0.7c0.1-0.1,1-1.4,1.9-3.7
	c0.9-2.4,1.3-4.1,1.3-4.1l1.2-0.3l0.7,4.5l2.2-0.6c2.8-0.8,3.3-1.4,3.3-1.4S285.4,852.5,285.5,853.5z M304.7,857.1
	c0.4,2.6,0.9,6.7,1.1,7.5c0.2,0.6,0.3,0.9,1.1,1.2l0.5,0.2c0,0-0.4,1.6-2.3,2.2c-1.7,0.5-2.1-0.7-2.3-1.3c-0.4-1.5-0.6-4.6-0.6-4.6
	c-0.9,6.6-3.7,7.9-5.5,8.4c-3.9,1.1-4.8-1.8-5.1-3c-0.6-2.3-1.5-11.1-2.1-13.1c-0.3-0.9-0.5-1.6-1-2l-0.4-0.4l4.3-2.2
	c0,0,1.5,13.4,2.2,15.9c0.3,1,0.8,2.5,3,1.9c2-0.6,3.2-2.3,4.4-5.5l-0.6-4.3c-0.4-3.4-0.8-5.3-1.1-6.4c-0.3-0.9-0.5-1.6-1-2
	l-0.4-0.4l4.3-2.2C303.4,846.8,303.6,849.1,304.7,857.1z M319.4,845c0.2,1.8,0.4,2.3,0.4,2.3c-0.9-1-1.7-1.6-3-1.3
	c-2.4,0.7-3.1,4.9-3.1,4.9l0.6,4.2c1.1,7.7,1.6,9.6,1.6,9.6s-0.7,0.1-1.8,0.4c-0.9,0.2-1.7,0.6-1.7,0.6s-0.3-2.4-1.3-10.3
	c-0.5-3.5-1-6-1.2-7c-0.2-0.6-0.5-1.4-1-1.9l-0.3-0.3l4.2-2.1l0.7,6.7c0.2-4.5,1.3-7.4,3.7-8.1c1.4-0.4,2.1,0,2.1,0
	S319.1,843.4,319.4,845z M339.1,855.2c0.2,0.6,0.3,0.9,1,1.2l0.5,0.2c0,0-0.4,1.7-2.3,2.2c-1.7,0.5-2.2-0.6-2.4-1.3
	c-0.5-1.7-1.3-11.4-2.1-14.2c-0.2-0.8-0.7-2.3-2.9-1.7c-2,0.6-3.3,2.2-4.5,5.5l0.6,4.4c1.1,7.6,1.5,9.7,1.5,9.7s-0.7,0.1-1.8,0.4
	c-0.9,0.2-1.7,0.6-1.7,0.6s-0.2-2.3-1.3-10.3c-0.5-3.5-0.9-6.1-1.2-7c-0.2-0.6-0.5-1.4-1-1.9l-0.3-0.3l4.1-2.1l0.8,6.5
	c0.9-6.6,3.8-7.9,5.4-8.3c3.9-1.1,4.9,1.7,5.2,2.9C337.7,843.8,338.6,853.3,339.1,855.2z M359.7,832.5c0.2,1,0.3,1.4,0.3,1.4
	s-0.5-0.2-3.4,0.6l-2.2,0.6l1.5,10.4c0.1,0.8,0.4,2.4,0.6,2.9c0.3,1.1,0.9,2.7,3.3,2c1.9-0.5,2.7-1.9,2.7-1.9s0.6,3.2-3.8,4.4
	c-3.9,1.1-4.9-1.5-5.3-2.9c-0.3-1.1-0.6-2.8-0.8-4.3c-0.9-6.6-1.2-9.9-1.2-9.9l-2.3,0.7c0.1-0.1,1-1.4,1.9-3.7
	c0.9-2.4,1.3-4.1,1.3-4.1l1.2-0.3l0.7,4.5l2.2-0.6c2.8-0.8,3.3-1.4,3.3-1.4S359.6,831.5,359.7,832.5z M373.4,849
	c-5.6,1.6-8-1.7-9.4-6.7c-0.8-2.8-2.1-12.2,5.6-14.3c5.5-1.6,8,1.7,9.4,6.7C379.8,837.5,381,846.8,373.4,849z M370,830.1
	c-4.9,1.4-3.2,9.6-2.6,11.8c1.6,5.6,3.8,5.4,5.4,5c4.9-1.4,3.2-9.6,2.6-11.8C373.9,829.5,371.7,829.6,370,830.1z M400.4,822
	c0.2,1.8,0.4,2.3,0.4,2.3c-0.9-1-1.7-1.6-3-1.3c-2.4,0.7-3.1,4.9-3.1,4.9l0.6,4.2c1.1,7.7,1.6,9.6,1.6,9.6s-0.7,0.1-1.8,0.4
	c-0.9,0.2-1.7,0.6-1.7,0.6s-0.3-2.4-1.3-10.3c-0.5-3.5-1-6-1.2-7c-0.2-0.6-0.5-1.4-1-1.9l-0.3-0.3l4.2-2.1l0.7,6.7
	c0.2-4.5,1.3-7.4,3.7-8.1c1.4-0.4,2.1,0,2.1,0S400.2,820.5,400.4,822z M408.1,827.3c0.5,3.4,1,7.3,1.2,8c0.2,0.6,0.3,0.9,1,1.2
	l0.5,0.2c0,0-0.4,1.7-2.3,2.2c-1.7,0.5-2.2-0.7-2.4-1.3c-0.5-1.8-1.4-12.2-2.3-15.4c-0.3-0.9-0.5-1.6-1-2.1l-0.4-0.3l4.2-2.2
	C406.8,817.6,407.1,820.3,408.1,827.3z M404.8,814.8c-1.7,0.5-2.4-0.6-2.6-1.3c-0.3-1.2,0.2-2.3,1.6-2.7c1.7-0.5,2.4,0.6,2.6,1.3
	C406.7,813.3,406.2,814.4,404.8,814.8z M428.2,821.9l1.4,9c0.4,2.7,0.8,5.4-0.5,7.7c-1.2,1.9-3.3,3.1-5.8,3.8
	c-4,1.1-6.4,1.1-6.4,1.1s0-0.8-0.2-2.1c-0.2-1.5-0.4-2.6-0.4-2.6c1.9,2,2.9,2.6,6.1,1.7c4.4-1.3,4.9-3.7,4.3-7.4l-0.2-1.1
	c-0.4-2.3-0.5-4.6-0.5-4.6c-0.8,6.7-3.3,7.7-5,8.2c-3.2,0.9-5.5-0.7-6.9-5.5c-0.7-2.5-3.2-13.7,5.5-16.1c3.2-0.9,5,0.3,5,0.3
	l2.5-2.5C426.9,811.7,427.1,814.4,428.2,821.9z M420.5,815.9c-5.2,1.5-4.4,8.4-3.1,12.9c0.8,2.8,1.8,4.5,4.1,3.8
	c1-0.3,2.7-1,4.3-5.5l-1.6-11.3C424,815.8,422.8,815.2,420.5,815.9z M449.3,824c0.2,0.6,0.3,0.9,1,1.2l0.5,0.2c0,0-0.4,1.7-2.3,2.2
	c-1.7,0.5-2.2-0.6-2.4-1.3c-0.5-1.7-1.3-11.4-2.1-14.2c-0.2-0.8-0.7-2.3-2.9-1.7c-2,0.6-3.3,2.2-4.5,5.5l0.6,4.4
	c1.1,7.6,1.5,9.7,1.5,9.7s-0.7,0.1-1.7,0.4c-0.9,0.3-1.8,0.6-1.8,0.6s-0.3-2.7-1.5-11.9c-0.9-6.7-1.6-11.4-2-12.9
	c-0.3-0.9-0.5-1.6-1-2l-0.4-0.4l4.3-2.2c0,0,0.3,3,1.1,8.7l0.1,0.8c0.4,2.6,0.4,4.7,0.4,4.7c0.9-6.6,3.8-7.9,5.4-8.3
	c3.9-1.1,4.9,1.7,5.2,2.9C447.8,812.6,448.8,822.1,449.3,824z M461.8,803.6c0.2,1,0.3,1.4,0.3,1.4s-0.5-0.2-3.4,0.6l-2.2,0.6
	l1.5,10.4c0.1,0.8,0.4,2.4,0.6,2.9c0.3,1.1,0.9,2.7,3.3,2c1.9-0.5,2.7-1.9,2.7-1.9s0.6,3.2-3.8,4.4c-3.9,1.1-4.9-1.5-5.3-2.9
	c-0.3-1.1-0.6-2.8-0.8-4.3c-0.9-6.6-1.2-9.9-1.2-9.9l-2.3,0.7c0.1-0.1,1-1.4,1.9-3.7c0.9-2.4,1.3-4.1,1.3-4.1l1.2-0.3l0.7,4.5
	l2.2-0.6c2.8-0.8,3.3-1.4,3.3-1.4S461.7,802.6,461.8,803.6z M539.8,799.9c-0.5,2.6-1.4,6.7-1.4,7.4c0,0.6,0,1,0.6,1.5l0.4,0.4
	c0,0-0.9,1.4-2.9,1.3c-1.7-0.1-1.8-1.3-1.7-2c0.1-1.5,1-4.5,1-4.5c-3,6-5.7,6.2-7.5,6.1c-3.3-0.2-4.8-2.5-4.5-7.5
	c0.2-2.7,1.5-14,10.6-13.4c3.3,0.2,4.5,2,4.5,2l3.1-1.5C542,789.6,541.4,792,539.8,799.9z M534.6,791.4c-5.4-0.4-7,6.4-7.3,11.1
	c-0.2,2.9,0.2,4.8,2.5,5c1,0.1,2.8,0,5.8-3.8l2.3-11.2C538,792.5,537.1,791.6,534.6,791.4z M559.5,808.7c0,0.6,0,0.9,0.6,1.4
	l0.4,0.4c0,0-1,1.4-2.9,1.3c-1.8-0.1-1.9-1.3-1.8-2c0.1-1.8,2.6-11.2,2.8-14.1c0.1-0.8,0.1-2.4-2.1-2.5c-2.1-0.1-3.8,1-6.1,3.7
	l-0.9,4.3c-1.5,7.5-1.8,9.6-1.8,9.6s-0.7-0.1-1.8-0.2c-0.9-0.1-1.8,0-1.8,0s0.6-2.3,2.3-10.1c0.7-3.4,1.2-6,1.3-7
	c0-0.6,0-1.5-0.3-2.1l-0.2-0.4l4.6-0.6l-1.4,6.4c3.1-6,6.2-6.2,7.9-6c4.1,0.3,4,3.2,3.9,4.5C561.9,797.5,559.6,806.8,559.5,808.7z
	 M582,800.3c-1.4,7-1.8,9.1-1.9,9.8c0,0.6,0,0.9,0.6,1.4l0.4,0.4c0,0-0.9,1.4-2.8,1.3c-1.8-0.1-1.8-1.3-1.8-2c0.1-1.5,1-4.5,1-4.5
	c-3,6-5.6,6.2-7.5,6.1c-3.3-0.2-4.9-2.5-4.6-7.5c0.2-2.6,1.5-14,10.6-13.4c2.8,0.2,4,1.6,4,1.6c0.3-1.9,0.8-4.1,0.9-5.2
	c0.1-1,0-1.7-0.2-2.3l-0.2-0.5l4.8-0.6C585.3,784.9,584.8,787.1,582,800.3z M576.4,794.2c-5.4-0.4-7,6.4-7.3,11.1
	c-0.2,2.9,0.3,4.8,2.6,5c1,0.1,2.8,0,5.8-3.8l2.3-11.2C579.7,795.3,578.9,794.3,576.4,794.2z M609.2,812c0,0.6,0,0.9,0.6,1.4
	l0.4,0.4c0,0-1,1.4-2.9,1.3c-1.8-0.1-1.9-1.3-1.8-2c0.1-1.8,2.6-11.2,2.8-14.1c0.1-0.8,0.1-2.4-2.1-2.5c-2.1-0.1-3.8,1-6.1,3.7
	l-0.9,4.3c-1.5,7.5-1.8,9.6-1.8,9.6s-0.7-0.1-1.7-0.2c-0.9-0.1-1.9-0.1-1.9-0.1s0.6-2.6,2.6-11.7c1.4-6.6,2.3-11.3,2.4-12.8
	c0.1-1,0-1.7-0.2-2.3l-0.2-0.5l4.8-0.6c0,0-0.7,2.9-1.9,8.5l-0.2,0.8c-0.5,2.5-1.2,4.6-1.2,4.6c3.1-6,6.2-6.2,7.9-6
	c4.1,0.3,4,3.2,3.9,4.5C611.7,800.8,609.4,810,609.2,812z M631.1,805.9c-0.5,2.6-1.4,6.7-1.4,7.4c0,0.6,0,1,0.6,1.5l0.4,0.4
	c0,0-0.9,1.4-2.9,1.3c-1.7-0.1-1.8-1.3-1.7-2c0.1-1.5,1-4.5,1-4.5c-3,6-5.7,6.2-7.5,6.1c-3.3-0.2-4.8-2.5-4.5-7.5
	c0.2-2.7,1.5-14,10.6-13.4c3.3,0.2,4.5,2,4.5,2l3.1-1.5C633.3,795.6,632.7,798,631.1,805.9z M625.9,797.4c-5.4-0.4-7,6.4-7.3,11.1
	c-0.2,2.9,0.2,4.8,2.5,5c1,0.1,2.8,0,5.8-3.8l2.3-11.2C629.3,798.5,628.4,797.6,625.9,797.4z M652.3,804.9c-1.4,7-1.8,9.1-1.9,9.8
	c0,0.6,0,0.9,0.6,1.4l0.4,0.4c0,0-0.9,1.4-2.8,1.3c-1.8-0.1-1.8-1.3-1.8-2c0.1-1.5,1-4.5,1-4.5c-3,6-5.6,6.2-7.5,6.1
	c-3.3-0.2-4.9-2.5-4.6-7.5c0.2-2.6,1.5-14,10.6-13.4c2.8,0.2,4,1.6,4,1.6c0.3-1.9,0.8-4.1,0.9-5.2c0.1-1,0-1.7-0.2-2.3l-0.2-0.5
	l4.8-0.6C655.5,789.6,655,791.7,652.3,804.9z M646.6,798.8c-5.4-0.4-7,6.4-7.3,11.1c-0.2,2.9,0.3,4.8,2.6,5c1,0.1,2.8,0,5.8-3.8
	l2.3-11.2C650,799.9,649.1,799,646.6,798.8z M677.2,800.2c-0.2,1-0.2,1.4-0.2,1.4s-0.4-0.4-3.4-0.6l-2.3-0.2l-2.1,10.3
	c-0.2,0.8-0.4,2.4-0.4,3c-0.1,1.1-0.1,2.8,2.4,3c2,0.1,3.2-0.9,3.2-0.9s-0.5,3.2-5,2.9c-4-0.3-4.1-3-4-4.5c0.1-1.2,0.4-2.8,0.7-4.3
	c1.3-6.5,2.2-9.7,2.2-9.7l-2.4-0.2c0.1,0,1.4-1,3-2.9c1.7-1.9,2.6-3.5,2.6-3.5l1.3,0.1l-0.9,4.5l2.3,0.1c2.9,0.2,3.6-0.2,3.6-0.2
	S677.4,799.2,677.2,800.2z M684.4,820.3c-5.8-0.4-7-4.2-6.6-9.4c0.2-2.9,2.1-12.2,10.1-11.6c5.7,0.4,7,4.2,6.6,9.4
	C694.3,811.6,692.4,820.8,684.4,820.3z M687.6,801.4c-5.1-0.3-6.3,7.9-6.4,10.3c-0.4,5.8,1.7,6.4,3.4,6.5c5.1,0.3,6.3-7.9,6.4-10.3
	C691.5,802.1,689.4,801.5,687.6,801.4z M316.3,120.5c-0.5,2.6-1.3,6.7-1.3,7.4c0,0.6,0,1,0.6,1.5l0.4,0.4c0,0-0.9,1.4-2.8,1.3
	c-1.7-0.1-1.8-1.3-1.8-2c0.1-1.5,0.9-4.5,0.9-4.5c-2.9,6.1-5.6,6.3-7.4,6.2c-3.3-0.2-4.9-2.4-4.6-7.4c0.1-2.7,1.3-14,10.3-13.5
	c3.3,0.2,4.6,1.9,4.6,1.9l3.1-1.5C318.3,110.1,317.8,112.6,316.3,120.5z M311,112.1c-5.4-0.3-6.9,6.5-7.1,11.2
	c-0.1,2.9,0.3,4.8,2.6,4.9c1,0.1,2.8-0.1,5.7-3.9l2.2-11.2C314.3,113.1,313.4,112.2,311,112.1z M333.5,112.6c-0.2,1-0.2,1.4-0.2,1.4
	s-0.4-0.4-3.4-0.5l-2.3-0.1l-1.9,10.4c-0.1,0.8-0.4,2.4-0.4,3c-0.1,1.2,0,2.8,2.5,3c2,0.1,3.1-0.9,3.1-0.9s-0.5,3.2-5,3
	c-4-0.2-4.2-3-4.1-4.5c0.1-1.2,0.3-2.8,0.6-4.3c1.2-6.5,2-9.7,2-9.7l-2.4-0.1c0.1,0,1.4-1,3-2.9c1.6-1.9,2.5-3.5,2.5-3.5l1.3,0.1
	l-0.8,4.5l2.3,0.1c2.9,0.1,3.6-0.2,3.6-0.2S333.7,111.6,333.5,112.6z M349.4,133c-5.8-0.3-7-4.1-6.8-9.3c0.1-2.9,1.9-12.2,9.9-11.8
	c5.8,0.3,7,4.1,6.8,9.3C359.2,124.2,357.4,133.4,349.4,133z M352.3,114.1c-5.1-0.3-6.1,8-6.3,10.4c-0.3,5.8,1.8,6.4,3.5,6.5
	c5.1,0.3,6.1-8,6.3-10.4C356.1,114.7,354,114.1,352.3,114.1z M377.4,131.1c0,0.6,0,0.9,0.6,1.4l0.4,0.4c0,0-0.9,1.4-2.9,1.3
	c-1.8-0.1-1.9-1.3-1.8-2c0.1-1.8,2.4-11.2,2.6-14.1c0-0.8,0.1-2.4-2.2-2.5c-2.1-0.1-3.8,1.1-6,3.8l-0.8,4.4
	c-1.4,7.6-1.7,9.6-1.7,9.6s-0.8-0.1-1.8-0.2c-0.9,0-1.8,0-1.8,0s0.5-2.3,2.1-10.2c0.7-3.4,1.1-6,1.1-7c0-0.6,0-1.5-0.4-2.1l-0.2-0.4
	l4.6-0.7l-1.3,6.4c3-6,6.1-6.3,7.8-6.2c4.1,0.2,4.1,3.2,4,4.5C379.7,119.8,377.5,129.1,377.4,131.1z M398.4,117.3
	c-0.2,1.3-0.4,2.6-0.4,2.6c-0.8-1.9-1.4-3.7-4.5-3.8c-4.5-0.2-6.3,4.7-6.6,9.8c-0.1,2.6-0.2,6.4,4.1,6.7c3.6,0.2,5.1-1.8,5.4-2.2
	c-0.1,1.8-1.6,4.9-6.5,4.6c-6.3-0.3-6.7-5.5-6.5-8.5c0.1-1.8,0.8-13,10.2-12.6c3.6,0.2,5.2,1.3,5.2,1.3S398.6,116,398.4,117.3z
	 M407.2,126.6c-2.4-0.1-3.5-0.4-3.5-0.4s-0.1,0.7-0.1,1c-0.1,2.9,0.4,6,4.4,6.2c4,0.2,5.7-1.8,5.9-2.3c-0.1,1.5-1.5,5-7,4.7
	c-2.5-0.1-7.2-0.9-6.8-8.2c0.4-8.2,4.2-13.2,10.2-12.9c4.6,0.2,6.1,2.7,6,5.5C415.9,126,411,126.8,407.2,126.6z M409.7,116.9
	c-2.6-0.1-4.8,1.4-5.8,7.3c0,0,0.8,0.2,3,0.3c3.8,0.2,5.6-1.2,5.8-4.4C412.7,118.8,412.3,117,409.7,116.9z M415.6,141.2
	c0,0,2.2-1.3,2.3-4.4c0.1-1.9-0.9-2.1-0.9-2.1l0.1-0.6c0.3-1.5,1.2-2.3,2.6-2.4c1.6,0.3,1.9,1.6,1.9,3
	C421.4,138,419.5,141.4,415.6,141.2z M450.9,127.3c-0.5,2.6-1.3,6.7-1.3,7.4c0,0.6,0,1,0.6,1.5l0.4,0.4c0,0-0.9,1.4-2.8,1.3
	c-1.7-0.1-1.8-1.3-1.8-2c0.1-1.5,0.9-4.5,0.9-4.5c-2.9,6.1-5.6,6.3-7.4,6.2c-3.3-0.2-4.9-2.4-4.6-7.4c0.1-2.7,1.3-14,10.3-13.5
	c3.3,0.2,4.6,1.9,4.6,1.9l3.1-1.5C453,117,452.4,119.4,450.9,127.3z M445.6,118.9c-5.4-0.3-6.9,6.5-7.1,11.2
	c-0.1,2.9,0.3,4.8,2.6,4.9c1,0.1,2.8-0.1,5.7-3.9L449,120C449,120,448.1,119,445.6,118.9z M470.7,135.8c0,0.6,0,0.9,0.6,1.4l0.4,0.4
	c0,0-0.9,1.4-2.9,1.3c-1.8-0.1-1.9-1.3-1.8-2c0.1-1.8,2.4-11.2,2.6-14.1c0-0.8,0.1-2.4-2.2-2.5c-2.1-0.1-3.8,1.1-6,3.8l-0.8,4.4
	c-1.4,7.6-1.7,9.6-1.7,9.6s-0.8-0.1-1.8-0.2c-0.9,0-1.8,0-1.8,0s0.5-2.3,2.1-10.2c0.7-3.4,1.1-6,1.1-7c0-0.6,0-1.5-0.4-2.1l-0.2-0.4
	l4.6-0.7l-1.3,6.4c3-6,6.1-6.3,7.8-6.2c4.1,0.2,4.1,3.2,4,4.5C473,124.6,470.8,133.9,470.7,135.8z M493.2,127
	c-1.3,7.1-1.7,9.1-1.7,9.8c0,0.6,0,0.9,0.6,1.4l0.4,0.4c0,0-0.9,1.4-2.8,1.3c-1.8-0.1-1.8-1.3-1.8-2c0.1-1.5,1-4.5,1-4.5
	c-2.9,6.1-5.5,6.3-7.4,6.2c-3.3-0.2-5-2.4-4.7-7.4c0.1-2.6,1.3-14,10.4-13.5c2.8,0.1,4,1.5,4,1.5c0.3-1.9,0.7-4.1,0.8-5.2
	c0-1,0-1.7-0.3-2.2l-0.2-0.5l4.8-0.7C496.2,111.6,495.7,113.8,493.2,127z M487.4,121c-5.4-0.3-6.9,6.5-7.2,11.2
	c-0.1,2.9,0.3,4.8,2.7,4.9c1,0,2.8-0.1,5.8-3.9l2.1-11.2C490.8,122.1,489.9,121.1,487.4,121z M494.5,145.2c0,0,2.2-1.3,2.3-4.4
	c0.1-1.9-0.9-2.1-0.9-2.1l0.1-0.6c0.3-1.5,1.2-2.3,2.6-2.4c1.6,0.3,1.9,1.6,1.9,3C500.3,142,498.3,145.4,494.5,145.2z M540.2,139.3
	c0,0.6,0,0.9,0.6,1.4l0.4,0.4c0,0-0.9,1.4-2.9,1.3c-1.8-0.1-1.8-1.3-1.8-2c0.1-1.8,2.4-11.2,2.5-14.1c0-0.8,0.1-2.4-2.2-2.5
	c-2.1-0.1-3.8,1.1-6,3.8l-0.8,4.4c-1.4,7.6-1.7,9.6-1.7,9.6s-0.7-0.1-1.8-0.2c-1,0-1.9,0-1.9,0s0.5-1.7,1.7-7.9
	c0.4-2.1,1.2-6.4,1.3-7.6c0.1-1,0.1-2.6-2.2-2.7c-2.1-0.1-3.7,1.1-5.9,3.8l-0.8,4.4c-1.4,7.6-1.7,9.6-1.7,9.6s-0.8-0.1-1.8-0.2
	c-0.9,0-1.8,0-1.8,0s0.5-2.3,2.1-10.2c0.7-3.4,1.1-6,1.1-7c0-0.6,0-1.5-0.4-2.1l-0.2-0.4l4.6-0.7l-1.3,6.4c2.6-5.3,5.2-6.3,7.7-6.2
	c4.2,0.2,4,3.3,4,4.5c0,0.7-0.3,1.9-0.4,2c2.9-5.8,6-6,7.7-5.9c4.1,0.2,4.1,3.2,4,4.5C542.4,128.1,540.3,137.4,540.2,139.3z
	 M554.5,142.2c-4,5.8-5.9,8.1-9.5,8c-2-0.1-2.8-0.6-2.8-0.6s0.2-0.6,0.4-1.7c0.2-1.1,0.3-2,0.3-2c0.7,1.6,1.5,2.1,2.3,2.1
	c1.3,0.1,2.3-0.3,5.3-4.5l-2.6-17.1c-0.2-1.5-0.6-2.5-1-3l-0.4-0.6l4.6-0.7c0,0,0.1,2,0.8,7.8l1,7.8c0.2,1.8,0.2,2.8,0.2,2.9
	c0.2-0.4,6.2-9.9,6.4-15.1c0.1-1.7-0.9-2.2-0.9-2.2s0.9-0.7,2.3-0.7c2,0.1,2,1.6,2,2.3C562.6,129.2,557.3,138,554.5,142.2z
	 M587.8,126.9c-0.2,1.3-0.4,2.6-0.4,2.6c-0.8-1.9-1.4-3.7-4.5-3.8c-4.5-0.2-6.3,4.7-6.6,9.8c-0.1,2.6-0.2,6.4,4.1,6.7
	c3.6,0.2,5.1-1.8,5.4-2.2c-0.1,1.8-1.6,4.9-6.5,4.6c-6.3-0.3-6.7-5.5-6.5-8.5c0.1-1.8,0.8-13,10.2-12.6c3.6,0.2,5.2,1.3,5.2,1.3
	S588,125.6,587.8,126.9z M596.2,145.5c-5.8-0.3-7-4.1-6.8-9.3c0.1-2.9,1.9-12.2,9.9-11.8c5.8,0.3,7,4.1,6.8,9.3
	C606,136.7,604.2,145.9,596.2,145.5z M599.1,126.5c-5.1-0.3-6.1,8-6.3,10.4c-0.3,5.8,1.8,6.4,3.5,6.5c5.1,0.3,6.1-8,6.3-10.4
	C603,127.2,600.9,126.6,599.1,126.5z M635.4,144.1c0,0.6,0,0.9,0.6,1.4l0.4,0.4c0,0-0.9,1.4-2.9,1.3c-1.8-0.1-1.8-1.3-1.8-2
	c0.1-1.8,2.4-11.2,2.5-14.1c0-0.8,0.1-2.4-2.2-2.5c-2.1-0.1-3.8,1.1-6,3.8l-0.8,4.4c-1.4,7.6-1.7,9.6-1.7,9.6s-0.7-0.1-1.8-0.2
	c-1,0-1.9,0-1.9,0s0.5-1.7,1.7-7.9c0.4-2.1,1.2-6.4,1.3-7.6c0.1-1,0.1-2.6-2.2-2.7c-2.1-0.1-3.7,1.1-5.9,3.8l-0.8,4.4
	c-1.4,7.6-1.7,9.6-1.7,9.6s-0.8-0.1-1.8-0.2c-0.9,0-1.8,0-1.8,0s0.5-2.3,2.1-10.2c0.7-3.4,1.1-6,1.1-7c0-0.6,0-1.5-0.4-2.1l-0.2-0.4
	l4.6-0.7l-1.3,6.4c2.6-5.3,5.2-6.3,7.7-6.2c4.2,0.2,4,3.3,4,4.5c0,0.7-0.3,1.9-0.4,2c2.9-5.8,6-6,7.7-5.9c4.1,0.2,4.1,3.2,4,4.5
	C637.7,132.9,635.5,142.2,635.4,144.1z M648.8,148.1c-2.8-0.1-4-1.5-4-1.5l-0.2,1.3c-0.6,3.1-0.7,4.1-0.7,4.5c0,0.9,0,1.5,0.2,2.2
	l0.2,0.6c0,0-0.5-0.1-2.7-0.2c-2.1-0.1-2.7-0.1-2.7-0.1l0.5-0.7c0.8-1.1,1-2.1,2.3-8.8l1.2-6.3c1.1-5.7,1.4-7.6,1.5-8.9
	c0-0.6,0-1.5-0.4-2.1l-0.2-0.4l4.6-0.7l-1.3,6.4c2.9-6.1,5.5-6.3,7.4-6.2c3.3,0.2,5,2.4,4.7,7.4
	C659.1,137.3,657.9,148.6,648.8,148.1z M653,129.7c-1,0-2.8,0-5.8,3.8l-2.1,11.2c0,0,0.9,0.9,3.4,1.1c5.4,0.3,6.9-6.5,7.2-11.2
	C655.9,131.7,655.4,129.8,653,129.7z M678.2,138.8c-0.5,2.6-1.3,6.7-1.3,7.4c0,0.6,0,1,0.6,1.5l0.4,0.4c0,0-0.9,1.4-2.8,1.3
	c-1.7-0.1-1.8-1.3-1.8-2c0.1-1.5,0.9-4.5,0.9-4.5c-2.9,6.1-5.6,6.3-7.4,6.2c-3.3-0.2-4.9-2.4-4.6-7.4c0.1-2.7,1.3-14,10.3-13.5
	c3.3,0.2,4.6,1.9,4.6,1.9l3.1-1.5C680.3,128.4,679.7,130.9,678.2,138.8z M672.9,130.4c-5.4-0.3-6.9,6.5-7.1,11.2
	c-0.1,2.9,0.3,4.8,2.6,4.9c1,0.1,2.8-0.1,5.7-3.9l2.2-11.2C676.3,131.5,675.4,130.5,672.9,130.4z M695.4,132.3
	c-0.2,1.4-0.4,2.5-0.4,2.5c-0.8-2-1.7-3.6-4.6-3.8c-2.6-0.1-3.4,1.2-3.5,2.6c-0.1,1.6,0.7,2.3,2.1,3.6l1.7,1.5
	c1.8,1.6,3.4,2.9,3.2,5.9c-0.1,1.7-1.1,5.7-7,5.4c-3.6-0.2-5.3-1.3-5.3-1.3s0.2-0.6,0.4-2c0.2-1.4,0.4-2.5,0.4-2.5
	c0.8,1.8,1.6,3.6,4.8,3.7c2.8,0.1,3.6-1.7,3.6-2.9c0.1-1.8-0.8-2.6-2-3.7l-1.8-1.6c-2.2-1.9-3-3.3-2.9-5.6c0.2-3,2.3-5.3,6.7-5
	c3.4,0.2,5.1,1.3,5.1,1.3S695.7,131,695.4,132.3z M710.3,133.1c-0.2,1.4-0.4,2.5-0.4,2.5c-0.8-2-1.7-3.6-4.6-3.8
	c-2.6-0.1-3.4,1.2-3.5,2.6c-0.1,1.6,0.7,2.3,2.1,3.6l1.7,1.5c1.8,1.6,3.4,2.9,3.2,5.9c-0.1,1.7-1.1,5.7-7,5.4
	c-3.6-0.2-5.3-1.3-5.3-1.3s0.2-0.6,0.4-2c0.2-1.4,0.4-2.5,0.4-2.5c0.8,1.8,1.6,3.6,4.8,3.7c2.8,0.1,3.6-1.7,3.6-2.9
	c0.1-1.8-0.8-2.6-2-3.7l-1.8-1.6c-2.2-1.9-3-3.3-2.9-5.6c0.2-3,2.3-5.3,6.7-5c3.4,0.2,5.1,1.3,5.1,1.3S710.5,131.7,710.3,133.1z
	 M311.5,206.6c-3.3-0.7-4.3-2.6-4.3-2.6l-3.3,1.1c0,0,0.5-1.2,4.4-11.6c2-5.5,4-11.1,4.2-12.4c0.2-1,0.3-1.6,0.1-2.3l-0.1-0.5
	l4.8,0.1c0,0-1.1,2.7-3,8.1l-0.3,0.8c-0.7,1.9-1.7,4.1-1.8,4.5c3.8-5.5,6.5-5.3,8.2-4.9c3.3,0.7,4.5,3.2,3.5,8.1
	C323.3,197.5,320.3,208.5,311.5,206.6z M318.5,189.1c-1-0.2-2.8-0.4-6.3,2.9l-3.9,10.8c0,0,0.8,1.1,3.2,1.6c5.2,1.1,7.9-5.3,8.8-9.9
	C321,191.5,320.8,189.5,318.5,189.1z M333.2,201.7c-2.4-0.5-3.4-0.9-3.4-0.9s-0.2,0.7-0.3,1c-0.6,2.8-0.5,6,3.4,6.9
	c3.9,0.8,5.9-0.9,6.2-1.3c-0.3,1.4-2.3,4.7-7.6,3.5c-2.4-0.5-7-2-5.5-9.1c1.7-8,6.2-12.4,12.1-11.1c4.5,0.9,5.6,3.6,5,6.3
	C341.9,202.4,337,202.5,333.2,201.7z M337.2,192.5c-2.6-0.5-5,0.7-6.9,6.3c0,0,0.7,0.3,2.9,0.8c3.8,0.8,5.8-0.3,6.4-3.4
	C339.9,194.9,339.7,193,337.2,192.5z M349.6,203.1c-1.2,3.2-2.5,6.9-2.6,7.6c-0.1,0.6-0.1,0.9,0.4,1.5l0.4,0.4c0,0-1.2,1.3-3.1,0.9
	c-1.7-0.4-1.6-1.6-1.5-2.3c0.4-1.9,4.4-11.4,5.1-14.7c0.2-1,0.3-1.7,0.1-2.3l-0.2-0.5l4.7,0C353,193.8,352,196.5,349.6,203.1z
	 M352.5,190.5c-1.7-0.4-1.9-1.6-1.7-2.4c0.3-1.2,1.2-2,2.7-1.7c1.7,0.4,1.9,1.6,1.7,2.3C354.9,190,353.9,190.8,352.5,190.5z
	 M367.7,215.1c-0.1,0.6-0.1,0.9,0.4,1.5l0.4,0.4c0,0-1.2,1.3-3.1,0.9c-1.7-0.4-1.6-1.6-1.5-2.3c0.4-1.8,4.1-10.7,4.7-13.5
	c0.2-0.8,0.5-2.3-1.8-2.8c-2.1-0.4-3.9,0.5-6.5,2.8l-1.5,4.2c-2.6,7.3-3.2,9.3-3.2,9.3s-0.7-0.2-1.7-0.4c-0.9-0.2-1.8-0.3-1.8-0.3
	s0.9-2.2,3.7-9.7c1.2-3.3,2-5.8,2.2-6.8c0.1-0.6,0.2-1.5,0-2.2l-0.1-0.4l4.6,0.1l-2.3,6.1c3.9-5.5,7-5.2,8.7-4.9
	c4,0.8,3.5,3.8,3.2,5C371.7,204.3,368.1,213.2,367.7,215.1z M390.6,212l-3,8.6c-0.9,2.6-1.7,5.1-4,6.5c-1.9,1.2-4.4,1.2-6.9,0.6
	c-4.1-0.9-6.2-2-6.2-2s0.4-0.7,0.9-2c0.6-1.4,0.8-2.5,0.8-2.5c0.7,2.6,1.4,3.6,4.6,4.3c4.5,1,6-1,7.3-4.6l0.4-1.1
	c0.8-2.2,1.7-4.3,1.7-4.3c-3.9,5.6-6.5,5.3-8.2,4.9c-3.3-0.7-4.5-3.2-3.5-8c0.5-2.6,3.5-13.6,12.3-11.7c3.3,0.7,4.3,2.6,4.3,2.6
	l3.4-1C394.2,202.4,393.1,204.8,390.6,212z M386.5,203.1c-5.2-1.1-7.8,5.3-8.8,10c-0.6,2.8-0.5,4.8,1.8,5.3c1,0.2,2.8,0.4,6.3-2.9
	l3.8-10.8C389.7,204.7,389,203.6,386.5,203.1z M408.3,227c-3.3-0.7-4.3-2.6-4.3-2.6l-3.3,1.1c0,0,0.5-1.2,4.4-11.6
	c2-5.5,4-11.1,4.2-12.4c0.2-1,0.3-1.6,0.1-2.3l-0.1-0.5l4.8,0.1c0,0-1.1,2.7-3,8.1l-0.3,0.8c-0.7,1.9-1.7,4.1-1.8,4.5
	c3.8-5.5,6.5-5.3,8.2-4.9c3.3,0.7,4.5,3.2,3.5,8.1C420.2,217.9,417.2,228.9,408.3,227z M415.4,209.5c-1-0.2-2.8-0.4-6.3,2.9
	l-3.9,10.8c0,0,0.8,1.1,3.2,1.6c5.2,1.1,7.9-5.3,8.8-9.9C417.8,211.9,417.7,210,415.4,209.5z M437.2,214.2c-0.6,1.7-0.8,2.2-0.8,2.2
	c-0.3-1.4-0.8-2.2-2-2.5c-2.5-0.5-5,3-5,3l-1.4,4c-2.6,7.3-3.1,9.2-3.1,9.2s-0.7-0.2-1.7-0.4c-0.9-0.2-1.8-0.3-1.8-0.3
	s0.9-2.2,3.6-9.7c1.2-3.3,2-5.8,2.2-6.8c0.1-0.6,0.2-1.5,0-2.2l-0.1-0.4l4.7,0.1l-2.5,6.3c2.2-3.9,4.6-5.9,7-5.4
	c1.4,0.3,1.9,1,1.9,1S437.7,212.7,437.2,214.2z M441.3,234c-5.7-1.2-6.3-5.2-5.2-10.3c0.6-2.9,3.8-11.7,11.6-10.1
	c5.6,1.2,6.3,5.2,5.2,10.3C452.3,226.8,449.1,235.7,441.3,234z M447.2,215.8c-5-1.1-7.3,7-7.8,9.2c-1.2,5.7,0.8,6.6,2.5,6.9
	c5,1.1,7.3-7,7.8-9.2C450.8,217,448.9,216.1,447.2,215.8z M463.9,218.2l-3.5,9.7c-2.6,7.3-3.1,9.1-3.1,9.1s-0.7-0.2-1.7-0.4
	c-1-0.2-1.8-0.3-1.8-0.3s1.1-2.5,4.2-11.2c2.4-6.5,3.9-10.8,4.2-12.2c0.2-1,0.2-1.7,0.1-2.3l-0.1-0.5l4.8,0.1
	C466.9,210,465.6,213.3,463.9,218.2z M467.2,226.7c-1.8,0.6-2.5,0.8-2.5,0.8l1.5,5.2c1,3.6,1.3,4.2,2.3,5.1l0.4,0.4
	c0,0-1.1,1.3-3,0.9c-1.4-0.3-1.7-1.1-2-2.2c-1.3-4.6-2.7-10.2-2.7-10.2s1.5-0.3,4.7-1.7c3.1-1.3,4.3-2.4,4.7-4.2
	c0.3-1.2-0.5-1.7-0.5-1.7s0.9-0.5,2.1-0.2c1.7,0.4,2.1,1.4,1.8,2.6C473.7,223.6,471.5,225.3,467.2,226.7z M480.8,232.8
	c-2.4-0.5-3.4-0.9-3.4-0.9s-0.2,0.7-0.3,1c-0.6,2.8-0.5,6,3.4,6.9c3.9,0.8,5.9-0.9,6.2-1.3c-0.3,1.4-2.3,4.7-7.6,3.5
	c-2.4-0.5-7-2-5.5-9.1c1.7-8,6.2-12.4,12.1-11.1c4.5,0.9,5.6,3.6,5,6.3C489.5,233.6,484.6,233.6,480.8,232.8z M484.8,223.6
	c-2.6-0.5-5,0.7-6.9,6.3c0,0,0.7,0.3,2.9,0.8c3.8,0.8,5.8-0.3,6.4-3.4C487.5,226,487.3,224.2,484.8,223.6z M505.5,244.1
	c-0.1,0.6-0.1,0.9,0.4,1.5l0.4,0.4c0,0-1.2,1.3-3.1,0.9c-1.7-0.4-1.6-1.6-1.5-2.3c0.4-1.8,4.1-10.7,4.7-13.5
	c0.2-0.8,0.5-2.3-1.8-2.8c-2.1-0.4-3.9,0.5-6.5,2.8l-1.5,4.2c-2.6,7.3-3.2,9.3-3.2,9.3s-0.7-0.2-1.7-0.4c-0.9-0.2-1.8-0.3-1.8-0.3
	s0.9-2.2,3.7-9.7c1.2-3.3,2-5.8,2.2-6.8c0.1-0.6,0.2-1.5,0-2.2l-0.1-0.4l4.6,0.1l-2.3,6.1c3.9-5.5,7-5.2,8.7-4.9
	c4,0.8,3.5,3.8,3.2,5C509.5,233.4,505.9,242.2,505.5,244.1z M507.5,252.9c0,0,2.3-0.9,3-3.9c0.4-1.8-0.6-2.3-0.6-2.3l0.2-0.5
	c0.5-1.5,1.5-2.1,3-2c1.5,0.6,1.7,1.9,1.4,3.3C513.7,250.7,511.3,253.7,507.5,252.9z M540,228.8c-1.2,1.2-1.4,1.5-5,11.7
	c-0.9,2.6-2.7,7.7-3,9.2c-0.2,1.1-0.2,1.7-0.1,2.4l0.1,0.7c0,0-0.7-0.2-2.8-0.7c-2.1-0.4-2.9-0.5-2.9-0.5l0.5-0.5
	c1.2-1.2,1.4-1.5,5-11.7c0.9-2.6,2.7-7.7,3-9.2c0.2-1.1,0.2-1.7,0.1-2.4l-0.1-0.7c0,0,0.7,0.2,2.8,0.7c2.1,0.4,2.9,0.5,2.9,0.5
	L540,228.8z M565,259.2l-0.5,0.4c0,0-0.7-0.2-1.7-0.4c-1.1-0.2-1.8-0.3-1.8-0.3l1.4-15.2c0.1-1.1,0.3-2.3,0.3-2.4
	c-0.1,0.1-0.4,1-1.1,2.2l-8.5,13.7c0,0-0.7-0.2-2-0.5c-1.3-0.3-2.2-0.4-2.2-0.4l1.2-16.4c0.1-1.5-0.2-2.6-0.5-3.2l-0.3-0.7l4.3,0
	c0,0,0.1,0.8-0.4,6l-0.9,10.4c-0.1,1-0.3,2-0.3,2.1c0-0.1,0.3-0.8,1.1-1.9l9-14.5c0,0,0.7,0.2,1.9,0.5c1.2,0.2,1.9,0.3,1.9,0.3
	l-1.5,16.2c-0.1,1.4-0.3,2.1-0.3,2.1s7.5-8.5,8.6-14.2c0.4-1.7-0.6-2.3-0.6-2.3s0.9-0.6,2.3-0.3c2,0.4,1.8,1.9,1.6,2.6
	C575,248.2,567.9,256.5,565,259.2z M592.5,254.8c-0.9,2.5-2.3,6.4-2.5,7.1c-0.1,0.6-0.1,1,0.4,1.6l0.4,0.4c0,0-1.1,1.3-3,0.9
	c-1.7-0.4-1.6-1.6-1.4-2.3c0.3-1.5,1.6-4.3,1.6-4.3c-3.9,5.6-6.5,5.3-8.3,5c-3.2-0.7-4.4-3.2-3.4-8c0.5-2.6,3.5-13.6,12.3-11.7
	c3.3,0.7,4.2,2.6,4.2,2.6l3.3-1C596.2,244.9,595.2,247.3,592.5,254.8z M588.6,245.7c-5.2-1.1-7.8,5.3-8.8,10
	c-0.6,2.8-0.5,4.8,1.8,5.3c1,0.2,2.8,0.4,6.3-2.9l3.9-10.8C591.7,247.3,591,246.2,588.6,245.7z M610.5,251.2
	c-0.4,1.3-0.8,2.4-0.8,2.4c-0.4-2.1-1.1-3.8-3.9-4.4c-2.5-0.5-3.6,0.6-3.8,2c-0.3,1.5,0.3,2.4,1.5,3.8l1.4,1.7
	c1.6,1.9,2.9,3.4,2.3,6.3c-0.3,1.7-2,5.4-7.8,4.2c-3.5-0.7-5.1-2.1-5.1-2.1s0.3-0.6,0.7-1.9c0.5-1.3,0.8-2.4,0.8-2.4
	c0.5,1.9,1,3.8,4.2,4.4c2.7,0.6,3.8-1.1,4-2.3c0.4-1.8-0.3-2.7-1.4-4L601,257c-1.9-2.2-2.5-3.8-2-6c0.6-3,3.1-4.8,7.4-3.9
	c3.3,0.7,4.8,2.1,4.8,2.1S611,249.9,610.5,251.2z M634.7,265.7c-4.2,11.7-4.3,12.4-4.4,12.8c-0.2,0.9-0.2,1.5-0.1,2.3l0.1,0.6
	c0,0-0.5-0.2-2.6-0.6c-2-0.4-2.7-0.5-2.7-0.5l0.6-0.6c1-1,1.5-2.3,3.2-7l0.3-0.8c0.8-2.2,1.8-4.5,1.8-4.5c-3.8,5.6-6.5,5.3-8.3,4.9
	c-3.3-0.7-4.5-3.2-3.5-8.1c0.5-2.6,3.5-13.6,12.4-11.7c3.2,0.7,4.2,2.6,4.2,2.6l3.4-1.1C639.1,254,638.5,255.2,634.7,265.7z
	 M631.4,254.7c-5.2-1.1-7.8,5.3-8.8,10c-0.6,2.8-0.5,4.8,1.8,5.3c1,0.2,2.8,0.4,6.3-2.9l3.9-10.8
	C634.6,256.3,633.9,255.3,631.4,254.7z M656,268.2c-0.9,2.5-2.3,6.4-2.5,7.1c-0.1,0.6-0.1,1,0.4,1.6l0.4,0.4c0,0-1.1,1.3-3,0.9
	c-1.7-0.4-1.6-1.6-1.4-2.3c0.3-1.5,1.6-4.3,1.6-4.3c-3.9,5.5-6.9,5.3-8.8,4.9c-4-0.8-3.4-3.8-3.1-5c0.5-2.3,3.8-10.5,4.2-12.6
	c0.2-0.9,0.3-1.6,0.1-2.3l-0.1-0.5l4.8,0.1c0,0-4.9,12.5-5.4,15.1c-0.2,1-0.5,2.6,1.8,3c2,0.4,3.9-0.5,6.5-2.9l1.5-4.1
	c1.2-3.2,1.8-5.1,2-6.2c0.2-0.9,0.3-1.6,0.1-2.3l-0.1-0.5l4.8,0.1C659.6,258.5,658.7,260.6,656,268.2z M665.8,269.8
	c-1.2,3.2-2.5,6.9-2.6,7.6c-0.1,0.6-0.1,0.9,0.4,1.5l0.4,0.4c0,0-1.2,1.3-3.1,0.9c-1.7-0.4-1.6-1.6-1.5-2.3
	c0.4-1.9,4.4-11.4,5.1-14.7c0.2-1,0.3-1.7,0.1-2.3l-0.2-0.5l4.7,0C669.2,260.5,668.2,263.2,665.8,269.8z M668.7,257.2
	c-1.7-0.4-1.9-1.6-1.7-2.4c0.3-1.2,1.2-2,2.7-1.7c1.7,0.4,1.9,1.6,1.7,2.3C671.1,256.7,670.1,257.5,668.7,257.2z M683.9,265.2
	c-0.3,0.9-0.4,1.4-0.4,1.4s-0.4-0.4-3.3-1.1l-2.3-0.5l-3.5,9.9c-0.3,0.8-0.7,2.3-0.9,2.9c-0.2,1.1-0.5,2.8,2,3.3
	c1.9,0.4,3.3-0.4,3.3-0.4s-1,3.1-5.4,2.2c-3.9-0.8-3.7-3.6-3.3-5c0.2-1.2,0.8-2.7,1.3-4.2c2.2-6.3,3.5-9.3,3.5-9.3l-2.4-0.5
	c0.1,0,1.6-0.8,3.4-2.4c1.9-1.7,3-3.1,3-3.1l1.2,0.3l-1.5,4.3l2.2,0.5c2.9,0.6,3.6,0.3,3.6,0.3S684.3,264.3,683.9,265.2z M690.1,277
	c-2.4-0.5-3.4-0.9-3.4-0.9s-0.2,0.7-0.3,1c-0.6,2.8-0.5,6,3.4,6.9s5.9-0.9,6.2-1.3c-0.3,1.4-2.3,4.7-7.6,3.5c-2.4-0.5-7-2-5.5-9.1
	c1.7-8,6.2-12.4,12.1-11.1c4.5,0.9,5.6,3.6,5,6.3C698.8,277.7,693.9,277.8,690.1,277z M694.1,267.8c-2.6-0.5-5,0.7-6.9,6.3
	c0,0,0.7,0.3,2.9,0.8c3.8,0.8,5.8-0.3,6.4-3.4C696.8,270.1,696.6,268.3,694.1,267.8z M323.6,260.3c-2.3,2.6-4.8,5.6-5.2,6.2
	c-0.3,0.5-0.5,0.8-0.2,1.5l0.2,0.6c0,0-1.5,0.8-3.2-0.3c-1.5-1-0.9-2.1-0.6-2.6c1-1.6,8.3-9,10.1-11.8c0.5-0.8,0.9-1.5,0.9-2.1
	l0-0.5l4.4,1.8C330.1,252.9,328.2,254.9,323.6,260.3z M330.9,249.6c-1.4-0.9-1.2-2.2-0.7-2.8c0.7-1,1.9-1.4,3.1-0.6
	c1.4,0.9,1.2,2.2,0.7,2.8C333.3,250,332.1,250.4,330.9,249.6z M340.9,271.8l-5.9,6.9c-1.8,2.1-3.5,4.2-6.1,4.6
	c-2.2,0.4-4.5-0.5-6.7-1.9c-3.5-2.3-5-4.1-5-4.1s0.6-0.5,1.5-1.5c1-1.1,1.7-2,1.7-2c-0.3,2.7,0,3.9,2.7,5.7c3.9,2.5,6,1.3,8.4-1.6
	l0.7-0.9c1.5-1.8,3.1-3.4,3.1-3.4c-5.6,3.8-8,2.6-9.5,1.6c-2.8-1.8-3.1-4.6-0.4-8.8c1.4-2.2,8.2-11.4,15.8-6.5c2.8,1.8,3,4,3,4
	l3.5,0.3C347.8,264.2,345.8,266.1,340.9,271.8z M340.4,262.1c-4.5-2.9-9.2,2.1-11.8,6.1c-1.6,2.4-2.2,4.3-0.2,5.6
	c0.8,0.6,2.5,1.4,7-0.4l7.5-8.7C342.8,264.7,342.4,263.4,340.4,262.1z M353.2,289.1c-0.3,0.5-0.5,0.8-0.2,1.5l0.2,0.6
	c0,0-1.5,0.8-3.2-0.3c-1.5-1-1-2.1-0.6-2.7c1-1.5,7.7-8.5,9.3-10.9c0.4-0.7,1.3-2-0.6-3.2c-1.8-1.2-3.8-1-7.1,0.3l-2.9,3.4
	c-5,5.8-6.3,7.5-6.3,7.5s-0.6-0.5-1.5-1c-0.8-0.5-1.5-0.9-1.5-0.9s1.6-1.7,6.9-7.7c2.3-2.6,4-4.7,4.5-5.5c0.4-0.5,0.7-1.3,0.8-2
	l0-0.4l4.3,1.7l-4.4,4.8c5.6-3.7,8.4-2.3,9.9-1.4c3.4,2.2,1.9,4.8,1.2,5.9C360.8,280.6,354.3,287.5,353.2,289.1z M362.3,299.1
	c-4.9-3.2-4-7.1-1.2-11.5c1.6-2.5,7.8-9.6,14.5-5.2c4.8,3.2,4,7.1,1.2,11.5C375.2,296.3,368.9,303.4,362.3,299.1z M374.3,284.2
	c-4.3-2.8-9.3,3.8-10.6,5.8c-3.2,4.9-1.6,6.4-0.2,7.4c4.3,2.8,9.3-3.8,10.6-5.8C377.3,286.7,375.8,285.1,374.3,284.2z M393.4,297.3
	c-1.2,1.3-1.5,1.8-1.5,1.8c0.2-1.4,0.1-2.4-1-3.1c-2.1-1.4-5.7,0.9-5.7,0.9l-2.8,3.2c-5,5.9-6.2,7.5-6.2,7.5s-0.6-0.5-1.5-1
	c-0.8-0.5-1.5-0.9-1.5-0.9s1.6-1.7,6.9-7.7c2.3-2.6,3.9-4.7,4.5-5.5c0.4-0.5,0.7-1.3,0.8-2l0-0.4l4.3,1.7l-4.6,5
	c3.5-2.8,6.5-3.9,8.5-2.5c1.2,0.8,1.4,1.6,1.4,1.6S394.4,296.1,393.4,297.3z M403.2,312.8c-1.7,2-4.5,5.1-4.9,5.8
	c-0.3,0.5-0.5,0.9-0.2,1.6l0.2,0.6c0,0-1.5,0.8-3.1-0.3c-1.4-0.9-0.9-2-0.5-2.6c0.8-1.3,3.1-3.4,3.1-3.4c-5.6,3.8-8,2.6-9.5,1.6
	c-2.8-1.8-3-4.6-0.3-8.7c1.5-2.2,8.2-11.4,15.8-6.5c2.8,1.8,3,3.9,3,3.9l3.5,0.2C410.2,304.9,408.5,306.8,403.2,312.8z M402.8,302.9
	c-4.5-2.9-9.2,2.1-11.8,6.1c-1.6,2.4-2.2,4.3-0.2,5.6c0.8,0.6,2.4,1.3,6.9-0.4l7.5-8.6C405.2,305.5,404.9,304.3,402.8,302.9z
	 M416,330.2c-0.3,0.5-0.5,0.8-0.2,1.5l0.2,0.6c0,0-1.5,0.8-3.2-0.3c-1.5-1-1-2.1-0.6-2.7c1-1.5,7.7-8.5,9.3-10.9
	c0.4-0.7,1.3-2-0.6-3.2c-1.8-1.2-3.8-1-7.1,0.3l-2.9,3.4c-5,5.8-6.3,7.5-6.3,7.5s-0.6-0.5-1.5-1c-0.8-0.5-1.5-0.9-1.5-0.9
	s1.6-1.7,6.9-7.7c2.3-2.6,4-4.7,4.5-5.5c0.4-0.5,0.7-1.3,0.8-2l0-0.4l4.3,1.7l-4.4,4.8c5.6-3.7,8.4-2.3,9.9-1.4
	c3.4,2.2,1.9,4.8,1.2,5.9C423.6,321.6,417.1,328.5,416,330.2z M439.7,326.3c-0.6,0.8-0.9,1.1-0.9,1.1s-0.2-0.6-2.7-2.2l-1.9-1.3
	l-6.9,8c-0.5,0.6-1.5,1.9-1.8,2.4c-0.6,1-1.5,2.4,0.6,3.8c1.7,1.1,3.2,0.8,3.2,0.8s-2,2.5-5.8,0.1c-3.4-2.2-2.1-4.7-1.3-5.9
	c0.6-1,1.7-2.3,2.7-3.4c4.4-5,6.6-7.4,6.6-7.4l-2-1.3c0.1,0,1.8-0.2,4.1-1c2.4-0.8,3.9-1.8,3.9-1.8l1.1,0.7l-3,3.5l1.9,1.2
	c2.5,1.6,3.2,1.6,3.2,1.6S440.4,325.6,439.7,326.3z M456.3,347.5c-1.7,2-4.5,5.1-4.9,5.8c-0.3,0.5-0.5,0.9-0.2,1.6l0.2,0.6
	c0,0-1.5,0.8-3.1-0.3c-1.4-0.9-0.9-2-0.5-2.6c0.8-1.3,3.1-3.4,3.1-3.4c-5.6,3.8-8,2.6-9.5,1.6c-2.8-1.8-3-4.6-0.3-8.7
	c1.5-2.2,8.2-11.4,15.8-6.5c2.8,1.8,3,3.9,3,3.9l3.5,0.2C463.2,339.6,461.5,341.4,456.3,347.5z M455.9,337.6
	c-4.5-2.9-9.2,2.1-11.8,6.1c-1.6,2.4-2.2,4.3-0.2,5.6c0.8,0.6,2.4,1.3,6.9-0.4l7.5-8.6C458.3,340.2,458,338.9,455.9,337.6z
	 M474.4,350.6c-0.9,1.1-1.6,2-1.6,2c0.3-2.1,0.4-4-2-5.6c-2.1-1.4-3.5-0.7-4.3,0.5c-0.9,1.3-0.6,2.4,0,4.1l0.7,2.1
	c0.8,2.3,1.5,4.2-0.2,6.7c-0.9,1.4-3.8,4.3-8.8,1.1c-3-2-4-3.8-4-3.8s0.5-0.5,1.3-1.5c0.9-1,1.6-2,1.6-2c-0.2,1.9-0.4,3.9,2.3,5.7
	c2.4,1.5,3.9,0.4,4.6-0.7c1-1.5,0.7-2.7,0.1-4.3l-0.8-2.3c-1-2.7-0.9-4.4,0.3-6.3c1.7-2.5,4.7-3.4,8.3-1c2.8,1.9,3.7,3.7,3.7,3.7
	S475.3,349.6,474.4,350.6z M494.5,362.1c-0.6,0.8-0.9,1.1-0.9,1.1s-0.2-0.6-2.7-2.2l-1.9-1.3l-6.9,8c-0.5,0.6-1.5,1.9-1.8,2.4
	c-0.6,1-1.5,2.4,0.6,3.8c1.7,1.1,3.2,0.8,3.2,0.8s-2,2.5-5.8,0.1c-3.4-2.2-2.1-4.7-1.3-5.9c0.6-1,1.7-2.3,2.7-3.4
	c4.4-5,6.6-7.4,6.6-7.4l-2-1.3c0.1,0,1.8-0.2,4.1-1c2.4-0.8,3.9-1.8,3.9-1.8l1.1,0.7l-3,3.5l1.9,1.2c2.5,1.6,3.2,1.6,3.2,1.6
	S495.1,361.3,494.5,362.1z M491,383.2c-4.9-3.2-4-7.1-1.2-11.5c1.6-2.5,7.8-9.6,14.5-5.2c4.8,3.2,4,7.1,1.2,11.5
	C503.8,380.4,497.6,387.5,491,383.2z M503,368.2c-4.3-2.8-9.3,3.8-10.6,5.8c-3.2,4.9-1.6,6.4-0.2,7.4c4.3,2.8,9.3-3.8,10.6-5.8
	C506,370.7,504.5,369.2,503,368.2z M525.6,404.7l-0.6,0.2c0,0-0.5-0.4-1.5-1c-0.9-0.6-1.6-0.9-1.6-0.9l6.8-13.6c0.5-1,1.1-2,1.2-2.1
	c-0.1,0.1-0.8,0.8-1.8,1.6l-12.9,9.7c0,0-0.6-0.5-1.7-1.2c-1.1-0.7-1.9-1.1-1.9-1.1l7-14.8c0.6-1.3,0.7-2.5,0.7-3.1l0-0.7l4,1.6
	c0,0-0.2,0.8-2.6,5.5l-4.6,9.3c-0.4,0.9-1,1.8-1,1.9c0.1-0.1,0.6-0.6,1.7-1.4l13.7-10.2c0,0,0.6,0.5,1.6,1.1c1,0.6,1.7,1,1.7,1
	l-7.3,14.5c-0.6,1.2-1,1.8-1,1.8s10.1-5.3,13.2-10.1c0.9-1.4,0.3-2.3,0.3-2.3s1.1-0.2,2.3,0.6c1.7,1.1,1,2.4,0.6,3
	C538.9,398.1,529.3,403.3,525.6,404.7z M548.3,416.6c-0.3,0.5-0.5,0.8-0.2,1.5l0.2,0.6c0,0-1.5,0.8-3.2-0.3c-1.5-1-1-2.1-0.6-2.7
	c1-1.5,7.7-8.5,9.3-10.9c0.4-0.7,1.3-2-0.6-3.2c-1.8-1.2-3.8-1-7.1,0.3l-2.9,3.4c-5,5.8-6.3,7.5-6.3,7.5s-0.6-0.5-1.4-1
	c-0.8-0.5-1.6-1-1.6-1s1.8-1.9,8-8.9c4.4-5.1,7.6-8.7,8.4-10c0.5-0.8,0.8-1.4,0.9-2.1l0-0.5l4.5,1.8c0,0-2.1,2.2-5.8,6.5l-0.5,0.6
	c-1.7,1.9-3.3,3.4-3.3,3.4c5.6-3.7,8.4-2.3,9.9-1.4c3.4,2.2,1.9,4.8,1.2,5.9C556,408.1,549.4,415,548.3,416.6z M562.2,418.6
	c-2-1.3-2.8-2.1-2.8-2.1s-0.4,0.5-0.6,0.8c-1.6,2.4-2.7,5.4,0.7,7.6s5.8,1.3,6.3,1c-0.8,1.2-3.8,3.5-8.4,0.5
	c-2.1-1.4-5.8-4.4-1.8-10.5c4.5-6.9,10.3-9.3,15.3-6c3.8,2.5,3.9,5.4,2.4,7.7C570.1,422.4,565.5,420.7,562.2,418.6z M569.3,411.5
	c-2.2-1.4-4.9-1.2-8.7,3.4c0,0,0.6,0.6,2.4,1.8c3.2,2.1,5.5,1.8,7.2-0.9C571,414.7,571.5,412.9,569.3,411.5z M587.2,423.9
	c-1.2,1.3-1.5,1.8-1.5,1.8c0.2-1.4,0.1-2.4-1-3.1c-2.1-1.4-5.7,0.9-5.7,0.9l-2.8,3.2c-5,5.9-6.2,7.5-6.2,7.5s-0.6-0.5-1.5-1
	c-0.8-0.5-1.5-0.9-1.5-0.9s1.6-1.7,6.9-7.7c2.3-2.6,3.9-4.7,4.5-5.5c0.4-0.5,0.7-1.3,0.8-2l0-0.4l4.3,1.7l-4.6,5
	c3.5-2.8,6.5-3.9,8.5-2.5c1.2,0.8,1.4,1.6,1.4,1.6S588.2,422.7,587.2,423.9z M588.8,436c-2-1.3-2.8-2.1-2.8-2.1s-0.4,0.5-0.6,0.8
	c-1.6,2.4-2.7,5.4,0.7,7.6c3.3,2.2,5.8,1.3,6.3,1c-0.8,1.2-3.8,3.5-8.4,0.5c-2.1-1.4-5.8-4.4-1.8-10.5c4.5-6.9,10.3-9.3,15.3-6
	c3.8,2.5,3.9,5.4,2.4,7.7C596.7,439.8,592.1,438.1,588.8,436z M595.9,428.9c-2.2-1.4-4.9-1.2-8.7,3.4c0,0,0.6,0.6,2.4,1.8
	c3.2,2.1,5.5,1.8,7.2-0.9C597.5,432,598.1,430.3,595.9,428.9z M620.7,437.5c-1.5,0.7-1.9,0.8-8.9,9.1c-1.8,2.1-5.3,6.2-6.1,7.5
	c-0.6,0.9-0.8,1.5-1,2.2l-0.1,0.7c0,0-0.6-0.5-2.4-1.6c-1.8-1.2-2.5-1.5-2.5-1.5l0.7-0.3c1.5-0.7,1.9-0.8,8.9-9.1
	c1.8-2.1,5.3-6.2,6.1-7.5c0.6-0.9,0.8-1.5,1-2.2l0.1-0.6c0,0,0.6,0.5,2.3,1.6c1.8,1.2,2.5,1.6,2.5,1.6L620.7,437.5z M633,474.8
	l-0.6,0.2c0,0-0.5-0.4-1.5-1c-0.9-0.6-1.6-0.9-1.6-0.9l6.8-13.6c0.5-1,1.1-2,1.2-2.1c-0.1,0.1-0.8,0.8-1.8,1.6l-12.9,9.7
	c0,0-0.6-0.5-1.7-1.2c-1.1-0.7-1.9-1.1-1.9-1.1l7-14.8c0.6-1.3,0.7-2.5,0.7-3.1l0-0.7l4,1.6c0,0-0.2,0.8-2.6,5.5l-4.6,9.3
	c-0.4,0.9-1,1.8-1,1.9c0.1-0.1,0.6-0.6,1.7-1.4l13.7-10.2c0,0,0.6,0.5,1.6,1.1c1,0.7,1.7,1,1.7,1l-7.3,14.5c-0.6,1.2-1,1.8-1,1.8
	s10.1-5.3,13.2-10.1c0.9-1.4,0.3-2.3,0.3-2.3s1.1-0.2,2.3,0.6c1.7,1.1,1,2.4,0.6,3C646.3,468.3,636.7,473.5,633,474.8z M660.2,480.8
	c-1.7,2-4.5,5.1-4.9,5.8c-0.3,0.5-0.5,0.9-0.2,1.6l0.2,0.6c0,0-1.5,0.8-3.1-0.3c-1.4-0.9-0.9-2-0.5-2.6c0.8-1.3,3.1-3.4,3.1-3.4
	c-5.6,3.8-8,2.6-9.5,1.6c-2.8-1.8-3-4.6-0.3-8.7c1.5-2.2,8.2-11.4,15.8-6.5c2.8,1.8,3,3.9,3,3.9l3.5,0.2
	C667.2,472.9,665.5,474.7,660.2,480.8z M659.9,470.9c-4.5-2.9-9.2,2.1-11.8,6.1c-1.6,2.4-2.2,4.3-0.2,5.6c0.8,0.6,2.4,1.3,6.9-0.4
	l7.5-8.6C662.2,473.5,661.9,472.2,659.9,470.9z M678.3,483.9c-0.9,1.1-1.6,2-1.6,2c0.3-2.1,0.4-4-2-5.6c-2.1-1.4-3.5-0.7-4.3,0.5
	c-0.9,1.3-0.6,2.4,0,4.1l0.7,2.1c0.8,2.3,1.5,4.2-0.2,6.7c-0.9,1.4-3.8,4.3-8.8,1.1c-3-2-4-3.8-4-3.8s0.5-0.5,1.3-1.5
	c0.9-1,1.6-2,1.6-2c-0.2,1.9-0.4,3.9,2.3,5.7c2.4,1.5,3.9,0.4,4.6-0.7c1-1.5,0.7-2.7,0.1-4.3l-0.8-2.3c-1-2.7-0.9-4.4,0.3-6.3
	c1.7-2.5,4.7-3.4,8.3-1c2.8,1.9,3.7,3.7,3.7,3.7S679.2,482.9,678.3,483.9z M671.7,501.8l-0.6-4l4.3-0.6l0.6,4L671.7,501.8z
	 M677.7,505.7l-0.6-4l4.3-0.6l0.6,4L677.7,505.7z M683.7,509.6l-0.6-4l4.3-0.6l0.6,4L683.7,509.6z"/>
</svg>
