<?xml version="1.0" encoding="utf-8"?>
<!-- Generator: Adobe Illustrator 22.1.0, SVG Export Plug-In . SVG Version: 6.00 Build 0)  -->
<svg version="1.1" id="Layer_6" xmlns="http://www.w3.org/2000/svg" xmlns:xlink="http://www.w3.org/1999/xlink" x="0px" y="0px"
	 viewBox="0 0 1564 1094.5" style="enable-background:new 0 0 1564 1094.5;" xml:space="preserve">
<style type="text/css">
	.st0{fill:#9EC6BD;}
</style>
<path class="st0" d="M276.9,42.8c0,2.2,1.3,2.8,1.3,2.8l-2.8,2.4c0,0-1.8-1-1.8-3.9c0-3.4,2.2-6.1,5.7-6.1
	C279.3,38,276.9,39.2,276.9,42.8z M283.8,42.8c0,2.2,1.3,2.8,1.3,2.8l-2.8,2.4c0,0-1.8-1-1.8-3.9c0-3.4,2.2-6.1,5.7-6.1
	C286.2,38,283.8,39.2,283.8,42.8z M293.3,66.2c-2,0-3,0.1-3,0.1l0.4-0.6c0.8-1.3,1.1-1.6,2.5-12.4l1.3-10.4h-2.1
	c-1.6,0-3,0.4-3.9,0.9c-1,0.6-1.3,0.9-1.3,1c0-0.1,0.3-1.3,0.5-3l0.1-1.1h17.4c0,0.2-0.1,0.5-0.1,1.1c-0.2,1.6-0.3,2.9-0.3,3
	c0,0-0.2-0.4-1.1-1c-0.8-0.5-2-0.9-3.6-0.9h-2.2l-1.4,10.8c-0.4,2.7-1,8.1-1,9.7c0,1.1,0.1,1.7,0.4,2.4l0.3,0.6
	C296.2,66.3,295.3,66.2,293.3,66.2z M320.3,63.4c0,0.6,0.1,0.9,0.7,1.4l0.5,0.4c0,0-0.9,1.5-2.8,1.5c-1.8,0-1.9-1.2-1.9-1.9
	c0-1.8,1.8-11.3,1.8-14.2c0-0.8,0-2.4-2.3-2.4c-2.1,0-3.7,1.3-5.8,4.1l-0.6,4.4c-1,7.6-1.2,9.7-1.2,9.7s-0.7-0.1-1.7-0.1
	c-0.9,0-1.9,0.1-1.9,0.1s0.5-2.6,1.8-11.8c0.9-6.7,1.6-11.4,1.6-12.9c0-1-0.1-1.7-0.4-2.2l-0.3-0.5l4.8-0.9c0,0-0.5,3-1.3,8.6
	l-0.1,0.8c-0.4,2.6-0.9,4.6-0.9,4.6c2.7-6.2,5.8-6.6,7.5-6.6c4.1,0,4.2,3,4.2,4.2C322,52,320.3,61.4,320.3,63.4z M333,57.4
	c-2.4,0-3.5-0.2-3.5-0.2s-0.1,0.7-0.1,1c0,2.9,0.7,6,4.7,6c4,0,5.6-2.1,5.8-2.6c0,1.5-1.3,5-6.7,5c-2.5,0-7.2-0.5-7.2-7.8
	c0-8.2,3.5-13.4,9.5-13.4c4.6,0,6.2,2.4,6.2,5.1C341.7,56.3,336.9,57.4,333,57.4z M335.1,47.6c-2.6,0-4.8,1.7-5.5,7.6
	c0,0,0.8,0.2,3,0.2c3.9,0,5.6-1.5,5.6-4.7C338.1,49.3,337.6,47.6,335.1,47.6z M372.5,65.8l-0.4,0.5c0,0-0.7-0.1-1.8-0.1
	c-1.1,0-1.8,0.1-1.8,0.1l-1.7-15.2c-0.1-1.1-0.2-2.3-0.2-2.4c0,0.1-0.2,1.1-0.6,2.4l-5.5,15.2c0,0-0.7-0.1-2.1-0.1
	c-1.4,0-2.2,0.1-2.2,0.1L353.9,50c-0.2-1.4-0.8-2.4-1.2-3l-0.4-0.6l4.2-0.9c0,0,0.2,0.8,0.8,6l1.2,10.4c0.1,1,0.1,2.1,0.1,2.1
	c0-0.1,0.2-0.8,0.7-2.1l5.8-16.1c0,0,0.8,0.1,1.9,0.1s1.9-0.1,1.9-0.1L371,62c0.1,1.4,0.2,2.1,0.2,2.1s5.5-9.9,5.5-15.7
	c0-1.7-1-2.1-1-2.1s0.8-0.8,2.2-0.8c2,0,2.1,1.5,2.1,2.2C380,53,374.8,62.6,372.5,65.8z M387.8,55.4c-0.5,3.4-1,7.3-1,8
	c0,0.6,0.1,0.9,0.7,1.4l0.5,0.4c0,0-0.9,1.5-2.8,1.5c-1.8,0-1.9-1.2-1.9-1.9c0-1.9,2-12.1,2-15.4c0-1-0.1-1.7-0.4-2.3l-0.3-0.4
	l4.6-0.9C389.2,45.6,388.8,48.4,387.8,55.4z M388,42.5c-1.7,0-2.2-1.2-2.2-2c0-1.2,0.8-2.2,2.3-2.2c1.7,0,2.2,1.2,2.2,1.9
	C390.3,41.5,389.5,42.5,388,42.5z M408,63.4c0,0.6,0.1,0.9,0.7,1.4l0.5,0.4c0,0-0.9,1.5-2.8,1.5c-1.8,0-1.9-1.2-1.9-1.9
	c0-1.8,1.8-11.3,1.8-14.2c0-0.8,0-2.4-2.3-2.4c-2.1,0-3.7,1.3-5.8,4.1l-0.6,4.4c-1,7.6-1.2,9.7-1.2,9.7s-0.8-0.1-1.8-0.1
	c-0.9,0-1.8,0.1-1.8,0.1s0.4-2.3,1.6-10.3c0.5-3.5,0.8-6.1,0.8-7.1c0-0.6-0.1-1.5-0.5-2.1l-0.2-0.4l4.5-0.9l-1,6.4
	c2.7-6.2,5.8-6.6,7.5-6.6c4.1,0,4.2,3,4.2,4.2C409.7,52,408,61.4,408,63.4z M429.9,53.5c-1,7.1-1.2,9.2-1.2,9.9
	c0,0.6,0.1,0.9,0.6,1.4l0.5,0.4c0,0-0.8,1.5-2.7,1.5c-1.8,0-1.9-1.2-1.9-1.9c0-1.5,0.7-4.6,0.7-4.6c-2.6,6.2-5.2,6.6-7.1,6.6
	c-3.3,0-5.1-2.2-5.1-7.2c0-2.6,0.6-14,9.7-14c2.8,0,4.1,1.3,4.1,1.3c0.2-1.9,0.5-4.2,0.5-5.2c0-1-0.1-1.7-0.4-2.2l-0.3-0.5l4.7-0.9
	C432.2,38,431.8,40.1,429.9,53.5z M423.9,47.7c-5.4,0-6.6,6.8-6.6,11.6c0,2.9,0.6,4.8,2.9,4.8c1,0,2.8-0.2,5.6-4.1l1.5-11.3
	C427.3,48.6,426.4,47.7,423.9,47.7z M439.3,55.4c-0.5,3.4-1,7.3-1,8c0,0.6,0.1,0.9,0.7,1.4l0.5,0.4c0,0-0.9,1.5-2.8,1.5
	c-1.8,0-1.9-1.2-1.9-1.9c0-1.9,2-12.1,2-15.4c0-1-0.1-1.7-0.4-2.3l-0.3-0.4l4.6-0.9C440.7,45.6,440.3,48.4,439.3,55.4z M439.5,42.5
	c-1.7,0-2.2-1.2-2.2-2c0-1.2,0.8-2.2,2.3-2.2c1.7,0,2.2,1.2,2.2,1.9C441.8,41.5,441,42.5,439.5,42.5z M459.5,63.4
	c0,0.6,0.1,0.9,0.7,1.4l0.5,0.4c0,0-0.9,1.5-2.8,1.5c-1.8,0-1.9-1.2-1.9-1.9c0-1.8,1.8-11.3,1.8-14.2c0-0.8,0-2.4-2.3-2.4
	c-2.1,0-3.7,1.3-5.8,4.1l-0.6,4.4c-1,7.6-1.2,9.7-1.2,9.7s-0.8-0.1-1.8-0.1c-0.9,0-1.8,0.1-1.8,0.1s0.4-2.3,1.6-10.3
	c0.5-3.5,0.8-6.1,0.8-7.1c0-0.6-0.1-1.5-0.5-2.1l-0.2-0.4l4.5-0.9l-1,6.4c2.7-6.2,5.8-6.6,7.5-6.6c4.1,0,4.2,3,4.2,4.2
	C461.2,52,459.5,61.4,459.5,63.4z M481.2,55.6l-1.2,9c-0.4,2.7-0.6,5.4-2.6,7.2c-1.7,1.5-4,2.1-6.6,2.1c-4.2,0-6.5-0.7-6.5-0.7
	s0.3-0.8,0.4-2.1c0.3-1.5,0.3-2.6,0.3-2.6c1.3,2.4,2.1,3.3,5.4,3.3c4.6,0,5.7-2.2,6.2-6l0.1-1.1c0.3-2.3,0.8-4.6,0.8-4.6
	c-2.6,6.2-5.3,6.5-7.1,6.5c-3.3,0-5.1-2.2-5.1-7.1c0-2.6,0.6-14,9.6-14c3.3,0,4.7,1.7,4.7,1.7l3.1-1.7
	C482.8,45.4,482.2,48.1,481.2,55.6z M475.5,47.7c-5.4,0-6.6,6.8-6.6,11.6c0,2.9,0.5,4.8,2.9,4.8c1,0,2.8-0.2,5.6-4.1l1.5-11.3
	C478.9,48.6,477.9,47.7,475.5,47.7z M497.7,48.6c-0.1,1.4-0.3,2.5-0.3,2.5c-0.9-1.9-1.9-3.5-4.8-3.5c-2.6,0-3.3,1.3-3.3,2.7
	c0,1.6,0.8,2.3,2.3,3.5l1.8,1.4c1.9,1.5,3.5,2.7,3.5,5.7c0,1.7-0.8,5.7-6.8,5.7c-3.6,0-5.4-1-5.4-1s0.1-0.6,0.3-2
	c0.2-1.4,0.3-2.6,0.3-2.6c0.9,1.7,1.8,3.5,5,3.5c2.8,0,3.5-1.8,3.5-3.1c0-1.8-0.9-2.6-2.2-3.6l-1.9-1.5c-2.3-1.8-3.2-3.2-3.2-5.4
	c0-3,2.1-5.4,6.4-5.4c3.4,0,5.2,1.1,5.2,1.1S497.8,47.2,497.7,48.6z M516.6,66.7c-3.3,0-4.8-1.7-4.8-1.7l-3,1.7
	c0,0,0.3-1.3,1.9-12.2c0.8-5.8,1.6-11.7,1.6-13c0-1-0.1-1.7-0.4-2.2l-0.3-0.5l4.8-0.9c0,0-0.5,2.8-1.3,8.5l-0.1,0.8
	c-0.3,2-0.8,4.4-0.9,4.8c2.6-6.2,5.2-6.5,7.1-6.5c3.3,0,5.1,2.2,5.1,7.2C526.2,55.3,525.6,66.7,516.6,66.7z M519.8,48.1
	c-1,0-2.8,0.2-5.6,4.1l-1.6,11.3c0,0,1,0.9,3.5,0.9c5.4,0,6.6-6.8,6.6-11.6C522.8,49.9,522.2,48.1,519.8,48.1z M536.8,57.4
	c-2.4,0-3.5-0.2-3.5-0.2s-0.1,0.7-0.1,1c0,2.9,0.7,6,4.7,6c4,0,5.6-2.1,5.8-2.6c0,1.5-1.3,5-6.7,5c-2.5,0-7.2-0.5-7.2-7.8
	c0-8.2,3.5-13.4,9.5-13.4c4.6,0,6.2,2.4,6.2,5.1C545.5,56.3,540.7,57.4,536.8,57.4z M538.9,47.6c-2.6,0-4.8,1.7-5.5,7.6
	c0,0,0.8,0.2,3,0.2c3.9,0,5.6-1.5,5.6-4.7C542,49.3,541.4,47.6,538.9,47.6z M568,65.8l-0.4,0.5c0,0-0.7-0.1-1.8-0.1
	c-1.1,0-1.8,0.1-1.8,0.1l-1.7-15.2c-0.1-1.1-0.2-2.3-0.2-2.4c0,0.1-0.2,1.1-0.6,2.4l-5.5,15.2c0,0-0.7-0.1-2.1-0.1
	c-1.4,0-2.2,0.1-2.2,0.1L549.4,50c-0.2-1.4-0.8-2.4-1.2-3l-0.4-0.6l4.2-0.9c0,0,0.2,0.8,0.8,6l1.2,10.4c0.1,1,0.1,2.1,0.1,2.1
	c0-0.1,0.2-0.8,0.7-2.1l5.8-16.1c0,0,0.8,0.1,1.9,0.1s1.9-0.1,1.9-0.1l1.9,16.1c0.1,1.4,0.2,2.1,0.2,2.1s5.5-9.9,5.5-15.7
	c0-1.7-1-2.1-1-2.1s0.8-0.8,2.2-0.8c2,0,2.1,1.5,2.1,2.2C575.5,53,570.3,62.6,568,65.8z M583.3,55.4c-0.5,3.4-1,7.3-1,8
	c0,0.6,0.1,0.9,0.7,1.4l0.5,0.4c0,0-0.9,1.5-2.8,1.5c-1.8,0-1.9-1.2-1.9-1.9c0-1.9,2-12.1,2-15.4c0-1-0.1-1.7-0.4-2.3l-0.3-0.4
	l4.6-0.9C584.7,45.6,584.3,48.4,583.3,55.4z M583.6,42.5c-1.7,0-2.2-1.2-2.2-2c0-1.2,0.8-2.2,2.3-2.2c1.7,0,2.2,1.2,2.2,1.9
	C585.8,41.5,585,42.5,583.6,42.5z M593.6,53.1c-1,7.2-1.3,9.5-1.3,10.2c0,0.6,0.1,0.9,0.7,1.4l0.5,0.4c0,0-0.9,1.5-2.8,1.5
	c-1.8,0-1.9-1.2-1.9-1.9c0-2.6,3-19.6,3-23.1c0-1-0.1-1.7-0.4-2.2l-0.3-0.5l4.8-0.9C595.8,38,595.4,40,593.6,53.1z M614,53.5
	c-1,7.1-1.2,9.2-1.2,9.9c0,0.6,0.1,0.9,0.6,1.4l0.5,0.4c0,0-0.8,1.5-2.7,1.5c-1.8,0-1.9-1.2-1.9-1.9c0-1.5,0.7-4.6,0.7-4.6
	c-2.6,6.2-5.2,6.6-7.1,6.6c-3.3,0-5.1-2.2-5.1-7.2c0-2.6,0.6-14,9.7-14c2.8,0,4.1,1.3,4.1,1.3c0.2-1.9,0.5-4.2,0.5-5.2
	c0-1-0.1-1.7-0.4-2.2l-0.3-0.5l4.7-0.9C616.3,38,615.9,40.1,614,53.5z M608,47.7c-5.4,0-6.6,6.8-6.6,11.6c0,2.9,0.6,4.8,2.9,4.8
	c1,0,2.8-0.2,5.6-4.1l1.5-11.3C611.4,48.6,610.5,47.7,608,47.7z M625.4,57.4c-2.4,0-3.5-0.2-3.5-0.2s-0.1,0.7-0.1,1
	c0,2.9,0.7,6,4.7,6c4,0,5.6-2.1,5.8-2.6c0,1.5-1.3,5-6.7,5c-2.5,0-7.2-0.5-7.2-7.8c0-8.2,3.5-13.4,9.5-13.4c4.6,0,6.2,2.4,6.2,5.1
	C634.1,56.3,629.3,57.4,625.4,57.4z M627.4,47.6c-2.6,0-4.8,1.7-5.5,7.6c0,0,0.8,0.2,3,0.2c3.9,0,5.6-1.5,5.6-4.7
	C630.5,49.3,630,47.6,627.4,47.6z M649.1,48.2c-0.3,1.8-0.3,2.3-0.3,2.3c-0.6-1.3-1.2-2-2.5-2c-2.5,0-4.3,3.9-4.3,3.9l-0.6,4.2
	c-1,7.7-1.1,9.6-1.1,9.6s-0.8-0.1-1.8-0.1c-0.9,0-1.8,0.1-1.8,0.1s0.4-2.3,1.5-10.3c0.5-3.5,0.7-6.1,0.7-7.1c0-0.6-0.1-1.5-0.5-2.1
	l-0.2-0.4l4.6-0.9l-1.1,6.7c1.4-4.2,3.3-6.8,5.7-6.8c1.4,0,2,0.6,2,0.6S649.4,46.6,649.1,48.2z M657.1,57.4c-2.4,0-3.5-0.2-3.5-0.2
	s-0.1,0.7-0.1,1c0,2.9,0.7,6,4.7,6c4,0,5.6-2.1,5.8-2.6c0,1.5-1.3,5-6.7,5c-2.5,0-7.2-0.5-7.2-7.8c0-8.2,3.5-13.4,9.5-13.4
	c4.6,0,6.2,2.4,6.2,5.1C665.8,56.3,661,57.4,657.1,57.4z M659.2,47.6c-2.6,0-4.8,1.7-5.5,7.6c0,0,0.8,0.2,3,0.2
	c3.9,0,5.6-1.5,5.6-4.7C662.3,49.3,661.7,47.6,659.2,47.6z M684.5,53.5c-1,7.1-1.2,9.2-1.2,9.9c0,0.6,0.1,0.9,0.6,1.4l0.5,0.4
	c0,0-0.8,1.5-2.7,1.5c-1.8,0-1.9-1.2-1.9-1.9c0-1.5,0.7-4.6,0.7-4.6c-2.6,6.2-5.2,6.6-7.1,6.6c-3.3,0-5.1-2.2-5.1-7.2
	c0-2.6,0.6-14,9.7-14c2.8,0,4.1,1.3,4.1,1.3c0.2-1.9,0.5-4.2,0.5-5.2c0-1-0.1-1.7-0.4-2.2l-0.3-0.5l4.7-0.9
	C686.8,38,686.4,40.1,684.5,53.5z M678.5,47.7c-5.4,0-6.6,6.8-6.6,11.6c0,2.9,0.6,4.8,2.9,4.8c1,0,2.8-0.2,5.6-4.1l1.5-11.3
	C681.9,48.6,681,47.7,678.5,47.7z M713.2,55.8c-0.4,2.6-0.9,6.7-0.9,7.5c0,0.6,0.1,1,0.7,1.4l0.5,0.4c0,0-0.8,1.5-2.8,1.5
	c-1.7,0-1.9-1.2-1.9-1.9c0-1.5,0.7-4.6,0.7-4.6c-2.7,6.2-5.7,6.6-7.6,6.6c-4.1,0-4.1-3.1-4.1-4.3c0-2.3,1.5-11.1,1.5-13.2
	c0-0.9-0.1-1.7-0.4-2.2l-0.3-0.5l4.7-0.9c0,0-2.2,13.3-2.2,15.9c0,1,0.1,2.6,2.3,2.6c2.1,0,3.7-1.3,5.7-4.1l0.6-4.3
	c0.5-3.4,0.7-5.3,0.7-6.4c0-0.9-0.1-1.7-0.4-2.2l-0.3-0.5l4.7-0.9C714.7,45.6,714.3,47.9,713.2,55.8z M730.1,48.6
	c-0.1,1.4-0.3,2.5-0.3,2.5c-0.9-1.9-1.9-3.5-4.8-3.5c-2.6,0-3.3,1.3-3.3,2.7c0,1.6,0.8,2.3,2.3,3.5l1.8,1.4c1.9,1.5,3.5,2.7,3.5,5.7
	c0,1.7-0.8,5.7-6.8,5.7c-3.6,0-5.4-1-5.4-1s0.1-0.6,0.3-2c0.2-1.4,0.3-2.6,0.3-2.6c0.9,1.7,1.8,3.5,5,3.5c2.8,0,3.5-1.8,3.5-3.1
	c0-1.8-0.9-2.6-2.2-3.6l-1.9-1.5c-2.3-1.8-3.2-3.2-3.2-5.4c0-3,2.1-5.4,6.4-5.4c3.4,0,5.2,1.1,5.2,1.1S730.3,47.2,730.1,48.6z
	 M653.9,929.3c-1,0-1.4,0-1.4,0s0.3-0.5,0-3.5l-0.2-2.3l-10.5-0.4c-0.8,0-2.4,0-3,0c-1.1,0.1-2.8,0.4-2.6,2.9c0.2,2,1.4,3,1.4,3
	s-3.3,0-3.7-4.5c-0.4-4,2.3-4.6,3.8-4.7c1.2-0.1,2.8-0.1,4.4,0c6.6,0.3,9.9,0.6,9.9,0.6l-0.2-2.4c0,0.1,1.2,1.3,3.3,2.5
	c2.2,1.4,3.8,2,3.8,2l0.1,1.3l-4.6-0.2l0.2,2.3c0.3,2.9,0.7,3.5,0.7,3.5S654.9,929.3,653.9,929.3z M639.3,947.4
	c-0.6,0.1-0.9,0.2-1.3,0.8l-0.3,0.5c0,0-1.5-0.7-1.7-2.7c-0.2-1.8,1-2,1.7-2.1c1.8-0.2,11.5,0.8,14.3,0.5c0.8-0.1,2.4-0.3,2.2-2.5
	c-0.2-2.1-1.6-3.6-4.6-5.4l-4.4-0.2c-7.7-0.3-9.8-0.3-9.8-0.3s0-0.7-0.1-1.7c-0.1-0.9-0.2-1.9-0.2-1.9s2.7,0.2,12,0.7
	c6.7,0.3,11.5,0.5,13,0.4c1-0.1,1.6-0.2,2.2-0.6l0.4-0.3l1.3,4.6c0,0-3-0.3-8.7-0.5l-0.8,0c-2.6-0.1-4.7-0.4-4.7-0.4
	c6.4,2.1,7.1,5.1,7.2,6.8c0.4,4-2.5,4.5-3.8,4.6C650.8,948.1,641.3,947.2,639.3,947.4z M646.5,959.5c-0.2-2.4-0.1-3.5-0.1-3.5
	s-0.7,0-1,0c-2.9,0.3-5.9,1.3-5.5,5.3c0.4,4,2.6,5.4,3.1,5.5c-1.5,0.1-5.1-0.8-5.6-6.2c-0.2-2.5-0.1-7.3,7.1-7.9
	c8.2-0.8,13.7,2.3,14.2,8.2c0.4,4.6-1.8,6.4-4.5,6.7C648.3,968.1,646.8,963.4,646.5,959.5z M656.4,960.6c-0.2-2.6-2.1-4.6-8.1-4.7
	c0,0-0.1,0.8,0.1,3c0.4,3.8,2,5.4,5.2,5.1C655,963.9,656.7,963.2,656.4,960.6z M658.4,992.6c-1.3-0.1-2.7,0-2.7,0
	c1.8-1,3.4-1.9,3.2-5c-0.4-4.5-5.5-5.6-10.7-5.1c-2.6,0.2-6.4,0.7-6,5c0.3,3.5,2.5,4.8,3,5c-1.8,0.2-5.1-0.9-5.5-5.7
	c-0.6-6.3,4.5-7.4,7.5-7.7c1.8-0.2,13-1.1,13.9,8.3c0.3,3.6-0.6,5.3-0.6,5.3S659.7,992.6,658.4,992.6z M654.5,1000.5
	c-7.3-0.3-9.6-0.4-10.3-0.3c-0.6,0.1-0.9,0.2-1.3,0.8l-0.3,0.5c0,0-1.5-0.7-1.7-2.7c-0.2-1.8,1-2,1.7-2.1c2.5-0.2,19.8,1.2,23.3,0.8
	c1-0.1,1.6-0.2,2.2-0.6l0.4-0.3l1.3,4.6C669.9,1001.3,667.8,1001.1,654.5,1000.5z M653.8,1021.1c-2.6-0.1-6.8-0.3-7.5-0.2
	c-0.6,0.1-1,0.2-1.4,0.8l-0.3,0.5c0,0-1.5-0.7-1.7-2.6c-0.2-1.7,1-2,1.7-2c1.5-0.1,4.6,0.3,4.6,0.3c-6.4-2.1-7.1-5-7.3-6.9
	c-0.4-4,2.7-4.4,3.9-4.5c2.3-0.2,11.1,0.5,13.3,0.3c0.9-0.1,1.6-0.2,2.2-0.6l0.4-0.3l1.3,4.6c0,0-13.4-0.9-16-0.7
	c-1,0.1-2.6,0.3-2.4,2.6c0.2,2.1,1.6,3.6,4.7,5.3l4.4,0.2c3.4,0.2,5.4,0.2,6.5,0.1c0.9-0.1,1.6-0.2,2.2-0.6l0.4-0.3l1.3,4.6
	C664.1,1021.6,661.8,1021.4,653.8,1021.1z M653.3,1033.1c-0.2-2.4-0.1-3.5-0.1-3.5s-0.7,0-1,0c-2.9,0.3-5.9,1.3-5.5,5.3
	c0.4,4,2.6,5.4,3.1,5.5c-1.5,0.1-5.1-0.8-5.6-6.2c-0.2-2.5-0.1-7.3,7.1-7.9c8.2-0.8,13.7,2.3,14.2,8.2c0.4,4.6-1.8,6.4-4.5,6.7
	C655.2,1041.6,653.7,1036.9,653.3,1033.1z M663.3,1034.2c-0.2-2.6-2.1-4.6-8.1-4.7c0,0-0.1,0.8,0.1,3c0.4,3.8,2,5.4,5.2,5.1
	C661.8,1037.4,663.5,1036.7,663.3,1034.2z M645.4,1047.8c0-1.4,1-1.9,1.9-2c1.1-0.1,2.5,0.4,2.9,2.1c-0.1,1.4-0.9,1.9-1.9,2
	C647.1,1050,645.8,1049.5,645.4,1047.8z M671.2,1051.1c-1.3-0.5-3.4-0.8-12.9-1.4l-6.3-0.4l-0.2-2.5l6.2,0c9.5,0,11.6-0.1,12.7-0.5
	l0.7-0.2c0,0,0,0.5,0.2,2.7c0.2,2.1,0.3,2.6,0.3,2.6L671.2,1051.1z M664.9,1055.7c0,0,1.4,2.3,5,1.9c2.2-0.2,2.7-1.6,2.7-1.6
	l2.6,2.6c0,0-0.9,1.9-3.8,2.2C668.1,1061.2,665.2,1059.2,664.9,1055.7z M665.5,1062.6c0,0,1.4,2.3,5,1.9c2.2-0.2,2.7-1.6,2.7-1.6
	l2.6,2.6c0,0-0.9,1.9-3.8,2.2C668.8,1068.1,665.9,1066.1,665.5,1062.6z M439.1,946.1c0,1.4,0.1,2.5,0.1,2.5
	c-1.1-1.8-2.3-3.2-5.2-2.8c-2.5,0.4-3.1,1.8-2.9,3.2c0.2,1.6,1.1,2.2,2.7,3.1l1.9,1.1c2.1,1.2,3.9,2.2,4.3,5.1
	c0.2,1.7,0,5.8-5.9,6.6c-3.6,0.5-5.5-0.3-5.5-0.3s0.1-0.7,0-2c0-1.4-0.1-2.6-0.1-2.6c1.1,1.6,2.3,3.2,5.4,2.8c2.8-0.4,3.2-2.3,3-3.5
	c-0.2-1.8-1.2-2.4-2.7-3.3l-2.1-1.2c-2.5-1.4-3.6-2.7-3.9-4.9c-0.4-3,1.3-5.6,5.6-6.2c3.4-0.5,5.3,0.4,5.3,0.4
	S439.1,944.7,439.1,946.1z M459.1,958.2c0.1,0.6,0.2,0.9,0.9,1.3l0.5,0.3c0,0-0.7,1.6-2.6,1.8c-1.7,0.2-2.1-0.9-2.2-1.6
	c-0.2-1.8,0.3-11.5-0.1-14.3c-0.1-0.8-0.4-2.3-2.6-2c-2.1,0.3-3.5,1.8-5.2,4.9l0,4.4c0,7.7,0.2,9.8,0.2,9.8s-0.7,0-1.7,0.2
	c-0.9,0.1-1.8,0.3-1.8,0.3s0.1-2.7,0.2-12c0-6.7,0-11.5-0.2-13c-0.1-1-0.3-1.6-0.7-2.2l-0.3-0.4l4.6-1.5c0,0-0.1,3-0.1,8.7l0,0.8
	c0,2.6-0.2,4.7-0.2,4.7c1.8-6.5,4.8-7.3,6.5-7.5c4-0.6,4.6,2.3,4.8,3.6C459.3,946.8,458.9,956.3,459.1,958.2z M472.4,959.8
	c-5.7,0.8-7.7-2.8-8.4-7.9c-0.4-2.9-0.4-12.3,7.5-13.4c5.7-0.8,7.7,2.8,8.4,7.9C480.3,949.3,480.3,958.7,472.4,959.8z M471.7,940.6
	c-5.1,0.7-4.5,9-4.2,11.3c0.8,5.8,3,5.9,4.7,5.7c5.1-0.7,4.5-9,4.2-11.3C475.6,940.6,473.4,940.4,471.7,940.6z M499.3,945.1
	c0,2.6,0,6.8,0.1,7.5c0.1,0.6,0.2,1,0.9,1.3l0.5,0.3c0,0-0.6,1.6-2.5,1.8c-1.7,0.2-2-1-2.1-1.6c-0.2-1.5,0.1-4.6,0.1-4.6
	c-1.8,6.5-4.7,7.3-6.6,7.6c-4,0.6-4.5-2.5-4.7-3.7c-0.3-2.3,0-11.2-0.3-13.3c-0.1-0.9-0.3-1.6-0.7-2.2l-0.3-0.4l4.5-1.5
	c0,0-0.4,13.5,0,16.1c0.1,1,0.4,2.6,2.7,2.2c2.1-0.3,3.5-1.8,5.1-4.9l0-4.4c0-3.4-0.1-5.4-0.2-6.5c-0.1-0.9-0.3-1.6-0.7-2.2
	l-0.3-0.4l4.5-1.5C499.4,934.7,499.3,937,499.3,945.1z M509.1,941c0,7.3,0,9.6,0.1,10.3c0.1,0.6,0.2,0.9,0.9,1.3l0.5,0.3
	c0,0-0.7,1.6-2.6,1.9c-1.7,0.2-2.1-1-2.2-1.6c-0.4-2.5,0.3-19.8-0.2-23.3c-0.1-1-0.3-1.6-0.7-2.2l-0.3-0.4l4.6-1.5
	C509.2,925.6,509,927.7,509.1,941z M529.4,938.5c0,7.2,0,9.3,0.1,10c0.1,0.6,0.2,0.9,0.8,1.3l0.5,0.3c0,0-0.6,1.6-2.5,1.8
	c-1.7,0.2-2.1-1-2.2-1.6c-0.2-1.5,0.1-4.6,0.1-4.6c-1.8,6.5-4.3,7.2-6.1,7.5c-3.3,0.5-5.3-1.5-6-6.4c-0.4-2.6-1.3-14,7.7-15.2
	c2.8-0.4,4.2,0.7,4.2,0.7c0-1.9,0-4.2-0.2-5.2c-0.1-1-0.3-1.6-0.7-2.2l-0.3-0.4l4.5-1.5C529.4,922.8,529.3,925,529.4,938.5z
	 M522.5,933.7c-5.3,0.7-5.6,7.7-4.9,12.4c0.4,2.9,1.2,4.7,3.5,4.3c1-0.1,2.8-0.6,5-4.9l0-11.4C526.1,934.1,525,933.3,522.5,933.7z
	 M547.1,935.7c0,7.3,0,9.6,0.1,10.3c0.1,0.6,0.2,0.9,0.9,1.3l0.5,0.3c0,0-0.7,1.6-2.6,1.9c-1.7,0.2-2.1-1-2.2-1.6
	c-0.4-2.5,0.3-19.8-0.2-23.3c-0.1-1-0.3-1.6-0.7-2.2l-0.3-0.4l4.6-1.5C547.2,920.4,547.1,922.4,547.1,935.7z M560.4,947.6
	c-5.7,0.8-7.7-2.8-8.4-7.9c-0.4-2.9-0.4-12.3,7.5-13.4c5.7-0.8,7.7,2.8,8.4,7.9C568.3,937.1,568.3,946.5,560.4,947.6z M559.7,928.4
	c-5.1,0.7-4.5,9-4.2,11.3c0.8,5.8,3,5.9,4.7,5.7c5.1-0.7,4.5-9,4.2-11.3C563.6,928.4,561.4,928.2,559.7,928.4z M582.2,926.3
	c0,1.4,0.1,2.5,0.1,2.5c-1.1-1.8-2.3-3.2-5.2-2.8c-2.5,0.4-3.1,1.8-2.9,3.2c0.2,1.6,1.1,2.2,2.7,3.1l1.9,1.1
	c2.1,1.2,3.9,2.2,4.3,5.1c0.2,1.7,0,5.8-5.9,6.6c-3.6,0.5-5.5-0.3-5.5-0.3s0.1-0.7,0-2c0-1.4-0.1-2.6-0.1-2.6
	c1.1,1.6,2.3,3.2,5.4,2.8c2.8-0.4,3.2-2.3,3-3.5c-0.2-1.8-1.2-2.4-2.7-3.3l-2.1-1.2c-2.5-1.4-3.6-2.7-3.9-4.9
	c-0.4-3,1.3-5.6,5.6-6.2c3.4-0.5,5.3,0.4,5.3,0.4S582.2,924.9,582.2,926.3z M593.2,933.6c-2.4,0.3-3.5,0.3-3.5,0.3s0,0.7,0.1,1
	c0.4,2.9,1.5,5.9,5.5,5.3c4-0.5,5.2-2.8,5.4-3.4c0.2,1.5-0.6,5.2-6,5.9c-2.5,0.3-7.2,0.5-8.2-6.7c-1.1-8.1,1.7-13.7,7.6-14.6
	c4.5-0.6,6.5,1.5,6.9,4.2C601.6,931.4,597,933.1,593.2,933.6z M593.9,923.6c-2.6,0.4-4.5,2.3-4.4,8.3c0,0,0.8,0.1,3-0.2
	c3.8-0.5,5.3-2.2,4.9-5.4C597.2,924.9,596.4,923.3,593.9,923.6z M303.9,827.3c0,0-0.4-0.1-1.3,0.1c-2.2,0.3-11.1,5.9-24.9,9.6
	c0,0-0.5-0.7-1.4-1.6c-0.9-1-1.6-1.6-1.6-1.6l13.6-16.2c0.6-0.7,1.3-1.3,1.3-1.3c-0.1,0.1-0.8,0.5-1.7,0.9l-20.4,9
	c0,0-0.6-0.8-1.6-1.8c-0.9-1-1.7-1.7-1.7-1.7l10.8-13.5c3.7-4.7,4.5-5.7,4.7-7.4c0,0,0.7,0.8,2.1,2.4c1.4,1.5,2.4,2.4,2.4,2.4
	c-1.1-0.3-2.1,0-3.1,1c-0.7,0.6-1.5,1.5-3.6,4.1l-8.7,10.5c-0.6,0.8-1.3,1.3-1.3,1.4c0.1,0,0.8-0.4,1.8-0.9l21.2-9.4
	c0,0,0.7,0.8,1.5,1.6c0.8,0.8,1.6,1.6,1.6,1.6l-15.1,18c6.7-2.1,17.7-6.6,20.8-9.5c0.5-0.4,0.8-0.9,0.7-1.8c0,0,0.5,0.7,1.9,2.1
	C303.2,826.6,303.9,827.3,303.9,827.3z M297.5,853.6c-0.4,0.4-0.6,0.7-0.5,1.5l0.1,0.6c0,0-1.7,0.4-3-1c-1.2-1.3-0.4-2.3,0.1-2.7
	c1.3-1.2,9.5-6.5,11.6-8.4c0.6-0.5,1.7-1.7,0.1-3.3c-1.5-1.5-3.5-1.9-7-1.4l-3.6,2.6c-6.3,4.5-7.9,5.8-7.9,5.8s-0.4-0.6-1.1-1.3
	c-0.6-0.7-1.3-1.3-1.3-1.3s2.2-1.5,9.8-6.8c5.5-3.9,9.4-6.7,10.5-7.7c0.7-0.7,1.2-1.2,1.3-1.8l0.2-0.5l3.9,2.8c0,0-2.5,1.7-7.2,5
	l-0.6,0.5c-2.1,1.5-4,2.6-4,2.6c6.3-2.3,8.7-0.3,9.9,0.9c2.8,3,0.8,5.1-0.2,6C306.9,847,298.9,852.3,297.5,853.6z M317.7,864
	c-2.1,1.5-5.5,3.9-6.1,4.5c-0.4,0.4-0.7,0.7-0.6,1.5l0.1,0.6c0,0-1.6,0.4-3-1c-1.2-1.3-0.4-2.2,0.1-2.7c1.1-1.1,3.8-2.6,3.8-2.6
	c-6.3,2.4-8.4,0.7-9.6-0.6c-2.3-2.4-1.8-5.1,1.8-8.6c1.9-1.8,10.6-9.2,16.8-2.6c2.3,2.4,2,4.5,2,4.5l3.3,1
	C326.3,858,324.2,859.3,317.7,864z M319.6,854.3c-3.7-3.9-9.5-0.1-12.9,3.2c-2.1,2-3.1,3.7-1.5,5.4c0.7,0.7,2.1,1.9,6.8,1.2l9.3-6.6
	C321.3,857.4,321.3,856.1,319.6,854.3z M335.6,870.2c-0.8,0.6-1.1,0.9-1.1,0.9s-0.1-0.6-2.1-2.8l-1.6-1.7l-8.5,6.2
	c-0.6,0.5-1.9,1.5-2.3,1.9c-0.8,0.8-2,2-0.3,3.9c1.4,1.4,2.9,1.5,2.9,1.5s-2.6,2-5.7-1.3c-2.8-2.9-1-5,0.1-6.1
	c0.9-0.8,2.2-1.8,3.4-2.7c5.4-3.9,8.2-5.7,8.2-5.7l-1.7-1.8c0.1,0,1.8,0.2,4.2,0c2.5-0.3,4.2-0.8,4.2-0.8l0.9,0.9l-3.7,2.7l1.6,1.6
	c2,2.1,2.7,2.3,2.7,2.3S336.4,869.7,335.6,870.2z M339.7,886.6c-2.8,2-5.9,4.3-6.5,4.8c-0.4,0.4-0.6,0.7-0.5,1.5l0.1,0.6
	c0,0-1.7,0.4-3-1.1c-1.2-1.3-0.4-2.2,0.1-2.7c1.4-1.3,10.1-6.9,12.6-9.2c0.7-0.7,1.2-1.2,1.4-1.8l0.1-0.5l3.9,2.7
	C347.7,880.9,345.4,882.5,339.7,886.6z M349.2,877.9c-1.2-1.3-0.6-2.4,0-2.9c0.9-0.8,2.1-0.9,3.2,0.1c1.2,1.3,0.6,2.4,0.1,2.9
	C351.5,878.9,350.2,879,349.2,877.9z M363.4,889.2c-1,0.7-1.5,1.3-1.5,1.3c0.6-1.8,0-2.9-0.6-3.6c-0.8-0.9-1.5-1.1-2.4-1.1
	c-1.1,0.1-2,0.9-3.3,1.8l-1.5,1.1l0.7,0.7c1.9,2,2.7,2.3,2.7,2.3s-0.5,0.3-1.3,0.9c-0.8,0.6-1.1,0.9-1.1,0.9s-0.3-0.9-2.1-2.8
	l-0.7-0.7l-11.9,8.7c-4.6,3.4-8.4,6.9-11.9,3.2c-1.5-1.6-1.7-2.4-1.7-2.4s0.4-0.2,1.2-0.8c0.9-0.7,1.5-1.2,1.5-1.2
	c-0.6,1.7-0.3,2.5,0.1,3c1.2,1.3,2.3,0.4,5-1.6l15.3-11.3l-1.4-1.5l0.6,0.1c1.8,0.2,2.6,0.1,3.3-0.4l0.5-0.3
	c2.3-1.7,5.6-4.1,9.8,0.4c1.6,1.7,2,2.6,2,2.6S364.3,888.6,363.4,889.2z M353.4,917.6c-4-4.2-2.2-7.9,1.5-11.4
	c2.1-2,9.8-7.5,15.3-1.7c4,4.2,2.2,7.9-1.5,11.4C366.5,917.9,358.8,923.4,353.4,917.6z M368.6,905.9c-3.5-3.7-10,1.6-11.7,3.2
	c-4.2,4-3.1,5.9-1.9,7.1c3.5,3.7,10-1.6,11.7-3.2C370.9,909,369.8,907.1,368.6,905.9z M375,935.5c-0.4,0.4-0.6,0.7-0.5,1.5l0.1,0.6
	c0,0-1.7,0.4-3-1c-1.2-1.3-0.4-2.3,0.1-2.7c1.3-1.2,9.5-6.5,11.6-8.4c0.6-0.5,1.7-1.7,0.1-3.3c-1.5-1.5-3.5-1.9-7-1.4l-3.6,2.6
	c-6.3,4.5-7.9,5.8-7.9,5.8s-0.5-0.6-1.2-1.4c-0.6-0.7-1.3-1.3-1.3-1.3s2-1.3,8.5-5.9c2.9-2,5-3.6,5.7-4.3c0.5-0.4,1-1.1,1.2-1.8
	l0.1-0.4l3.8,2.7l-5.4,3.7c6.3-2.3,8.7-0.3,9.9,0.9c2.8,3,0.8,5.1-0.2,6C384.4,928.9,376.4,934.2,375,935.5z M388.1,940.7
	c-1.7-1.8-2.3-2.7-2.3-2.7s-0.5,0.4-0.8,0.7c-2.1,2-3.9,4.7-1.1,7.6c2.7,2.9,5.4,2.6,5.9,2.4c-1.1,1-4.6,2.5-8.3-1.4
	c-1.7-1.8-4.6-5.6,0.7-10.6c6-5.6,12.2-6.6,16.3-2.3c3.1,3.3,2.5,6.2,0.5,8.1C394.9,946.3,390.8,943.6,388.1,940.7z M396.7,935.5
	c-1.8-1.9-4.5-2.3-9.3,1.2c0,0,0.4,0.7,1.9,2.3c2.6,2.8,4.9,3,7.2,0.8C397.5,938.9,398.4,937.3,396.7,935.5z M524.6,621.7
	c-4.7,3.4-8.1,1.1-11.1-3.1c-1.7-2.4-6.1-10.8,0.4-15.4c4.7-3.3,8.1-1.1,11.1,3.1C526.8,608.7,531.1,617.1,524.6,621.7z M515.1,605
	c-4.2,3,0.2,10.1,1.5,12c3.4,4.8,5.4,3.9,6.8,2.9c4.2-3-0.2-10.1-1.5-12C518.5,603.2,516.5,604,515.1,605z M534.3,592
	c0.8,1.6,1.1,2.1,1.1,2.1c-1.2-0.7-2.2-0.9-3.2-0.2c-2.1,1.5-1.2,5.7-1.2,5.7l2,3.8c3.6,6.8,4.7,8.5,4.7,8.5s-0.7,0.4-1.5,1
	c-0.7,0.5-1.4,1.1-1.4,1.1s-1-2.1-4.7-9.3c-1.6-3.1-2.9-5.4-3.5-6.2c-0.4-0.5-0.9-1.2-1.6-1.5l-0.4-0.2l3.2-3.4l3,6.1
	c-1.3-4.3-1.2-7.4,0.7-8.8c1.2-0.8,2-0.7,2-0.7S533.5,590.7,534.3,592z M549,587.6c3.4,6.5,4.5,8.5,4.9,9.1c0.3,0.5,0.6,0.7,1.4,0.7
	l0.6,0c0,0,0.2,1.7-1.5,2.9c-1.4,1-2.3,0.1-2.7-0.4c-1.5-2.1-8.9-17.7-11-20.6c-0.6-0.8-1-1.3-1.6-1.6l-0.5-0.2l3.3-3.5
	C542,574,542.8,575.9,549,587.6z M560.7,584.5c-2,1.4-3,1.9-3,1.9s0.3,0.6,0.5,0.9c1.7,2.3,4.1,4.5,7.3,2.2c3.3-2.3,3.3-4.9,3.2-5.5
	c0.9,1.2,1.9,4.9-2.6,8c-2,1.4-6.2,3.8-10.4-2.2c-4.8-6.7-4.9-13,0-16.4c3.7-2.7,6.5-1.6,8.1,0.6
	C567.2,578.6,563.9,582.3,560.7,584.5z M556.7,575.3c-2.1,1.5-2.9,4.1-0.1,9.4c0,0,0.7-0.3,2.5-1.6c3.1-2.2,3.7-4.4,1.8-7
	C560.2,575,558.8,573.8,556.7,575.3z M570.6,556.1c0.6,1.1,1,1.7,1,1.7c-1.7-0.8-2.9-0.4-3.7,0.1c-1,0.7-1.3,1.3-1.4,2.2
	c-0.1,1.2,0.6,2.1,1.3,3.6l0.9,1.6l0.8-0.6c2.2-1.6,2.7-2.4,2.7-2.4s0.2,0.5,0.7,1.4c0.5,0.8,0.7,1.2,0.7,1.2s-0.9,0.2-3.1,1.7
	l-0.8,0.6l6.9,13c2.7,5,5.6,9.3,1.5,12.2c-1.8,1.3-2.6,1.3-2.6,1.3s-0.1-0.4-0.6-1.3c-0.6-1-1-1.7-1-1.7c1.6,0.8,2.4,0.7,3,0.3
	c1.5-1,0.7-2.2-0.9-5.2l-9-16.7l-1.7,1.2l0.2-0.6c0.5-1.7,0.5-2.5,0-3.4l-0.3-0.5c-1.4-2.5-3.3-6.1,1.8-9.7c1.9-1.3,2.8-1.6,2.8-1.6
	S570.1,555.1,570.6,556.1z M583,556c0.5,0.9,0.7,1.3,0.7,1.3s-0.6,0-3,1.7l-1.9,1.3l4.9,9.3c0.4,0.7,1.2,2.1,1.5,2.6
	c0.7,0.9,1.7,2.3,3.8,0.8c1.6-1.1,1.9-2.7,1.9-2.7s1.6,2.8-2.1,5.4c-3.3,2.3-5.1,0.3-6-1c-0.7-1-1.5-2.4-2.2-3.8
	c-3.1-5.9-4.5-8.9-4.5-8.9l-2,1.4c0-0.1,0.5-1.7,0.5-4.1c0.1-2.5-0.2-4.3-0.2-4.3l1-0.7l2.2,4l1.8-1.3c2.4-1.7,2.7-2.4,2.7-2.4
	S582.6,555.2,583,556z M596.6,576.3c0,0,0.9-2.4-0.9-4.8c-1.1-1.5-2.1-1.1-2.1-1.1l-0.3-0.5c-0.7-1.4-0.5-2.5,0.6-3.5
	c1.4-0.7,2.5,0.1,3.4,1.2C599.2,570.2,599.8,574.1,596.6,576.3z M608.4,539.8c0.7,1.2,1.3,2.2,1.3,2.2c-1.8-1.1-3.6-1.8-5.9-0.1
	c-2.1,1.5-2,3-1.1,4.2c0.9,1.3,2,1.4,3.9,1.5l2.2,0.1c2.4,0.1,4.5,0.2,6.2,2.6c1,1.4,2.6,5.1-2.2,8.6c-2.9,2.1-5,2.3-5,2.3
	s-0.3-0.6-0.9-1.8c-0.6-1.2-1.3-2.2-1.3-2.2c1.7,0.9,3.5,1.8,6.1-0.1c2.3-1.6,1.8-3.5,1.1-4.5c-1-1.5-2.2-1.6-3.9-1.7l-2.4-0.1
	c-2.9-0.1-4.4-0.7-5.8-2.6c-1.8-2.5-1.4-5.6,2.1-8.1c2.8-2,4.8-2.1,4.8-2.1S607.7,538.5,608.4,539.8z M627.1,548.7
	c-4.7,3.4-8.1,1.1-11.1-3.1c-1.7-2.4-6.1-10.8,0.4-15.4c4.7-3.3,8.1-1.1,11.1,3.1C629.3,535.7,633.6,544.1,627.1,548.7z M617.6,532
	c-4.2,3,0.2,10.1,1.5,12c3.4,4.8,5.4,3.9,6.8,2.9c4.2-3-0.2-10.1-1.5-12C621,530.2,619,531,617.6,532z M657,523.3
	c0.3,0.5,0.6,0.7,1.4,0.7l0.6,0c0,0,0.2,1.7-1.4,2.8c-1.4,1-2.3,0.1-2.7-0.4c-1-1.5-5.1-10.3-6.8-12.6c-0.5-0.6-1.4-1.9-3.3-0.6
	c-1.7,1.2-2.3,3.2-2.3,6.7l2,3.9c3.6,6.8,4.7,8.6,4.7,8.6s-0.6,0.4-1.5,1c-0.8,0.6-1.5,1.1-1.5,1.1s-0.7-1.6-3.6-7.3
	c-1-1.9-3-5.7-3.7-6.7c-0.6-0.9-1.5-2.1-3.4-0.7c-1.7,1.2-2.3,3.2-2.3,6.7l2.1,3.9c3.6,6.8,4.7,8.6,4.7,8.6s-0.7,0.4-1.5,1
	c-0.7,0.5-1.4,1.1-1.4,1.1s-1-2.1-4.7-9.3c-1.6-3.1-2.9-5.4-3.5-6.2c-0.4-0.5-0.9-1.2-1.6-1.5l-0.4-0.2l3.2-3.4l2.9,5.8
	c-1.2-5.8,0.2-8.2,2.2-9.6c3.4-2.4,5.2,0.1,5.9,1c0.4,0.6,0.9,1.7,1,1.8c-1.3-6.4,1-8.4,2.4-9.4c3.3-2.4,5.1,0,5.9,1
	C651.8,513.1,655.9,521.7,657,523.3z M664,511c-2,1.4-3,1.9-3,1.9s0.3,0.6,0.5,0.9c1.7,2.3,4.1,4.5,7.3,2.2c3.3-2.3,3.3-4.9,3.2-5.5
	c0.9,1.2,1.9,4.9-2.6,8c-2,1.4-6.2,3.8-10.4-2.2c-4.8-6.7-4.9-13,0-16.4c3.7-2.7,6.5-1.6,8.1,0.6C670.4,505.1,667.2,508.7,664,511z
	 M660,501.8c-2.1,1.5-2.9,4.1-0.1,9.4c0,0,0.7-0.3,2.5-1.6c3.1-2.2,3.7-4.4,1.8-7C663.5,501.4,662.1,500.3,660,501.8z M676.9,489.2
	c0.5,0.9,0.7,1.3,0.7,1.3s-0.6,0-3,1.7l-1.9,1.3l4.9,9.3c0.4,0.7,1.2,2.1,1.5,2.6c0.7,0.9,1.7,2.3,3.8,0.8c1.6-1.1,1.9-2.7,1.9-2.7
	s1.6,2.8-2.1,5.4c-3.3,2.3-5.1,0.3-6-1c-0.7-1-1.5-2.4-2.2-3.8c-3.1-5.9-4.5-8.9-4.5-8.9l-2,1.4c0-0.1,0.5-1.7,0.5-4.1
	c0.1-2.5-0.2-4.3-0.2-4.3l1-0.7l2.2,4l1.8-1.3c2.4-1.7,2.7-2.4,2.7-2.4S676.5,488.3,676.9,489.2z M687,492.2
	c1.6,3.1,3.4,6.5,3.8,7.1c0.3,0.5,0.6,0.7,1.4,0.7l0.6,0c0,0,0.2,1.7-1.5,2.9c-1.4,1-2.3,0.1-2.7-0.4c-1.1-1.6-5.4-11-7.3-13.7
	c-0.6-0.8-1-1.3-1.6-1.6l-0.5-0.2l3.2-3.5C682.5,483.4,683.7,485.9,687,492.2z M679.7,481.5c-1.4,1-2.4,0.3-2.9-0.4
	c-0.7-1-0.6-2.2,0.6-3.1c1.4-1,2.4-0.3,2.9,0.3C680.9,479.4,680.9,480.7,679.7,481.5z M717.2,480.5c0.3,0.5,0.6,0.7,1.4,0.7l0.6,0
	c0,0,0.2,1.7-1.4,2.8c-1.4,1-2.3,0.1-2.7-0.4c-1-1.5-5.1-10.3-6.8-12.6c-0.5-0.6-1.4-1.9-3.3-0.6c-1.7,1.2-2.3,3.2-2.3,6.7l2,3.9
	c3.6,6.8,4.7,8.6,4.7,8.6s-0.6,0.4-1.5,1c-0.8,0.6-1.5,1.1-1.5,1.1s-0.7-1.6-3.6-7.3c-1-1.9-3-5.7-3.7-6.7c-0.6-0.9-1.5-2.1-3.4-0.7
	c-1.7,1.2-2.3,3.2-2.3,6.7l2.1,3.9c3.6,6.8,4.7,8.6,4.7,8.6s-0.7,0.4-1.5,1c-0.7,0.5-1.4,1.1-1.4,1.1s-1-2.1-4.7-9.3
	c-1.6-3.1-2.9-5.4-3.5-6.2c-0.4-0.5-0.9-1.2-1.6-1.5l-0.4-0.2l3.2-3.4l2.9,5.8c-1.2-5.8,0.2-8.2,2.2-9.6c3.4-2.4,5.2,0.1,5.9,1
	c0.4,0.6,0.9,1.7,1,1.8c-1.3-6.4,1-8.4,2.4-9.4c3.3-2.4,5.1,0,5.9,1C712,470.3,716.1,478.9,717.2,480.5z M724.2,468.2
	c-2,1.4-3,1.9-3,1.9s0.3,0.6,0.5,0.9c1.7,2.3,4.1,4.5,7.3,2.2c3.3-2.3,3.3-4.9,3.2-5.5c0.9,1.2,1.9,4.9-2.6,8
	c-2,1.4-6.2,3.8-10.4-2.2c-4.8-6.7-4.9-13,0-16.4c3.7-2.7,6.5-1.6,8.1,0.6C730.6,462.2,727.4,465.9,724.2,468.2z M720.2,459
	c-2.1,1.5-2.9,4.1-0.1,9.4c0,0,0.7-0.3,2.5-1.6c3.1-2.2,3.7-4.4,1.8-7C723.7,458.6,722.2,457.5,720.2,459z M738,447.5
	c0.7,1.2,1.3,2.2,1.3,2.2c-1.8-1.1-3.6-1.8-5.9-0.1c-2.1,1.5-2,3-1.1,4.2c0.9,1.3,2,1.4,3.9,1.5l2.2,0.1c2.4,0.1,4.5,0.2,6.2,2.6
	c1,1.4,2.6,5.1-2.2,8.6c-2.9,2.1-5,2.3-5,2.3s-0.3-0.6-0.9-1.8c-0.6-1.2-1.3-2.2-1.3-2.2c1.7,0.9,3.5,1.8,6.1-0.1
	c2.3-1.6,1.8-3.5,1.1-4.5c-1-1.5-2.2-1.6-3.9-1.7l-2.4-0.1c-2.9-0.1-4.4-0.7-5.8-2.6c-1.8-2.5-1.4-5.6,2.1-8.1
	c2.8-2,4.8-2.1,4.8-2.1S737.3,446.3,738,447.5z M516.6,680.8c-0.9,0.5-1.3,0.7-1.3,0.7s0-0.6-1.6-3.1l-1.3-1.9l-9.4,4.7
	c-0.7,0.4-2.1,1.1-2.6,1.5c-1,0.6-2.3,1.7-0.9,3.8c1.1,1.6,2.6,2,2.6,2s-2.9,1.5-5.4-2.2c-2.3-3.3-0.2-5.1,1.1-6
	c1-0.7,2.5-1.4,3.8-2.1c6-2.9,9-4.3,9-4.3l-1.4-2c0.1,0,1.7,0.5,4.1,0.6c2.5,0.2,4.3-0.1,4.3-0.1l0.7,1l-4.1,2.1l1.3,1.9
	c1.7,2.4,2.3,2.7,2.3,2.7S517.5,680.4,516.6,680.8z M505.2,698.9c-3.2-4.8-0.9-8.1,3.4-11c2.4-1.7,10.9-5.8,15.4,0.8
	c3.2,4.8,0.9,8.1-3.4,11C518.1,701.4,509.7,705.5,505.2,698.9z M522.1,689.8c-2.9-4.2-10.1-0.1-12,1.2c-4.8,3.3-4,5.3-3,6.7
	c2.9,4.2,10.1,0.1,12-1.2C523.9,693.3,523.1,691.3,522.1,689.8z M540,718c-1.2,0.6-2.4,1.3-2.4,1.3c1.1-1.8,2.1-3.3,0.4-5.9
	c-2.5-3.7-7.5-2.3-11.8,0.7c-2.1,1.5-5.3,3.7-2.9,7.2c2,3,4.5,3,5.1,3c-1.5,1-4.9,1.7-7.6-2.4c-3.6-5.2,0.4-8.6,2.8-10.3
	c1.5-1,10.9-7.2,16.2,0.6c2,3,2,4.9,2,4.9S541.2,717.4,540,718z M537.6,740.7c-0.5,0.3-0.7,0.6-0.8,1.4l0,0.6c0,0-1.7,0.1-2.8-1.5
	c-1-1.5-0.1-2.3,0.5-2.7c1.5-1,10.4-4.8,12.8-6.5c0.7-0.4,1.9-1.4,0.7-3.2c-1.2-1.8-3.1-2.4-6.6-2.5l-4,2c-6.9,3.4-8.7,4.5-8.7,4.5
	s-0.3-0.6-0.9-1.5c-0.5-0.8-1.1-1.5-1.1-1.5s2.4-1.1,10.8-5.1c6-3,10.3-5.1,11.6-5.9c0.8-0.5,1.3-1,1.6-1.6l0.2-0.5l3.4,3.4
	c0,0-2.8,1.2-7.9,3.8l-0.7,0.4c-2.3,1.1-4.3,1.9-4.3,1.9c6.6-1.2,8.7,1.1,9.6,2.5c2.3,3.4-0.1,5.1-1.2,5.9
	C547.9,735.8,539.2,739.7,537.6,740.7z M542,753.3c-3.2-4.8-0.9-8.1,3.4-11c2.4-1.7,10.9-5.8,15.4,0.8c3.2,4.8,0.9,8.1-3.4,11
	C555,755.8,546.5,759.9,542,753.3z M558.9,744.2c-2.9-4.2-10.1-0.1-12,1.2c-4.8,3.3-4,5.3-3,6.7c2.9,4.2,10.1,0.1,12-1.2
	C560.7,747.7,559.9,745.6,558.9,744.2z M553.2,769.8c-3.2-4.8-0.9-8.1,3.4-11c2.4-1.7,10.9-5.8,15.4,0.8c3.2,4.8,0.9,8.1-3.4,11
	C566.1,772.3,557.7,776.4,553.2,769.8z M570.1,760.7c-2.9-4.2-10.1-0.1-12,1.2c-4.8,3.3-4,5.3-3,6.7c2.9,4.2,10.1,0.1,12-1.2
	C571.9,764.2,571.1,762.2,570.1,760.7z M582,779.9c-1.2,0.6-2.2,1.2-2.2,1.2c1.1-1.8,1.9-3.5,0.3-5.9c-1.4-2.1-3-2-4.1-1.2
	c-1.3,0.9-1.4,2-1.6,3.8l-0.1,2.2c-0.2,2.4-0.3,4.5-2.7,6.1c-1.4,0.9-5.2,2.5-8.5-2.4c-2-3-2.2-5-2.2-5s0.6-0.2,1.8-0.9
	c1.2-0.6,2.3-1.2,2.3-1.2c-0.9,1.7-1.9,3.4-0.1,6.1c1.6,2.3,3.5,1.9,4.5,1.2c1.5-1,1.6-2.2,1.8-3.9l0.2-2.4c0.2-2.9,0.8-4.4,2.7-5.7
	c2.5-1.7,5.6-1.3,8,2.3c1.9,2.8,2,4.9,2,4.9S583.2,779.3,582,779.9z M580.2,793.1c-1.4-2-1.8-3-1.8-3s-0.6,0.3-0.9,0.5
	c-2.4,1.6-4.6,4-2.3,7.3c2.2,3.3,4.9,3.4,5.4,3.3c-1.2,0.8-4.9,1.8-7.9-2.7c-1.4-2.1-3.6-6.3,2.4-10.4c6.8-4.6,13.1-4.6,16.4,0.4
	c2.6,3.8,1.5,6.5-0.8,8C586,799.7,582.4,796.3,580.2,793.1z M589.5,789.3c-1.5-2.2-4.1-3-9.4-0.3c0,0,0.3,0.8,1.5,2.6
	c2.2,3.2,4.3,3.8,7,2C589.8,792.8,590.9,791.4,589.5,789.3z M587.5,820.5c-3.2-4.8-0.9-8.1,3.4-11c2.4-1.7,10.9-5.8,15.4,0.8
	c3.2,4.8,0.9,8.1-3.4,11C600.4,822.9,592,827,587.5,820.5z M604.4,811.4c-2.9-4.2-10.1-0.1-12,1.2c-4.8,3.3-4,5.3-3,6.7
	c2.9,4.2,10.1,0.1,12-1.2C606.2,814.8,605.4,812.8,604.4,811.4z M605.9,841.6c-0.5,0.3-0.7,0.6-0.8,1.4l0,0.6c0,0-1.7,0.1-2.8-1.5
	c-1-1.5-0.1-2.3,0.5-2.7c1.5-1,10.4-4.8,12.8-6.5c0.7-0.4,1.9-1.4,0.7-3.2c-1.2-1.8-3.1-2.4-6.6-2.5l-4,2c-6.9,3.4-8.7,4.5-8.7,4.5
	s-0.4-0.7-0.9-1.5c-0.5-0.7-1.1-1.4-1.1-1.4s2.1-0.9,9.4-4.4c3.1-1.5,5.5-2.8,6.3-3.3c0.5-0.4,1.2-0.9,1.5-1.6l0.2-0.4l3.3,3.3
	l-5.9,2.8c6.6-1.2,8.7,1.1,9.6,2.5c2.3,3.4-0.1,5.1-1.2,5.9C616.2,836.7,607.5,840.6,605.9,841.6z M618.1,848.9c-1.4-2-1.8-3-1.8-3
	s-0.6,0.3-0.9,0.5c-2.4,1.6-4.6,4-2.3,7.3c2.2,3.3,4.9,3.4,5.4,3.3c-1.2,0.8-4.9,1.8-7.9-2.7c-1.4-2.1-3.6-6.3,2.4-10.4
	c6.8-4.6,13.1-4.6,16.4,0.4c2.6,3.8,1.5,6.5-0.8,8C623.8,855.5,620.2,852.2,618.1,848.9z M627.3,845.1c-1.5-2.2-4.1-3-9.4-0.3
	c0,0,0.3,0.8,1.5,2.6c2.2,3.2,4.3,3.8,7,2C627.6,848.7,628.8,847.2,627.3,845.1z M625.3,876.3c-3.2-4.8-0.9-8.1,3.4-11
	c2.4-1.7,10.9-5.8,15.4,0.8c3.2,4.8,0.9,8.1-3.4,11C638.3,878.8,629.8,882.9,625.3,876.3z M642.2,867.2c-2.9-4.2-10.1-0.1-12,1.2
	c-4.8,3.3-4,5.3-3,6.7c2.9,4.2,10.1,0.1,12-1.2C644,870.7,643.2,868.7,642.2,867.2z M662,882.7c-1.1,0.5-1.7,1-1.7,1
	c0.8-1.7,0.5-2.9,0-3.7c-0.7-1-1.3-1.4-2.2-1.5c-1.1-0.1-2.1,0.5-3.6,1.3l-1.6,0.8l0.6,0.8c1.5,2.3,2.3,2.7,2.3,2.7
	s-0.5,0.2-1.4,0.6c-0.8,0.4-1.2,0.7-1.2,0.7s-0.1-0.9-1.6-3.1l-0.5-0.8l-13.1,6.6c-5.1,2.6-9.4,5.4-12.3,1.2
	c-1.2-1.8-1.3-2.7-1.3-2.7s0.4-0.1,1.3-0.6c1-0.5,1.7-0.9,1.7-0.9c-0.8,1.6-0.7,2.4-0.3,3c1,1.5,2.2,0.8,5.2-0.7l16.9-8.6l-1.2-1.7
	l0.6,0.2c1.7,0.5,2.5,0.6,3.4,0.1l0.5-0.3c2.6-1.3,6.2-3.2,9.6,2c1.3,1.9,1.5,2.8,1.5,2.8S663,882.2,662,882.7z M569.9,876.4
	c0.4-0.9,0.6-1.3,0.6-1.3s0.3,0.5,3.1,1.5l2.2,0.8l4.8-9.4c0.4-0.7,1-2.2,1.2-2.7c0.4-1.1,0.8-2.7-1.5-3.6c-1.9-0.7-3.3,0-3.3,0
	s1.4-3,5.6-1.5c3.8,1.3,3.2,4,2.7,5.4c-0.4,1.1-1.1,2.6-1.8,4c-3,5.9-4.7,8.8-4.7,8.8l2.3,0.8c-0.1,0-1.7,0.6-3.7,1.9
	c-2.1,1.4-3.4,2.7-3.4,2.7l-1.2-0.4l2-4.1l-2.1-0.7c-2.8-1-3.5-0.8-3.5-0.8S569.4,877.2,569.9,876.4z M559.5,855.5
	c0.2-0.5,0.2-0.9-0.2-1.6l-0.3-0.5c0,0,1.3-1.1,3.1-0.5c1.7,0.6,1.4,1.8,1.2,2.4c-0.6,1.7-5.5,10.1-6.4,12.8c-0.3,0.7-0.8,2.3,1.4,3
	c2,0.7,3.9,0,6.8-2l2-4c3.5-6.9,4.3-8.8,4.3-8.8s0.7,0.3,1.6,0.6c0.9,0.3,1.8,0.6,1.8,0.6s-1.3,2.3-5.6,10.6
	c-3.1,6-5.3,10.2-5.8,11.7c-0.3,0.9-0.5,1.6-0.4,2.2l0.1,0.5l-4.8-0.7c0,0,1.5-2.6,4.1-7.7l0.4-0.7c1.2-2.3,2.3-4.1,2.3-4.1
	c-4.5,4.9-7.6,4.3-9.2,3.7c-3.8-1.3-3-4.2-2.6-5.4C554.1,865.7,558.8,857.4,559.5,855.5z M537.3,863.9c0.8-1.6,1-2.1,1-2.1
	c0.2,1.4,0.5,2.3,1.7,2.7c2.4,0.8,5.3-2.3,5.3-2.3l1.9-3.8c3.5-6.9,4.2-8.7,4.2-8.7s0.7,0.3,1.7,0.7c0.8,0.3,1.7,0.5,1.7,0.5
	s-1.1,2.1-4.9,9.2c-1.6,3.1-2.7,5.5-3,6.5c-0.2,0.6-0.4,1.4-0.3,2.2l0.1,0.4l-4.6-0.7l3.3-5.9c-2.7,3.5-5.4,5.3-7.6,4.5
	c-1.4-0.5-1.7-1.2-1.7-1.2S536.6,865.2,537.3,863.9z M532.8,852.5c2.3,0.8,3.3,1.4,3.3,1.4s0.3-0.6,0.4-1c1-2.7,1.3-5.9-2.5-7.2
	c-3.8-1.3-6,0.1-6.3,0.5c0.5-1.4,2.9-4.3,8-2.5c2.3,0.8,6.7,2.9,4.2,9.8c-2.7,7.7-7.8,11.5-13.4,9.5c-4.3-1.5-5.1-4.3-4.2-6.9
	C524.2,850.7,529.1,851.2,532.8,852.5z M527.6,861.1c2.5,0.9,5,0,7.7-5.4c0,0-0.7-0.4-2.8-1.2c-3.6-1.3-5.8-0.5-6.8,2.6
	C525.3,858.4,525.2,860.3,527.6,861.1z M515.5,846.5c2.3,0.8,3.3,1.4,3.3,1.4s0.3-0.6,0.4-1c1-2.7,1.3-5.9-2.5-7.2
	c-3.8-1.3-6,0.1-6.3,0.5c0.5-1.4,2.9-4.3,8-2.5c2.3,0.8,6.7,2.9,4.2,9.8c-2.7,7.7-7.8,11.5-13.4,9.5c-4.3-1.5-5.1-4.3-4.2-6.9
	C507,844.6,511.9,845.2,515.5,846.5z M510.3,855.1c2.5,0.9,5,0,7.7-5.4c0,0-0.7-0.4-2.8-1.2c-3.6-1.3-5.8-0.5-6.8,2.6
	C508,852.4,507.9,854.2,510.3,855.1z M493.4,828.8c5.5,1.9,5.6,6,3.9,10.9c-1,2.8-5.3,11.2-12.8,8.5c-5.4-1.9-5.6-6-3.9-10.9
	C481.5,834.6,485.9,826.2,493.4,828.8z M485.2,846.2c4.8,1.7,8.2-6,8.9-8.2c1.9-5.5,0-6.6-1.6-7.2c-4.8-1.7-8.2,6-8.9,8.2
	C481.7,844.5,483.6,845.6,485.2,846.2z M463.6,838.1c0.8-1.6,1-2.1,1-2.1c0.2,1.4,0.5,2.3,1.7,2.7c2.4,0.8,5.3-2.3,5.3-2.3l1.9-3.8
	c3.5-6.9,4.2-8.7,4.2-8.7s0.7,0.3,1.7,0.7c0.8,0.3,1.7,0.5,1.7,0.5s-1.1,2.1-4.9,9.2c-1.6,3.1-2.7,5.5-3,6.5
	c-0.2,0.6-0.4,1.4-0.3,2.2l0.1,0.4l-4.6-0.7l3.3-5.9c-2.7,3.5-5.4,5.3-7.6,4.5c-1.4-0.5-1.7-1.2-1.7-1.2S462.9,839.4,463.6,838.1z
	 M439.6,838.4c0.5-1.1,0.8-1.8,0.8-1.8c0.3,1.9,1.3,2.6,2.2,2.9c1.1,0.4,1.9,0.3,2.6-0.1c1-0.6,1.4-1.7,2.1-3.1l0.8-1.6l-1-0.3
	c-2.6-0.9-3.5-0.8-3.5-0.8s0.3-0.5,0.7-1.3c0.4-0.8,0.6-1.3,0.6-1.3s0.7,0.6,3.2,1.5l0.9,0.3l6.6-13.1c2.5-5.1,4.3-10,9.1-8.3
	c2.1,0.7,2.6,1.4,2.6,1.4s-0.3,0.4-0.7,1.3c-0.5,1-0.8,1.8-0.8,1.8c-0.3-1.8-0.8-2.3-1.5-2.6c-1.7-0.6-2.2,0.7-3.7,3.7l-8.4,17
	l1.9,0.7l-0.6,0.2c-1.7,0.6-2.3,1-2.8,1.9l-0.3,0.5c-1.3,2.6-3.1,6.2-8.9,4.2c-2.2-0.8-2.9-1.4-2.9-1.4S439.1,839.4,439.6,838.4z
	 M443.3,811.3c5.5,1.9,5.6,6,3.9,10.9c-1,2.8-5.3,11.2-12.8,8.5c-5.4-1.9-5.6-6-3.9-10.9C431.5,817.1,435.8,808.7,443.3,811.3z
	 M435.2,828.7c4.8,1.7,8.2-6,8.9-8.2c1.9-5.5,0-6.6-1.6-7.2c-4.8-1.7-8.2,6-8.9,8.2C431.7,827,433.6,828.1,435.2,828.7z
	 M412.7,812.1c1.2-2.3,3.1-6,3.4-6.8c0.2-0.5,0.3-0.9-0.2-1.6l-0.3-0.5c0,0,1.3-1.1,3.1-0.5c1.6,0.6,1.4,1.8,1.1,2.4
	c-0.5,1.5-2.2,4.1-2.2,4.1c4.5-4.9,7.5-4.3,9.3-3.7c3.8,1.3,2.9,4.2,2.5,5.4c-0.8,2.2-5.1,9.9-5.8,12c-0.3,0.9-0.5,1.6-0.4,2.2
	l0.1,0.5l-4.7-0.7c0,0,6.5-11.8,7.3-14.3c0.3-1,0.8-2.5-1.4-3.2c-2-0.7-3.9,0-6.8,2l-2,3.9c-1.6,3-2.4,4.8-2.8,5.9
	c-0.3,0.9-0.5,1.6-0.4,2.2l0.1,0.5l-4.7-0.7C407.9,821.3,409,819.3,412.7,812.1z M393.8,813.6c0.8-1.6,1-2.1,1-2.1
	c0.2,1.4,0.5,2.3,1.7,2.7c2.4,0.8,5.3-2.3,5.3-2.3l1.9-3.8c3.5-6.9,4.2-8.7,4.2-8.7s0.7,0.3,1.7,0.7c0.8,0.3,1.7,0.5,1.7,0.5
	s-1.1,2.1-4.9,9.2c-1.6,3.1-2.7,5.5-3,6.5c-0.2,0.6-0.4,1.4-0.3,2.2l0.1,0.4l-4.6-0.7l3.3-5.9c-2.7,3.5-5.4,5.3-7.6,4.5
	c-1.4-0.5-1.7-1.2-1.7-1.2S393.1,815,393.8,813.6z M373.3,806.4c0.8-1.6,1-2.1,1-2.1c0.2,1.4,0.5,2.3,1.7,2.7
	c2.4,0.8,5.3-2.3,5.3-2.3l1.9-3.8c3.5-6.9,4.2-8.7,4.2-8.7s0.7,0.3,1.7,0.7c0.8,0.3,1.7,0.5,1.7,0.5s-1.1,2.1-4.9,9.2
	c-1.6,3.1-2.7,5.5-3,6.5c-0.2,0.6-0.4,1.4-0.3,2.2l0.1,0.4l-4.6-0.7l3.3-5.9c-2.7,3.5-5.4,5.3-7.6,4.5c-1.4-0.5-1.7-1.2-1.7-1.2
	S372.6,807.8,373.3,806.4z M371.7,786.2c5.5,1.9,5.6,6,3.9,10.9c-1,2.8-5.3,11.2-12.8,8.5c-5.4-1.9-5.6-6-3.9-10.9
	C359.8,792,364.2,783.6,371.7,786.2z M363.6,803.6c4.8,1.7,8.2-6,8.9-8.2c1.9-5.5,0-6.6-1.6-7.2c-4.8-1.7-8.2,6-8.9,8.2
	C360.1,801.9,361.9,803,363.6,803.6z M341.2,787.1c1.2-2.3,3.1-6,3.4-6.8c0.2-0.5,0.3-0.9-0.2-1.6l-0.3-0.5c0,0,1.3-1.1,3.1-0.5
	c1.6,0.6,1.4,1.8,1.1,2.4c-0.5,1.5-2.2,4.1-2.2,4.1c4.5-5,7.1-4.4,8.8-3.9c3.1,1.1,4,3.7,2.4,8.4c-0.9,2.5-5.2,13.1-13.7,10.1
	c-3.2-1.1-3.8-3.1-3.8-3.1l-3.4,0.6C336.3,796.4,337.5,794.2,341.2,787.1z M344,796.6c5.1,1.8,8.4-4.3,10-8.8c1-2.7,1.1-4.7-1.1-5.5
	c-1-0.3-2.7-0.7-6.6,2.1l-5.2,10.2C341,794.6,341.6,795.8,344,796.6z M320.6,782.4c3.3-6.4,4.2-8.3,4.4-8.9c0.2-0.5,0.2-0.9-0.1-1.5
	l-0.3-0.5c0,0,1.3-1.1,3.1-0.5c1.7,0.6,1.4,1.8,1.2,2.4c-0.5,1.5-2.2,4.1-2.2,4.1c4.5-5,7.1-4.5,8.8-3.9c3.2,1.1,4.1,3.8,2.4,8.4
	c-0.9,2.5-5.2,13-13.8,10c-2.6-0.9-3.4-2.6-3.4-2.6c-0.8,1.7-1.9,3.8-2.2,4.7c-0.3,0.9-0.5,1.6-0.4,2.2l0.1,0.5l-4.7-0.7
	C313.3,796.3,314.4,794.4,320.6,782.4z M324.4,789.8c5.1,1.8,8.5-4.3,10-8.8c1-2.7,1-4.7-1.2-5.5c-0.9-0.3-2.7-0.7-6.6,2.1
	l-5.2,10.2C321.4,787.8,322,788.9,324.4,789.8z M303.6,781.6c0.6-1.2,1.1-2.3,1.1-2.3c0.2,2.1,0.6,3.9,3.3,4.9
	c2.4,0.8,3.6-0.2,4.1-1.5c0.5-1.5,0-2.4-1-4l-1.2-1.9c-1.3-2.1-2.4-3.7-1.4-6.5c0.6-1.6,2.7-5.1,8.3-3.2c3.4,1.2,4.8,2.7,4.8,2.7
	s-0.3,0.6-0.9,1.8c-0.6,1.2-1.1,2.3-1.1,2.3c-0.2-1.9-0.5-3.9-3.6-4.9c-2.6-0.9-3.9,0.6-4.3,1.7c-0.6,1.7,0,2.7,0.9,4.2l1.3,2
	c1.6,2.4,2,4,1.2,6.2c-1,2.9-3.7,4.4-7.8,2.9c-3.2-1.1-4.5-2.7-4.5-2.7S303,782.8,303.6,781.6z M305.7,763c1.5,0.8,1.8,1.8,1.4,3
	c-0.5,1.3-1.7,2-3.3,1.6c-1.5-0.8-1.8-1.8-1.4-3C302.8,763.4,304,762.6,305.7,763z M378.2,406.6c-2-0.3-3.2-0.5-3.2-0.5
	c1.1-0.5,1.6-1.3,1.9-2.7c0.2-0.9,0.2-2,0.3-5.3l0.1-2.4l-7.7-1.3l-1.2,2c-2.3,3.7-2.9,4.7-3.1,5.9c-0.2,1.1,0.2,1.8,0.5,2.1
	c0,0-1.2-0.3-2.9-0.6c-1.9-0.3-2.9-0.4-2.9-0.4c1.5-1.1,2.5-2.5,5.8-7.7l8.6-13.6c0.3-0.4,0.6-1,0.7-1.5c0.1-0.6-0.1-0.7-0.1-0.7
	l6.6,1.1c0,0-0.4,0.2-0.5,1c-0.1,0.4-0.1,1-0.1,1.3l-0.2,14.9c-0.1,6.1-0.1,7.3,0.7,8.8C381.3,407.2,380.2,406.9,378.2,406.6z
	 M377.3,384.3c0-1.8,0.1-2.6,0.1-2.7c0,0.1-0.4,0.8-1.4,2.5l-5.2,8.3l6.4,1L377.3,384.3z M398.7,390.6c-0.3,0.9-0.4,1.4-0.4,1.4
	s-0.4-0.4-3.4-0.9l-2.3-0.4l-3.1,10.1c-0.2,0.8-0.6,2.3-0.7,2.9c-0.2,1.1-0.4,2.8,2.1,3.2c2,0.3,3.2-0.6,3.2-0.6s-0.8,3.1-5.3,2.4
	c-4-0.7-3.8-3.4-3.6-4.9c0.2-1.2,0.6-2.8,1.1-4.2c2-6.4,3.1-9.4,3.1-9.4l-2.4-0.4c0.1,0,1.5-0.9,3.3-2.6c1.9-1.7,2.9-3.2,2.9-3.2
	l1.2,0.2l-1.3,4.4l2.2,0.4c2.9,0.5,3.6,0.2,3.6,0.2S399,389.7,398.7,390.6z M413.5,403.4c-2.4-0.4-3.4-0.8-3.4-0.8s-0.2,0.7-0.2,1
	c-0.5,2.8-0.3,6,3.7,6.7c3.9,0.7,5.8-1.2,6.1-1.6c-0.2,1.5-2.1,4.8-7.5,3.9c-2.5-0.4-7.1-1.7-5.9-8.9c1.3-8.1,5.7-12.6,11.6-11.7
	c4.5,0.7,5.8,3.4,5.3,6.1C422.3,403.8,417.4,404.1,413.5,403.4z M417.2,394.1c-2.6-0.4-5,0.9-6.6,6.6c0,0,0.8,0.3,2.9,0.7
	c3.8,0.6,5.7-0.5,6.3-3.7C419.9,396.3,419.7,394.5,417.2,394.1z M430.9,414.8l-0.5,0.5c0,0-0.5-0.2-1.8-0.4c-1.1-0.2-2-0.3-2-0.3
	l0.4-16.4c0.1-1.5-0.3-2.6-0.7-3.1l-0.4-0.6l4.4-0.2c0,0,0,0.9-0.2,7.8l-0.2,8.5c-0.1,1.5-0.2,2.6-0.2,2.6s8-9.4,8.9-14.7
	c0.3-1.7-0.6-2.3-0.6-2.3s0.9-0.6,2.3-0.4c2,0.3,1.8,1.8,1.7,2.5C441.3,403.1,433.7,412,430.9,414.8z M449.6,409.4
	c-2.4-0.4-3.4-0.8-3.4-0.8s-0.2,0.7-0.2,1c-0.5,2.8-0.3,6,3.7,6.7c3.9,0.7,5.8-1.2,6.1-1.6c-0.2,1.5-2.1,4.8-7.5,3.9
	c-2.5-0.4-7.1-1.7-5.9-8.9c1.3-8.1,5.7-12.6,11.6-11.7c4.5,0.7,5.8,3.4,5.3,6.1C458.3,409.7,453.4,410,449.6,409.4z M453.2,400
	c-2.6-0.4-5,0.9-6.6,6.6c0,0,0.8,0.3,2.9,0.7c3.8,0.6,5.7-0.5,6.3-3.7C456,402.3,455.7,400.4,453.2,400z M474.5,404.2
	c-0.5,1.7-0.7,2.3-0.7,2.3c-0.4-1.3-0.9-2.2-2.2-2.4c-2.5-0.4-4.9,3.2-4.9,3.2l-1.3,4.1c-2.2,7.4-2.7,9.3-2.7,9.3s-0.7-0.2-1.8-0.4
	c-0.9-0.1-1.8-0.2-1.8-0.2s0.8-2.2,3.2-9.9c1-3.3,1.7-5.9,1.9-6.9c0.1-0.6,0.2-1.5-0.1-2.2l-0.2-0.4l4.7-0.1l-2.2,6.4
	c2.1-4,4.4-6.1,6.7-5.7c1.4,0.2,1.9,0.9,1.9,0.9S475,402.7,474.5,404.2z M482.2,423c-4.6,5.3-6.8,7.4-10.4,6.8
	c-2-0.3-2.7-0.9-2.7-0.9s0.3-0.6,0.6-1.6c0.4-1.1,0.5-2,0.5-2c0.6,1.7,1.3,2.2,2,2.3c1.3,0.2,2.3-0.1,5.8-3.9l-0.6-17.3
	c0-1.5-0.3-2.6-0.7-3.1l-0.4-0.6l4.7-0.1c0,0-0.1,1.9-0.1,7.8l0.1,7.8c0,1.9-0.1,2.8-0.1,2.9c0.2-0.3,7.2-9.2,8.1-14.3
	c0.3-1.7-0.6-2.3-0.6-2.3s1-0.6,2.4-0.4c2,0.3,1.8,1.8,1.7,2.5C491.8,411,485.5,419.2,482.2,423z M514.7,409.7
	c-0.3,0.9-0.4,1.4-0.4,1.4s-0.4-0.4-3.4-0.9l-2.3-0.4l-3.1,10.1c-0.2,0.8-0.6,2.3-0.7,2.9c-0.2,1.1-0.4,2.8,2.1,3.2
	c2,0.3,3.2-0.6,3.2-0.6s-0.8,3.1-5.3,2.4c-4-0.7-3.8-3.4-3.6-4.9c0.2-1.2,0.6-2.8,1.1-4.2c2-6.4,3.1-9.4,3.1-9.4l-2.4-0.4
	c0.1,0,1.5-0.9,3.3-2.6c1.9-1.7,2.9-3.2,2.9-3.2l1.2,0.2l-1.3,4.4l2.2,0.4c2.9,0.5,3.6,0.2,3.6,0.2S515,408.8,514.7,409.7z
	 M521.4,421.2c-2.4-0.4-3.4-0.8-3.4-0.8s-0.2,0.7-0.2,1c-0.5,2.8-0.3,6,3.7,6.7c3.9,0.7,5.8-1.2,6.1-1.6c-0.2,1.5-2.1,4.8-7.5,3.9
	c-2.5-0.4-7.1-1.7-5.9-8.9c1.3-8.1,5.7-12.6,11.6-11.7c4.5,0.7,5.8,3.4,5.3,6.1C530.1,421.6,525.2,421.9,521.4,421.2z M525,411.9
	c-2.6-0.4-5,0.9-6.6,6.6c0,0,0.8,0.3,2.9,0.7c3.8,0.6,5.7-0.5,6.3-3.7C527.8,414.1,527.5,412.3,525,411.9z M546.6,431.5
	c-0.1,0.6-0.1,0.9,0.4,1.5l0.4,0.4c0,0-1.1,1.3-3,1c-1.7-0.3-1.7-1.5-1.6-2.2c0.3-1.8,3.7-10.9,4.1-13.7c0.1-0.8,0.4-2.3-1.9-2.7
	c-2.1-0.3-3.9,0.6-6.4,3.1l-1.3,4.2c-2.3,7.4-2.8,9.4-2.8,9.4s-0.7-0.2-1.8-0.4c-0.9-0.1-1.8-0.2-1.8-0.2s0.8-2.2,3.2-9.9
	c1.1-3.3,1.8-5.9,1.9-6.9c0.1-0.6,0.2-1.5-0.1-2.2l-0.2-0.4l4.6-0.1l-2,6.2c3.6-5.6,6.7-5.5,8.5-5.2c4,0.7,3.7,3.6,3.5,4.9
	C550.1,420.5,546.9,429.5,546.6,431.5z M574.7,421.1c-0.4,1.3-0.7,2.4-0.7,2.4c-0.5-2.1-1.3-3.8-4.1-4.3c-2.5-0.4-3.5,0.8-3.7,2.2
	c-0.3,1.6,0.4,2.4,1.7,3.8l1.5,1.6c1.6,1.8,3,3.3,2.6,6.2c-0.3,1.7-1.7,5.5-7.6,4.5c-3.6-0.6-5.2-1.9-5.2-1.9s0.2-0.6,0.6-1.9
	c0.4-1.3,0.7-2.5,0.7-2.5c0.6,1.8,1.2,3.7,4.4,4.3c2.8,0.5,3.7-1.2,3.9-2.5c0.3-1.8-0.5-2.7-1.6-4l-1.6-1.8c-2-2.1-2.6-3.6-2.3-5.9
	c0.5-3,2.9-5,7.2-4.2c3.3,0.6,4.9,1.9,4.9,1.9S575.1,419.8,574.7,421.1z M589.6,422.1c-0.3,0.9-0.4,1.4-0.4,1.4s-0.4-0.4-3.4-0.9
	l-2.3-0.4l-3.1,10.1c-0.2,0.8-0.6,2.3-0.7,2.9c-0.2,1.1-0.4,2.8,2.1,3.2c2,0.3,3.2-0.6,3.2-0.6s-0.8,3.1-5.3,2.4
	c-4-0.7-3.8-3.4-3.6-4.9c0.2-1.2,0.6-2.8,1.1-4.2c2-6.4,3.1-9.4,3.1-9.4l-2.4-0.4c0.1,0,1.5-0.9,3.3-2.6c1.9-1.7,2.9-3.2,2.9-3.2
	l1.2,0.2l-1.3,4.4l2.2,0.4c2.9,0.5,3.6,0.2,3.6,0.2S589.9,421.2,589.6,422.1z M596.2,433.6c-2.4-0.4-3.4-0.8-3.4-0.8s-0.2,0.7-0.2,1
	c-0.5,2.8-0.3,6,3.7,6.7c3.9,0.7,5.8-1.2,6.1-1.6c-0.2,1.5-2.1,4.8-7.5,3.9c-2.5-0.4-7.1-1.7-5.9-8.9c1.3-8.1,5.7-12.6,11.6-11.7
	c4.5,0.7,5.8,3.4,5.3,6.1C605,433.9,600.1,434.2,596.2,433.6z M599.8,424.2c-2.6-0.4-5,0.9-6.6,6.6c0,0,0.8,0.3,2.9,0.7
	c3.8,0.6,5.7-0.5,6.3-3.7C602.6,426.5,602.4,424.6,599.8,424.2z M613.5,445.8c-2.8-0.5-3.8-2-3.8-2l-0.4,1.2c-0.9,3-1.1,4-1.2,4.4
	c-0.2,0.9-0.2,1.5,0,2.3l0.1,0.6c0,0-0.5-0.2-2.6-0.5c-2.1-0.3-2.7-0.4-2.7-0.4l0.5-0.6c0.9-1,1.2-2,3.3-8.5l1.9-6.1
	c1.8-5.6,2.3-7.4,2.5-8.7c0.1-0.6,0.2-1.5-0.1-2.2l-0.2-0.4l4.7-0.1l-2,6.2c3.6-5.7,6.2-5.6,8-5.3c3.3,0.5,4.7,3,3.8,7.9
	C624.9,436.2,622.4,447.3,613.5,445.8z M619.8,428c-1-0.2-2.8-0.3-6.2,3.1l-3.4,10.9c0,0,0.8,1,3.3,1.5c5.3,0.9,7.6-5.7,8.4-10.3
	C622.3,430.3,622.1,428.4,619.8,428z M641,432c-0.4,1.3-0.7,2.4-0.7,2.4c-0.5-2.1-1.3-3.8-4.1-4.3c-2.5-0.4-3.5,0.8-3.7,2.2
	c-0.3,1.6,0.4,2.4,1.7,3.8l1.5,1.6c1.6,1.8,3,3.3,2.6,6.2c-0.3,1.7-1.7,5.5-7.6,4.5c-3.6-0.6-5.2-1.9-5.2-1.9s0.2-0.6,0.6-1.9
	c0.4-1.3,0.7-2.5,0.7-2.5c0.6,1.8,1.2,3.7,4.4,4.3c2.8,0.5,3.7-1.2,3.9-2.5c0.3-1.8-0.5-2.7-1.6-4l-1.6-1.8c-2-2.1-2.6-3.6-2.3-5.9
	c0.5-3,2.9-5,7.2-4.2c3.3,0.6,4.9,1.9,4.9,1.9S641.4,430.7,641,432z M302.1,401.7c-3.5-4.7-1.3-8.1,2.9-11.2
	c2.4-1.8,10.6-6.3,15.4,0.1c3.4,4.6,1.3,8.1-2.9,11.2C315.1,403.6,306.8,408.1,302.1,401.7z M318.6,391.9c-3-4.1-10.1,0.4-12,1.8
	c-4.7,3.5-3.7,5.5-2.7,6.8c3,4.1,10.1-0.4,12-1.8C320.5,395.3,319.6,393.3,318.6,391.9z M321.4,422.1c-0.5,0.3-0.7,0.6-0.7,1.4
	l0,0.6c0,0-1.7,0.2-2.9-1.4c-1.1-1.4-0.2-2.3,0.4-2.7c1.4-1.1,10.2-5.3,12.5-7c0.6-0.5,1.9-1.4,0.5-3.3c-1.3-1.7-3.2-2.3-6.8-2.2
	l-3.9,2.2c-6.7,3.7-8.5,4.8-8.5,4.8s-0.4-0.6-1-1.5c-0.5-0.7-1.1-1.4-1.1-1.4s2.1-1,9.2-4.8c3.1-1.7,5.4-3,6.2-3.6
	c0.5-0.4,1.1-0.9,1.4-1.6l0.2-0.4l3.4,3.1l-5.8,3c6.5-1.5,8.7,0.7,9.7,2.1c2.4,3.3,0.1,5.1-0.9,5.9
	C331.5,416.7,323,420.9,321.4,422.1z M333.9,428.8c-1.4-1.9-1.9-3-1.9-3s-0.6,0.4-0.9,0.6c-2.3,1.7-4.4,4.2-2,7.4
	c2.4,3.2,5,3.2,5.5,3.1c-1.2,0.9-4.8,2-8.1-2.4c-1.5-2-3.9-6.1,2-10.5c6.6-4.9,12.9-5.2,16.4-0.4c2.7,3.7,1.8,6.4-0.4,8.1
	C339.9,435.1,336.2,431.9,333.9,428.8z M343,424.6c-1.6-2.1-4.2-2.8-9.4,0.1c0,0,0.3,0.7,1.6,2.5c2.3,3.1,4.5,3.6,7.1,1.7
	C343.4,428.1,344.5,426.7,343,424.6z M350.7,465.5l-0.7,0c0,0-0.4-0.6-1-1.5c-0.7-0.9-1.2-1.4-1.2-1.4l11.1-10.4
	c0.8-0.8,1.7-1.5,1.8-1.6c-0.1,0.1-1,0.5-2.3,0.9l-15.5,4.6c0,0-0.4-0.6-1.2-1.7c-0.8-1.1-1.4-1.7-1.4-1.7l11.7-11.5
	c1-1,1.5-2.1,1.7-2.7l0.2-0.7l3.2,2.8c0,0-0.5,0.6-4.3,4.2l-7.6,7.2c-0.7,0.7-1.6,1.3-1.6,1.4c0.1-0.1,0.8-0.3,2.1-0.7l16.4-4.9
	c0,0,0.4,0.6,1.1,1.6c0.7,1,1.2,1.5,1.2,1.5L352.8,462c-1,0.9-1.6,1.4-1.6,1.4s11.3-1.5,15.9-4.9c1.4-1,1.1-2.1,1.1-2.1
	s1.1,0.2,2,1.3c1.2,1.6,0.1,2.6-0.5,3C365.4,463.9,354.6,465.5,350.7,465.5z M374.2,480.4c-2.3,1.3-6,3.3-6.6,3.7
	c-0.5,0.3-0.7,0.6-0.7,1.4l0,0.6c0,0-1.7,0.2-2.8-1.3c-1-1.4-0.1-2.2,0.4-2.6c1.2-0.9,4.1-2.1,4.1-2.1c-6.6,1.6-8.4-0.3-9.5-1.8
	c-2-2.7-1.2-5.3,2.8-8.3c2.1-1.6,11.6-7.9,17-0.6c2,2.7,1.4,4.7,1.4,4.7l3.2,1.4C383.4,475.5,381.2,476.6,374.2,480.4z M377.3,471
	c-3.2-4.3-9.4-1.2-13.2,1.7c-2.3,1.7-3.5,3.3-2.1,5.1c0.6,0.8,1.8,2.1,6.6,2l10-5.5C378.6,474.3,378.7,473,377.3,471z M390.1,489.7
	c-1.2,0.7-2.2,1.3-2.2,1.3c1-1.9,1.7-3.6,0-5.9c-1.5-2.1-3.1-1.9-4.2-1.1c-1.3,0.9-1.4,2-1.4,3.9l0,2.2c-0.1,2.4-0.1,4.5-2.5,6.2
	c-1.4,1-5.1,2.8-8.6-2c-2.1-2.9-2.4-4.9-2.4-4.9s0.6-0.3,1.8-1c1.2-0.7,2.2-1.3,2.2-1.3c-0.9,1.7-1.7,3.5,0.2,6.1
	c1.7,2.3,3.6,1.7,4.5,1c1.4-1.1,1.5-2.3,1.6-4l0-2.4c0-2.9,0.6-4.5,2.5-5.8c2.4-1.8,5.5-1.6,8.1,1.9c2,2.7,2.2,4.8,2.2,4.8
	S391.3,489,390.1,489.7z M400.3,515.6c-2.3,1.3-6,3.3-6.6,3.7c-0.5,0.3-0.7,0.6-0.7,1.4l0,0.6c0,0-1.7,0.2-2.8-1.3
	c-1-1.4-0.1-2.2,0.4-2.6c1.2-0.9,4.1-2.1,4.1-2.1c-6.6,1.6-8.4-0.3-9.5-1.8c-2-2.7-1.2-5.3,2.8-8.3c2.1-1.6,11.6-7.9,17-0.6
	c2,2.7,1.4,4.7,1.4,4.7l3.2,1.4C409.6,510.6,407.3,511.7,400.3,515.6z M403.4,506.2c-3.2-4.3-9.4-1.2-13.2,1.7
	c-2.3,1.7-3.5,3.3-2.1,5.1c0.6,0.8,1.8,2.1,6.6,2l10-5.5C404.7,509.4,404.9,508.1,403.4,506.2z M416.8,525c-1.6,0.9-2,1.2-2,1.2
	c0.6-1.2,0.9-2.2,0.1-3.2c-1.5-2-5.7-1.1-5.7-1.1l-3.8,2.1c-6.8,3.8-8.4,4.9-8.4,4.9s-0.4-0.6-1-1.5c-0.5-0.7-1.1-1.4-1.1-1.4
	s2.1-1.1,9.2-4.9c3.1-1.7,5.3-3.1,6.1-3.7c0.5-0.4,1.1-0.9,1.4-1.6l0.2-0.4l3.4,3.1l-6,3.1c4.2-1.4,7.4-1.4,8.8,0.6
	c0.9,1.2,0.7,2,0.7,2S418.2,524.2,416.8,525z M424.9,535.8c-1.6,0.9-2,1.2-2,1.2c0.6-1.2,0.9-2.2,0.1-3.2c-1.5-2-5.7-1.1-5.7-1.1
	l-3.8,2.1c-6.8,3.8-8.4,4.9-8.4,4.9s-0.4-0.6-1-1.5c-0.5-0.7-1.1-1.4-1.1-1.4s2.1-1.1,9.2-4.9c3.1-1.7,5.3-3.1,6.1-3.7
	c0.5-0.4,1.1-0.9,1.4-1.6l0.2-0.4l3.4,3.1l-6,3.1c4.2-1.4,7.4-1.4,8.8,0.6c0.9,1.2,0.7,2,0.7,2S426.2,535,424.9,535.8z M422.2,547.7
	c-1.4-1.9-1.9-3-1.9-3s-0.6,0.4-0.9,0.6c-2.3,1.7-4.4,4.2-2,7.4c2.4,3.2,5,3.2,5.5,3.1c-1.2,0.9-4.8,2-8.1-2.4
	c-1.5-2-3.9-6.1,2-10.5c6.6-4.9,12.9-5.2,16.4-0.4c2.7,3.7,1.8,6.4-0.4,8.1C428.3,554,424.5,550.8,422.2,547.7z M431.3,543.5
	c-1.6-2.1-4.2-2.8-9.4,0.1c0,0,0.3,0.7,1.6,2.5c2.3,3.1,4.5,3.6,7.1,1.7C431.8,547,432.9,545.5,431.3,543.5z M443.2,561
	c-1.2,0.7-2.2,1.3-2.2,1.3c1-1.9,1.7-3.6,0-5.9c-1.5-2.1-3.1-1.9-4.2-1.1c-1.3,0.9-1.4,2-1.4,3.9l0,2.2c-0.1,2.4-0.1,4.5-2.5,6.2
	c-1.4,1-5.1,2.8-8.6-2c-2.1-2.9-2.4-4.9-2.4-4.9s0.6-0.3,1.8-1c1.2-0.7,2.2-1.3,2.2-1.3c-0.9,1.7-1.7,3.5,0.2,6.1
	c1.7,2.3,3.6,1.7,4.5,1c1.4-1.1,1.5-2.3,1.6-4l0-2.4c0-2.9,0.6-4.5,2.5-5.8c2.4-1.8,5.5-1.6,8.1,1.9c2,2.7,2.2,4.8,2.2,4.8
	S444.4,560.4,443.2,561z M453.1,572.1c-0.8,0.5-1.2,0.7-1.2,0.7s0-0.6-1.8-3l-1.4-1.8l-9.2,5.1c-0.7,0.4-2.1,1.2-2.5,1.6
	c-0.9,0.7-2.2,1.8-0.7,3.8c1.2,1.6,2.7,1.8,2.7,1.8s-2.8,1.7-5.5-1.9c-2.4-3.2-0.4-5.1,0.8-6c1-0.7,2.4-1.6,3.7-2.3
	c5.8-3.2,8.8-4.6,8.8-4.6l-1.4-1.9c0.1,0,1.7,0.4,4.2,0.5c2.5,0,4.3-0.3,4.3-0.3l0.8,1l-4,2.2l1.4,1.8c1.8,2.4,2.4,2.6,2.4,2.6
	S454,571.6,453.1,572.1z M449.9,584.9c-1.4-1.9-1.9-3-1.9-3s-0.6,0.4-0.9,0.6c-2.3,1.7-4.4,4.2-2,7.4c2.4,3.2,5,3.2,5.5,3.1
	c-1.2,0.9-4.8,2-8.1-2.4c-1.5-2-3.9-6.1,2-10.5c6.6-4.9,12.9-5.2,16.4-0.4c2.7,3.7,1.8,6.4-0.4,8.1
	C456,591.3,452.3,588.1,449.9,584.9z M459,580.7c-1.6-2.1-4.2-2.8-9.4,0.1c0,0,0.3,0.7,1.6,2.5c2.3,3.1,4.5,3.6,7.1,1.7
	C459.5,584.3,460.6,582.8,459,580.7z M469.4,604.6c-6.3,3.5-8.1,4.5-8.7,4.9c-0.5,0.3-0.7,0.6-0.7,1.4l0,0.6c0,0-1.7,0.2-2.8-1.3
	c-1.1-1.4-0.2-2.3,0.4-2.7c1.2-0.9,4.1-2.1,4.1-2.1c-6.5,1.6-8.4-0.3-9.5-1.8c-2-2.7-1.3-5.4,2.7-8.3c2.1-1.6,11.6-7.9,17-0.6
	c1.7,2.3,1.4,4.1,1.4,4.1c1.7-1,3.7-2.1,4.5-2.7c0.8-0.6,1.3-1,1.6-1.6l0.2-0.5l3.5,3.2C483.2,597.1,481.2,598.1,469.4,604.6z
	 M470.4,596.3c-3.2-4.3-9.4-1.2-13.2,1.6c-2.3,1.7-3.5,3.3-2.1,5.2c0.6,0.8,1.8,2.1,6.7,2l10-5.5
	C471.7,599.6,471.9,598.3,470.4,596.3z M456.2,617.1c0,0,2.4,0.8,4.8-1c1.5-1.1,1.1-2.1,1.1-2.1l0.5-0.3c1.4-0.8,2.5-0.6,3.6,0.5
	c0.7,1.4,0,2.5-1.2,3.4C462.4,619.6,458.6,620.3,456.2,617.1z M287.4,715.6c0.3,0.9,0.4,1.4,0.4,1.4s-0.6-0.2-3.3,0.9l-2.1,0.8
	l2.5,10.2c0.2,0.8,0.7,2.3,0.9,2.9c0.4,1.1,1.1,2.6,3.5,1.7c1.8-0.7,2.5-2.1,2.5-2.1s0.9,3.1-3.3,4.8c-3.7,1.5-5-0.9-5.6-2.4
	c-0.4-1.1-0.9-2.7-1.2-4.2c-1.6-6.5-2.2-9.7-2.2-9.7l-2.2,0.9c0.1-0.1,0.9-1.5,1.5-3.9c0.7-2.4,0.8-4.2,0.8-4.2l1.2-0.5l1.1,4.4
	l2.1-0.8c2.7-1.1,3.2-1.7,3.2-1.7S287.2,714.6,287.4,715.6z M306.9,717.2c0.6,2.5,1.6,6.6,1.9,7.3c0.2,0.5,0.4,0.9,1.2,1.1l0.6,0.2
	c0,0-0.2,1.7-2,2.4c-1.6,0.6-2.2-0.4-2.4-1.1c-0.6-1.4-1-4.5-1-4.5c-0.2,6.7-2.9,8.2-4.6,8.9c-3.8,1.5-4.9-1.3-5.4-2.5
	c-0.9-2.2-2.6-10.8-3.4-12.9c-0.3-0.9-0.7-1.5-1.2-1.9l-0.4-0.3l4.1-2.6c0,0,2.9,13.2,3.8,15.6c0.4,1,1,2.4,3.1,1.5
	c1.9-0.8,3-2.6,3.8-6l-1-4.3c-0.8-3.3-1.3-5.2-1.7-6.2c-0.3-0.9-0.7-1.5-1.2-1.9l-0.4-0.3l4.1-2.6
	C304.5,707.2,305,709.4,306.9,717.2z M320.2,703.7c0.4,1.7,0.6,2.3,0.6,2.3c-1-0.9-1.9-1.4-3.1-0.9c-2.3,0.9-2.5,5.2-2.5,5.2l1,4.2
	c1.9,7.5,2.5,9.4,2.5,9.4s-0.7,0.2-1.7,0.6c-0.8,0.3-1.6,0.7-1.6,0.7s-0.5-2.3-2.3-10.1c-0.8-3.4-1.6-5.9-1.9-6.9
	c-0.2-0.6-0.6-1.3-1.2-1.8l-0.3-0.3l3.9-2.5l1.4,6.6c-0.3-4.5,0.6-7.5,2.8-8.4c1.3-0.5,2.1-0.2,2.1-0.2S319.9,702.2,320.2,703.7z
	 M340.9,711.8c0.2,0.5,0.4,0.8,1.2,1.1l0.6,0.2c0,0-0.3,1.7-2.1,2.4c-1.6,0.7-2.3-0.4-2.5-1.1c-0.7-1.7-2.5-11.2-3.5-13.9
	c-0.3-0.7-0.9-2.2-3-1.4c-2,0.8-3,2.6-3.9,6l1.1,4.3c1.8,7.5,2.5,9.5,2.5,9.5s-0.7,0.2-1.7,0.6c-0.8,0.3-1.6,0.7-1.6,0.7
	s-0.4-2.3-2.3-10.1c-0.8-3.4-1.5-5.9-1.9-6.9c-0.2-0.6-0.6-1.3-1.2-1.8l-0.3-0.3l3.9-2.5l1.4,6.4c0.2-6.7,2.9-8.2,4.5-8.8
	c3.8-1.5,5,1.2,5.5,2.4C338.3,700.6,340.2,710,340.9,711.8z M359.1,687.1c0.3,0.9,0.4,1.4,0.4,1.4s-0.6-0.2-3.3,0.9l-2.1,0.8
	l2.5,10.2c0.2,0.8,0.7,2.3,0.9,2.9c0.4,1.1,1.1,2.6,3.5,1.7c1.8-0.7,2.5-2.1,2.5-2.1s0.9,3.1-3.3,4.8c-3.7,1.5-5-0.9-5.6-2.4
	c-0.4-1.1-0.9-2.7-1.2-4.2c-1.6-6.5-2.2-9.7-2.2-9.7l-2.2,0.9c0.1-0.1,0.9-1.5,1.5-3.9c0.7-2.4,0.8-4.2,0.8-4.2l1.2-0.5l1.1,4.4
	l2.1-0.8c2.7-1.1,3.2-1.7,3.2-1.7S358.9,686.2,359.1,687.1z M374.4,702.1c-5.4,2.1-8.1-0.8-10-5.7c-1.1-2.7-3.3-11.9,4.1-14.8
	c5.4-2.1,8.1,0.8,10,5.7C379.5,690.1,381.7,699.2,374.4,702.1z M369.1,683.7c-4.8,1.9-2.3,9.8-1.4,12c2.2,5.4,4.3,5,5.9,4.4
	c4.8-1.9,2.3-9.8,1.4-12C372.9,682.7,370.7,683.1,369.1,683.7z M398.5,672.6c0.4,1.7,0.6,2.3,0.6,2.3c-1-0.9-1.9-1.4-3.1-0.9
	c-2.3,0.9-2.5,5.2-2.5,5.2l1,4.2c1.9,7.5,2.5,9.4,2.5,9.4s-0.7,0.2-1.7,0.6c-0.8,0.3-1.6,0.7-1.6,0.7s-0.5-2.3-2.3-10.1
	c-0.8-3.4-1.6-5.9-1.9-6.9c-0.2-0.6-0.6-1.3-1.2-1.8l-0.3-0.3l3.9-2.5l1.4,6.6c-0.3-4.5,0.6-7.5,2.8-8.4c1.3-0.5,2.1-0.2,2.1-0.2
	S398.1,671.1,398.5,672.6z M406.7,677.1c0.8,3.4,1.8,7.1,2,7.8c0.2,0.5,0.4,0.8,1.2,1.1l0.6,0.2c0,0-0.3,1.7-2.1,2.4
	c-1.6,0.7-2.2-0.4-2.5-1.1c-0.7-1.8-2.6-12-3.9-15.1c-0.4-0.9-0.7-1.5-1.2-2l-0.4-0.3l4-2.6C404.4,667.5,405,670.3,406.7,677.1z
	 M402.1,665c-1.6,0.6-2.4-0.3-2.7-1c-0.5-1.1-0.1-2.3,1.3-2.9c1.6-0.6,2.4,0.3,2.7,1C403.9,663.3,403.5,664.5,402.1,665z
	 M426.1,669.7l2.3,8.8c0.7,2.6,1.4,5.3,0.3,7.7c-1,2-3,3.4-5.4,4.3c-3.9,1.5-6.3,1.7-6.3,1.7s0-0.8-0.4-2.1
	c-0.3-1.5-0.7-2.5-0.7-2.5c2.1,1.8,3.1,2.3,6.2,1.1c4.3-1.7,4.5-4.1,3.5-7.8l-0.3-1.1c-0.6-2.3-1-4.5-1-4.5c-0.1,6.8-2.5,8-4.2,8.7
	c-3.1,1.2-5.6-0.2-7.4-4.7c-1-2.4-4.6-13.3,3.8-16.6c3.1-1.2,5-0.2,5-0.2l2.3-2.7C423.9,659.6,424.3,662.3,426.1,669.7z
	 M417.9,664.5c-5,2-3.6,8.8-1.8,13.2c1.1,2.7,2.3,4.3,4.4,3.4c0.9-0.4,2.6-1.2,3.7-5.9l-2.8-11.1C421.4,664,420.2,663.6,417.9,664.5
	z M447.4,669.6c0.2,0.5,0.4,0.8,1.2,1.1l0.6,0.2c0,0-0.3,1.7-2.1,2.4c-1.6,0.7-2.3-0.4-2.5-1.1c-0.7-1.7-2.5-11.2-3.5-13.9
	c-0.3-0.7-0.9-2.2-3-1.4c-2,0.8-3,2.6-3.9,6l1.1,4.3c1.8,7.5,2.5,9.5,2.5,9.5s-0.7,0.2-1.6,0.6c-0.9,0.3-1.7,0.8-1.7,0.8
	s-0.5-2.6-2.7-11.7c-1.6-6.5-2.7-11.2-3.3-12.6c-0.4-0.9-0.7-1.5-1.2-1.9l-0.4-0.3l4.1-2.6c0,0,0.6,3,2,8.5l0.2,0.8
	c0.6,2.5,0.9,4.6,0.9,4.6c0.2-6.7,2.9-8.2,4.5-8.8c3.8-1.5,5,1.2,5.5,2.4C444.8,658.4,446.7,667.8,447.4,669.6z M457.7,648
	c0.3,0.9,0.4,1.4,0.4,1.4s-0.6-0.2-3.3,0.9l-2.1,0.8l2.5,10.2c0.2,0.8,0.7,2.3,0.9,2.9c0.4,1.1,1.1,2.6,3.5,1.7
	c1.8-0.7,2.5-2.1,2.5-2.1s0.9,3.1-3.3,4.8c-3.7,1.5-5-0.9-5.6-2.4c-0.4-1.1-0.9-2.7-1.2-4.2c-1.6-6.5-2.2-9.7-2.2-9.7l-2.2,0.9
	c0.1-0.1,0.9-1.5,1.5-3.9c0.7-2.4,0.8-4.2,0.8-4.2l1.2-0.5l1.1,4.4l2.1-0.8c2.7-1.1,3.2-1.7,3.2-1.7S457.5,647,457.7,648z
	 M539.8,646.5c-0.5,2.6-1.4,6.7-1.4,7.4c0,0.6,0,1,0.6,1.5l0.4,0.4c0,0-0.9,1.4-2.9,1.3c-1.7-0.1-1.8-1.3-1.7-2c0.1-1.5,1-4.5,1-4.5
	c-3,6-5.7,6.2-7.5,6.1c-3.3-0.2-4.8-2.5-4.5-7.5c0.2-2.7,1.5-14,10.6-13.4c3.3,0.2,4.5,2,4.5,2l3.1-1.5
	C542,636.3,541.4,638.7,539.8,646.5z M534.6,638.1c-5.4-0.4-7,6.4-7.3,11.1c-0.2,2.9,0.2,4.8,2.5,5c1,0.1,2.8,0,5.8-3.8l2.3-11.2
	C538,639.2,537.1,638.2,534.6,638.1z M559.5,655.4c0,0.6,0,0.9,0.6,1.4l0.4,0.4c0,0-1,1.4-2.9,1.3c-1.8-0.1-1.9-1.3-1.8-2
	c0.1-1.8,2.6-11.2,2.8-14.1c0.1-0.8,0.1-2.4-2.1-2.5c-2.1-0.1-3.8,1-6.1,3.7l-0.9,4.3c-1.5,7.5-1.8,9.6-1.8,9.6s-0.7-0.1-1.8-0.2
	c-0.9-0.1-1.8,0-1.8,0s0.6-2.3,2.3-10.1c0.7-3.4,1.2-6,1.3-7c0-0.6,0-1.5-0.3-2.1l-0.2-0.4l4.6-0.6l-1.4,6.4c3.1-6,6.2-6.2,7.9-6
	c4.1,0.3,4,3.2,3.9,4.5C561.9,644.2,559.6,653.4,559.5,655.4z M582,646.9c-1.4,7-1.8,9.1-1.9,9.8c0,0.6,0,0.9,0.6,1.4l0.4,0.4
	c0,0-0.9,1.4-2.8,1.3c-1.8-0.1-1.8-1.3-1.8-2c0.1-1.5,1-4.5,1-4.5c-3,6-5.6,6.2-7.5,6.1c-3.3-0.2-4.9-2.5-4.6-7.5
	c0.2-2.6,1.5-14,10.6-13.4c2.8,0.2,4,1.6,4,1.6c0.3-1.9,0.8-4.1,0.9-5.2c0.1-1,0-1.7-0.2-2.3l-0.2-0.5l4.8-0.6
	C585.3,631.6,584.8,633.7,582,646.9z M576.4,640.8c-5.4-0.4-7,6.4-7.3,11.1c-0.2,2.9,0.3,4.8,2.6,5c1,0.1,2.8,0,5.8-3.8l2.3-11.2
	C579.7,642,578.9,641,576.4,640.8z M609.2,658.7c0,0.6,0,0.9,0.6,1.4l0.4,0.4c0,0-1,1.4-2.9,1.3c-1.8-0.1-1.9-1.3-1.8-2
	c0.1-1.8,2.6-11.2,2.8-14.1c0.1-0.8,0.1-2.4-2.1-2.5c-2.1-0.1-3.8,1-6.1,3.7l-0.9,4.3c-1.5,7.5-1.8,9.6-1.8,9.6s-0.7-0.1-1.7-0.2
	c-0.9-0.1-1.9-0.1-1.9-0.1s0.6-2.6,2.6-11.7c1.4-6.6,2.3-11.3,2.4-12.8c0.1-1,0-1.7-0.2-2.3l-0.2-0.5l4.8-0.6c0,0-0.7,2.9-1.9,8.5
	l-0.2,0.8c-0.5,2.5-1.2,4.6-1.2,4.6c3.1-6,6.2-6.2,7.9-6c4.1,0.3,4,3.2,3.9,4.5C611.7,647.5,609.4,656.7,609.2,658.7z M631.1,652.6
	c-0.5,2.6-1.4,6.7-1.4,7.4c0,0.6,0,1,0.6,1.5l0.4,0.4c0,0-0.9,1.4-2.9,1.3c-1.7-0.1-1.8-1.3-1.7-2c0.1-1.5,1-4.5,1-4.5
	c-3,6-5.7,6.2-7.5,6.1c-3.3-0.2-4.8-2.5-4.5-7.5c0.2-2.7,1.5-14,10.6-13.4c3.3,0.2,4.5,2,4.5,2l3.1-1.5
	C633.3,642.3,632.7,644.7,631.1,652.6z M625.9,644.1c-5.4-0.4-7,6.4-7.3,11.1c-0.2,2.9,0.2,4.8,2.5,5c1,0.1,2.8,0,5.8-3.8l2.3-11.2
	C629.3,645.2,628.4,644.3,625.9,644.1z M652.3,651.6c-1.4,7-1.8,9.1-1.9,9.8c0,0.6,0,0.9,0.6,1.4l0.4,0.4c0,0-0.9,1.4-2.8,1.3
	c-1.8-0.1-1.8-1.3-1.8-2c0.1-1.5,1-4.5,1-4.5c-3,6-5.6,6.2-7.5,6.1c-3.3-0.2-4.9-2.5-4.6-7.5c0.2-2.6,1.5-14,10.6-13.4
	c2.8,0.2,4,1.6,4,1.6c0.3-1.9,0.8-4.1,0.9-5.2c0.1-1,0-1.7-0.2-2.3l-0.2-0.5l4.8-0.6C655.5,636.2,655,638.4,652.3,651.6z
	 M646.6,645.5c-5.4-0.4-7,6.4-7.3,11.1c-0.2,2.9,0.3,4.8,2.6,5c1,0.1,2.8,0,5.8-3.8l2.3-11.2C650,646.6,649.1,645.6,646.6,645.5z
	 M677.2,646.9c-0.2,1-0.2,1.4-0.2,1.4s-0.4-0.4-3.4-0.6l-2.3-0.2l-2.1,10.3c-0.2,0.8-0.4,2.4-0.4,3c-0.1,1.1-0.1,2.8,2.4,3
	c2,0.1,3.2-0.9,3.2-0.9s-0.5,3.2-5,2.9c-4-0.3-4.1-3-4-4.5c0.1-1.2,0.4-2.8,0.7-4.3c1.3-6.5,2.2-9.7,2.2-9.7l-2.4-0.2
	c0.1,0,1.4-1,3-2.9c1.7-1.9,2.6-3.5,2.6-3.5l1.3,0.1l-0.9,4.5l2.3,0.1c2.9,0.2,3.6-0.2,3.6-0.2S677.4,645.9,677.2,646.9z M684.4,667
	c-5.8-0.4-7-4.2-6.6-9.4c0.2-2.9,2.1-12.2,10.1-11.6c5.7,0.4,7,4.2,6.6,9.4C694.3,658.3,692.4,667.5,684.4,667z M687.6,648.1
	c-5.1-0.3-6.3,7.9-6.4,10.3c-0.4,5.8,1.7,6.4,3.4,6.5c5.1,0.3,6.3-7.9,6.4-10.3C691.5,648.8,689.4,648.2,687.6,648.1z M316.3,110.5
	c-0.5,2.6-1.3,6.7-1.3,7.4c0,0.6,0,1,0.6,1.5l0.4,0.4c0,0-0.9,1.4-2.8,1.3c-1.7-0.1-1.8-1.3-1.8-2c0.1-1.5,0.9-4.5,0.9-4.5
	c-2.9,6.1-5.6,6.3-7.4,6.2c-3.3-0.2-4.9-2.4-4.6-7.4c0.1-2.7,1.3-14,10.3-13.5c3.3,0.2,4.6,1.9,4.6,1.9l3.1-1.5
	C318.3,100.1,317.8,102.6,316.3,110.5z M311,102.1c-5.4-0.3-6.9,6.5-7.1,11.2c-0.1,2.9,0.3,4.8,2.6,4.9c1,0.1,2.8-0.1,5.7-3.9
	l2.2-11.2C314.3,103.1,313.4,102.2,311,102.1z M333.5,102.6c-0.2,1-0.2,1.4-0.2,1.4s-0.4-0.4-3.4-0.5l-2.3-0.1l-1.9,10.4
	c-0.1,0.8-0.4,2.4-0.4,3c-0.1,1.2,0,2.8,2.5,3c2,0.1,3.1-0.9,3.1-0.9s-0.5,3.2-5,3c-4-0.2-4.2-3-4.1-4.5c0.1-1.2,0.3-2.8,0.6-4.3
	c1.2-6.5,2-9.7,2-9.7l-2.4-0.1c0.1,0,1.4-1,3-2.9c1.6-1.9,2.5-3.5,2.5-3.5l1.3,0.1l-0.8,4.5l2.3,0.1c2.9,0.1,3.6-0.2,3.6-0.2
	S333.7,101.6,333.5,102.6z M349.4,123c-5.8-0.3-7-4.1-6.8-9.3c0.1-2.9,1.9-12.2,9.9-11.8c5.8,0.3,7,4.1,6.8,9.3
	C359.2,114.2,357.4,123.4,349.4,123z M352.3,104.1c-5.1-0.3-6.1,8-6.3,10.4c-0.3,5.8,1.8,6.4,3.5,6.5c5.1,0.3,6.1-8,6.3-10.4
	C356.1,104.7,354,104.1,352.3,104.1z M377.4,121.1c0,0.6,0,0.9,0.6,1.4l0.4,0.4c0,0-0.9,1.4-2.9,1.3c-1.8-0.1-1.9-1.3-1.8-2
	c0.1-1.8,2.4-11.2,2.6-14.1c0-0.8,0.1-2.4-2.2-2.5c-2.1-0.1-3.8,1.1-6,3.8l-0.8,4.4c-1.4,7.6-1.7,9.6-1.7,9.6s-0.8-0.1-1.8-0.2
	c-0.9,0-1.8,0-1.8,0s0.5-2.3,2.1-10.2c0.7-3.4,1.1-6,1.1-7c0-0.6,0-1.5-0.4-2.1l-0.2-0.4l4.6-0.7l-1.3,6.4c3-6,6.1-6.3,7.8-6.2
	c4.1,0.2,4.1,3.2,4,4.5C379.7,109.8,377.5,119.1,377.4,121.1z M398.4,107.3c-0.2,1.3-0.4,2.6-0.4,2.6c-0.8-1.9-1.4-3.7-4.5-3.8
	c-4.5-0.2-6.3,4.7-6.6,9.8c-0.1,2.6-0.2,6.4,4.1,6.7c3.6,0.2,5.1-1.8,5.4-2.2c-0.1,1.8-1.6,4.9-6.5,4.6c-6.3-0.3-6.7-5.5-6.5-8.5
	c0.1-1.8,0.8-13,10.2-12.6c3.6,0.2,5.2,1.3,5.2,1.3S398.6,106,398.4,107.3z M407.2,116.6c-2.4-0.1-3.5-0.4-3.5-0.4s-0.1,0.7-0.1,1
	c-0.1,2.9,0.4,6,4.4,6.2c4,0.2,5.7-1.8,5.9-2.3c-0.1,1.5-1.5,5-7,4.7c-2.5-0.1-7.2-0.9-6.8-8.2c0.4-8.2,4.2-13.2,10.2-12.9
	c4.6,0.2,6.1,2.7,6,5.5C415.9,116,411,116.8,407.2,116.6z M409.7,106.9c-2.6-0.1-4.8,1.4-5.8,7.3c0,0,0.8,0.2,3,0.3
	c3.8,0.2,5.6-1.2,5.8-4.4C412.7,108.8,412.3,107,409.7,106.9z M415.6,131.2c0,0,2.2-1.3,2.3-4.4c0.1-1.9-0.9-2.1-0.9-2.1l0.1-0.6
	c0.3-1.5,1.2-2.3,2.6-2.4c1.6,0.3,1.9,1.6,1.9,3C421.4,128,419.5,131.4,415.6,131.2z M450.9,117.3c-0.5,2.6-1.3,6.7-1.3,7.4
	c0,0.6,0,1,0.6,1.5l0.4,0.4c0,0-0.9,1.4-2.8,1.3c-1.7-0.1-1.8-1.3-1.8-2c0.1-1.5,0.9-4.5,0.9-4.5c-2.9,6.1-5.6,6.3-7.4,6.2
	c-3.3-0.2-4.9-2.4-4.6-7.4c0.1-2.7,1.3-14,10.3-13.5c3.3,0.2,4.6,1.9,4.6,1.9l3.1-1.5C453,107,452.4,109.4,450.9,117.3z
	 M445.6,108.9c-5.4-0.3-6.9,6.5-7.1,11.2c-0.1,2.9,0.3,4.8,2.6,4.9c1,0.1,2.8-0.1,5.7-3.9L449,110C449,110,448.1,109,445.6,108.9z
	 M470.7,125.8c0,0.6,0,0.9,0.6,1.4l0.4,0.4c0,0-0.9,1.4-2.9,1.3c-1.8-0.1-1.9-1.3-1.8-2c0.1-1.8,2.4-11.2,2.6-14.1
	c0-0.8,0.1-2.4-2.2-2.5c-2.1-0.1-3.8,1.1-6,3.8l-0.8,4.4c-1.4,7.6-1.7,9.6-1.7,9.6s-0.8-0.1-1.8-0.2c-0.9,0-1.8,0-1.8,0
	s0.5-2.3,2.1-10.2c0.7-3.4,1.1-6,1.1-7c0-0.6,0-1.5-0.4-2.1l-0.2-0.4l4.6-0.7l-1.3,6.4c3-6,6.1-6.3,7.8-6.2c4.1,0.2,4.1,3.2,4,4.5
	C473,114.6,470.8,123.9,470.7,125.8z M493.2,117c-1.3,7.1-1.7,9.1-1.7,9.8c0,0.6,0,0.9,0.6,1.4l0.4,0.4c0,0-0.9,1.4-2.8,1.3
	c-1.8-0.1-1.8-1.3-1.8-2c0.1-1.5,1-4.5,1-4.5c-2.9,6.1-5.5,6.3-7.4,6.2c-3.3-0.2-5-2.4-4.7-7.4c0.1-2.6,1.3-14,10.4-13.5
	c2.8,0.1,4,1.5,4,1.5c0.3-1.9,0.7-4.1,0.8-5.2c0-1,0-1.7-0.3-2.2l-0.2-0.5l4.8-0.7C496.2,101.6,495.7,103.8,493.2,117z M487.4,111
	c-5.4-0.3-6.9,6.5-7.2,11.2c-0.1,2.9,0.3,4.8,2.7,4.9c1,0,2.8-0.1,5.8-3.9l2.1-11.2C490.8,112.1,489.9,111.1,487.4,111z
	 M494.5,135.2c0,0,2.2-1.3,2.3-4.4c0.1-1.9-0.9-2.1-0.9-2.1l0.1-0.6c0.3-1.5,1.2-2.3,2.6-2.4c1.6,0.3,1.9,1.6,1.9,3
	C500.3,132,498.3,135.4,494.5,135.2z M540.2,129.3c0,0.6,0,0.9,0.6,1.4l0.4,0.4c0,0-0.9,1.4-2.9,1.3c-1.8-0.1-1.8-1.3-1.8-2
	c0.1-1.8,2.4-11.2,2.5-14.1c0-0.8,0.1-2.4-2.2-2.5c-2.1-0.1-3.8,1.1-6,3.8l-0.8,4.4c-1.4,7.6-1.7,9.6-1.7,9.6s-0.7-0.1-1.8-0.2
	c-1,0-1.9,0-1.9,0s0.5-1.7,1.7-7.9c0.4-2.1,1.2-6.4,1.3-7.6c0.1-1,0.1-2.6-2.2-2.7c-2.1-0.1-3.7,1.1-5.9,3.8l-0.8,4.4
	c-1.4,7.6-1.7,9.6-1.7,9.6s-0.8-0.1-1.8-0.2c-0.9,0-1.8,0-1.8,0s0.5-2.3,2.1-10.2c0.7-3.4,1.1-6,1.1-7c0-0.6,0-1.5-0.4-2.1l-0.2-0.4
	l4.6-0.7l-1.3,6.4c2.6-5.3,5.2-6.3,7.7-6.2c4.2,0.2,4,3.3,4,4.5c0,0.7-0.3,1.9-0.4,2c2.9-5.8,6-6,7.7-5.9c4.1,0.2,4.1,3.2,4,4.5
	C542.4,118.1,540.3,127.4,540.2,129.3z M554.5,132.2c-4,5.8-5.9,8.1-9.5,8c-2-0.1-2.8-0.6-2.8-0.6s0.2-0.6,0.4-1.7
	c0.2-1.1,0.3-2,0.3-2c0.7,1.6,1.5,2.1,2.3,2.1c1.3,0.1,2.3-0.3,5.3-4.5l-2.6-17.1c-0.2-1.5-0.6-2.5-1-3l-0.4-0.6l4.6-0.7
	c0,0,0.1,2,0.8,7.8l1,7.8c0.2,1.8,0.2,2.8,0.2,2.9c0.2-0.4,6.2-9.9,6.4-15.1c0.1-1.7-0.9-2.2-0.9-2.2s0.9-0.7,2.3-0.7
	c2,0.1,2,1.6,2,2.3C562.6,119.2,557.3,128,554.5,132.2z M587.8,116.9c-0.2,1.3-0.4,2.6-0.4,2.6c-0.8-1.9-1.4-3.7-4.5-3.8
	c-4.5-0.2-6.3,4.7-6.6,9.8c-0.1,2.6-0.2,6.4,4.1,6.7c3.6,0.2,5.1-1.8,5.4-2.2c-0.1,1.8-1.6,4.9-6.5,4.6c-6.3-0.3-6.7-5.5-6.5-8.5
	c0.1-1.8,0.8-13,10.2-12.6c3.6,0.2,5.2,1.3,5.2,1.3S588,115.6,587.8,116.9z M596.2,135.5c-5.8-0.3-7-4.1-6.8-9.3
	c0.1-2.9,1.9-12.2,9.9-11.8c5.8,0.3,7,4.1,6.8,9.3C606,126.7,604.2,135.9,596.2,135.5z M599.1,116.5c-5.1-0.3-6.1,8-6.3,10.4
	c-0.3,5.8,1.8,6.4,3.5,6.5c5.1,0.3,6.1-8,6.3-10.4C603,117.2,600.9,116.6,599.1,116.5z M635.4,134.1c0,0.6,0,0.9,0.6,1.4l0.4,0.4
	c0,0-0.9,1.4-2.9,1.3c-1.8-0.1-1.8-1.3-1.8-2c0.1-1.8,2.4-11.2,2.5-14.1c0-0.8,0.1-2.4-2.2-2.5c-2.1-0.1-3.8,1.1-6,3.8l-0.8,4.4
	c-1.4,7.6-1.7,9.6-1.7,9.6s-0.7-0.1-1.8-0.2c-1,0-1.9,0-1.9,0s0.5-1.7,1.7-7.9c0.4-2.1,1.2-6.4,1.3-7.6c0.1-1,0.1-2.6-2.2-2.7
	c-2.1-0.1-3.7,1.1-5.9,3.8l-0.8,4.4c-1.4,7.6-1.7,9.6-1.7,9.6s-0.8-0.1-1.8-0.2c-0.9,0-1.8,0-1.8,0s0.5-2.3,2.1-10.2
	c0.7-3.4,1.1-6,1.1-7c0-0.6,0-1.5-0.4-2.1l-0.2-0.4l4.6-0.7l-1.3,6.4c2.6-5.3,5.2-6.3,7.7-6.2c4.2,0.2,4,3.3,4,4.5
	c0,0.7-0.3,1.9-0.4,2c2.9-5.8,6-6,7.7-5.9c4.1,0.2,4.1,3.2,4,4.5C637.7,122.9,635.5,132.2,635.4,134.1z M648.8,138.1
	c-2.8-0.1-4-1.5-4-1.5l-0.2,1.3c-0.6,3.1-0.7,4.1-0.7,4.5c0,0.9,0,1.5,0.2,2.2l0.2,0.6c0,0-0.5-0.1-2.7-0.2
	c-2.1-0.1-2.7-0.1-2.7-0.1l0.5-0.7c0.8-1.1,1-2.1,2.3-8.8l1.2-6.3c1.1-5.7,1.4-7.6,1.5-8.9c0-0.6,0-1.5-0.4-2.1l-0.2-0.4l4.6-0.7
	l-1.3,6.4c2.9-6.1,5.5-6.3,7.4-6.2c3.3,0.2,5,2.4,4.7,7.4C659.1,127.3,657.9,138.6,648.8,138.1z M653,119.7c-1,0-2.8,0-5.8,3.8
	l-2.1,11.2c0,0,0.9,0.9,3.4,1.1c5.4,0.3,6.9-6.5,7.2-11.2C655.9,121.7,655.4,119.8,653,119.7z M678.2,128.8
	c-0.5,2.6-1.3,6.7-1.3,7.4c0,0.6,0,1,0.6,1.5l0.4,0.4c0,0-0.9,1.4-2.8,1.3c-1.7-0.1-1.8-1.3-1.8-2c0.1-1.5,0.9-4.5,0.9-4.5
	c-2.9,6.1-5.6,6.3-7.4,6.2c-3.3-0.2-4.9-2.4-4.6-7.4c0.1-2.7,1.3-14,10.3-13.5c3.3,0.2,4.6,1.9,4.6,1.9l3.1-1.5
	C680.3,118.4,679.7,120.9,678.2,128.8z M672.9,120.4c-5.4-0.3-6.9,6.5-7.1,11.2c-0.1,2.9,0.3,4.8,2.6,4.9c1,0.1,2.8-0.1,5.7-3.9
	l2.2-11.2C676.3,121.5,675.4,120.5,672.9,120.4z M695.4,122.3c-0.2,1.4-0.4,2.5-0.4,2.5c-0.8-2-1.7-3.6-4.6-3.8
	c-2.6-0.1-3.4,1.2-3.5,2.6c-0.1,1.6,0.7,2.3,2.1,3.6l1.7,1.5c1.8,1.6,3.4,2.9,3.2,5.9c-0.1,1.7-1.1,5.7-7,5.4
	c-3.6-0.2-5.3-1.3-5.3-1.3s0.2-0.6,0.4-2c0.2-1.4,0.4-2.5,0.4-2.5c0.8,1.8,1.6,3.6,4.8,3.7c2.8,0.1,3.6-1.7,3.6-2.9
	c0.1-1.8-0.8-2.6-2-3.7l-1.8-1.6c-2.2-1.9-3-3.3-2.9-5.6c0.2-3,2.3-5.3,6.7-5c3.4,0.2,5.1,1.3,5.1,1.3S695.7,121,695.4,122.3z
	 M710.3,123.1c-0.2,1.4-0.4,2.5-0.4,2.5c-0.8-2-1.7-3.6-4.6-3.8c-2.6-0.1-3.4,1.2-3.5,2.6c-0.1,1.6,0.7,2.3,2.1,3.6l1.7,1.5
	c1.8,1.6,3.4,2.9,3.2,5.9c-0.1,1.7-1.1,5.7-7,5.4c-3.6-0.2-5.3-1.3-5.3-1.3s0.2-0.6,0.4-2c0.2-1.4,0.4-2.5,0.4-2.5
	c0.8,1.8,1.6,3.6,4.8,3.7c2.8,0.1,3.6-1.7,3.6-2.9c0.1-1.8-0.8-2.6-2-3.7l-1.8-1.6c-2.2-1.9-3-3.3-2.9-5.6c0.2-3,2.3-5.3,6.7-5
	c3.4,0.2,5.1,1.3,5.1,1.3S710.5,121.7,710.3,123.1z M311.5,176.6c-3.3-0.7-4.3-2.6-4.3-2.6l-3.3,1.1c0,0,0.5-1.2,4.4-11.6
	c2-5.5,4-11.1,4.2-12.4c0.2-1,0.3-1.6,0.1-2.3l-0.1-0.5l4.8,0.1c0,0-1.1,2.7-3,8.1l-0.3,0.8c-0.7,1.9-1.7,4.1-1.8,4.5
	c3.8-5.5,6.5-5.3,8.2-4.9c3.3,0.7,4.5,3.2,3.5,8.1C323.3,167.5,320.3,178.5,311.5,176.6z M318.5,159.1c-1-0.2-2.8-0.4-6.3,2.9
	l-3.9,10.8c0,0,0.8,1.1,3.2,1.6c5.2,1.1,7.9-5.3,8.8-9.9C321,161.5,320.8,159.5,318.5,159.1z M333.2,171.7c-2.4-0.5-3.4-0.9-3.4-0.9
	s-0.2,0.7-0.3,1c-0.6,2.8-0.5,6,3.4,6.9c3.9,0.8,5.9-0.9,6.2-1.3c-0.3,1.4-2.3,4.7-7.6,3.5c-2.4-0.5-7-2-5.5-9.1
	c1.7-8,6.2-12.4,12.1-11.1c4.5,0.9,5.6,3.6,5,6.3C341.9,172.4,337,172.5,333.2,171.7z M337.2,162.5c-2.6-0.5-5,0.7-6.9,6.3
	c0,0,0.7,0.3,2.9,0.8c3.8,0.8,5.8-0.3,6.4-3.4C339.9,164.9,339.7,163,337.2,162.5z M349.6,173.1c-1.2,3.2-2.5,6.9-2.6,7.6
	c-0.1,0.6-0.1,0.9,0.4,1.5l0.4,0.4c0,0-1.2,1.3-3.1,0.9c-1.7-0.4-1.6-1.6-1.5-2.3c0.4-1.9,4.4-11.4,5.1-14.7c0.2-1,0.3-1.7,0.1-2.3
	l-0.2-0.5l4.7,0C353,163.8,352,166.5,349.6,173.1z M352.5,160.5c-1.7-0.4-1.9-1.6-1.7-2.4c0.3-1.2,1.2-2,2.7-1.7
	c1.7,0.4,1.9,1.6,1.7,2.3C354.9,160,353.9,160.8,352.5,160.5z M367.7,185.1c-0.1,0.6-0.1,0.9,0.4,1.5l0.4,0.4c0,0-1.2,1.3-3.1,0.9
	c-1.7-0.4-1.6-1.6-1.5-2.3c0.4-1.8,4.1-10.7,4.7-13.5c0.2-0.8,0.5-2.3-1.8-2.8c-2.1-0.4-3.9,0.5-6.5,2.8l-1.5,4.2
	c-2.6,7.3-3.2,9.3-3.2,9.3s-0.7-0.2-1.7-0.4c-0.9-0.2-1.8-0.3-1.8-0.3s0.9-2.2,3.7-9.7c1.2-3.3,2-5.8,2.2-6.8c0.1-0.6,0.2-1.5,0-2.2
	l-0.1-0.4l4.6,0.1l-2.3,6.1c3.9-5.5,7-5.2,8.7-4.9c4,0.8,3.5,3.8,3.2,5C371.7,174.3,368.1,183.2,367.7,185.1z M390.6,182l-3,8.6
	c-0.9,2.6-1.7,5.1-4,6.5c-1.9,1.2-4.4,1.2-6.9,0.6c-4.1-0.9-6.2-2-6.2-2s0.4-0.7,0.9-2c0.6-1.4,0.8-2.5,0.8-2.5
	c0.7,2.6,1.4,3.6,4.6,4.3c4.5,1,6-1,7.3-4.6l0.4-1.1c0.8-2.2,1.7-4.3,1.7-4.3c-3.9,5.6-6.5,5.3-8.2,4.9c-3.3-0.7-4.5-3.2-3.5-8
	c0.5-2.6,3.5-13.6,12.3-11.7c3.3,0.7,4.3,2.6,4.3,2.6l3.4-1C394.2,172.4,393.1,174.8,390.6,182z M386.5,173.1
	c-5.2-1.1-7.8,5.3-8.8,10c-0.6,2.8-0.5,4.8,1.8,5.3c1,0.2,2.8,0.4,6.3-2.9l3.8-10.8C389.7,174.7,389,173.6,386.5,173.1z M408.3,197
	c-3.3-0.7-4.3-2.6-4.3-2.6l-3.3,1.1c0,0,0.5-1.2,4.4-11.6c2-5.5,4-11.1,4.2-12.4c0.2-1,0.3-1.6,0.1-2.3l-0.1-0.5l4.8,0.1
	c0,0-1.1,2.7-3,8.1l-0.3,0.8c-0.7,1.9-1.7,4.1-1.8,4.5c3.8-5.5,6.5-5.3,8.2-4.9c3.3,0.7,4.5,3.2,3.5,8.1
	C420.2,187.9,417.2,198.9,408.3,197z M415.4,179.5c-1-0.2-2.8-0.4-6.3,2.9l-3.9,10.8c0,0,0.8,1.1,3.2,1.6c5.2,1.1,7.9-5.3,8.8-9.9
	C417.8,181.9,417.7,180,415.4,179.5z M437.2,184.2c-0.6,1.7-0.8,2.2-0.8,2.2c-0.3-1.4-0.8-2.2-2-2.5c-2.5-0.5-5,3-5,3l-1.4,4
	c-2.6,7.3-3.1,9.2-3.1,9.2s-0.7-0.2-1.7-0.4c-0.9-0.2-1.8-0.3-1.8-0.3s0.9-2.2,3.6-9.7c1.2-3.3,2-5.8,2.2-6.8c0.1-0.6,0.2-1.5,0-2.2
	l-0.1-0.4l4.7,0.1l-2.5,6.3c2.2-3.9,4.6-5.9,7-5.4c1.4,0.3,1.9,1,1.9,1S437.7,182.7,437.2,184.2z M441.3,204
	c-5.7-1.2-6.3-5.2-5.2-10.3c0.6-2.9,3.8-11.7,11.6-10.1c5.6,1.2,6.3,5.2,5.2,10.3C452.3,196.8,449.1,205.7,441.3,204z M447.2,185.8
	c-5-1.1-7.3,7-7.8,9.2c-1.2,5.7,0.8,6.6,2.5,6.9c5,1.1,7.3-7,7.8-9.2C450.8,187,448.9,186.1,447.2,185.8z M463.9,188.2l-3.5,9.7
	c-2.6,7.3-3.1,9.1-3.1,9.1s-0.7-0.2-1.7-0.4c-1-0.2-1.8-0.3-1.8-0.3s1.1-2.5,4.2-11.2c2.4-6.5,3.9-10.8,4.2-12.2
	c0.2-1,0.2-1.7,0.1-2.3l-0.1-0.5l4.8,0.1C466.9,180,465.6,183.3,463.9,188.2z M467.2,196.7c-1.8,0.6-2.5,0.8-2.5,0.8l1.5,5.2
	c1,3.6,1.3,4.2,2.3,5.1l0.4,0.4c0,0-1.1,1.3-3,0.9c-1.4-0.3-1.7-1.1-2-2.2c-1.3-4.6-2.7-10.2-2.7-10.2s1.5-0.3,4.7-1.7
	c3.1-1.3,4.3-2.4,4.7-4.2c0.3-1.2-0.5-1.7-0.5-1.7s0.9-0.5,2.1-0.2c1.7,0.4,2.1,1.4,1.8,2.6C473.7,193.6,471.5,195.3,467.2,196.7z
	 M480.8,202.8c-2.4-0.5-3.4-0.9-3.4-0.9s-0.2,0.7-0.3,1c-0.6,2.8-0.5,6,3.4,6.9c3.9,0.8,5.9-0.9,6.2-1.3c-0.3,1.4-2.3,4.7-7.6,3.5
	c-2.4-0.5-7-2-5.5-9.1c1.7-8,6.2-12.4,12.1-11.1c4.5,0.9,5.6,3.6,5,6.3C489.5,203.6,484.6,203.6,480.8,202.8z M484.8,193.6
	c-2.6-0.5-5,0.7-6.9,6.3c0,0,0.7,0.3,2.9,0.8c3.8,0.8,5.8-0.3,6.4-3.4C487.5,196,487.3,194.2,484.8,193.6z M505.5,214.1
	c-0.1,0.6-0.1,0.9,0.4,1.5l0.4,0.4c0,0-1.2,1.3-3.1,0.9c-1.7-0.4-1.6-1.6-1.5-2.3c0.4-1.8,4.1-10.7,4.7-13.5
	c0.2-0.8,0.5-2.3-1.8-2.8c-2.1-0.4-3.9,0.5-6.5,2.8l-1.5,4.2c-2.6,7.3-3.2,9.3-3.2,9.3s-0.7-0.2-1.7-0.4c-0.9-0.2-1.8-0.3-1.8-0.3
	s0.9-2.2,3.7-9.7c1.2-3.3,2-5.8,2.2-6.8c0.1-0.6,0.2-1.5,0-2.2l-0.1-0.4l4.6,0.1l-2.3,6.1c3.9-5.5,7-5.2,8.7-4.9
	c4,0.8,3.5,3.8,3.2,5C509.5,203.4,505.9,212.2,505.5,214.1z M507.5,222.9c0,0,2.3-0.9,3-3.9c0.4-1.8-0.6-2.3-0.6-2.3l0.2-0.5
	c0.5-1.5,1.5-2.1,3-2c1.5,0.6,1.7,1.9,1.4,3.3C513.7,220.7,511.3,223.7,507.5,222.9z M540,198.8c-1.2,1.2-1.4,1.5-5,11.7
	c-0.9,2.6-2.7,7.7-3,9.2c-0.2,1.1-0.2,1.7-0.1,2.4l0.1,0.7c0,0-0.7-0.2-2.8-0.7c-2.1-0.4-2.9-0.5-2.9-0.5l0.5-0.5
	c1.2-1.2,1.4-1.5,5-11.7c0.9-2.6,2.7-7.7,3-9.2c0.2-1.1,0.2-1.7,0.1-2.4l-0.1-0.7c0,0,0.7,0.2,2.8,0.7c2.1,0.4,2.9,0.5,2.9,0.5
	L540,198.8z M565,229.2l-0.5,0.4c0,0-0.7-0.2-1.7-0.4s-1.8-0.3-1.8-0.3l1.4-15.2c0.1-1.1,0.3-2.3,0.3-2.4c-0.1,0.1-0.4,1-1.1,2.2
	l-8.5,13.7c0,0-0.7-0.2-2-0.5c-1.3-0.3-2.2-0.4-2.2-0.4l1.2-16.4c0.1-1.5-0.2-2.6-0.5-3.2l-0.3-0.7l4.3,0c0,0,0.1,0.8-0.4,6
	l-0.9,10.4c-0.1,1-0.3,2-0.3,2.1c0-0.1,0.3-0.8,1.1-1.9l9-14.5c0,0,0.7,0.2,1.9,0.5c1.2,0.2,1.9,0.3,1.9,0.3l-1.5,16.2
	c-0.1,1.4-0.3,2.1-0.3,2.1s7.5-8.5,8.6-14.2c0.4-1.7-0.6-2.3-0.6-2.3s0.9-0.6,2.3-0.3c2,0.4,1.8,1.9,1.6,2.6
	C575,218.2,567.9,226.5,565,229.2z M592.5,224.8c-0.9,2.5-2.3,6.4-2.5,7.1c-0.1,0.6-0.1,1,0.4,1.6l0.4,0.4c0,0-1.1,1.3-3,0.9
	c-1.7-0.4-1.6-1.6-1.4-2.3c0.3-1.5,1.6-4.3,1.6-4.3c-3.9,5.6-6.5,5.3-8.3,5c-3.2-0.7-4.4-3.2-3.4-8c0.5-2.6,3.5-13.6,12.3-11.7
	c3.3,0.7,4.2,2.6,4.2,2.6l3.3-1C596.2,214.9,595.2,217.3,592.5,224.8z M588.6,215.7c-5.2-1.1-7.8,5.3-8.8,10
	c-0.6,2.8-0.5,4.8,1.8,5.3c1,0.2,2.8,0.4,6.3-2.9l3.9-10.8C591.7,217.3,591,216.2,588.6,215.7z M610.5,221.2
	c-0.4,1.3-0.8,2.4-0.8,2.4c-0.4-2.1-1.1-3.8-3.9-4.4c-2.5-0.5-3.6,0.6-3.8,2c-0.3,1.5,0.3,2.4,1.5,3.8l1.4,1.7
	c1.6,1.9,2.9,3.4,2.3,6.3c-0.3,1.7-2,5.4-7.8,4.2c-3.5-0.7-5.1-2.1-5.1-2.1s0.3-0.6,0.7-1.9c0.5-1.3,0.8-2.4,0.8-2.4
	c0.5,1.9,1,3.8,4.2,4.4c2.7,0.6,3.8-1.1,4-2.3c0.4-1.8-0.3-2.7-1.4-4L601,227c-1.9-2.2-2.5-3.8-2-6c0.6-3,3.1-4.8,7.4-3.9
	c3.3,0.7,4.8,2.1,4.8,2.1S611,219.9,610.5,221.2z M634.7,235.7c-4.2,11.7-4.3,12.4-4.4,12.8c-0.2,0.9-0.2,1.5-0.1,2.3l0.1,0.6
	c0,0-0.5-0.2-2.6-0.6c-2-0.4-2.7-0.5-2.7-0.5l0.6-0.6c1-1,1.5-2.3,3.2-7l0.3-0.8c0.8-2.2,1.8-4.5,1.8-4.5c-3.8,5.6-6.5,5.3-8.3,4.9
	c-3.3-0.7-4.5-3.2-3.5-8.1c0.5-2.6,3.5-13.6,12.4-11.7c3.2,0.7,4.2,2.6,4.2,2.6l3.4-1.1C639.1,224,638.5,225.2,634.7,235.7z
	 M631.4,224.7c-5.2-1.1-7.8,5.3-8.8,10c-0.6,2.8-0.5,4.8,1.8,5.3c1,0.2,2.8,0.4,6.3-2.9l3.9-10.8
	C634.6,226.3,633.9,225.3,631.4,224.7z M656,238.2c-0.9,2.5-2.3,6.4-2.5,7.1c-0.1,0.6-0.1,1,0.4,1.6l0.4,0.4c0,0-1.1,1.3-3,0.9
	c-1.7-0.4-1.6-1.6-1.4-2.3c0.3-1.5,1.6-4.3,1.6-4.3c-3.9,5.5-6.9,5.3-8.8,4.9c-4-0.8-3.4-3.8-3.1-5c0.5-2.3,3.8-10.5,4.2-12.6
	c0.2-0.9,0.3-1.6,0.1-2.3l-0.1-0.5l4.8,0.1c0,0-4.9,12.5-5.4,15.1c-0.2,1-0.5,2.6,1.8,3c2,0.4,3.9-0.5,6.5-2.9l1.5-4.1
	c1.2-3.2,1.8-5.1,2-6.2c0.2-0.9,0.3-1.6,0.1-2.3l-0.1-0.5l4.8,0.1C659.6,228.5,658.7,230.6,656,238.2z M665.8,239.8
	c-1.2,3.2-2.5,6.9-2.6,7.6c-0.1,0.6-0.1,0.9,0.4,1.5l0.4,0.4c0,0-1.2,1.3-3.1,0.9c-1.7-0.4-1.6-1.6-1.5-2.3
	c0.4-1.9,4.4-11.4,5.1-14.7c0.2-1,0.3-1.7,0.1-2.3l-0.2-0.5l4.7,0C669.2,230.5,668.2,233.2,665.8,239.8z M668.7,227.2
	c-1.7-0.4-1.9-1.6-1.7-2.4c0.3-1.2,1.2-2,2.7-1.7c1.7,0.4,1.9,1.6,1.7,2.3C671.1,226.7,670.1,227.5,668.7,227.2z M683.9,235.2
	c-0.3,0.9-0.4,1.4-0.4,1.4s-0.4-0.4-3.3-1.1l-2.3-0.5l-3.5,9.9c-0.3,0.8-0.7,2.3-0.9,2.9c-0.2,1.1-0.5,2.8,2,3.3
	c1.9,0.4,3.3-0.4,3.3-0.4s-1,3.1-5.4,2.2c-3.9-0.8-3.7-3.6-3.3-5c0.2-1.2,0.8-2.7,1.3-4.2c2.2-6.3,3.5-9.3,3.5-9.3l-2.4-0.5
	c0.1,0,1.6-0.8,3.4-2.4c1.9-1.7,3-3.1,3-3.1l1.2,0.3l-1.5,4.3l2.2,0.5c2.9,0.6,3.6,0.3,3.6,0.3S684.3,234.3,683.9,235.2z M690.1,247
	c-2.4-0.5-3.4-0.9-3.4-0.9s-0.2,0.7-0.3,1c-0.6,2.8-0.5,6,3.4,6.9s5.9-0.9,6.2-1.3c-0.3,1.4-2.3,4.7-7.6,3.5c-2.4-0.5-7-2-5.5-9.1
	c1.7-8,6.2-12.4,12.1-11.1c4.5,0.9,5.6,3.6,5,6.3C698.8,247.7,693.9,247.8,690.1,247z M694.1,237.8c-2.6-0.5-5,0.7-6.9,6.3
	c0,0,0.7,0.3,2.9,0.8c3.8,0.8,5.8-0.3,6.4-3.4C696.8,240.1,696.6,238.3,694.1,237.8z M304.2,215.3c-1.9,2.9-4.1,6.1-4.4,6.8
	c-0.3,0.5-0.3,0.9,0,1.6l0.3,0.5c0,0-1.4,0.9-3.2,0.1c-1.6-0.8-1.2-1.9-0.9-2.6c0.8-1.7,7.1-10,8.5-13c0.4-0.9,0.7-1.6,0.6-2.2
	l0-0.5l4.6,1.2C309.7,207.1,308.1,209.4,304.2,215.3z M310,203.7c-1.6-0.8-1.4-2-1.1-2.7c0.5-1.1,1.7-1.6,3-1c1.6,0.8,1.4,2,1.1,2.7
	C312.5,203.9,311.4,204.4,310,203.7z M322.8,224.6l-5,7.6c-1.5,2.3-2.9,4.6-5.5,5.4c-2.2,0.7-4.5,0.1-6.9-1.1
	c-3.8-1.8-5.5-3.5-5.5-3.5s0.6-0.6,1.3-1.7c0.9-1.2,1.4-2.2,1.4-2.2c0.1,2.7,0.4,3.9,3.4,5.3c4.1,2,6.1,0.5,8.2-2.7l0.6-0.9
	c1.3-2,2.7-3.8,2.7-3.8c-5.1,4.4-7.6,3.5-9.2,2.8c-3-1.5-3.6-4.2-1.5-8.6c1.2-2.4,6.7-12.3,14.8-8.4c3,1.5,3.5,3.6,3.5,3.6l3.5-0.2
	C328.7,216.2,326.9,218.3,322.8,224.6z M321,215c-4.8-2.4-8.9,3.3-11,7.5c-1.3,2.6-1.6,4.5,0.5,5.6c0.9,0.4,2.7,1.1,6.9-1.3l6.3-9.5
	C323.7,217.3,323.3,216.1,321,215z M337.1,240.2c-0.3,0.5-0.3,0.9,0,1.6l0.3,0.5c0,0-1.4,0.9-3.2,0.1c-1.6-0.8-1.2-2-0.9-2.6
	c0.8-1.6,6.6-9.4,7.9-12c0.3-0.7,1-2.2-1-3.1c-1.9-0.9-3.9-0.5-7,1.1l-2.4,3.7c-4.3,6.4-5.3,8.2-5.3,8.2s-0.6-0.4-1.6-0.9
	c-0.8-0.4-1.6-0.7-1.6-0.7s1.4-1.9,5.9-8.5c2-2.9,3.4-5.1,3.8-6c0.3-0.6,0.6-1.4,0.5-2.1l0-0.4l4.5,1.2l-3.7,5.3
	c5.1-4.4,8-3.4,9.6-2.6c3.7,1.8,2.5,4.5,1.9,5.7C343.6,230.8,338,238.5,337.1,240.2z M347.4,249c-5.2-2.5-4.8-6.6-2.6-11.2
	c1.3-2.7,6.5-10.5,13.7-7c5.2,2.5,4.8,6.6,2.6,11.2C359.8,244.7,354.5,252.4,347.4,249z M357.5,232.7c-4.6-2.2-8.8,5-9.8,7.1
	c-2.6,5.2-0.8,6.6,0.7,7.3c4.6,2.2,8.8-5,9.8-7.1C360.8,234.8,359.1,233.4,357.5,232.7z M378,243.3c-1,1.5-1.3,2-1.3,2
	c0-1.4-0.2-2.3-1.4-2.9c-2.3-1.1-5.6,1.6-5.6,1.6l-2.4,3.6c-4.3,6.4-5.2,8.2-5.2,8.2s-0.6-0.4-1.6-0.9c-0.8-0.4-1.6-0.7-1.6-0.7
	s1.4-1.9,5.9-8.5c1.9-2.9,3.3-5.2,3.8-6.1c0.3-0.6,0.6-1.4,0.5-2.1l0-0.4l4.5,1.2l-3.9,5.5c3.1-3.2,5.9-4.6,8.1-3.6
	c1.3,0.6,1.6,1.4,1.6,1.4S378.9,242,378,243.3z M389.7,257.5c-1.5,2.2-3.8,5.6-4.1,6.3c-0.3,0.5-0.4,0.9,0,1.6l0.3,0.5
	c0,0-1.4,1-3.1,0.1c-1.6-0.8-1.1-1.9-0.8-2.5c0.7-1.4,2.7-3.8,2.7-3.8c-5.1,4.4-7.6,3.6-9.2,2.8c-3-1.5-3.5-4.2-1.4-8.6
	c1.2-2.4,6.7-12.4,14.8-8.4c3,1.5,3.4,3.5,3.4,3.5l3.5-0.2C395.6,248.8,394.2,250.8,389.7,257.5z M388.1,247.7
	c-4.8-2.4-8.9,3.3-11,7.5c-1.3,2.6-1.6,4.5,0.5,5.5c0.9,0.4,2.6,1,6.8-1.3l6.4-9.5C390.8,250,390.3,248.8,388.1,247.7z M404.6,273.1
	c-0.3,0.5-0.3,0.9,0,1.6l0.3,0.5c0,0-1.4,0.9-3.2,0.1c-1.6-0.8-1.2-2-0.9-2.6c0.8-1.6,6.6-9.4,7.9-12c0.3-0.7,1-2.2-1-3.1
	c-1.9-0.9-3.9-0.5-7,1.1l-2.4,3.7c-4.3,6.4-5.3,8.2-5.3,8.2s-0.6-0.4-1.6-0.9c-0.8-0.4-1.6-0.7-1.6-0.7s1.4-1.9,5.9-8.5
	c2-2.9,3.4-5.1,3.8-6c0.3-0.6,0.6-1.4,0.5-2.1l0-0.4l4.5,1.2l-3.7,5.3c5.1-4.4,8-3.4,9.6-2.6c3.7,1.8,2.5,4.5,1.9,5.7
	C411.1,263.7,405.4,271.4,404.6,273.1z M427.6,266.3c-0.5,0.8-0.8,1.2-0.8,1.2s-0.3-0.5-2.9-1.8l-2.1-1l-5.8,8.8
	c-0.4,0.7-1.3,2.1-1.5,2.6c-0.5,1-1.1,2.6,1.1,3.7c1.8,0.9,3.3,0.4,3.3,0.4s-1.7,2.8-5.8,0.8c-3.6-1.8-2.7-4.4-2-5.7
	c0.5-1.1,1.4-2.5,2.3-3.7c3.7-5.5,5.7-8.2,5.7-8.2l-2.2-1.1c0.1,0,1.7-0.4,3.9-1.5c2.3-1.1,3.7-2.2,3.7-2.2l1.1,0.6l-2.5,3.8l2,1
	c2.7,1.3,3.4,1.2,3.4,1.2S428.2,265.5,427.6,266.3z M446.7,285.3c-1.5,2.2-3.8,5.6-4.1,6.3c-0.3,0.5-0.4,0.9,0,1.6l0.3,0.5
	c0,0-1.4,1-3.1,0.1c-1.6-0.8-1.1-1.9-0.8-2.5c0.7-1.4,2.7-3.8,2.7-3.8c-5.1,4.4-7.6,3.6-9.2,2.8c-3-1.5-3.5-4.2-1.4-8.6
	c1.2-2.4,6.7-12.4,14.8-8.4c3,1.5,3.4,3.5,3.4,3.5l3.5-0.2C452.6,276.6,451.2,278.6,446.7,285.3z M445.1,275.5
	c-4.8-2.4-8.9,3.3-11,7.5c-1.3,2.6-1.6,4.5,0.5,5.5c0.9,0.4,2.6,1,6.8-1.3l6.4-9.5C447.7,277.8,447.3,276.6,445.1,275.5z M465,286.2
	c-0.7,1.2-1.3,2.2-1.3,2.2c0.1-2.1-0.1-4-2.7-5.3c-2.3-1.1-3.6-0.3-4.2,1c-0.7,1.4-0.3,2.4,0.5,4.1l1,2c1.1,2.2,2,4,0.7,6.7
	c-0.7,1.5-3.3,4.8-8.6,2.2c-3.2-1.6-4.4-3.3-4.4-3.3s0.4-0.5,1.1-1.7c0.8-1.2,1.3-2.2,1.3-2.2c0,1.9,0.1,3.9,3,5.3
	c2.5,1.2,3.9-0.1,4.5-1.2c0.8-1.6,0.3-2.7-0.4-4.2l-1.1-2.2c-1.3-2.6-1.5-4.3-0.5-6.3c1.3-2.7,4.2-3.9,8.1-2c3,1.5,4.2,3.2,4.2,3.2
	S465.8,285,465,286.2z M486.4,295c-0.5,0.8-0.8,1.2-0.8,1.2s-0.3-0.5-2.9-1.8l-2.1-1l-5.8,8.8c-0.4,0.7-1.3,2.1-1.5,2.6
	c-0.5,1-1.2,2.6,1.1,3.7c1.8,0.9,3.3,0.4,3.3,0.4s-1.7,2.8-5.8,0.8c-3.6-1.8-2.7-4.4-2-5.7c0.5-1.1,1.4-2.5,2.3-3.7
	c3.7-5.5,5.7-8.2,5.7-8.2l-2.2-1.1c0.1,0,1.7-0.4,3.9-1.5c2.3-1.1,3.7-2.2,3.7-2.2l1.1,0.6l-2.5,3.8l2,1c2.7,1.3,3.4,1.2,3.4,1.2
	S487,294.2,486.4,295z M485.5,316.3c-5.2-2.5-4.8-6.6-2.6-11.2c1.3-2.7,6.5-10.5,13.7-7c5.2,2.5,4.8,6.6,2.6,11.2
	C498,312,492.7,319.8,485.5,316.3z M495.7,300.1c-4.6-2.2-8.8,5-9.8,7.1c-2.6,5.2-0.8,6.6,0.7,7.3c4.6,2.2,8.8-5,9.8-7.1
	C498.9,302.2,497.2,300.8,495.7,300.1z M522.6,333.4l-0.6,0.3c0,0-0.6-0.4-1.6-0.9c-1-0.5-1.7-0.7-1.7-0.7l5.1-14.4
	c0.4-1.1,0.8-2.1,0.9-2.2c-0.1,0.1-0.7,0.9-1.6,1.9l-11.6,11.2c0,0-0.6-0.4-1.8-1c-1.2-0.6-2-0.9-2-0.9l5.1-15.6
	c0.4-1.4,0.4-2.5,0.3-3.2l-0.1-0.7l4.2,1c0,0-0.1,0.8-1.9,5.7l-3.4,9.9c-0.3,0.9-0.8,1.9-0.8,2c0-0.1,0.5-0.7,1.5-1.6l12.3-11.9
	c0,0,0.6,0.4,1.7,0.9c1.1,0.5,1.8,0.8,1.8,0.8l-5.4,15.3c-0.5,1.3-0.8,2-0.8,2s9.3-6.5,11.8-11.7c0.8-1.6,0-2.4,0-2.4
	s1.1-0.4,2.4,0.3c1.8,0.9,1.2,2.3,0.9,2.9C534.9,325.2,526.1,331.5,522.6,333.4z M546.6,342.4c-0.3,0.5-0.3,0.9,0,1.6l0.3,0.5
	c0,0-1.4,0.9-3.2,0.1c-1.6-0.8-1.2-2-0.9-2.6c0.8-1.6,6.6-9.4,7.9-12c0.3-0.7,1-2.2-1-3.1c-1.9-0.9-3.9-0.5-7,1.1l-2.4,3.7
	c-4.3,6.4-5.3,8.2-5.3,8.2s-0.6-0.4-1.5-0.8c-0.8-0.4-1.7-0.8-1.7-0.8s1.6-2.2,6.8-9.9c3.8-5.6,6.4-9.6,7.1-10.9
	c0.4-0.9,0.7-1.5,0.6-2.2l0-0.5l4.7,1.3c0,0-1.8,2.4-5,7.2l-0.4,0.7c-1.4,2.1-2.8,3.8-2.8,3.8c5.1-4.4,8-3.4,9.6-2.6
	c3.7,1.8,2.5,4.5,1.9,5.7C553.1,333,547.5,340.7,546.6,342.4z M560.7,342.6c-2.2-1.1-3.1-1.7-3.1-1.7s-0.4,0.6-0.5,0.9
	c-1.3,2.6-2,5.7,1.6,7.5c3.6,1.8,5.9,0.6,6.3,0.2c-0.6,1.3-3.4,4-8.3,1.6c-2.2-1.1-6.3-3.7-3.1-10.2c3.6-7.4,9-10.5,14.4-7.9
	c4.1,2,4.5,4.9,3.3,7.4C569,345.5,564.2,344.3,560.7,342.6z M566.8,334.7c-2.4-1.2-5-0.6-8.2,4.4c0,0,0.6,0.5,2.6,1.5
	c3.5,1.7,5.7,1.1,7.1-1.8C568.8,337.6,569.1,335.8,566.8,334.7z M586.1,344.8c-1,1.5-1.3,2-1.3,2c0-1.4-0.2-2.3-1.4-2.9
	c-2.3-1.1-5.6,1.6-5.6,1.6l-2.4,3.6c-4.3,6.4-5.2,8.2-5.2,8.2s-0.6-0.4-1.6-0.9c-0.8-0.4-1.6-0.7-1.6-0.7s1.4-1.9,5.9-8.5
	c1.9-2.9,3.3-5.2,3.8-6.1c0.3-0.6,0.6-1.4,0.5-2.1l0-0.4l4.5,1.2l-3.9,5.5c3.1-3.2,5.9-4.6,8.1-3.6c1.3,0.6,1.6,1.4,1.6,1.4
	S587,343.5,586.1,344.8z M589.2,356.5c-2.2-1.1-3.1-1.7-3.1-1.7s-0.4,0.6-0.5,0.9c-1.3,2.6-2,5.7,1.6,7.5c3.6,1.8,5.9,0.6,6.3,0.2
	c-0.6,1.3-3.4,4-8.3,1.6c-2.2-1.1-6.3-3.7-3.1-10.2c3.6-7.4,9-10.5,14.4-7.9c4.1,2,4.5,4.9,3.3,7.4
	C597.5,359.4,592.7,358.2,589.2,356.5z M595.4,348.6c-2.4-1.2-5-0.6-8.2,4.4c0,0,0.6,0.5,2.6,1.5c3.5,1.7,5.7,1.1,7.1-1.8
	C597.4,351.6,597.7,349.7,595.4,348.6z M621,354.1c-1.4,0.9-1.8,1.1-7.7,10.1c-1.5,2.3-4.4,6.8-5.1,8.2c-0.5,1-0.6,1.6-0.7,2.3
	l0,0.7c0,0-0.6-0.4-2.6-1.3c-1.9-0.9-2.7-1.2-2.7-1.2l0.6-0.4c1.4-0.9,1.8-1.1,7.7-10.1c1.5-2.3,4.4-6.8,5.1-8.2
	c0.5-1,0.6-1.6,0.7-2.3l0-0.7c0,0,0.6,0.4,2.5,1.3c1.9,0.9,2.7,1.2,2.7,1.2L621,354.1z M637.9,389.6l-0.6,0.3c0,0-0.6-0.4-1.6-0.9
	c-1-0.5-1.7-0.7-1.7-0.7l5.1-14.4c0.4-1.1,0.8-2.1,0.9-2.2c-0.1,0.1-0.7,0.9-1.6,1.9l-11.6,11.2c0,0-0.6-0.4-1.8-1
	c-1.2-0.6-2-0.9-2-0.9l5.1-15.6c0.4-1.4,0.4-2.5,0.3-3.2l-0.1-0.7l4.2,1c0,0-0.1,0.8-1.9,5.7l-3.4,9.9c-0.3,0.9-0.8,1.9-0.8,2
	c0-0.1,0.5-0.7,1.5-1.6l12.3-11.9c0,0,0.6,0.4,1.7,0.9c1.1,0.5,1.8,0.8,1.8,0.8l-5.4,15.3c-0.5,1.3-0.8,2-0.8,2s9.3-6.5,11.8-11.7
	c0.8-1.6,0-2.4,0-2.4s1.1-0.4,2.4,0.3c1.8,0.9,1.2,2.3,0.9,2.9C650.2,381.5,641.4,387.8,637.9,389.6z M665.6,392.1
	c-1.5,2.2-3.8,5.6-4.1,6.3c-0.3,0.5-0.4,0.9,0,1.6l0.3,0.5c0,0-1.4,1-3.1,0.1c-1.6-0.8-1.1-1.9-0.8-2.5c0.7-1.4,2.7-3.8,2.7-3.8
	c-5.1,4.4-7.6,3.6-9.2,2.8c-3-1.5-3.5-4.2-1.4-8.6c1.2-2.4,6.7-12.4,14.8-8.4c3,1.5,3.4,3.5,3.4,3.5l3.5-0.2
	C671.6,383.4,670.1,385.4,665.6,392.1z M664.1,382.3c-4.8-2.4-8.9,3.3-11,7.5c-1.3,2.6-1.6,4.5,0.5,5.5c0.9,0.4,2.6,1,6.8-1.3
	l6.4-9.5C666.7,384.6,666.3,383.4,664.1,382.3z M684,393c-0.7,1.2-1.3,2.2-1.3,2.2c0.1-2.1-0.1-4-2.7-5.3c-2.3-1.1-3.6-0.3-4.2,1
	c-0.7,1.4-0.3,2.4,0.5,4.1l1,2c1.1,2.2,2,4,0.7,6.7c-0.7,1.5-3.3,4.8-8.6,2.2c-3.2-1.6-4.4-3.3-4.4-3.3s0.4-0.5,1.1-1.7
	c0.8-1.2,1.3-2.2,1.3-2.2c0,1.9,0.1,3.9,3,5.3c2.5,1.2,3.9-0.1,4.5-1.2c0.8-1.6,0.3-2.7-0.4-4.2l-1.1-2.2c-1.3-2.6-1.5-4.3-0.5-6.3
	c1.3-2.7,4.2-3.9,8.1-2c3,1.5,4.2,3.2,4.2,3.2S684.8,391.8,684,393z M679.6,411.5l-1.1-3.9l4.2-1.1l1.1,3.9L679.6,411.5z
	 M686.1,414.7l-1.1-3.9l4.2-1.1l1.1,3.9L686.1,414.7z M692.5,417.8l-1.1-3.9l4.2-1.1l1.1,3.9L692.5,417.8z"/>
</svg>
