<?xml version="1.0" encoding="utf-8"?>
<!-- Generator: Adobe Illustrator 22.1.0, SVG Export Plug-In . SVG Version: 6.00 Build 0)  -->
<svg version="1.1" id="Layer_1" xmlns:svg="http://www.w3.org/2000/svg"
	 xmlns="http://www.w3.org/2000/svg" xmlns:xlink="http://www.w3.org/1999/xlink" x="0px" y="0px" viewBox="0 0 605 597"
	 style="enable-background:new 0 0 605 597;" xml:space="preserve">
<style type="text/css">
	.st0{fill:none;stroke:#E8D7D7;stroke-width:10;stroke-linecap:round;stroke-linejoin:round;}
</style>
<path class="st0" d="M229.9,492.2c-95.7-41.8-122-134.1-122-184.9c0-124.8,100.8-199.8,193-199.8c120.3,0,192.3,97.2,192.3,185.6
	c0,97.2-66.1,149.6-117.8,169.6c-15.6,6.5-25.7,21.6-25.7,38.5c0,23,18.7,41.7,41.7,41.7c5.5,0,10.9-1.1,16-3.2
	c74-29.4,165.8-109.5,165.8-247.2c0-126.2-102-265-272.8-265c-130.4,0-272.4,105.4-272.4,280.3c0,73.7,38.9,199.4,172.5,256.7
	c9.4,3.8,19.4,5.8,29.5,5.8c43.1,0,78.1-35,78.1-78.1v-60.9 M310.3,312.2c8.7,1.4,22.6-3.3,23.4-17c0-14.9-13-28.2-30-28.2
	c-19.2,0-36.1,15.8-36.1,37.5c0,22.8,16.7,47.1,45.2,47.1c29.9,0,60.5-21.4,60.5-56.7c0-35.5-29.3-67.7-70.7-67.7
	c-39.2,0-74.9,32.3-74.9,78.4c0,42,33.2,85.9,86,85.9c49,0,99.4-37.5,99.4-97.5c0-46.7-38.2-106.7-111.4-106.7
	c-50.5,0-114,41.2-114,119c0,54.8,42.7,125.1,126.6,125.1c62.2,0,138.7-47.6,138.7-138c0-67.5-55-146.1-151.9-146.1
	c-70.6,0-153.4,57.5-153.4,159.5c0,40.5,19.6,115,96.8,149.2c14.7,6,24.3,20.3,24.3,36.2c0,21.6-17.5,39.1-39.1,39.1
	c-5.1,0-10.1-1-14.8-2.9C100.5,478.7,67.9,369,67.9,307.5c0-148.6,120-240.1,232.7-240.1c144.2,0,232.6,116.5,232.6,225.2
	c0,118.4-78.9,183.7-141.8,208.5"/>
</svg>
