<?xml version="1.0" encoding="utf-8"?>
<!-- Generator: Adobe Illustrator 22.1.0, SVG Export Plug-In . SVG Version: 6.00 Build 0)  -->
<svg version="1.1" id="Layer_1" xmlns="http://www.w3.org/2000/svg" xmlns:xlink="http://www.w3.org/1999/xlink" x="0px" y="0px"
	 viewBox="0 0 3126.4 3123.4" style="enable-background:new 0 0 3126.4 3123.4;" xml:space="preserve">
<style type="text/css">
	.st0{fill:#E8D7D7;}
</style>
<path class="st0" d="M1761.8,1106.7c0-49,0.3-98,0-146.9c-0.4-49.2-2-98.3-2-147.4c0-29.7,2.9-59.4,3.1-89.1
	c0.1-21.2-2.7-42.4-3-63.7c-0.3-20.6,1-41.2,1.7-61.8c0.9-27.6,1.9-55.2,2.6-82.9c1.1-44.1,2.5-88.2,2.7-132.3
	c0.2-40.1-0.6-80.3-2-120.4c-0.5-13.1,3.6-16.6,16.5-16.4c36.4,0.6,72.8-0.6,109.1-0.3c27.4,0.2,54.9,2.1,82.3,2
	c40.2-0.1,80.3-1.6,120.5-1.9c25.5-0.2,51,1.3,76.5,1.2c28.1-0.1,56.2-1.3,84.3-1.6c34.2-0.4,68.3-0.4,102.5-0.3
	c27.9,0.1,55.9,0.5,83.8,1.1c42.9,0.9,85.8,2.2,128.7,2.9c39.5,0.6,79.1,0.8,118.6,0.9c22.6,0.1,45.2,0,67.8-0.8
	c28.8-1.1,57.5-3.9,86.3-4.3c23.1-0.3,46.3,1.7,69.5,3.5c1.9,0.1,4.8,5.7,4.8,8.8c-0.4,65-1.4,129.9-1.8,194.9
	c-0.2,35.9,1,71.9,0.8,107.8c-0.2,32.8-2.2,65.5-2.1,98.3c0.2,36.9,2.4,73.9,2.6,110.8c0.2,43.3-1,86.6-1.1,129.9
	c-0.1,47.2,0.8,94.4,0.5,141.6c-0.2,31.4-2.1,62.8-2.5,94.2c-0.3,27.3,0.5,54.6,0.7,81.9c0.4,43.4,0.8,86.8,0.8,130.2
	c0,2.2-3.4,6.3-5.3,6.4c-43.2,1.5-86.4,2.5-129.7,3.7c-29.1,0.8-58.2,2.3-87.4,2.7c-28.6,0.4-57.1-0.7-85.7-0.3
	c-23.8,0.3-47.6,1.9-71.4,2.7c-35.6,1.2-71.3,2.3-106.9,3.4c-28.7,0.9-57.5,1.8-86.2,2.3c-20,0.4-40,0.3-60-0.1
	c-1.6,0-4.5-3.7-4.6-5.8c-1-31.1-2.7-62.2-2.2-93.2c0.8-47.8,3.6-95.5,4.5-143.2c0.9-49.7-3.2-99.9,2.2-149
	c3.7-33.7-8-39.7-35.9-37.5c-18.7,1.5-37.4,2.5-56.1,2.3c-23.5-0.3-47-2.9-70.5-3.2c-43-0.6-86.1-1.8-129,0.5
	c-23.4,1.2-20-12.4-20.3-25.8c-0.7-35-1.6-69.9-1.5-104.9c0.2-43.4,1.7-86.9,1.9-130.3c0.3-58.8,0-117.7,0.1-176.5
	c0-9.4-0.7-18.9,1.1-28c0.8-3.9,7.2-9.5,11-9.5c47.1,0,94.2,1.5,141.3,1.5c53.8,0,107.5-1.4,161.3-1.4c53.6,0,107.3,1.2,160.9,1.2
	c26.5,0,53-2.2,79.6-2.6c24.2-0.4,48.5,0.8,72.7,0.3c28.8-0.7,57.5-2.7,86.2-3.9c9.6-0.4,19.3-1.1,28.6,0.5
	c4,0.7,10.2,6.9,10.2,10.6c-0.2,29-1.9,57.9-2.6,86.9c-0.7,30.6-1,61.2-1.1,91.8c-0.1,33.3,0.3,66.6,0.1,99.8
	c-0.3,43.7-0.7,87.3-1.5,131c-1,58.7-2.8,117.4-3.7,176.1c-0.4,25,0.4,49.9,1,74.9c0.3,11.6-2.1,15.3-16,14.3
	c-27.7-2-55.7,0-83.6,0.5c-28.3,0.5-56.6,1.1-84.8,1.7c-4.5,0.1-9.1,0.8-13.6,0.8c-29.7-0.2-29.6-0.3-29.2-39.2
	c0.5-64.7,0.6-129.4,1.5-194.1c0.9-61.3,2.7-122.6,3.7-183.9c0-2.7-4.9-7.8-7.6-7.8c-53.4-0.3-106.8-0.5-160.2,0.4
	c-38.5,0.6-76.9,2.6-115.3,4.6c-11,0.6-15.3-1.9-14.4-14.2c2.1-29.2,3.7-29.4,33.7-26.9c24.6,2,49.6-0.6,74.4-1.2
	c36.7-1,73.3-2.2,110-3.1c34.6-0.9,69.1-2.1,103.7-1.7c5,0.1,14.2,8.6,14.2,13.2c-0.4,61.5-2,123-3.7,184.4
	c-0.9,34-3.1,67.9-3.4,101.9c-0.4,40,0.1,80,2,119.9c0.1,3,13.7,7.8,21.1,7.8c41.2-0.3,82.3-1.6,123.4-3.5c3.7-0.2,9.9-7.1,10.1-11
	c1.3-27.1,1.5-54.3,1.5-81.4c0.1-35.6-0.6-71.1-0.3-106.7c0.3-31.7,1.8-63.4,2.1-95.1c0.4-41.4-0.6-82.8,0.1-124.2
	c0.6-31.5,3.6-63,4.2-94.6c0.5-28.3-0.6-56.6-1.6-85c-0.1-1.9-5.4-5.1-8.3-5.1c-47.9,0.1-95.9,1-143.8,0.8
	c-59.4-0.2-118.8-1.7-178.2-1.6c-39.7,0.1-79.3,2.4-119,3c-40.7,0.6-81.4,0.1-122.1,0.5c-30.6,0.3-61.4-0.4-91.5,3.5
	c-5.7,0.7-11.8,21.2-12.5,32.9c-2.2,34.1-1.7,68.3-2.3,102.4c-0.9,51.6-2,103.1-2.6,154.7c-0.4,28.5-0.3,57.1,0.2,85.6
	c0.2,8.2-4.4,18.8,13.3,18.2c46.3-1.7,92.8-0.9,139.2-0.6c30.8,0.2,61.7,1.6,92.5,2c18.6,0.2,37.2-1.5,55.7-0.5
	c5.3,0.3,14.7,6.9,14.7,10.5c-0.6,52.3-3,104.5-4,156.8c-0.9,46.2-0.3,92.5-0.8,138.7c-0.4,36.5-1.7,73-1.8,109.6c0,3.1,5.4,9,8.3,9
	c40.5-0.1,81.1-1.2,121.6-1.7c28.3-0.3,56.6,0.6,84.9,0.1c41.6-0.8,83.2-2.7,124.8-3.5c34.1-0.7,68.2-0.2,102.3-1
	c38.9-0.9,77.7-2.5,116.5-4.6c2-0.1,5.3-7.8,5.2-11.9c-0.8-54.6-2.5-109.3-3-163.9c-0.4-37.1,1-74.2,1.2-111.3
	c0.3-54,0-107.9,0.4-161.9c0.2-31.8,1.7-63.5,1.8-95.3c0-80.9-0.6-161.7-0.6-242.6c0-44.8,0.8-89.5,1.2-134.3
	c0.3-27.1-1.3-54.4,1.3-81.3c2.3-23.9-10.8-23.9-27.3-23.4c-39.4,1.2-78.8,2.8-118.2,2.6c-38.4-0.2-76.7-3.5-115.1-3.8
	c-41.2-0.4-82.4,1.6-123.6,1.7c-42.5,0.1-85.1-1.3-127.6-1c-29.8,0.2-59.7,3.2-89.5,3.2c-32.6,0-65.1-2-97.7-3.1
	c-21.8-0.7-43.5-1.8-65.3-1.8c-28,0.1-56.1,1.4-84.1,1.6c-33.3,0.2-66.7-0.2-100.1-0.3c-39.6-0.1-79.2-0.7-118.8,0.2
	c-4.1,0.1-11.3,8.7-11.5,13.6c-1.8,46.9-2.6,93.8-3.2,140.7c-0.5,40.6-0.1,81.3-0.4,121.9c-0.4,48.7-1.4,97.3-1.9,146
	c-0.7,64-1.4,128.1-1.5,192.1c-0.1,63.5,0.4,127,1.2,190.5c0,2.8,5.8,7.7,9.2,7.9c23.8,1.6,47.7,3.3,71.5,2.9
	c37.5-0.6,74.9-3.2,112.4-4.3c22.3-0.6,44.7,0.2,67,0.2c17.7,0,35.6,1.7,52.9-1c24.8-3.9,22.8,11.7,22.8,26.9
	c0,37.3,0.2,74.7-0.2,112c-0.3,32.9-1.6,65.8-2,98.7c-0.3,18.9,0.2,37.9,0.2,56.8c0.1,22.9-0.2,45.8,0.2,68.8
	c0.5,22.8,1,45.7,3.6,68.4c0.3,2.4,14,4.6,21.6,4.8c26.6,0.5,53.3,0.6,79.9-0.2c23-0.6,46-3.1,69.1-3.7c21.8-0.6,43.5,0,65.3,0.3
	c26.2,0.4,52.5,1.6,78.7,1.5c46.5-0.1,93.1-0.2,139.6-1.6c69.5-2.2,139-5.9,208.5-8.4c46.6-1.7,93.2-2.4,139.8-3.7
	c40.8-1.1,81.5-3,122.3-3.4c15.8-0.1,14.4-9.9,14.4-19.8c0.1-38.4,0-76.9,0.2-115.3c0.4-76.3,0.7-152.6,1.6-228.9
	c0.5-38.7,2.8-77.3,3.1-116c0.3-59.7-0.9-119.4-0.5-179.1c0.2-38.9,2.5-77.8,2.9-116.7c0.4-33.5-1.3-67-0.9-100.5
	c0.6-52.9,2.5-105.8,3.4-158.7c0.5-33.5-0.1-67,0.2-100.5c0.6-67.2,1.4-134.3,2.2-201.5c0.4-34.9-0.4-69.9,2-104.7
	c1.7-24-14.3-22.8-28.5-23.7c-22.2-1.4-44.6-1.1-66.9-1.1c-29.8,0-59.7,0.9-89.5,0.5c-49.5-0.7-99-2.5-148.5-3.2
	c-33.2-0.5-66.4,0.2-99.5,0.5c-38.1,0.2-76.2,0.2-114.2,0.9c-42.7,0.8-85.5,2.5-128.2,3.3c-84.6,1.5-169.3,3-253.9,3.6
	c-30.3,0.2-60.6-2.6-90.8-2.7c-37.9-0.1-75.7,1.5-113.6,1.7c-40.3,0.2-80.7-0.6-121-0.4c-70.6,0.3-141.3,0.9-211.9,1.4
	c-6.5,0-13.1-1.1-19.5-0.4c-17.5,2-13.4,16.1-13.7,26.9c-1.1,34.3-2.4,68.6-2.4,103c0,44.3,2.1,88.6,1.8,132.8
	c-0.3,43.7-3.1,87.3-3.5,131c-0.4,42.4,1.6,84.8,1.2,127.2c-0.3,39.1-3.1,78.1-3.4,117.2c-0.3,38.6,1.4,77.3,1.7,115.9
	c0.1,19.2-1.4,38.5-1.6,57.7c-0.3,30.2,0.3,60.3-0.1,90.5c-0.6,45.7-0.5,91.4-2.9,137.1c-1.9,35.3-3.3,35.9-39.4,36.6
	c-48.2,1-96.4,0.6-144.6,1.4c-32.3,0.5-64.5,2.7-96.8,3c-35.6,0.3-71.2-0.8-106.8-1.1c-21.1-0.1-42.2-0.2-63.3,1.1
	c-2.4,0.2-5.8,9.9-5.8,15.2c-0.7,61.3-1.2,122.5-1.2,183.8c0,45.4,0.8,90.8,0.9,136.3c0,1.8-3.3,5.3-5.1,5.3
	c-44.1,1.2-88.3,2.3-132.5,2.9c-30.5,0.4-61,0.6-91.5,0c-40.7-0.8-81.5-2.6-122.2-3.6c-44.7-1.1-89.4-2.4-134.1-2.7
	c-45.3-0.3-90.7,1.6-136,0.5c-44.8-1.1-89.5-5.4-134.3-7.1c-30.4-1.2-60.9-0.5-91.4-0.6c-10.3,0-20.8,0.6-31-0.6
	c-3.7-0.4-9.7-5.4-9.7-8.3c-0.2-32.9,0.9-65.8,1-98.7c0.1-30.5-0.6-60.9-0.9-91.4c-0.3-37.2,0-74.3-0.9-111.5
	c-0.4-18.5-4.3-36.9-4.3-55.4c0-25.6,2.2-51.3,3.2-76.9c0.5-13.3,0.7-26.7,0.7-40.1c0-22.5-0.2-45-0.5-67.5
	c-0.3-20.9-1.4-41.9-1.5-62.8c-0.1-22.6,0.8-45.3,0.7-67.9c-0.3-37.4-1.8-74.8-1.6-112.2c0.3-48.3,2.9-96.6,2.5-144.9
	c-0.8-81.5-3.2-163-4.9-244.5c-0.5-22.1-2.3-44.2-0.6-66.1c0.3-4.2,14.3-10.3,22.1-10.5c45.5-0.7,90.9-0.1,136.4,0.6
	c78.8,1.2,157.5,3.5,236.3,4.2c81.3,0.8,162.6,0.6,243.9,0.3c41.8-0.1,83.6-1.6,125.5-2.2c40.3-0.6,80.6-0.9,121-1.3
	c35.5-0.4,70.9-1,106.4-1.1c45-0.1,90-0.1,135,0.8c3.7,0.1,10.3,6.7,10.4,10.3c0.2,54.7-0.5,109.4-1,164.1
	c-0.4,40.4-1,80.8-1.3,121.2c-0.5,62.9-0.9,125.7-1.2,188.6c-0.3,65.4,0.1,130.7-0.5,196.1c-0.3,28.2-2.3,27.4-44.2,25.6
	c-35.5-1.5-71.1,1.1-106.7,1.1c-34.3,0-68.6-1.3-102.9-1.6c-22.1-0.2-44.3,0.6-66.4,0.4c-32.5-0.3-65.1-0.8-97.6-1.9
	c-14.2-0.5-21.8,2-21.4,19.4c1.2,48.2,0.7,96.5,0.2,144.8c-0.5,40.3-2,80.7-2.8,121c-0.1,3.8,1.9,7.7,1.6,11.5
	c-3.1,38.4-3.1,37.1-47.7,33.6c-30.1-2.3-60.6,0-90.9-0.3c-45.7-0.4-91.5-1.7-137.2-1.9c-34-0.2-68.1,0.8-102.1,1.2
	c-31.4,0.4-62.8,0.9-94.2,0.8c-2.2,0-6.2-4.5-6.2-7c0.1-45.2,0.5-90.4,1.2-135.6c0.6-38.7,2.4-77.5,2.3-116.2
	c-0.1-35.3-2.5-70.6-2.8-105.9c-0.4-37.3,0.5-74.7,0.5-112.1c0-35.3-0.9-70.6-0.4-105.9c0.6-39.5,2.4-79.1,3.4-118.6
	c0.8-29.7,2.5-59.4,1.3-89c-1.2-30,19.8-18.2,32.8-18.6c29.1-0.7,58.3,0.5,87.4,1.2c18.9,0.4,37.8,1.8,56.6,2
	c36.8,0.3,73.6-0.1,110.5,0.2c28.9,0.2,57.8,1.3,86.6,1.7c61.5,0.9,123,2.3,184.5,2.4c36.6,0,73.2-2,109.8-3.1
	c30.8-1,17.5,23.7,18.4,36.1c2.4,31.4,0.2,63.1,0.2,94.7c0,34,1.4,68.1,0.1,102c-1.2,33.7-2.3,33-37.8,32.3
	c-38.9-0.8-77.8-0.1-116.7-0.2c-33.1,0-66.1-0.3-99.2-0.1c-43.3,0.2-86.5,0.9-129.8,1.2c-5.2,0-10.5-1.8-15.6-1.3
	c-32.5,3.3-33.3,5.5-32.5,37.3c0.8,32.8-1,65.7-0.5,98.5c0.7,48.9,2.5,97.8,3.7,146.6c0.2,9.9,1.8,20.4-1,29.4
	c-1.2,3.8-12.1,5.1-18.8,6.5c-19.3,3.9-22.9-4.1-21.6-22.9c2-27.1-1.4-54.5-1.6-81.7c-0.1-23.8,1.4-47.5,1.7-71.3
	c0.2-15.6-1.1-31.2-0.9-46.7c0.2-15.1,2-30.2,2.2-45.3c0.3-25.6-0.6-51.2-0.1-76.8c0.5-26.3,21.4-13.3,32.3-14
	c34.2-2.1,68.7-1.8,103-1.2c36.6,0.6,73.2,3.2,109.8,3.5c27.9,0.3,55.9-1.9,83.9-2.3c25.6-0.4,51.3-1.8,76.6,0.6
	c20.6,2,21.6-9.3,21.7-23.5c0.2-41.4,0.1-82.8,0.2-124.2c0-8.1,3.7-20.5-0.2-23.5c-7.2-5.6-18.5-7.7-28.2-7.8
	c-43.7-0.5-87.4,0.9-131.1,0.2c-41.7-0.6-83.3-3.2-125-4.5c-35.2-1.1-70.4-2.2-105.6-2.2c-58.1,0-116.3,0.8-174.4,1.2
	c-12.1,0.1-29-4.3-35.1,1.9c-6.5,6.5-3,23.2-3.4,35.4c-1.7,53.8-3.7,107.5-4.8,161.3c-1.1,51.2-1.8,102.5-1.6,153.7
	c0.1,41.7,2.3,83.4,2.7,125.2c0.4,37.8-1,75.5-0.5,113.3c0.4,30.9,2.4,61.7,3.5,92.5c0.3,8.2-0.7,16.4,0.3,24.5
	c3.2,27.1,26,17.2,39.4,17.3c59.7,0.3,119.4-3.1,179.2-3.7c45.7-0.5,91.5,0.6,137.2,1.7c31.9,0.8,34.5-2,34.6-34.5
	c0.1-38,2.3-76,2.3-114c0-29.3-2.7-58.7-3.1-88c-0.3-28,0.6-55.9,1.8-83.9c0.1-2.5,5.9-6.9,9-6.8c60.3,0.5,120.6,2,180.9,2.4
	c23.2,0.2,46.4-2.3,69.6-2.5c24.8-0.1,49.6,1.6,74.5,1.6c32.8,0.1,65.6-0.1,98.3-1.8c3.3-0.2,8.5-11.5,8.7-17.8
	c1.9-54.1,3.3-108.2,4-162.3c0.7-57.7,0.6-115.4,0.5-173.1c-0.1-54.3-0.5-108.6-1.1-162.9c-0.3-31.6-1-63.2-2.3-94.7
	c-0.1-3.1-5.7-8.5-8.8-8.6c-32.8-0.3-65.5,0.9-98.3,0.6c-44.8-0.4-89.7-2.6-134.5-2.5c-41,0.1-82,3-122.9,3.4
	c-34.1,0.3-68.3-1.7-102.4-1.7c-37,0-74,1.5-111,1.5c-29.3,0-58.7-2.1-88-1.6c-27.5,0.4-55.1,4.2-82.6,4.3
	c-28.5,0-57.1-3.2-85.6-4.1c-29.5-0.9-59-0.8-88.5-1c-35.3-0.3-70.7,0.6-105.9-1.2c-18.5-1-23.5,5.7-22.9,22.9
	c1,32.5,0.5,65,0.5,97.5c0,52.7-0.4,105.3-0.1,158c0.2,33.1,1.9,66.2,1.7,99.2c-0.1,31.2-2.5,62.3-2.3,93.5
	c0.2,27.8,3.1,55.5,3.6,83.3c0.5,26-0.7,51.9-0.6,77.9c0.1,25.8,0.9,51.7,1.3,77.5c0.3,23.7,0.5,47.4,0.5,71.2
	c0,26.2-0.8,52.4-0.5,78.6c0.4,35.5,1.1,71,2.3,106.6c0.9,25.9,3.8,51.8,4,77.7c0.2,22-2.7,44-3.3,66c-0.5,19.4,0,38.8,1,58.1
	c0.1,2.9,5.1,7.8,8,7.9c26.5,1.1,53.1,1.1,79.7,1.8c27.5,0.7,55,1.9,82.6,2.4c31,0.6,62.1,0.6,93.1,1.1c22.9,0.4,45.7,1.2,68.6,1.6
	c32.5,0.5,65,0.3,97.5,1.3c33.5,1,67,3.4,100.5,4.3c21.2,0.6,42.5-1.1,63.8-0.8c29.8,0.4,59.6,2.1,89.5,2.6
	c20.8,0.3,41.7-0.5,62.5-1.2c10.7-0.3,21.5-2.9,32.1-2c19.8,1.7,26.5-6.2,25.4-25.6c-2-34.8-3.2-69.6-3.3-104.5
	c-0.1-41.1,1.4-82.2,2-123.2c0.4-25.7-0.1-51.5,1-77.2c0.2-3.8,6.8-10.6,10.4-10.5c30.2,0.3,60.3,3,90.5,2.9
	c33.6-0.1,67.2-3.2,100.8-3.7c51.6-0.8,103.3-0.1,154.9-0.7c31.5-0.4,62.9-1.6,94.3-3.9c3.2-0.2,7.9-10.9,8-16.7
	c0.9-65,1.2-130,1.3-194.9c0-47.6-0.8-95.1-0.8-142.7c0.1-43.4,1.2-86.8,1.3-130.2c0.1-46.6-1-93.1-0.8-139.7
	c0.2-48.5,1.8-97.1,2-145.6c0.3-56.1-0.4-112.3-0.3-168.4c0.1-29.9,1.4-59.7,0.9-89.6c-0.1-4.3-7.2-11.9-11.2-12
	c-60.9-1.7-121.8-2.9-182.6-3.2c-76.6-0.4-153.2,0.1-229.8,0.2c-46.5,0-92.9,0.4-139.4-0.2c-36.8-0.4-73.6-2.6-110.4-3.1
	c-56.8-0.8-113.5-0.9-170.3-1.2c-67.6-0.3-135.2,0-202.9-0.5c-75.5-0.6-151-2.2-226.6-2.5c-50-0.2-100,1.4-150,1.9
	c-18,0.2-36.2,0.9-54.1-0.8c-21.9-2-26,10-25.7,27.6c0.9,52.1,1.4,104.2,2.4,156.2c0.9,47.1,2.2,94.2,3.3,141.3
	c1.6,74.7,3.6,149.4,4.4,224.2c0.8,69.7-0.3,139.3,0.4,209c0.3,33.2,3.1,66.3,3.9,99.5c0.5,20.8-1.1,41.7-1.1,62.5
	c-0.1,28.6,0.2,57.2,0.6,85.8c0.7,47.5,1.2,95,2.4,142.6c0.9,35.5,3.3,71,4,106.4c0.5,24.3-1.2,48.5-1.2,72.8
	c0,32.9,1.1,65.8,1,98.7c0,26.4-1.4,52.8-1.5,79.1c-0.2,31.7-0.1,63.4,1.2,95.1c0.1,3.2,9,8.5,13.9,8.6c78.1,1,156.3,1.3,234.4,1.8
	c66.9,0.4,133.7,1.4,200.6,1.4c49,0,98.1-1.2,147.1-1.4c33.3-0.2,66.5,0.5,99.8,0.6c53.6,0.1,107.1-0.1,160.7,0.2
	c69.8,0.4,139.6,0.7,209.3,2.9c3.4,0.1,8.7,18.1,9,27.8c1.2,38.1,1,76.3,0.8,114.5c-0.3,44.4-1.8,88.8-1.6,133.2
	c0.2,44.2,1.6,88.4,3.3,132.6c0.1,2.3,8.3,6.2,12.7,6.3c34.6,0.1,69.3-0.5,103.9-1.2c39.4-0.8,78.8-1.9,118.1-2.8
	c25.3-0.6,50.6-0.4,75.8-1.7c24.8-1.3,12.3,18.5,12.6,25.9c1.4,41.7-0.5,83.5-0.9,125.3c-0.3,44.8,0.6,89.6-0.4,134.3
	c-1.1,48.9-3.9,97.7-5.5,146.5c-1.4,40.5-2.8,81-3.3,121.5c-0.5,44,0.8,87.9,0,131.9c-0.9,48.7-2.7,97.3-6,145.9
	c-0.2,3-16.6,6.6-25.6,6.9c-38.9,1.1-77.8,1.3-116.7,1.2c-37.9-0.1-75.8-1.6-113.7-1.7c-36.9-0.1-73.8,1.3-110.7,1.3
	c-22.2,0-44.4-1.4-66.6-2.1c-22.9-0.7-45.9-1.5-68.8-1.7c-29.7-0.3-59.4-0.4-89.2-0.3c-38.9,0.2-77.9,0.6-116.8,1.1
	c-33.7,0.5-67.3,1.5-101,1.8c-52,0.4-104,0.5-156,0.4c-37.1-0.1-74.2-1-111.2-0.9c-37.8,0.2-75.6,0.6-113.4,2.1
	c-13.8,0.5-16.9-5-16.7-17.2c1-61.5,1.7-122.9,2.1-184.4c0.4-58.4,0.9-116.8,0.1-175.2c-0.4-30.1-4.8-60.1-5.2-90.2
	c-0.4-27.8,2.9-55.7,3-83.6c0.1-37.9-1.7-75.9-1.7-113.8c-0.1-31.9,2-63.8,1.7-95.8c-0.3-29.6-3.4-59.2-3.9-88.9
	c-0.5-27.6,1.1-55.2,1.4-82.8c0.4-34.8,0.3-69.7,1.2-104.5c0.1-3.2,6.2-9,9.6-9.1c51.2-1.3,102.5-2.4,153.7-2.5
	c65.1,0,130.2,1.3,195.4,1.5c75.5,0.3,151.1-0.2,226.6,0c31.6,0.1,63.1,0.4,94.6,2.1c3.9,0.2,10.6,9.4,10.6,14.4
	c-0.2,40.4-2.4,80.7-2.7,121.1c-0.4,40.1,0.9,80.2,1,120.3c0.2,47.2-0.7,94.5,0.6,141.7c0.1,5.4,11.1,14.6,17.4,14.9
	c32.7,1.7,65.4,1.3,98.2,1.2c35.4,0,70.8-0.5,106.2-0.7c29.6-0.2,59.1-0.4,88.7,0.3c1.4,0,3.7,9,3.7,13.7c0,39.1-0.5,78.2-0.8,117.4
	c-0.4,48.5-1.1,97-0.9,145.5c0.2,39.7,1.7,79.4,2.4,119.2c0.3,13.4,0.9,26.8-0.4,40.1c-0.3,3.1-7.4,7.8-11.5,7.8
	c-28.8,0.5-57.6-0.1-86.4-0.1c-24.6,0-49.1,0.9-73.7,0.5c-33-0.5-66.1-2.3-99.1-2.5c-34.4-0.2-68.7,1-103.1,1.2
	c-31.1,0.2-62.2-0.6-93.4-0.3c-24.6,0.3-49.2,2.2-73.9,2.3c-27.7,0.1-55.3-1.3-83-1.6c-29.8-0.3-59.6-0.2-89.4,0
	c-22.6,0.1-45.2,0.8-67.8,0.2c-3.1-0.1-8.7-6.2-8.8-9.6c-1.1-41.6-1.9-83.1-1.7-124.7c0.2-35.4,2.3-70.8,2.5-106.2
	c0.2-41-1.1-81.9-1.1-122.9c0-25.6,2-51.1,1.7-76.7c-0.4-33.9-2.7-67.8-3-101.7c-0.3-34.1,0.2-68.3,2.7-102.3
	c0.2-2.8,18.8-6,28.7-5.9c48.6,0.6,97.1,2.6,145.7,3.6c26.5,0.5,53-0.3,79.4,0.4c2.8,0.1,8,5.5,8,8.5c0.2,40.4-0.3,80.8-0.6,121.2
	c-0.2,29.9-0.7,59.7-0.7,89.6c0.1,43.7,0.5,87.4,0.8,131.1c0.1,15.8,0,31.5,0.6,47.3c0.1,2.2,4.3,6.2,6.6,6.2
	c44.1,0.5,88.1,0.1,132.2,0.8c37.6,0.6,75.1,2.6,112.7,3.2c18.1,0.3,36.3-1.5,54.5-1.1c3.4,0.1,8.5,5.5,9.6,9.4
	c7.9,29.3-9.8,30.3-31.9,30c-67.7-1.1-135.4-0.8-203.1-1.1c-38.1-0.2-76.3,0-114.3-1.7c-3.4-0.2-8.7-13.4-8.7-20.6
	c-0.2-35.4,0.9-70.8,1.9-106.2c0.6-23,2.6-46,2.6-69c-0.1-21.9-2.8-43.8-2.9-65.7c-0.2-24.5,1.5-49.1,1.8-73.7
	c0.3-19.4,1-39-1.4-58.1c-0.5-4.3-13.4-9.8-20.8-10c-51-1.4-102.1-1.7-153.2-1.6c-3.2,0-9.1,6-9.2,9.2c-1.2,67.7-2.5,135.3-2.2,203
	c0.2,46.5,3.7,93,4.1,139.6c0.4,38.3-1.8,76.6-2.5,114.9c-0.5,32.7-0.7,65.4-0.2,98c0,2.1,6.5,5.9,10.1,6
	c39.4,0.6,78.8,0.6,118.2,0.8c40.6,0.2,81.3,0.1,121.9,0.6c29.4,0.3,58.7,1.8,88.1,2c50.8,0.2,101.5-0.3,152.3-0.3
	c36.7,0,73.4,0.8,110.2,0.5c34.2-0.3,68.4-1.3,102.6-2.5c2.4-0.1,6.4-4.6,6.5-7.3c1.4-26.5,2.1-53,3.2-79.5
	c0.9-22.1,3-44.2,3.1-66.3c0.1-22-2-44-2.4-66c-0.4-24.7-0.1-49.3,0-74c0.1-22.8,1.2-45.7-0.4-68.5c-0.2-3.4-12.5-8.5-19.2-8.6
	c-41.4-0.5-82.8-0.2-124.1,0.5c-37.8,0.7-75.6,2.2-113.4,3.4c-15.6,0.5-31.2,1.3-46.8,0.7c-3.2-0.1-8.8-5.9-8.8-9.2
	c-0.7-41,0.1-82-0.7-123c-0.8-43.6-3.3-87.2-4.1-130.8c-0.6-32.3,0.7-64.6,0.3-96.9c-0.3-17.6-2.1-35.2-4.3-52.7
	c-0.3-2.4-6.6-5.8-10.1-5.8c-29.8,0.5-59.6,2.7-89.4,2.6c-65.8-0.2-131.6-1.1-197.5-2.5c-28.9-0.6-57.8-4.6-86.7-4.4
	c-65.9,0.4-131.8,4.8-197.6,2.9c-32.5-0.9-22,20.9-23,34c-3,37.7-3.5,75.7-3.5,113.5c-0.1,66.1,0.9,132.3,1.5,198.4
	c0.4,47.2,0.4,94.4,1.5,141.6c0.7,31.2,3.9,62.4,4.2,93.6c0.4,36.3-1.8,72.7-1.7,109c0.1,52.9,1.5,105.9,1.5,158.8
	c0,36-2,72.1-1.5,108.1c0.1,5.1,8.9,14.3,13.9,14.5c48.9,1.7,97.9,2.1,146.8,2.5c39.1,0.4,78.1,0.2,117.2,0.4
	c50.1,0.3,100.3,1.1,150.4,1.1c54.7,0,109.3-0.9,164-0.9c32.3,0,64.6,1.1,97,1.4c30.8,0.3,61.6,0.1,92.4,0.2
	c53.3,0.1,106.7,0.5,160,0.4c46.9,0,93.7-0.5,140.6-0.8c6.1,0,12.4-1.1,18.3,0.1c30.5,6.2,29.7-13.7,30.2-34.3
	c1.5-57.5,4.3-115,5.6-172.5c1.2-56.6,0.8-113.3,1.8-169.9c0.7-39.5,3-78.9,3.8-118.4c0.7-31.3,0-62.6,0.3-93.9
	c0.3-37.5,0.8-75,1.4-112.4c0.2-15.8,0.4-31.5,1.5-47.3c1.1-16-5.4-22.1-21.6-21.8c-66.8,1.4-133.6,2-200.4,2.9
	c-30.8,0.4-61.6,1.3-92.4,1.1c-3.3,0-9.3-5.7-9.4-8.9c-1.8-52.6-3-105.2-4-157.7c-0.5-24.6,0.5-49.2-0.3-73.8c-0.9-28-3.8-56-4.6-84
	c-0.6-21.1,0.8-42.3,1.5-63.4c0.4-13.6-1.9-21.5-19.5-21.6c-47.8-0.1-95.6-3.6-143.4-4.3c-33.4-0.4-66.7,2.4-100.1,2.4
	c-32.6,0-65.2-2.4-97.8-2.5c-37.2-0.1-74.5,1.4-111.7,1.7c-31.3,0.2-62.6-0.3-93.9-0.5c-36.8-0.1-73.5-0.1-110.3-0.2
	c-44.1-0.1-88.2-0.1-132.3-0.1c-51.7,0-103.5,0-155.2-0.2c-19.6-0.1-39.3-1.3-58.8-0.3c-4.3,0.2-11.8,8-11.9,12.3
	c-0.6,50.8,0.1,101.6,0,152.4c-0.1,66.6-0.9,133.2-0.8,199.7c0.1,33.5,2.1,67,2.1,100.5c-0.1,34.2-2,68.3-2.4,102.5
	c-0.4,31.7,0.3,63.4,0.3,95.1c0,30-0.6,59.9-0.1,89.8c0.6,40.4,2.5,80.7,3,121.1c0.6,49.7-0.1,99.5,0.3,149.2
	c0.3,38.4,2.1,76.7,2.1,115.1c0,50.5-1.2,101.1-1.4,151.6c-0.1,27.4,0.2,54.8,1.2,82.1c0.8,21.7,19.9,14.3,29.9,14.7
	c39.3,1.4,78.7-0.5,118-0.7c57.5-0.3,115-0.1,172.6-0.2c49.8-0.1,99.6-0.1,149.3-0.3c38.5-0.2,77-0.6,115.6-1.2
	c44.5-0.7,89-1.8,133.5-2.3c43.9-0.5,87.7-0.4,131.6-0.4c31,0,62,0.5,93,0.6c38.2,0,76.4-0.7,114.6-0.2c40.8,0.6,81.5,2.8,122.3,3.3
	c32.1,0.4,64.2-1.4,96.3-1.1c43.4,0.4,86.8,2.3,130.1,2.8c43.4,0.5,86.8,0.1,130.2-0.4c2.3,0,6.4-5.4,6.4-8.3
	c0.9-42.8,0.9-85.6,1.7-128.4c0.9-46.9,2.9-93.8,3.8-140.7c0.7-36-0.4-72,0.8-108c1.3-37.8,5.1-75.5,6.4-113.3
	c1.4-40,0.9-80.1,1.5-120.2c0.6-38.5,1.9-77.1,2.4-115.6c0.3-27.2-0.5-54.5-0.2-81.7c0.4-34.1,1.5-68.2,2-102.4
	c0.8-54.2,2.6-108.5,1.7-162.7c-0.6-33.6,0.8-36.2,34.5-35.5c38.8,0.7,77.7-0.6,116.5-0.6c57.6,0,115.1-0.2,172.7,0.7
	c25.5,0.4,27.1-3.1,26.5-38.7c-0.7-41.6,1.7-83.2,2.6-124.7c0.8-34.7,1.4-69.5,1.9-104.2c0.9-58,2.2-116,2.3-174
	c0.1-29.6-2.6-59.1-3.1-88.7c-0.5-33.6,0.6-67.3,0.3-101c-0.3-28.4-0.3-56.9-3.6-84.9c-0.5-4.3-18.1-8.7-28-9.2
	c-21-0.9-42.1,0.5-63.2,1.3c-36.7,1.4-73.4,3.4-110.1,4.5c-18,0.5-36-0.5-54-0.6c-45.2-0.1-90.4,0.4-135.6,0
	c-51.2-0.5-102.5-2.5-153.7-2.5c-59.6-0.1-119.1,1-178.7,1.9c-24.3,0.3-19.3,19.4-19.1,33.2c0.8,46.9,3.5,93.7,4.3,140.5
	c1,55.4,0.2,110.8,1.1,166.1c0.7,43.4,3.4,86.7,4.1,130c0.6,38.4-0.8,76.9-0.4,115.3s2,76.9,2.9,115.3c0.2,6.2,0.2,12.4-0.4,18.5
	c-1.6,16.1,10.5,13.4,19.2,13.4c42.8,0.4,85.5,0.5,128.3,0c25.4-0.3,50.8-2.5,76.2-3.3c30.8-1,61.6-1.5,92.4-1.5
	c1.4,0,4.2,7.2,4.1,11c-0.6,45.1-1.4,90.2-2.6,135.4c-1.2,48-3.3,96.1-4.2,144.1c-1.2,61.6-1.1,123.2-2.4,184.8
	c-1,46.9-2.6,93.8-5.2,140.6c-2.7,48.5-7.7,96.8-10,145.2c-2.1,44.7-1.5,89.5-2.9,134.2c-1.6,50.4-4,100.7-6.4,151
	c-0.1,2.2-3.5,6.1-5.3,6.1c-23.8-0.1-47.7-1.1-71.5-1.2c-37.5-0.2-75,0.5-112.6-0.1c-24.1-0.4-48.1-2.9-72.1-3.4
	c-22.3-0.4-44.7,1.1-67.1,1.1c-38.9,0.1-77.8-0.5-116.7-0.5c-57.8,0-115.6,0.6-173.4,0.4c-48.1-0.2-96.3-1.7-144.4-1.7
	c-57,0-113.9,1.2-170.9,1.3c-35.1,0.1-70.2-1.4-105.3-1.2c-32.2,0.2-64.3,2-96.5,2.4c-38.2,0.5-76.4,0.2-114.5,0.4
	c-45.4,0.3-90.9,1-136.3,1.3c-9.9,0.1-17.6,1.5-16.5-15.6c2.5-40.1,0.6-80.4,0.4-120.7c-0.3-51.2-0.7-102.4-0.8-153.6
	c-0.1-46.9,0.3-93.8,0.4-140.7c0.1-52-0.2-103.9,0.3-155.9c0.2-22.3,3.6-44.6,3.3-66.8c-0.5-28.4-4.1-56.8-4.8-85.2
	c-0.6-25.3,1.6-50.6,1.5-75.9c-0.2-24.4-2.5-48.8-2.6-73.2c-0.1-30.1,2-60.2,1.8-90.3c-0.3-42.6-2.3-85.1-2.9-127.7
	c-0.8-49.9-1.5-99.7-0.3-149.5c0.1-3.1,17.9-7.9,27.5-8.1c37.7-0.6,75.4,0.2,113.2,0.7c30.5,0.4,61,1.3,91.5,1.9
	c28,0.6,56.1,1.5,84.1,1.6c49.6,0.2,99.3-0.7,148.9,0c37.4,0.5,74.8,3.4,112.2,4c41.7,0.7,83.4-0.1,125.1-0.1
	c40.5,0,81,0.3,121.5,0.1c21.8-0.1,43.6-1.3,65.4-1.9c10.2-0.3,16.6,0.3,15.8,15c-2,38.2-1,76.6-1.3,115
	c-0.3,37.3-1.4,74.6-1.2,111.9c0.2,31.4,2.2,62.8,2.6,94.3c0.3,20.5-1.3,41-1,61.5c0.1,3.8,5.5,10.9,8.4,10.9
	c61.2-0.4,122.4-2,183.6-2.7c35.7-0.4,71.4-0.1,107.1,1.3c4.5,0.2,12.2,9.4,12.2,14.5c-0.3,52.9-2.1,105.7-3,158.5
	c-0.9,60-1.3,119.9-1.9,179.9c-0.4,41.2-1.1,82.4-1.3,123.6c-0.2,33.1,0.4,66.1,0.4,99.2c0,16.6-0.6,33.2-1.6,49.8
	c-0.1,2.3-4,6-6.4,6.1c-20.5,1.3-41.1,2.7-61.7,2.7c-40.6,0.1-81.1-0.7-121.7-1c-31.6-0.2-63.2-0.5-94.8,0.1
	c-36.8,0.7-73.5,3-110.3,3.3c-26.4,0.2-52.9-2.2-79.3-2.6c-21.9-0.3-43.8,0.9-65.7,1c-31,0.2-62,0.2-93,0.1
	c-36.1-0.1-72.3-0.3-108.4-0.7c-33.1-0.4-66.2-1.9-99.3-1.6c-31.3,0.3-62.6,2.2-93.9,3.5c-16.7,0.7-33.3,1.8-50,2.1
	c-1.8,0-5.3-4.5-5.2-6.8c0.5-32.2,2.2-64.3,2.3-96.5c0-24.7-2.4-49.4-2.6-74.1c-0.4-46.6-0.4-93.1,0.2-139.7
	c0.4-28.6,3.2-57.3,3-85.9c-0.3-48.2-2.6-96.3-3.2-144.5c-0.4-29.9,1.6-59.9,1.3-89.8c-0.5-45.6-2.4-91.1-2.9-136.7
	c-0.2-20.8,0.5-41.7,3.3-62.2c0.4-3,14.5-6,22.2-6c59,0.5,118,2.2,177,2.7c41.9,0.3,83.9-1.1,125.8-1.2c39.1-0.1,78.1,0.7,117.2,1.1
	c2,0,4-0.1,5.9-0.4c26.7-4.5,28.8-1,27.4,25.4c-1.8,33-0.5,66.2-0.2,99.3c0.5,41.1,1.7,82.3,2,123.4c0.2,39.3-0.5,78.6-0.8,117.8
	c-0.1,6.1,0.6,12.4-0.6,18.3c-5.2,25.7,8.4,25,28.1,24c35.7-1.8,71.5,0.6,107.3,0.6c38.5,0,77-0.9,115.5-1.3
	c20.3-0.2,40.6-0.5,60.8,0.2c2.8,0.1,7.7,6,7.6,9.1c-0.8,31.7-2.8,63.4-3.6,95.1c-0.9,33.8-0.8,67.6-1.1,101.4
	c-0.4,33.4-5.5,35.3-39.7,32.2c-29.8-2.7-60.2,0.8-90.4,0.8c-23,0-46-2-69-1.9c-44.4,0.2-88.7,1.8-133.1,1.9
	c-33.9,0.1-67.7-1.4-101.6-1.6c-43.2-0.4-86.5,0-129.7-0.8c-3.8-0.1-10.7-7.1-10.7-10.9c-0.7-52.8-0.7-105.6-0.3-158.4
	c0.4-47.3,1.6-94.6,2.2-141.8c0.5-40.9,0.3-81.8,1.3-122.7c0.1-3.7,6.9-7.5,11-10.7c1.1-0.9,3.8,0.4,5.8,0.5
	c25.7,1,29.1,8.6,26.2,35c-3.5,31.4-2.3,63.3-3.1,94.9c-0.7,24.8-1.8,49.6-2,74.4c-0.3,38.5,0.1,76.9,0.2,115.4
	c0,21.8,2.8,44-0.7,65.3c-4.8,29.5,14.9,24.5,30.6,25.2c30.3,1.4,60.7,2.2,91.1,2.4c28.3,0.1,56.7-1.2,85-1.4
	c35.2-0.3,70.5-0.2,105.7-0.2c37.6,0.1,75.2,0.4,112.8,0.5c18,0.1,36-1.3,53.9-0.1c30.9,2.2,23.2-21,23.9-36.6
	c1.7-39.4,1.7-78.9,1.4-118.4c0-3.8-6.5-10.9-10.1-10.9c-60.7-1.5-121.5-2.7-182.3-2.9c-39.6-0.1-79.3,1.6-118.9,2.8
	c-12.2,0.4-16.7-1.2-15.2-16.5c2.7-25.8,0-52.2,0.3-78.3c0.6-46.1,1.8-92.3,2.6-138.4c0.4-22.6,0.6-45.2,0.6-67.8
	c0.1-27.6-2.4-55.4,0.5-82.6c3.2-30-16.8-23.1-32-23.6c-30.3-0.9-60.7-1-91-0.9c-33.4,0.1-66.7,1.1-100.1,1.1
	c-56.4,0-112.8-1.4-169.2-0.3c-21.3,0.4-8.6,19.7-8.9,28.2c-1.7,53.6-1,107.4-0.5,161.1c0.4,43.8,2,87.5,2.5,131.3
	c0.3,22.3-1,44.7-0.8,67c0.5,44.2,1.8,88.4,2.1,132.6c0.2,25.7-1.5,51.4-1.4,77c0.2,48.5,3.2,97.1,1,145.5
	c-1.1,23.5,11.8,19.9,24.7,20c33.6,0.1,67.2-0.4,100.8-0.9c43.8-0.6,87.6-2,131.4-1.9c24,0.1,47.9,3.5,71.9,4
	c24.1,0.5,48.2-1.1,72.3-1c27.7,0.1,55.3,0.9,83,1.4c22.1,0.4,44.2,1.4,66.4,1.3c54.6-0.1,109.2-0.5,163.8-1.2
	c31.6-0.4,63.1-2.1,94.7-2.5c29.9-0.4,59.8,0.6,89.7-0.1c4.2-0.1,11.5-5.5,11.9-9.2c2.1-17.7,2.7-35.6,3.3-53.4
	c1-26.5,1.5-53,2.4-79.5c1.3-38.9,2.9-77.7,4.1-116.6c1.3-41.3,2.9-82.6,3.1-123.9c0.3-49.2-0.1-98.4-1.4-147.5
	c-1-36-1.8-35.7-39-35.6c-52.3,0.2-104.6-0.5-156.9-0.3c-34.8,0.2-69.6,1.9-104.3,1.5c-4.7-0.1-13.2-8.5-13.4-13.3
	c-1.6-41.2-2-82.6-2.1-123.8c-0.1-42.8,1.2-85.6,0.6-128.3c-0.4-28.8-3.4-57.6-4.4-86.4c-0.4-11.8,3.1-23.9,1.5-35.4
	c-0.9-5.9-9.1-15.3-14.2-15.4c-63.6-1-127.3-0.6-190.9-0.7c-39.3,0-78.5-0.7-117.8-0.3c-48,0.5-96.1,2.1-144.1,2.5
	c-22.2,0.2-44.4-1.9-66.5-2.1c-32.5-0.3-64.9,0.5-97.4,0.3c-30.2-0.2-60.4-1.3-90.5-1.7c-34.6-0.4-69.1-0.5-103.7-0.1
	c-1.7,0-4.7,6-4.7,9.2c0.2,53.4,0.7,106.8,1.2,160.3c0.4,40.6,0.6,81.2,1.3,121.8c0.7,45.2,2.4,90.4,2.8,135.6
	c0.2,28.7-1.5,57.4-1.8,86.2c-0.4,38.9-0.4,77.9-0.4,116.8c0,55-0.1,109.9,0.2,164.9c0.3,51.3,1.1,102.6,1.6,153.9
	c0.4,48,0.7,95.9,1,143.9c0.1,27.5-0.5,55.1,0.6,82.6c0.1,3.1,8.5,8.4,13.1,8.5c45.4,0.5,90.8-0.1,136.2,0
	c45.6,0.1,91.1,0.8,136.7,0.9c44.4,0.2,88.9,0.5,133.3-0.2c42.4-0.7,84.7-3.3,127.1-4c25.4-0.4,50.8,1.6,76.1,1.5
	c21.9-0.1,43.8-2.9,65.6-2.7c31.4,0.3,62.8,2.7,94.3,3.2c29.4,0.4,58.8-0.9,88.3-0.6c31.3,0.4,62.6,2.1,93.9,2.7
	c37.7,0.8,75.4,1.1,113.2,1.8c35.8,0.6,71.7,2,107.5,2.1c37,0.1,74-1.1,111-1.6c6.2-0.1,12.5,0.8,18.7,0.8
	c29.1,0,16.1-24.8,18.2-36.6c5.5-30.5,5.4-62.1,6.5-93.3c1.2-34,0.5-68,2-102c1.2-25.8,5.7-51.5,6.8-77.3
	c1.8-41.8,1.9-83.7,3.1-125.5c2.1-76.3,4.6-152.5,6.7-228.7c1.3-48.2,2.6-96.5,2.8-144.7c0.2-52.9-1.6-105.8-1-158.8
	c0.3-24.7-17.5-17.2-28.6-17.2c-46.6-0.3-93.3,1.1-139.9,2.1c-49.6,1.1-99.3,2.4-148.9,3.4c-1.6,0-4.8-2.4-4.8-3.6
	c0.4-42.9,1.9-85.9,1.5-128.8c-0.4-44.4-3.2-88.8-3.9-133.2c-0.5-36.7,0.6-73.5,0.9-110.3c0.1-11.2-0.3-22.4-1-33.5
	c-0.1-1.6-3.2-4.3-4.9-4.2c-30,0.3-59.9,1.6-89.9,1.1c-27.6-0.4-55.1-3-82.7-3.7c-22.1-0.6-44.2,0.5-66.3,0.3
	c-19.4-0.1-38.7-1.2-58.1-1.4c-33.4-0.3-66.9-0.1-100.3-0.2c-34.7-0.1-69.4-0.3-104.2-0.2c-29.4,0-58.8,1-88.2,0.4
	c-40.2-0.8-80.3-3.2-120.5-3.7c-32.8-0.4-65.6,1.2-98.4,1.4c-16.9,0.1-33.7-1-50.6-1.1c-23.9-0.2-47.9,0.1-71.8-0.2
	c-21.3-0.3-42.6-1.5-63.9-1.6c-20.6-0.1-41.3,1.5-61.9,0.4c-5.6-0.3-15.4-8-15.4-12.4c-0.5-37.3,1.2-74.6,1.4-111.9
	c0.1-21.2-2.2-42.5-2-63.7c0.2-27.7,2.9-55.3,2.7-83c-0.2-39.6-2.4-79.1-3.1-118.7c-0.6-34.7,0-69.3-0.3-104
	c-0.2-30.8-0.9-61.5-1.4-92.3c-0.5-33.1-0.7-66.2-1.6-99.3c-0.7-26.2-2.7-52.4-3.1-78.6c-0.6-35.5,0.1-70.9-0.3-106.4
	c-0.3-26.1-2.1-52.1-1.9-78.2c0.3-38.4,2.5-76.7,2.4-115.1c0-37.4-2.2-74.9-2.8-112.3c-0.7-38.2-0.3-76.4-1.1-114.6
	c-0.8-35.8-2.8-71.7-3.9-107.5c-0.9-29.4-2.2-58.9-0.5-88.1c0.2-3.8,17.5-9.1,27-9.3c38.9-0.7,77.8-0.3,116.6,0.9
	c31.2,0.9,62.4,4.2,93.6,5.2c42.6,1.4,85.3,1.7,128,2.4c43.4,0.7,86.8,1.5,130.2,1.9c40.6,0.4,81.1,0,121.7,0.6
	c63.4,0.9,126.8,2.8,190.2,3.5c51.6,0.6,103.2-0.8,154.7,0.1c41.7,0.7,83.4,4.1,125.1,5.3c29.8,0.9,59.7-0.4,89.5,0.1
	c53.2,0.9,106.5,2.1,159.7,3.6c34.8,1,35.1,1.3,34.9,36.2c-0.2,47.5-1.1,94.9-1.1,142.4c-0.1,49.9,1,99.8,0.6,149.7
	c-0.6,73.3-2.6,146.5-2.9,219.8c-0.2,45.7,2,91.4,2.2,137.1c0.2,36-1,71.9-1.5,107.9c-0.4,29.6-3.1,59.5,0.1,88.8
	c2.9,26.5-8.6,29.7-29.9,29.1c-40.8-1.1-81.6-1.1-122.4-0.8c-32.2,0.2-64.4,1.7-96.7,2c-27.3,0.3-54.7-0.3-82-0.2
	c-35.8,0.1-71.7-0.6-107.3,2.3c-4.9,0.4-11.1,19.1-11.8,29.6c-2.1,29.9-2.2,60-2,90c0.5,51.1,2.1,102.2,2.6,153.2
	c0.2,16.5-1.3,33-2.7,49.5c-0.2,2-4.3,5.1-6.7,5.2c-38,0.5-76.1,0.7-114.1,0.7c-30.2,0-60.4-0.7-90.6-0.7c-31.7,0.1-63.4,0.7-95.1,1
	c-28.6,0.3-57.3,0.6-85.9,0.9c-52.8,0.6-105.6,1.1-158.4,1.9c-41.5,0.6-83,1.9-124.5,1.8c-3.2,0-8.8-8.4-9.1-13.2
	c-1.6-23.8-2.6-47.8-2.3-71.6c0.2-19.2,3.9-38.4,3.7-57.6c-0.2-23.6-3.2-47.2-4.1-70.8c-0.7-18.2,0.5-36.6-0.1-54.8
	c-0.9-29.3-3-58.5-3.8-87.8c-0.8-27.3-0.3-54.6-0.8-81.9c-0.6-31.5-1.7-63-2.4-94.5c-0.7-32.5-1.3-64.9-1.4-97.4
	c-0.1-36.2,0.2-72.4,1-108.6c0.9-39.5,3.5-79,3.7-118.5c0.1-36.9-2.5-73.9-3.1-110.8c-0.4-24.6,0.6-49.2,1.5-73.7
	c0.1-2.4,4.2-6.8,6.4-6.8c41.4,0.8,82.8,2.3,124.3,3.5c35,1,70.1,1.5,105.1,3c30.4,1.2,60.8,4.1,91.2,5.1c35.2,1.1,70.4,1,105.6,1.3
	c45.6,0.4,91.3,1.3,136.9,1.1c41.2-0.2,82.3-2.3,123.5-2.1c36.4,0.2,72.8,2.7,109.2,3.5c30.7,0.7,61.5,0.8,92.2,0.4
	c13.4-0.2,19.2,2.3,19.1,18.3c-0.5,55.4,1.6,110.8,1.9,166.3c0.1,30.4-2,60.7-2.1,91.1c-0.2,37.1,0.8,74.1,0.9,111.2
	c0.1,27.6,0.2,55.2-1.1,82.8c-0.1,3.1-9.4,8.2-14.5,8.2c-35.9,0.3-71.9-1-107.8-0.6c-29.2,0.3-58.5,2.8-87.7,3.2
	c-29.5,0.4-59.1-0.6-88.7-0.7c-24.7-0.1-49.5,0-74.2,0.2c-14.9,0.1-30,2.4-44.5,0.2c-17.8-2.7-20.5,7.6-20.7,20
	c-1.6,77.8-2.7,155.7-3.8,233.5c-0.2,17.6,0.7,35.2-0.1,52.7c-0.1,3-5.9,8.1-9,8.2c-32.2,0.3-64.3-0.3-96.5-0.6
	c-46.8-0.3-93.6-0.4-140.4-1c-2.3,0-6.4-4.7-6.4-7.3c-0.1-32,0.1-64,0.7-96c0.5-23.9,2.5-47.8,2.5-71.7c0.1-20.7-2.3-41.3-2.4-62
	c-0.1-24.8,1.5-49.6,1.4-74.4c-0.1-30-1.3-59.9-1.7-89.9c-0.2-17.9,0.4-35.9,0.3-53.8c-0.2-33.8-0.3-67.6-1.2-101.4
	c-0.3-13.7-1.8-24.4,18.7-22.9c27,2,54.3-0.5,81.5,0c25.1,0.5,50.2,2.9,75.3,3.5c57.1,1.3,114.2,1.8,171.3,3.1
	c34.8,0.8,69.5,2.2,104.3,4.1c2.3,0.1,5.8,6.3,6.2,9.9c2.1,21-3,29.2-28.5,26.5c-49.2-5-99-4.2-148.5-5.2
	c-38.3-0.8-76.7-0.4-115-1.2c-29.6-0.6-59.1-1.7-88.6-3.7c-28.8-2-35,3.3-35,34.1c0.1,48.6,0.5,97.2,0.8,145.8
	c0.4,61.6,1.2,123.3,1,184.9c-0.1,36.3-1.4,72.7-2.7,109c-0.9,26.5,5.2,33.1,34.8,33c43.4-0.2,86.8-0.8,130.1-2.6
	c3.8-0.2,10-11,10.1-17c1-49.9,0.5-99.8,1.1-149.7c0.5-35.6,2.1-71.2,2.9-106.8c0.1-4.2-2.2-8.4-2.2-12.6
	c0.2-31.4,0.3-30.5,36.2-29.7c46.2,1,92.4,0.5,138.5,0.5c66,0.1,132,0.3,198-0.1c17.9-0.1,35.8-1.8,53.5-4.1c3.6-0.5,9-6.6,9.1-10.3
	c0.9-38.6,1-77.3,1-116c0.1-47.9-0.2-95.9-0.1-143.8c0.1-36.4,1.3-72.8-0.1-109.2c-0.2-5.1-11.8-13.7-18.5-14
	c-38.6-2-77.4-2.6-116-2.5c-39.5,0.2-79,2.6-118.5,2.7c-27.5,0-55-2.8-82.5-3.4c-13.6-0.3-27.3,1.9-41,1.8
	c-19.9-0.1-39.8-1.2-59.7-2.1c-18.1-0.8-36.3-2.3-54.4-2.9c-25.1-0.9-50.3-1.7-75.5-1.9c-34.9-0.2-69.9,0.6-104.8,0.5
	c-36.9-0.2-73.7-1.2-110.6-1.5c-14.4-0.1-28.8,0.5-43.1,1.9c-1.7,0.2-3.9,7-3.9,10.8c-0.3,29.1,0.6,58.2-0.2,87.2
	c-1,38-4.1,75.9-4.7,113.9c-0.8,48.4,0,96.9,0,145.3c0,41.1-0.9,82.3-0.3,123.4c0.5,31.3,3.1,62.5,3.8,93.7
	c0.5,20.6-1.3,41.3-0.8,61.9c0.7,23.7,3.5,47.4,4.2,71.2c0.7,22-0.5,44-0.1,65.9c0.4,26.4,1.9,52.8,2.4,79.3c0.5,26.1,3,52.5,0,78.3
	c-3.4,29.3,14.6,27.1,32.6,27.2c50.1,0.3,100.2,1.1,150.3,0.5c48.2-0.6,96.3-3.2,144.5-3.9c40.8-0.6,81.5,0.7,122.3,0.5
	c34.4-0.2,68.9-1.1,103.3-2.1c13.2-0.4,26.8-0.6,39.4-3.7c6.2-1.5,15.4-9.6,15.5-14.8c0.4-37.2-1.8-74.5-2-111.8
	c-0.2-27.9,1.7-55.9,2.3-83.8c0.7-33.8,0.3-67.7,2.1-101.4c0.3-6.1,8.9-16.8,13.7-16.9c28.9-0.5,57.9,2.1,86.8,2.6
	c18.8,0.3,37.7-1.4,56.5-1.5c33.7-0.1,67.4,0.6,101.1,0.6c27.8,0,55.6-0.6,83.5-0.9c30-0.3,60-0.1,89.9-1.5
	c5.3-0.2,14.3-6.9,14.6-11.2c2.8-37,4.5-74,5.4-111.1c1-44.7,1-89.4,1.2-134.1c0.2-37.2,0.2-74.5,0.5-111.7
	c0.3-36,1.4-72.1,1.1-108.1c-0.5-66.9-2.1-133.8-2.7-200.8c-0.4-43.3-1.3-86.7,1-129.9c1-18.8-6.4-21.1-21.2-21.2
	c-38.9-0.3-77.8-1.7-116.7-2.2c-62-0.8-123.9-1-185.9-2.1c-35.8-0.6-71.5-3.2-107.3-3.7c-26.5-0.3-53.1,2.5-79.7,1.9
	c-42.7-1-85.4-3.8-128.1-5.4c-28.1-1.1-56.3-1.3-84.4-2.1c-36.7-1-73.3-2.7-110-2.9c-27.5-0.1-55,2.2-82.5,2.4
	c-27.7,0.2-55.4-1-83.1-1.4c-34.1-0.4-68.3,0.2-102.4-0.9c-39.9-1.3-79.8-4.3-119.7-5.9c-22.1-0.9-44.2-0.9-66.2,0.6
	c-1.8,0.1-3.8,14.4-3.8,22.1c-0.1,26.2,0.6,52.3,1.1,78.5c0.9,48.4,2.1,96.9,2.9,145.3c0.7,44.1,0.7,88.2,1.4,132.4
	c0.7,39.4,2.6,78.8,2.7,118.2c0,21.6-3.5,43.2-3.6,64.8c-0.1,18.4,2.5,36.7,3.5,55.1c0.9,15.7,1.7,31.5,1.9,47.2
	c0.4,22.5,0.2,45.1,0.4,67.6c0.2,30.2,0.2,60.4,0.9,90.6c0.8,33.8,3.1,67.6,3.2,101.5c0.2,45.8-1.6,91.5-1.5,137.3
	c0.1,37.6,2.1,75.2,2.7,112.9c0.3,19.3-1.2,38.6-0.9,57.9c0.7,45.5,3.5,91.1,2.6,136.6c-0.9,47.4-2.3,48.2,44.8,48.9
	c45.4,0.6,90.7-1.7,136.1-1.1c81.2,1.1,162.4,4,243.6,5.2c38.2,0.6,76.5-1.5,114.8-1.5c21.4,0,42.8,2.4,64.2,2.4
	c52.2,0.2,104.4-0.5,156.6-0.4c34.2,0.1,68.3,1.1,102.5,1.2c36.1,0.1,72.2-0.4,108.4-0.6c16.2-0.1,32.5,1,48.5-1
	c5-0.6,12.7-9.6,12.7-14.7c0.1-37-2.3-73.9-2.4-110.9c-0.2-57.1,1-114.3,1.2-171.4c0.1-16.3-1.5-32.7-1.7-49c0-1.9,4-5.4,6.2-5.4
	c60.5-0.8,121-1.6,181.5-1.7c44.9-0.1,89.8,1.3,134.8,1.1c37.3-0.2,74.5-1.6,111.7-3.4c2.9-0.1,7.6-7.6,7.8-11.7
	c1.2-38.1,2-76.1,2.2-114.2c0.2-47.4-0.3-94.9-0.3-142.3c0-58.5-0.1-117.1,0.2-175.6c0.4-62.1,1.3-124.1,1.9-186.2
	c0.5-54.5,0.7-108.9,1.1-163.4c0.4-50.9,1.3-101.8,1.4-152.7c0.1-37.9-0.6-75.7-0.7-113.6c0-2.4,2.9-7,4.4-7
	c28.3-0.1,56.7,0.3,85,0.7c38.1,0.6,76.1,1.5,114.2,2c28.6,0.3,57.2,0.5,85.8,0.1c29.1-0.3,58.2-1.8,87.2-1.9
	c58.6-0.3,117.3-0.3,175.9,0.1c46.7,0.3,93.5,1.5,140.2,2.3c41,0.7,81.9,2,122.9,1.9c28.9,0,57.9-2.8,86.8-2.6
	c60.4,0.3,120.7,1.9,181.1,2.5c43.4,0.4,86.8,0.1,130.3-0.2c45.8-0.2,91.6-0.9,137.3-0.7c3.5,0,9.9,6.1,9.9,9.3
	c-0.3,40.8-2,81.6-2.6,122.4c-0.5,35.9,0,71.8,0.1,107.7c0.2,65.8,0.4,131.6,0.6,197.4c0.2,57.4,0.6,114.8,0.5,172.3
	c-0.1,47-1.5,94-1.1,141c0.4,42.6,3.3,85.1,4,127.7c0.4,26.6-1.4,53.3-1.6,79.9c-0.3,38.2,0.3,76.4-0.2,114.7
	c-0.5,35.1-3,70.2-2.9,105.2c0.1,39.8,2.4,79.6,2.9,119.4c0,3.2-6.1,9-9.6,9.2c-54.7,3-109.5,5.2-164.2,7.6
	c-43.4,1.9-86.7,4.2-130.1,5.6c-47.5,1.5-95,2-142.5,3.4c-33,1-66,3.6-99.1,4.2c-52.7,1-105.4,0.5-158.1,1.3
	c-38.7,0.6-77.4,3.2-116,3.4c-19.5,0.1-11.1-17-11.4-26c-1.2-43.5-1.1-87.1-0.8-130.6c0.2-33.9,1.8-67.7,1.9-101.5
	c0.2-46.2-0.4-92.4-0.5-138.6c0-7.3,0.3-14.6,1.3-21.8c2.6-18.3-8.1-20.7-22.6-20.4c-31.9,0.6-63.9,0.1-95.8,0.7
	c-29.1,0.5-58.2,2.4-87.3,2.8c-34.4,0.4-68.9,0-103.3-0.6c-2.2,0-6.1-4.6-6.1-7.1c-0.2-47.9,0.3-95.7,0-143.6c-0.2-32-2-64-2.1-96
	c-0.1-32.3,1.3-64.7,1.5-97c0.2-34.2-0.7-68.4,0-102.6c0.5-25.9,3.1-51.7,3.8-77.6c0.9-34.7,0.8-69.5,1.1-104.3
	c0.2-15.3,0-30.6,1.2-45.8c0.2-3,6.4-7.7,9.9-7.8c35.7-0.3,71.4,0.8,107.1,0.4c23.5-0.3,47-3.4,70.4-3.4c29.5,0,59.1,2.3,88.6,2.9
	c23.6,0.5,47.3-0.4,71,0.1c24.8,0.6,49.6,2.6,74.4,3.1c22.8,0.5,45.6-0.3,68.4-0.5c33-0.2,66.1-0.2,99.1-0.6
	c32.9-0.3,65.8-1.7,98.6-1.1c41.2,0.7,82.3,3.6,123.4,4.4c25.8,0.5,51.7-1.3,77.5-1.7c17.7-0.3,35.4-0.4,53.1,0.7
	c3,0.2,8.3,6.3,8.2,9.6c-0.7,60.6-2.3,121.3-3.3,181.9c-0.9,52.4-1.6,104.9-2.1,157.4c-0.5,54.4-1.3,108.8-1,163.2
	c0.3,49.2,2.6,98.4,2.5,147.7c-0.1,43.2-2.5,86.4-3.2,129.5c-0.5,30.5,0.5,61-0.6,91.4c-0.2,4.9-8,13.4-12.6,13.7
	c-54.4,2.7-108.9,4.6-163.4,5.7c-38.5,0.8-77-0.4-115.6,0c-40.7,0.4-81.3,2-122,1.7c-5.2,0-14.6-8.1-14.8-12.6
	c-0.9-34.7,0-69.4,0.4-104.1c0.6-60.1,1-120.1,2-180.2c0.5-31.2,2.1-62.3,2.7-93.5c0.2-10.4-0.5-20.9-2-31.2
	c-0.3-2.4-5.5-5.8-8.5-5.8c-41.3,0.4-82.6,1.2-124,2c-40.3,0.8-80.7,1.6-121,2.7c-13.7,0.4-27.5,2.4-41,1.5
	c-4.3-0.3-11.4-7.8-11.5-12.1c-0.9-60.9-1-121.9-0.9-182.8c0-19.8,0.9-39.7,2.2-59.5c0.2-3.2,4.8-8.8,7.4-8.8
	c44.2-0.9,88.4-1,132.6-1.4c43.9-0.3,87.9-0.8,131.8-1c42-0.1,84.1,0.4,126.1,0c43.3-0.4,86.5-1.3,129.8-2.5
	c13.3-0.4,19.5,2.2,18.7,18.1c-2.4,49.4-3.4,98.9-3.8,148.4c-0.7,83.5-0.5,167.1-0.6,250.6c0,3.6,1.5,7.2,1.3,10.7
	c-1,30.4-2.3,31.6-33.8,29.8c-1.6-0.1-4.3-3.6-4.3-5.5c1.3-60.4,3.7-120.8,4.2-181.3c0.5-72.7-0.5-145.5-1.3-218.2
	c0-2.8-5.8-8-8.8-8c-39.9,0-79.8,0.9-119.8,1.3c-43.4,0.4-86.8,0.3-130.2,0.7c-40.1,0.4-80.3,1.2-120.4,1.7
	c-21.2,0.3-42.5,1-63.7,0.4c-25.3-0.7-28.6,2.9-28.5,31.3c0.3,45.7-0.5,91.4,0.6,137.1c0.1,3.7,11.1,10.2,16.9,10.1
	c31.5-0.8,62.9-3.7,94.4-4.9c17.9-0.7,36,1.6,53.9,0.9c30.5-1.1,60.9-3.7,91.4-5.2c13.8-0.7,27.7-1.1,41.3,0.4
	c3.8,0.4,9.8,7.9,9.7,12c-1.1,41.7-3.8,83.3-4.9,125c-1,37.4-0.1,74.9-0.6,112.3c-0.7,54-1.9,108-2.7,161.9
	c-0.3,17.8,12.9,20.3,25.9,19.9c34.1-1.3,68.1-4.7,102.2-5.6c32.6-0.9,65.3,0.7,98,0.5c40.9-0.2,81.8-1.1,122.7-2.2
	c2.6-0.1,7.3-4.6,7.4-7.1c0.4-26.2,0.2-52.3,0-78.5c-0.2-39.1-1.1-78.2-0.7-117.3c0.6-49.3,2.3-98.5,3.3-147.8
	c1-50.1,1.5-100.2,2.5-150.3c1.1-54.9,2.9-109.7,3.8-164.6c0.7-42.7,0.5-85.5,0.6-128.3c0.1-22.8-5.4-25.2-37.5-23.1
	c-24.2,1.6-48.6,0-73-0.1c-47.6-0.1-95.3-0.2-142.9-0.2c-28,0-55.9-0.1-83.9,0.1c-33.9,0.3-67.8,1.3-101.7,1.5
	c-33.4,0.2-66.8-0.8-100.2-0.4c-26.3,0.3-52.5,2.4-78.7,2.8c-20.8,0.3-41.6-1.3-62.4-1.4c-29.2-0.1-58.5,0.6-87.7,0.5
	c-30.8-0.1-61.7-1.3-92.5-0.5c-5,0.1-13.5,8-13.9,12.8c-2.8,33.3-4.6,66.8-5.3,100.2c-1.1,50.2-0.4,100.4-1.5,150.5
	c-0.9,39.4-4.7,78.8-5,118.2c-0.5,66.2,1.7,132.4,0.6,198.6c-0.3,15.3,3.2,16.4,16.1,16.1c40.6-0.9,81.3-0.6,121.9-0.3
	c44,0.3,87.9,1.2,131.9,1.8c14.5,0.2,29-0.4,43.4,0.9c2.9,0.2,7.3,7.1,7.4,10.9c0.3,46.7,0.3,93.4-0.5,140.2
	c-0.5,34.1-2.8,68.1-3.2,102.2c-0.3,22.5,1.8,45,2.2,67.5c0.6,31.7,1.6,63.4,0.8,95.1c-0.4,13.9,4.9,16.3,17.1,16.1
	c39.9-0.5,79.9,0.6,119.8,0c30-0.4,60-3,90-3.6c31.9-0.7,63.9,0.5,95.8-0.3c27.3-0.7,54.6-3.6,81.9-4.3c22-0.6,44.1,1,66.2,0.7
	c19.9-0.2,39.8-1.6,59.7-2.4c37.1-1.6,74.2-3.1,111.2-4.9c34.7-1.7,69.3-3.6,104-6.2c2.2-0.2,5.4-7.4,5.4-11.3
	c1.1-68,2-135.9,2.6-203.9c0.5-51.8,0.7-103.7,0.7-155.6c0-47.6-0.1-95.2-0.7-142.8c-0.7-54.2-2.6-108.4-2.8-162.6
	c-0.2-67.2,1.3-134.3,1.3-201.5c0-69.3-0.9-138.7-1.2-208c-0.1-43,0.6-86,0-129c-0.1-3.6-7.6-10-11.7-10c-66-0.8-132-0.6-198-1
	c-40.2-0.2-80.3-0.8-120.5-1.6c-43.8-0.8-87.7-2.6-131.5-2.8c-21.3-0.1-42.6,2.9-63.9,3.5c-15.2,0.4-30.4-1-45.7-1.3
	c-36.3-0.7-72.6-1.5-108.9-1.6c-34.9-0.1-69.9,0.2-104.8,1c-40.6,0.9-81.3,3.2-121.9,3.7c-36.6,0.5-73.3-1-110-1
	c-29.4,0-58.8,1.5-88.2,1.2c-35-0.4-70-2.4-105.1-3.3c-20.8-0.5-42.1-2.6-62.2,1.3c-5.4,1-9.9,21.3-10,32.8
	c-0.4,57.8,0.6,115.7,1.5,173.6c0.4,29,2.5,57.9,2.3,86.9c-0.2,28.2-3.3,56.3-3.3,84.4c0,26.9,3.5,53.8,3.7,80.8
	c0.3,28.2-2.1,56.5-2.1,84.7c0,55.7,1.6,111.4,1.2,167c-0.3,37.3-2.9,74.6-4.2,111.9c-1.1,31.3-1.8,62.7-2.5,94
	c-0.5,25.2-0.6,50.5-1.1,75.7c-0.4,19.2,3.8,29.7,28,28.6c60.7-2.7,121.6-1.8,182.5-2.5c38.8-0.4,77.7,0.2,116.5-2.3
	c21.4-1.4,16.2,12.3,16.1,22.6c-0.3,41.3-1.5,82.6-2.5,123.9c-1,43.4-3,86.9-3,130.3c0,58.1,1.2,116.3,3.5,174.4
	c0.1,3.3,14.2,8.3,21.9,8.6c30.2,0.9,60.5,0.3,90.7-0.1c36.3-0.6,72.5-2.1,108.8-2.2c39.2-0.1,78.5,1.4,117.7,1.2
	c27.7-0.2,55.4-2.5,83.1-3c22.9-0.5,45.9,0.6,68.8,0.2c15.5-0.2,30.9-1.9,46.4-2.5c17.4-0.6,34.7-0.7,52.1-1
	c21.6-0.4,43.2-0.4,64.8-1.3c64.4-2.7,128.8-6.1,193.2-8.4c46.1-1.6,92.2-2.1,138.4-2.3c3.4,0,9.7,6.9,9.8,10.7
	c0.6,40.6-0.2,81.3,0.1,121.9c0.3,36.7,1.7,73.4,2.2,110.1c0.6,47.2,1.1,94.4,1.2,141.6c0.2,110.2,0.3,220.5,0.1,330.7
	c-0.1,76.7-1.3,153.3-1.2,230c0.1,39.1,2.9,78.2,2.8,117.3c-0.1,46.1-2.6,92.3-3.2,138.4c-0.7,54.7-0.3,109.4-1.2,164.1
	c-0.1,3.7-6.6,10.4-10.2,10.5c-63.2,1.3-126.3,2.1-189.5,2.4c-57.8,0.3-115.7-0.6-173.5-0.3c-53.3,0.3-106.6,2.1-159.9,2
	c-44.4-0.1-88.7-2.7-133.1-3c-36.4-0.3-72.9,1.9-109.3,1.8c-25.1-0.1-50.2-3-75.3-3.3c-38.7-0.5-77.3,0.4-116,0.1
	c-41.2-0.4-82.5-1.6-123.7-2.2c-20.9-0.3-41.8-0.5-62.6,0.4c-13.1,0.6-18.3-2.4-18-17.2c0.8-38-1.1-76-0.5-114.1
	c0.5-31.7,4-63.4,4.5-95.1c0.6-34.7-1.4-69.5-0.8-104.3c0.4-25.8,3.7-51.4,4.8-77.2c1.1-26.2,0.8-52.5,1.5-78.7
	c0.9-35.5,2.4-70.9,3.2-106.4c1-43.4,1.6-86.7,2.4-130.1c0.6-35.8,0.9-71.6,2.1-107.3c0.1-3.2,5.1-8.8,8-8.8
	c27.1-0.5,54.2,0.1,81.3-0.1c27-0.2,53.9-1,80.8-1.3c40-0.4,79.9-1,119.9-0.8c28.4,0.2,32.1-4.1,31.8-32.4
	c-0.3-28.7,2.4-57.3,2.7-86c0.6-46.5,0.3-93.1,0.8-139.6c0.1-13.5-0.5-27.6,3.1-40.3c1.5-5.2,12.9-10.5,20-10.9
	c42.2-2.3,84.6-3.5,126.9-4.4c57.7-1.3,115.5-1.8,173.2-3.2c36.7-0.9,73.4-3.7,110.1-4.2c39.3-0.6,78.6,1.1,117.9,0.6
	c22.7-0.3,45.4-2.9,68.2-4.3c11.4-0.7,22.1-3.5,21.2,15.8c-1.9,42.6-1.2,85.4-1.4,128.1c-0.2,47.1-0.4,94.2-0.1,141.3
	c0.2,28.3,2.1,56.6,1.8,84.9c-0.6,48.4-2.8,96.8-3.4,145.3c-0.5,37.9,0.9,75.9,0.4,113.9c-0.5,41.9-2.9,83.7-3.4,125.6
	c-0.4,40.2,0.9,80.4,1,120.7c0,27.3-0.5,54.7-2.1,82c-0.1,2.5-9.4,6.3-14.6,6.5c-38.3,1.3-76.6,2.4-114.9,2.3
	c-36.8-0.1-73.7-2.5-110.5-2.7c-34.7-0.2-69.5,1.6-104.2,1.9c-51.3,0.4-102.5-0.5-153.8,0.3c-73.5,1.2-147.1,3.5-220.6,5.3
	c-7.9,0.2-16.1,1.5-23.5-0.3c-5-1.2-12.5-6.8-12.6-10.5c-1-33-0.7-66-0.6-99.1c0.2-43,0.1-86.1,1-129.1c0.9-42.5,3.2-84.9,4.4-127.4
	c0.7-22.9-0.3-45.9,1.3-68.7c0.3-4.6,8.7-12.2,13.6-12.3c30.4-1.2,60.9-0.9,91.4-0.6c35,0.3,70,1.3,105,1.3c30.4,0,61,1.2,91.1-2.1
	c21.9-2.4,12.6-23.8,14.1-36.9c2.3-19.6,1.1-39.5,1.6-59.3c0.6-25.6,1.2-51.1,2-76.6c0.8-25.9,1.9-51.9,2.6-77.8
	c0.3-11.3,1.7-23-0.4-33.9c-4.3-23,9.9-22.5,25.3-22.6c32.5-0.1,64.9-0.5,97.4-0.9c24.8-0.3,49.6-0.9,74.4-1.3
	c6.7-0.1,13.9,1.5,20-0.3c25.1-7.6,23.2,7.9,22.2,24.1c-2,32.1-3.5,64.3-4.9,96.4c-1.2,28-2.4,55.9-3,83.9
	c-0.8,37.3-0.6,74.5-1.4,111.8c-0.8,31.9-3.2,63.7-3.6,95.5c-0.5,45.7-1.2,91.5,1.3,137.2c0.9,16.5-3.9,16.5-16.5,16.4
	c-41.5-0.4-83,0.8-124.5,0.6c-33.9-0.2-67.9-1.8-101.8-2.2c-28.5-0.3-57.1-1.5-85.3,0.9c-18.9,1.6-15.6-9.8-17.1-20.1
	c-2.1-14.5,5.3-17.9,18.2-17.9c33.7,0,67.4-1.5,101.1-1.3c41.5,0.2,83.1,2.1,124.6,2.2c18.8,0.1,37.6-2.1,56.3-4.1
	c2.1-0.2,5.3-5.5,5.3-8.4c0.7-39.2,0.7-78.3,1.2-117.5c0.6-44.2,1.6-88.5,2.1-132.7c0.3-30-0.9-60.1-0.1-90.1
	c1.1-37.4,4.2-74.7,5.3-112c0.3-11.2,1.3-23.1-19.1-21.5c-44.5,3.4-89.2,2.6-133.8,5.3c-3.2,0.2-7.6,14.8-7.9,22.9
	c-1.7,47.6-2.5,95.2-3.1,142.8c-0.5,42.3,0,84.6-1.1,126.8c-0.1,3.9-8.7,10.7-13.7,10.9c-29.7,1.4-59.4,1.6-89.1,1.6
	c-25.7,0-51.4-1.3-77.1-1.2c-22.8,0-45.6,1.1-68.4,1.8c-19.3,0.6-38.6,0.6-57.7,2.4c-4.3,0.4-11.1,7.6-11.3,11.8
	c-1.2,33.2-0.9,66.4-1.5,99.6c-0.9,49.5-2.3,99-3.2,148.5c-0.6,32.8-1.3,65.7-0.9,98.5c0,3.4,7.2,9.7,11.1,9.7
	c54.6,0.2,109.2-0.2,163.8-0.9c31.2-0.4,62.4-2.2,93.6-2.7c39.2-0.6,78.4-0.5,117.6-0.6c38.8-0.2,77.6,0,116.4-0.6
	c49.8-0.8,99.6-2.3,149.4-3.2c28.3-0.5,34.1-10.7,31.6-40.7c-2.7-32.7-0.2-65.8,0-98.7c0.1-22,0.1-43.9,0.5-65.9
	c0.3-19.3,1.4-38.6,1.7-58c0.6-38.8,1.2-77.5,1.4-116.3c0.2-50.2,0.3-100.4-0.1-150.6c-0.2-30.1-2-60.3-2.3-90.4
	c-0.2-19.3,1.1-38.6,1.3-57.9c0.4-36.1,0.4-72.2,0.7-108.4c0.2-27.7,1-55.4,0.1-83.1c-0.1-4-8.4-11-13.1-11.2
	c-33.2-1.1-66.4-1.2-99.7-0.8c-27.8,0.3-55.5,2.2-83.2,2.6c-29.9,0.4-59.9-0.9-89.8,0c-72.8,2.2-145.6,5.4-218.5,7.9
	c-14.1,0.5-28.4,1-42.2-1.2c-13-2-14.7,5-15.1,14.1c-1.5,39.4-3.1,78.8-3.9,118.2c-1.2,55.1-1.6,110.1-3,165.2
	c-0.1,2.4-5.8,6.7-9,6.8c-28,1.2-56,1.8-84,2.2c-48.8,0.6-97.6,0.7-146.4,1.2c-18.4,0.2-36.8,1.2-55.3,1.3c-5.1,0-10.7-3.6-15.1-2.2
	c-23.8,7.1-10.4,27.8-11.5,40.9c-4,45.8-3.8,91.9-4.9,137.9c-1.2,55.2-2.1,110.5-3.1,165.7c-0.8,40-1.5,80-2.3,120
	c-0.4,22.5-0.3,45-1.4,67.4c-1.1,22.3-4.9,44.5-5.2,66.7c-0.3,27.1,2.4,54.2,2.6,81.3c0.2,23.7-0.9,47.4-1.7,71
	c-0.6,16.4,11,21.1,32.6,18.5c19.8-2.4,40.2-0.1,60.4,0.2c19,0.3,38.1,1.1,57.1,1c36.6-0.3,73.2-1.9,109.8-1.4
	c38.2,0.5,76.5,3.6,114.7,4.1c62.5,0.8,125,0,187.5,0.5c30.5,0.3,61.1,2.5,91.6,3c40.4,0.6,80.9,0.4,121.3,0.5
	c24.2,0.1,48.5,0.6,72.7-0.1c27.2-0.7,54.4-3,81.6-3.8c22.5-0.7,45.1,0.3,67.7-0.3c31.5-0.9,63.1-2.2,94.5-4.5
	c2.7-0.2,6.8-8.6,6.8-13.3c0.1-45.7-1.2-91.3-0.6-137c0.7-51.5,3.7-102.9,4.2-154.4c0.6-56.9-0.8-113.9-0.9-170.9
	c0-38.6,0.8-77.3,1.3-115.9c0.6-40.9,1.9-81.9,1.6-122.8c-0.4-66.3-2.1-132.6-2.5-198.9c-0.3-44.7,1.2-89.4,1-134.1
	c-0.1-27.1-2.6-54.1-3.1-81.2c-0.6-36.7-0.2-73.4-0.7-110.1c-0.2-15.8-0.7-31.8-3.2-47.3c-0.8-5-8.3-12.2-13.3-12.7
	c-14.1-1.3-28.6,0.4-42.9,0.8c-30.3,0.9-60.7,1.1-91,2.7c-26.5,1.4-53,4.8-79.5,6.2c-19.3,1-38.7-0.2-58,0.2
	c-50,0.9-100.1,2.4-150.1,3c-51.6,0.6-103.3-0.4-154.9,0.6c-31.5,0.6-62.8,4.4-94.3,5.2c-30.3,0.8-60.7-0.5-91-0.7
	c-29.9-0.1-59.9,0-89.8,0.2c-28.3,0.2-56.7,2.4-84.9,0.7c-24-1.4-14.6,15.6-15.3,25.1c-1.7,23.3-1.3,46.8-1.3,70.2
	c0,29.8,1,59.5,0.8,89.3c-0.2,29.4-3.9,59-1.3,88c2.4,27.4-9.1,30.1-31.9,30c-59.2-0.3-118.5,2.4-177.7,3.3
	c-45.1,0.7-90.3,0.4-135.4,1.1c-2.8,0-7.8,4.8-7.9,7.4c-0.6,46.6-0.3,93.1-0.7,139.7c-0.3,35.4-2,70.9-2.2,106.3
	c-0.3,48.8,1,97.6-0.1,146.4c-0.9,41.5-4.8,83-6.5,124.5c-2.1,52.4-3.2,104.8-4.9,157.2c-1,30.4-2.8,60.8-3.5,91.2
	c-1.4,57-3.1,113.9-3.3,170.9c-0.2,53.2,1.6,106.4,1.5,159.6c0,4.5-8,12.7-12.4,12.8c-45.8,0.9-91.7,1.1-137.5,0.3
	c-37.4-0.6-74.7-3.6-112-4.1c-26.3-0.4-52.5,2.5-78.8,2.5c-28.7,0-57.3-2-86-2.2c-34.4-0.2-68.8,0.9-103.1,0.8
	c-23.5-0.1-47-1.8-70.5-1.8c-33.8,0-67.7,1.3-101.5,1.4c-20.7,0.1-41.3-1.4-62-1.5c-50.2-0.3-100.4-0.3-150.6-0.2
	c-46.5,0.1-93.1,0.6-139.6,0.9c-53.8,0.3-107.7,0.7-161.5,1c-88.2,0.5-176.4,0.7-264.5,1.3c-42.6,0.3-85.3,1.6-127.9,1.3
	c-3.6,0-10.1-9.1-10.3-14.2c-1.2-32.3-1.2-64.7-1.2-97.1c-0.1-53,0.6-106,0-159c-0.4-32-3.3-64-3.7-96.1
	c-0.3-25.9,2.6-51.8,2.5-77.7c-0.1-32.4-2.1-64.9-2.7-97.3c-0.3-18.2,0.7-36.4,0.8-54.6c0.1-34.2-0.4-68.4-0.2-102.6
	c0.3-32.4,1.6-64.7,1.7-97.1c0.1-25.2-1.6-50.4-1.4-75.6c0.3-36,2-72,2.6-108c0.5-30.2,0.3-60.4,0.1-90.6
	c-0.2-24.6-0.9-49.3-1.3-73.9c-0.4-23.2-0.6-46.4-1-69.5c-0.5-28-1.2-56-1.5-84c-0.5-41.1-0.9-82.3-0.9-123.4
	c-0.1-62.6,0.5-125.1,0.2-187.7c-0.3-53.1-1.8-106.2-2-159.3c-0.2-51.8,0.8-103.6,0.8-155.4c0-36.9-0.2-73.8-1.3-110.7
	c-0.9-30.5-4.3-61-4.5-91.5c-0.3-40.6,2.3-81.2,2.1-121.8c-0.2-53.4-2-106.8-2.9-160.2c-0.8-49.3-1.2-98.6-1.9-147.9
	c-0.5-32.9-1.7-65.8-2-98.7c-0.3-32.8,1.2-65.7,0.2-98.4c-0.8-41.1-4.4-82.5-5.5-124c-1.2-41.5-0.4-83.1-1-124.6
	c-0.3-23-2-46.1-2.6-69.1c-0.4-12.8-0.7-25.8,1-38.5C1.7,4.1,10.3,0,15,0c70.2,0.7,140.3,2.3,210.5,3C291.7,3.7,358,3.4,424.2,3.7
	c56.6,0.2,113.1,0.4,169.7,0.9C659.1,5,724.3,6.2,789.5,6.3c47.6,0.1,95.2-1.4,142.8-1.2c29,0.1,57.9,2.8,86.9,3.1
	c37.3,0.3,74.7-1.1,112-0.9c55.5,0.3,111,2,166.5,1.9c50.6-0.1,101.1-2.8,151.7-2.9c44.1-0.1,88.3,2.4,132.4,2.7
	c34.1,0.2,68.2-1.5,102.4-1.6c24.2-0.1,48.4,1.8,72.6,1.7c32.5-0.1,64.9-1.4,97.4-2.1c31.9-0.8,63.8-2,95.7-2.2
	c35.2-0.2,70.5,0.6,105.7,0.9c27.2,0.2,54.4,0.6,81.6,0.6c45.3,0,90.7-0.5,136-0.3c38.5,0.1,77,1.5,115.5,1
	c31.6-0.4,63.1-3.7,94.6-4.1c33.5-0.5,67.1,1.2,100.7,1.4c29.3,0.1,58.6-0.9,88-0.8c26.2,0,52.3,1.1,78.5,1.1
	c33.4,0,66.8-1.2,100.2-0.9c25.9,0.2,51.9,2.2,77.8,2.6c42.2,0.6,84.4,0.2,126.6,0.8c21.3,0.3,42.5,1.5,63.7,3.5
	c2.9,0.3,7.5,7.3,7.4,11.2c-1.1,80.6-2.5,161.2-4.2,241.7c-0.8,37.3-3.4,74.6-3.3,111.9c0,46.8,2.6,93.7,2.7,140.5
	c0,29-3.3,58-3.8,87.1c-0.5,30.1,1.2,60.3,0.9,90.4c-0.2,29.5-2.1,58.9-2.6,88.4c-0.6,33.3-0.4,66.7-0.7,100
	c-0.3,33.2-1.2,66.5-1.3,99.7c-0.1,29.7,1,59.4,0.7,89.1c-0.3,32.3-2.3,64.5-2.3,96.8c0,36.1,1.8,72.2,2.2,108.3
	c0.5,43.4,0.4,86.8,0.5,130.2c0.1,36.7,0.6,73.4,0.4,110.1c-0.2,37.8-1.1,75.6-1.4,113.3c-0.3,46.1-0.6,92.2-0.5,138.3
	c0.2,64.1,1,128.1,1.4,192.2c0.3,50,0.7,100,0.7,150c0,47.4-1,94.9-0.7,142.3c0.2,31.7,2.6,63.4,2.8,95c0.1,23.5-2.5,46.9-2.8,70.4
	c-0.4,31.6,0.3,63.2,0.5,94.7c0.1,21.5,0.4,43.1,0.4,64.6c0,22.2-0.1,44.4-0.4,66.5c-0.4,24.1-1.6,48.1-1.5,72.2
	c0.2,46,1.5,92.1,1.4,138.1c-0.1,54.4-1.4,108.8-1.6,163.2c-0.1,28.8,0,57.7,2.1,86.3c1.7,23.3-16.3,16.1-25.7,16.5
	c-54.4,2.3-108.9,3.6-163.4,3.7c-68.2,0.2-136.4-1.1-204.6-1.6c-53.8-0.3-107.6-0.5-161.4-0.3c-39.5,0.1-79,1.4-118.5,1.1
	c-49.2-0.4-98.3-2.5-147.5-2.6c-41.9-0.1-83.9,2.7-125.8,2.2c-50.8-0.7-101.6-4.5-152.4-5.1c-61.6-0.7-123.3,0.4-184.9,1
	c-24.1,0.2-48.4-0.2-72.3,2.3c-28.9,3-20.2-17.6-19.9-30.6c1.1-55.3,3.6-110.6,5.6-165.9c1.7-49.2,3.4-98.4,5.1-147.6
	c1.6-46.2,2.8-92.4,4.7-138.6c1.9-47,5.2-93.9,6.5-140.9c1.9-67.8,2.7-135.6,3.7-203.4c0.6-43.6,0.1-87.2,1-130.8
	c0.4-23.2,2.6-46.3,3.9-69.4c0.2-3.6-1-7.3-0.9-10.9c0.2-6.5-1.2-17.3,1.6-18.6c7.1-3.3,16.2-3.1,24.5-2.8c24.7,1,49.3,3.6,74,4
	c27.9,0.5,55.8-0.3,83.7-1.2c41.4-1.4,82.8-3,124.1-6c4.6-0.3,12.1-9.9,12.3-15.5c1.3-34.7,1.2-69.4,1.2-104.2
	c0-48.8-0.4-97.5-0.6-146.3c0-4.5,0.8-9.3-0.3-13.6c-7.4-27.5,11.3-24,27.8-24.1c34.6-0.1,69.2-0.9,103.8-1.1
	c37.2-0.2,74.4,0,111.6-0.1c43.3-0.2,86.7-0.2,130-0.9c44.5-0.7,89.1-1.7,133.6-3.3c43.2-1.5,86.4-4.5,129.7-5.9
	c25.9-0.8,51.8,0.6,77.7,0c19.7-0.4,39.3-2.8,59-3.7c19.5-0.8,39-1.1,58.5-0.7c2.7,0.1,7.5,5.5,7.6,8.5c0.9,54.1,1,108.3,1.8,162.4
	c0.8,60.8,2.7,121.6,3,182.4c0.2,32.7-2.3,65.4-2.7,98.1c-0.5,33.6,0.2,67.2,0.2,100.7c0,41-0.6,82.1-0.2,123.1
	c0.4,41.8,2.6,83.6,2.4,125.4c-0.1,29.7-3.4,59.3-4.4,88.9c-0.8,23.3,0.1,46.7-0.1,70c-0.2,29.2-1.2,58.5-1.1,87.7
	c0.1,27.1,1.4,54.2,1.5,81.4c0,11.4-1.4,22.8-2.9,34.1c-0.2,1.3-4.5,2.9-6.9,3c-25.5,0.5-51,0.3-76.5,0.9
	c-51.1,1.1-102.3,3.2-153.4,3.7c-42.7,0.4-85.4-1.5-128.1-1.4c-63.5,0.2-126.9,1.7-190.4,2c-29.7,0.1-59.5-1.7-89.2-1.7
	c-39,0-78.1,1.2-117.1,1.3c-29.3,0-58.7-1.3-88-1.4c-35.7-0.1-71.5,0.6-107.2,0.2c-3.1,0-8.8-6-8.8-9.3c0.1-42.6,0.5-85.2,1.7-127.7
	c0.9-34.5,3.2-68.9,4.2-103.3c0.5-18.7-0.9-37.5-0.5-56.3c0.6-22.3,2.5-44.6,3.3-66.9c0.9-23.2,1.2-46.5,2-69.7
	c0.8-27.3,2.4-54.6,2.6-81.9c0.2-31.2-0.8-62.3-1.3-93.5c-0.1-7.5-1-15.1,0.2-22.4c3.2-19.2,18.6-8.1,27.3-8.6
	c26.5-1.3,53.2,1.2,79.8,1.4c29.5,0.3,59,0,88.6-0.5c36.3-0.7,72.7-1.2,108.9-4.1c3.3-0.3,7.2-16.5,7.6-25.4
	c2-47.6,3.4-95.3,4.3-143c0.8-40.6,0.2-81.2,1.6-121.7c0.2-4.8,9-13,14.1-13.3c46.8-2.7,93.8-4.6,140.7-5.5c34-0.6,68,1.1,102,0.8
	c34.9-0.3,69.8-1.5,104.7-2.6c23.6-0.7,47.2-2.2,70.8-2.4c2.7,0,7.7,5.5,7.7,8.6c0.4,58.2,0.5,116.4,0,174.7
	c-0.5,58.6-1.8,117.2-2.5,175.8c-0.7,66.9-1.1,133.8-1.7,200.6c-0.6,62.2-1.1,124.4-2.7,186.6c-0.1,3.7-8.9,10-13.7,10.2
	c-41.4,1.2-82.9,0.8-124.4,1.6c-47.7,0.9-95.4,3-143.1,3.7c-44.9,0.7-89.7-0.1-134.6,0.5c-40.2,0.6-80.3,2.5-120.5,2.9
	c-3.6,0-10.3-6-10.4-9.4c-1-26.8-1.5-53.7-0.6-80.5c1.4-40.7,3.9-81.4,6-122.2c0.1-2.7,0.8-5.5,0.2-8c-4.7-19.4,2.8-23.8,22.1-23.6
	c41.8,0.4,83.6-3.2,125.4-3.7c46.8-0.5,93.7,0.1,140.5,1.2c16.3,0.4,20-7.8,20.3-21.4c0.8-41.8,2.2-83.6,2.8-125.4
	c0.8-51.8,1-103.6,1.8-155.4c0-2.2,3.5-5.9,5.8-6.3c5.5-0.9,11.3,0,16.9-0.3c14-0.7,24-3.3,19.2,19.8c-5.3,25.4-0.3,52.8-0.8,79.3
	c-0.7,33.4-2.8,66.8-3.6,100.3c-0.6,25.8-0.2,51.6-0.1,77.4c0,21.4,0.4,42.7,0,64.1c0,2.3-4.5,6.5-6.9,6.5
	c-32.4-0.3-64.8-1.9-97.1-1.7c-24.9,0.1-49.9,2.8-74.8,3.3c-23.8,0.4-47.6-0.9-71.4-0.9c-18-0.1-36.7-2.1-53.6,2.4
	c-5.6,1.5-8.1,20.6-9,32c-2.4,30.4-3.2,60.9-4.5,91.4c-0.4,9.1-2.3,18.9,0.2,27.2c1.8,6.2,9.7,15,14.9,15
	c25.8,0.2,51.6-2.7,77.5-3.5c39.1-1.3,78.3-2.2,117.5-2.5c30.4-0.2,60.8,1.4,91.2,1.3c35.1-0.1,70.2-0.9,105.3-1.9
	c16.4-0.4,32.8-2.8,49.2-2.7c24.6,0.1,17.1-18.5,17.5-30.5c1.2-38.6,0.6-77.3,0.9-116c0.3-41.5,0.7-82.9,1-124.4
	c0.3-50.2,0.4-100.3,0.9-150.5c0.4-35.5,1.8-71.1,1.7-106.6c-0.2-45.9-1.1-91.9-2.8-137.8c-0.1-3.5-9.3-9.4-14.3-9.5
	c-32.6-0.6-65.3,0-97.9,0.3c-34.2,0.3-68.5,0.7-102.7,1.3c-37.8,0.7-75.6,2.7-113.4,2.3c-27.7-0.3-30.9,2.1-31.5,29.9
	c-0.7,31.4-3.3,62.9-4,94.3c-0.9,38.9-0.4,77.9-1,116.8c-0.3,19.2-2.7,38.3-2.3,57.5c0.5,21.7-16.3,12.2-24.1,12.5
	c-44.8,1.5-89.7,1-134.5,1.1c-34.9,0.1-69.7-0.1-104.6,0c-12.7,0-25.6-1-38,0.8c-23,3.4-11.9,23-12.3,34.1
	c-2.6,66.5-2.6,133.1-4.2,199.6c-1,41.8-4,83.5-4.8,125.3c-0.9,44.6-0.1,89.3-0.2,133.9c0,12.8,0.1,25.6-1,38.3
	c-2.9,33.1-3.1,32.4,30.6,31.8c32-0.6,63.9,1.4,95.9,1.3c40-0.1,80-1.3,120-1.5c22.6-0.1,45.3,1.2,67.9,1.1
	c22.3-0.1,44.5-1.3,66.8-1.6c21.9-0.3,43.8,0,65.6-0.1c58.4-0.4,116.7-0.8,175.1-1.2c38.4-0.3,76.9-0.4,115.3-1.3
	c35.2-0.8,70.3-2.6,105.5-3.8c12.9-0.4,25.9,0.2,38.8-1c3-0.3,7.6-6.1,7.7-9.5c1.2-48,1.8-96.1,2.3-144.1
	c0.3-35.9-0.3-71.7,0.3-107.6c0.7-46.9,2.2-93.9,3-140.8c0.7-42.9,1.1-85.9,1.2-128.8c0.2-58.7,0-117.4-0.1-176.2
	c0-41.3,0-82.6-0.3-123.8c-0.3-41.1-1-82.1-1.3-123.2c-0.2-35.3,0.4-70.6-0.4-105.9c-0.7-29.1-4.5-29.8-35.1-27.5
	c-37.9,2.8-76,1.9-114,3.1c-34.9,1.1-69.8,3.1-104.8,4.2c-25.3,0.8-50.6,0.7-75.8,1.5c-26.3,0.9-52.5,2.6-78.8,3.6
	c-34.5,1.4-69,2.4-103.5,3.7c-30,1.1-60,2.9-90,3.2c-39.3,0.3-78.5-0.7-117.8-0.9c-11.8,0-23.7,0-35.3,1.9c-3.7,0.6-9,7-9.1,10.9
	c-2,40.9-3.5,81.8-4.4,122.7c-0.9,39.9-1.2,79.8-1.4,119.8c-0.1,14.6,1.4,29.2,1,43.7c-0.1,1.7-7.9,4.5-12.2,4.6
	c-31.2,1-62.5,2-93.7,2c-56.5,0.1-113-0.4-169.5-0.8c-11.7-0.1-25.5-4.5-34.3,0.3c-7.3,4-11.6,18.6-12.1,28.7
	c-2.8,53.7-4.2,107.5-5.6,161.3c-0.8,30.4-0.5,60.9-1.3,91.3c-0.9,35.5-2.7,70.9-3.4,106.4c-0.6,34.3,0.2,68.6-0.2,102.9
	c-0.3,28.9-1.6,57.8-2.3,86.7c-0.5,21.6-0.4,43.2-1.4,64.7c-1.8,35.3-4.8,70.6-6.3,105.9c-1,21.8-0.1,43.8-0.3,65.6
	c-0.4,37.1-1.1,74.3-1.6,111.4c-0.2,12.5-0.1,25-0.2,37.6c-0.2,17.6,14.5,13.4,23,13.5c45.4,0.9,90.9,0.4,136.3,0.1
	c39.7-0.2,79.4-0.8,119.1-1.2c34.2-0.4,68.3-1.3,102.5-1c64.6,0.6,129.2,1.6,193.7,2.9c36.8,0.7,73.7,2.7,110.5,3.2
	c25,0.3,50-1.7,75-1.3c46.3,0.8,92.6,3.4,139,3.7c45.1,0.3,90.2-1.3,135.2-2c31.5-0.5,62.9-0.5,94.4-1.3c50-1.3,100-2.8,150-4.6
	c23.8-0.8,11.7-19.6,12.1-29.3c1.7-42.5,1.2-85.1,1.2-127.7c0-49.5-0.5-99.1-0.2-148.6c0.2-36.3,1.7-72.6,2.3-108.9
	c0.5-28.5,0.7-57,0.6-85.5c-0.1-26.5-1.2-53-1.1-79.4c0.1-40.7,0.9-81.3,1.4-122c0.5-36.4,1.5-72.9,1.6-109.3
	c0.1-59.4-0.5-118.8-0.4-178.2c0.1-45.9,1.4-91.8,1.4-137.7c0-47.6-1.1-95.3-1.4-142.9c-0.3-51.7-0.2-103.3-0.5-155
	c-0.2-30.2-0.6-60.5-2-90.7c-0.1-3.2-7.7-8.7-11.8-8.6c-48.6,0.3-97.3,1-145.9,2.3c-51.9,1.4-103.7,3.7-155.6,5.2
	c-40.1,1.2-80.2,1.3-120.3,2.6c-34.7,1-69.3,3.1-104,4.4c-37.3,1.4-74.5,2.3-111.8,3.8c-30.3,1.2-60.5,3.7-90.7,4.1
	c-22.7,0.3-45.5-2.3-68.2-2.6c-21.5-0.2-43,1.3-64.4,1.6c-33.6,0.5-67.3,0.8-100.9,0.6c-2,0-5.6-4.8-5.6-7.5
	c-0.7-45.1-1.3-90.2-1.4-135.3c-0.1-44.9,0.3-89.7,0.3-134.6c0.1-50.6,0.2-101.2-0.4-151.8c0-2.9-5.8-8.3-8.9-8.3
	c-57.6,0-115.2,0.4-172.8,1.1c-45.4,0.6-90.7,2.1-136.1,1.9c-4.6,0-11.1-7.8-13.3-13.3C1760,1120.6,1761.8,1113.3,1761.8,1106.7z"/>
</svg>
