<svg version="1" xmlns="http://www.w3.org/2000/svg" width="480" height="480" viewBox="0 0 360.000000 360.000000"><path d="M157.6 44.8c-2.1 6.6-7.8 15.4-15 23.2-13.4 14.3-25.4 26.7-52.6 53.9-32.6 32.7-46.4 45.8-52.7 50.2-5.4 3.8-16.9 8.9-17.9 8.1-.3-.4-.5-.2-.3.4.2.7 6.9 6.2 14.9 12.3 8 6.1 17.4 13.3 21 16.1 3.6 2.8 19.7 15.2 35.9 27.6l29.3 22.6 3.6-3.4c2-1.8 4.8-4.4 6.3-5.8 7.4-7 20-18.3 23.1-20.8 1.9-1.5 4.7-3.9 6.3-5.4l3-2.8-3.4 1c-3.6 1-8.8 1.9-14.7 2.5-5 .4-12.9-1.6-20-5.3C118 216 94 198.6 94 197.3c.1-1.3 87.1-88.6 95.8-96.1 9.3-7.9 14.6-11.2 22.4-13.7 2.9-1 5.6-2 6-2.4.4-.4-2.9-3.3-7.5-6.6-4.5-3.2-16.9-12.7-27.5-20.9-10.7-8.3-20.4-15.9-21.6-16.8-2.3-1.7-2.3-1.7-4 4zM233.5 106.6c-12 11.2-16.2 15.1-25.8 23.3-5.3 4.6-9.7 8.5-9.7 8.6 0 .2 3-.5 6.8-1.4 6.8-1.7 15.7-2 20.2-.7 3.2.9 12.3 4.9 13 5.7.3.3 1.2.8 2 1.1 2.3.9 26 18.7 26 19.5-.1 1.3-87.9 89.4-95.8 96.1-9.6 8.2-13.7 10.7-22.1 13.5-3.8 1.3-6.6 2.8-6.3 3.3.4.5 4.1 3.4 8.2 6.4 7 5.1 35.8 27.2 46 35.3l4.4 3.6 2.5-6.7c4.5-12.7 10-18.9 67.2-76.1 37.7-37.8 42.5-42.4 50.9-48.7 5.8-4.4 8.9-6 18-9.6 2.4-1 2.4-1 .5-2.4-1.1-.8-2.7-2-3.5-2.7-.9-.6-6.3-4.8-12-9.2-5.8-4.3-10.9-8.3-11.5-8.7-6.3-5.1-71.8-55.3-72.4-55.5-.3-.2-3.3 2.3-6.6 5.3z"/></svg>