<?xml version="1.0" encoding="utf-8"?>
<!-- Generator: Adobe Illustrator 22.1.0, SVG Export Plug-In . SVG Version: 6.00 Build 0)  -->
<svg version="1.1" id="winding_edita" xmlns="http://www.w3.org/2000/svg" xmlns:xlink="http://www.w3.org/1999/xlink" x="0px"
	 y="0px" viewBox="0 0 1000 1219.6" style="enable-background:new 0 0 1000 1219.6;" xml:space="preserve">
<style type="text/css">
	.st0{fill:#4A2D37;}
</style>
<g>
	<path class="st0" d="M78,47.8c0,0-0.4-0.1-3.3,0.5c-0.1,0.5-0.2,1-0.4,1.5c-0.1,0.2-0.1,0.3-0.3,0.4c-0.1,0-0.2,0-0.2,0
		c-0.1-0.8-0.2-1.8-0.2-2.6l10.1-2.1c0.3,0.8,0.6,1.7,0.9,2.5c0,0-0.1,0.1-0.2,0.1c-0.2,0-0.3,0-0.4-0.2c-0.3-0.4-0.6-0.8-0.9-1.2
		c-2.9,0.6-3.3,0.8-3.3,0.8l1.9,9l1.4,0.1c0.2,0,0.3,0.1,0.4,0.3c0,0.1,0,0.2,0,0.2s-1.6,0.2-2.4,0.4c-0.8,0.2-2.4,0.6-2.4,0.6
		s-0.1-0.1-0.1-0.2c0-0.2,0.1-0.3,0.2-0.4l1.2-0.6L78,47.8z"/>
	<path class="st0" d="M93.5,49l0.9,4.9l1.3,0.1c0.2,0,0.3,0.1,0.4,0.3c0,0.1,0,0.2,0,0.2s-1.5,0.2-2.3,0.3s-2.1,0.5-2.1,0.5
		s-0.1-0.1-0.1-0.2c0-0.2,0.1-0.3,0.2-0.4l1-0.6L92,49.9c-0.2-1.2-0.8-1.7-1.8-1.5c-0.4,0.1-0.7,0.3-0.9,0.5
		c-0.2,0.3-0.8,1.2-0.8,1.4l0.9,4.4l1.1,0.2c0.2,0,0.3,0.1,0.4,0.3c0,0.1,0,0.2,0,0.2s-1.4,0.2-2.1,0.3s-2.2,0.5-2.2,0.5
		s-0.1-0.1-0.1-0.2c0-0.2,0.1-0.3,0.2-0.4l1.1-0.6l-2-10.2c0,0-0.7,0.1-1.2,0c-0.4,0-0.4-0.1-0.4-0.2c0-0.1,0-0.2,0-0.2
		c0.5-0.1,1.6-0.4,2.4-0.9c0.1-0.1,0.2-0.1,0.3-0.1c0.1,0,0.2,0,0.3,0.3l1,5.4c0,0.1,0,0.1,0.1,0.1c0,0,0,0,0,0
		c0.8-1.3,1.8-2,2.8-2.2C92.5,46.8,93.3,47.6,93.5,49z"/>
	<path class="st0" d="M98,50.3c0.3,1.7,1.4,2.6,2.8,2.4c1.2-0.2,2.1-0.7,2.4-0.9c0.1,0,0.2,0.1,0.2,0.2c0,0.1-0.1,0.3-0.2,0.5
		c-0.6,0.7-1.6,1.3-2.8,1.5c-2.1,0.4-3.7-1.1-4.1-3.2c-0.4-2.4,1.1-4.9,3.2-5.3c1.8-0.3,2.9,0.9,3.4,3.6L98,50L98,50.3z M101.1,48.7
		c-0.1-0.5-0.6-2.3-2.1-2.1c-0.8,0.1-1.3,1.7-1.1,2.6L101.1,48.7z"/>
	<path class="st0" d="M113.6,46.2l-3.1,0.5l0.6,4.1c1.1-0.1,2.4-0.2,4.8-0.6l0.5-1.5c0.1-0.2,0.2-0.3,0.3-0.3c0.1,0,0.2,0,0.2,0
		l-0.1,2.7c0,0-7.5,1.2-8.9,1.4c0,0,0-0.1-0.1-0.2c0-0.2,0.1-0.3,0.2-0.4l1.2-0.5l-1.4-9.3l-1.2-0.2c-0.2,0-0.3-0.1-0.4-0.3
		c0-0.1,0-0.2,0-0.2l8.6-1.3l0.8,2.5c0,0-0.1,0-0.2,0.1c-0.2,0-0.3,0-0.5-0.2c-0.3-0.3-0.9-1.3-0.9-1.3c-3,0.5-4.4,0.8-4.4,0.8
		l0.6,3.8l3.1-0.5l0.2-1.1c0-0.2,0.2-0.3,0.4-0.4c0.1,0,0.2,0,0.2,0s0.1,1.1,0.2,1.8c0.1,0.7,0.4,1.7,0.4,1.7s-0.1,0.1-0.2,0.1
		c-0.2,0-0.4-0.1-0.5-0.2L113.6,46.2z"/>
	<path class="st0" d="M125.9,43.9l0.7,4.9l1.2,0.2c0.2,0,0.3,0.1,0.3,0.3c0,0.1,0,0.2,0,0.2s-1.5,0.1-2.3,0.2
		c-0.8,0.1-2.1,0.4-2.1,0.4s-0.1-0.1-0.1-0.2c0-0.2,0.1-0.3,0.3-0.4l1-0.5l-0.6-4.3c-0.2-1.2-0.7-1.7-1.7-1.6
		c-0.4,0.1-0.8,0.2-1,0.5c-0.3,0.3-0.9,1.1-0.8,1.4l0.6,4.5l1.1,0.2c0.2,0,0.3,0.1,0.3,0.3c0,0.1,0,0.2,0,0.2s-1.4,0.1-2.2,0.2
		s-2.3,0.4-2.3,0.4s-0.1-0.1-0.1-0.2c0-0.2,0.1-0.3,0.3-0.4l1.2-0.5l-0.8-6c0,0-0.7,0-1.2,0c-0.4,0-0.4-0.2-0.4-0.3
		c0-0.1,0-0.2,0-0.2c0.6-0.1,1.6-0.3,2.5-0.7c0.1-0.1,0.2-0.1,0.3-0.1c0.1,0,0.2,0.1,0.3,0.3c0,0,0.1,0.9,0.1,1.2
		c0,0.1,0,0.1,0.1,0.1c0,0,0,0,0,0c0.7-1.3,2.1-2,3-2.1C125,41.7,125.7,42.5,125.9,43.9z"/>
	<path class="st0" d="M135.1,40.2c0.6-0.1,1,0.2,1.1,0.7c0,0.4-0.3,0.7-0.3,0.7c-0.2-0.1-0.5-0.2-0.9-0.1c-0.3,0-0.5,0.1-0.8,0.3
		c0,0,0.5,0.6,0.6,1.3c0.2,1.7-1,2.9-3,3.2c-0.2,0-0.5,0-0.8,0c-0.2,0.2-0.5,0.9-0.4,1.2c0,0.4,0.7,0.4,1.3,0.4
		c2.8-0.3,4.5,0,4.7,1.6c0.2,1.7-1.7,3.4-4,3.7c-2.3,0.3-3.6-0.1-3.7-1.4c-0.1-0.8,0.7-1.8,1.3-2.5c-0.6-0.2-1.1-0.7-1.1-1.2
		c0-0.3,0.8-1.3,1.3-1.9c-0.8-0.3-1.4-1-1.5-1.9c-0.2-1.9,0.9-3.3,3.1-3.5c0.8-0.1,1.5,0.2,2,0.5C134.2,40.7,134.5,40.3,135.1,40.2z
		 M133.2,43.5c-0.1-1.1-0.9-2-2-1.8c-0.8,0.1-1.2,1-1.1,2c0.1,1.1,0.9,1.9,2,1.8C132.9,45.3,133.3,44.4,133.2,43.5z M135.2,50.1
		c-0.1-0.9-1.3-1.1-4.3-0.8c-0.2,0.2-0.7,1.1-0.7,1.7c0.1,0.9,1.1,1.2,3,1C134.7,51.9,135.3,51.2,135.2,50.1z"/>
	<path class="st0" d="M137.8,37c0,0-0.7,0-1.2-0.1c-0.4,0-0.4-0.2-0.4-0.3c0-0.1,0-0.2,0-0.2c0.6-0.1,1.8-0.3,2.6-0.7
		c0.1,0,0.2-0.1,0.3-0.1c0.1,0,0.2,0.1,0.3,0.4l1.1,11.2l1.2,0.2c0.2,0.1,0.3,0.1,0.3,0.3c0,0.1,0,0.2,0,0.2s-1.5,0.1-2.3,0.1
		c-0.8,0.1-2.3,0.3-2.3,0.3s-0.1-0.1-0.1-0.2c0-0.2,0.1-0.3,0.3-0.4l1.2-0.5L137.8,37z"/>
	<path class="st0" d="M143.7,40.8c0,0-0.7,0-1.2-0.1c-0.4-0.1-0.4-0.2-0.4-0.3c0-0.1,0-0.2,0-0.2c0.6-0.1,1.8-0.3,2.6-0.6
		c0.1,0,0.2-0.1,0.3-0.1c0.1,0,0.2,0.1,0.2,0.4l0.6,6.9l1.2,0.2c0.2,0.1,0.3,0.1,0.3,0.3c0,0.1,0,0.2,0,0.2s-1.5,0.1-2.3,0.1
		c-0.8,0.1-2.3,0.3-2.3,0.3s-0.1-0.1-0.1-0.2c0-0.2,0.1-0.3,0.3-0.4l1.2-0.5L143.7,40.8z M144.1,37.8c0.6-0.1,1-0.6,1-1.1
		c0-0.5-0.6-1-1.2-0.9c-0.5,0-1,0.6-0.9,1.1C143,37.4,143.6,37.8,144.1,37.8z"/>
	<path class="st0" d="M150.7,39.7c-0.5,0-0.8,0.4-0.8,0.8c0.1,1.6,3.9,2.3,4.1,4.3c0.1,1.5-1.3,2.4-2.8,2.5
		c-1.6,0.1-2.8-0.5-2.9-1.3c0-0.5,0.3-0.9,0.8-1c0.1,0,0.2,0,0.2,0c0.1,0.5,1,1.5,2.1,1.4c0.6,0,0.9-0.4,0.9-0.9
		c-0.2-2-3.8-2.4-4-4.5c-0.1-1.2,1.1-2.1,2.6-2.2c1.2-0.1,2.2,0.2,2.2,1c0,0.5-0.3,0.7-0.8,0.8c-0.1,0-0.2,0-0.2,0
		C152.2,40.5,151.6,39.7,150.7,39.7z"/>
	<path class="st0" d="M163.2,40.5l0.3,4.9l1.2,0.3c0.2,0.1,0.3,0.1,0.3,0.3c0,0.1,0,0.2,0,0.2s-1.6,0-2.3,0s-2.1,0.2-2.1,0.2
		s-0.1-0.1-0.1-0.2c0-0.2,0.1-0.3,0.3-0.4l1-0.4l-0.3-4.3c-0.1-1.2-0.6-1.8-1.6-1.7c-0.4,0-0.7,0.2-1,0.4c-0.3,0.3-1,1.1-1,1.3
		l0.3,4.5l1.1,0.3c0.2,0.1,0.3,0.1,0.3,0.3c0,0.1,0,0.2,0,0.2s-1.4,0-2.2,0s-2.3,0.2-2.3,0.2s-0.1-0.1-0.1-0.2
		c0-0.2,0.1-0.3,0.3-0.4l1.2-0.4L156,35.4c0,0-0.7,0-1.2-0.1c-0.4-0.1-0.4-0.2-0.4-0.3c0-0.1,0-0.2,0-0.2c0.6,0,1.6-0.2,2.5-0.5
		c0.1,0,0.2-0.1,0.3-0.1c0.1,0,0.2,0.1,0.2,0.4l0.3,5.5c0,0.1,0,0.1,0.1,0.1c0,0,0.1,0,0.1,0c0.9-1.1,2-1.7,3-1.8
		C162.5,38.2,163.1,39.1,163.2,40.5z"/>
	<path class="st0" d="M174,37.7c2-0.1,3,1.8,3.1,3.7c0.1,2.3-1.8,4.6-4,4.7c-0.5,0-1.1-0.2-1.2-0.2c0,0,0,0,0,0.1
		c0,0.4,0.1,2.9,0.1,2.9l1.5,0.3c0.2,0,0.3,0.2,0.3,0.4c0,0.1,0,0.2,0,0.2s-1.7,0-2.5,0c-0.8,0-2.4,0.2-2.4,0.2s-0.1-0.1-0.1-0.2
		c0-0.2,0.1-0.3,0.3-0.4l1.2-0.4l-0.3-10c0,0-0.7-0.1-1.2-0.1c-0.4-0.1-0.4-0.2-0.4-0.3c0-0.1,0-0.2,0-0.2c0.6,0,1.7-0.2,2.6-0.5
		c0.1,0,0.2-0.1,0.3-0.1c0.1,0,0.2,0.1,0.2,0.4c0,0,0,0.8,0,0.8c0,0.1,0,0.1,0.1,0.1c0,0,0.1,0,0.1,0
		C172.2,38.6,172.9,37.8,174,37.7z M171.9,44.7c0.6,0.3,1.1,0.5,1.8,0.5c0.7,0,1.7-1.3,1.7-3.3c0-1.6-0.8-2.7-2.2-2.7
		c-0.6,0-1.4,0.6-1.4,0.6L171.9,44.7z"/>
	<path class="st0" d="M186,41.4c0,2.9-2,4.6-4,4.7c-2.2,0-3.5-1.8-3.5-3.9c0-2.5,1.8-4.6,4.1-4.6C184.4,37.5,186,38.8,186,41.4z
		 M184.2,41.9c0-1.9-0.9-3.4-2.3-3.4c-1.3,0-1.7,2.1-1.7,3.1c0,2.5,1.2,3.5,2.4,3.5C183.7,45.1,184.2,43.5,184.2,41.9z"/>
	<path class="st0" d="M189.1,42c0,1.8,0.9,2.8,2.4,2.9c1.2,0,2.2-0.3,2.5-0.5c0.1,0,0.2,0.1,0.2,0.3c0,0.1-0.1,0.3-0.3,0.4
		c-0.7,0.6-1.8,1-3,1c-2.1,0-3.5-1.7-3.5-3.9c0-2.4,1.9-4.6,4.1-4.6c1.8,0,2.7,1.5,2.7,4.2l-5.1-0.1L189.1,42z M192.4,41
		c0-0.5-0.2-2.4-1.7-2.4c-0.8,0-1.6,1.4-1.6,2.4L192.4,41z"/>
	<path class="st0" d="M196.3,43.5l0.1-4.9l-1.4,0l0-0.9c0.3,0,1.4,0.1,1.4,0.1l0-1.7c0.6-0.1,1.2-0.4,1.5-0.4c0.2,0,0.2,0.1,0.2,0.4
		l0,1.7c0.1,0,1.8,0,2.3-0.2c0.1,0.1,0.1,0.2,0.1,0.3c0,0.5-0.4,0.8-1,0.8c-0.4,0-1.4-0.1-1.4-0.1l-0.1,4.1c-0.1,1.8,0,2.1,0.7,2.1
		c0.5,0,1.3-0.2,1.7-0.3c0.1,0,0.2,0.1,0.2,0.3c0,0.2-0.1,0.3-0.3,0.4c-0.5,0.4-1.8,0.9-2.5,0.9C196.6,46.1,196.2,45.3,196.3,43.5z"
		/>
	<path class="st0" d="M214.1,37c-0.3-0.3-1.6-0.7-3.1-0.8c-1.8-0.1-3.8,1.9-4,4.7c-0.2,3.4,1.6,4.8,3.7,5c1.2,0.1,2.1-0.2,2.5-0.4
		l0.2-3.4c-0.5,0-2.1-0.1-2.1-0.1l0.1-0.9c0,0,1.3,0.2,2.3,0.2c1.3,0.1,2.4,0,2.7-0.1c0.1,0.1,0.1,0.3,0.1,0.4c0,0.5-0.5,0.6-1,0.6
		l-0.4,0l-0.2,4c-1.4,0.5-2.8,0.7-4.7,0.6c-1.8-0.1-5.5-0.9-5.2-5.7c0.1-2.3,1.9-6.1,6.6-5.8c1.7,0.1,3.5,0.6,3.5,0.6l0.1,2.6
		c0,0-0.1,0-0.2,0c-0.2,0-0.3-0.1-0.4-0.3L214.1,37z"/>
	<path class="st0" d="M219.1,43.4c-0.2,1.8,0.7,2.9,2.1,3c1.2,0.1,2.3-0.1,2.5-0.3c0.1,0,0.2,0.1,0.1,0.3c0,0.1-0.1,0.3-0.3,0.4
		c-0.8,0.6-1.9,0.9-3.1,0.8c-2.1-0.2-3.3-2-3.1-4.1c0.2-2.4,2.3-4.4,4.5-4.2c1.8,0.2,2.6,1.7,2.4,4.4l-5.1-0.5L219.1,43.4z
		 M222.5,42.6c0-0.5,0-2.4-1.5-2.6c-0.8-0.1-1.7,1.3-1.8,2.3L222.5,42.6z"/>
	<path class="st0" d="M232.9,44.2c-0.3,2.8-2.5,4.4-4.6,4.1c-2.2-0.3-3.2-2.3-3-4.3c0.3-2.5,2.3-4.3,4.6-4.1
		C231.8,40.2,233.2,41.7,232.9,44.2z M231.1,44.5c0.2-1.9-0.4-3.5-1.9-3.7c-1.3-0.1-1.9,1.9-2.1,2.9c-0.3,2.5,0.8,3.6,2,3.7
		C230.2,47.6,230.9,46.1,231.1,44.5z"/>
	<path class="st0" d="M245,37.7c1.1,0.2,2.1,0.8,1.9,1.5c-0.1,0.5-0.6,0.7-1.1,0.6c-0.2-0.4-0.8-1.1-1.6-1.2c-0.5-0.1-0.8,0.7-1,1.7
		L243,42c0,0,1.9,0.2,2.3,0.1c0.1,0.1,0.1,0.2,0.1,0.3c-0.1,0.5-0.5,0.8-1.1,0.7c-0.4-0.1-1.4-0.2-1.4-0.2L242,49l1.4,0.6
		c0.2,0.1,0.3,0.2,0.2,0.4c0,0.1-0.1,0.2-0.1,0.2s-1.8-0.3-2.5-0.5s-2.2-0.2-2.2-0.2s0-0.1,0-0.2c0-0.2,0.2-0.3,0.4-0.3l1.1-0.2
		l0.9-6.2l-3.7-0.5l-0.9,6.2l1.1,0.5c0.2,0.1,0.3,0.2,0.2,0.4c0,0.1-0.1,0.2-0.1,0.2s-1.5-0.3-2.2-0.4c-0.7-0.1-2.3-0.2-2.3-0.2
		s0-0.1,0-0.2c0-0.2,0.2-0.3,0.4-0.3l1.2-0.2l0.9-6.2c0,0-1.1-0.1-1.4-0.2l0.1-0.9c0.3,0.1,1.4,0.2,1.4,0.2l0.1-0.4
		c0.3-2.4,2.2-3.4,3.9-3.1c1.1,0.2,1.9,0.7,2.4,1.1C243.1,37.8,244.1,37.5,245,37.7z M241.6,40.4c-0.1-0.6-1-1.8-2.2-2
		c-0.8-0.1-1.2,0.3-1.5,1.9l-0.1,1l3.7,0.5L241.6,40.4z"/>
	<path class="st0" d="M251.8,43.2c0.9,0.1,1.4,0.7,1.3,1.4c-0.1,0.7-0.7,0.9-1.2,0.8c-0.2-0.5-0.5-1.1-1.1-1.2
		c-0.5-0.1-1.5,1.1-1.6,1.7l-0.7,4.2l1.4,0.6c0.2,0.1,0.3,0.2,0.2,0.4c0,0.1-0.1,0.2-0.1,0.2s-1.6-0.4-2.5-0.5
		c-0.8-0.1-2.4-0.3-2.4-0.3s0-0.1,0-0.2c0-0.2,0.2-0.3,0.4-0.3l1.3-0.1l1.1-6c0,0-0.8-0.2-1.2-0.4c-0.4-0.2-0.4-0.3-0.3-0.4
		c0-0.1,0.1-0.2,0.1-0.2c0.5,0.1,1.7,0.2,2.6,0.1c0.1,0,0.2,0,0.3,0c0.1,0,0.2,0.1,0.1,0.4c0,0-0.2,0.9-0.2,1.2c0,0.1,0,0.1,0,0.1
		c0,0,0.1,0,0.1,0C250.1,43.5,251,43.1,251.8,43.2z"/>
	<path class="st0" d="M254.9,48.3c-0.3,1.7,0.4,3,1.8,3.2c1.1,0.2,2.3,0.1,2.5,0c0.1,0,0.1,0.1,0.1,0.3c0,0.1-0.2,0.3-0.3,0.4
		c-0.8,0.5-2,0.7-3.2,0.4c-2.1-0.4-3.1-2.3-2.7-4.4c0.5-2.4,2.8-4.2,4.9-3.7c1.8,0.4,2.4,2,1.9,4.6l-5-1L254.9,48.3z M258.4,47.9
		c0.1-0.5,0.3-2.4-1.2-2.7c-0.8-0.2-1.8,1.1-2,2.1L258.4,47.9z"/>
	<path class="st0" d="M269.3,47.9c-0.4,0.4-4.3,6.2-4.6,6.7c-1.3,1.8-2.5,3.3-4.4,2.9c-0.9-0.2-1.4-0.9-1.3-1.5s0.6-0.8,1.2-0.7
		c0.1,0.4,0.6,1.2,1,1.3c0.6,0.1,1.9-1.5,2.6-2.6c-0.5-2.6-1.2-6.5-1.5-7.7l-0.8-0.5c-0.2-0.1-0.2-0.2-0.2-0.4
		c0-0.1,0.1-0.2,0.1-0.2s1.1,0.3,1.9,0.5c0.7,0.2,2.1,0.4,2.1,0.4s0,0.1,0,0.2c0,0.2-0.2,0.3-0.4,0.3l-0.9,0.1
		c0,1.1,0.4,3.9,0.8,5.9c1.3-1.8,2.8-4.3,3-5l-0.8-0.5c-0.2-0.1-0.2-0.2-0.2-0.4c0-0.1,0.1-0.2,0.1-0.2s1.1,0.4,1.8,0.5
		c0.7,0.2,1.6,0.3,1.6,0.3s0,0.1,0,0.2c0,0.2-0.2,0.3-0.4,0.3L269.3,47.9z"/>
	<path class="st0" d="M282.4,56.2c0.1-0.1,0.3-0.2,0.5-0.2c0.1,0,0.2,0.1,0.2,0.1l-1,2.3c0,0-1.7,0.2-4.3-0.6
		c-1.7-0.5-5.1-2-3.8-6.6c0.6-2.3,3.2-5.6,7.6-4.3c1.6,0.4,3.2,1.3,3.2,1.3l-0.6,2.6c0,0-0.1,0-0.2,0c-0.2,0-0.3-0.1-0.3-0.4
		l-0.1-1.2c-1-0.7-2.2-1.3-3.1-1.5c-0.4-0.1-0.7-0.1-0.9-0.1c-1.3,0.4-2.9,1.8-3.5,4c-0.9,3.1,0.8,5.1,2.3,5.5
		c1.4,0.4,2.7,0.4,3.2,0.2L282.4,56.2z"/>
	<path class="st0" d="M293,56.2l-1.5,4.7l1,0.7c0.2,0.1,0.2,0.2,0.2,0.4c0,0.1-0.1,0.2-0.1,0.2s-1.4-0.6-2.2-0.8
		c-0.7-0.2-2-0.6-2-0.6s0-0.1,0-0.2c0.1-0.2,0.2-0.3,0.4-0.2l1.1,0l1.3-4.1c0.4-1.1,0.1-1.9-0.8-2.2c-0.4-0.1-0.7-0.1-1.1,0
		c-0.3,0.1-1.3,0.6-1.4,0.9l-1.4,4.3l0.9,0.7c0.2,0.1,0.2,0.2,0.2,0.4c0,0.1-0.1,0.2-0.1,0.2s-1.3-0.5-2-0.8
		c-0.7-0.2-2.2-0.6-2.2-0.6s0-0.1,0-0.2c0.1-0.2,0.2-0.3,0.4-0.2l1.3,0l3.2-9.9c0,0-0.7-0.3-1.1-0.5c-0.3-0.2-0.3-0.3-0.3-0.4
		c0-0.1,0.1-0.2,0.1-0.2c0.5,0.2,1.6,0.4,2.5,0.4c0.1,0,0.2,0,0.3,0c0.1,0,0.2,0.2,0.1,0.4l-1.7,5.2c0,0.1,0,0.1,0,0.1
		c0,0,0.1,0,0.1,0c1.3-0.7,2.5-0.9,3.5-0.6C293.2,53.8,293.4,54.9,293,56.2z"/>
	<path class="st0" d="M293.9,60.8c0.4-1,1.1-1.5,2.4-1.7c1.2-0.2,2.8,0.3,2.8,0.3l0.3-1c0.3-0.9,0-1.6-0.9-1.9
		c-0.6-0.2-1.4,0.5-1.5,0.9c-0.1,0-0.3,0-0.4,0c-0.5-0.2-0.7-0.6-0.6-1.1c0.3-0.8,1.7-0.8,2.9-0.4c1.8,0.7,2.5,1.8,2,3.2l-1.2,3.3
		c-0.3,0.8-0.5,1.4-0.1,1.6c0.3,0.1,0.9,0,1,0c0.1,0.1,0.1,0.2,0.1,0.3c-0.1,0.2-0.2,0.3-0.4,0.3c-0.1,0-1.2,0.4-1.8,0.2
		c-0.5-0.2-0.8-0.7-0.6-1.6c0-0.1,0-0.1,0-0.1c0,0-0.1,0-0.1,0c-0.5,0.3-1.6,0.9-2.8,0.5C293.8,62.9,293.6,61.8,293.9,60.8z
		 M296.2,62.4c0.9,0.3,1.8-0.2,1.8-0.2l0.7-2c-0.2-0.1-0.4-0.2-0.6-0.3c-0.2-0.1-0.5-0.2-0.7-0.2c-0.7,0-1.6,0.4-1.9,1.1
		C295.4,61.6,295.6,62.2,296.2,62.4z"/>
	<path class="st0" d="M303.2,63l1.5-3.7c0,0-0.7-0.4-1-0.6c-0.3-0.2-0.3-0.3-0.3-0.4c0-0.1,0.1-0.2,0.1-0.2c0.5,0.2,1.7,0.6,2.7,0.6
		c0.1,0,0.3,0,0.3,0c0.1,0,0.2,0.2,0.1,0.4l-1.7,4.3c-0.5,1.4-0.7,2,0.3,2.4c0.4,0.1,0.7,0.1,1.1,0c0.3-0.1,1.4-0.5,1.5-0.8l1.6-4
		c0,0-0.6-0.4-1-0.6c-0.3-0.2-0.3-0.3-0.3-0.4c0-0.1,0.1-0.2,0.1-0.2c0.5,0.2,1.7,0.5,2.6,0.6c0.1,0,0.3,0,0.3,0
		c0.1,0,0.2,0.2,0.1,0.4l-2,5c-0.3,0.8-0.5,1.4-0.1,1.5c0.2,0.1,0.8,0.1,0.9,0.1c0.1,0.1,0.1,0.2,0,0.3c-0.1,0.2-0.2,0.2-0.4,0.3
		c-0.1,0-1.2,0.3-1.8,0.1c-0.7-0.3-0.8-1.1-0.5-1.9c0-0.1,0-0.1,0-0.1c0,0-0.1,0-0.1,0c-0.5,0.3-2.1,1-3.4,0.5
		C302.3,66,302.5,64.8,303.2,63z"/>
	<path class="st0" d="M316.5,63.9c-0.2-0.1-0.5-0.1-0.8,0c-0.8,0.4-1.5,1-2.1,2.2c-0.6,1.4-0.5,3,0.9,3.6c0.7,0.3,2,0.6,2.4,0.5
		c0.1,0.1,0.1,0.2,0,0.3c-0.1,0.2-0.2,0.2-0.4,0.3c-0.8,0.3-2.2,0.1-3.1-0.3c-1.9-0.8-2.4-3-1.5-4.9c1-2.2,3.7-3.3,5.8-2.4
		c1,0.4,1.8,1.1,1.5,1.8c-0.3,0.6-0.8,0.6-1.3,0.4C317.8,65,317.4,64.3,316.5,63.9z"/>
	<path class="st0" d="M320.6,69.6c-0.8,1.6-0.4,3,0.9,3.6c1.1,0.5,2.2,0.7,2.5,0.6c0,0.1,0.1,0.2,0,0.3c-0.1,0.1-0.2,0.2-0.4,0.3
		c-0.9,0.2-2.1,0.1-3.2-0.4c-1.9-0.9-2.4-3-1.5-5c1-2.2,3.7-3.3,5.7-2.4c1.6,0.8,1.8,2.5,0.6,4.9l-4.6-2.2L320.6,69.6z M324.1,70.1
		c0.2-0.5,0.9-2.3-0.5-2.9c-0.7-0.4-2,0.6-2.4,1.5L324.1,70.1z"/>
	<path class="st0" d="M332.9,70.8c0.8,0.4,1.1,1.1,0.8,1.7c-0.3,0.6-1,0.6-1.4,0.4c0-0.5-0.1-1.2-0.6-1.5c-0.5-0.3-1.8,0.6-2.1,1.1
		l-2,3.8l1.2,1c0.2,0.1,0.2,0.3,0.1,0.5c-0.1,0.1-0.1,0.2-0.1,0.2s-1.4-0.9-2.2-1.2s-2.2-1-2.2-1s0-0.1,0.1-0.2
		c0.1-0.2,0.3-0.2,0.4-0.2l1.3,0.2l2.8-5.4c0,0-0.7-0.4-1-0.7c-0.3-0.3-0.3-0.4-0.2-0.5c0-0.1,0.1-0.1,0.1-0.2
		c0.5,0.3,1.5,0.7,2.5,0.8c0.1,0,0.2,0,0.3,0.1c0.1,0.1,0.1,0.2,0,0.4c0,0-0.5,0.8-0.6,1.1c0,0.1-0.1,0.1,0,0.1c0,0,0.1,0,0.1,0
		C331.3,70.6,332.3,70.5,332.9,70.8z"/>
	<path class="st0" d="M346.8,79.6c-0.1-0.1-0.2-0.3-0.1-0.5c0.1-0.1,0.2-0.2,0.2-0.2s0.9,0.6,1.5,1c0.6,0.4,1.4,0.7,1.4,0.7
		s0,0.1-0.1,0.2c-0.1,0.2-0.2,0.2-0.4,0.2l-0.8-0.1c-1,0.6-3.6,2.9-6.1,4.9c-0.1,0.1-0.4-0.1-0.6-0.2c-0.2-0.1-0.5-0.3-0.5-0.4
		c0.4-2.3,1-4.6,1.3-6.2c-1.2,1-3.1,2.6-4.8,4.1c-0.1,0.1-0.4-0.1-0.6-0.3s-0.5-0.3-0.5-0.4c0.5-3.1,1.4-6.3,1.5-7.6l-0.6-0.7
		c-0.1-0.2-0.2-0.3-0.1-0.5c0.1-0.1,0.1-0.2,0.1-0.2s1,0.7,1.7,1.1c0.7,0.4,1.9,1,1.9,1s0,0.1-0.1,0.2c-0.1,0.2-0.3,0.2-0.4,0.2
		l-0.8-0.2c-0.3,0.9-1.1,3.5-1.5,5.7c1.7-1.4,4.5-3.9,5.1-4.5l0.9,0.5c0.3,0.2,0.3,0.4,0.2,0.8c-0.3,0.9-1.1,3.8-1.5,6
		c1.7-1.4,3.9-3.2,4.4-3.9L346.8,79.6z"/>
	<path class="st0" d="M354.9,84.1c0.7,0.5,1,1.2,0.6,1.8c-0.4,0.6-1,0.5-1.4,0.2c0-0.5,0-1.2-0.5-1.6c-0.5-0.3-1.9,0.4-2.2,0.9
		l-2.3,3.5l1.1,1.1c0.1,0.2,0.2,0.3,0,0.5c-0.1,0.1-0.1,0.2-0.1,0.2s-1.3-1-2-1.5c-0.7-0.5-2.1-1.3-2.1-1.3s0-0.1,0.1-0.2
		c0.1-0.2,0.3-0.2,0.5-0.1l1.2,0.4l3.4-5.1c0,0-0.6-0.5-0.9-0.8c-0.3-0.3-0.2-0.4-0.2-0.5c0-0.1,0.1-0.1,0.2-0.1
		c0.5,0.3,1.5,0.8,2.4,1.1c0.1,0,0.2,0.1,0.3,0.1c0.1,0.1,0.1,0.2,0,0.4c0,0-0.5,0.7-0.7,1c0,0.1-0.1,0.1,0,0.1c0,0,0.1,0,0.1,0
		C353.3,83.7,354.3,83.7,354.9,84.1z"/>
	<path class="st0" d="M360.7,92.9c-1.7,2.3-4.3,2.6-6,1.4c-1.8-1.3-1.7-3.5-0.5-5.2c1.5-2.1,4.1-2.6,6-1.3
		C361.7,88.8,362.2,90.8,360.7,92.9z M359,92.3c1.1-1.6,1.3-3.3,0.1-4.1c-1-0.7-2.6,0.7-3.2,1.5c-1.5,2-1,3.5-0.1,4.2
		C356.7,94.5,358.1,93.6,359,92.3z"/>
	<path class="st0" d="M361.3,95.9l3-3.9l-1.1-0.8l0.5-0.7c0.3,0.2,1.1,0.9,1.1,0.9l1-1.3c0.5,0.3,1.2,0.4,1.4,0.6
		c0.2,0.1,0.1,0.2-0.1,0.4l-1.1,1.4c0.1,0.1,1.5,1,2,1.2c0,0.1,0,0.2-0.1,0.3c-0.3,0.4-0.8,0.4-1.3,0c-0.3-0.2-1.1-0.8-1.1-0.8
		l-2.5,3.2c-1.1,1.4-1.2,1.7-0.7,2.1c0.4,0.3,1.2,0.6,1.5,0.7c0,0.1,0.1,0.2,0,0.3c-0.1,0.2-0.3,0.2-0.5,0.2c-0.7,0-1.9-0.3-2.5-0.7
		C360,98.1,360.2,97.3,361.3,95.9z"/>
	<path class="st0" d="M367.4,98.9c-1.1,1.4-1,2.8,0.1,3.7c0.9,0.7,1.9,1.1,2.3,1.2c0,0.1,0.1,0.2,0,0.3c-0.1,0.1-0.3,0.2-0.5,0.2
		c-1,0-2-0.3-3-1.1c-1.7-1.4-1.6-3.5-0.3-5.2c1.5-1.9,4.4-2.4,6.1-1c1.4,1.1,1.2,2.8-0.5,5l-3.9-3.2L367.4,98.9z M370.6,100.2
		c0.3-0.4,1.4-2,0.2-3c-0.6-0.5-2.1,0.1-2.7,0.9L370.6,100.2z"/>
	<path class="st0" d="M373.5,106.6c0.7-0.8,1.6-1,2.8-0.7c1.2,0.2,2.4,1.3,2.4,1.3l0.7-0.8c0.7-0.7,0.6-1.5-0.1-2.1
		c-0.5-0.4-1.5,0-1.8,0.3c-0.1,0-0.2-0.1-0.3-0.2c-0.4-0.3-0.4-0.9-0.1-1.3c0.6-0.6,1.9-0.1,2.9,0.8c1.5,1.3,1.6,2.6,0.6,3.7
		l-2.3,2.6c-0.5,0.6-1,1.1-0.7,1.4c0.2,0.2,0.8,0.3,0.9,0.3c0,0.1,0,0.2-0.1,0.3c-0.1,0.1-0.3,0.2-0.5,0.1c-0.1,0-1.2-0.1-1.7-0.5
		c-0.4-0.4-0.5-1,0.1-1.7c0-0.1,0.1-0.1,0-0.1c0,0-0.1,0-0.1,0c-0.6,0.1-1.8,0.3-2.8-0.6C372.7,108.5,372.8,107.4,373.5,106.6z
		 M375.1,109c0.7,0.6,1.7,0.5,1.7,0.5l1.4-1.6c-0.1-0.1-0.3-0.3-0.5-0.5c-0.2-0.2-0.4-0.3-0.6-0.4c-0.6-0.3-1.6-0.2-2.1,0.4
		C374.6,107.9,374.6,108.5,375.1,109z"/>
	<path class="st0" d="M385.1,110.2c-0.1,0.1-0.1,0.1,0,0.1c0,0,0.1,0,0.1,0c0.6-0.1,1.6-0.1,2.4,0.7c1.5,1.5,0.8,3.6-0.5,4.9
		c-1.6,1.6-4.5,2-6.3,0.2c-0.6-0.5-1.1-1.5-1.4-2.3l7.6-7.8c0,0-0.5-0.6-0.7-0.9c-0.2-0.3-0.1-0.4-0.1-0.5c0-0.1,0.2-0.1,0.2-0.1
		c0.4,0.4,1.4,1.2,2.2,1.6c0.1,0,0.2,0.1,0.3,0.1c0.1,0.1,0.1,0.2-0.1,0.4L385.1,110.2z M381.1,114.3c0.2,0.6,0.5,1.2,1,1.6
		c0.7,0.7,2.4,0,3.6-1.1c1.1-1.1,1.3-2.5,0.4-3.4c-0.4-0.4-1-0.6-1.4-0.7L381.1,114.3z"/>
	<path class="st0" d="M393.1,122.3c-2.1,2-4.7,1.7-6.2,0.2c-1.5-1.6-1-3.8,0.5-5.2c1.8-1.7,4.6-1.8,6.1-0.1
		C394.8,118.5,395,120.5,393.1,122.3z M391.6,121.3c1.4-1.3,1.9-2.9,0.9-4c-0.9-0.9-2.7,0.2-3.4,0.9c-1.8,1.7-1.7,3.3-0.9,4.1
		C388.9,123.1,390.4,122.4,391.6,121.3z"/>
	<path class="st0" d="M393.7,125.1l3.1-2.6c0,0-0.4-0.6-0.6-1c-0.2-0.4-0.1-0.4,0-0.5c0.1,0,0.2-0.1,0.2-0.1
		c0.4,0.4,1.3,1.3,2.1,1.8c0.1,0.1,0.2,0.1,0.3,0.2c0.1,0.1,0.1,0.2-0.1,0.4l-3.5,3c-1.1,1-1.5,1.5-0.8,2.3c0.2,0.3,0.6,0.4,1,0.5
		c0.3,0.1,1.4,0.2,1.7-0.1l3.2-2.8c0,0-0.4-0.6-0.6-1c-0.2-0.4-0.1-0.4,0-0.5c0.1,0,0.2-0.1,0.2-0.1c0.4,0.4,1.2,1.2,2,1.7
		c0.1,0.1,0.2,0.1,0.3,0.2c0.1,0.1,0.1,0.2-0.1,0.4l-4.1,3.5c-0.6,0.5-1.1,1-0.8,1.3c0.2,0.2,0.7,0.4,0.8,0.5c0,0.1,0,0.2-0.1,0.3
		c-0.1,0.1-0.3,0.1-0.5,0.1c-0.1,0-1.2-0.3-1.6-0.8c-0.5-0.6-0.2-1.4,0.5-1.9c0.1,0,0.1-0.1,0.1-0.1c0,0-0.1,0-0.1,0
		c-0.6,0-2.3-0.1-3.2-1.1C391.5,127.3,392.2,126.4,393.7,125.1z"/>
	<path class="st0" d="M399.7,133l3.8-3l-0.9-1.1l0.7-0.6c0.2,0.3,0.9,1.1,0.9,1.1l1.3-1.1c0.5,0.4,1.1,0.7,1.2,0.9
		c0.1,0.2,0.1,0.2-0.2,0.4l-1.3,1.1c0.1,0.1,1.2,1.4,1.6,1.6c0,0.1-0.1,0.2-0.2,0.3c-0.4,0.3-0.8,0.2-1.3-0.3
		c-0.2-0.3-0.8-1.1-0.8-1.1l-3.2,2.6c-1.4,1.1-1.6,1.3-1.1,1.9c0.3,0.4,1,0.9,1.3,1.1c0,0.1,0,0.2-0.1,0.3c-0.2,0.1-0.3,0.1-0.5,0.1
		c-0.7-0.1-1.8-0.8-2.3-1.3C398,134.9,398.3,134.2,399.7,133z"/>
	<path class="st0" d="M405.5,140.4l3.9-2.9l-0.8-1.1l0.7-0.5c0.2,0.3,0.8,1.2,0.8,1.2l1.4-1c0.4,0.4,1.1,0.7,1.2,0.9
		c0.1,0.2,0.1,0.2-0.2,0.4l-1.4,1c0.1,0.1,1.2,1.4,1.5,1.7c0,0.1-0.1,0.2-0.2,0.2c-0.4,0.3-0.9,0.2-1.2-0.3
		c-0.2-0.3-0.8-1.1-0.8-1.1l-3.3,2.4c-1.4,1-1.7,1.3-1.2,1.9c0.3,0.4,1,0.9,1.3,1.1c0,0.1,0,0.2-0.1,0.3c-0.2,0.1-0.3,0.1-0.5,0.1
		c-0.6-0.1-1.8-0.8-2.2-1.4C403.6,142.2,404,141.5,405.5,140.4z"/>
	<path class="st0" d="M415.9,149.1l-4.1,2.8l0.4,1.2c0.1,0.2,0,0.3-0.1,0.4c-0.1,0.1-0.2,0.1-0.2,0.1s-0.8-1.3-1.2-2
		c-0.4-0.6-1.3-1.7-1.3-1.7s0-0.1,0.1-0.2c0.2-0.1,0.3-0.1,0.5,0l0.9,0.7l3.6-2.4c1-0.7,1.2-1.4,0.7-2.2c-0.2-0.3-0.5-0.5-0.9-0.6
		c-0.4-0.1-1.4-0.3-1.6-0.1l-3.7,2.6l0.3,1.1c0.1,0.2,0,0.3-0.1,0.4c-0.1,0.1-0.2,0.1-0.2,0.1s-0.7-1.2-1.1-1.8s-1.4-1.8-1.4-1.8
		s0-0.1,0.1-0.2c0.2-0.1,0.3-0.1,0.5,0l1,0.8l8.6-5.9c0,0-0.3-0.7-0.5-1.1c-0.1-0.4,0-0.4,0-0.5c0.1,0,0.2-0.1,0.2-0.1
		c0.3,0.5,1,1.3,1.8,1.9c0.1,0.1,0.2,0.1,0.2,0.2c0.1,0.1,0,0.2-0.2,0.4l-4.5,3.1c-0.1,0-0.1,0.1-0.1,0.1c0,0,0.1,0,0.1,0
		c1.5,0.2,2.5,0.8,3.1,1.7C417.5,147.3,417,148.3,415.9,149.1z"/>
	<path class="st0" d="M418.9,151.7c0,0-0.3-0.7-0.5-1.1c-0.1-0.4,0-0.5,0-0.5c0.1,0,0.2-0.1,0.2-0.1c0.3,0.5,1.1,1.4,1.8,2
		c0.1,0.1,0.2,0.1,0.2,0.2c0.1,0.1,0,0.2-0.2,0.4l-5.8,3.7l0.3,1.2c0,0.2,0,0.3-0.1,0.4c-0.1,0.1-0.2,0.1-0.2,0.1s-0.8-1.4-1.2-2
		c-0.4-0.6-1.3-1.9-1.3-1.9s0-0.1,0.2-0.2c0.2-0.1,0.3-0.1,0.5,0.1l1,0.8L418.9,151.7z M421.7,150.6c0.3,0.5,1,0.7,1.5,0.4
		c0.5-0.3,0.6-1,0.3-1.5c-0.3-0.4-0.9-0.6-1.4-0.3C421.6,149.5,421.4,150.2,421.7,150.6z"/>
	<path class="st0" d="M423,157.5c-0.3-0.5-0.8-0.5-1.1-0.4c-1.4,0.8-0.4,4.5-2.1,5.6c-1.3,0.8-2.7-0.1-3.5-1.4
		c-0.8-1.4-0.8-2.7-0.1-3.2c0.4-0.2,1-0.2,1.3,0.3c0.1,0.1,0.1,0.2,0.1,0.2c-0.4,0.4-0.9,1.5-0.3,2.5c0.3,0.5,0.8,0.7,1.2,0.4
		c1.7-1,0.5-4.5,2.2-5.6c1.1-0.6,2.4,0,3.2,1.4c0.6,1,0.8,2,0.1,2.5c-0.4,0.2-0.8,0.1-1-0.3c-0.1-0.1-0.1-0.2-0.1-0.2
		C423,159.2,423.5,158.2,423,157.5z"/>
	<path class="st0" d="M429.8,171.8C429.8,171.8,429.9,171.8,429.8,171.8c1.5,0.3,2.6,1.3,3,2.1c0.7,1.3,0.1,2.4-1.1,3l-4.4,2.3
		l0.2,1.2c0,0.2,0,0.3-0.2,0.4c-0.1,0.1-0.2,0.1-0.2,0.1s-0.6-1.4-1-2.1s-1.1-1.9-1.1-1.9s0.1-0.1,0.2-0.1c0.2-0.1,0.3,0,0.5,0.1
		l0.8,0.8l3.8-2c1.1-0.6,1.4-1.2,0.9-2.2c-0.2-0.4-0.5-0.6-0.8-0.8c-0.3-0.1-1.4-0.4-1.6-0.3l-4,2.1l0.2,1.1c0,0.2,0,0.3-0.2,0.4
		c-0.1,0.1-0.2,0.1-0.2,0.1s-0.6-1.3-0.9-2s-1.1-1.9-1.1-1.9s0.1-0.1,0.2-0.1c0.2-0.1,0.3,0,0.5,0.1l0.8,0.8l3.8-2
		c1.1-0.6,1.4-1.2,0.9-2.2c-0.2-0.4-0.5-0.6-0.8-0.8c-0.3-0.1-1.4-0.4-1.6-0.3l-4,2.1l0.2,1.1c0,0.2,0,0.3-0.2,0.4
		c-0.1,0.1-0.2,0.1-0.2,0.1s-0.6-1.3-0.9-2s-1.1-2-1.1-2s0.1-0.1,0.2-0.1c0.2-0.1,0.3,0,0.5,0.1l0.9,0.9l5.4-2.8
		c0,0-0.3-0.7-0.4-1.1c-0.1-0.4,0-0.5,0.1-0.5c0.1,0,0.2-0.1,0.2-0.1c0.3,0.5,0.9,1.4,1.5,2.1c0.1,0.1,0.2,0.2,0.2,0.2
		c0.1,0.1,0,0.2-0.2,0.4c0,0-0.8,0.4-1.1,0.5c-0.1,0-0.1,0.1-0.1,0.1c0,0,0.1,0,0.1,0c1.4,0.3,2.6,1.3,3,2.1c0.5,1,0.3,1.8-0.5,2.5
		C429.9,171.8,429.8,171.8,429.8,171.8z"/>
	<path class="st0" d="M437.1,185.1c-0.5-0.1-7.5,0.4-8.2,0.4c-2.2,0-4.2,0-4.9-1.7c-0.4-0.8-0.1-1.6,0.4-1.9s1,0,1.2,0.5
		c-0.2,0.3-0.6,1.2-0.4,1.5c0.3,0.6,2.3,0.6,3.6,0.4c1.8-1.9,4.4-4.9,5.2-5.9l-0.1-0.9c0-0.2,0-0.3,0.2-0.4c0.1-0.1,0.2,0,0.2,0
		s0.4,1.1,0.7,1.8c0.3,0.7,1,1.9,1,1.9s-0.1,0.1-0.2,0.1c-0.2,0.1-0.3,0-0.4-0.1l-0.6-0.6c-0.9,0.7-2.8,2.7-4.2,4.2
		c2.2-0.1,5.1-0.4,5.8-0.7l-0.1-0.9c0-0.2,0-0.3,0.2-0.4c0.1-0.1,0.2,0,0.2,0s0.4,1.1,0.7,1.8c0.3,0.6,0.7,1.4,0.7,1.4
		s0,0.1-0.2,0.1c-0.2,0.1-0.3,0-0.5-0.1L437.1,185.1z"/>
	<path class="st0" d="M433.8,189.6l4.5-1.9l-0.5-1.3l0.8-0.3c0.1,0.3,0.5,1.3,0.5,1.3l1.6-0.7c0.3,0.5,0.9,1,0.9,1.2
		c0.1,0.2,0,0.2-0.3,0.3l-1.6,0.7c0.1,0.1,0.8,1.7,1.1,2c0,0.1-0.1,0.2-0.2,0.2c-0.5,0.2-0.9,0-1.1-0.6c-0.1-0.3-0.5-1.3-0.5-1.3
		l-3.8,1.6c-1.6,0.7-1.9,0.8-1.6,1.5c0.2,0.5,0.7,1.1,1,1.4c0,0.1,0,0.2-0.2,0.3c-0.2,0.1-0.3,0-0.5-0.1c-0.6-0.3-1.5-1.2-1.8-1.9
		C431.5,190.9,432.1,190.3,433.8,189.6z"/>
	<path class="st0" d="M441.9,200.4l-4.6,1.8l0.1,1.3c0,0.2,0,0.3-0.2,0.4c-0.1,0-0.2,0-0.2,0s-0.5-1.5-0.7-2.2
		c-0.3-0.7-0.9-1.9-0.9-1.9s0.1-0.1,0.2-0.1c0.2-0.1,0.3,0,0.4,0.2l0.7,0.8l4-1.6c1.1-0.4,1.5-1.1,1.2-2c-0.1-0.4-0.4-0.6-0.7-0.8
		s-1.3-0.6-1.5-0.5l-4.2,1.6l0,1.1c0,0.2,0,0.3-0.2,0.4c-0.1,0-0.2,0-0.2,0s-0.4-1.3-0.7-2c-0.3-0.7-0.9-2.1-0.9-2.1
		s0.1-0.1,0.2-0.1c0.2-0.1,0.3,0,0.4,0.2l0.8,1l9.7-3.8c0,0-0.2-0.7-0.3-1.2c-0.1-0.4,0.1-0.4,0.1-0.5c0.1,0,0.2,0,0.2,0
		c0.2,0.5,0.7,1.5,1.3,2.2c0.1,0.1,0.2,0.2,0.2,0.2c0,0.1,0,0.2-0.3,0.3l-5.1,2c-0.1,0-0.1,0-0.1,0.1c0,0,0.1,0,0.1,0
		c1.4,0.5,2.3,1.4,2.6,2.4C443.8,199.1,443.1,199.9,441.9,200.4z"/>
	<path class="st0" d="M445.4,206.9c0,0-0.2-0.7-0.2-1.2c0-0.4,0.1-0.4,0.2-0.5c0.1,0,0.2,0,0.2,0c0.2,0.5,0.7,1.6,1.2,2.4
		c0.1,0.1,0.2,0.2,0.2,0.2c0,0.1,0,0.2-0.3,0.3l-6.5,2.2l0,1.3c0,0.2-0.1,0.3-0.2,0.4c-0.1,0-0.2,0-0.2,0s-0.4-1.5-0.7-2.2
		c-0.2-0.7-0.8-2.2-0.8-2.2s0.1-0.1,0.2-0.1c0.2-0.1,0.3,0,0.4,0.2l0.7,1L445.4,206.9z M448.3,206.5c0.2,0.6,0.8,0.9,1.3,0.7
		c0.5-0.2,0.8-0.8,0.6-1.3c-0.2-0.5-0.8-0.8-1.3-0.6C448.5,205.4,448.2,206,448.3,206.5z"/>
	<path class="st0" d="M448,219.1l-4.7,1.5l0,1.3c0,0.2-0.1,0.3-0.3,0.4c-0.1,0-0.2,0-0.2,0s-0.4-1.5-0.6-2.2c-0.2-0.7-0.7-2-0.7-2
		s0.1-0.1,0.2-0.1c0.2-0.1,0.3,0,0.4,0.2l0.7,0.9l4.1-1.3c1.2-0.4,1.6-1,1.3-2c-0.1-0.4-0.4-0.7-0.7-0.9s-1.3-0.7-1.5-0.6l-4.3,1.3
		l0,1.1c0,0.2-0.1,0.3-0.3,0.4c-0.1,0-0.2,0-0.2,0s-0.3-1.4-0.5-2.1c-0.2-0.7-0.8-2.2-0.8-2.2s0.1-0.1,0.2-0.1
		c0.2-0.1,0.3,0,0.4,0.2l0.7,1.1l5.8-1.8c0,0-0.1-0.7-0.2-1.2c0-0.4,0.1-0.4,0.2-0.5c0.1,0,0.2,0,0.2,0c0.2,0.5,0.6,1.5,1.1,2.3
		c0.1,0.1,0.2,0.2,0.2,0.2c0,0.1,0,0.2-0.3,0.3c0,0-0.9,0.3-1.2,0.3c-0.1,0-0.1,0-0.1,0.1c0,0,0.1,0,0.1,0c1.4,0.5,2.3,1.7,2.6,2.6
		C450.1,217.8,449.4,218.7,448,219.1z"/>
	<path class="st0" d="M457.1,233.5c-0.7-2.8-1-3.2-1-3.2l-9.8,1.1l0,1.5c0,0.2-0.1,0.3-0.3,0.4c-0.1,0-0.2,0-0.2,0s-0.3-1.6-0.5-2.5
		c-0.2-0.9-0.7-2.4-0.7-2.4s0.1-0.1,0.2-0.1c0.2-0.1,0.4,0,0.5,0.2l0.7,1.3l9.8-1.1c0,0,0.1-0.4-0.7-3.3l-1.4-0.4
		c-0.3-0.1-0.4-0.2-0.4-0.4c0-0.1,0-0.2,0-0.2l2.6,0l2.5,9.8l-2.4,0.7c0,0-0.1-0.1-0.1-0.2c-0.1-0.2,0-0.4,0.2-0.5L457.1,233.5z"/>
	<path class="st0" d="M451.1,238.2l0,0.1c2.2,0.5,4.7,1.5,4.9,2.7c0.2,0.8-0.6,1.4-1.4,1.6c-2,0.4-4.8,0.3-5.4,0.4
		c-0.2,0-0.2,0.1-0.2,0.2c0.1,0.3,0.6,1,0.7,1.1c0,0.1-0.1,0.1-0.2,0.2c-0.1,0-0.3,0-0.4-0.2c-0.1-0.1-1.2-1.1-1.4-1.8
		c-0.1-0.3,0-0.8,0.5-0.9c0.8-0.2,4.1-0.1,5.6-0.4c0.5-0.1,0.9-0.3,0.8-0.5c-0.1-0.7-5.2-2.5-7.6-2c-0.1-0.6-0.3-1-0.3-1.1
		c0-0.2,0-0.2,0.1-0.2c1.1-0.2,9.6-0.7,11.9-0.7l-0.2-1.1c-0.1-0.4,0.1-0.5,0.3-0.5c0.1,0,0.2,0,0.2,0c0.1,0.5,0.6,1.5,1.1,2.3
		c0.1,0.1,0.2,0.3,0.2,0.4c0,0.1,0,0.2-0.2,0.3c0,0-0.2,0-0.2,0C459.4,238,452,238.2,451.1,238.2z"/>
	<path class="st0" d="M451.4,245.2c2.8-0.5,5.8,1.3,6.2,3.6c0.2,1-0.3,1.8-1.2,2c-2,0.4-3.4-1.5-4.7-4c-0.8,0.2-1.6,0.9-1.4,1.9
		c0.2,1,1.4,2.3,1.7,2.5c-0.1,0.2-0.2,0.3-0.3,0.3s-0.3,0-0.4-0.1c-1-0.6-2.2-1.8-2.4-3C448.6,246.9,449.6,245.5,451.4,245.2z
		 M456.4,248.1c-0.2-1-2.3-1.8-3.9-1.5c0.1,0.1,1.4,3,3.3,2.6C456.2,249.1,456.5,248.7,456.4,248.1z"/>
	<path class="st0" d="M453.9,263.9c0.2,0.1,0.3,0.2,0.4,0.4c0,0.1,0,0.2,0,0.2l-2.6-0.2l-1.2-8.3c0,0,0.1-0.1,0.2-0.1
		c0.2,0,0.4,0.1,0.4,0.3l0.6,1.2l10-0.2l0.2-1.2c0-0.2,0.1-0.3,0.4-0.4c0.1,0,0.2,0,0.2,0s0.1,1.5,0.2,2.3c0.1,0.8,0.4,2.2,0.4,2.2
		s-0.1,0.1-0.2,0.1c-0.2,0-0.4-0.1-0.5-0.2l-0.5-1.1l-9.9,0.2c0,0,0.1,1.7,0.5,4.2L453.9,263.9z"/>
	<path class="st0" d="M454.7,265.6c2.8-0.3,5.7,1.6,5.9,4c0.1,1.1-0.4,1.8-1.3,1.9c-2,0.2-3.3-1.8-4.4-4.3c-0.8,0.1-1.6,0.8-1.5,1.9
		c0.1,1,1.3,2.4,1.5,2.6c-0.1,0.2-0.2,0.2-0.3,0.3c-0.1,0-0.3,0-0.4-0.1c-1-0.7-2.1-1.9-2.2-3.2C451.8,267.1,453,265.8,454.7,265.6z
		 M459.6,268.8c-0.1-1-2.2-2-3.8-1.8c0.1,0.1,1.2,3,3.1,2.8C459.3,269.8,459.6,269.4,459.6,268.8z"/>
	<path class="st0" d="M457.3,278.4l0-0.1c-2.3-0.8-4.4-2-4.5-2.9c-0.1-1.1,1.3-2,2.8-2.2c2.7-0.3,5.7,1.9,6,4.4
		c0.1,0.8-0.3,1.3-0.2,1.6c0,0.2,0.2,0.4,0.2,0.5c0,0.1,0,0.1-0.1,0.1c-0.1,0-7.9-0.6-7.9-0.6c-3.1-0.3-4.9-2-5.1-4.2
		c-0.1-0.8,0.2-1.8,1-1.9c0.5-0.1,0.9,0.3,1,0.9c-0.5,0.4-1,1.4-0.9,1.9C449.5,278.2,455.3,278,457.3,278.4z M460.7,277.3
		c-0.1-1.1-2.8-2.6-4.9-2.4c-1,0.1-1.6,0.5-1.6,0.8c0,0.2,0.1,0.4,1.1,0.9c1.3,0.7,4.1,1.7,5.1,1.6
		C460.4,278.3,460.7,277.7,460.7,277.3z"/>
	<path class="st0" d="M456.4,281.3c2.8-0.2,5.6,1.9,5.7,4.2c0.1,1.1-0.5,1.8-1.4,1.8c-2,0.1-3.2-1.9-4.2-4.5
		c-0.8,0.1-1.7,0.7-1.6,1.8c0.1,1,1.2,2.4,1.4,2.6c-0.1,0.2-0.2,0.2-0.3,0.2c-0.1,0-0.3-0.1-0.4-0.1c-0.9-0.7-2-2-2.1-3.3
		C453.4,282.7,454.6,281.5,456.4,281.3z M461.1,284.8c-0.1-1-2.1-2.1-3.7-2c0,0.1,1.1,3.1,3,3C460.7,285.8,461.1,285.4,461.1,284.8z
		"/>
	<path class="st0" d="M458.3,291l0,0.1c2.1,0.9,4.3,2.2,4.4,3.4c0,0.9-0.8,1.3-1.7,1.3c-2,0.1-4.8-0.5-5.4-0.5
		c-0.2,0-0.2,0.1-0.2,0.2c0,0.3,0.4,1,0.5,1.2c0,0.1-0.1,0.1-0.2,0.1c-0.2,0-0.3-0.1-0.4-0.2c-0.1-0.1-1-1.3-1-1.9
		c0-0.3,0.1-0.8,0.7-0.8c0.8,0,4,0.6,5.6,0.5c0.6,0,0.9-0.2,0.9-0.4c0-0.7-4.7-3.3-7.2-3.2c0-0.6-0.1-1.1-0.1-1.2
		c0-0.2,0.1-0.2,0.2-0.2c0.6,0,4.8,0.5,7,0.8l-0.1-1.2c0-0.4,0.2-0.4,0.3-0.4c0.1,0,0.2,0,0.2,0c0,0.5,0.3,1.6,0.6,2.5
		c0.1,0.2,0.1,0.3,0.1,0.4c0,0.1,0,0.2-0.2,0.2C462,291.7,459.6,291.2,458.3,291z"/>
	<path class="st0" d="M466.5,304.1l0-1.2c0-0.4,0.2-0.4,0.3-0.4c0.1,0,0.2,0,0.2,0c0,0.4,0.2,1.2,0.4,2s0.3,0.9,0.3,0.9
		c0,0.1,0,0.2-0.2,0.2c0,0-0.2,0-0.2,0c-2.2-0.4-10.6-1.5-11.6-1.5c-0.2,0-0.2,0.1-0.2,0.2c0,0.3,0.3,1,0.4,1.1
		c0,0.1-0.1,0.1-0.3,0.2c-0.1,0-0.2-0.1-0.4-0.2c-0.1-0.1-1-1.3-1-1.9c0-0.3,0.1-0.7,0.7-0.8c0.6,0,2.5,0.3,3.5,0.5l0-0.1
		c-2.2-0.9-4.3-2.3-4.3-3.2c0-1.1,1.4-2,2.9-2c2.7-0.1,5.6,2.2,5.6,4.9c0,0.3-0.1,0.6-0.1,0.8C464.3,303.7,465.8,303.9,466.5,304.1z
		 M462.1,302.2c0-1.1-2.4-2.8-4.7-2.8c-0.4,0-1.7,0.1-1.7,0.7c0,0.5,4.5,3,6.1,3C461.8,303.2,462.1,302.6,462.1,302.2z"/>
	<path class="st0" d="M459.4,317.1c-2.5,0-5-1.9-4.9-4.2c0-1.9,1.3-2.9,3.5-2.8c2.5,0,5,1.9,5,4.2
		C462.9,316.1,461.6,317.1,459.4,317.1z M455.3,313.3c0,1,2,2.1,4,2.1c1.4,0,2.7-0.5,2.7-1.6c0-1-2-2.1-4-2.1
		C456.7,311.7,455.4,312.2,455.3,313.3z"/>
	<path class="st0" d="M451.2,314.5c0.5,0,0.8,0.4,0.8,1c-0.5,0.3-1.1,1.1-1.1,1.7c0,1.2,2.5,1.8,3.4,1.9c2.7,0.5,4.4,0.6,7.6,1.1
		c0-0.5,0-1.7,0-1.7l0.9,0.2c0,0.2-0.1,1.1-0.1,1.7l0.5,0.1c1,0.2,2.2,0.6,3,1.4c1,0.8,1.3,1.8,1.3,2.7c0,0.9-0.5,1.7-1.1,1.7
		c-0.5,0-0.9-0.5-0.8-1.1c0.5-0.2,1-0.9,1-1.4c0-1.2-2.7-1.7-3.3-1.8l-0.6-0.1c0,1.1,0,1.9,0.2,2.4c0,0-0.1,0.2-0.3,0.2
		c-0.7,0-0.7-0.5-0.7-1.2c0-0.2,0.1-1.4,0.1-1.4c-2.8-0.4-5-0.6-7.5-1.1c-2.6-0.5-4.4-2-4.3-4.3C450,315.4,450.4,314.4,451.2,314.5z
		"/>
	<path class="st0" d="M454.2,338.8c-0.1,0.2-0.2,0.3-0.4,0.3c-0.1,0-0.2-0.1-0.2-0.1s0.2-1.6,0.2-2.3c0-0.8,0-2.2,0-2.2s0.1,0,0.2,0
		c0.2,0,0.3,0.1,0.4,0.3l0.3,1c0.6,0,1.8-0.1,3.5-0.2l0.2-3.6c-1.7-1-2.9-1.6-3.4-1.8l-0.4,1.2c-0.1,0.2-0.2,0.3-0.4,0.3
		c-0.1,0-0.2-0.1-0.2-0.1s0.2-1.5,0.2-2.3c0-0.7,0-2.2,0-2.2s0.1,0,0.2,0c0.2,0,0.4,0.1,0.4,0.3l0.3,1.2c1.4,1.1,7.1,4.2,10.5,6.3
		l0,0.7c0,0.4-0.2,0.5-0.6,0.6c-1.8,0.4-8.2,0.9-10.5,1.4L454.2,338.8z M459.2,335.4l5.1-0.5l-4.9-2.6L459.2,335.4z"/>
	<path class="st0" d="M457.3,342.5c1.8,1,4,2.2,3.9,4c-0.1,0.8-0.6,1.2-1.2,1.2c-0.6-0.1-0.9-0.7-0.9-1.2c0.3-0.1,1-0.5,1-0.8
		c0.1-0.6-3.8-3.3-6.9-3.7c0-0.6,0-1,0-1.2c0-0.2,0.1-0.2,0.2-0.2c0.8,0.1,4.6,0.9,6.9,1.5l0.1-1.2c0-0.4,0.2-0.4,0.4-0.4
		c0.1,0,0.2,0,0.2,0.1c0,0.5,0.1,1.6,0.3,2.5c0,0.2,0.1,0.3,0.1,0.4c0,0.1-0.1,0.2-0.3,0.2c-0.2,0-1.7-0.7-3.9-1.3L457.3,342.5z"/>
	<path class="st0" d="M460.3,351.3c-1.2-0.4-5.8-1.7-6.5-1.8c-0.2,0-0.2,0-0.3,0.2c0,0.3,0.2,1.1,0.3,1.2c0,0.1-0.1,0.1-0.3,0.1
		c-0.1,0-0.3-0.1-0.4-0.3c-0.1-0.1-0.8-1.4-0.7-2.1c0-0.3,0.2-0.7,0.8-0.7c0.6,0.1,4.4,1.2,6.4,1.7l0.1-1.1c0-0.4,0.2-0.4,0.4-0.4
		c0.1,0,0.2,0,0.2,0.1c-0.1,0.5,0.1,1.6,0.3,2.5c0,0.2,0.1,0.3,0.1,0.4c0,0.1-0.1,0.2-0.3,0.2C460.4,351.4,460.3,351.3,460.3,351.3z
		 M462.6,350.9c-0.1,0.5,0.4,1.1,1,1.1c0.5,0,0.8-0.2,0.9-0.7c0.1-0.5-0.4-1-1-1.1C463,350.2,462.6,350.5,462.6,350.9z"/>
	<path class="st0" d="M459.1,360.1c-0.8-0.2-5.2-1.7-6.3-1.8c-0.2,0-0.2,0-0.2,0.2c0,0.3,0.2,1,0.3,1.2c0,0-0.1,0.1-0.2,0.1
		c-0.2,0-0.3-0.1-0.4-0.3c-0.1-0.2-0.8-1.4-0.7-2c0-0.3,0.2-0.7,0.8-0.7c0.6,0.1,2.6,0.8,3.4,1.1l0.1-0.1c-2.1-1.1-4-2.5-3.8-3.8
		c0.1-1.2,1.7-1.7,3.2-1.5c2.7,0.3,5.2,3,4.9,5.6c-0.1,0.8-0.6,1.3-0.6,1.4c0,0.2,0.4,0.2,0.3,0.6c0,0.1-0.1,0.2-0.2,0.2
		L459.1,360.1z M459.3,357.5c0.1-1.1-2.2-3.1-4.3-3.4c-1-0.1-1.7,0.1-1.7,0.5c0,0.2,0.1,0.4,0.9,1.1c1.2,1,3.6,2.5,4.7,2.7
		C458.7,358.4,459.2,358,459.3,357.5z"/>
	<path class="st0" d="M462.2,368.6l0.2-1.2c0.1-0.4,0.3-0.4,0.4-0.4c0.1,0,0.2,0,0.2,0.1c-0.1,0.4,0,1.2,0.1,2
		c0.1,0.8,0.1,0.9,0.1,0.9c0,0.1-0.1,0.2-0.2,0.2c0,0-0.2,0-0.2,0c-2.1-0.7-10.2-3.2-11.2-3.4c-0.2,0-0.2,0-0.2,0.2
		c0,0.3,0.2,1,0.2,1.2c0,0.1-0.1,0.1-0.3,0.1c-0.1,0-0.2-0.1-0.3-0.3c-0.1-0.1-0.8-1.4-0.7-2.1c0-0.3,0.2-0.7,0.8-0.6
		c0.6,0.1,2.4,0.7,3.4,1.1l0.1-0.1c-2-1.3-3.8-3-3.7-3.9c0.2-1.1,1.7-1.7,3.2-1.5c2.7,0.4,5.1,3.1,4.8,5.7c0,0.3-0.2,0.6-0.3,0.8
		C460,367.9,461.4,368.4,462.2,368.6z M458.1,366.1c0.2-1.1-2-3.2-4.1-3.5c-0.4-0.1-1.7-0.2-1.8,0.4c-0.1,0.5,3.9,3.7,5.5,4
		C457.7,367,458.1,366.5,458.1,366.1z"/>
	<path class="st0" d="M453.7,372l-0.1,0.1c1.9,1.3,3.8,3.1,3.6,4.3c-0.1,0.9-1.1,1.1-1.9,0.9c-2-0.3-4.6-1.5-5.1-1.6
		c-0.2,0-0.2,0-0.2,0.1c-0.1,0.3,0.2,1.1,0.2,1.3c0,0-0.1,0.1-0.3,0.1c-0.2,0-0.3-0.1-0.4-0.3c-0.1-0.1-0.7-1.5-0.6-2.1
		c0.1-0.3,0.3-0.7,0.8-0.6c0.8,0.1,3.8,1.4,5.4,1.7c0.6,0.1,0.9,0,0.9-0.2c0.1-0.7-3.9-4.2-6.4-4.6c0.1-0.6,0.1-1.1,0.1-1.2
		c0-0.2,0.1-0.2,0.2-0.2c0.6,0.1,4.6,1.5,6.7,2.2l0.2-1.2c0.1-0.4,0.3-0.4,0.4-0.4c0.1,0,0.2,0.1,0.2,0.1c-0.1,0.5,0,1.7,0.1,2.6
		c0,0.2,0.1,0.3,0,0.4c0,0.1-0.1,0.2-0.3,0.2C457.3,373.5,455,372.4,453.7,372z"/>
	<path class="st0" d="M451.4,378.5c2.8,0.5,4.9,3.3,4.5,5.6c-0.2,1-1,1.6-1.9,1.4c-2-0.4-2.7-2.7-2.9-5.4c-0.8-0.1-1.8,0.3-2,1.3
		c-0.2,1,0.5,2.6,0.7,2.9c-0.1,0.1-0.3,0.2-0.4,0.1c-0.1,0-0.3-0.1-0.3-0.2c-0.7-1-1.4-2.5-1.2-3.7
		C448.2,379.2,449.7,378.2,451.4,378.5z M455.1,383.1c0.2-1-1.5-2.5-3.1-2.8c0,0.1,0.3,3.3,2.1,3.6
		C454.5,383.9,455,383.7,455.1,383.1z"/>
	<path class="st0" d="M444.5,385.4c0.2,0,0.8,0.2,0.9,0.4c0,0,0.4,1.1,1.3,1.3c0.9,0.2,1.6-0.8,1.6-0.8s0.8,0.4,0.6,1.2
		c-0.2,0.8-0.9,1.2-1.6,1.1c-1.8-0.4-3-3.1-3-3.1C444.3,385.4,444.3,385.4,444.5,385.4z"/>
	<path class="st0" d="M446.1,395.2l6.2,1.4c0,0,0.2-1.1,0.3-1.4l0.9,0.2c-0.1,0.3-0.3,1.4-0.3,1.4l1,0.2c2.2,0.5,3.1,2.2,2.7,3.7
		c-0.2,1.1-0.9,2-1.6,1.8c-0.5-0.1-0.6-0.7-0.5-1.1c0.4-0.2,1.2-0.7,1.3-1.5c0.1-0.5-0.6-0.9-1.6-1.1l-1.6-0.4c0,0-0.3,1.8-0.3,2.3
		c-0.1,0.1-0.2,0.1-0.3,0c-0.5-0.1-0.7-0.5-0.6-1.2c0.1-0.4,0.3-1.4,0.3-1.4l-6.2-1.4l-0.7,1.5c-0.1,0.2-0.2,0.2-0.4,0.2
		c-0.1,0-0.2-0.1-0.2-0.1s0.5-1.8,0.7-2.6s0.4-2.3,0.4-2.3s0.1,0,0.2,0c0.2,0,0.3,0.2,0.3,0.4L446.1,395.2z"/>
	<path class="st0" d="M450.9,406.9c-0.2,0.8-0.8,1.4-1.5,1.2c-0.7-0.2-0.8-0.8-0.7-1.3c0.5-0.1,1.1-0.4,1.3-1c0.1-0.5-1-1.6-1.6-1.7
		l-4.1-1l-0.7,1.4c-0.1,0.2-0.2,0.2-0.5,0.2c-0.1,0-0.2-0.1-0.2-0.1s0.5-1.6,0.7-2.4s0.5-2.4,0.5-2.4s0.1,0,0.2,0
		c0.2,0,0.3,0.2,0.3,0.4l0.1,1.3l5.9,1.4c0,0,0.3-0.7,0.5-1.1c0.2-0.4,0.3-0.3,0.4-0.3c0.1,0,0.2,0.1,0.2,0.1
		c-0.1,0.5-0.3,1.7-0.2,2.6c0,0.1,0,0.2,0,0.3c0,0.1-0.1,0.2-0.4,0.1c0,0-0.9-0.2-1.2-0.3c-0.1,0-0.1,0-0.1,0c0,0,0,0.1,0,0.1
		C450.7,405.3,451.1,406.2,450.9,406.9z"/>
	<path class="st0" d="M444.8,415.5c-2.8-0.7-4-3.1-3.5-5.1c0.6-2.2,2.7-2.9,4.7-2.4c2.5,0.6,4,2.9,3.4,5.1
		C448.9,414.9,447.3,416.1,444.8,415.5z M444.8,413.6c1.9,0.5,3.5,0.1,3.9-1.4c0.3-1.2-1.6-2.2-2.6-2.4c-2.4-0.6-3.7,0.3-4,1.5
		C441.8,412.3,443.2,413.2,444.8,413.6z"/>
	<path class="st0" d="M444.3,425.1C444.3,425.1,444.3,425.1,444.3,425.1c0.9,1.2,1,2.7,0.8,3.6c-0.4,1.4-1.5,1.8-2.8,1.4l-4.8-1.4
		l-0.7,1.1c-0.1,0.2-0.2,0.2-0.4,0.2c-0.1,0-0.2-0.1-0.2-0.1s0.5-1.5,0.7-2.2c0.2-0.7,0.5-2.1,0.5-2.1s0.1,0,0.2,0
		c0.2,0.1,0.3,0.2,0.3,0.4l0.1,1.1l4.2,1.2c1.2,0.3,1.9,0.1,2.2-0.9c0.1-0.4,0.1-0.8-0.1-1.1s-0.7-1.2-0.9-1.3l-4.3-1.2l-0.6,0.9
		c-0.1,0.2-0.2,0.2-0.4,0.2c-0.1,0-0.2-0.1-0.2-0.1s0.5-1.3,0.7-2.1c0.2-0.7,0.5-2.1,0.5-2.1s0.1,0,0.2,0c0.2,0.1,0.3,0.2,0.3,0.4
		l0.1,1.1l4.2,1.2c1.2,0.3,1.9,0.1,2.2-0.9c0.1-0.4,0.1-0.8-0.1-1.1s-0.7-1.3-0.9-1.3l-4.3-1.2l-0.6,0.9c-0.1,0.2-0.2,0.2-0.4,0.2
		c-0.1,0-0.2-0.1-0.2-0.1s0.5-1.3,0.7-2.1c0.2-0.7,0.5-2.2,0.5-2.2s0.1,0,0.2,0c0.2,0.1,0.3,0.2,0.3,0.4l0,1.3l5.9,1.7
		c0,0,0.3-0.7,0.5-1.1c0.2-0.4,0.3-0.3,0.4-0.3c0.1,0,0.2,0.1,0.2,0.1c-0.2,0.5-0.3,1.6-0.3,2.5c0,0.1,0,0.2,0,0.3
		c0,0.1-0.1,0.2-0.4,0.1c0,0-0.9-0.3-1.2-0.4c-0.1,0-0.1,0-0.1,0c0,0,0,0.1,0,0.1c0.9,1.2,1,2.7,0.8,3.6c-0.3,1-1,1.5-2.1,1.4
		C444.3,425,444.3,425,444.3,425.1z"/>
	<path class="st0" d="M442.1,447c0.9-2.8,0.9-3.2,0.9-3.2l-8.9-4.3l-0.8,1.3c-0.1,0.2-0.3,0.2-0.5,0.2c-0.1,0-0.2-0.1-0.2-0.1
		s0.6-1.5,0.9-2.4c0.3-0.9,0.7-2.4,0.7-2.4s0.1,0,0.2,0c0.2,0.1,0.3,0.2,0.3,0.4l-0.1,1.4l8.9,4.3c0,0,0.3-0.3,1.2-3.1l-0.9-1
		c-0.2-0.2-0.2-0.3-0.1-0.6c0-0.1,0.1-0.2,0.1-0.2l2.2,1.4l-3.2,9.6l-2.4-0.7c0,0,0-0.1,0-0.2c0.1-0.2,0.2-0.3,0.4-0.3L442.1,447z"
		/>
	<path class="st0" d="M434.5,447.8l-0.1,0.1c1.6,1.6,3.2,3.7,2.8,4.9c-0.3,0.8-1.2,0.9-2.1,0.6c-1.9-0.7-4.2-2.3-4.8-2.5
		c-0.2-0.1-0.2,0-0.3,0.1c-0.1,0.3,0,1.1,0,1.3c-0.1,0-0.1,0.1-0.3,0c-0.1,0-0.2-0.2-0.3-0.4c0-0.1-0.5-1.6-0.2-2.2
		c0.1-0.3,0.4-0.7,0.9-0.5c0.7,0.3,3.5,2.1,5,2.6c0.5,0.2,0.9,0.2,1,0c0.2-0.6-3.1-4.8-5.5-5.7c0.2-0.5,0.3-1,0.3-1.1
		c0.1-0.2,0.2-0.2,0.2-0.1c1,0.4,8.5,4.5,10.6,5.6l0.4-1.1c0.1-0.3,0.3-0.3,0.5-0.3c0.1,0,0.2,0.1,0.2,0.1c-0.2,0.5-0.3,1.6-0.3,2.5
		c0,0.2,0,0.3,0,0.4c0,0.1-0.1,0.2-0.3,0.1c0,0-0.1-0.1-0.2-0.1C441.7,451.9,435.3,448.3,434.5,447.8z"/>
	<path class="st0" d="M431.1,453.9c2.6,1,4.3,4.1,3.5,6.3c-0.4,1-1.2,1.4-2.1,1.1c-1.9-0.7-2.2-3.1-1.9-5.8c-0.8-0.3-1.8,0-2.2,1
		c-0.4,1,0.1,2.7,0.2,3c-0.2,0.1-0.3,0.1-0.4,0.1c-0.1,0-0.2-0.2-0.3-0.3c-0.5-1.1-1-2.7-0.5-3.8C427.8,454,429.4,453.3,431.1,453.9
		z M433.9,459c0.4-0.9-1-2.7-2.6-3.3c0,0.1-0.3,3.3,1.5,3.9C433.2,459.8,433.7,459.6,433.9,459z"/>
	<path class="st0" d="M423.7,471.3c0.1,0.2,0.2,0.3,0.1,0.5c0,0.1-0.1,0.2-0.1,0.2l-2.1-1.4l3.1-7.8c0,0,0.1,0,0.2,0
		c0.2,0.1,0.3,0.2,0.2,0.4l-0.1,1.3l8.7,4.9l0.8-1c0.1-0.1,0.3-0.2,0.5-0.1c0.1,0,0.2,0.1,0.2,0.1s-0.7,1.4-0.9,2.1
		c-0.3,0.7-0.8,2.2-0.8,2.2s-0.1,0-0.2,0c-0.2-0.1-0.3-0.3-0.3-0.4l0.1-1.2l-8.6-4.8c0,0-0.7,1.5-1.7,3.9L423.7,471.3z"/>
	<path class="st0" d="M423.6,473.2c2.6,1.1,4.1,4.2,3.2,6.4c-0.4,1-1.3,1.3-2.1,1c-1.8-0.8-2-3.2-1.7-5.9c-0.8-0.3-1.8-0.1-2.2,0.9
		c-0.4,0.9-0.1,2.7,0.1,3c-0.2,0.1-0.3,0.1-0.4,0.1s-0.2-0.2-0.3-0.3c-0.5-1.1-0.9-2.7-0.4-3.9C420.3,473.1,422,472.5,423.6,473.2z
		 M426.2,478.4c0.4-0.9-0.9-2.8-2.4-3.4c0,0.1-0.4,3.3,1.3,4C425.5,479.1,426,479,426.2,478.4z"/>
	<path class="st0" d="M419.5,485.6L419.5,485.6c-1.5-1.9-2.8-4-2.5-4.8c0.4-1,2.1-1.2,3.5-0.6c2.5,1.1,4.1,4.4,3,6.8
		c-0.3,0.7-0.9,1-1,1.3c-0.1,0.2,0,0.4-0.1,0.6c0,0.1-0.1,0.1-0.2,0.1c-0.1-0.1-6.6-4.4-6.6-4.4c-2.6-1.7-3.3-4.1-2.4-6.2
		c0.3-0.8,1.1-1.5,1.8-1.2c0.5,0.2,0.7,0.7,0.4,1.2c-0.6,0.1-1.5,0.7-1.7,1.2C412.9,481.6,418,484.3,419.5,485.6z M423.1,486.3
		c0.4-1-1.2-3.6-3.1-4.5c-0.9-0.4-1.7-0.4-1.8,0c-0.1,0.2-0.1,0.4,0.5,1.3c0.8,1.3,2.7,3.5,3.7,3.9
		C422.3,487,422.9,486.7,423.1,486.3z"/>
	<path class="st0" d="M417.4,487.7c2.6,1.2,4,4.4,3,6.5c-0.4,1-1.3,1.3-2.1,0.9c-1.8-0.8-1.9-3.3-1.5-6c-0.8-0.3-1.8-0.2-2.3,0.8
		c-0.4,0.9-0.1,2.7,0,3c-0.2,0.1-0.3,0.1-0.4,0s-0.2-0.2-0.3-0.3c-0.4-1.1-0.8-2.7-0.2-3.9C414.1,487.5,415.8,487,417.4,487.7z
		 M419.8,493c0.4-0.9-0.8-2.8-2.3-3.5c0,0.1-0.5,3.2,1.2,4C419,493.7,419.5,493.6,419.8,493z"/>
	<path class="st0" d="M414.4,497.1L414.4,497.1c1.3,1.8,2.7,4.1,2.2,5.2c-0.4,0.8-1.3,0.7-2.1,0.4c-1.8-0.9-4-2.7-4.5-3
		c-0.2-0.1-0.2,0-0.3,0.1c-0.1,0.3-0.1,1.1-0.1,1.3c-0.1,0-0.2,0.1-0.3,0c-0.2-0.1-0.2-0.2-0.3-0.4c0-0.1-0.3-1.6,0-2.2
		c0.1-0.3,0.5-0.6,1-0.4c0.7,0.3,3.3,2.5,4.7,3.1c0.5,0.2,0.9,0.3,1,0.1c0.3-0.6-2.6-5.1-4.8-6.2c0.3-0.5,0.4-1,0.5-1.1
		c0.1-0.2,0.2-0.2,0.3-0.1c0.6,0.3,4,2.7,5.8,4l0.5-1.1c0.2-0.3,0.4-0.3,0.5-0.2c0.1,0,0.1,0.1,0.2,0.1c-0.2,0.5-0.5,1.6-0.6,2.5
		c0,0.2,0,0.3-0.1,0.4c0,0.1-0.1,0.2-0.3,0.1C417.3,499.5,415.4,497.8,414.4,497.1z"/>
	<path class="st0" d="M415.5,512.5l0.5-1c0.2-0.3,0.4-0.3,0.5-0.2c0.1,0,0.2,0.1,0.2,0.2c-0.2,0.4-0.4,1.2-0.5,1.9
		c-0.1,0.8-0.2,0.9-0.2,0.9c0,0.1-0.1,0.2-0.3,0.1c0,0-0.2-0.1-0.2-0.1c-1.8-1.4-8.6-6.3-9.5-6.7c-0.1-0.1-0.2,0-0.3,0.1
		c-0.1,0.3-0.2,1-0.2,1.2c-0.1,0-0.2,0.1-0.3,0c-0.1,0-0.2-0.2-0.2-0.4c0-0.1-0.3-1.6,0-2.2c0.2-0.3,0.4-0.6,1-0.3
		c0.5,0.3,2.1,1.5,2.9,2.1l0.1-0.1c-1.5-1.9-2.7-4.1-2.3-4.9c0.5-1,2.2-1.1,3.5-0.4c2.4,1.2,3.9,4.6,2.7,6.9
		c-0.1,0.3-0.3,0.5-0.5,0.7C413.7,511.2,414.9,512,415.5,512.5z M412.4,508.8c0.5-1-0.8-3.6-2.8-4.6c-0.4-0.2-1.6-0.7-1.9-0.2
		c-0.2,0.5,2.6,4.8,4,5.5C411.7,509.6,412.3,509.2,412.4,508.8z"/>
	<path class="st0" d="M403.2,520.7c-2.2-1.2-3.6-3.9-2.5-6c0.9-1.7,2.5-2,4.4-0.9c2.2,1.2,3.6,4,2.5,6
		C406.7,521.4,405.1,521.7,403.2,520.7z M401.3,515.5c-0.4,0.8,0.8,2.8,2.6,3.8c1.2,0.6,2.6,0.8,3.1-0.2c0.4-0.8-0.8-2.8-2.6-3.7
		C403.3,514.6,401.8,514.5,401.3,515.5z"/>
	<path class="st0" d="M397.1,514.6c0.5,0.3,0.6,0.8,0.3,1.2c-0.6,0-1.5,0.5-1.7,1c-0.6,1.1,1.5,2.7,2.1,3.2c2.2,1.7,3.6,2.5,6.2,4.5
		c0.2-0.4,0.8-1.5,0.8-1.5l0.7,0.5c-0.1,0.1-0.5,0.9-0.8,1.5l0.4,0.3c0.9,0.6,1.6,1.6,2.1,2.6c0.5,1.2,0.3,2.2-0.1,3
		c-0.4,0.8-1.2,1.3-1.8,1c-0.5-0.3-0.5-0.8-0.3-1.3c0.5,0,1.3-0.3,1.6-0.8c0.6-1-1.6-2.7-2.1-3.1l-0.5-0.4c-0.5,1-0.9,1.7-0.9,2.2
		c0,0-0.2,0.1-0.4,0c-0.6-0.3-0.4-0.8-0.1-1.4c0.1-0.2,0.7-1.2,0.7-1.2c-2.3-1.7-4.1-2.8-6.2-4.4c-2.1-1.6-3-3.8-1.9-5.8
		C395.6,514.9,396.4,514.2,397.1,514.6z"/>
	<path class="st0" d="M398.7,542.6l-2.3-1.4c0,0,0-0.1,0.1-0.2c0.1-0.2,0.2-0.2,0.5-0.2l1.2,0.3c0.4-0.2,1.5-1.3,2-2.1
		c0.2-0.3,0.3-0.6,0.3-0.9c0.1-1.9-1.3-4.6-4-6.2c-2-1.1-3.5-0.9-4.5,0.8c-0.7,1.2-0.9,2.1-0.9,2.6l2.9,2.3c0.3-0.4,1-1.9,1-1.9
		l0.8,0.5c0,0-0.7,1.1-1.2,1.9c-0.7,1.1-1.2,2.2-1.2,2.5c0,0-0.1,0-0.2-0.1c-0.6-0.3-0.5-0.7-0.2-1.2l0.3-0.5l-3.5-2.7
		c0,0,0.3-2,1.6-4.3c1.4-2.3,3.3-3.1,6-1.5c3.6,2.1,5.1,6.6,3.2,9.8C399.8,541.4,398.7,542.6,398.7,542.6z"/>
	<path class="st0" d="M388.2,546.7c-2.2-1.3-3.3-4.1-2.1-6.1c1-1.6,2.6-1.8,4.4-0.7c2.2,1.3,3.3,4.1,2.1,6.1
		C391.7,547.6,390.1,547.8,388.2,546.7z M386.6,541.3c-0.5,0.8,0.6,2.8,2.4,3.9c1.2,0.7,2.6,0.9,3.1,0c0.5-0.8-0.6-2.8-2.4-3.9
		C388.6,540.6,387.2,540.4,386.6,541.3z"/>
	<path class="st0" d="M383.8,553.7c-2.1-1.3-3.2-4.2-2-6.1c1-1.6,2.6-1.8,4.5-0.6c2.1,1.4,3.3,4.2,2,6.2
		C387.3,554.7,385.7,554.8,383.8,553.7z M382.3,548.3c-0.5,0.8,0.6,2.8,2.3,3.9c1.1,0.7,2.5,1,3.1,0c0.5-0.8-0.6-2.8-2.3-3.9
		C384.3,547.6,382.9,547.3,382.3,548.3z"/>
	<path class="st0" d="M385.6,564l0.6-1c0.2-0.3,0.4-0.2,0.5-0.2c0.1,0,0.1,0.1,0.2,0.2c-0.2,0.4-0.5,1.1-0.8,1.8
		c-0.2,0.7-0.3,0.9-0.3,0.9c-0.1,0.1-0.2,0.2-0.3,0.1c0,0-0.1-0.1-0.1-0.1c-1.6-1.6-7.9-7.2-8.7-7.8c-0.1-0.1-0.2,0-0.3,0
		c-0.2,0.2-0.3,1-0.3,1.2c-0.1,0-0.2,0.1-0.3,0c-0.1-0.1-0.2-0.2-0.2-0.4c0-0.1-0.1-1.6,0.3-2.1c0.2-0.3,0.5-0.6,1-0.2
		c0.5,0.3,1.9,1.7,2.6,2.4l0.1-0.1c-1.3-2-2.2-4.3-1.7-5.1c0.6-0.9,2.3-0.8,3.5,0c2.3,1.5,3.3,5,1.9,7.2c-0.2,0.3-0.4,0.5-0.6,0.6
		C383.9,562.4,385,563.4,385.6,564z M382.9,560c0.6-1-0.4-3.7-2.3-4.9c-0.4-0.2-1.5-0.9-1.8-0.4c-0.3,0.4,2,5,3.3,5.9
		C382.2,560.6,382.7,560.3,382.9,560z"/>
	<path class="st0" d="M379.3,571.6c-1.1-0.6-5.3-2.6-7.9-3.8c1.7,2.5,4.5,6.6,5.8,8.5l-0.6,0.8c-0.2,0.3-0.4,0.4-0.8,0.2
		c-1.1-0.5-5.7-2.7-8.4-3.9c1.6,2.6,4.5,6.7,5.3,7.7l1-0.8c0.1-0.1,0.3-0.2,0.5,0c0.1,0.1,0.1,0.2,0.1,0.2s-1,1.2-1.4,1.8
		c-0.4,0.6-1.1,1.7-1.1,1.7s-0.1,0-0.2-0.1c-0.2-0.1-0.2-0.3-0.2-0.5l0.3-1.1c-0.9-1.6-4.3-6.8-6.3-10.1c-0.1-0.1,0.2-0.4,0.3-0.6
		c0.1-0.2,0.4-0.5,0.5-0.5c2.5,1.1,6.4,2.8,8.8,3.9c-1.5-2.3-4-6.1-5.6-8.5c-0.1-0.1,0.2-0.4,0.3-0.6c0.1-0.2,0.4-0.5,0.5-0.5
		c3.3,1.5,8.7,3.8,10.3,4.4l0.9-0.6c0.2-0.1,0.3-0.2,0.5,0c0.1,0.1,0.1,0.2,0.1,0.2s-1,1.3-1.4,1.9c-0.4,0.6-1.3,2-1.3,2
		s-0.1,0-0.2-0.1c-0.2-0.1-0.2-0.3-0.1-0.5L379.3,571.6z"/>
	<path class="st0" d="M362.9,584c-2-1.5-3-4.4-1.6-6.3c1.1-1.5,2.7-1.6,4.5-0.3c2,1.5,3,4.4,1.6,6.3
		C366.3,585.2,364.7,585.2,362.9,584z M361.8,578.5c-0.6,0.8,0.4,2.9,2,4.1c1.1,0.8,2.5,1.1,3.1,0.2c0.6-0.8-0.4-2.9-2-4.1
		C363.9,578,362.5,577.6,361.8,578.5z"/>
	<path class="st0" d="M356.6,595.1c-1.6-1.2-3.3-3.5-3.8-3.8c-0.1-0.1-0.2-0.1-0.3,0c-0.2,0.2-0.4,1.1-0.4,1.2c-0.1,0-0.2,0-0.3,0
		c-0.1-0.1-0.2-0.2-0.2-0.5c0-0.1,0-1.6,0.4-2.2c0.2-0.3,0.6-0.5,1-0.2c0.6,0.5,2.7,3.1,3.9,4c0.4,0.3,0.8,0.5,0.9,0.3
		c0.4-0.5-1.5-5.5-3.5-7c0.3-0.4,0.5-0.8,0.6-0.9c0.1-0.2,0.2-0.1,0.3-0.1c1,0.8,2.9,3.4,4.2,4.4c0.4,0.3,0.8,0.5,0.9,0.3
		c0.4-0.5-1.5-5.5-3.5-7.1c0.3-0.4,0.6-0.9,0.7-1c0.1-0.2,0.2-0.1,0.3-0.1c0.5,0.4,3.4,3.4,4.9,5.1l0.7-0.9c0.2-0.3,0.4-0.2,0.5-0.1
		c0.1,0.1,0.1,0.1,0.2,0.2c-0.3,0.4-0.8,1.5-1.1,2.3c-0.1,0.2-0.1,0.3-0.1,0.4c-0.1,0.1-0.2,0.1-0.3,0c-0.2-0.1-1.8-2.2-2.6-3.1
		l-0.1,0.1c1,2,2,4.4,1.2,5.4c-0.5,0.7-1.3,0.5-2.1-0.1c-0.4-0.3-1-1-1.6-1.8l-0.1,0.1c1.2,2.2,1.9,4.3,1.1,5.3
		C358.3,595.9,357.3,595.7,356.6,595.1z"/>
	<path class="st0" d="M352.6,594.2c2.2,1.7,2.9,5.1,1.4,7c-0.6,0.8-1.6,1-2.3,0.4c-1.6-1.2-1.1-3.6-0.1-6.2
		c-0.7-0.5-1.7-0.6-2.4,0.3c-0.6,0.8-0.7,2.6-0.7,2.9c-0.2,0.1-0.3,0-0.4,0c-0.1-0.1-0.2-0.2-0.2-0.3c-0.2-1.2-0.1-2.8,0.6-3.8
		C349.5,593.3,351.2,593.1,352.6,594.2z M353.8,599.9c0.6-0.8-0.2-2.9-1.5-4c-0.1,0.1-1.3,3,0.2,4.2
		C352.9,600.4,353.4,600.4,353.8,599.9z"/>
	<path class="st0" d="M347.6,602.6l-0.1,0.1c1,2,1.9,4.5,1.1,5.4c-0.5,0.7-1.4,0.4-2.1-0.1c-1.6-1.2-3.3-3.5-3.8-3.9
		c-0.1-0.1-0.2-0.1-0.3,0c-0.2,0.3-0.4,1-0.4,1.2c-0.1,0-0.2,0-0.3,0c-0.1-0.1-0.2-0.3-0.2-0.5c0-0.1,0.1-1.6,0.5-2.1
		c0.2-0.3,0.6-0.5,1-0.2c0.6,0.5,2.7,3.1,3.9,4.1c0.5,0.4,0.8,0.5,0.9,0.3c0.4-0.5-1.4-5.6-3.4-7.1c0.4-0.5,0.6-0.9,0.7-1
		c0.1-0.2,0.2-0.1,0.3-0.1c0.5,0.4,3.4,3.5,4.9,5.2l0.7-0.9c0.2-0.3,0.4-0.2,0.5-0.1c0.1,0.1,0.1,0.1,0.2,0.2
		c-0.3,0.4-0.8,1.5-1.1,2.3c-0.1,0.2-0.1,0.3-0.1,0.4c-0.1,0.1-0.2,0.1-0.3,0C350,605.5,348.5,603.5,347.6,602.6z"/>
	<path class="st0" d="M340.6,606.5c0.5,0.4,0.5,1.1,0.2,1.6c-0.4,0.5-1.1,0.7-1.6,0.3c-0.5-0.4-0.6-1.1-0.2-1.6
		C339.4,606.2,340.1,606.1,340.6,606.5z"/>
	<path class="st0" d="M333.9,631.5c-1-1.5-4.3-5.7-6.5-8.8c-0.1-0.1,0.2-0.4,0.3-0.6s0.4-0.5,0.5-0.5c2.8,0.8,6.4,1.9,9,2.6
		c-1.6-2.2-3.8-5.3-5.5-7.6c-0.1-0.1,0.2-0.4,0.3-0.6c0.1-0.2,0.4-0.5,0.5-0.5c3.5,1.1,8.7,2.8,10.4,3.3l0.9-0.7
		c0.2-0.1,0.3-0.1,0.5,0c0.1,0.1,0.2,0.2,0.2,0.2s-1,1.3-1.5,1.9c-0.4,0.6-1.4,2.2-1.4,2.2s-0.1,0-0.2-0.1c-0.1-0.1-0.2-0.3-0.1-0.4
		l0.4-1.2c-1.1-0.5-5.1-2-7.9-3c1.8,2.4,4.3,5.8,5.7,7.6l-0.8,1.1c-0.1,0.2-0.3,0.3-0.8,0.2c-1.2-0.3-5.7-1.8-8.6-2.7
		c1.8,2.4,4.6,5.6,5.4,6.5l0.9-0.7c0.1-0.1,0.3-0.1,0.5,0c0.1,0.1,0.1,0.2,0.1,0.2s-0.9,1.1-1.3,1.7c-0.5,0.6-1.2,1.8-1.2,1.8
		s-0.1,0-0.2-0.1c-0.1-0.1-0.2-0.3-0.1-0.4L333.9,631.5z"/>
	<path class="st0" d="M324.8,637.2l-4.1-2.8l-1,0.8c-0.2,0.1-0.3,0.1-0.5,0c-0.1-0.1-0.2-0.2-0.2-0.2s0.9-1.2,1.4-1.9
		s1.1-1.8,1.1-1.8s0.1,0,0.2,0.1c0.2,0.1,0.2,0.3,0.1,0.5l-0.3,1.1l3.6,2.4c1,0.7,1.8,0.6,2.3-0.2c0.2-0.3,0.3-0.7,0.3-1.1
		c0-0.4-0.3-1.4-0.5-1.6l-3.8-2.5l-0.9,0.7c-0.2,0.1-0.3,0.1-0.5,0c-0.1-0.1-0.2-0.2-0.2-0.2s0.9-1.1,1.3-1.7s1.2-2,1.2-2
		s0.1,0,0.2,0.1c0.2,0.1,0.2,0.3,0.1,0.5l-0.4,1.2l8.7,5.8c0,0,0.5-0.6,0.8-0.9c0.3-0.3,0.4-0.2,0.5-0.2c0.1,0,0.1,0.1,0.1,0.2
		c-0.3,0.5-0.8,1.4-1.1,2.3c0,0.1-0.1,0.2-0.1,0.3c-0.1,0.1-0.2,0.1-0.4,0l-4.5-3c-0.1,0-0.1-0.1-0.1,0c0,0,0,0.1,0,0.1
		c0.3,1.4,0.2,2.7-0.4,3.5C327,638,325.9,638,324.8,637.2z"/>
	<path class="st0" d="M320.9,639.4c-1.5-1-2.9-0.7-3.7,0.5c-0.6,1-0.9,2.1-0.9,2.4c-0.1,0-0.2,0.1-0.3,0c-0.1-0.1-0.2-0.3-0.2-0.4
		c-0.1-1,0.1-2.1,0.8-3.1c1.2-1.8,3.3-2,5.1-0.9c2,1.3,2.9,4.1,1.7,5.9c-1,1.5-2.7,1.5-5,0l2.8-4.3L320.9,639.4z M320,642.7
		c0.5,0.3,2.1,1.1,3-0.1c0.4-0.7-0.4-2.1-1.2-2.6L320,642.7z"/>
	<path class="st0" d="M315,652.7l-4.2-2.6l-0.9,0.8c-0.2,0.1-0.3,0.2-0.5,0.1c-0.1-0.1-0.2-0.1-0.2-0.1s0.9-1.3,1.3-1.9s1-1.9,1-1.9
		s0.1,0,0.2,0.1c0.2,0.1,0.2,0.3,0.1,0.4l-0.3,1.1l3.7,2.3c1,0.6,1.8,0.6,2.3-0.3c0.2-0.4,0.3-0.7,0.3-1.1c0-0.4-0.3-1.4-0.5-1.5
		l-3.8-2.4l-0.9,0.7c-0.2,0.1-0.3,0.2-0.5,0.1c-0.1-0.1-0.2-0.1-0.2-0.1s0.8-1.1,1.2-1.8c0.4-0.6,1.1-2,1.1-2s0.1,0,0.2,0.1
		c0.2,0.1,0.2,0.3,0.1,0.4l-0.3,1.2l5.2,3.2c0,0,0.5-0.6,0.8-0.9c0.3-0.3,0.4-0.2,0.5-0.2c0.1,0,0.1,0.1,0.2,0.2
		c-0.3,0.5-0.8,1.5-1,2.4c0,0.1,0,0.2-0.1,0.3c-0.1,0.1-0.2,0.1-0.4,0c0,0-0.8-0.5-1-0.7c-0.1,0-0.1-0.1-0.1,0c0,0,0,0.1,0,0.1
		c0.5,1.4,0.2,2.9-0.3,3.7C317.2,653.4,316.1,653.4,315,652.7z"/>
	<path class="st0" d="M308.7,656.5l4.2,2.4l0.7-1.2l0.8,0.4c-0.2,0.3-0.7,1.2-0.7,1.2l1.5,0.9c-0.2,0.6-0.3,1.3-0.4,1.5
		c-0.1,0.2-0.2,0.1-0.4,0l-1.5-0.9c-0.1,0.1-0.8,1.6-0.9,2.1c-0.1,0-0.2,0-0.3-0.1c-0.5-0.3-0.5-0.7-0.2-1.3
		c0.2-0.3,0.7-1.2,0.7-1.2l-3.5-2.1c-1.5-0.9-1.8-1-2.2-0.4c-0.3,0.4-0.5,1.2-0.5,1.6c-0.1,0-0.2,0.1-0.3,0
		c-0.2-0.1-0.2-0.2-0.2-0.4c-0.1-0.7,0.1-2,0.4-2.6C306.2,655.6,307.1,655.6,308.7,656.5z"/>
	<path class="st0" d="M305.2,669.5l-4.3-2.4L300,668c-0.2,0.1-0.3,0.2-0.5,0.1c-0.1-0.1-0.2-0.1-0.2-0.1s0.8-1.3,1.2-2s1-1.9,1-1.9
		s0.1,0,0.2,0.1c0.2,0.1,0.2,0.3,0.2,0.4l-0.2,1.1l3.8,2.1c1.1,0.6,1.8,0.5,2.3-0.4c0.2-0.4,0.2-0.7,0.2-1.1s-0.4-1.4-0.6-1.5
		l-3.9-2.2l-0.8,0.8c-0.2,0.1-0.3,0.2-0.5,0.1c-0.1-0.1-0.2-0.1-0.2-0.1s0.8-1.2,1.1-1.8s1-2.1,1-2.1s0.1,0,0.2,0.1
		c0.2,0.1,0.2,0.3,0.2,0.4l-0.3,1.2l9.1,5.1c0,0,0.4-0.6,0.7-0.9c0.3-0.3,0.4-0.2,0.5-0.2c0.1,0,0.1,0.1,0.2,0.2
		c-0.3,0.5-0.7,1.5-0.9,2.4c0,0.1,0,0.2-0.1,0.3c-0.1,0.1-0.2,0.1-0.4,0l-4.8-2.7c-0.1,0-0.1-0.1-0.1,0c0,0,0,0.1,0,0.1
		c0.5,1.4,0.4,2.6-0.1,3.5C307.6,670.2,306.5,670.2,305.2,669.5z"/>
	<path class="st0" d="M301.5,672c-1.6-0.8-3-0.5-3.6,0.8c-0.5,1-0.7,2.1-0.7,2.4c-0.1,0-0.2,0.1-0.3,0c-0.1-0.1-0.2-0.2-0.3-0.4
		c-0.2-0.9-0.1-2.1,0.5-3.2c1-1.9,3.1-2.3,5-1.3c2.1,1.1,3.2,3.8,2.2,5.8c-0.8,1.6-2.6,1.7-5,0.4l2.4-4.5L301.5,672z M300.9,675.4
		c0.5,0.3,2.2,1,2.9-0.4c0.4-0.7-0.5-2-1.4-2.5L300.9,675.4z"/>
	<path class="st0" d="M295.4,680.7l4.3,2.2l0.6-1.2l0.8,0.4c-0.2,0.3-0.7,1.2-0.7,1.2l1.5,0.8c-0.2,0.6-0.2,1.3-0.3,1.5
		c-0.1,0.2-0.2,0.2-0.4,0l-1.5-0.8c-0.1,0.1-0.7,1.7-0.8,2.1c-0.1,0-0.2,0-0.3,0c-0.5-0.2-0.6-0.7-0.3-1.3c0.2-0.3,0.6-1.2,0.6-1.2
		l-3.7-1.8c-1.6-0.8-1.9-0.9-2.2-0.2c-0.2,0.5-0.4,1.3-0.4,1.6c-0.1,0-0.2,0.1-0.3,0c-0.2-0.1-0.2-0.2-0.3-0.4
		c-0.2-0.6-0.1-2,0.3-2.6C293,679.9,293.8,679.9,295.4,680.7z"/>
	<path class="st0" d="M292.8,693.9l-4.5-2.1l-0.8,0.9c-0.2,0.1-0.3,0.2-0.4,0.1c-0.1-0.1-0.2-0.1-0.2-0.1s0.8-1.4,1.1-2s0.8-2,0.8-2
		s0.1,0,0.2,0c0.2,0.1,0.2,0.2,0.2,0.4l-0.1,1.1l3.9,1.9c1.1,0.5,1.8,0.4,2.3-0.5c0.2-0.4,0.2-0.7,0.1-1.1c-0.1-0.4-0.5-1.4-0.7-1.5
		l-4.1-2l-0.8,0.8c-0.2,0.1-0.3,0.2-0.4,0.1c-0.1-0.1-0.2-0.1-0.2-0.1s0.7-1.2,1-1.9c0.3-0.7,0.9-2.1,0.9-2.1s0.1,0,0.2,0
		c0.2,0.1,0.2,0.2,0.2,0.4l-0.2,1.3l9.4,4.5c0,0,0.4-0.6,0.7-1c0.3-0.3,0.4-0.3,0.4-0.2c0.1,0,0.1,0.1,0.2,0.1
		c-0.2,0.5-0.6,1.5-0.7,2.5c0,0.1,0,0.2,0,0.3c-0.1,0.1-0.2,0.2-0.4,0l-4.9-2.4c-0.1,0-0.1-0.1-0.1,0c0,0,0,0.1,0,0.1
		c0.5,1.4,0.5,2.6,0.1,3.5C295.2,694.4,294.1,694.5,292.8,693.9z"/>
	<path class="st0" d="M291.9,701.5c-0.4,0.8-1.1,1.2-1.7,0.9c-0.6-0.3-0.7-0.9-0.5-1.4c0.5,0,1.2-0.2,1.5-0.7c0.2-0.5-0.7-1.8-1.2-2
		l-3.8-1.8l-1,1.2c-0.1,0.2-0.3,0.2-0.5,0.1c-0.1-0.1-0.2-0.1-0.2-0.1s0.8-1.5,1.1-2.3s0.9-2.2,0.9-2.2s0.1,0,0.2,0
		c0.2,0.1,0.2,0.2,0.2,0.4l-0.2,1.3l5.5,2.5c0,0,0.4-0.7,0.7-1c0.2-0.3,0.4-0.3,0.4-0.2c0.1,0,0.1,0.1,0.2,0.1
		c-0.2,0.5-0.6,1.6-0.7,2.5c0,0.1,0,0.2,0,0.3c-0.1,0.1-0.2,0.2-0.4,0c0,0-0.8-0.4-1.1-0.5c-0.1,0-0.1-0.1-0.1,0c0,0,0,0.1,0,0.1
		C292.1,699.9,292.2,700.8,291.9,701.5z"/>
	<path class="st0" d="M286.3,703.2c-1.6-0.7-3-0.2-3.5,1.1c-0.5,1.1-0.6,2.2-0.5,2.5c-0.1,0.1-0.2,0.1-0.3,0
		c-0.1-0.1-0.2-0.2-0.3-0.4c-0.3-0.9-0.2-2.1,0.3-3.2c0.9-2,2.9-2.5,4.9-1.7c2.2,1,3.5,3.6,2.6,5.6c-0.7,1.7-2.4,1.9-4.9,0.8l2-4.7
		L286.3,703.2z M286,706.6c0.5,0.2,2.3,0.8,2.9-0.6c0.3-0.8-0.7-2-1.6-2.4L286,706.6z"/>
	<path class="st0" d="M282.1,708.1c0.9,0.4,1.5,1.2,1.6,2.4c0.2,1.2-0.4,2.7-0.4,2.7l0.9,0.4c0.9,0.4,1.6,0.1,2-0.8
		c0.2-0.6-0.5-1.4-0.8-1.6c0-0.1,0-0.3,0.1-0.4c0.2-0.5,0.7-0.7,1.2-0.5c0.8,0.3,0.8,1.7,0.2,3c-0.7,1.8-1.9,2.4-3.2,1.9l-3.2-1.3
		c-0.7-0.3-1.4-0.6-1.6-0.1c-0.1,0.2,0,0.9,0,1c-0.1,0.1-0.2,0.1-0.3,0c-0.1-0.1-0.2-0.2-0.3-0.4c0-0.1-0.3-1.2-0.1-1.8
		c0.2-0.5,0.8-0.8,1.6-0.5c0.1,0,0.1,0,0.1,0c0,0,0-0.1,0-0.1c-0.3-0.6-0.9-1.6-0.4-2.9C280,707.9,281.1,707.7,282.1,708.1z
		 M280.3,710.3c-0.4,0.9,0.1,1.8,0.1,1.8l2,0.8c0.1-0.2,0.2-0.4,0.3-0.6c0.1-0.2,0.2-0.5,0.2-0.7c0.1-0.7-0.3-1.6-1.1-1.9
		C281.2,709.5,280.6,709.7,280.3,710.3z"/>
	<path class="st0" d="M276.4,720.4C276.4,720.4,276.4,720.3,276.4,720.4c-0.3-0.6-0.8-1.6-0.4-2.6c0.7-1.9,2.9-2.1,4.7-1.4
		c2.3,0.9,3.5,3.5,2.7,5.6c-0.2,0.4-0.5,0.8-0.6,0.8c0,0,0,0,0,0c0.3,0.1,3.1,1.1,3.1,1.1s0.4-0.7,0.6-1c0.2-0.3,0.3-0.3,0.4-0.3
		c0.1,0,0.2,0.1,0.2,0.1c-0.2,0.5-0.5,1.7-0.6,2.6c0,0.1,0,0.3,0,0.3c0,0.1-0.2,0.2-0.4,0.1l-9-3.5c-0.8-0.3-1.4-0.5-1.6-0.1
		c-0.1,0.3,0,0.9,0,1c-0.1,0.1-0.2,0.1-0.3,0.1c-0.2-0.1-0.2-0.2-0.3-0.4c0-0.1-0.4-1.2-0.1-1.8c0.2-0.5,0.7-0.9,1.6-0.7
		C276.3,720.4,276.4,720.5,276.4,720.4z M281.6,722.3c0.4-0.4,0.9-1,1.1-1.5c0.4-0.9-0.9-2.3-2.4-2.8c-1.5-0.6-2.9-0.2-3.4,1
		c-0.2,0.5-0.2,1.1,0,1.6L281.6,722.3z"/>
	<path class="st0" d="M278.9,730.4c0,0,0.3-0.7,0.6-1c0.2-0.3,0.3-0.3,0.4-0.3c0.1,0,0.2,0.1,0.2,0.1c-0.2,0.5-0.5,1.7-0.5,2.7
		c0,0.1,0,0.3,0,0.3c0,0.1-0.2,0.2-0.4,0.1l-6.5-2.3l-0.7,1c-0.1,0.2-0.2,0.2-0.4,0.1c-0.1,0-0.2-0.1-0.2-0.1s0.6-1.4,0.9-2.1
		c0.3-0.7,0.7-2.2,0.7-2.2s0.1,0,0.2,0c0.2,0.1,0.2,0.2,0.2,0.4l-0.1,1.3L278.9,730.4z M281.5,732c-0.2,0.6,0.1,1.2,0.6,1.4
		c0.5,0.2,1.1-0.1,1.3-0.7c0.2-0.5-0.1-1.1-0.6-1.3C282.3,731.2,281.6,731.5,281.5,732z"/>
	<path class="st0" d="M277.1,737c0.2-0.5-0.1-0.9-0.4-1.1c-1.5-0.5-3.7,2.6-5.6,2c-1.4-0.5-1.7-2.1-1.2-3.6c0.5-1.5,1.5-2.4,2.3-2.1
		c0.5,0.2,0.8,0.6,0.6,1.2c0,0.1-0.1,0.2-0.1,0.2c-0.6-0.1-1.8,0.3-2.1,1.4c-0.2,0.5,0,1,0.5,1.2c1.9,0.6,3.8-2.6,5.7-1.9
		c1.2,0.4,1.5,1.9,1,3.3c-0.4,1.1-1.1,1.9-1.8,1.7c-0.4-0.2-0.5-0.6-0.4-1c0-0.1,0.1-0.2,0.1-0.2C275.8,738.1,276.8,737.8,277.1,737
		z"/>
	<path class="st0" d="M270.8,746.3c0.8,1.8,1.9,3.6,1.9,3.6l0.6-1c0.1-0.2,0.3-0.2,0.4-0.2c0.1,0,0.2,0.1,0.2,0.1s-0.5,1.3-0.7,2.1
		c-0.2,0.8-0.5,1.8-0.5,1.8s-0.1,0-0.2,0c-0.2-0.1-0.2-0.2-0.2-0.4l-0.1-1.1c-0.3-0.9-1.1-2.6-1.5-3.3l-1.7,0.7
		c-1.7,0.7-3.1,1.6-3.3,2.3c0,0.1-0.1,0.2-0.1,0.3c0,0-0.1,0-0.2,0c-0.6-0.2-1.1-0.7-0.8-1.6c0.4-1.3,2.2-2,3.3-2.4
		C269.5,746.7,270,746.6,270.8,746.3z M278,746.3c0,0,0.3-0.7,0.5-1.1c0.2-0.4,0.3-0.3,0.4-0.3c0.1,0,0.2,0.1,0.2,0.1
		c-0.2,0.5-0.4,1.7-0.4,2.7c0,0.1,0,0.3,0,0.3c0,0.1-0.1,0.2-0.4,0.1l-10.7-3.3l-0.7,1c-0.1,0.2-0.2,0.2-0.4,0.2
		c-0.1,0-0.2-0.1-0.2-0.1s0.5-1.4,0.7-2.1s0.6-2.2,0.6-2.2s0.1,0,0.2,0c0.2,0.1,0.3,0.2,0.3,0.4l0,1.3L278,746.3z"/>
	<path class="st0" d="M268,760.9l-4.8-1.3l-0.7,1.1c-0.1,0.2-0.2,0.2-0.4,0.2c-0.1,0-0.2-0.1-0.2-0.1s0.5-1.5,0.7-2.2
		c0.2-0.7,0.5-2.1,0.5-2.1s0.1,0,0.2,0c0.2,0.1,0.3,0.2,0.3,0.4l0.1,1.1l4.2,1.2c1.2,0.3,1.9,0.1,2.2-0.9c0.1-0.4,0.1-0.8-0.1-1.1
		c-0.1-0.3-0.7-1.3-0.9-1.3l-4.3-1.2l-0.6,0.9c-0.1,0.2-0.2,0.2-0.4,0.2c-0.1,0-0.2-0.1-0.2-0.1s0.5-1.3,0.7-2.1
		c0.2-0.7,0.5-2.2,0.5-2.2s0.1,0,0.2,0c0.2,0.1,0.3,0.2,0.3,0.4l0,1.3l5.9,1.7c0,0,0.3-0.7,0.5-1.1c0.2-0.4,0.3-0.3,0.4-0.3
		c0.1,0,0.2,0.1,0.2,0.1c-0.2,0.5-0.3,1.6-0.3,2.6c0,0.1,0,0.2,0,0.3c0,0.1-0.1,0.2-0.4,0.1c0,0-0.9-0.3-1.2-0.4c-0.1,0-0.1,0-0.1,0
		c0,0,0,0.1,0,0.1c0.9,1.2,1,2.7,0.8,3.6C270.4,761,269.3,761.3,268,760.9z"/>
	<path class="st0" d="M264.1,769.9c-2.8-0.7-4-3.1-3.5-5.1c0.6-2.2,2.7-2.9,4.7-2.4c2.5,0.6,4,2.9,3.4,5.1
		C268.3,769.3,266.6,770.5,264.1,769.9z M264.1,768c1.9,0.5,3.5,0,3.9-1.4c0.3-1.2-1.6-2.2-2.6-2.4c-2.4-0.6-3.7,0.3-4,1.5
		C261.2,766.7,262.5,767.6,264.1,768z"/>
	<path class="st0" d="M260.6,776.3l4.7,1.1l0.8-3.3l-4-0.9c-1.7-0.4-2-0.4-2.2,0.3c-0.1,0.5-0.1,1.3,0,1.7c0,0-0.1,0.1-0.3,0.1
		c-0.2,0-0.3-0.2-0.4-0.3c-0.3-0.6-0.5-1.9-0.4-2.6c0.3-1.2,1.1-1.4,2.9-1l4.7,1.1l0.3-1.4l0.9,0.2c-0.1,0.3-0.3,1.4-0.3,1.4
		l1.6,0.4c0,0.6,0.1,1.3,0.1,1.5c0,0.2-0.1,0.2-0.4,0.1l-1.7-0.4c-0.2,0.8-0.8,3.3-0.8,3.3l1.6,0.4c0,0.6,0.1,1.3,0.1,1.5
		c0,0.2-0.1,0.2-0.4,0.1l-1.7-0.4c0,0.1-0.3,1.8-0.3,2.3c-0.1,0-0.2,0-0.3,0c-0.5-0.1-0.7-0.5-0.6-1.2c0.1-0.4,0.3-1.3,0.3-1.3
		l-4-0.9c-1.7-0.4-2-0.4-2.2,0.3c-0.1,0.5-0.1,1.3,0,1.7c0,0-0.1,0.1-0.3,0.1c-0.2,0-0.3-0.2-0.4-0.3c-0.3-0.6-0.5-1.9-0.4-2.6
		C258,776.1,258.8,775.9,260.6,776.3z"/>
	<path class="st0" d="M260.6,783c-1.7-0.4-3,0.4-3.2,1.8c-0.2,1.1-0.1,2.3,0,2.5c0,0.1-0.1,0.1-0.3,0.1c-0.1,0-0.3-0.2-0.4-0.3
		c-0.5-0.8-0.6-2-0.4-3.2c0.4-2.1,2.4-3.1,4.5-2.7c2.4,0.5,4.2,2.8,3.7,4.9c-0.4,1.8-2,2.4-4.6,1.8l1-5L260.6,783z M261,786.5
		c0.5,0.1,2.4,0.3,2.7-1.2c0.2-0.8-1.1-1.8-2.1-2L261,786.5z"/>
	<path class="st0" d="M255.9,793.8C255.9,793.8,255.8,793.8,255.9,793.8c-0.4-0.5-1.1-1.4-0.9-2.5c0.4-2,2.4-2.6,4.3-2.3
		c2.4,0.4,4.1,2.7,3.7,5c-0.1,0.4-0.4,0.9-0.4,0.9c0,0,0,0,0,0c0.4,0.1,3.3,0.5,3.3,0.5s0.2-0.7,0.4-1.1c0.2-0.4,0.3-0.4,0.4-0.3
		c0.1,0,0.2,0.1,0.2,0.1c-0.1,0.5-0.2,1.8-0.1,2.7c0,0.1,0,0.2,0,0.3c0,0.1-0.1,0.2-0.4,0.1l-9.5-1.7c-0.8-0.1-1.5-0.2-1.6,0.2
		c0,0.3,0.1,0.9,0.2,0.9c0,0.1-0.2,0.1-0.3,0.1c-0.2,0-0.3-0.2-0.4-0.3c0-0.1-0.6-1.1-0.5-1.7c0.1-0.5,0.5-1,1.4-1
		C255.8,793.9,255.9,793.9,255.9,793.8z M261.3,794.7c0.4-0.5,0.7-1.1,0.8-1.7c0.2-1-1.4-2-2.9-2.3c-1.5-0.3-2.9,0.3-3.1,1.6
		c-0.1,0.5,0,1.1,0.3,1.5L261.3,794.7z"/>
	<path class="st0" d="M251.2,797.7c0.2,0,0.8,0.2,0.9,0.3c0,0,0.4,1.1,1.4,1.2c0.9,0.1,1.6-0.9,1.6-0.9s0.8,0.4,0.7,1.2
		c-0.1,0.9-0.9,1.2-1.5,1.1c-1.8-0.3-3.2-3-3.2-3C251,797.7,251.1,797.7,251.2,797.7z"/>
	<path class="st0" d="M259.5,808.2c0,0,0.2-0.7,0.3-1.1c0.1-0.4,0.3-0.4,0.4-0.4c0.1,0,0.2,0.1,0.2,0.1c-0.1,0.6-0.1,1.8,0,2.7
		c0,0.1,0.1,0.2,0.1,0.3c0,0.1-0.1,0.2-0.4,0.2l-6.8-0.9l-0.5,1.1c-0.1,0.2-0.2,0.3-0.4,0.2c-0.1,0-0.2-0.1-0.2-0.1s0.3-1.5,0.4-2.3
		c0.1-0.7,0.2-2.3,0.2-2.3s0.1,0,0.2,0c0.2,0,0.3,0.2,0.3,0.4l0.2,1.3L259.5,808.2z M262.3,809.2c-0.1,0.6,0.3,1.1,0.9,1.2
		c0.5,0.1,1.1-0.3,1.1-0.9c0.1-0.5-0.3-1.1-0.9-1.1C263,808.3,262.4,808.7,262.3,809.2z"/>
	<path class="st0" d="M254.3,812.5l4.8,0.6l0.2-1.4l0.9,0.1c-0.1,0.3-0.2,1.4-0.2,1.4l1.7,0.2c0,0.6,0.3,1.3,0.2,1.5
		c0,0.2-0.1,0.2-0.4,0.2l-1.7-0.2c0,0.1-0.1,1.8,0,2.3c-0.1,0-0.2,0.1-0.3,0.1c-0.5-0.1-0.8-0.4-0.7-1.1c0-0.4,0.2-1.4,0.2-1.4
		l-4.1-0.5c-1.8-0.2-2.1-0.2-2.2,0.5c-0.1,0.5,0.1,1.3,0.2,1.7c0,0-0.1,0.1-0.3,0.1c-0.2,0-0.3-0.1-0.4-0.3
		c-0.4-0.6-0.7-1.8-0.6-2.5C251.7,812.5,252.5,812.3,254.3,812.5z"/>
	<path class="st0" d="M256.7,829C256.7,829,256.8,829,256.7,829c1.1,1,1.6,2.5,1.5,3.4c-0.1,1.5-1.1,2.1-2.5,2l-4.9-0.4l-0.5,1.2
		c-0.1,0.2-0.2,0.3-0.4,0.3c-0.1,0-0.2-0.1-0.2-0.1s0.2-1.5,0.3-2.3c0.1-0.8,0.1-2.1,0.1-2.1s0.1,0,0.2,0c0.2,0,0.3,0.1,0.3,0.3
		l0.3,1.1l4.3,0.3c1.2,0.1,1.8-0.3,1.9-1.3c0-0.4-0.1-0.8-0.3-1.1c-0.2-0.3-0.9-1.1-1.2-1.1l-4.5-0.4l-0.4,1
		c-0.1,0.2-0.2,0.3-0.4,0.3c-0.1,0-0.2-0.1-0.2-0.1s0.2-1.4,0.3-2.1c0.1-0.8,0.1-2.1,0.1-2.1s0.1,0,0.2,0c0.2,0,0.3,0.1,0.3,0.3
		l0.3,1.1l4.3,0.3c1.2,0.1,1.8-0.3,1.9-1.3c0-0.4-0.1-0.8-0.3-1.1c-0.2-0.3-0.9-1.1-1.2-1.1l-4.5-0.4l-0.4,1
		c-0.1,0.2-0.2,0.3-0.4,0.3c-0.1,0-0.2-0.1-0.2-0.1s0.2-1.4,0.3-2.1c0.1-0.8,0.1-2.3,0.1-2.3s0.1,0,0.2,0c0.2,0,0.3,0.1,0.3,0.3
		l0.3,1.2l6.1,0.5c0,0,0.1-0.7,0.3-1.2c0.1-0.4,0.2-0.4,0.3-0.4c0.1,0,0.2,0,0.2,0.1c0,0.6,0,1.6,0.2,2.5c0,0.1,0.1,0.2,0.1,0.3
		c0,0.1-0.1,0.2-0.4,0.2c0,0-0.9-0.1-1.2-0.1c-0.1,0-0.1,0-0.1,0c0,0,0,0.1,0,0.1c1.1,1,1.5,2.4,1.5,3.3c-0.1,1.1-0.7,1.7-1.8,1.8
		C256.8,829,256.7,829,256.7,829z"/>
	<path class="st0" d="M252.7,837.4l4,0.2c0,0,0.1-0.8,0.2-1.2c0.1-0.4,0.2-0.4,0.3-0.4c0.1,0,0.2,0,0.2,0.1c0,0.6,0.1,1.8,0.3,2.7
		c0,0.1,0.1,0.2,0.1,0.3c0,0.1-0.1,0.2-0.4,0.2l-4.7-0.2c-1.5-0.1-2.1,0.1-2.2,1.1c0,0.4,0.1,0.7,0.4,1c0.2,0.3,0.9,1.1,1.3,1.1
		l4.3,0.2c0,0,0.1-0.7,0.2-1.1c0.1-0.4,0.2-0.4,0.3-0.4c0.1,0,0.2,0,0.2,0.1c0,0.6,0.1,1.8,0.3,2.7c0,0.1,0.1,0.2,0.1,0.3
		c0,0.1-0.1,0.2-0.4,0.2l-5.4-0.2c-0.8,0-1.5,0-1.5,0.4c0,0.3,0.2,0.8,0.3,0.9c0,0.1-0.2,0.2-0.3,0.2c-0.2,0-0.3-0.1-0.4-0.3
		c-0.1-0.1-0.7-1-0.7-1.6c0-0.8,0.8-1.1,1.7-1.1c0.1,0,0.1,0,0.1,0c0,0,0-0.1,0-0.1c-0.5-0.4-1.7-1.7-1.6-3
		C249.5,837.6,250.7,837.3,252.7,837.4z"/>
	<path class="st0" d="M256.8,849.3c0-0.5-0.4-0.9-0.7-0.9c-1.6,0-2.7,3.7-4.7,3.6c-1.5,0-2.3-1.5-2.3-3c0-1.6,0.7-2.8,1.6-2.7
		c0.5,0,0.9,0.4,0.9,0.9c0,0.1,0,0.2,0,0.2c-0.6,0.1-1.6,0.8-1.6,2c0,0.6,0.3,1,0.8,1c2,0,2.8-3.6,4.8-3.6c1.2,0,2,1.3,2,2.8
		c0,1.2-0.4,2.2-1.2,2.1c-0.5,0-0.7-0.4-0.7-0.8c0-0.1,0-0.2,0-0.2C255.9,850.7,256.8,850.2,256.8,849.3z"/>
	<path class="st0" d="M251.7,854.2l4.9,0l0-1.4l0.9,0c0,0.3,0,1.4,0,1.4l1.7,0c0.1,0.6,0.4,1.2,0.4,1.5c0,0.2-0.1,0.2-0.4,0.2
		l-1.7,0c0,0.1,0.1,1.8,0.3,2.3c-0.1,0.1-0.2,0.1-0.3,0.1c-0.5,0-0.8-0.3-0.8-1c0-0.4,0-1.4,0-1.4l-4.1,0c-1.8,0-2.1,0-2.1,0.8
		c0,0.5,0.2,1.3,0.4,1.7c0,0.1-0.1,0.2-0.3,0.2c-0.2,0-0.3-0.1-0.4-0.3c-0.4-0.5-0.9-1.7-0.9-2.4
		C249.1,854.5,249.9,854.2,251.7,854.2z"/>
	<path class="st0" d="M256.5,864.7c-0.1,0-0.1,0-0.1,0.1c0,0,0,0.1,0,0.1c0.5,0.3,1.3,1,1.3,2.1c0.1,2.1-1.9,3.2-3.7,3.2
		c-2.2,0.1-4.6-1.6-4.7-4.2c0-0.8,0.2-1.8,0.6-2.6l10.9-0.4c0,0,0.1-0.7,0.1-1.2c0.1-0.4,0.2-0.4,0.3-0.4c0.1,0,0.2,0,0.2,0
		c0,0.6,0.2,1.8,0.5,2.7c0,0.1,0.1,0.2,0.1,0.3c0,0.1-0.1,0.2-0.4,0.2L256.5,864.7z M250.8,865.1c-0.3,0.5-0.5,1.2-0.4,1.9
		c0,1,1.8,1.7,3.4,1.6c1.6-0.1,2.7-0.9,2.6-2.2c0-0.5-0.3-1.1-0.6-1.5L250.8,865.1z"/>
	<path class="st0" d="M253.6,873.1c-1.8,0.1-2.8,1.1-2.7,2.6c0.1,1.2,0.5,2.2,0.7,2.4c0,0.1-0.1,0.2-0.3,0.2c-0.1,0-0.3-0.1-0.4-0.2
		c-0.7-0.7-1.1-1.7-1.2-3c-0.1-2.1,1.5-3.6,3.6-3.7c2.4-0.2,4.7,1.6,4.9,3.8c0.1,1.8-1.3,2.8-4,3l-0.3-5.1L253.6,873.1z
		 M254.9,876.3c0.5,0,2.4-0.3,2.3-1.9c-0.1-0.8-1.5-1.5-2.5-1.4L254.9,876.3z"/>
	<path class="st0" d="M253.6,883.8l4-0.4c0,0,0-0.8,0.1-1.2c0-0.4,0.2-0.4,0.3-0.4c0.1,0,0.2,0,0.2,0c0.1,0.6,0.3,1.8,0.7,2.6
		c0,0.1,0.1,0.2,0.1,0.3c0,0.1-0.1,0.2-0.4,0.3l-4.6,0.5c-1.5,0.1-2.1,0.4-2,1.4c0,0.4,0.2,0.7,0.5,1c0.2,0.3,1.1,1,1.4,0.9l4.2-0.4
		c0,0,0-0.7,0.1-1.2c0-0.4,0.2-0.4,0.3-0.4c0.1,0,0.2,0,0.2,0c0.1,0.6,0.3,1.7,0.7,2.6c0,0.1,0.1,0.2,0.1,0.3c0,0.1-0.1,0.2-0.4,0.3
		l-5.4,0.6c-0.8,0.1-1.4,0.2-1.4,0.6c0,0.3,0.3,0.8,0.4,0.9c0,0.1-0.1,0.2-0.3,0.2c-0.2,0-0.3-0.1-0.4-0.2c-0.1-0.1-0.8-0.9-0.9-1.5
		c-0.1-0.8,0.6-1.2,1.5-1.3c0.1,0,0.1,0,0.1-0.1c0,0,0,0,0,0c-0.5-0.3-1.9-1.4-2-2.7C250.5,884.4,251.6,884,253.6,883.8z"/>
	<path class="st0" d="M258.5,900.4l-4.9,0.7l-0.2,1.2c0,0.2-0.1,0.3-0.3,0.3c-0.1,0-0.2,0-0.2,0s-0.1-1.5-0.2-2.3s-0.4-2.1-0.4-2.1
		s0.1-0.1,0.2-0.1c0.2,0,0.3,0.1,0.4,0.3l0.5,1l4.3-0.6c1.2-0.2,1.7-0.7,1.6-1.7c-0.1-0.4-0.2-0.8-0.5-1c-0.3-0.3-1.1-0.9-1.4-0.8
		l-4.5,0.6l-0.2,1.1c0,0.2-0.1,0.3-0.3,0.3c-0.1,0-0.2,0-0.2,0s-0.1-1.4-0.2-2.2c-0.1-0.7-0.4-2.3-0.4-2.3s0.1-0.1,0.2-0.1
		c0.2,0,0.3,0.1,0.4,0.3l0.5,1.2l6-0.8c0,0,0-0.7,0-1.2c0-0.4,0.2-0.4,0.2-0.4c0.1,0,0.2,0,0.2,0c0.1,0.6,0.3,1.6,0.7,2.5
		c0,0.1,0.1,0.2,0.1,0.3c0,0.1-0.1,0.2-0.3,0.3c0,0-0.9,0.1-1.2,0.1c-0.1,0-0.1,0-0.1,0.1c0,0,0,0,0,0c1.3,0.7,2,2.1,2.1,3
		C260.7,899.5,259.8,900.2,258.5,900.4z"/>
	<path class="st0" d="M262.2,912.2c0-0.2,0.1-0.3,0.3-0.4c0.1,0,0.2,0,0.2,0s0.1,1.1,0.2,1.8c0.1,0.7,0.4,1.5,0.4,1.5
		s-0.1,0-0.2,0.1c-0.2,0-0.3-0.1-0.4-0.2l-0.4-0.7c-1.1-0.4-4.6-0.8-7.6-1.4c-0.1,0-0.2-0.4-0.2-0.6s-0.1-0.6,0-0.7
		c2-1.2,4.2-2.3,5.5-3.1c-1.6-0.3-4-0.6-6.3-1c-0.1,0-0.2-0.4-0.2-0.7s-0.1-0.6,0-0.6c2.7-1.6,5.7-3.1,6.7-3.9l0.1-0.9
		c0-0.2,0.1-0.3,0.3-0.3c0.1,0,0.2,0,0.2,0s0.1,1.2,0.3,2c0.1,0.8,0.5,2.1,0.5,2.1s-0.1,0-0.2,0.1c-0.2,0-0.3-0.1-0.4-0.2l-0.4-0.8
		c-0.9,0.3-3.3,1.5-5.3,2.6c2.2,0.3,5.9,0.9,6.7,0.9l0.2,1c0.1,0.4-0.1,0.5-0.4,0.7c-0.8,0.4-3.6,1.7-5.5,2.8c2.2,0.4,5,0.8,5.8,0.8
		L262.2,912.2z"/>
	<path class="st0" d="M261.3,923.3c-2.8,0.6-4.9-1-5.4-3c-0.5-2.2,1.1-3.8,3.1-4.2c2.5-0.5,4.8,0.8,5.3,3.1
		C264.7,920.9,263.8,922.7,261.3,923.3z M260.4,921.6c1.9-0.4,3.2-1.5,2.9-3c-0.3-1.2-2.4-1.2-3.4-1c-2.4,0.5-3.1,1.9-2.9,3.1
		C257.2,921.7,258.8,922,260.4,921.6z"/>
	<path class="st0" d="M260.5,926.1l3.9-1c0,0-0.1-0.8-0.1-1.2c0-0.4,0.1-0.4,0.2-0.5c0.1,0,0.2,0,0.2,0c0.1,0.5,0.6,1.7,1,2.5
		c0.1,0.1,0.1,0.2,0.2,0.3c0,0.1,0,0.2-0.3,0.3l-4.5,1.1c-1.4,0.4-2,0.7-1.8,1.7c0.1,0.4,0.3,0.6,0.6,0.9c0.3,0.2,1.2,0.8,1.6,0.7
		l4.1-1c0,0-0.1-0.7-0.1-1.2c0-0.4,0.1-0.4,0.2-0.5c0.1,0,0.2,0,0.2,0c0.1,0.5,0.5,1.7,1,2.5c0.1,0.1,0.1,0.2,0.2,0.3
		c0,0.1,0,0.2-0.3,0.3l-5.3,1.3c-0.8,0.2-1.4,0.4-1.3,0.8c0.1,0.3,0.4,0.7,0.5,0.8c0,0.1-0.1,0.2-0.2,0.2c-0.2,0-0.3,0-0.5-0.1
		c-0.1-0.1-0.9-0.8-1.1-1.4c-0.2-0.7,0.4-1.3,1.3-1.5c0.1,0,0.1,0,0.1-0.1c0,0,0,0,0,0c-0.6-0.3-2.1-1.1-2.4-2.4
		C257.5,927.1,258.6,926.6,260.5,926.1z"/>
	<path class="st0" d="M267.8,942.1l-4.8,1.4l0,1.3c0,0.2-0.1,0.3-0.3,0.4c-0.1,0-0.2,0-0.2,0s-0.3-1.5-0.6-2.2s-0.7-2-0.7-2
		s0.1-0.1,0.2-0.1c0.2-0.1,0.3,0,0.4,0.2l0.6,0.9l4.1-1.2c1.2-0.3,1.6-0.9,1.3-1.9c-0.1-0.4-0.3-0.7-0.6-0.9
		c-0.3-0.2-1.3-0.7-1.5-0.6l-4.3,1.3l0,1.1c0,0.2-0.1,0.3-0.3,0.4c-0.1,0-0.2,0-0.2,0s-0.3-1.4-0.5-2.1c-0.2-0.7-0.7-2.2-0.7-2.2
		s0.1-0.1,0.2-0.1c0.2-0.1,0.3,0,0.4,0.2l0.7,1.1l5.9-1.7c0,0-0.1-0.7-0.2-1.2c0-0.4,0.1-0.4,0.2-0.5c0.1,0,0.2,0,0.2,0
		c0.2,0.5,0.6,1.6,1.1,2.3c0.1,0.1,0.2,0.2,0.2,0.3c0,0.1,0,0.2-0.3,0.3c0,0-0.9,0.2-1.2,0.3c-0.1,0-0.1,0-0.1,0.1c0,0,0,0,0,0
		c1.4,0.5,2.3,1.8,2.6,2.6C269.9,940.9,269.2,941.7,267.8,942.1z"/>
	<path class="st0" d="M265.8,951C265.8,950.9,265.8,950.9,265.8,951c-0.6-0.3-1.6-0.7-2-1.7c-0.6-1.9,0.9-3.5,2.7-4.1
		c2.3-0.8,4.9,0.4,5.6,2.6c0.1,0.4,0.1,1,0.1,1c0,0,0,0,0,0c0.3-0.1,3.1-1.1,3.1-1.1s-0.1-0.7-0.2-1.2c0-0.4,0.1-0.4,0.2-0.5
		c0.1,0,0.2,0,0.2,0c0.2,0.5,0.7,1.7,1.2,2.4c0.1,0.1,0.2,0.2,0.2,0.2c0,0.1,0,0.2-0.3,0.3l-9.2,3.1c-0.8,0.3-1.4,0.5-1.3,0.9
		c0.1,0.3,0.5,0.7,0.6,0.7c0,0.1-0.1,0.2-0.2,0.2c-0.2,0.1-0.3,0-0.5-0.1c-0.1,0-1-0.7-1.2-1.3c-0.2-0.5,0-1.2,0.8-1.5
		C265.8,951,265.8,951,265.8,951z M271.1,949.1c0.1-0.6,0.1-1.3-0.1-1.9c-0.3-1-2.2-1.1-3.7-0.6c-1.5,0.5-2.4,1.7-2,2.9
		c0.2,0.5,0.6,1,1,1.2L271.1,949.1z"/>
	<path class="st0" d="M263.7,956.8c0.2-0.1,0.8-0.3,0.9-0.1c0,0,0.9,0.7,1.8,0.4c0.8-0.3,0.9-1.5,0.9-1.5s0.9-0.1,1.2,0.7
		s-0.2,1.5-0.8,1.7c-1.7,0.6-4.2-1.1-4.2-1.1C263.5,956.9,263.6,956.8,263.7,956.8z"/>
	<path class="st0" d="M271.7,963.6l4.5-1.8l-0.5-1.3l0.8-0.3c0.1,0.3,0.5,1.3,0.5,1.3l1.6-0.6c0.3,0.5,0.8,1,0.9,1.2
		c0.1,0.2,0,0.2-0.3,0.3l-1.6,0.6c0.1,0.1,0.8,1.7,1.1,2c0,0.1-0.1,0.2-0.2,0.2c-0.5,0.2-0.9,0-1.1-0.6c-0.1-0.4-0.5-1.3-0.5-1.3
		l-3.8,1.5c-1.6,0.7-1.9,0.8-1.7,1.5c0.2,0.5,0.7,1.1,1,1.4c0,0.1,0,0.2-0.2,0.3c-0.2,0.1-0.3,0-0.5-0.1c-0.6-0.3-1.5-1.3-1.8-1.9
		C269.5,964.9,270,964.2,271.7,963.6z"/>
	<path class="st0" d="M280,974.4l-4.5,2l0.2,1.2c0,0.2,0,0.3-0.2,0.4c-0.1,0.1-0.2,0.1-0.2,0.1s-0.5-1.5-0.8-2.1s-0.9-1.9-0.9-1.9
		s0.1-0.1,0.2-0.1c0.2-0.1,0.3,0,0.5,0.1l0.7,0.8l4-1.7c1.1-0.5,1.5-1.2,1.1-2.1c-0.2-0.4-0.4-0.6-0.7-0.8c-0.3-0.2-1.3-0.5-1.6-0.4
		l-4.1,1.8l0.1,1.1c0,0.2,0,0.3-0.2,0.4c-0.1,0-0.2,0.1-0.2,0.1s-0.5-1.3-0.8-2c-0.3-0.7-1-2.1-1-2.1s0.1-0.1,0.2-0.1
		c0.2-0.1,0.3,0,0.5,0.1l0.8,1l9.5-4.2c0,0-0.2-0.7-0.3-1.1c-0.1-0.4,0-0.4,0.1-0.5c0.1,0,0.2,0,0.2,0c0.2,0.5,0.8,1.5,1.4,2.2
		c0.1,0.1,0.2,0.2,0.2,0.2c0.1,0.1,0,0.2-0.3,0.3l-5,2.2c-0.1,0-0.1,0-0.1,0.1c0,0,0.1,0,0.1,0c1.4,0.5,2.3,1.3,2.7,2.2
		C281.9,972.9,281.3,973.8,280,974.4z"/>
	<path class="st0" d="M278.9,978.9l3.6-1.8c0,0-0.2-0.7-0.4-1.1c-0.1-0.4,0-0.5,0.1-0.5c0.1,0,0.2,0,0.2,0c0.2,0.5,0.9,1.6,1.5,2.3
		c0.1,0.1,0.2,0.2,0.2,0.2c0.1,0.1,0,0.2-0.2,0.4l-4.2,2c-1.3,0.6-1.9,1.1-1.4,2c0.2,0.3,0.5,0.6,0.8,0.8c0.3,0.2,1.4,0.5,1.7,0.4
		l3.8-1.9c0,0-0.2-0.7-0.3-1.1c-0.1-0.4,0-0.5,0.1-0.5c0.1,0,0.2,0,0.2,0c0.2,0.5,0.9,1.5,1.5,2.2c0.1,0.1,0.2,0.2,0.2,0.2
		c0.1,0.1,0,0.2-0.2,0.4l-4.9,2.4c-0.7,0.4-1.3,0.7-1.1,1c0.1,0.2,0.6,0.6,0.7,0.7c0,0.1-0.1,0.2-0.2,0.3c-0.1,0.1-0.3,0-0.5,0
		c-0.1,0-1.1-0.6-1.4-1.1c-0.3-0.7,0.1-1.4,0.9-1.8c0.1,0,0.1-0.1,0.1-0.1c0,0-0.1,0-0.1,0c-0.6-0.1-2.2-0.7-2.8-1.9
		C276.2,980.6,277.1,979.8,278.9,978.9z"/>
	<path class="st0" d="M288.3,987.7c-0.3-0.5-0.7-0.6-1.1-0.4c-1.4,0.8-0.6,4.5-2.4,5.4c-1.4,0.7-2.7-0.2-3.4-1.6
		c-0.8-1.4-0.7-2.8,0-3.2c0.4-0.2,1-0.1,1.2,0.4c0,0.1,0.1,0.2,0.1,0.2c-0.5,0.3-1,1.5-0.4,2.5c0.3,0.5,0.7,0.7,1.2,0.5
		c1.8-0.9,0.7-4.5,2.5-5.4c1.1-0.6,2.4,0.2,3.1,1.5c0.6,1.1,0.7,2.1,0,2.5c-0.4,0.2-0.8,0-1-0.4c-0.1-0.1-0.1-0.2-0.1-0.2
		C288.2,989.4,288.7,988.5,288.3,987.7z"/>
	<path class="st0" d="M292.2,995.7c0,0-0.3-0.7-0.4-1.1c-0.1-0.4,0-0.5,0.1-0.5c0.1,0,0.2-0.1,0.2-0.1c0.3,0.5,1,1.5,1.7,2.1
		c0.1,0.1,0.2,0.2,0.2,0.2c0.1,0.1,0,0.2-0.2,0.4l-6,3.5l0.3,1.2c0,0.2,0,0.3-0.2,0.4c-0.1,0.1-0.2,0.1-0.2,0.1s-0.7-1.4-1.1-2
		c-0.4-0.7-1.2-2-1.2-2s0.1-0.1,0.2-0.2c0.2-0.1,0.3,0,0.5,0.1l0.9,0.9L292.2,995.7z M295.1,994.7c0.3,0.5,1,0.7,1.4,0.4
		c0.5-0.3,0.6-0.9,0.3-1.4c-0.3-0.4-0.9-0.6-1.4-0.4C295,993.6,294.8,994.3,295.1,994.7z"/>
	<path class="st0" d="M290.8,1002.4l4.2-2.5l-0.7-1.2l0.8-0.5c0.2,0.3,0.7,1.2,0.7,1.2l1.4-0.9c0.4,0.5,1,0.8,1.1,1
		c0.1,0.2,0,0.2-0.2,0.4l-1.5,0.9c0.1,0.1,1,1.5,1.4,1.8c0,0.1-0.1,0.2-0.2,0.2c-0.4,0.3-0.9,0.1-1.2-0.4c-0.2-0.3-0.7-1.2-0.7-1.2
		l-3.5,2.1c-1.5,0.9-1.8,1.1-1.4,1.7c0.3,0.4,0.9,1,1.2,1.2c0,0.1,0,0.2-0.2,0.3c-0.2,0.1-0.3,0.1-0.5,0c-0.6-0.2-1.7-1-2.1-1.6
		C288.8,1004,289.2,1003.3,290.8,1002.4z"/>
	<path class="st0" d="M299.9,1008.3c0,0-0.3-0.7-0.5-1.1c-0.1-0.4,0-0.4,0-0.5c0.1,0,0.2-0.1,0.2-0.1c0.3,0.5,1.1,1.4,1.8,2
		c0.1,0.1,0.2,0.1,0.2,0.2c0.1,0.1,0,0.2-0.2,0.4l-5.8,3.8l0.4,1.2c0,0.2,0,0.3-0.1,0.4c-0.1,0.1-0.2,0.1-0.2,0.1s-0.8-1.3-1.2-2
		c-0.4-0.6-1.3-1.9-1.3-1.9s0-0.1,0.2-0.2c0.2-0.1,0.3-0.1,0.5,0.1l1,0.8L299.9,1008.3z M302.7,1007.2c0.3,0.5,1,0.6,1.5,0.3
		c0.5-0.3,0.6-1,0.2-1.5c-0.3-0.4-0.9-0.6-1.4-0.3C302.6,1006.1,302.5,1006.8,302.7,1007.2z"/>
	<path class="st0" d="M306.5,1010.4c0,0-0.3-0.7-0.5-1.1c-0.2-0.4,0-0.4,0-0.5c0.1,0,0.2-0.1,0.2-0.1c0.3,0.5,1.1,1.4,1.8,2
		c0.1,0.1,0.2,0.1,0.2,0.2c0.1,0.1,0,0.2-0.2,0.4l-9.2,6.4l0.4,1.2c0.1,0.2,0,0.3-0.1,0.4c-0.1,0.1-0.2,0.1-0.2,0.1
		s-0.8-1.3-1.2-1.9s-1.4-1.8-1.4-1.8s0-0.1,0.1-0.2c0.2-0.1,0.3-0.1,0.5,0l1,0.8L306.5,1010.4z"/>
	<path class="st0" d="M309.6,1014.8c0,0-0.4-0.7-0.5-1.1c-0.2-0.4-0.1-0.4,0-0.5c0.1,0,0.2-0.1,0.2-0.1c0.3,0.5,1.1,1.4,1.9,1.9
		c0.1,0.1,0.2,0.1,0.2,0.2c0.1,0.1,0.1,0.2-0.2,0.4l-9.1,6.6l0.4,1.2c0.1,0.2,0,0.3-0.1,0.4c-0.1,0.1-0.2,0.1-0.2,0.1
		s-0.8-1.3-1.3-1.9c-0.4-0.6-1.4-1.8-1.4-1.8s0-0.1,0.1-0.2c0.2-0.1,0.3-0.1,0.5,0l1,0.8L309.6,1014.8z"/>
	<path class="st0" d="M306.1,1024.1l3.2-2.5c0,0-0.4-0.7-0.6-1c-0.2-0.4-0.1-0.4,0-0.5c0.1,0,0.2-0.1,0.2-0.1c0.3,0.4,1.2,1.3,2,1.9
		c0.1,0.1,0.2,0.1,0.2,0.2c0.1,0.1,0.1,0.2-0.2,0.4l-3.7,2.8c-1.2,0.9-1.6,1.4-1,2.2c0.2,0.3,0.6,0.5,0.9,0.6c0.3,0.1,1.4,0.2,1.7,0
		l3.4-2.6c0,0-0.4-0.6-0.6-1c-0.2-0.4-0.1-0.4,0-0.5c0.1,0,0.2-0.1,0.2-0.1c0.3,0.4,1.2,1.3,1.9,1.9c0.1,0.1,0.2,0.1,0.2,0.2
		c0.1,0.1,0.1,0.2-0.2,0.4l-4.3,3.3c-0.6,0.5-1.1,0.9-0.9,1.2c0.2,0.2,0.7,0.5,0.8,0.5c0,0.1,0,0.2-0.1,0.3
		c-0.1,0.1-0.3,0.1-0.5,0.1c-0.1,0-1.2-0.3-1.6-0.8c-0.5-0.6-0.1-1.4,0.6-1.9c0.1,0,0.1-0.1,0.1-0.1c0,0-0.1,0-0.1,0
		c-0.6,0-2.3-0.2-3.2-1.3C303.8,1026.3,304.5,1025.4,306.1,1024.1z"/>
	<path class="st0" d="M317,1030.7c-0.3-0.4-0.8-0.4-1.1-0.2c-1.2,1,0.3,4.5-1.2,5.8c-1.2,1-2.7,0.3-3.7-0.8c-1-1.2-1.2-2.6-0.6-3.1
		c0.4-0.3,0.9-0.3,1.3,0.1c0.1,0.1,0.1,0.2,0.1,0.2c-0.4,0.4-0.7,1.7,0.1,2.6c0.4,0.4,0.9,0.5,1.3,0.2c1.5-1.3-0.2-4.5,1.3-5.8
		c1-0.8,2.4-0.3,3.4,0.9c0.8,0.9,1.1,1.9,0.5,2.4c-0.4,0.3-0.8,0.2-1.1-0.2c-0.1-0.1-0.1-0.2-0.1-0.2
		C317.3,1032.4,317.6,1031.4,317,1030.7z"/>
	<path class="st0" d="M316.5,1037.9l3.7-3.2l-0.9-1l0.7-0.6c0.2,0.3,0.9,1.1,0.9,1.1l1.3-1.1c0.5,0.4,1.1,0.6,1.3,0.8
		c0.1,0.1,0.1,0.2-0.1,0.4l-1.3,1.1c0.1,0.1,1.3,1.3,1.7,1.5c0,0.1-0.1,0.2-0.2,0.3c-0.4,0.3-0.8,0.3-1.3-0.2c-0.2-0.3-0.9-1-0.9-1
		l-3.1,2.7c-1.3,1.2-1.5,1.4-1.1,2c0.3,0.4,1,0.8,1.4,1c0,0.1,0,0.2-0.1,0.3c-0.1,0.1-0.3,0.1-0.5,0.1c-0.7-0.1-1.8-0.7-2.3-1.2
		C314.8,1039.9,315.1,1039.1,316.5,1037.9z"/>
	<path class="st0" d="M327.7,1041.7c0.6,0.6,0.7,1.4,0.2,1.9c-0.5,0.5-1.1,0.3-1.4-0.1c0.2-0.5,0.3-1.2-0.1-1.6
		c-0.4-0.4-1.9,0-2.3,0.3l-3.1,2.9l0.8,1.4c0.1,0.2,0.1,0.3-0.1,0.5c-0.1,0.1-0.2,0.1-0.2,0.1s-1.1-1.3-1.6-1.9s-1.7-1.7-1.7-1.7
		s0-0.1,0.1-0.2c0.1-0.1,0.3-0.1,0.5,0l1.1,0.7l4.5-4.1c0,0-0.5-0.6-0.7-1c-0.2-0.4-0.1-0.4,0-0.5c0.1,0,0.2-0.1,0.2-0.1
		c0.4,0.4,1.2,1.1,2,1.6c0.1,0.1,0.2,0.1,0.3,0.2c0.1,0.1,0.1,0.2-0.1,0.4c0,0-0.7,0.6-0.9,0.8c-0.1,0-0.1,0.1-0.1,0.1
		c0,0,0.1,0,0.1,0C326.2,1040.9,327.2,1041.1,327.7,1041.7z"/>
	<path class="st0" d="M324.6,1047.7c0.7-0.7,1.7-0.9,2.9-0.6c1.2,0.3,2.4,1.5,2.4,1.5l0.7-0.7c0.7-0.7,0.7-1.5,0-2.1
		c-0.4-0.4-1.5-0.1-1.8,0.2c-0.1,0-0.2-0.1-0.3-0.2c-0.4-0.4-0.4-0.9,0-1.3c0.6-0.6,1.9,0,2.8,0.9c1.4,1.4,1.5,2.7,0.4,3.7l-2.5,2.4
		c-0.6,0.6-1.1,1.1-0.7,1.4c0.2,0.2,0.8,0.4,0.9,0.4c0,0.1,0,0.2-0.1,0.3c-0.1,0.1-0.3,0.1-0.5,0.1c-0.1,0-1.2-0.1-1.7-0.6
		c-0.4-0.4-0.4-1,0.2-1.7c0.1-0.1,0.1-0.1,0-0.1c0,0-0.1,0-0.1,0c-0.6,0.1-1.8,0.2-2.8-0.8C323.6,1049.5,323.8,1048.4,324.6,1047.7z
		 M326,1050.1c0.7,0.7,1.7,0.6,1.7,0.6l1.5-1.5c-0.1-0.1-0.3-0.3-0.5-0.5c-0.2-0.2-0.4-0.3-0.5-0.4c-0.6-0.3-1.6-0.3-2.2,0.2
		C325.5,1049.1,325.5,1049.6,326,1050.1z"/>
	<path class="st0" d="M331.5,1053.8l3.4-3.5l-1-1l0.6-0.6c0.2,0.2,1,1,1,1l1.2-1.2c0.5,0.4,1.2,0.5,1.3,0.7c0.1,0.1,0.1,0.2-0.1,0.4
		l-1.2,1.2c0.1,0.1,1.4,1.2,1.8,1.4c0,0.1-0.1,0.2-0.1,0.3c-0.4,0.4-0.8,0.3-1.3-0.1c-0.3-0.3-1-1-1-1l-2.8,2.9
		c-1.2,1.3-1.4,1.5-0.9,2c0.4,0.3,1.1,0.8,1.5,0.9c0,0.1,0,0.2-0.1,0.3c-0.1,0.1-0.3,0.1-0.5,0.1c-0.7,0-1.9-0.5-2.4-1
		C330,1055.9,330.2,1055.1,331.5,1053.8z"/>
	<path class="st0" d="M337.3,1057.4c-1.2,1.3-1.2,2.7-0.1,3.7c0.9,0.8,1.9,1.2,2.2,1.3c0,0.1,0,0.2-0.1,0.3
		c-0.1,0.1-0.3,0.2-0.5,0.2c-1,0-2-0.5-2.9-1.3c-1.6-1.4-1.4-3.6,0-5.2c1.6-1.8,4.5-2.2,6.1-0.7c1.3,1.2,1.1,2.9-0.8,4.9l-3.8-3.4
		L337.3,1057.4z M340.5,1058.9c0.4-0.4,1.5-1.9,0.3-2.9c-0.6-0.6-2.1,0-2.8,0.7L340.5,1058.9z"/>
	<path class="st0" d="M346.7,1060.8c-0.4-0.4-0.9-0.3-1.1,0c-1.1,1.2,1.1,4.4-0.2,5.9c-1,1.2-2.6,0.8-3.8-0.2
		c-1.2-1.1-1.7-2.3-1.1-2.9c0.3-0.4,0.9-0.5,1.3-0.1c0.1,0.1,0.2,0.2,0.2,0.2c-0.3,0.5-0.4,1.8,0.5,2.5c0.4,0.4,1,0.4,1.3,0
		c1.3-1.5-1-4.4,0.3-6c0.8-0.9,2.3-0.7,3.5,0.3c0.9,0.8,1.4,1.7,0.9,2.3c-0.3,0.4-0.7,0.3-1.1,0c-0.1-0.1-0.1-0.2-0.2-0.2
		C347.3,1062.4,347.4,1061.4,346.7,1060.8z"/>
	<path class="st0" d="M350.1,1070.2l3-3.8l-1.1-0.9l0.5-0.7c0.3,0.2,1.1,0.9,1.1,0.9l1-1.3c0.5,0.3,1.2,0.4,1.4,0.6
		c0.2,0.1,0.1,0.2-0.1,0.4l-1.1,1.4c0.1,0.1,1.5,1.1,1.9,1.2c0,0.1,0,0.2-0.1,0.3c-0.3,0.4-0.8,0.4-1.3,0c-0.3-0.2-1.1-0.9-1.1-0.9
		l-2.5,3.2c-1.1,1.4-1.3,1.7-0.7,2.1c0.4,0.3,1.2,0.6,1.5,0.7c0,0.1,0.1,0.2-0.1,0.3c-0.1,0.2-0.3,0.2-0.5,0.2
		c-0.7,0-1.9-0.3-2.5-0.8C348.8,1072.5,349,1071.6,350.1,1070.2z"/>
	<path class="st0" d="M362.7,1075.4l-2.9,4l0.8,1c0.1,0.2,0.1,0.3,0,0.5c-0.1,0.1-0.2,0.2-0.2,0.2s-1.2-1-1.8-1.4
		c-0.6-0.4-1.8-1.2-1.8-1.2s0-0.1,0.1-0.2c0.1-0.2,0.3-0.2,0.5-0.1l1.1,0.3l2.6-3.5c0.7-1,0.7-1.7-0.1-2.3c-0.3-0.2-0.7-0.3-1-0.3
		s-1.4,0.2-1.6,0.4l-2.7,3.6l0.6,0.9c0.1,0.2,0.1,0.3,0,0.5c-0.1,0.1-0.2,0.2-0.2,0.2s-1.1-0.9-1.7-1.4c-0.6-0.4-1.9-1.3-1.9-1.3
		s0-0.1,0.1-0.2c0.1-0.2,0.3-0.2,0.5-0.1l1.2,0.4l6.2-8.4c0,0-0.5-0.5-0.8-0.8c-0.3-0.3-0.2-0.4-0.1-0.5c0-0.1,0.1-0.1,0.2-0.1
		c0.4,0.3,1.4,0.9,2.3,1.2c0.1,0,0.2,0.1,0.3,0.1c0.1,0.1,0.1,0.2-0.1,0.4l-3.2,4.4c0,0.1-0.1,0.1,0,0.1c0,0,0.1,0,0.1,0
		c1.5-0.3,2.7-0.1,3.5,0.6C363.7,1073.2,363.6,1074.3,362.7,1075.4z"/>
	<path class="st0" d="M365,1079.5c-1,1.5-0.8,2.9,0.4,3.7c1,0.7,2,1,2.3,1c0,0.1,0.1,0.2,0,0.3c-0.1,0.1-0.3,0.2-0.5,0.2
		c-1,0.1-2.1-0.2-3.1-0.9c-1.8-1.2-1.9-3.4-0.7-5.1c1.4-2,4.2-2.8,6-1.5c1.5,1,1.4,2.7-0.1,5l-4.2-2.9L365,1079.5z M368.4,1080.5
		c0.3-0.4,1.2-2.1-0.1-3c-0.7-0.5-2.1,0.3-2.6,1.1L368.4,1080.5z"/>
	<path class="st0" d="M376.5,1090C376.4,1090,376.4,1090,376.5,1090c-0.7,0.2-1.7,0.5-2.7-0.1c-1.7-1-1.5-3.2-0.5-4.8
		c1.3-2.1,4-2.8,6-1.6c0.4,0.2,0.7,0.7,0.7,0.7c0,0,0,0,0,0c0.2-0.3,1.7-2.8,1.7-2.8s-0.6-0.5-0.9-0.8c-0.3-0.3-0.2-0.4-0.2-0.5
		c0-0.1,0.1-0.1,0.2-0.2c0.5,0.3,1.6,0.8,2.5,1.1c0.1,0,0.2,0,0.3,0.1c0.1,0.1,0.1,0.2,0,0.4l-5.1,8.3c-0.4,0.7-0.8,1.3-0.4,1.5
		c0.2,0.1,0.9,0.2,1,0.2c0,0.1,0.1,0.2,0,0.3c-0.1,0.1-0.3,0.2-0.4,0.2c-0.1,0-1.2,0.1-1.8-0.2c-0.5-0.3-0.8-0.9-0.4-1.7
		C376.5,1090.1,376.5,1090.1,376.5,1090z M379.3,1085.3c-0.3-0.5-0.8-1.1-1.3-1.4c-0.9-0.5-2.4,0.5-3.2,1.9
		c-0.8,1.3-0.7,2.8,0.4,3.5c0.5,0.3,1,0.4,1.5,0.3L379.3,1085.3z"/>
	<path class="st0" d="M384,1087.8c0,0-0.6-0.4-0.9-0.7c-0.3-0.3-0.2-0.4-0.2-0.5c0-0.1,0.1-0.1,0.2-0.2c0.5,0.3,1.6,0.8,2.5,1
		c0.1,0,0.2,0,0.3,0.1c0.1,0.1,0.1,0.2,0,0.4l-3.5,6l0.9,0.9c0.1,0.2,0.2,0.3,0.1,0.5c-0.1,0.1-0.1,0.2-0.1,0.2s-1.3-0.9-1.9-1.2
		c-0.7-0.4-2-1.1-2-1.1s0-0.1,0.1-0.2c0.1-0.2,0.3-0.2,0.4-0.2l1.2,0.3L384,1087.8z M386,1085.5c0.5,0.3,1.2,0.1,1.5-0.4
		c0.3-0.5,0.1-1.1-0.4-1.4c-0.4-0.3-1.1-0.1-1.4,0.4C385.4,1084.6,385.6,1085.3,386,1085.5z"/>
	<path class="st0" d="M399,1089.7c1.4,0.7,2.1,1.9,1.7,2.6c-0.3,0.5-0.8,0.6-1.3,0.3c0-0.5-0.4-1.8-1.4-2.4
		c-0.6-0.3-1.2,0.1-1.9,1.4l-0.7,1.3c1.9,1,3.7,1.9,4.7,2.1c0.1,0,0.2,0,0.3,0.1c0.1,0.1,0.1,0.2,0,0.4l-3.3,6.3l0.9,0.9
		c0.1,0.2,0.2,0.3,0.1,0.5c-0.1,0.1-0.1,0.2-0.1,0.2s-1.3-0.8-2-1.2s-2-0.9-2-0.9s0-0.1,0.1-0.2c0.1-0.2,0.3-0.2,0.4-0.2l1.1,0.2
		l2.9-5.5l-3.5-1.8l-2.9,5.5l0.9,0.9c0.1,0.1,0.2,0.3,0.1,0.5c-0.1,0.1-0.1,0.2-0.1,0.2s-1.4-0.8-2-1.2s-2.1-1-2.1-1s0-0.1,0.1-0.2
		c0.1-0.2,0.3-0.2,0.4-0.2l1.2,0.2l2.9-5.5l-3.3-1.7l-2.9,5.5l0.9,0.9c0.1,0.1,0.2,0.3,0.1,0.5c-0.1,0.1-0.1,0.2-0.1,0.2
		s-1.3-0.8-2-1.1s-2.1-1-2.1-1s0-0.1,0.1-0.2c0.1-0.2,0.3-0.2,0.4-0.2l1.2,0.2l2.9-5.5c0,0-1-0.5-1.3-0.6l0.4-0.8
		c0.3,0.2,1.2,0.7,1.2,0.7l0.2-0.3c1.1-2.2,3.2-2.4,4.7-1.7c1,0.5,1.7,1.3,2,1.9C397,1089.2,398.1,1089.2,399,1089.7z M394.6,1090.9
		c0.1-0.6-0.4-2-1.5-2.6c-0.7-0.4-1.3-0.1-2,1.3l-0.5,0.9l3.3,1.7L394.6,1090.9z"/>
	<path class="st0" d="M405.4,1098.7c-0.2-0.1-0.5-0.1-0.8,0c-0.8,0.3-1.5,0.9-2.1,2.2c-0.7,1.4-0.5,3,0.8,3.7c0.7,0.3,2,0.6,2.4,0.6
		c0,0.1,0.1,0.2,0,0.3c-0.1,0.2-0.2,0.2-0.4,0.3c-0.8,0.3-2.2,0.1-3.1-0.3c-1.9-0.9-2.3-3-1.4-4.9c1-2.2,3.8-3.2,5.9-2.2
		c1,0.5,1.8,1.2,1.5,1.9c-0.3,0.6-0.8,0.6-1.3,0.3C406.7,1099.9,406.3,1099.1,405.4,1098.7z"/>
	<path class="st0" d="M408.6,1104.9l1.6-3.7c0,0-0.7-0.4-1-0.6c-0.3-0.2-0.3-0.4-0.2-0.4c0-0.1,0.1-0.2,0.1-0.2
		c0.5,0.2,1.7,0.6,2.6,0.7c0.1,0,0.3,0,0.3,0c0.1,0,0.2,0.2,0,0.4l-1.8,4.3c-0.6,1.3-0.7,2,0.2,2.4c0.3,0.1,0.7,0.1,1.1,0
		c0.3-0.1,1.4-0.5,1.5-0.8l1.7-3.9c0,0-0.6-0.4-1-0.6c-0.3-0.2-0.3-0.4-0.2-0.4c0-0.1,0.1-0.2,0.1-0.2c0.5,0.2,1.7,0.6,2.6,0.7
		c0.1,0,0.2,0,0.3,0c0.1,0,0.2,0.2,0,0.4l-2.1,5c-0.3,0.7-0.6,1.3-0.2,1.5c0.2,0.1,0.8,0.1,0.9,0.1c0.1,0.1,0.1,0.2,0,0.3
		c-0.1,0.1-0.2,0.2-0.4,0.3c-0.1,0-1.2,0.3-1.8,0c-0.7-0.3-0.8-1.1-0.4-2c0-0.1,0-0.1,0-0.1c0,0-0.1,0-0.1,0c-0.6,0.3-2.1,1-3.4,0.4
		C407.7,1107.9,407.8,1106.8,408.6,1104.9z"/>
	<path class="st0" d="M421.2,1101.2c0,0-0.7-0.4-1-0.6c-0.3-0.2-0.3-0.3-0.3-0.4c0-0.1,0.1-0.2,0.1-0.2c0.5,0.2,1.7,0.5,2.6,0.6
		c0.1,0,0.3,0,0.3,0c0.1,0,0.2,0.2,0.1,0.4l-4.2,10.4l1,0.8c0.2,0.1,0.2,0.3,0.1,0.4c0,0.1-0.1,0.2-0.1,0.2s-1.4-0.7-2.1-0.9
		c-0.7-0.3-2.2-0.8-2.2-0.8s0-0.1,0-0.2c0.1-0.2,0.2-0.2,0.4-0.2l1.3,0.1L421.2,1101.2z"/>
	<path class="st0" d="M422.6,1111.3l1.7-4.5l-1.3-0.5l0.3-0.8c0.3,0.1,1.3,0.5,1.3,0.5l0.6-1.6c0.6,0.1,1.3,0,1.5,0.1
		c0.2,0.1,0.2,0.2,0.1,0.4l-0.6,1.6c0.1,0.1,1.7,0.6,2.2,0.6c0,0.1,0,0.2,0,0.3c-0.2,0.5-0.6,0.6-1.2,0.4c-0.4-0.1-1.3-0.5-1.3-0.5
		l-1.4,3.8c-0.6,1.6-0.7,2,0,2.2c0.5,0.2,1.3,0.3,1.7,0.2c0,0.1,0.1,0.2,0,0.3c-0.1,0.2-0.2,0.2-0.4,0.3c-0.6,0.2-1.9,0.3-2.6,0
		C422.1,1113.9,422,1113,422.6,1111.3z"/>
	<path class="st0" d="M430,1109.2c0,0-0.7-0.3-1-0.6c-0.3-0.2-0.3-0.3-0.3-0.4c0-0.1,0.1-0.2,0.1-0.2c0.5,0.2,1.7,0.5,2.7,0.5
		c0.1,0,0.2,0,0.3,0c0.1,0,0.2,0.2,0.1,0.4l-2.3,6.5l1,0.7c0.2,0.1,0.2,0.2,0.1,0.4c0,0.1-0.1,0.2-0.1,0.2s-1.4-0.6-2.1-0.9
		c-0.7-0.3-2.2-0.7-2.2-0.7s0-0.1,0-0.2c0.1-0.2,0.2-0.2,0.4-0.2l1.3,0.1L430,1109.2z M431.6,1106.6c0.6,0.2,1.2-0.1,1.4-0.6
		c0.2-0.5-0.1-1.1-0.7-1.3c-0.5-0.2-1.1,0.1-1.3,0.6C430.8,1105.8,431.1,1106.4,431.6,1106.6z"/>
	<path class="st0" d="M434.3,1114.1c-0.6,1.7,0,3,1.4,3.4c1.1,0.4,2.2,0.4,2.5,0.3c0.1,0.1,0.1,0.2,0.1,0.3c0,0.1-0.2,0.3-0.4,0.3
		c-0.9,0.4-2,0.4-3.2,0c-2-0.7-2.8-2.7-2.1-4.7c0.8-2.3,3.3-3.8,5.3-3.1c1.7,0.6,2.1,2.2,1.3,4.8l-4.8-1.6L434.3,1114.1z
		 M437.8,1114.1c0.2-0.5,0.6-2.4-0.9-2.8c-0.8-0.3-1.9,0.9-2.2,1.8L437.8,1114.1z"/>
	<path class="st0" d="M444,1113.4c-0.5-0.2-0.9,0.1-1,0.5c-0.5,1.5,2.8,3.6,2.2,5.5c-0.5,1.5-2.1,1.8-3.5,1.3
		c-1.5-0.5-2.4-1.5-2.2-2.3c0.1-0.5,0.6-0.8,1.1-0.6c0.1,0,0.2,0.1,0.2,0.1c-0.1,0.6,0.4,1.8,1.5,2.1c0.5,0.2,1,0,1.2-0.5
		c0.6-1.9-2.7-3.7-2.1-5.6c0.4-1.2,1.8-1.6,3.3-1.1c1.2,0.4,2,1,1.7,1.8c-0.1,0.4-0.5,0.6-1,0.4c-0.1,0-0.2-0.1-0.2-0.1
		C445.2,1114.6,444.9,1113.6,444,1113.4z"/>
	<path class="st0" d="M450.5,1120.5l1.3-4.7l-1.3-0.4l0.2-0.9c0.3,0.1,1.3,0.4,1.3,0.4l0.4-1.6c0.6,0.1,1.3-0.1,1.5,0
		c0.2,0.1,0.2,0.1,0.1,0.4l-0.5,1.7c0.1,0,1.8,0.4,2.3,0.4c0,0.1,0,0.2,0,0.3c-0.1,0.5-0.5,0.7-1.2,0.5c-0.4-0.1-1.3-0.4-1.3-0.4
		l-1.1,3.9c-0.5,1.7-0.5,2,0.2,2.2c0.5,0.1,1.3,0.1,1.7,0.1c0,0,0.1,0.1,0.1,0.3c-0.1,0.2-0.2,0.3-0.4,0.3c-0.6,0.3-1.9,0.4-2.6,0.3
		C450.2,1123.1,450,1122.3,450.5,1120.5z"/>
	<path class="st0" d="M463.9,1120.5l-1.2,4.8l1.1,0.6c0.2,0.1,0.2,0.2,0.2,0.4c0,0.1-0.1,0.2-0.1,0.2s-1.5-0.5-2.2-0.6
		c-0.7-0.2-2.1-0.4-2.1-0.4s0-0.1,0-0.2c0-0.2,0.2-0.3,0.4-0.3l1.1-0.1l1-4.2c0.3-1.2,0-1.9-1-2.1c-0.4-0.1-0.7-0.1-1.1,0.1
		s-1.2,0.7-1.3,1l-1.1,4.4l0.9,0.6c0.2,0.1,0.2,0.2,0.2,0.4c0,0.1-0.1,0.2-0.1,0.2s-1.3-0.4-2.1-0.6c-0.7-0.2-2.3-0.5-2.3-0.5
		s0-0.1,0-0.2c0-0.2,0.2-0.3,0.4-0.3l1.3-0.1l2.5-10.1c0,0-0.7-0.3-1.1-0.5c-0.4-0.2-0.3-0.3-0.3-0.4c0-0.1,0.1-0.2,0.1-0.2
		c0.5,0.1,1.6,0.3,2.6,0.2c0.1,0,0.2,0,0.3,0c0.1,0,0.2,0.1,0.1,0.4l-1.3,5.3c0,0.1,0,0.1,0,0.1c0,0,0.1,0,0.1,0
		c1.2-0.8,2.4-1.1,3.4-0.8C463.9,1118,464.2,1119.1,463.9,1120.5z"/>
	<path class="st0" d="M465.1,1124.9c0.2-1,0.9-1.6,2.1-2c1.2-0.4,2.8-0.1,2.8-0.1l0.2-1c0.2-1-0.2-1.6-1.1-1.8
		c-0.6-0.1-1.3,0.7-1.4,1.1c-0.1,0-0.2,0-0.4,0c-0.5-0.1-0.8-0.5-0.7-1.1c0.2-0.8,1.5-1,2.9-0.7c1.9,0.4,2.7,1.5,2.4,2.9l-0.7,3.4
		c-0.2,0.8-0.3,1.5,0.1,1.6c0.3,0.1,0.9-0.1,1-0.2c0.1,0.1,0.1,0.2,0.1,0.3c0,0.2-0.2,0.3-0.3,0.3c-0.1,0-1.1,0.5-1.7,0.4
		c-0.5-0.1-0.9-0.6-0.8-1.5c0-0.1,0-0.1,0-0.1c0,0-0.1,0-0.1,0c-0.5,0.4-1.4,1.1-2.7,0.9C465.2,1126.9,464.8,1125.9,465.1,1124.9z
		 M467.6,1126.2c0.9,0.2,1.7-0.4,1.8-0.4l0.5-2.1c-0.2-0.1-0.4-0.1-0.7-0.2c-0.2-0.1-0.5-0.1-0.7-0.1c-0.7,0-1.5,0.6-1.7,1.4
		C466.6,1125.5,466.9,1126,467.6,1126.2z"/>
	<path class="st0" d="M473.9,1126.2l1-4.8l-1.4-0.3l0.2-0.9c0.3,0.1,1.4,0.3,1.4,0.3l0.3-1.7c0.6,0,1.3-0.2,1.5-0.1
		c0.2,0,0.2,0.1,0.1,0.4l-0.3,1.7c0.1,0,1.8,0.3,2.3,0.2c0,0.1,0.1,0.2,0,0.3c-0.1,0.5-0.5,0.7-1.1,0.6c-0.4-0.1-1.3-0.3-1.3-0.3
		l-0.8,4c-0.3,1.7-0.4,2.1,0.3,2.2c0.5,0.1,1.3,0,1.7,0c0,0,0.1,0.1,0.1,0.3c0,0.2-0.2,0.3-0.3,0.4c-0.6,0.3-1.9,0.6-2.6,0.4
		C473.8,1128.8,473.6,1128,473.9,1126.2z"/>
	<path class="st0" d="M490.6,1125.1C490.6,1125.1,490.7,1125,490.6,1125.1c1.1-1,2.6-1.4,3.5-1.2c1.5,0.2,2,1.3,1.8,2.6l-0.8,4.9
		l1.1,0.5c0.2,0.1,0.3,0.2,0.2,0.4c0,0.1-0.1,0.2-0.1,0.2s-1.5-0.3-2.3-0.5c-0.7-0.1-2.1-0.2-2.1-0.2s0-0.1,0-0.2
		c0-0.2,0.2-0.3,0.4-0.3l1.1-0.2l0.7-4.3c0.2-1.2-0.2-1.9-1.2-2c-0.4-0.1-0.8,0-1.1,0.2c-0.3,0.2-1.2,0.8-1.2,1.1l-0.7,4.5l1,0.5
		c0.2,0.1,0.3,0.2,0.2,0.4c0,0.1-0.1,0.2-0.1,0.2s-1.4-0.3-2.1-0.4c-0.7-0.1-2.1-0.2-2.1-0.2s0-0.1,0-0.2c0-0.2,0.2-0.3,0.4-0.3
		l1.1-0.2l0.7-4.3c0.2-1.2-0.2-1.9-1.2-2c-0.4-0.1-0.8,0-1.1,0.2c-0.3,0.2-1.2,0.8-1.2,1.1l-0.7,4.5l1,0.5c0.2,0.1,0.3,0.2,0.2,0.4
		c0,0.1-0.1,0.2-0.1,0.2s-1.4-0.3-2.1-0.4c-0.7-0.1-2.3-0.3-2.3-0.3s0-0.1,0-0.2c0-0.2,0.2-0.3,0.4-0.3l1.3-0.2l1-6
		c0,0-0.7-0.2-1.1-0.4c-0.4-0.2-0.4-0.3-0.3-0.4c0-0.1,0.1-0.2,0.1-0.2c0.6,0.1,1.6,0.1,2.6,0c0.1,0,0.2-0.1,0.3,0
		c0.1,0,0.2,0.1,0.2,0.4c0,0-0.2,0.9-0.2,1.2c0,0.1,0,0.1,0,0.1c0,0,0.1,0,0.1,0c1.1-1,2.6-1.3,3.4-1.2c1.1,0.2,1.6,0.8,1.6,1.9
		C490.6,1125,490.6,1125.1,490.6,1125.1z"/>
	<path class="st0" d="M498.7,1129.8l0.5-4c0,0-0.7-0.2-1.2-0.3c-0.4-0.1-0.4-0.3-0.4-0.4c0-0.1,0.1-0.2,0.1-0.2
		c0.6,0.1,1.8,0.1,2.7-0.1c0.1,0,0.2-0.1,0.3-0.1c0.1,0,0.2,0.1,0.2,0.4l-0.6,4.6c-0.2,1.4-0.1,2.1,0.9,2.3c0.4,0,0.7-0.1,1.1-0.3
		c0.3-0.2,1.2-0.9,1.2-1.2l0.5-4.2c0,0-0.7-0.2-1.1-0.3c-0.4-0.1-0.4-0.3-0.4-0.4c0-0.1,0.1-0.2,0.1-0.2c0.6,0.1,1.7,0.1,2.7-0.1
		c0.1,0,0.2-0.1,0.3-0.1c0.1,0,0.2,0.1,0.2,0.4l-0.7,5.4c-0.1,0.8-0.2,1.4,0.3,1.5c0.3,0,0.8-0.1,0.9-0.2c0.1,0,0.1,0.2,0.1,0.3
		c0,0.2-0.1,0.3-0.3,0.4c-0.1,0-1.1,0.6-1.7,0.5c-0.8-0.1-1.1-0.9-1-1.8c0-0.1,0-0.1,0-0.1c0,0-0.1,0-0.1,0
		c-0.5,0.4-1.8,1.5-3.1,1.4C498.6,1132.9,498.5,1131.8,498.7,1129.8z"/>
	<path class="st0" d="M510.9,1126.7c-0.5-0.1-0.9,0.3-0.9,0.6c-0.2,1.6,3.4,3,3.2,5c-0.2,1.5-1.7,2.1-3.2,2c-1.6-0.2-2.7-1-2.6-1.8
		c0-0.5,0.5-0.9,1-0.8c0.1,0,0.2,0,0.2,0c0,0.6,0.7,1.6,1.8,1.8c0.6,0.1,1-0.2,1.1-0.7c0.2-2-3.3-3.1-3.1-5.1c0.1-1.2,1.5-1.9,3-1.7
		c1.2,0.1,2.1,0.6,2,1.4c0,0.5-0.4,0.7-0.9,0.6c-0.1,0-0.2-0.1-0.2-0.1C512.3,1127.7,511.8,1126.8,510.9,1126.7z"/>
	<path class="st0" d="M515.3,1132.2l0.4-4.8l-1.4-0.1l0.1-0.9c0.3,0,1.4,0.2,1.4,0.2l0.1-1.7c0.6,0,1.3-0.3,1.5-0.3
		c0.2,0,0.2,0.1,0.2,0.4l-0.1,1.7c0.1,0,1.8,0.1,2.3-0.1c0,0.1,0.1,0.2,0.1,0.3c0,0.5-0.4,0.8-1.1,0.7c-0.4,0-1.4-0.1-1.4-0.1
		l-0.3,4.1c-0.2,1.8-0.1,2.1,0.6,2.1c0.5,0,1.3-0.1,1.7-0.2c0.1,0,0.2,0.1,0.1,0.3c0,0.2-0.1,0.3-0.3,0.4c-0.5,0.4-1.8,0.8-2.5,0.7
		C515.5,1134.8,515.2,1134,515.3,1132.2z"/>
	<path class="st0" d="M526.4,1128.4c0,0.1,0,0.1,0,0.1c0,0,0.1,0,0.1,0c0.4-0.5,1.1-1.2,2.2-1.1c2.1,0.1,3,2.2,2.9,4
		c-0.1,2.2-2,4.4-4.7,4.3c-0.8,0-1.8-0.4-2.5-0.8l0.6-10.9c0,0-0.7-0.1-1.2-0.2c-0.4-0.1-0.4-0.2-0.4-0.3c0-0.1,0-0.2,0.1-0.2
		c0.6,0,1.8,0,2.7-0.2c0.1,0,0.2-0.1,0.3-0.1c0.1,0,0.2,0.1,0.2,0.4L526.4,1128.4z M526.1,1134.1c0.5,0.3,1.2,0.6,1.8,0.6
		c1,0.1,1.9-1.6,2-3.2c0.1-1.6-0.7-2.7-2-2.8c-0.5,0-1.1,0.2-1.5,0.4L526.1,1134.1z"/>
	<path class="st0" d="M534.4,1132.1c-0.1,1.8,0.9,2.9,2.3,2.9c1.2,0,2.2-0.3,2.5-0.4c0.1,0,0.2,0.1,0.2,0.3c0,0.1-0.1,0.3-0.3,0.4
		c-0.8,0.6-1.8,1-3.1,0.9c-2.1-0.1-3.4-1.8-3.3-4c0.1-2.4,2.1-4.5,4.3-4.5c1.8,0.1,2.7,1.5,2.6,4.3l-5.1-0.2L534.4,1132.1z
		 M537.8,1131.1c0-0.5-0.1-2.4-1.6-2.5c-0.8,0-1.6,1.4-1.6,2.4L537.8,1131.1z"/>
</g>
</svg>
