<?xml version="1.0" encoding="utf-8"?>
<!-- Generator: Adobe Illustrator 22.1.0, SVG Export Plug-In . SVG Version: 6.00 Build 0)  -->
<svg version="1.1" id="Layer_2" xmlns="http://www.w3.org/2000/svg" xmlns:xlink="http://www.w3.org/1999/xlink" x="0px" y="0px"
	 viewBox="0 0 1000 1353" style="enable-background:new 0 0 1000 1353;" xml:space="preserve">
<style type="text/css">
	.st0{fill:#4A2D37;}
</style>
<g>
	<path class="st0" d="M238.3,70.5c0,0-0.4-0.3-3.2-1.1c-0.3,0.4-0.7,0.8-1,1.1c-0.1,0.1-0.3,0.2-0.4,0.2c-0.1,0-0.2-0.1-0.2-0.1
		c0.3-0.8,0.7-1.7,1-2.4l9.9,2.9c-0.1,0.8-0.3,1.8-0.4,2.6c0,0-0.1,0-0.2,0c-0.2-0.1-0.2-0.2-0.3-0.4c-0.1-0.5-0.2-1-0.3-1.5
		c-2.8-0.8-3.3-0.8-3.3-0.8l-2.6,8.8l1.2,0.7c0.2,0.1,0.2,0.2,0.2,0.4c0,0.1-0.1,0.2-0.1,0.2s-1.5-0.5-2.3-0.8
		c-0.8-0.2-2.4-0.6-2.4-0.6s0-0.1,0-0.2c0.1-0.2,0.2-0.3,0.4-0.3l1.3,0L238.3,70.5z"/>
	<path class="st0" d="M251.5,78.8l-1.4,4.7l1.1,0.7c0.2,0.1,0.2,0.2,0.2,0.4c0,0.1-0.1,0.2-0.1,0.2s-1.5-0.5-2.2-0.7
		c-0.7-0.2-2.1-0.5-2.1-0.5s0-0.1,0-0.2c0.1-0.2,0.2-0.3,0.4-0.3l1.1,0l1.2-4.1c0.3-1.2,0.1-1.9-0.9-2.2c-0.4-0.1-0.7-0.1-1.1,0.1
		c-0.3,0.1-1.3,0.7-1.3,0.9l-1.3,4.3l0.9,0.6c0.2,0.1,0.2,0.2,0.2,0.4c0,0.1-0.1,0.2-0.1,0.2s-1.3-0.5-2-0.7
		c-0.7-0.2-2.2-0.6-2.2-0.6s0-0.1,0-0.2c0.1-0.2,0.2-0.3,0.4-0.3l1.3,0l3-10c0,0-0.7-0.3-1.1-0.5c-0.4-0.2-0.3-0.3-0.3-0.4
		c0-0.1,0.1-0.2,0.1-0.2c0.5,0.2,1.6,0.3,2.5,0.3c0.1,0,0.2,0,0.3,0c0.1,0,0.2,0.1,0.1,0.4l-1.6,5.2c0,0.1,0,0.1,0,0.1
		c0,0,0.1,0,0.1,0c1.3-0.7,2.5-1,3.5-0.7C251.6,76.4,251.9,77.5,251.5,78.8z"/>
	<path class="st0" d="M254.9,82c-0.5,1.7,0.1,3,1.4,3.4c1.1,0.3,2.2,0.3,2.5,0.2c0.1,0.1,0.1,0.2,0.1,0.3c0,0.1-0.2,0.3-0.4,0.3
		c-0.9,0.4-2,0.4-3.2,0.1c-2-0.6-2.8-2.7-2.2-4.7c0.7-2.3,3.2-3.9,5.3-3.2c1.7,0.5,2.2,2.2,1.4,4.8l-4.9-1.5L254.9,82z M258.4,81.9
		c0.2-0.5,0.5-2.4-0.9-2.8c-0.8-0.2-1.9,0.9-2.2,1.8L258.4,81.9z"/>
	<path class="st0" d="M270.7,85.4l-3-1l-1.3,4c1,0.4,2.3,0.9,4.5,1.6L272,89c0.1-0.1,0.3-0.2,0.5-0.1c0.1,0,0.2,0.1,0.2,0.1
		l-1.3,2.3c0,0-7.2-2.4-8.5-2.8c0,0,0-0.1,0-0.2c0.1-0.2,0.2-0.3,0.4-0.3l1.3,0l2.9-8.9l-1-0.7c-0.2-0.1-0.2-0.3-0.2-0.4
		c0-0.1,0.1-0.2,0.1-0.2l8.2,2.7l-0.4,2.6c0,0-0.1,0-0.2,0c-0.2-0.1-0.3-0.2-0.3-0.4c-0.1-0.4-0.3-1.6-0.3-1.6
		c-2.8-0.9-4.3-1.2-4.3-1.2l-1.2,3.7l3,1l0.7-0.9c0.1-0.2,0.3-0.2,0.5-0.1c0.1,0,0.2,0.1,0.2,0.1s-0.4,1-0.6,1.7s-0.5,1.7-0.5,1.7
		s-0.1,0-0.2,0c-0.2-0.1-0.3-0.2-0.3-0.4L270.7,85.4z"/>
	<path class="st0" d="M282.6,88.9l-1.6,4.7l1,0.7c0.2,0.1,0.2,0.2,0.2,0.4c0,0.1-0.1,0.2-0.1,0.2s-1.4-0.6-2.1-0.8
		c-0.7-0.2-2.1-0.6-2.1-0.6s0-0.1,0-0.2c0.1-0.2,0.2-0.2,0.4-0.2l1.1,0l1.4-4.1c0.4-1.1,0.2-1.9-0.8-2.2c-0.4-0.1-0.8-0.1-1.1,0
		c-0.3,0.1-1.3,0.6-1.4,0.9l-1.5,4.3l0.9,0.7c0.2,0.1,0.2,0.2,0.2,0.4c0,0.1-0.1,0.2-0.1,0.2s-1.3-0.5-2-0.8s-2.2-0.7-2.2-0.7
		s0-0.1,0-0.2c0.1-0.2,0.2-0.2,0.4-0.2l1.3,0.1l2-5.8c0,0-0.7-0.3-1-0.6c-0.3-0.2-0.3-0.3-0.3-0.4c0-0.1,0.1-0.2,0.1-0.2
		c0.5,0.2,1.6,0.4,2.5,0.5c0.1,0,0.3,0,0.3,0c0.1,0,0.2,0.2,0.1,0.4c0,0-0.3,0.9-0.4,1.2c0,0.1,0,0.1,0,0.1c0,0,0.1,0,0.1,0
		c1.2-0.8,2.8-0.9,3.6-0.5C282.8,86.5,283.1,87.6,282.6,88.9z"/>
	<path class="st0" d="M292.5,89.8c0.6,0.2,0.8,0.7,0.6,1.1c-0.1,0.4-0.6,0.5-0.6,0.5c-0.1-0.1-0.4-0.4-0.7-0.5
		c-0.3-0.1-0.5-0.1-0.8-0.1c0,0,0.1,0.8-0.1,1.5c-0.6,1.6-2.2,2.2-4.1,1.5c-0.2-0.1-0.5-0.2-0.7-0.4c-0.3,0.1-0.8,0.6-0.9,0.9
		c-0.1,0.4,0.4,0.7,1,0.9c2.7,1,4.1,2,3.5,3.6c-0.6,1.6-3,2.3-5.3,1.5c-2.1-0.8-3.1-1.7-2.7-2.9c0.3-0.8,1.4-1.3,2.3-1.7
		c-0.5-0.4-0.6-1.1-0.4-1.6c0.1-0.3,1.3-0.8,2-1.2c-0.6-0.7-0.8-1.5-0.5-2.4c0.6-1.8,2.3-2.5,4.3-1.8c0.8,0.3,1.3,0.8,1.5,1.3
		C291.5,89.8,291.9,89.6,292.5,89.8z M288.1,98.7c0.3-0.8-0.6-1.6-3.5-2.6c-0.3,0.1-1.1,0.7-1.3,1.2c-0.3,0.9,0.4,1.6,2.2,2.2
		C286.9,100,287.7,99.7,288.1,98.7z M289.3,91.8c0.4-1,0.1-2.2-1-2.5c-0.7-0.3-1.5,0.4-1.9,1.3c-0.4,1-0.1,2.1,1,2.5
		C288.2,93.4,289,92.7,289.3,91.8z"/>
	<path class="st0" d="M296.4,88.2c0,0-0.7-0.3-1-0.6c-0.3-0.2-0.3-0.3-0.3-0.4c0-0.1,0.1-0.2,0.1-0.2c0.5,0.2,1.7,0.5,2.6,0.6
		c0.1,0,0.3,0,0.3,0c0.1,0,0.2,0.2,0.1,0.4l-4,10.5l1,0.8c0.2,0.1,0.2,0.3,0.1,0.4c0,0.1-0.1,0.2-0.1,0.2s-1.4-0.6-2.1-0.9
		c-0.7-0.3-2.2-0.7-2.2-0.7s0-0.1,0-0.2c0.1-0.2,0.2-0.2,0.4-0.2l1.3,0.1L296.4,88.2z"/>
	<path class="st0" d="M300,94.2c0,0-0.7-0.4-1-0.6c-0.3-0.2-0.3-0.3-0.3-0.4c0-0.1,0.1-0.2,0.1-0.2c0.5,0.2,1.7,0.5,2.6,0.6
		c0.1,0,0.3,0,0.3,0c0.1,0,0.2,0.2,0.1,0.4l-2.5,6.4l1,0.8c0.2,0.1,0.2,0.3,0.1,0.4c0,0.1-0.1,0.2-0.1,0.2s-1.4-0.6-2.1-0.9
		c-0.7-0.3-2.2-0.8-2.2-0.8s0-0.1,0-0.2c0.1-0.2,0.2-0.2,0.4-0.2l1.3,0.1L300,94.2z M301.6,91.6c0.6,0.2,1.2-0.1,1.4-0.6
		c0.2-0.5-0.1-1.1-0.6-1.3c-0.5-0.2-1.1,0.1-1.3,0.6C300.9,90.8,301.1,91.5,301.6,91.6z"/>
	<path class="st0" d="M306.7,96.3c-0.5-0.2-0.9,0-1.1,0.4c-0.6,1.5,2.5,3.8,1.7,5.7c-0.6,1.4-2.2,1.6-3.6,1c-1.5-0.6-2.3-1.7-2-2.4
		c0.2-0.5,0.7-0.7,1.2-0.5c0.1,0,0.2,0.1,0.2,0.1c-0.1,0.6,0.2,1.8,1.3,2.2c0.5,0.2,1,0.1,1.2-0.4c0.7-1.8-2.4-3.9-1.6-5.8
		c0.5-1.2,1.9-1.4,3.4-0.8c1.1,0.4,1.9,1.2,1.6,1.9c-0.2,0.4-0.6,0.5-1,0.4c-0.1,0-0.2-0.1-0.2-0.1
		C307.7,97.7,307.5,96.7,306.7,96.3z"/>
	<path class="st0" d="M317.5,102.5l-1.9,4.6l1,0.8c0.2,0.1,0.2,0.3,0.1,0.4c0,0.1-0.1,0.2-0.1,0.2s-1.4-0.7-2.1-1
		c-0.7-0.3-2-0.7-2-0.7s0-0.1,0-0.2c0.1-0.2,0.2-0.2,0.4-0.2l1.1,0.1l1.7-4c0.5-1.1,0.3-1.9-0.6-2.2c-0.4-0.2-0.7-0.2-1.1-0.1
		s-1.3,0.5-1.4,0.8l-1.7,4.2l0.8,0.7c0.2,0.1,0.2,0.3,0.1,0.4c0,0.1-0.1,0.2-0.1,0.2s-1.3-0.6-2-0.9c-0.7-0.3-2.2-0.8-2.2-0.8
		s0-0.1,0-0.2c0.1-0.2,0.2-0.2,0.4-0.2l1.3,0.1l4-9.6c0,0-0.6-0.4-1-0.6c-0.3-0.2-0.3-0.4-0.2-0.4c0-0.1,0.1-0.2,0.1-0.2
		c0.5,0.2,1.6,0.5,2.5,0.6c0.1,0,0.3,0,0.3,0c0.1,0,0.2,0.2,0.1,0.4l-2.1,5c0,0.1,0,0.1,0,0.1c0,0,0.1,0,0.1,0
		c1.3-0.6,2.6-0.7,3.5-0.3C317.9,100.1,318,101.2,317.5,102.5z"/>
	<path class="st0" d="M328.4,104.8c1.8,0.8,1.9,3,1.2,4.7c-0.9,2.1-3.6,3.3-5.6,2.5c-0.5-0.2-0.9-0.7-1-0.7c0,0,0,0,0,0
		c-0.1,0.3-1.2,2.7-1.2,2.7l1.2,1c0.1,0.1,0.2,0.3,0.1,0.5c-0.1,0.1-0.1,0.2-0.1,0.2s-1.5-0.8-2.3-1.1s-2.2-0.9-2.2-0.9s0-0.1,0-0.2
		c0.1-0.2,0.2-0.2,0.4-0.2l1.2,0.2l4.1-9.1c0,0-0.6-0.4-1-0.6c-0.3-0.2-0.3-0.4-0.2-0.4c0-0.1,0.1-0.1,0.1-0.2
		c0.5,0.2,1.6,0.6,2.6,0.7c0.1,0,0.2,0,0.3,0c0.1,0.1,0.2,0.2,0,0.4c0,0-0.3,0.7-0.4,0.7c0,0.1-0.1,0.1,0,0.1c0,0,0.1,0,0.1,0
		C326.4,104.8,327.4,104.3,328.4,104.8z M323.5,110.1c0.4,0.5,0.8,0.9,1.4,1.2c0.7,0.3,2.1-0.5,3-2.3c0.6-1.4,0.4-2.8-0.8-3.4
		c-0.6-0.3-1.5-0.1-1.5-0.1L323.5,110.1z"/>
	<path class="st0" d="M337.6,113.2c-1.2,2.6-3.8,3.3-5.6,2.5c-2-0.9-2.4-3.2-1.5-5c1.1-2.3,3.6-3.3,5.7-2.4
		C337.8,109,338.7,110.9,337.6,113.2z M335.8,112.9c0.8-1.7,0.7-3.4-0.6-4.1c-1.2-0.5-2.4,1.2-2.9,2.1c-1.1,2.3-0.4,3.7,0.7,4.2
		C334,115.5,335.1,114.4,335.8,112.9z"/>
	<path class="st0" d="M340.1,115.1c-0.8,1.6-0.4,3,0.9,3.6c1.1,0.5,2.2,0.7,2.5,0.6c0,0.1,0.1,0.2,0,0.3c-0.1,0.1-0.2,0.2-0.4,0.3
		c-0.9,0.2-2.1,0.1-3.2-0.4c-1.9-0.9-2.4-3.1-1.5-5c1.1-2.2,3.7-3.3,5.7-2.4c1.6,0.8,1.8,2.5,0.6,5l-4.6-2.2L340.1,115.1z
		 M343.6,115.6c0.2-0.5,0.9-2.3-0.5-2.9c-0.7-0.4-2,0.6-2.4,1.5L343.6,115.6z"/>
	<path class="st0" d="M346,119.6l2.2-4.3l-1.2-0.6l0.4-0.8c0.3,0.2,1.2,0.7,1.2,0.7l0.8-1.5c0.6,0.2,1.3,0.2,1.5,0.3
		c0.2,0.1,0.2,0.2,0,0.4l-0.8,1.5c0.1,0.1,1.7,0.7,2.1,0.8c0,0.1,0,0.2,0,0.3c-0.2,0.5-0.7,0.6-1.3,0.3c-0.3-0.2-1.2-0.6-1.2-0.6
		l-1.8,3.6c-0.8,1.6-0.9,1.9-0.3,2.2c0.4,0.2,1.3,0.4,1.6,0.4c0,0.1,0.1,0.2,0,0.3c-0.1,0.2-0.2,0.2-0.4,0.3c-0.6,0.2-2,0.1-2.6-0.3
		C345.2,122,345.2,121.2,346,119.6z"/>
	<path class="st0" d="M364.9,121.1c-0.2-0.4-1.2-1.3-2.5-2.1c-1.6-0.9-4.2,0.1-5.6,2.6c-1.6,3-0.6,5.1,1.3,6.1
		c1.1,0.6,2,0.7,2.5,0.7l1.6-3c-0.4-0.2-1.9-1-1.9-1l0.4-0.8c0,0,1.1,0.7,2,1.2c1.1,0.6,2.2,1.1,2.5,1.1c0,0.1,0,0.3-0.1,0.4
		c-0.3,0.5-0.7,0.4-1.1,0.1l-0.3-0.2l-1.9,3.5c-1.4-0.1-2.9-0.6-4.5-1.5c-1.6-0.9-4.6-3.1-2.3-7.3c1.1-2,4.3-4.7,8.4-2.5
		c1.5,0.8,2.9,2,2.9,2l-1,2.4c0,0-0.1,0-0.2-0.1c-0.2-0.1-0.2-0.2-0.2-0.4L364.9,121.1z"/>
	<path class="st0" d="M366.8,129c-0.9,1.5-0.6,2.9,0.7,3.6c1,0.6,2.1,0.8,2.4,0.8c0,0.1,0.1,0.2,0,0.3c-0.1,0.1-0.2,0.2-0.4,0.3
		c-1,0.2-2.1,0-3.1-0.6c-1.9-1.1-2.2-3.2-1.1-5.1c1.2-2.1,3.9-3.1,5.8-2c1.6,0.9,1.7,2.6,0.3,5l-4.4-2.5L366.8,129z M370.2,129.8
		c0.3-0.5,1-2.2-0.3-3c-0.7-0.4-2.1,0.5-2.5,1.3L370.2,129.8z"/>
	<path class="st0" d="M379,135.5c-1.5,2.5-4.1,3-5.9,1.9c-1.9-1.1-2-3.4-1-5.2c1.3-2.2,3.9-3,5.9-1.8
		C379.6,131.4,380.4,133.3,379,135.5z M377.3,135c1-1.7,1-3.4-0.2-4.1c-1.1-0.7-2.5,0.9-3.1,1.8c-1.3,2.2-0.7,3.6,0.3,4.2
		C375.2,137.5,376.4,136.4,377.3,135z"/>
	<path class="st0" d="M392.7,134.4c1,0.6,1.6,1.5,1.2,2.1c-0.3,0.5-0.8,0.4-1.3,0.1c-0.1-0.4-0.3-1.3-1-1.8c-0.4-0.3-1,0.3-1.6,1.2
		l-0.9,1.5c0,0,1.6,0.9,2.1,1c0,0.1,0,0.2-0.1,0.3c-0.3,0.4-0.7,0.5-1.3,0.2c-0.3-0.2-1.2-0.8-1.2-0.8l-3.3,5.3l1,1.1
		c0.1,0.1,0.2,0.3,0.1,0.5c-0.1,0.1-0.1,0.2-0.1,0.2s-1.5-1-2.1-1.4c-0.6-0.4-1.9-1.1-1.9-1.1s0-0.1,0.1-0.2
		c0.1-0.2,0.3-0.2,0.5-0.1l1.1,0.3l3.3-5.3l-3.1-2l-3.3,5.3l0.8,0.9c0.1,0.1,0.2,0.3,0.1,0.5c-0.1,0.1-0.1,0.2-0.1,0.2
		s-1.2-0.9-1.9-1.3c-0.6-0.4-2-1.1-2-1.1s0-0.1,0.1-0.2c0.1-0.2,0.3-0.2,0.5-0.1l1.2,0.3l3.3-5.3c0,0-0.9-0.6-1.2-0.7l0.5-0.7
		c0.3,0.2,1.2,0.8,1.2,0.8l0.2-0.3c1.3-2.1,3.4-2.2,4.8-1.3c0.9,0.6,1.5,1.4,1.7,2C390.9,133.8,391.9,133.9,392.7,134.4z
		 M388.5,135.5c0.1-0.6-0.2-2.1-1.2-2.7c-0.7-0.4-1.3-0.2-2.1,1.1l-0.5,0.8l3.1,2L388.5,135.5z"/>
	<path class="st0" d="M396.6,142.2c0.7,0.5,1,1.2,0.6,1.8c-0.4,0.6-1,0.5-1.4,0.2c0-0.5,0-1.2-0.5-1.6c-0.5-0.3-1.9,0.4-2.2,0.9
		l-2.3,3.5l1.1,1.1c0.1,0.2,0.2,0.3,0,0.5c-0.1,0.1-0.1,0.2-0.1,0.2s-1.3-1-2.1-1.5c-0.7-0.5-2.1-1.3-2.1-1.3s0-0.1,0.1-0.2
		c0.1-0.2,0.3-0.2,0.5-0.1l1.2,0.4l3.4-5.1c0,0-0.6-0.5-0.9-0.8c-0.3-0.3-0.2-0.4-0.2-0.5c0-0.1,0.1-0.1,0.2-0.2
		c0.5,0.3,1.5,0.8,2.4,1.1c0.1,0,0.2,0.1,0.3,0.1c0.1,0.1,0.1,0.2,0,0.4c0,0-0.5,0.7-0.7,1c0,0.1-0.1,0.1,0,0.1c0,0,0.1,0,0.1,0
		C395,141.8,396,141.8,396.6,142.2z"/>
	<path class="st0" d="M397.5,148.1c-1,1.5-0.8,2.9,0.4,3.7c1,0.7,2,1,2.3,1c0,0.1,0.1,0.2,0,0.3c-0.1,0.1-0.3,0.2-0.5,0.2
		c-1,0.1-2.1-0.2-3.1-0.9c-1.8-1.2-1.9-3.4-0.7-5.1c1.4-2,4.2-2.7,6-1.5c1.5,1,1.4,2.7-0.1,5l-4.2-2.9L397.5,148.1z M400.8,149.1
		c0.3-0.4,1.2-2.1-0.1-3c-0.7-0.5-2.1,0.3-2.6,1.1L400.8,149.1z"/>
	<path class="st0" d="M410.9,153.3c-0.5,0.2-6.3,4.1-6.9,4.4c-1.9,1.1-3.6,2-5.1,1c-0.7-0.5-0.9-1.4-0.6-1.8s0.9-0.5,1.3-0.2
		c0,0.4,0.1,1.3,0.4,1.5c0.5,0.4,2.3-0.6,3.4-1.4c0.6-2.6,1.4-6.4,1.6-7.7l-0.5-0.7c-0.1-0.2-0.1-0.3,0-0.5c0.1-0.1,0.2-0.1,0.2-0.1
		s0.9,0.7,1.5,1.2c0.6,0.4,1.8,1.2,1.8,1.2s0,0.1-0.1,0.2c-0.1,0.1-0.3,0.2-0.4,0.1l-0.8-0.2c-0.5,1-1.2,3.7-1.6,5.7
		c1.9-1.2,4.2-2.9,4.7-3.4l-0.6-0.7c-0.1-0.1-0.1-0.3,0-0.5c0.1-0.1,0.2-0.1,0.2-0.1s0.9,0.8,1.5,1.2c0.6,0.4,1.3,0.9,1.3,0.9
		s0,0.1-0.1,0.2c-0.1,0.1-0.3,0.2-0.5,0.1L410.9,153.3z"/>
	<path class="st0" d="M419.8,166c0.2-0.1,0.4-0.1,0.5,0c0.1,0.1,0.1,0.2,0.1,0.2l-1.7,1.7c0,0-1.6-0.5-3.8-2.2c-1.4-1.1-4-3.7-1-7.5
		c1.4-1.8,5.1-3.9,8.7-1.1c1.3,1,2.5,2.4,2.5,2.4l-1.5,2.2c0,0-0.1,0-0.2-0.1c-0.1-0.1-0.2-0.2-0.1-0.5l0.4-1.2
		c-0.6-1.1-1.6-2-2.3-2.6c-0.3-0.2-0.6-0.4-0.8-0.4c-1.3-0.1-3.4,0.6-4.8,2.3c-2,2.5-1.2,5,0,6c1.2,0.9,2.3,1.4,2.8,1.4L419.8,166z"
		/>
	<path class="st0" d="M429.6,169.9l-3.2,3.8l0.7,1c0.1,0.2,0.1,0.3,0,0.5c-0.1,0.1-0.2,0.1-0.2,0.1s-1.1-1.1-1.7-1.5
		c-0.6-0.5-1.7-1.3-1.7-1.3s0-0.1,0.1-0.2c0.1-0.2,0.3-0.2,0.5-0.1l1,0.4l2.8-3.3c0.8-0.9,0.8-1.7,0-2.3c-0.3-0.3-0.6-0.4-1-0.4
		c-0.4,0-1.4,0.1-1.6,0.3l-2.9,3.5l0.6,1c0.1,0.2,0.1,0.3,0,0.5c-0.1,0.1-0.2,0.1-0.2,0.1s-1-1-1.6-1.4c-0.6-0.5-1.8-1.4-1.8-1.4
		s0-0.1,0.1-0.2c0.1-0.2,0.3-0.2,0.5-0.1l1.2,0.5l6.7-8c0,0-0.5-0.5-0.8-0.9c-0.2-0.3-0.2-0.4-0.1-0.5c0-0.1,0.1-0.1,0.2-0.1
		c0.4,0.4,1.3,1,2.2,1.3c0.1,0,0.2,0.1,0.3,0.1c0.1,0.1,0.1,0.2-0.1,0.4l-3.5,4.2c0,0.1-0.1,0.1,0,0.1c0,0,0.1,0,0.1,0
		c1.5-0.2,2.7,0.1,3.5,0.8C430.7,167.8,430.5,168.9,429.6,169.9z"/>
	<path class="st0" d="M428.8,174.5c0.7-0.8,1.6-1,2.8-0.8c1.2,0.2,2.5,1.3,2.5,1.3l0.7-0.8c0.7-0.8,0.6-1.5-0.1-2.1
		c-0.5-0.4-1.5,0-1.8,0.3c-0.1,0-0.2-0.1-0.3-0.2c-0.4-0.3-0.5-0.9-0.1-1.3c0.5-0.6,1.9-0.2,2.9,0.7c1.5,1.3,1.7,2.6,0.7,3.7
		l-2.3,2.6c-0.5,0.6-1,1.1-0.6,1.4c0.2,0.2,0.8,0.3,0.9,0.3c0,0.1,0,0.2-0.1,0.3c-0.1,0.1-0.3,0.2-0.5,0.1c-0.1,0-1.2-0.1-1.7-0.5
		c-0.4-0.4-0.5-1,0-1.7c0-0.1,0.1-0.1,0-0.1c0,0-0.1,0-0.1,0c-0.6,0.1-1.8,0.3-2.8-0.6C427.9,176.4,428.1,175.3,428.8,174.5z
		 M430.4,176.9c0.7,0.6,1.7,0.5,1.8,0.5l1.4-1.6c-0.1-0.1-0.3-0.3-0.5-0.5s-0.4-0.3-0.6-0.4c-0.6-0.3-1.6-0.2-2.1,0.4
		C429.8,175.8,429.8,176.4,430.4,176.9z"/>
	<path class="st0" d="M436.7,179.9l2.7-3c0,0-0.5-0.6-0.7-0.9c-0.2-0.3-0.1-0.4-0.1-0.5c0-0.1,0.1-0.1,0.2-0.1
		c0.4,0.4,1.4,1.1,2.2,1.5c0.1,0,0.2,0.1,0.3,0.1c0.1,0.1,0.1,0.2-0.1,0.4l-3.2,3.4c-1,1.1-1.4,1.7-0.6,2.4c0.3,0.3,0.6,0.4,1,0.4
		c0.3,0.1,1.5,0,1.7-0.3l2.9-3.1c0,0-0.5-0.6-0.7-0.9c-0.2-0.3-0.1-0.4-0.1-0.5c0-0.1,0.1-0.1,0.2-0.1c0.4,0.4,1.4,1.1,2.2,1.5
		c0.1,0,0.2,0.1,0.3,0.1c0.1,0.1,0.1,0.2-0.1,0.4l-3.7,4c-0.6,0.6-1,1.1-0.7,1.4c0.2,0.2,0.7,0.4,0.9,0.4c0,0.1,0,0.2-0.1,0.3
		c-0.1,0.1-0.3,0.2-0.5,0.1c-0.1,0-1.2-0.1-1.7-0.6c-0.6-0.5-0.4-1.3,0.2-2c0-0.1,0.1-0.1,0-0.1c0,0-0.1,0-0.1,0
		c-0.6,0.1-2.3,0.2-3.3-0.7C434.7,182.5,435.3,181.4,436.7,179.9z"/>
	<path class="st0" d="M448.8,185.5c-0.2-0.2-0.4-0.3-0.8-0.2c-0.9,0-1.7,0.4-2.7,1.4c-1.1,1.1-1.5,2.7-0.4,3.7
		c0.5,0.5,1.7,1.3,2.1,1.3c0,0.1,0,0.2-0.1,0.3c-0.1,0.1-0.3,0.1-0.5,0.1c-0.8,0-2.1-0.6-2.9-1.4c-1.5-1.4-1.2-3.6,0.3-5.1
		c1.7-1.7,4.7-1.8,6.3-0.2c0.8,0.8,1.3,1.7,0.8,2.3c-0.4,0.4-1,0.3-1.4-0.1C449.5,187,449.4,186.2,448.8,185.5z"/>
	<path class="st0" d="M450.6,192.3c-1.3,1.2-1.4,2.7-0.4,3.7c0.8,0.8,1.8,1.4,2.1,1.4c0,0.1,0,0.2-0.1,0.3c-0.1,0.1-0.3,0.1-0.5,0.1
		c-1-0.1-2-0.6-2.8-1.5c-1.5-1.5-1.2-3.7,0.3-5.2c1.7-1.7,4.6-1.9,6.2-0.3c1.3,1.3,0.9,3-1.1,4.9l-3.5-3.7L450.6,192.3z
		 M453.7,193.9c0.4-0.4,1.6-1.8,0.5-2.9c-0.6-0.6-2.1-0.1-2.8,0.6L453.7,193.9z"/>
	<path class="st0" d="M461.7,197.6c0.6,0.6,0.7,1.4,0.2,1.9c-0.5,0.5-1.1,0.3-1.4-0.1c0.2-0.5,0.3-1.2-0.1-1.6
		c-0.4-0.4-1.9-0.1-2.3,0.3l-3.1,2.9l0.8,1.4c0.1,0.2,0.1,0.3-0.1,0.5c-0.1,0.1-0.2,0.1-0.2,0.1s-1.1-1.3-1.6-1.9s-1.7-1.7-1.7-1.7
		s0-0.1,0.1-0.2c0.1-0.1,0.3-0.1,0.5,0l1.1,0.7l4.5-4.1c0,0-0.5-0.6-0.7-1c-0.2-0.4-0.1-0.4,0-0.5c0.1,0,0.2-0.1,0.2-0.1
		c0.4,0.4,1.2,1.1,2,1.6c0.1,0.1,0.2,0.1,0.3,0.2c0.1,0.1,0.1,0.2-0.1,0.4c0,0-0.7,0.6-0.9,0.8c-0.1,0-0.1,0.1-0.1,0.1
		c0,0,0.1,0,0.1,0C460.3,196.8,461.2,197,461.7,197.6z"/>
	<path class="st0" d="M471.9,210.4c-0.1-0.2-0.1-0.4,0.1-0.5c0.1-0.1,0.2-0.1,0.2-0.1s0.6,0.9,1.1,1.5c0.5,0.5,1.1,1.2,1.1,1.2
		s0,0.1-0.1,0.2c-0.1,0.1-0.3,0.1-0.5,0l-0.7-0.4c-1.1,0.2-4.4,1.6-7.3,2.6c-0.1,0-0.3-0.2-0.5-0.4c-0.2-0.2-0.4-0.5-0.3-0.6
		c1.1-2,2.5-4,3.3-5.4c-1.5,0.6-3.7,1.4-5.9,2.3c-0.1,0-0.4-0.3-0.5-0.5s-0.4-0.5-0.3-0.6c1.5-2.7,3.4-5.5,3.9-6.8l-0.3-0.8
		c-0.1-0.2,0-0.3,0.1-0.5c0.1-0.1,0.2-0.1,0.2-0.1s0.7,1,1.2,1.6c0.5,0.6,1.4,1.6,1.4,1.6s0,0.1-0.1,0.2c-0.1,0.1-0.3,0.1-0.5,0
		l-0.7-0.4c-0.6,0.7-2.2,2.9-3.3,4.9c2.1-0.8,5.5-2.2,6.3-2.6l0.7,0.8c0.2,0.3,0.2,0.5-0.1,0.8c-0.5,0.7-2.3,3.2-3.4,5.1
		c2.1-0.8,4.7-1.8,5.4-2.2L471.9,210.4z"/>
	<path class="st0" d="M478.1,217.2c0.5,0.7,0.5,1.5,0,1.9c-0.6,0.4-1.1,0.2-1.4-0.2c0.2-0.5,0.4-1.1,0-1.6c-0.3-0.4-1.9-0.2-2.3,0.1
		l-3.3,2.6l0.7,1.4c0.1,0.2,0,0.3-0.1,0.5c-0.1,0.1-0.2,0.1-0.2,0.1s-1-1.4-1.5-2s-1.6-1.9-1.6-1.9s0-0.1,0.1-0.2
		c0.2-0.1,0.3-0.1,0.5,0l1,0.7l4.8-3.7c0,0-0.4-0.7-0.6-1.1c-0.2-0.4-0.1-0.4,0-0.5c0.1,0,0.2-0.1,0.2-0.1c0.3,0.4,1.1,1.2,1.9,1.8
		c0.1,0.1,0.2,0.1,0.2,0.2c0.1,0.1,0.1,0.2-0.2,0.4c0,0-0.7,0.5-1,0.7c-0.1,0-0.1,0.1-0.1,0.1c0,0,0.1,0,0.1,0
		C476.7,216.3,477.7,216.6,478.1,217.2z"/>
	<path class="st0" d="M480.9,227.4c-2.3,1.7-4.9,1.1-6.1-0.5c-1.3-1.8-0.5-3.9,1.1-5.1c2-1.5,4.8-1.2,6.1,0.6
		C483.1,223.8,483,225.9,480.9,227.4z M479.5,226.2c1.6-1.1,2.3-2.7,1.4-3.9c-0.8-1-2.7-0.1-3.5,0.5c-2,1.5-2.1,3-1.4,4
		C476.6,227.7,478.1,227.2,479.5,226.2z"/>
	<path class="st0" d="M480.6,230.4l4-2.8l-0.8-1.1l0.7-0.5c0.2,0.3,0.8,1.2,0.8,1.2l1.4-1c0.4,0.5,1,0.8,1.2,1
		c0.1,0.2,0,0.2-0.2,0.4l-1.4,1c0.1,0.1,1.1,1.5,1.5,1.7c0,0.1-0.1,0.2-0.2,0.2c-0.4,0.3-0.9,0.2-1.2-0.4c-0.2-0.3-0.8-1.1-0.8-1.1
		l-3.4,2.3c-1.5,1-1.7,1.2-1.3,1.8c0.3,0.4,0.9,1,1.3,1.1c0,0.1,0,0.2-0.1,0.3c-0.2,0.1-0.3,0.1-0.5,0c-0.6-0.2-1.8-0.9-2.2-1.5
		C478.7,232.1,479.1,231.4,480.6,230.4z"/>
	<path class="st0" d="M485.5,235.1c-1.5,1-1.8,2.4-1,3.6c0.6,1,1.5,1.7,1.8,1.8c0,0.1,0,0.2-0.1,0.3c-0.1,0.1-0.3,0.1-0.5,0
		c-0.9-0.3-1.8-0.9-2.5-2c-1.2-1.8-0.5-3.8,1.3-5c2-1.3,4.9-1,6.1,0.9c1,1.5,0.3,3.1-2,4.6l-2.8-4.3L485.5,235.1z M488.2,237.3
		c0.5-0.3,1.9-1.5,1.1-2.8c-0.5-0.7-2.1-0.5-2.9,0L488.2,237.3z"/>
	<path class="st0" d="M489,244.3c0.9-0.5,1.8-0.4,2.9,0.1c1.1,0.6,1.9,2,1.9,2l0.9-0.5c0.9-0.5,1-1.3,0.5-2.1
		c-0.3-0.5-1.4-0.5-1.8-0.3c-0.1,0-0.2-0.2-0.3-0.3c-0.3-0.4-0.2-1,0.3-1.2c0.7-0.4,1.8,0.4,2.5,1.6c1,1.7,0.8,3-0.4,3.7l-3,1.8
		c-0.7,0.4-1.3,0.8-1,1.2c0.1,0.2,0.7,0.6,0.8,0.6c0,0.1,0,0.2-0.1,0.3c-0.1,0.1-0.3,0.1-0.5,0c-0.1,0-1.2-0.4-1.5-1
		c-0.3-0.5-0.2-1.1,0.6-1.6c0.1,0,0.1-0.1,0.1-0.1c0,0-0.1,0-0.1,0c-0.6-0.1-1.8-0.3-2.5-1.4C487.6,245.8,488.1,244.8,489,244.3z
		 M489.8,247c0.5,0.8,1.5,1,1.5,1l1.8-1.1c-0.1-0.2-0.2-0.4-0.3-0.6c-0.1-0.2-0.3-0.4-0.4-0.6c-0.5-0.5-1.5-0.7-2.2-0.3
		C489.6,245.9,489.5,246.4,489.8,247z"/>
	<path class="st0" d="M499,251c-0.1,0-0.1,0.1-0.1,0.1c0,0,0.1,0,0.1,0c0.6,0.1,1.6,0.3,2.1,1.3c1,1.9-0.2,3.7-1.8,4.6
		c-1.9,1.1-4.8,0.7-6.1-1.6c-0.4-0.7-0.6-1.7-0.7-2.5l9.5-5.3c0,0-0.3-0.7-0.4-1.1c-0.1-0.4,0-0.5,0.1-0.5c0.1,0,0.2-0.1,0.2-0.1
		c0.3,0.5,1,1.5,1.6,2.2c0.1,0.1,0.2,0.2,0.2,0.2c0.1,0.1,0,0.2-0.2,0.4L499,251z M494.1,253.9c0,0.6,0.2,1.3,0.4,1.8
		c0.5,0.9,2.3,0.7,3.7-0.1c1.4-0.8,2-2,1.3-3.2c-0.3-0.5-0.8-0.9-1.2-1L494.1,253.9z"/>
	<path class="st0" d="M503.4,264.9c-2.5,1.3-5,0.3-6-1.5c-1-2,0.1-3.9,1.9-4.9c2.3-1.2,4.9-0.4,5.9,1.6
		C506.1,261.7,505.6,263.7,503.4,264.9z M502.1,263.5c1.7-0.9,2.7-2.3,2-3.6c-0.6-1.1-2.7-0.6-3.6-0.1c-2.2,1.1-2.5,2.7-2,3.7
		C499,264.4,500.7,264.2,502.1,263.5z"/>
	<path class="st0" d="M503.2,267.7l3.7-1.7c0,0-0.2-0.7-0.3-1.2c-0.1-0.4,0-0.5,0.1-0.5c0.1,0,0.2,0,0.2,0c0.2,0.5,0.9,1.6,1.5,2.3
		c0.1,0.1,0.2,0.2,0.2,0.2c0.1,0.1,0,0.2-0.3,0.4l-4.2,2c-1.3,0.6-1.9,1-1.4,2c0.2,0.3,0.4,0.6,0.8,0.8c0.3,0.2,1.3,0.5,1.7,0.4
		l3.9-1.8c0,0-0.2-0.7-0.3-1.1c-0.1-0.4,0-0.5,0.1-0.5c0.1,0,0.2,0,0.2,0c0.2,0.5,0.9,1.5,1.5,2.2c0.1,0.1,0.2,0.2,0.2,0.2
		c0.1,0.1,0,0.2-0.3,0.4l-4.9,2.3c-0.7,0.3-1.3,0.6-1.1,1c0.1,0.2,0.5,0.6,0.7,0.7c0,0.1-0.1,0.2-0.2,0.3c-0.1,0.1-0.3,0-0.5-0.1
		c-0.1,0-1.1-0.6-1.3-1.2c-0.3-0.7,0.2-1.4,1-1.7c0.1,0,0.1-0.1,0.1-0.1c0,0-0.1,0-0.1,0c-0.6-0.2-2.2-0.7-2.8-1.9
		C500.5,269.3,501.4,268.6,503.2,267.7z"/>
	<path class="st0" d="M506.8,277l4.5-1.9l-0.5-1.3l0.8-0.3c0.1,0.3,0.5,1.3,0.5,1.3l1.6-0.7c0.3,0.5,0.9,1,1,1.2
		c0.1,0.2,0,0.2-0.3,0.3l-1.6,0.7c0.1,0.1,0.8,1.6,1.1,2c0,0.1-0.1,0.2-0.2,0.2c-0.5,0.2-0.9,0-1.1-0.6c-0.2-0.3-0.5-1.3-0.5-1.3
		l-3.8,1.6c-1.6,0.7-1.9,0.9-1.6,1.5c0.2,0.5,0.7,1.1,1,1.4c0,0.1,0,0.2-0.2,0.3c-0.2,0.1-0.3,0-0.5-0.1c-0.6-0.3-1.5-1.2-1.8-1.9
		C504.6,278.4,505.1,277.7,506.8,277z"/>
	<path class="st0" d="M510.4,285.7l4.5-1.8l-0.5-1.3l0.8-0.3c0.1,0.3,0.5,1.3,0.5,1.3l1.6-0.6c0.3,0.5,0.8,1,0.9,1.2
		c0.1,0.2,0,0.2-0.3,0.3l-1.6,0.6c0.1,0.1,0.8,1.7,1.1,2c0,0.1-0.1,0.1-0.2,0.2c-0.5,0.2-0.9,0-1.1-0.6c-0.1-0.4-0.5-1.3-0.5-1.3
		l-3.8,1.5c-1.6,0.6-1.9,0.8-1.7,1.5c0.2,0.5,0.7,1.1,1,1.4c0,0.1,0,0.2-0.2,0.3c-0.2,0.1-0.3,0-0.5-0.1c-0.6-0.3-1.5-1.3-1.8-1.9
		C508.1,286.9,508.7,286.3,510.4,285.7z"/>
	<path class="st0" d="M518.2,296.8l-4.7,1.7l0.1,1.3c0,0.2-0.1,0.3-0.2,0.4c-0.1,0-0.2,0-0.2,0s-0.4-1.5-0.7-2.2
		c-0.3-0.7-0.8-2-0.8-2s0.1-0.1,0.2-0.1c0.2-0.1,0.3,0,0.4,0.2l0.7,0.9l4.1-1.4c1.1-0.4,1.6-1,1.2-2c-0.1-0.4-0.4-0.7-0.7-0.8
		s-1.3-0.6-1.5-0.5l-4.3,1.5l0,1.1c0,0.2-0.1,0.3-0.2,0.4c-0.1,0-0.2,0-0.2,0s-0.4-1.4-0.6-2.1c-0.3-0.7-0.9-2.1-0.9-2.1
		s0.1-0.1,0.2-0.1c0.2-0.1,0.3,0,0.4,0.2l0.7,1l9.8-3.5c0,0-0.2-0.7-0.2-1.2c0-0.4,0.1-0.4,0.2-0.5c0.1,0,0.2,0,0.2,0
		c0.2,0.5,0.7,1.5,1.2,2.3c0.1,0.1,0.2,0.2,0.2,0.2c0,0.1,0,0.2-0.3,0.3l-5.2,1.8c-0.1,0-0.1,0-0.1,0.1c0,0,0.1,0,0.1,0
		c1.4,0.6,2.2,1.4,2.6,2.4C520.2,295.4,519.5,296.3,518.2,296.8z"/>
	<path class="st0" d="M520.4,300c0,0-0.1-0.7-0.2-1.2c0-0.4,0.1-0.4,0.2-0.5c0.1,0,0.2,0,0.2,0c0.2,0.5,0.7,1.7,1.2,2.4
		c0.1,0.1,0.2,0.2,0.2,0.2c0,0.1,0,0.2-0.3,0.3l-6.6,2.1l0,1.3c0,0.2-0.1,0.3-0.3,0.4c-0.1,0-0.2,0-0.2,0s-0.4-1.5-0.6-2.2
		c-0.2-0.7-0.8-2.2-0.8-2.2s0.1-0.1,0.2-0.1c0.2-0.1,0.3,0,0.4,0.2l0.7,1.1L520.4,300z M523.4,299.7c0.2,0.6,0.8,0.9,1.3,0.7
		c0.5-0.2,0.8-0.8,0.6-1.3c-0.2-0.5-0.8-0.8-1.3-0.7C523.6,298.5,523.3,299.2,523.4,299.7z"/>
	<path class="st0" d="M523,306.6c-0.2-0.5-0.6-0.7-1-0.6c-1.6,0.5-1.5,4.3-3.4,4.9c-1.5,0.4-2.6-0.7-3.1-2.2
		c-0.5-1.6-0.1-2.9,0.7-3.1c0.5-0.1,1,0.1,1.1,0.6c0,0.1,0,0.2,0,0.2c-0.5,0.2-1.3,1.3-0.9,2.4c0.2,0.6,0.6,0.8,1.1,0.7
		c1.9-0.6,1.6-4.3,3.5-4.8c1.2-0.4,2.3,0.6,2.7,2.1c0.3,1.2,0.2,2.2-0.5,2.4c-0.4,0.1-0.8-0.1-0.9-0.6c0-0.1,0-0.2,0-0.2
		C522.6,308.2,523.2,307.5,523,306.6z"/>
	<path class="st0" d="M526,322.2C526,322.2,526.1,322.2,526,322.2c1.4,0.6,2.2,1.9,2.4,2.8c0.3,1.5-0.4,2.3-1.8,2.6l-4.8,1.1
		l-0.1,1.3c0,0.2-0.1,0.3-0.3,0.4c-0.1,0-0.2,0-0.2,0s-0.3-1.5-0.4-2.3s-0.6-2.1-0.6-2.1s0.1-0.1,0.2-0.1c0.2,0,0.3,0.1,0.4,0.2
		l0.6,1l4.2-1c1.2-0.3,1.7-0.9,1.4-1.9c-0.1-0.4-0.3-0.7-0.6-1s-1.2-0.7-1.5-0.7l-4.4,1l-0.1,1.1c0,0.2-0.1,0.3-0.3,0.4
		c-0.1,0-0.2,0-0.2,0s-0.2-1.4-0.4-2.1c-0.2-0.7-0.6-2.1-0.6-2.1s0.1-0.1,0.2-0.1c0.2,0,0.3,0.1,0.4,0.2l0.6,1l4.2-1
		c1.2-0.3,1.7-0.9,1.4-1.9c-0.1-0.4-0.3-0.7-0.6-1s-1.2-0.8-1.5-0.7l-4.4,1l-0.1,1.1c0,0.2-0.1,0.3-0.3,0.4c-0.1,0-0.2,0-0.2,0
		s-0.2-1.4-0.4-2.1c-0.2-0.7-0.6-2.2-0.6-2.2s0.1-0.1,0.2-0.1c0.2,0,0.3,0.1,0.4,0.2l0.6,1.1l5.9-1.4c0,0-0.1-0.7-0.1-1.2
		c0-0.4,0.1-0.4,0.2-0.5c0.1,0,0.2,0,0.2,0c0.1,0.5,0.5,1.5,1,2.4c0.1,0.1,0.1,0.2,0.2,0.3c0,0.1,0,0.2-0.3,0.3c0,0-0.9,0.2-1.2,0.3
		c-0.1,0-0.1,0-0.1,0.1c0,0,0,0,0,0c1.3,0.6,2.2,1.9,2.4,2.7c0.2,1.1-0.1,1.8-1.1,2.2C526.1,322.1,526,322.1,526,322.2z"/>
	<path class="st0" d="M529.9,336.8c-0.5-0.2-7.4-1.4-8-1.6c-2.2-0.5-4-1-4.4-2.8c-0.2-0.9,0.3-1.6,0.8-1.7c0.6-0.1,1,0.3,1.1,0.8
		c-0.3,0.3-0.8,1-0.8,1.4c0.1,0.6,2.1,1.1,3.4,1.3c2.2-1.5,5.4-3.7,6.5-4.5l0.1-0.9c0-0.2,0.1-0.3,0.3-0.4c0.1,0,0.2,0,0.2,0
		s0.1,1.1,0.3,1.9c0.1,0.7,0.5,2.1,0.5,2.1s-0.1,0.1-0.2,0.1c-0.2,0-0.3-0.1-0.4-0.2l-0.4-0.7c-1,0.4-3.4,1.9-5.1,3
		c2.2,0.4,5.1,0.8,5.8,0.8l0.1-0.9c0-0.2,0.1-0.3,0.3-0.4c0.1,0,0.2,0,0.2,0s0.1,1.2,0.3,1.9c0.1,0.7,0.4,1.5,0.4,1.5
		s-0.1,0.1-0.2,0.1c-0.2,0-0.3-0.1-0.4-0.2L529.9,336.8z"/>
	<path class="st0" d="M525.5,340.4l4.8-0.8l-0.2-1.4l0.9-0.1c0,0.3,0.2,1.4,0.2,1.4l1.7-0.3c0.2,0.6,0.6,1.1,0.6,1.4
		c0,0.2-0.1,0.2-0.3,0.3l-1.7,0.3c0,0.1,0.4,1.8,0.6,2.2c0,0.1-0.2,0.1-0.3,0.1c-0.5,0.1-0.9-0.2-1-0.9c-0.1-0.4-0.2-1.4-0.2-1.4
		l-4,0.6c-1.7,0.3-2.1,0.4-1.9,1.1c0.1,0.5,0.4,1.3,0.6,1.6c0,0.1-0.1,0.2-0.3,0.2c-0.2,0-0.3-0.1-0.5-0.2c-0.5-0.4-1.2-1.6-1.3-2.3
		C523.1,341.1,523.7,340.6,525.5,340.4z"/>
	<path class="st0" d="M530.8,352.9l-4.9,0.6l-0.2,1.2c0,0.2-0.1,0.3-0.3,0.3c-0.1,0-0.2,0-0.2,0s-0.1-1.5-0.2-2.3s-0.4-2.1-0.4-2.1
		s0.1-0.1,0.2-0.1c0.2,0,0.3,0.1,0.4,0.3l0.5,1l4.3-0.6c1.2-0.2,1.7-0.7,1.6-1.7c-0.1-0.4-0.2-0.7-0.5-1c-0.3-0.3-1.1-0.9-1.4-0.9
		l-4.5,0.6l-0.2,1.1c0,0.2-0.1,0.3-0.3,0.3c-0.1,0-0.2,0-0.2,0s-0.1-1.4-0.2-2.2s-0.4-2.3-0.4-2.3s0.1-0.1,0.2-0.1
		c0.2,0,0.3,0.1,0.4,0.3l0.5,1.2l10.3-1.4c0,0,0-0.7,0-1.2c0-0.4,0.2-0.4,0.3-0.4c0.1,0,0.2,0,0.2,0c0.1,0.6,0.3,1.6,0.7,2.5
		c0,0.1,0.1,0.2,0.1,0.3c0,0.1-0.1,0.2-0.3,0.3l-5.4,0.7c-0.1,0-0.1,0-0.1,0.1c0,0,0,0,0,0c1.2,0.9,1.9,1.9,2,2.9
		C533.1,352,532.2,352.7,530.8,352.9z"/>
	<path class="st0" d="M532.7,359.9c0,0,0-0.7,0.1-1.2c0.1-0.4,0.2-0.4,0.3-0.4c0.1,0,0.2,0,0.2,0c0.1,0.6,0.3,1.8,0.6,2.6
		c0,0.1,0.1,0.2,0.1,0.3c0,0.1-0.1,0.2-0.4,0.2l-6.9,0.6l-0.2,1.2c-0.1,0.2-0.1,0.3-0.3,0.3c-0.1,0-0.2,0-0.2,0s-0.1-1.5-0.1-2.3
		c-0.1-0.8-0.3-2.3-0.3-2.3s0.1-0.1,0.2-0.1c0.2,0,0.3,0.1,0.4,0.3l0.5,1.2L532.7,359.9z M535.7,360.2c0.1,0.6,0.6,1,1.1,1
		c0.5,0,1-0.6,0.9-1.2c0-0.5-0.6-1-1.1-0.9C536.1,359.2,535.7,359.7,535.7,360.2z"/>
	<path class="st0" d="M532.5,372.4l-4.9,0.3l-0.3,1.2c-0.1,0.2-0.1,0.3-0.3,0.3c-0.1,0-0.2,0-0.2,0s0-1.6-0.1-2.3s-0.2-2.1-0.2-2.1
		s0.1-0.1,0.2-0.1c0.2,0,0.3,0.1,0.4,0.3l0.4,1l4.3-0.3c1.2-0.1,1.8-0.6,1.7-1.6c0-0.4-0.2-0.8-0.4-1.1s-1.1-1-1.3-0.9l-4.5,0.3
		l-0.3,1.1c-0.1,0.2-0.1,0.3-0.3,0.3c-0.1,0-0.2,0-0.2,0s0-1.4,0-2.2c0-0.8-0.2-2.3-0.2-2.3s0.1-0.1,0.2-0.1c0.2,0,0.3,0.1,0.4,0.3
		l0.4,1.2l6.1-0.4c0,0,0-0.7,0.1-1.2c0.1-0.4,0.2-0.4,0.3-0.4c0.1,0,0.2,0,0.2,0c0,0.6,0.2,1.6,0.6,2.5c0,0.1,0.1,0.2,0.1,0.3
		c0,0.1-0.1,0.2-0.4,0.2c0,0-0.9,0-1.2,0c-0.1,0-0.1,0-0.1,0.1c0,0,0,0.1,0,0.1c1.2,0.8,1.9,2.2,1.9,3.1
		C534.8,371.6,533.9,372.3,532.5,372.4z"/>
	<path class="st0" d="M537.9,388.5c0-2.9-0.2-3.3-0.2-3.3l-9.8-1.1l-0.3,1.4c-0.1,0.2-0.2,0.3-0.4,0.3c-0.1,0-0.2-0.1-0.2-0.1
		s0.1-1.6,0.1-2.5c0-1-0.1-2.5-0.1-2.5s0.1-0.1,0.2-0.1c0.2,0,0.4,0.1,0.4,0.3l0.4,1.4l9.8,1.1c0,0,0.2-0.4,0.1-3.3l-1.2-0.7
		c-0.2-0.1-0.3-0.2-0.3-0.5c0-0.1,0-0.2,0-0.2l2.5,0.6l0.2,10.1l-2.5,0.1c0,0,0-0.1,0-0.2c0-0.2,0.1-0.4,0.3-0.4L537.9,388.5z"/>
	<path class="st0" d="M531.1,391.7l0,0.1c2,1,4.2,2.5,4.2,3.8c0,0.9-0.9,1.2-1.8,1.2c-2,0-4.7-0.9-5.3-0.9c-0.2,0-0.2,0.1-0.2,0.2
		c0,0.3,0.3,1.1,0.4,1.2c0,0.1-0.1,0.1-0.3,0.1c-0.1,0-0.3-0.1-0.4-0.3c-0.1-0.1-0.9-1.3-0.9-2c0-0.3,0.2-0.8,0.7-0.7
		c0.8,0,4,0.9,5.6,0.9c0.5,0,0.9-0.1,0.9-0.3c0-0.7-4.5-3.6-7-3.7c0-0.6-0.1-1-0.1-1.2c0-0.2,0.1-0.2,0.2-0.2c1.1,0,9.5,1.5,11.8,2
		l0-1.2c0-0.4,0.2-0.4,0.4-0.4c0.1,0,0.2,0,0.2,0.1c0,0.5,0.2,1.6,0.5,2.5c0.1,0.2,0.1,0.3,0.1,0.4c0,0.1-0.1,0.2-0.2,0.2
		c0,0-0.2,0-0.2,0C539.1,393.4,531.9,391.9,531.1,391.7z"/>
	<path class="st0" d="M529.7,398.6c2.8,0.1,5.3,2.6,5.2,4.9c0,1.1-0.7,1.7-1.6,1.7c-2-0.1-3-2.3-3.6-5c-0.8,0-1.8,0.5-1.8,1.6
		c0,1,0.9,2.5,1.1,2.8c-0.1,0.2-0.2,0.2-0.4,0.2c-0.1,0-0.3-0.1-0.4-0.2c-0.8-0.8-1.7-2.3-1.7-3.5
		C526.6,399.6,527.9,398.5,529.7,398.6z M533.9,402.6c0-1-1.8-2.3-3.5-2.4c0,0.1,0.7,3.2,2.6,3.3
		C533.5,403.5,533.9,403.2,533.9,402.6z"/>
	<path class="st0" d="M527.9,417.4c0.2,0.1,0.3,0.3,0.3,0.5c0,0.1-0.1,0.2-0.1,0.2l-2.4-0.8l0.7-8.3c0,0,0.1,0,0.2,0
		c0.2,0,0.3,0.2,0.4,0.4l0.3,1.3l9.8,2.1l0.5-1.2c0.1-0.2,0.2-0.3,0.4-0.3c0.1,0,0.2,0.1,0.2,0.1s-0.2,1.5-0.3,2.3
		c-0.1,0.8-0.1,2.3-0.1,2.3s-0.1,0-0.2,0c-0.2,0-0.3-0.2-0.4-0.3l-0.3-1.2l-9.7-2.1c0,0-0.3,1.7-0.5,4.2L527.9,417.4z"/>
	<path class="st0" d="M528.3,419.2c2.8,0.3,5.1,2.9,4.9,5.2c-0.1,1.1-0.8,1.6-1.7,1.6c-2-0.2-2.8-2.5-3.3-5.2
		c-0.8-0.1-1.8,0.4-1.9,1.5c-0.1,1,0.7,2.6,0.9,2.9c-0.1,0.1-0.2,0.2-0.4,0.2c-0.1,0-0.3-0.1-0.3-0.2c-0.8-0.9-1.6-2.4-1.5-3.6
		C525.2,420,526.6,419,528.3,419.2z M532.3,423.4c0.1-1-1.7-2.4-3.3-2.6c0,0.1,0.5,3.2,2.4,3.4C531.8,424.3,532.3,424,532.3,423.4z"
		/>
	<path class="st0" d="M528,432.3l0-0.1c-2.1-1.2-3.9-2.9-3.8-3.8c0.1-1.1,1.7-1.7,3.2-1.5c2.7,0.4,5.2,3.1,4.8,5.7
		c-0.1,0.7-0.5,1.2-0.6,1.5c0,0.2,0.1,0.4,0.1,0.6c0,0.1-0.1,0.1-0.2,0.1c-0.1,0-7.6-2.4-7.6-2.4c-3-1-4.3-3.1-4.1-5.2
		c0.1-0.8,0.6-1.7,1.4-1.6c0.5,0.1,0.8,0.5,0.8,1.1c-0.6,0.2-1.3,1.1-1.3,1.7C520.5,430.3,526.1,431.4,528,432.3z M531.5,431.9
		c0.1-1.1-2.2-3.1-4.3-3.4c-1-0.1-1.7,0.1-1.7,0.5c0,0.2,0.1,0.4,0.9,1.1c1.1,1,3.6,2.6,4.6,2.7C531,432.8,531.5,432.4,531.5,431.9z
		"/>
	<path class="st0" d="M526.4,434.9c2.8,0.4,5,3.1,4.7,5.4c-0.2,1-0.9,1.6-1.8,1.5c-2-0.3-2.7-2.6-3.1-5.3c-0.8-0.1-1.8,0.3-2,1.4
		c-0.2,1,0.6,2.6,0.8,2.9c-0.1,0.1-0.2,0.2-0.4,0.2c-0.1,0-0.3-0.1-0.3-0.2c-0.7-0.9-1.5-2.4-1.3-3.7
		C523.2,435.6,524.7,434.6,526.4,434.9z M530.2,439.4c0.2-1-1.6-2.5-3.2-2.7c0,0.1,0.4,3.3,2.2,3.5
		C529.7,440.2,530.1,439.9,530.2,439.4z"/>
	<path class="st0" d="M526.1,444.7l-0.1,0.1c1.8,1.3,3.7,3.1,3.5,4.3c-0.2,0.9-1.1,1.1-1.9,0.9c-2-0.4-4.5-1.6-5.1-1.7
		c-0.2,0-0.2,0-0.2,0.1c-0.1,0.3,0.2,1.1,0.2,1.3c0,0-0.1,0.1-0.3,0.1c-0.2,0-0.3-0.1-0.4-0.3c-0.1-0.1-0.7-1.5-0.6-2.1
		c0.1-0.3,0.3-0.7,0.8-0.6c0.8,0.1,3.8,1.5,5.4,1.8c0.6,0.1,0.9,0,0.9-0.2c0.1-0.7-3.9-4.3-6.3-4.7c0.1-0.6,0.1-1.1,0.1-1.2
		c0-0.2,0.1-0.2,0.2-0.2c0.6,0.1,4.6,1.5,6.7,2.3l0.2-1.2c0.1-0.4,0.3-0.4,0.4-0.4c0.1,0,0.2,0.1,0.2,0.1c-0.1,0.5,0,1.7,0.1,2.6
		c0,0.2,0.1,0.3,0,0.4c0,0.1-0.1,0.2-0.3,0.2C529.6,446.2,527.3,445.2,526.1,444.7z"/>
	<path class="st0" d="M531.3,459.3l0.2-1.1c0.1-0.4,0.3-0.4,0.4-0.4c0.1,0,0.2,0.1,0.2,0.1c-0.1,0.4-0.1,1.2,0,2
		c0.1,0.8,0.1,0.9,0.1,0.9c0,0.1-0.1,0.2-0.3,0.2c0,0-0.2-0.1-0.2-0.1c-2-0.9-10-3.8-11-4c-0.2,0-0.2,0-0.2,0.1
		c-0.1,0.3,0.1,1,0.2,1.2c0,0.1-0.1,0.1-0.3,0.1c-0.1,0-0.2-0.1-0.3-0.3c-0.1-0.1-0.7-1.4-0.6-2.1c0.1-0.3,0.2-0.7,0.8-0.6
		c0.6,0.1,2.4,0.9,3.3,1.3l0.1-0.1c-2-1.4-3.7-3.2-3.5-4.1c0.2-1.1,1.8-1.6,3.3-1.3c2.7,0.5,4.9,3.4,4.4,6c-0.1,0.3-0.2,0.6-0.3,0.8
		C529.2,458.5,530.5,459,531.3,459.3z M527.4,456.6c0.2-1.1-1.8-3.3-3.9-3.7c-0.4-0.1-1.7-0.3-1.8,0.3c-0.1,0.5,3.7,3.9,5.3,4.3
		C526.9,457.5,527.3,457,527.4,456.6z"/>
	<path class="st0" d="M521.5,470.4c-2.5-0.6-4.4-2.9-3.9-5.2c0.4-1.8,1.9-2.5,4-2c2.5,0.6,4.5,2.9,3.9,5.2
		C525.1,470.2,523.6,470.9,521.5,470.4z M518.3,465.8c-0.2,0.9,1.5,2.5,3.5,3c1.3,0.3,2.7,0.1,3-1c0.2-0.9-1.5-2.5-3.5-3
		C520,464.5,518.6,464.7,518.3,465.8z"/>
	<path class="st0" d="M514,466.1c0.5,0.1,0.7,0.6,0.6,1.1c-0.5,0.2-1.3,0.8-1.4,1.4c-0.3,1.2,2.1,2.3,2.9,2.6
		c2.6,1.1,4.1,1.6,7.2,2.8c0.1-0.5,0.4-1.7,0.4-1.7l0.8,0.3c-0.1,0.2-0.3,1-0.5,1.6l0.5,0.2c1,0.4,2,1.1,2.6,2
		c0.8,1,0.9,2.1,0.7,2.9c-0.2,0.9-0.8,1.5-1.5,1.4c-0.5-0.1-0.7-0.6-0.6-1.2c0.5-0.1,1.2-0.6,1.3-1.1c0.3-1.1-2.2-2.2-2.8-2.5
		l-0.6-0.3c-0.3,1.1-0.5,1.9-0.4,2.3c0,0-0.2,0.1-0.4,0.1c-0.6-0.2-0.6-0.7-0.4-1.4c0-0.2,0.4-1.4,0.4-1.4c-2.6-1-4.7-1.7-7.1-2.7
		c-2.4-1.1-3.9-2.9-3.3-5.2C512.6,466.7,513.2,465.9,514,466.1z"/>
	<path class="st0" d="M511.7,490.5c-0.1,0.2-0.3,0.2-0.5,0.2c-0.1,0-0.2-0.1-0.2-0.1s0.5-1.5,0.7-2.2c0.2-0.7,0.5-2.1,0.5-2.1
		s0.1,0,0.2,0c0.2,0.1,0.3,0.2,0.3,0.4l0.1,1c0.6,0.1,1.8,0.3,3.5,0.5l1-3.4c-1.4-1.3-2.5-2.2-2.9-2.5l-0.7,1.1
		c-0.1,0.2-0.3,0.2-0.5,0.2c-0.1,0-0.2-0.1-0.2-0.1s0.5-1.4,0.7-2.2c0.2-0.7,0.5-2.1,0.5-2.1s0.1,0,0.2,0c0.2,0.1,0.3,0.2,0.3,0.4
		l0,1.2c1.2,1.4,6,5.6,8.9,8.4l-0.2,0.7c-0.1,0.4-0.3,0.5-0.7,0.5c-1.8,0-8.2-0.9-10.5-0.9L511.7,490.5z M517.3,488.2l5,0.6
		l-4.2-3.6L517.3,488.2z"/>
	<path class="st0" d="M513.9,494.8c1.5,1.3,3.5,3,2.9,4.7c-0.2,0.7-0.8,1.1-1.4,0.9c-0.6-0.2-0.8-0.8-0.6-1.4c0.3,0,1-0.3,1.1-0.6
		c0.2-0.6-3-4.1-5.9-5.1c0.2-0.5,0.2-1,0.3-1.2c0.1-0.2,0.2-0.2,0.2-0.2c0.8,0.2,4.3,1.9,6.4,3l0.3-1.1c0.1-0.3,0.3-0.4,0.5-0.3
		c0.1,0,0.2,0.1,0.2,0.1c-0.2,0.5-0.2,1.6-0.2,2.5c0,0.2,0,0.3,0,0.4c0,0.1-0.1,0.2-0.3,0.1c-0.2-0.1-1.5-1-3.5-2.1L513.9,494.8z"/>
	<path class="st0" d="M515,504.1c-1.1-0.6-5.3-2.9-6-3.2c-0.2-0.1-0.2,0-0.3,0.1c-0.1,0.3,0,1.1,0,1.3c-0.1,0.1-0.1,0.1-0.3,0.1
		c-0.1,0-0.2-0.2-0.3-0.4c0-0.1-0.5-1.6-0.3-2.2c0.1-0.3,0.3-0.7,0.9-0.5c0.6,0.2,4.1,2.1,5.9,3l0.4-1.1c0.1-0.3,0.3-0.3,0.5-0.3
		c0.1,0,0.2,0.1,0.2,0.1c-0.2,0.5-0.3,1.6-0.3,2.5c0,0.2,0,0.3,0,0.4c0,0.1-0.1,0.2-0.3,0.1C515.1,504.1,515,504.1,515,504.1z
		 M517.2,504.1c-0.2,0.5,0.2,1.1,0.8,1.3c0.4,0.1,0.9,0,1-0.5c0.2-0.5-0.2-1.1-0.7-1.2C517.8,503.5,517.4,503.7,517.2,504.1z"/>
	<path class="st0" d="M511.9,512.4c-0.8-0.4-4.7-2.8-5.8-3.1c-0.2-0.1-0.2,0-0.3,0.1c-0.1,0.3,0,1.1,0,1.2c-0.1,0-0.1,0.1-0.3,0
		c-0.2-0.1-0.2-0.2-0.3-0.4c0-0.2-0.5-1.5-0.3-2.1c0.1-0.3,0.3-0.7,0.9-0.5c0.6,0.2,2.4,1.3,3.1,1.8l0.1-0.1
		c-1.8-1.6-3.3-3.3-2.9-4.5c0.4-1.2,2-1.3,3.4-0.8c2.6,0.9,4.4,4,3.6,6.5c-0.3,0.8-0.9,1.1-0.9,1.3c-0.1,0.2,0.3,0.3,0.2,0.6
		c0,0.1-0.1,0.2-0.2,0.2L511.9,512.4z M512.6,509.8c0.4-1-1.5-3.5-3.5-4.2c-1-0.3-1.7-0.2-1.8,0.1c-0.1,0.2,0,0.4,0.6,1.3
		c0.9,1.2,3,3.2,4,3.6C511.9,510.6,512.5,510.3,512.6,509.8z"/>
	<path class="st0" d="M513.1,521.3l0.4-1.1c0.1-0.3,0.4-0.3,0.5-0.3c0.1,0,0.2,0.1,0.2,0.1c-0.2,0.4-0.3,1.2-0.3,2
		c-0.1,0.8-0.1,0.9-0.1,0.9c0,0.1-0.1,0.2-0.3,0.1c0,0-0.2-0.1-0.2-0.1c-1.9-1.2-9.3-5.3-10.2-5.6c-0.2-0.1-0.2,0-0.2,0.1
		c-0.1,0.3,0,1,0,1.2c-0.1,0.1-0.2,0.1-0.3,0c-0.1,0-0.2-0.1-0.3-0.3c0-0.1-0.5-1.5-0.2-2.2c0.1-0.3,0.3-0.7,0.9-0.4
		c0.6,0.2,2.2,1.2,3.1,1.8l0.1-0.1c-1.7-1.7-3.1-3.7-2.8-4.6c0.4-1,2.1-1.3,3.4-0.8c2.6,0.9,4.3,4.1,3.4,6.6
		c-0.1,0.3-0.3,0.5-0.4,0.7C511.1,520.2,512.4,520.9,513.1,521.3z M509.7,518c0.4-1.1-1.2-3.5-3.3-4.3c-0.4-0.1-1.7-0.5-1.9,0
		c-0.2,0.5,3.1,4.5,4.6,5C509,518.8,509.5,518.4,509.7,518z"/>
	<path class="st0" d="M504.2,522.9l-0.1,0.1c1.5,1.6,3,3.8,2.6,4.9c-0.3,0.8-1.3,0.8-2.1,0.5c-1.9-0.7-4.2-2.4-4.7-2.6
		c-0.2-0.1-0.2,0-0.3,0.1c-0.1,0.3-0.1,1.1-0.1,1.3c-0.1,0-0.1,0.1-0.3,0c-0.2-0.1-0.3-0.2-0.3-0.4c0-0.1-0.4-1.6-0.2-2.2
		c0.1-0.3,0.4-0.7,0.9-0.5c0.7,0.3,3.4,2.2,4.9,2.8c0.5,0.2,0.9,0.2,1,0c0.2-0.6-2.9-4.9-5.3-5.8c0.2-0.6,0.3-1,0.4-1.2
		c0.1-0.2,0.2-0.2,0.2-0.1c0.6,0.2,4.2,2.4,6.1,3.6l0.4-1.1c0.1-0.3,0.3-0.3,0.5-0.3c0.1,0,0.2,0.1,0.2,0.1
		c-0.2,0.5-0.4,1.6-0.4,2.6c0,0.2,0,0.3,0,0.4c0,0.1-0.1,0.2-0.3,0.1C507.3,525,505.3,523.5,504.2,522.9z"/>
	<path class="st0" d="M500.5,528.8c2.6,1.1,4.1,4.2,3.2,6.4c-0.4,1-1.3,1.4-2.1,1c-1.8-0.8-2-3.2-1.7-5.9c-0.8-0.3-1.8-0.1-2.2,0.9
		c-0.4,0.9,0,2.7,0.1,3c-0.2,0.1-0.3,0.1-0.4,0.1c-0.1-0.1-0.2-0.2-0.3-0.3c-0.5-1.1-0.9-2.7-0.4-3.9
		C497.3,528.7,498.9,528.1,500.5,528.8z M503.2,534c0.4-0.9-0.9-2.8-2.5-3.4c0,0.1-0.4,3.3,1.3,4C502.4,534.7,502.9,534.5,503.2,534
		z"/>
	<path class="st0" d="M492.3,534.1c0.2,0.1,0.8,0.4,0.8,0.5c0,0,0.2,1.1,1,1.5c0.8,0.4,1.7-0.5,1.7-0.5s0.7,0.5,0.3,1.3
		c-0.3,0.8-1.2,1-1.8,0.7c-1.7-0.7-2.3-3.6-2.3-3.6C492.1,534,492.2,534,492.3,534.1z"/>
	<path class="st0" d="M491.9,544l5.8,2.6c0,0,0.4-1,0.6-1.3l0.8,0.4c-0.2,0.3-0.6,1.3-0.6,1.3l0.9,0.4c2.1,0.9,2.5,2.8,1.9,4.2
		c-0.5,1-1.3,1.8-2,1.5c-0.5-0.2-0.5-0.8-0.3-1.2c0.4-0.1,1.3-0.5,1.6-1.2c0.2-0.5-0.4-1-1.4-1.4l-1.5-0.7c0,0-0.7,1.7-0.7,2.2
		c-0.1,0-0.2,0-0.3,0c-0.5-0.2-0.6-0.6-0.3-1.3c0.2-0.4,0.6-1.3,0.6-1.3l-5.8-2.6l-1,1.3c-0.1,0.1-0.3,0.2-0.5,0.1
		c-0.1-0.1-0.2-0.1-0.2-0.1s0.8-1.7,1.2-2.4c0.3-0.8,0.9-2.1,0.9-2.1s0.1,0,0.2,0c0.2,0.1,0.2,0.2,0.2,0.4L491.9,544z"/>
	<path class="st0" d="M494.3,556.5c-0.4,0.8-1.1,1.2-1.7,0.9c-0.6-0.3-0.7-0.9-0.4-1.4c0.5,0,1.2-0.2,1.5-0.7c0.2-0.5-0.7-1.8-1.2-2
		l-3.8-1.8l-1,1.2c-0.1,0.2-0.3,0.2-0.5,0.1c-0.1-0.1-0.2-0.1-0.2-0.1s0.8-1.5,1.1-2.2s0.9-2.2,0.9-2.2s0.1,0,0.2,0
		c0.2,0.1,0.2,0.2,0.2,0.4l-0.2,1.3l5.5,2.6c0,0,0.4-0.7,0.7-1c0.2-0.3,0.4-0.3,0.4-0.2c0.1,0,0.1,0.1,0.2,0.1
		c-0.2,0.5-0.6,1.6-0.7,2.5c0,0.1,0,0.2,0,0.3c-0.1,0.1-0.2,0.2-0.4,0c0,0-0.8-0.4-1.1-0.6c-0.1,0-0.1-0.1-0.1,0c0,0,0,0.1,0,0.1
		C494.4,554.8,494.6,555.8,494.3,556.5z"/>
	<path class="st0" d="M486.6,563.6c-2.6-1.2-3.3-3.8-2.4-5.7c1-2,3.2-2.3,5.1-1.4c2.3,1.1,3.3,3.6,2.3,5.7
		C490.8,563.8,488.9,564.7,486.6,563.6z M486.9,561.8c1.7,0.8,3.4,0.7,4.1-0.6c0.6-1.1-1.1-2.5-2.1-2.9c-2.3-1.1-3.7-0.4-4.2,0.6
		C484.3,559.9,485.4,561.1,486.9,561.8z"/>
	<path class="st0" d="M484.2,572.9C484.2,572.9,484.2,572.9,484.2,572.9c0.6,1.4,0.5,2.9,0.1,3.7c-0.7,1.3-1.8,1.5-3.1,0.9l-4.4-2.3
		l-0.9,0.9c-0.2,0.1-0.3,0.2-0.5,0.1c-0.1-0.1-0.2-0.1-0.2-0.1s0.8-1.3,1.1-2c0.3-0.7,0.9-1.9,0.9-1.9s0.1,0,0.2,0.1
		c0.2,0.1,0.2,0.3,0.2,0.4l-0.2,1.1l3.8,2c1.1,0.6,1.8,0.4,2.3-0.5c0.2-0.4,0.2-0.7,0.2-1.1c-0.1-0.4-0.4-1.4-0.7-1.5l-4-2.1
		l-0.8,0.8c-0.2,0.1-0.3,0.2-0.5,0.1c-0.1-0.1-0.2-0.1-0.2-0.1s0.7-1.2,1.1-1.9c0.3-0.7,0.9-1.9,0.9-1.9s0.1,0,0.2,0.1
		c0.2,0.1,0.2,0.3,0.2,0.4L480,569l3.8,2c1.1,0.6,1.8,0.4,2.3-0.5c0.2-0.4,0.2-0.7,0.2-1.1c-0.1-0.4-0.4-1.4-0.7-1.5l-4-2.1
		l-0.8,0.8c-0.2,0.1-0.3,0.2-0.5,0.1c-0.1-0.1-0.2-0.1-0.2-0.1s0.7-1.2,1.1-1.9c0.3-0.7,1-2.1,1-2.1s0.1,0,0.2,0.1
		c0.2,0.1,0.2,0.3,0.2,0.4l-0.2,1.3l5.4,2.8c0,0,0.4-0.6,0.7-1c0.3-0.3,0.4-0.3,0.5-0.2c0.1,0,0.1,0.1,0.2,0.1
		c-0.3,0.5-0.6,1.5-0.8,2.4c0,0.1,0,0.2-0.1,0.3c-0.1,0.1-0.2,0.2-0.4,0c0,0-0.8-0.4-1.1-0.6c-0.1,0-0.1-0.1-0.1,0c0,0,0,0.1,0,0.1
		c0.6,1.3,0.5,2.8,0.1,3.6c-0.5,1-1.3,1.3-2.3,1C484.3,572.9,484.2,572.8,484.2,572.9z"/>
	<path class="st0" d="M477.9,594c1.4-2.6,1.5-3,1.5-3l-7.9-5.9l-1,1.1c-0.1,0.1-0.3,0.2-0.5,0.1c-0.1-0.1-0.2-0.2-0.2-0.2
		s0.8-1.3,1.3-2.2c0.5-0.9,1.1-2.2,1.1-2.2s0.1,0,0.2,0.1c0.2,0.1,0.3,0.3,0.2,0.5l-0.4,1.4l7.9,5.9c0,0,0.3-0.3,1.7-2.8l-0.7-1.2
		c-0.1-0.2-0.1-0.4,0-0.6c0.1-0.1,0.1-0.2,0.1-0.2l1.9,1.7l-4.9,8.9l-2.2-1.1c0,0,0-0.1,0.1-0.2c0.1-0.2,0.3-0.3,0.5-0.2L477.9,594z
		"/>
	<path class="st0" d="M470.3,593.4L470.3,593.4c1.2,1.9,2.3,4.3,1.7,5.4c-0.4,0.7-1.4,0.6-2.1,0.2c-1.7-1-3.7-3-4.2-3.3
		c-0.2-0.1-0.2,0-0.3,0c-0.2,0.3-0.2,1.1-0.2,1.3c-0.1,0-0.2,0.1-0.3,0c-0.1-0.1-0.2-0.2-0.2-0.4c0-0.1-0.2-1.6,0.2-2.2
		c0.2-0.3,0.5-0.6,1-0.3c0.7,0.4,3.1,2.7,4.4,3.5c0.5,0.3,0.8,0.4,1,0.2c0.3-0.6-2.1-5.3-4.3-6.6c0.3-0.5,0.5-0.9,0.5-1.1
		c0.1-0.2,0.2-0.1,0.3-0.1c1,0.5,7.6,6,9.3,7.5l0.6-1c0.2-0.3,0.4-0.3,0.5-0.2c0.1,0,0.1,0.1,0.2,0.2c-0.3,0.5-0.6,1.5-0.8,2.4
		c0,0.2-0.1,0.3-0.1,0.4c-0.1,0.1-0.2,0.2-0.3,0.1c0,0-0.1-0.1-0.1-0.1C476.6,598.7,471,594,470.3,593.4z"/>
	<path class="st0" d="M465.8,598.7c2.4,1.4,3.5,4.8,2.3,6.8c-0.5,0.9-1.4,1.2-2.2,0.7c-1.7-1-1.6-3.4-0.8-6.1
		c-0.7-0.4-1.8-0.4-2.3,0.5c-0.5,0.9-0.4,2.7-0.3,3c-0.2,0.1-0.3,0.1-0.4,0s-0.2-0.2-0.2-0.3c-0.3-1.1-0.5-2.8,0.2-3.9
		C462.6,598.2,464.3,597.8,465.8,598.7z M467.6,604.3c0.5-0.9-0.5-2.9-1.9-3.8c0,0.1-0.9,3.2,0.7,4.1
		C466.8,604.9,467.3,604.8,467.6,604.3z"/>
	<path class="st0" d="M455.4,614.5c0.1,0.2,0.1,0.4,0,0.6c-0.1,0.1-0.2,0.2-0.2,0.2l-1.8-1.8l4.4-7.1c0,0,0.1,0,0.2,0.1
		c0.2,0.1,0.2,0.3,0.2,0.5l-0.3,1.3l7.7,6.4l0.9-0.8c0.1-0.1,0.3-0.2,0.5,0c0.1,0.1,0.2,0.2,0.2,0.2s-0.9,1.3-1.3,1.9
		c-0.4,0.7-1.1,2-1.1,2s-0.1,0-0.2-0.1c-0.2-0.1-0.2-0.3-0.2-0.5l0.3-1.2l-7.6-6.3c0,0-1,1.4-2.4,3.5L455.4,614.5z"/>
	<path class="st0" d="M455,616.3c2.4,1.5,3.3,4.9,2,6.9c-0.6,0.9-1.5,1.1-2.3,0.6c-1.7-1.1-1.4-3.5-0.6-6.1
		c-0.7-0.4-1.8-0.4-2.4,0.5c-0.6,0.9-0.5,2.6-0.5,3c-0.2,0.1-0.3,0.1-0.4,0c-0.1-0.1-0.2-0.2-0.2-0.3c-0.3-1.1-0.4-2.8,0.3-3.9
		C451.8,615.7,453.5,615.4,455,616.3z M456.7,621.9c0.5-0.8-0.4-2.9-1.8-3.8c0,0.1-1,3.1,0.6,4.2
		C455.8,622.5,456.3,622.4,456.7,621.9z"/>
	<path class="st0" d="M448.8,627.9L448.8,627.9c-1.2-2.1-2.1-4.4-1.6-5.2c0.6-0.9,2.3-0.8,3.5,0c2.3,1.5,3.3,5,1.8,7.2
		c-0.4,0.6-1,0.8-1.2,1.1c-0.1,0.2-0.1,0.4-0.2,0.5c0,0.1-0.1,0.1-0.2,0c-0.1-0.1-5.7-5.5-5.7-5.5c-2.3-2.2-2.6-4.7-1.3-6.5
		c0.5-0.7,1.3-1.3,2-0.8c0.4,0.3,0.5,0.8,0.2,1.3c-0.6,0-1.6,0.5-1.9,0.9C443,622.8,447.6,626.4,448.8,627.9z M452.2,629.1
		c0.6-0.9-0.6-3.8-2.3-4.9c-0.8-0.6-1.6-0.6-1.8-0.3c-0.1,0.2-0.1,0.4,0.3,1.4c0.6,1.4,2.1,3.9,3,4.5
		C451.4,629.7,452,629.5,452.2,629.1z"/>
	<path class="st0" d="M446.3,629.6c2.3,1.6,3.2,5,1.9,6.9c-0.6,0.9-1.5,1.1-2.3,0.5c-1.7-1.1-1.3-3.5-0.5-6.1
		c-0.7-0.5-1.8-0.5-2.4,0.4c-0.6,0.8-0.6,2.6-0.5,3c-0.2,0.1-0.3,0.1-0.4,0c-0.1-0.1-0.2-0.2-0.2-0.3c-0.3-1.2-0.3-2.8,0.4-3.9
		C443.1,628.9,444.9,628.6,446.3,629.6z M447.8,635.2c0.6-0.8-0.3-2.9-1.7-3.9c-0.1,0.1-1.1,3.1,0.5,4.2
		C446.9,635.8,447.5,635.7,447.8,635.2z"/>
	<path class="st0" d="M441.8,638.3l-0.1,0.1c1.1,1.9,2.1,4.4,1.4,5.4c-0.5,0.7-1.4,0.5-2.1,0c-1.7-1.2-3.5-3.3-3.9-3.7
		c-0.1-0.1-0.2-0.1-0.3,0c-0.2,0.3-0.3,1.1-0.4,1.2c-0.1,0-0.2,0-0.3,0c-0.1-0.1-0.2-0.2-0.2-0.5c0-0.1,0-1.6,0.4-2.2
		c0.2-0.3,0.6-0.6,1-0.2c0.6,0.4,2.8,3,4.1,3.9c0.5,0.3,0.8,0.4,0.9,0.2c0.4-0.6-1.7-5.5-3.7-6.9c0.3-0.5,0.6-0.9,0.6-1
		c0.1-0.2,0.2-0.1,0.3-0.1c0.5,0.4,3.5,3.3,5.1,4.9l0.7-1c0.2-0.3,0.4-0.2,0.5-0.1c0.1,0.1,0.1,0.1,0.2,0.2c-0.3,0.4-0.7,1.5-1,2.4
		c0,0.2-0.1,0.3-0.1,0.4c-0.1,0.1-0.2,0.1-0.3,0C444.3,641.2,442.7,639.2,441.8,638.3z"/>
	<path class="st0" d="M440.5,653.7l0.7-0.9c0.2-0.3,0.4-0.2,0.5-0.1c0.1,0.1,0.1,0.1,0.2,0.2c-0.3,0.4-0.6,1.1-0.8,1.8
		s-0.3,0.8-0.3,0.9c-0.1,0.1-0.2,0.1-0.3,0c0,0-0.1-0.1-0.1-0.1c-1.5-1.6-7.5-7.6-8.3-8.2c-0.1-0.1-0.2-0.1-0.3,0
		c-0.2,0.2-0.3,1-0.3,1.2c-0.1,0-0.2,0.1-0.3,0c-0.1-0.1-0.1-0.2-0.2-0.4c0-0.1,0-1.6,0.4-2.1c0.2-0.3,0.5-0.5,1-0.2
		c0.5,0.3,1.8,1.8,2.5,2.5l0.1-0.1c-1.2-2.1-2-4.4-1.5-5.2c0.7-0.9,2.3-0.7,3.5,0.2c2.2,1.6,3.1,5.1,1.6,7.3
		c-0.2,0.3-0.4,0.4-0.6,0.6C438.9,652.1,439.9,653.1,440.5,653.7z M438,649.6c0.7-0.9-0.3-3.7-2-5c-0.4-0.3-1.5-1-1.8-0.5
		c-0.3,0.4,1.8,5.1,3,6.1C437.2,650.2,437.8,649.9,438,649.6z"/>
	<path class="st0" d="M427.1,659.8c-2-1.5-2.9-4.4-1.5-6.3c1.1-1.5,2.7-1.6,4.5-0.2c2,1.5,2.9,4.5,1.5,6.3
		C430.5,661.1,428.8,661.1,427.1,659.8z M426,654.4c-0.6,0.8,0.3,2.9,2,4.1c1.1,0.8,2.5,1.2,3.1,0.3c0.6-0.8-0.4-2.9-2-4.1
		C428.1,653.9,426.7,653.5,426,654.4z"/>
	<path class="st0" d="M421.9,652.9c0.4,0.3,0.4,0.8,0.1,1.3c-0.6-0.1-1.5,0.3-1.9,0.7c-0.7,1,1,2.9,1.6,3.5c1.9,2,3.2,3.1,5.5,5.4
		c0.3-0.4,1-1.4,1-1.4l0.6,0.6c-0.1,0.1-0.7,0.8-1.1,1.3l0.4,0.4c0.8,0.7,1.4,1.8,1.6,2.9c0.3,1.3,0,2.3-0.5,3
		c-0.6,0.7-1.4,1.1-1.9,0.7c-0.4-0.3-0.4-0.9-0.1-1.4c0.5,0.1,1.3-0.1,1.7-0.5c0.7-0.9-1.2-2.9-1.6-3.4l-0.4-0.5
		c-0.7,0.9-1.2,1.5-1.2,2c0,0-0.2,0.1-0.4-0.1c-0.5-0.4-0.3-0.8,0.1-1.4c0.1-0.1,0.9-1.1,0.9-1.1c-2-2-3.7-3.4-5.4-5.3
		c-1.8-1.9-2.4-4.2-1-6.1C420.4,652.9,421.3,652.4,421.9,652.9z"/>
	<path class="st0" d="M419.4,680.8l-2-1.7c0,0,0-0.1,0.1-0.2c0.1-0.2,0.3-0.2,0.5-0.1l1.2,0.4c0.4-0.1,1.7-1.1,2.3-1.8
		c0.2-0.3,0.3-0.5,0.4-0.9c0.4-1.9-0.6-4.7-3.1-6.7c-1.8-1.4-3.4-1.4-4.5,0.1c-0.9,1.1-1.2,2-1.3,2.5l2.6,2.7
		c0.3-0.4,1.3-1.7,1.3-1.7l0.7,0.6c0,0-0.9,0.9-1.5,1.7c-0.8,1-1.5,2.1-1.5,2.3c0,0-0.1,0-0.2-0.1c-0.5-0.4-0.4-0.8,0-1.2l0.3-0.4
		l-3.1-3.1c0,0,0.5-2,2.2-4c1.7-2.1,3.7-2.6,6.2-0.7c3.2,2.6,4.1,7.2,1.8,10.2C420.7,679.8,419.4,680.8,419.4,680.8z"/>
	<path class="st0" d="M408.5,683.3c-2-1.6-2.7-4.6-1.2-6.3c1.2-1.4,2.8-1.4,4.5,0c2,1.6,2.7,4.6,1.3,6.4
		C411.8,684.7,410.2,684.7,408.5,683.3z M407.7,677.8c-0.6,0.7,0.2,2.9,1.8,4.2c1,0.9,2.4,1.3,3.1,0.4c0.6-0.7-0.2-2.9-1.8-4.2
		C409.8,677.4,408.4,676.9,407.7,677.8z"/>
	<path class="st0" d="M403.2,689.7c-1.9-1.6-2.7-4.6-1.2-6.4c1.2-1.4,2.8-1.4,4.5,0c1.9,1.6,2.7,4.6,1.2,6.4
		C406.5,691.1,404.9,691.1,403.2,689.7z M402.4,684.2c-0.6,0.7,0.2,2.9,1.8,4.2c1,0.9,2.4,1.3,3.1,0.4c0.6-0.7-0.2-2.9-1.8-4.2
		C404.5,683.8,403.2,683.3,402.4,684.2z"/>
	<path class="st0" d="M403.6,700.1l0.8-0.9c0.2-0.3,0.4-0.2,0.6-0.1c0.1,0.1,0.1,0.1,0.1,0.2c-0.3,0.3-0.7,1-1,1.7s-0.4,0.8-0.4,0.9
		c-0.1,0.1-0.2,0.1-0.3,0c0,0-0.1-0.1-0.1-0.1c-1.4-1.7-6.9-8.2-7.6-8.8c-0.1-0.1-0.2-0.1-0.3,0c-0.2,0.2-0.4,1-0.4,1.1
		c-0.1,0-0.2,0-0.3-0.1c-0.1-0.1-0.1-0.2-0.1-0.4c0-0.1,0.1-1.6,0.5-2.1c0.2-0.3,0.5-0.5,1-0.1c0.5,0.4,1.7,1.9,2.3,2.7l0.1-0.1
		c-1-2.2-1.6-4.6-1.1-5.3c0.7-0.8,2.4-0.5,3.5,0.5c2.1,1.8,2.6,5.4,0.9,7.4c-0.2,0.2-0.4,0.4-0.6,0.5
		C402.1,698.4,403.1,699.5,403.6,700.1z M401.5,695.8c0.7-0.9,0.1-3.7-1.6-5.2c-0.3-0.3-1.4-1.1-1.8-0.6c-0.3,0.4,1.3,5.3,2.5,6.3
		C400.7,696.3,401.3,696.1,401.5,695.8z"/>
	<path class="st0" d="M396.4,706.8c-1-0.8-4.9-3.3-7.4-4.7c1.4,2.7,3.7,7.1,4.7,9.2l-0.7,0.8c-0.2,0.2-0.4,0.3-0.8,0.1
		c-1-0.6-5.4-3.4-7.8-4.9c1.3,2.8,3.7,7.2,4.3,8.2l1-0.6c0.2-0.1,0.3-0.1,0.5,0c0.1,0.1,0.1,0.2,0.1,0.2s-1.1,1.1-1.6,1.6
		c-0.5,0.5-1.3,1.6-1.3,1.6s-0.1,0-0.2-0.1c-0.2-0.2-0.2-0.3-0.1-0.5l0.5-1c-0.7-1.7-3.5-7.2-5.1-10.8c0-0.1,0.2-0.4,0.4-0.6
		c0.2-0.2,0.4-0.5,0.5-0.4c2.4,1.4,6,3.6,8.3,4.9c-1.2-2.4-3.2-6.5-4.5-9.1c0-0.1,0.2-0.4,0.4-0.6c0.2-0.2,0.4-0.5,0.5-0.4
		c3.1,1.9,8.1,4.8,9.7,5.6l0.9-0.5c0.2-0.1,0.3-0.1,0.5,0c0.1,0.1,0.1,0.2,0.1,0.2s-1.1,1.1-1.6,1.7c-0.5,0.5-1.6,1.9-1.6,1.9
		s-0.1,0-0.2-0.1c-0.2-0.2-0.2-0.3-0.1-0.5L396.4,706.8z"/>
	<path class="st0" d="M378.8,717.1c-1.9-1.7-2.4-4.7-0.9-6.4c1.3-1.4,2.9-1.3,4.5,0.2c1.9,1.7,2.4,4.7,0.9,6.4
		C382,718.8,380.4,718.6,378.8,717.1z M378.3,711.6c-0.6,0.7,0,2.9,1.5,4.3c1,0.9,2.3,1.4,3.1,0.6c0.6-0.7-0.1-2.9-1.5-4.3
		C380.4,711.3,379,710.8,378.3,711.6z"/>
	<path class="st0" d="M371.3,727.5c-1.4-1.4-2.9-3.8-3.3-4.2c-0.1-0.1-0.2-0.1-0.3,0c-0.2,0.2-0.5,1-0.5,1.2c-0.1,0-0.2,0-0.3-0.1
		c-0.1-0.1-0.1-0.3-0.1-0.5c0-0.1,0.2-1.6,0.7-2.1c0.2-0.2,0.7-0.4,1-0.1c0.6,0.5,2.3,3.3,3.5,4.4c0.4,0.4,0.8,0.5,0.9,0.4
		c0.5-0.5-0.9-5.6-2.7-7.4c0.4-0.4,0.6-0.7,0.7-0.9c0.1-0.2,0.2-0.1,0.3,0c1,0.9,2.5,3.7,3.7,4.8c0.4,0.4,0.8,0.5,0.9,0.4
		c0.5-0.5-0.9-5.7-2.7-7.4c0.4-0.4,0.7-0.8,0.8-0.9c0.1-0.2,0.2-0.1,0.3-0.1c0.5,0.4,3,3.8,4.3,5.6l0.8-0.8c0.2-0.3,0.4-0.2,0.6-0.1
		c0.1,0.1,0.1,0.2,0.1,0.2c-0.4,0.4-0.9,1.4-1.4,2.2c-0.1,0.2-0.1,0.3-0.2,0.3c-0.1,0.1-0.2,0.1-0.3,0c-0.2-0.2-1.6-2.4-2.2-3.4
		l-0.1,0.1c0.8,2.1,1.5,4.6,0.6,5.5c-0.6,0.7-1.4,0.4-2.1-0.3c-0.4-0.4-0.9-1.1-1.4-1.9l-0.1,0.1c0.9,2.3,1.4,4.5,0.5,5.4
		C372.8,728.5,372,728.2,371.3,727.5z"/>
	<path class="st0" d="M367.5,726.2c2,2,2.3,5.4,0.6,7.1c-0.7,0.8-1.7,0.8-2.3,0.1c-1.4-1.4-0.7-3.7,0.6-6.1c-0.6-0.6-1.7-0.8-2.4,0
		c-0.7,0.7-1,2.5-1,2.8c-0.2,0-0.3,0-0.4-0.1s-0.1-0.2-0.1-0.4c-0.1-1.2,0.2-2.8,1.1-3.7C364.4,724.9,366.2,725,367.5,726.2z
		 M368,732c0.7-0.7,0.2-2.9-1-4.1c-0.1,0.1-1.6,2.9-0.2,4.2C367,732.4,367.5,732.5,368,732z"/>
	<path class="st0" d="M361.5,734l-0.1,0.1c0.8,2.1,1.3,4.7,0.4,5.5c-0.6,0.6-1.5,0.2-2.1-0.4c-1.4-1.4-2.8-3.9-3.2-4.3
		c-0.1-0.1-0.2-0.1-0.3,0c-0.2,0.2-0.5,1-0.6,1.1c-0.1,0-0.2,0-0.3-0.1c-0.1-0.1-0.2-0.3-0.1-0.5c0-0.1,0.3-1.6,0.7-2.1
		c0.2-0.2,0.6-0.4,1-0.1c0.5,0.5,2.3,3.4,3.4,4.5c0.4,0.4,0.7,0.5,0.9,0.4c0.5-0.5-0.7-5.7-2.5-7.5c0.4-0.4,0.7-0.8,0.8-0.9
		c0.1-0.1,0.2-0.1,0.3,0c0.4,0.4,2.9,3.9,4.2,5.7l0.8-0.8c0.3-0.3,0.4-0.2,0.6-0.1c0.1,0.1,0.1,0.2,0.1,0.2c-0.4,0.4-1,1.4-1.4,2.2
		c-0.1,0.2-0.1,0.3-0.2,0.3c-0.1,0.1-0.2,0.1-0.3,0C363.5,737.3,362.3,735.1,361.5,734z"/>
	<path class="st0" d="M354.1,737c0.4,0.4,0.4,1.2,0,1.6c-0.5,0.5-1.2,0.5-1.6,0.1c-0.4-0.4-0.4-1.1,0.1-1.6
		C353,736.6,353.7,736.6,354.1,737z"/>
	<path class="st0" d="M343.1,760.7c-0.7-1.6-3.2-6.4-4.7-9.9c0-0.1,0.3-0.4,0.4-0.6s0.5-0.4,0.6-0.4c2.6,1.3,5.9,3.1,8.4,4.3
		c-1.1-2.5-2.7-5.9-4-8.5c0-0.1,0.3-0.4,0.4-0.6c0.2-0.2,0.5-0.4,0.6-0.4c3.2,1.7,8,4.4,9.6,5.2l1-0.5c0.2-0.1,0.3-0.1,0.5,0.1
		c0.1,0.1,0.1,0.2,0.1,0.2s-1.3,1.1-1.8,1.6c-0.5,0.5-1.8,1.9-1.8,1.9s-0.1,0-0.2-0.1c-0.1-0.1-0.1-0.3,0-0.5l0.6-1.1
		c-1-0.7-4.6-3-7.2-4.4c1.3,2.7,3.1,6.5,4.2,8.5l-1,0.9c-0.2,0.2-0.3,0.2-0.8,0c-1.1-0.6-5.3-2.9-7.9-4.3c1.3,2.7,3.5,6.4,4.1,7.4
		l1.1-0.5c0.2-0.1,0.3-0.1,0.5,0c0.1,0.1,0.1,0.2,0.1,0.2s-1.1,0.9-1.6,1.4c-0.6,0.5-1.5,1.5-1.5,1.5s-0.1,0-0.2-0.1
		c-0.1-0.1-0.1-0.3,0-0.5L343.1,760.7z"/>
	<path class="st0" d="M332.5,764.5l-3.4-3.6l-1.1,0.6c-0.2,0.1-0.3,0.1-0.5-0.1c-0.1-0.1-0.1-0.2-0.1-0.2s1.2-1,1.7-1.5
		c0.5-0.5,1.5-1.5,1.5-1.5s0.1,0,0.2,0.1c0.1,0.1,0.1,0.3,0,0.5l-0.5,1l3,3.1c0.8,0.9,1.6,1,2.3,0.3c0.3-0.3,0.4-0.6,0.5-1
		c0-0.4,0-1.4-0.1-1.6l-3.1-3.2l-1,0.5c-0.2,0.1-0.3,0.1-0.5-0.1c-0.1-0.1-0.1-0.2-0.1-0.2s1.1-0.9,1.6-1.4c0.5-0.5,1.6-1.7,1.6-1.7
		s0.1,0,0.2,0.1c0.1,0.1,0.1,0.3,0,0.5l-0.6,1.1l7.3,7.5c0,0,0.6-0.4,1-0.7c0.3-0.2,0.4-0.1,0.5-0.1c0,0.1,0.1,0.2,0.1,0.2
		c-0.4,0.4-1.1,1.2-1.5,2.1c-0.1,0.1-0.1,0.2-0.1,0.3c-0.1,0.1-0.2,0.1-0.4-0.1l-3.8-3.9c-0.1-0.1-0.1-0.1-0.1-0.1c0,0,0,0.1,0,0.1
		c0,1.5-0.4,2.6-1.1,3.4C334.6,765.7,333.5,765.5,332.5,764.5z"/>
	<path class="st0" d="M328.2,765.8c-1.2-1.2-2.7-1.3-3.7-0.3c-0.8,0.8-1.3,1.8-1.4,2.1c-0.1,0-0.2,0-0.3-0.1
		c-0.1-0.1-0.1-0.3-0.1-0.5c0.1-1,0.5-2,1.4-2.9c1.5-1.5,3.7-1.3,5.2,0.2c1.7,1.7,1.9,4.6,0.4,6.2c-1.3,1.3-3,0.9-4.9-1l3.6-3.6
		L328.2,765.8z M326.6,768.9c0.4,0.4,1.8,1.6,2.9,0.5c0.6-0.6,0.1-2.1-0.6-2.8L326.6,768.9z"/>
	<path class="st0" d="M319.6,777.5l-3.6-3.4l-1.1,0.6c-0.2,0.1-0.3,0.1-0.5,0c-0.1-0.1-0.1-0.2-0.1-0.2s1.1-1.1,1.7-1.6
		s1.4-1.6,1.4-1.6s0.1,0,0.2,0.1c0.1,0.1,0.1,0.3,0,0.5l-0.5,1l3.1,3c0.9,0.8,1.6,0.9,2.3,0.2c0.3-0.3,0.5-0.7,0.5-1
		c0-0.4,0-1.4-0.2-1.6l-3.3-3.1l-1,0.5c-0.2,0.1-0.3,0.1-0.5,0c-0.1-0.1-0.1-0.2-0.1-0.2s1-1,1.6-1.5c0.5-0.5,1.5-1.7,1.5-1.7
		s0.1,0,0.2,0.1c0.1,0.1,0.1,0.3,0,0.5l-0.6,1.1l4.4,4.2c0,0,0.6-0.5,0.9-0.7c0.3-0.2,0.4-0.1,0.5-0.1c0.1,0,0.1,0.2,0.1,0.2
		c-0.4,0.4-1.1,1.3-1.5,2.1c0,0.1-0.1,0.2-0.1,0.3c-0.1,0.1-0.2,0.1-0.4-0.1c0,0-0.7-0.6-0.9-0.9c-0.1,0-0.1-0.1-0.1,0
		c0,0,0,0.1,0,0.1c0.2,1.4-0.4,2.9-1,3.5C321.7,778.7,320.6,778.5,319.6,777.5z"/>
	<path class="st0" d="M312.7,780l3.6,3.3l0.9-1l0.7,0.6c-0.2,0.2-1,1-1,1l1.3,1.1c-0.3,0.5-0.5,1.2-0.7,1.4
		c-0.1,0.1-0.2,0.1-0.4-0.1l-1.3-1.2c-0.1,0.1-1.2,1.4-1.3,1.9c-0.1,0-0.2-0.1-0.3-0.1c-0.4-0.3-0.4-0.8,0.1-1.3
		c0.3-0.3,0.9-1,0.9-1l-3-2.7c-1.3-1.2-1.6-1.4-2.1-0.8c-0.3,0.4-0.7,1.1-0.8,1.5c-0.1,0-0.2,0-0.3-0.1c-0.1-0.1-0.2-0.3-0.2-0.5
		c0-0.7,0.5-1.9,0.9-2.4C310.5,778.5,311.3,778.7,312.7,780z"/>
	<path class="st0" d="M306.7,792l-3.7-3.2l-1.1,0.7c-0.2,0.1-0.3,0.1-0.5,0c-0.1-0.1-0.1-0.2-0.1-0.2s1.1-1.1,1.6-1.7
		s1.3-1.7,1.3-1.7s0.1,0,0.2,0.1c0.1,0.1,0.1,0.3,0.1,0.5l-0.4,1l3.3,2.8c0.9,0.8,1.7,0.8,2.3,0.1c0.3-0.3,0.4-0.6,0.4-1
		c0-0.4-0.1-1.4-0.3-1.6l-3.4-3l-1,0.6c-0.2,0.1-0.3,0.1-0.5,0c-0.1-0.1-0.1-0.2-0.1-0.2s1-1,1.5-1.6s1.4-1.8,1.4-1.8s0.1,0,0.2,0.1
		c0.1,0.1,0.1,0.3,0.1,0.5l-0.5,1.2l7.9,6.8c0,0,0.6-0.5,0.9-0.8c0.3-0.2,0.4-0.2,0.5-0.1c0.1,0,0.1,0.1,0.1,0.2
		c-0.4,0.4-1,1.3-1.4,2.2c0,0.1-0.1,0.2-0.1,0.3c-0.1,0.1-0.2,0.1-0.4-0.1l-4.1-3.6c-0.1,0-0.1-0.1-0.1,0c0,0,0,0.1,0,0.1
		c0.2,1.5-0.2,2.7-0.8,3.4C308.8,793.1,307.7,792.9,306.7,792z"/>
	<path class="st0" d="M302.6,793.7c-1.4-1.1-2.8-1-3.7,0.1c-0.7,0.9-1.2,1.9-1.2,2.2c-0.1,0-0.2,0.1-0.3,0c-0.1-0.1-0.2-0.3-0.2-0.5
		c0-1,0.4-2,1.1-3c1.4-1.7,3.5-1.6,5.2-0.3c1.9,1.5,2.4,4.4,1,6.1c-1.1,1.4-2.9,1.2-5-0.5l3.2-3.9L302.6,793.7z M301.3,796.9
		c0.4,0.3,2,1.4,3,0.2c0.5-0.6-0.1-2.1-0.9-2.7L301.3,796.9z"/>
	<path class="st0" d="M294.9,801l3.8,3l0.8-1.1l0.7,0.5c-0.2,0.3-0.9,1.1-0.9,1.1l1.3,1c-0.3,0.5-0.4,1.2-0.6,1.4
		c-0.1,0.2-0.2,0.1-0.4-0.1l-1.4-1.1c-0.1,0.1-1.1,1.5-1.2,1.9c-0.1,0-0.2,0-0.3-0.1c-0.4-0.3-0.4-0.8,0-1.3
		c0.2-0.3,0.9-1.1,0.9-1.1l-3.2-2.5c-1.4-1.1-1.7-1.3-2.1-0.7c-0.3,0.4-0.6,1.2-0.7,1.5c-0.1,0-0.2,0.1-0.3,0
		c-0.2-0.1-0.2-0.3-0.2-0.5c0-0.7,0.3-1.9,0.8-2.5C292.7,799.7,293.5,799.9,294.9,801z"/>
	<path class="st0" d="M289.9,813.4l-4-2.9l-1,0.8c-0.2,0.1-0.3,0.1-0.5,0c-0.1-0.1-0.2-0.2-0.2-0.2s1-1.2,1.4-1.8
		c0.5-0.6,1.2-1.8,1.2-1.8s0.1,0,0.2,0.1c0.2,0.1,0.2,0.3,0.1,0.5l-0.3,1.1l3.5,2.6c1,0.7,1.7,0.7,2.3-0.1c0.2-0.3,0.3-0.7,0.3-1
		c0-0.4-0.2-1.4-0.4-1.6l-3.6-2.7l-0.9,0.6c-0.2,0.1-0.3,0.1-0.5,0c-0.1-0.1-0.2-0.2-0.2-0.2s0.9-1.1,1.4-1.7
		c0.5-0.6,1.3-1.9,1.3-1.9s0.1,0,0.2,0.1c0.2,0.1,0.2,0.3,0.1,0.5l-0.4,1.2l8.4,6.2c0,0,0.5-0.5,0.8-0.8c0.3-0.3,0.4-0.2,0.5-0.1
		c0.1,0,0.1,0.1,0.1,0.2c-0.3,0.4-0.9,1.4-1.2,2.3c0,0.1-0.1,0.2-0.1,0.3c-0.1,0.1-0.2,0.1-0.4-0.1l-4.4-3.3c-0.1,0-0.1-0.1-0.1,0
		c0,0,0,0.1,0,0.1c0.3,1.5,0,2.7-0.6,3.5C292.1,814.3,291,814.2,289.9,813.4z"/>
	<path class="st0" d="M287.6,820.7c-0.5,0.7-1.3,1-1.8,0.6c-0.6-0.4-0.5-1-0.2-1.4c0.5,0.1,1.2,0.1,1.6-0.4c0.3-0.5-0.4-1.9-0.8-2.2
		l-3.5-2.4l-1.2,1c-0.2,0.1-0.3,0.1-0.5,0c-0.1-0.1-0.2-0.2-0.2-0.2s1-1.3,1.5-2c0.5-0.7,1.3-2,1.3-2s0.1,0,0.2,0.1
		c0.2,0.1,0.2,0.3,0.1,0.5l-0.4,1.2l5,3.5c0,0,0.5-0.6,0.9-0.9c0.3-0.3,0.4-0.2,0.5-0.1c0.1,0,0.1,0.1,0.1,0.2
		c-0.3,0.5-0.9,1.4-1.2,2.3c0,0.1-0.1,0.2-0.1,0.3c-0.1,0.1-0.2,0.1-0.4,0c0,0-0.7-0.6-1-0.7c-0.1,0-0.1-0.1-0.1,0c0,0,0,0.1,0,0.1
		C288.1,819.1,288,820.1,287.6,820.7z"/>
	<path class="st0" d="M281.8,821.3c-1.5-1-2.9-0.8-3.7,0.4c-0.7,1-1,2-0.9,2.4c-0.1,0-0.2,0.1-0.3,0c-0.1-0.1-0.2-0.3-0.2-0.5
		c-0.1-1,0.2-2.1,0.8-3.1c1.2-1.8,3.4-2,5.1-0.8c2,1.3,2.8,4.1,1.6,6c-1,1.5-2.7,1.5-5-0.1l2.8-4.2L281.8,821.3z M280.9,824.6
		c0.4,0.3,2.1,1.2,3-0.1c0.5-0.7-0.3-2.1-1.1-2.6L280.9,824.6z"/>
	<path class="st0" d="M276.8,825.3c0.9,0.6,1.2,1.4,1.2,2.7c0,1.2-0.9,2.6-0.9,2.6l0.9,0.6c0.9,0.5,1.6,0.4,2.1-0.4
		c0.3-0.5-0.2-1.5-0.6-1.7c0-0.1,0-0.2,0.1-0.4c0.3-0.4,0.8-0.6,1.2-0.3c0.7,0.4,0.5,1.8-0.3,3c-1.1,1.7-2.3,2-3.5,1.3l-2.9-1.9
		c-0.7-0.4-1.3-0.8-1.5-0.4c-0.1,0.2-0.2,0.9-0.2,1c-0.1,0-0.2,0.1-0.3,0c-0.1-0.1-0.2-0.3-0.2-0.4c0-0.1-0.1-1.2,0.2-1.8
		c0.3-0.5,0.9-0.7,1.7-0.2c0.1,0,0.1,0.1,0.1,0c0,0,0-0.1,0-0.1c-0.2-0.6-0.6-1.7,0.1-2.9C274.8,824.7,275.9,824.7,276.8,825.3z
		 M274.7,827.2c-0.5,0.8-0.2,1.8-0.2,1.8l1.8,1.1c0.1-0.1,0.3-0.4,0.4-0.6s0.3-0.4,0.3-0.6c0.2-0.7,0-1.6-0.7-2.1
		C275.6,826.5,275.1,826.6,274.7,827.2z"/>
	<path class="st0" d="M269.1,836.5C269.1,836.5,269.1,836.4,269.1,836.5c-0.2-0.7-0.6-1.7,0-2.7c1-1.7,3.2-1.6,4.8-0.6
		c2.1,1.3,2.9,4,1.7,6c-0.2,0.4-0.7,0.7-0.7,0.7s0,0,0,0c0.3,0.2,2.9,1.6,2.9,1.6s0.5-0.6,0.8-0.9c0.3-0.3,0.4-0.2,0.5-0.2
		c0.1,0,0.1,0.1,0.2,0.2c-0.3,0.5-0.8,1.6-1,2.5c0,0.1,0,0.2-0.1,0.3c-0.1,0.1-0.2,0.1-0.4,0l-8.3-5c-0.7-0.4-1.3-0.8-1.5-0.4
		c-0.1,0.2-0.2,0.9-0.2,1c-0.1,0-0.2,0.1-0.3,0c-0.1-0.1-0.2-0.2-0.2-0.4c0-0.1-0.2-1.2,0.2-1.8c0.3-0.5,0.9-0.8,1.7-0.4
		C269,836.5,269.1,836.5,269.1,836.5z M273.9,839.2c0.5-0.3,1.1-0.8,1.4-1.3c0.5-0.9-0.5-2.4-1.9-3.2c-1.3-0.8-2.8-0.7-3.5,0.4
		c-0.3,0.5-0.4,1-0.3,1.5L273.9,839.2z"/>
	<path class="st0" d="M269.9,846.7c0,0,0.4-0.6,0.7-0.9c0.3-0.3,0.4-0.2,0.5-0.2c0.1,0,0.1,0.1,0.2,0.2c-0.3,0.5-0.8,1.6-1,2.5
		c0,0.1,0,0.2-0.1,0.3c-0.1,0.1-0.2,0.1-0.4,0l-6-3.4l-0.9,0.9c-0.2,0.1-0.3,0.2-0.5,0.1c-0.1-0.1-0.2-0.1-0.2-0.1s0.8-1.3,1.2-2
		s1-2.1,1-2.1s0.1,0,0.2,0.1c0.2,0.1,0.2,0.3,0.2,0.4l-0.3,1.2L269.9,846.7z M272.2,848.6c-0.3,0.5-0.1,1.2,0.4,1.5
		c0.5,0.3,1.1,0.1,1.4-0.5c0.2-0.4,0.1-1.1-0.4-1.4C273.1,848,272.5,848.2,272.2,848.6z"/>
	<path class="st0" d="M267.1,852.8c0.3-0.5,0.1-0.9-0.2-1.1c-1.4-0.8-4.1,2-5.8,1.1c-1.4-0.7-1.4-2.4-0.6-3.7
		c0.8-1.4,1.9-2.1,2.6-1.7c0.4,0.2,0.6,0.7,0.4,1.2c-0.1,0.1-0.1,0.2-0.1,0.2c-0.5-0.2-1.8,0-2.3,1c-0.3,0.5-0.2,1,0.3,1.3
		c1.7,0.9,4.1-1.9,5.9-1c1.1,0.6,1.2,2.1,0.5,3.4c-0.6,1.1-1.3,1.7-2,1.4c-0.4-0.2-0.5-0.6-0.2-1c0.1-0.1,0.1-0.2,0.1-0.2
		C265.7,853.8,266.7,853.7,267.1,852.8z"/>
	<path class="st0" d="M259.5,861c0.5,1.9,1.3,3.8,1.3,3.8l0.8-0.8c0.1-0.1,0.3-0.2,0.4-0.1c0.1,0.1,0.2,0.1,0.2,0.1s-0.7,1.2-1.1,2
		c-0.3,0.7-0.7,1.7-0.7,1.7s-0.1,0-0.2-0.1c-0.2-0.1-0.2-0.2-0.2-0.4l0.1-1.1c-0.2-1-0.7-2.8-1-3.5l-1.8,0.4
		c-1.7,0.4-3.3,1.1-3.6,1.8c-0.1,0.1-0.1,0.2-0.1,0.3c0,0-0.1,0-0.2,0c-0.6-0.3-1-0.8-0.5-1.7c0.6-1.2,2.5-1.6,3.6-1.9
		C258.2,861.2,258.7,861.1,259.5,861z M266.7,862.1c0,0,0.4-0.6,0.7-1c0.3-0.3,0.4-0.3,0.4-0.2c0.1,0,0.1,0.1,0.2,0.1
		c-0.2,0.5-0.7,1.7-0.8,2.6c0,0.1,0,0.2,0,0.3c-0.1,0.1-0.2,0.2-0.4,0l-10.1-4.9l-0.8,0.8c-0.2,0.1-0.3,0.2-0.4,0.1
		c-0.1-0.1-0.2-0.1-0.2-0.1s0.7-1.3,1-2c0.3-0.7,0.9-2.1,0.9-2.1s0.1,0,0.2,0c0.2,0.1,0.2,0.2,0.2,0.4l-0.2,1.3L266.7,862.1z"/>
	<path class="st0" d="M254.7,875l-4.5-2l-0.8,1c-0.1,0.2-0.3,0.2-0.4,0.1c-0.1-0.1-0.2-0.1-0.2-0.1s0.7-1.4,1-2.1
		c0.3-0.7,0.8-2,0.8-2s0.1,0,0.2,0c0.2,0.1,0.2,0.2,0.2,0.4l-0.1,1.1l3.9,1.8c1.1,0.5,1.8,0.3,2.3-0.6c0.2-0.4,0.2-0.8,0.1-1.1
		s-0.5-1.3-0.7-1.4l-4.1-1.8l-0.8,0.8c-0.1,0.2-0.3,0.2-0.4,0.1c-0.1-0.1-0.2-0.1-0.2-0.1s0.7-1.2,1-1.9c0.3-0.7,0.9-2.1,0.9-2.1
		s0.1,0,0.2,0c0.2,0.1,0.2,0.2,0.2,0.4l-0.2,1.3l5.6,2.5c0,0,0.4-0.6,0.6-1c0.2-0.3,0.4-0.3,0.4-0.2c0.1,0,0.1,0.1,0.2,0.1
		c-0.2,0.5-0.6,1.6-0.7,2.5c0,0.1,0,0.2,0,0.3c-0.1,0.1-0.2,0.2-0.4,0c0,0-0.8-0.4-1.1-0.5c-0.1,0-0.1-0.1-0.1,0c0,0,0,0.1,0,0.1
		c0.7,1.3,0.6,2.8,0.2,3.7C257,875.4,255.9,875.6,254.7,875z"/>
	<path class="st0" d="M249.6,883.3c-2.7-1.1-3.5-3.6-2.8-5.5c0.8-2.1,3-2.5,5-1.7c2.4,1,3.5,3.4,2.7,5.5
		C253.8,883.3,252,884.3,249.6,883.3z M249.9,881.5c1.8,0.7,3.5,0.5,4-0.8c0.5-1.2-1.3-2.4-2.2-2.8c-2.3-0.9-3.7-0.2-4.1,0.9
		C247.1,879.8,248.3,880.9,249.9,881.5z"/>
	<path class="st0" d="M245.3,889.4l4.6,1.7l1.2-3.2l-3.8-1.4c-1.7-0.6-2-0.7-2.2,0c-0.2,0.5-0.3,1.3-0.2,1.7c-0.1,0-0.2,0.1-0.3,0.1
		c-0.2-0.1-0.2-0.2-0.3-0.4c-0.2-0.6-0.3-1.9,0-2.6c0.4-1.1,1.3-1.2,3-0.6l4.6,1.7l0.5-1.3l0.8,0.3c-0.1,0.3-0.5,1.3-0.5,1.3
		l1.6,0.6c-0.1,0.6,0,1.3-0.1,1.5c-0.1,0.2-0.2,0.2-0.4,0.1l-1.6-0.6c-0.3,0.8-1.2,3.2-1.2,3.2l1.6,0.6c-0.1,0.6,0,1.3-0.1,1.5
		c-0.1,0.2-0.2,0.2-0.4,0.1L250,893c0,0.1-0.5,1.8-0.5,2.2c-0.1,0-0.2,0-0.3,0c-0.5-0.2-0.6-0.6-0.4-1.2c0.1-0.4,0.5-1.3,0.5-1.3
		l-3.8-1.4c-1.7-0.6-2-0.7-2.2,0c-0.2,0.5-0.3,1.3-0.2,1.7c-0.1,0-0.2,0.1-0.3,0.1c-0.2-0.1-0.2-0.2-0.3-0.4c-0.2-0.6-0.3-1.9,0-2.6
		C242.7,888.9,243.6,888.8,245.3,889.4z"/>
	<path class="st0" d="M244.3,896.3c-1.7-0.6-3,0-3.4,1.4c-0.4,1.1-0.4,2.2-0.3,2.5c-0.1,0.1-0.2,0.1-0.3,0.1c-0.1,0-0.3-0.2-0.3-0.4
		c-0.4-0.9-0.4-2,0-3.2c0.7-2,2.7-2.8,4.7-2.1c2.3,0.8,3.8,3.2,3.1,5.3c-0.6,1.7-2.2,2.1-4.8,1.3l1.6-4.8L244.3,896.3z M244.3,899.7
		c0.5,0.2,2.4,0.6,2.8-0.9c0.3-0.8-0.9-1.9-1.8-2.2L244.3,899.7z"/>
	<path class="st0" d="M238.3,906.8C238.3,906.8,238.3,906.7,238.3,906.8c-0.4-0.6-1-1.5-0.6-2.6c0.6-1.9,2.7-2.3,4.5-1.8
		c2.3,0.7,3.8,3.2,3.1,5.4c-0.1,0.4-0.5,0.8-0.5,0.9s0,0,0,0c0.3,0.1,3.2,0.9,3.2,0.9s0.3-0.7,0.5-1.1c0.2-0.4,0.3-0.3,0.4-0.3
		c0.1,0,0.2,0.1,0.2,0.1c-0.2,0.5-0.4,1.7-0.4,2.7c0,0.1,0,0.2,0,0.3c0,0.1-0.1,0.2-0.4,0.1l-9.3-2.8c-0.8-0.2-1.4-0.4-1.6,0
		c-0.1,0.3,0,0.9,0.1,1c-0.1,0.1-0.2,0.1-0.3,0.1c-0.2,0-0.3-0.2-0.3-0.4c0-0.1-0.5-1.2-0.3-1.8c0.2-0.5,0.6-1,1.5-0.8
		C238.2,906.8,238.3,906.8,238.3,906.8z M243.6,908.3c0.4-0.4,0.8-1,1-1.6c0.3-1-1.1-2.2-2.7-2.6c-1.5-0.4-2.9,0-3.3,1.2
		c-0.2,0.5-0.1,1.1,0.1,1.6L243.6,908.3z"/>
	<path class="st0" d="M233.2,910.3c0.2,0.1,0.8,0.3,0.8,0.4c0,0,0.3,1.1,1.2,1.4c0.9,0.2,1.6-0.7,1.6-0.7s0.8,0.4,0.5,1.3
		c-0.2,0.8-1,1.1-1.6,1c-1.8-0.5-2.8-3.3-2.8-3.3C233,910.3,233.1,910.3,233.2,910.3z"/>
	<path class="st0" d="M240.3,921.9c0,0,0.3-0.7,0.4-1.1c0.2-0.4,0.3-0.3,0.4-0.3c0.1,0,0.2,0.1,0.2,0.1c-0.1,0.5-0.3,1.8-0.2,2.7
		c0,0.1,0,0.2,0,0.3c0,0.1-0.1,0.2-0.4,0.1l-6.7-1.6l-0.6,1.1c-0.1,0.2-0.2,0.2-0.4,0.2c-0.1,0-0.2-0.1-0.2-0.1s0.4-1.5,0.6-2.2
		c0.2-0.7,0.4-2.3,0.4-2.3s0.1,0,0.2,0c0.2,0,0.3,0.2,0.3,0.4l0.1,1.3L240.3,921.9z M243,923.2c-0.1,0.6,0.2,1.2,0.8,1.3
		c0.5,0.1,1.1-0.2,1.2-0.8c0.1-0.5-0.2-1.1-0.7-1.2C243.7,922.3,243.1,922.7,243,923.2z"/>
	<path class="st0" d="M234.6,925.8l4.8,1l0.3-1.4l0.9,0.2c-0.1,0.3-0.3,1.4-0.3,1.4l1.7,0.4c0,0.6,0.1,1.3,0.1,1.5
		c0,0.2-0.1,0.2-0.4,0.1l-1.7-0.4c0,0.1-0.3,1.8-0.2,2.3c-0.1,0-0.2,0.1-0.3,0c-0.5-0.1-0.7-0.5-0.6-1.2c0.1-0.4,0.3-1.3,0.3-1.3
		l-4-0.9c-1.7-0.4-2-0.4-2.2,0.3c-0.1,0.5-0.1,1.3,0,1.7c0,0-0.1,0.1-0.3,0.1c-0.2,0-0.3-0.2-0.4-0.3c-0.3-0.6-0.6-1.9-0.4-2.6
		C232.1,925.7,232.9,925.5,234.6,925.8z"/>
	<path class="st0" d="M235.5,943C235.5,943,235.6,943,235.5,943c1,1.1,1.3,2.6,1.2,3.5c-0.2,1.5-1.3,2-2.7,1.8l-4.9-0.8l-0.5,1.1
		c-0.1,0.2-0.2,0.3-0.4,0.2c-0.1,0-0.2-0.1-0.2-0.1s0.3-1.5,0.5-2.3c0.1-0.7,0.3-2.1,0.3-2.1s0.1,0,0.2,0c0.2,0,0.3,0.2,0.3,0.4
		l0.2,1.1l4.3,0.7c1.2,0.2,1.9-0.2,2-1.2c0.1-0.4,0-0.8-0.2-1.1c-0.2-0.3-0.8-1.2-1.1-1.2l-4.5-0.7l-0.5,1c-0.1,0.2-0.2,0.3-0.4,0.2
		c-0.1,0-0.2-0.1-0.2-0.1s0.3-1.4,0.4-2.1s0.3-2.1,0.3-2.1s0.1,0,0.2,0c0.2,0,0.3,0.2,0.3,0.4l0.2,1.1l4.3,0.7
		c1.2,0.2,1.9-0.2,2-1.2c0.1-0.4,0-0.8-0.2-1.1c-0.2-0.3-0.8-1.2-1.1-1.2l-4.5-0.7l-0.5,1c-0.1,0.2-0.2,0.3-0.4,0.2
		c-0.1,0-0.2-0.1-0.2-0.1s0.3-1.4,0.4-2.1c0.1-0.7,0.3-2.3,0.3-2.3s0.1,0,0.2,0c0.2,0,0.3,0.2,0.3,0.4l0.2,1.3l6,1
		c0,0,0.2-0.7,0.4-1.1c0.2-0.4,0.3-0.4,0.4-0.3c0.1,0,0.2,0.1,0.2,0.1c-0.1,0.6-0.1,1.6,0,2.6c0,0.1,0.1,0.2,0,0.3
		c0,0.1-0.1,0.2-0.4,0.2c0,0-0.9-0.2-1.2-0.2c-0.1,0-0.1,0-0.1,0c0,0,0,0.1,0,0.1c1,1.1,1.3,2.6,1.2,3.4c-0.2,1.1-0.8,1.6-1.9,1.6
		C235.6,942.9,235.5,942.9,235.5,943z"/>
	<path class="st0" d="M230.8,951.5l4,0.5c0,0,0.2-0.7,0.3-1.2c0.1-0.4,0.3-0.4,0.3-0.4c0.1,0,0.2,0.1,0.2,0.1
		c-0.1,0.6-0.1,1.8,0.1,2.7c0,0.1,0.1,0.2,0.1,0.3c0,0.1-0.1,0.2-0.4,0.2l-4.6-0.5c-1.4-0.2-2.1-0.1-2.3,0.9c0,0.4,0.1,0.7,0.3,1.1
		c0.2,0.3,0.9,1.2,1.2,1.2l4.2,0.5c0,0,0.2-0.7,0.3-1.1c0.1-0.4,0.3-0.4,0.3-0.4c0.1,0,0.2,0.1,0.2,0.1c-0.1,0.6-0.1,1.7,0.1,2.7
		c0,0.1,0.1,0.2,0.1,0.3c0,0.1-0.1,0.2-0.4,0.2l-5.4-0.6c-0.8-0.1-1.5-0.1-1.5,0.3c0,0.3,0.1,0.8,0.2,0.9c0,0.1-0.2,0.1-0.3,0.1
		c-0.2,0-0.3-0.1-0.4-0.3c0-0.1-0.6-1-0.5-1.7c0.1-0.8,0.8-1.1,1.7-1c0.1,0,0.1,0,0.1,0c0,0,0-0.1,0-0.1c-0.4-0.4-1.5-1.8-1.4-3.1
		C227.6,951.4,228.8,951.3,230.8,951.5z"/>
	<path class="st0" d="M234.1,963.8c0-0.5-0.3-0.9-0.7-0.9c-1.6-0.1-2.9,3.5-4.9,3.3c-1.5-0.1-2.2-1.6-2.1-3.2
		c0.1-1.6,0.9-2.7,1.7-2.6c0.5,0,0.9,0.4,0.8,1c0,0.1,0,0.2,0,0.2c-0.6,0-1.6,0.7-1.7,1.9c0,0.6,0.2,1,0.8,1c2,0.2,3-3.4,5-3.2
		c1.2,0.1,1.9,1.4,1.8,3c-0.1,1.2-0.5,2.1-1.3,2.1c-0.5,0-0.7-0.4-0.6-0.9c0-0.1,0.1-0.2,0.1-0.2C233.1,965.2,234,964.8,234.1,963.8
		z"/>
	<path class="st0" d="M228.6,968.6l4.9,0.3l0.1-1.4l0.9,0c0,0.3-0.1,1.4-0.1,1.4l1.7,0.1c0.1,0.6,0.3,1.2,0.3,1.5
		c0,0.2-0.1,0.2-0.4,0.2l-1.7-0.1c0,0.1,0,1.8,0.1,2.3c-0.1,0.1-0.2,0.1-0.3,0.1c-0.5,0-0.8-0.4-0.8-1.1c0-0.4,0.1-1.4,0.1-1.4
		l-4.1-0.2c-1.8-0.1-2.1-0.1-2.1,0.7c0,0.5,0.1,1.3,0.3,1.7c0,0.1-0.1,0.2-0.3,0.1c-0.2,0-0.3-0.1-0.4-0.3c-0.4-0.5-0.8-1.8-0.8-2.5
		C226.1,968.9,226.8,968.5,228.6,968.6z"/>
	<path class="st0" d="M232.8,979.8c-0.1,0-0.1,0-0.1,0.1c0,0,0,0.1,0,0.1c0.5,0.4,1.2,1.1,1.2,2.2c0,2.1-2,3.1-3.9,3
		c-2.2,0-4.5-1.8-4.5-4.5c0-0.8,0.3-1.8,0.7-2.5l10.9,0.2c0,0,0.1-0.7,0.2-1.2c0.1-0.4,0.2-0.4,0.3-0.4c0.1,0,0.2,0,0.2,0.1
		c0,0.6,0.1,1.8,0.4,2.7c0,0.1,0.1,0.2,0.1,0.3c0,0.1-0.1,0.2-0.4,0.2L232.8,979.8z M227.1,979.9c-0.3,0.5-0.5,1.2-0.5,1.8
		c0,1,1.7,1.8,3.3,1.8c1.6,0,2.7-0.8,2.7-2.1c0-0.5-0.3-1.1-0.5-1.5L227.1,979.9z"/>
	<path class="st0" d="M229.5,988.3c-1.8,0-2.8,1-2.8,2.4c0,1.2,0.4,2.2,0.6,2.5c0,0.1-0.1,0.2-0.3,0.2c-0.1,0-0.3-0.1-0.4-0.2
		c-0.6-0.7-1.1-1.8-1.1-3c0-2.1,1.6-3.5,3.8-3.6c2.4,0,4.7,1.8,4.7,4c0,1.8-1.4,2.8-4.1,2.8l-0.1-5.1L229.5,988.3z M230.7,991.6
		c0.5,0,2.4-0.2,2.4-1.8c0-0.8-1.5-1.5-2.4-1.5L230.7,991.6z"/>
	<path class="st0" d="M229.1,999.5l4-0.3c0,0,0-0.8,0.1-1.2c0.1-0.4,0.2-0.4,0.3-0.4c0.1,0,0.2,0,0.2,0c0,0.6,0.2,1.8,0.6,2.7
		c0,0.1,0.1,0.2,0.1,0.3c0,0.1-0.1,0.2-0.4,0.2l-4.7,0.3c-1.5,0.1-2.1,0.3-2.1,1.3c0,0.4,0.2,0.7,0.5,1c0.2,0.3,1.1,1,1.4,1l4.3-0.3
		c0,0,0-0.7,0.1-1.2c0.1-0.4,0.2-0.4,0.3-0.4c0.1,0,0.2,0,0.2,0c0,0.6,0.2,1.7,0.6,2.6c0,0.1,0.1,0.2,0.1,0.3c0,0.1-0.1,0.2-0.4,0.2
		l-5.4,0.4c-0.8,0.1-1.5,0.1-1.4,0.5c0,0.3,0.3,0.8,0.4,0.9c0,0.1-0.1,0.2-0.3,0.2c-0.2,0-0.3-0.1-0.4-0.2c-0.1-0.1-0.8-0.9-0.8-1.6
		c0-0.8,0.6-1.2,1.5-1.3c0.1,0,0.1,0,0.1-0.1c0,0,0-0.1,0-0.1c-0.5-0.4-1.8-1.5-1.9-2.8C225.9,1000,227.1,999.6,229.1,999.5z"/>
	<path class="st0" d="M233.4,1016.6l-4.9,0.5l-0.2,1.2c-0.1,0.2-0.1,0.3-0.3,0.3c-0.1,0-0.2,0-0.2,0s-0.1-1.5-0.2-2.3
		c-0.1-0.8-0.3-2.1-0.3-2.1s0.1-0.1,0.2-0.1c0.2,0,0.3,0.1,0.4,0.3l0.5,1l4.3-0.5c1.2-0.1,1.8-0.6,1.7-1.7c0-0.4-0.2-0.8-0.5-1
		s-1.1-0.9-1.4-0.9l-4.5,0.5l-0.2,1.1c-0.1,0.2-0.1,0.3-0.3,0.3c-0.1,0-0.2,0-0.2,0s-0.1-1.4-0.1-2.2c-0.1-0.8-0.3-2.3-0.3-2.3
		s0.1-0.1,0.2-0.1c0.2,0,0.3,0.1,0.4,0.3l0.5,1.2l6.1-0.6c0,0,0-0.7,0.1-1.2c0-0.4,0.2-0.4,0.3-0.4c0.1,0,0.2,0,0.2,0
		c0.1,0.6,0.3,1.6,0.7,2.5c0,0.1,0.1,0.2,0.1,0.3c0,0.1-0.1,0.2-0.4,0.3c0,0-0.9,0.1-1.2,0.1c-0.1,0-0.1,0-0.1,0.1c0,0,0,0.1,0,0.1
		c1.2,0.8,1.9,2.1,2,3.1C235.7,1015.7,234.8,1016.4,233.4,1016.6z"/>
	<path class="st0" d="M236.8,1028.8c0-0.2,0.1-0.3,0.3-0.4c0.1,0,0.2,0,0.2,0s0.1,1.1,0.2,1.8c0.1,0.7,0.3,1.6,0.3,1.6
		s-0.1,0-0.2,0.1c-0.2,0-0.3-0.1-0.4-0.2l-0.4-0.7c-1.1-0.4-4.5-1-7.6-1.6c-0.1,0-0.2-0.4-0.2-0.6c0-0.2-0.1-0.6,0-0.7
		c2-1.1,4.2-2.1,5.6-2.9c-1.6-0.3-3.9-0.7-6.2-1.1c-0.1,0-0.2-0.4-0.2-0.7c0-0.2-0.1-0.6,0-0.6c2.7-1.6,5.8-2.9,6.8-3.7l0.2-0.9
		c0-0.2,0.1-0.3,0.3-0.3c0.1,0,0.2,0,0.2,0s0.1,1.2,0.2,2c0.1,0.8,0.4,2.1,0.4,2.1s-0.1,0-0.2,0.1c-0.2,0-0.3-0.1-0.4-0.2l-0.4-0.8
		c-0.9,0.3-3.4,1.4-5.4,2.5c2.2,0.4,5.8,1,6.7,1l0.2,1c0.1,0.4-0.1,0.5-0.5,0.7c-0.8,0.4-3.6,1.6-5.6,2.6c2.2,0.4,4.9,0.9,5.8,0.9
		L236.8,1028.8z"/>
	<path class="st0" d="M235.7,1040c-2.8,0.5-4.9-1.1-5.3-3.1c-0.4-2.2,1.2-3.8,3.2-4.2c2.5-0.5,4.8,0.9,5.3,3.2
		C239.2,1037.7,238.3,1039.5,235.7,1040z M234.9,1038.3c1.9-0.4,3.2-1.5,2.9-2.9c-0.2-1.3-2.4-1.3-3.4-1.1c-2.5,0.5-3.2,1.8-3,3
		C231.7,1038.4,233.3,1038.6,234.9,1038.3z"/>
	<path class="st0" d="M234.9,1042.8l3.9-0.9c0,0-0.1-0.8-0.1-1.2c0-0.4,0.1-0.4,0.2-0.5c0.1,0,0.2,0,0.2,0c0.1,0.5,0.5,1.7,1,2.5
		c0.1,0.1,0.1,0.2,0.2,0.3c0,0.1,0,0.2-0.3,0.3l-4.5,1.1c-1.4,0.3-2.1,0.6-1.8,1.6c0.1,0.4,0.3,0.6,0.6,0.9c0.3,0.2,1.2,0.8,1.5,0.7
		l4.2-1c0,0-0.1-0.7-0.1-1.2c0-0.4,0.1-0.4,0.2-0.5c0.1,0,0.2,0,0.2,0c0.1,0.5,0.5,1.7,1,2.5c0.1,0.1,0.1,0.2,0.2,0.3
		c0,0.1,0,0.2-0.3,0.3l-5.3,1.2c-0.8,0.2-1.4,0.3-1.3,0.8c0.1,0.3,0.4,0.7,0.5,0.8c0,0.1-0.1,0.2-0.2,0.2c-0.2,0-0.3,0-0.5-0.2
		c-0.1-0.1-0.9-0.8-1.1-1.4c-0.2-0.7,0.4-1.3,1.3-1.5c0.1,0,0.1,0,0.1-0.1c0,0,0,0,0,0c-0.6-0.3-2-1.2-2.3-2.5
		C231.9,1043.8,232.9,1043.3,234.9,1042.8z"/>
	<path class="st0" d="M242,1058.9l-4.8,1.3l0,1.3c0,0.2-0.1,0.3-0.3,0.4c-0.1,0-0.2,0-0.2,0s-0.3-1.5-0.5-2.2s-0.7-2-0.7-2
		s0.1-0.1,0.2-0.1c0.2-0.1,0.3,0,0.4,0.2l0.6,0.9l4.2-1.1c1.2-0.3,1.6-0.9,1.4-1.9c-0.1-0.4-0.3-0.7-0.6-0.9
		c-0.3-0.2-1.2-0.7-1.5-0.7l-4.4,1.2l-0.1,1.1c0,0.2-0.1,0.3-0.3,0.4c-0.1,0-0.2,0-0.2,0s-0.3-1.4-0.5-2.1c-0.2-0.7-0.7-2.2-0.7-2.2
		s0.1-0.1,0.2-0.1c0.2-0.1,0.3,0,0.4,0.2l0.7,1.1l5.9-1.6c0,0-0.1-0.7-0.1-1.2c0-0.4,0.1-0.4,0.2-0.5c0.1,0,0.2,0,0.2,0
		c0.1,0.5,0.6,1.6,1.1,2.4c0.1,0.1,0.1,0.2,0.2,0.3c0,0.1,0,0.2-0.3,0.3c0,0-0.9,0.2-1.2,0.3c-0.1,0-0.1,0-0.1,0.1c0,0,0,0,0,0
		c1.3,0.5,2.3,1.8,2.5,2.7C244.1,1057.8,243.3,1058.6,242,1058.9z"/>
	<path class="st0" d="M239.8,1067.8C239.8,1067.8,239.8,1067.7,239.8,1067.8c-0.6-0.3-1.6-0.7-2-1.8c-0.6-1.9,0.9-3.4,2.8-4
		c2.3-0.7,4.9,0.5,5.6,2.7c0.1,0.4,0.1,1,0.1,1s0,0,0,0c0.3-0.1,3.1-1,3.1-1s-0.1-0.7-0.2-1.2c0-0.4,0.1-0.4,0.2-0.5
		c0.1,0,0.2,0,0.2,0c0.2,0.5,0.7,1.7,1.2,2.4c0.1,0.1,0.2,0.2,0.2,0.2c0,0.1,0,0.2-0.3,0.3l-9.3,2.9c-0.8,0.2-1.4,0.5-1.3,0.9
		c0.1,0.3,0.5,0.7,0.6,0.8c0,0.1-0.1,0.2-0.2,0.2c-0.2,0-0.3,0-0.5-0.1c-0.1,0-1-0.7-1.2-1.3c-0.2-0.5,0-1.2,0.8-1.5
		C239.8,1067.9,239.8,1067.8,239.8,1067.8z M245.1,1066c0.1-0.6,0.1-1.3-0.1-1.9c-0.3-1-2.1-1.2-3.7-0.7c-1.5,0.5-2.4,1.6-2,2.9
		c0.2,0.5,0.5,1,1,1.2L245.1,1066z"/>
	<path class="st0" d="M237.6,1073.6c0.2-0.1,0.8-0.2,0.9-0.1c0,0,0.9,0.7,1.8,0.4c0.9-0.3,1-1.5,1-1.5s0.9-0.1,1.2,0.8
		c0.3,0.8-0.2,1.5-0.8,1.7c-1.7,0.6-4.2-1.1-4.2-1.1C237.4,1073.7,237.5,1073.6,237.6,1073.6z"/>
	<path class="st0" d="M245.5,1080.5l4.5-1.7l-0.5-1.3l0.8-0.3c0.1,0.3,0.5,1.3,0.5,1.3l1.6-0.6c0.3,0.5,0.8,1,0.9,1.2
		c0.1,0.2,0,0.2-0.3,0.3l-1.6,0.6c0.1,0.1,0.7,1.7,1,2c0,0.1-0.1,0.1-0.2,0.2c-0.5,0.2-0.9,0-1.1-0.7c-0.1-0.4-0.5-1.3-0.5-1.3
		l-3.8,1.5c-1.6,0.6-1.9,0.8-1.7,1.5c0.2,0.5,0.7,1.1,0.9,1.4c0,0.1,0,0.2-0.2,0.3c-0.2,0.1-0.3,0-0.5-0.1c-0.6-0.3-1.5-1.3-1.7-1.9
		C243.3,1081.8,243.8,1081.2,245.5,1080.5z"/>
	<path class="st0" d="M253.7,1091.4l-4.6,1.9l0.1,1.3c0,0.2,0,0.3-0.2,0.4c-0.1,0-0.2,0-0.2,0s-0.5-1.5-0.8-2.2
		c-0.3-0.7-0.9-1.9-0.9-1.9s0.1-0.1,0.2-0.1c0.2-0.1,0.3,0,0.5,0.1l0.7,0.8l4-1.7c1.1-0.5,1.5-1.1,1.1-2c-0.2-0.4-0.4-0.6-0.7-0.8
		c-0.3-0.2-1.3-0.6-1.6-0.5l-4.2,1.7l0.1,1.1c0,0.2,0,0.3-0.2,0.4c-0.1,0-0.2,0-0.2,0s-0.5-1.3-0.8-2c-0.3-0.7-1-2.1-1-2.1
		s0.1-0.1,0.2-0.1c0.2-0.1,0.3,0,0.5,0.1l0.8,1l9.6-4c0,0-0.2-0.7-0.3-1.1c-0.1-0.4,0-0.4,0.1-0.5c0.1,0,0.2,0,0.2,0
		c0.2,0.5,0.7,1.5,1.3,2.2c0.1,0.1,0.2,0.2,0.2,0.2c0,0.1,0,0.2-0.3,0.3l-5,2.1c-0.1,0-0.1,0-0.1,0.1c0,0,0.1,0,0.1,0
		c1.4,0.5,2.3,1.3,2.7,2.3C255.6,1090,254.9,1090.9,253.7,1091.4z"/>
	<path class="st0" d="M252.5,1096l3.7-1.7c0,0-0.2-0.7-0.3-1.2c-0.1-0.4,0-0.5,0.1-0.5c0.1,0,0.2,0,0.2,0c0.2,0.5,0.9,1.6,1.5,2.3
		c0.1,0.1,0.2,0.2,0.2,0.2c0.1,0.1,0,0.2-0.3,0.4l-4.2,2c-1.3,0.6-1.9,1-1.4,2c0.2,0.3,0.4,0.6,0.8,0.8c0.3,0.2,1.3,0.5,1.7,0.4
		l3.9-1.8c0,0-0.2-0.7-0.3-1.1c-0.1-0.4,0-0.5,0.1-0.5c0.1,0,0.2,0,0.2,0c0.2,0.5,0.9,1.5,1.5,2.2c0.1,0.1,0.2,0.2,0.2,0.2
		c0.1,0.1,0,0.2-0.3,0.4l-4.9,2.3c-0.7,0.3-1.3,0.6-1.1,1c0.1,0.2,0.5,0.6,0.7,0.7c0,0.1-0.1,0.2-0.2,0.3c-0.1,0.1-0.3,0-0.5-0.1
		c-0.1,0-1.1-0.6-1.3-1.2c-0.3-0.7,0.2-1.4,1-1.7c0.1,0,0.1-0.1,0.1-0.1c0,0-0.1,0-0.1,0c-0.6-0.2-2.2-0.7-2.8-1.9
		C249.8,1097.6,250.7,1096.8,252.5,1096z"/>
	<path class="st0" d="M261.7,1104.8c-0.2-0.5-0.7-0.6-1-0.4c-1.4,0.7-0.7,4.5-2.5,5.4c-1.4,0.7-2.7-0.3-3.4-1.6
		c-0.7-1.4-0.6-2.8,0.1-3.2c0.4-0.2,1-0.1,1.2,0.4c0,0.1,0.1,0.2,0.1,0.2c-0.5,0.3-1,1.5-0.5,2.5c0.3,0.5,0.7,0.7,1.2,0.5
		c1.8-0.9,0.8-4.5,2.6-5.4c1.1-0.6,2.4,0.2,3.1,1.6c0.5,1.1,0.6,2.1-0.1,2.5c-0.4,0.2-0.8,0-1-0.4c0-0.1-0.1-0.2-0.1-0.2
		C261.7,1106.5,262.2,1105.6,261.7,1104.8z"/>
	<path class="st0" d="M265.5,1112.9c0,0-0.3-0.7-0.4-1.1c-0.1-0.4,0-0.5,0.1-0.5c0.1,0,0.2-0.1,0.2-0.1c0.3,0.5,1,1.5,1.6,2.2
		c0.1,0.1,0.2,0.2,0.2,0.2c0.1,0.1,0,0.2-0.2,0.4l-6,3.3l0.3,1.2c0,0.2,0,0.3-0.2,0.4c-0.1,0.1-0.2,0.1-0.2,0.1s-0.7-1.4-1-2.1
		c-0.4-0.7-1.2-2-1.2-2s0.1-0.1,0.2-0.2c0.2-0.1,0.3,0,0.5,0.1l0.9,0.9L265.5,1112.9z M268.4,1112c0.3,0.5,0.9,0.7,1.4,0.4
		c0.5-0.3,0.6-0.9,0.4-1.4c-0.2-0.4-0.9-0.7-1.4-0.4C268.3,1110.9,268.1,1111.6,268.4,1112z"/>
	<path class="st0" d="M264,1119.6l4.2-2.4l-0.7-1.2l0.8-0.4c0.2,0.3,0.7,1.2,0.7,1.2l1.5-0.9c0.4,0.5,1,0.8,1.1,1.1
		c0.1,0.2,0,0.2-0.2,0.4l-1.5,0.9c0.1,0.1,1,1.5,1.4,1.8c0,0.1-0.1,0.2-0.2,0.2c-0.5,0.3-0.9,0.1-1.2-0.5c-0.2-0.3-0.7-1.2-0.7-1.2
		l-3.5,2.1c-1.5,0.9-1.8,1.1-1.4,1.7c0.3,0.4,0.8,1,1.2,1.2c0,0.1,0,0.2-0.2,0.3c-0.2,0.1-0.3,0.1-0.5,0c-0.6-0.2-1.7-1-2-1.6
		C261.9,1121.2,262.4,1120.5,264,1119.6z"/>
	<path class="st0" d="M273,1125.7c0,0-0.3-0.7-0.5-1.1c-0.1-0.4,0-0.5,0-0.5c0.1,0,0.2-0.1,0.2-0.1c0.3,0.5,1.1,1.4,1.8,2.1
		c0.1,0.1,0.2,0.2,0.2,0.2c0.1,0.1,0,0.2-0.2,0.4l-5.9,3.7l0.3,1.2c0,0.2,0,0.3-0.2,0.4c-0.1,0.1-0.2,0.1-0.2,0.1s-0.7-1.4-1.1-2
		c-0.4-0.6-1.3-1.9-1.3-1.9s0-0.1,0.2-0.2c0.2-0.1,0.3-0.1,0.5,0.1l1,0.8L273,1125.7z M275.8,1124.6c0.3,0.5,1,0.7,1.5,0.4
		c0.5-0.3,0.6-0.9,0.3-1.5c-0.3-0.4-0.9-0.6-1.4-0.3C275.7,1123.5,275.5,1124.2,275.8,1124.6z"/>
	<path class="st0" d="M279.5,1127.9c0,0-0.3-0.7-0.5-1.1c-0.1-0.4,0-0.4,0-0.5c0.1,0,0.2-0.1,0.2-0.1c0.3,0.5,1.1,1.4,1.8,2
		c0.1,0.1,0.2,0.1,0.2,0.2c0.1,0.1,0,0.2-0.2,0.4l-9.4,6.2l0.4,1.2c0,0.2,0,0.3-0.1,0.4c-0.1,0.1-0.2,0.1-0.2,0.1s-0.8-1.3-1.2-2
		c-0.4-0.6-1.3-1.9-1.3-1.9s0-0.1,0.2-0.2c0.2-0.1,0.3-0.1,0.5,0.1l1,0.8L279.5,1127.9z"/>
	<path class="st0" d="M282.5,1132.4c0,0-0.3-0.7-0.5-1.1c-0.1-0.4,0-0.4,0-0.5c0.1,0,0.2-0.1,0.2-0.1c0.3,0.5,1.1,1.4,1.8,2
		c0.1,0.1,0.2,0.1,0.2,0.2c0.1,0.1,0,0.2-0.2,0.4l-9.3,6.4l0.4,1.2c0.1,0.2,0,0.3-0.1,0.4c-0.1,0.1-0.2,0.1-0.2,0.1s-0.8-1.3-1.2-2
		c-0.4-0.6-1.4-1.8-1.4-1.8s0-0.1,0.1-0.2c0.2-0.1,0.3-0.1,0.5,0l1,0.8L282.5,1132.4z"/>
	<path class="st0" d="M278.8,1141.6l3.3-2.4c0,0-0.4-0.7-0.6-1.1c-0.2-0.4-0.1-0.4,0-0.5c0.1,0,0.2-0.1,0.2-0.1
		c0.3,0.5,1.2,1.4,1.9,1.9c0.1,0.1,0.2,0.1,0.2,0.2c0.1,0.1,0.1,0.2-0.2,0.4l-3.8,2.8c-1.2,0.9-1.6,1.4-1,2.2
		c0.2,0.3,0.5,0.5,0.9,0.6c0.3,0.1,1.4,0.3,1.7,0.1l3.4-2.5c0,0-0.4-0.6-0.5-1c-0.2-0.4-0.1-0.4,0-0.5c0.1,0,0.2-0.1,0.2-0.1
		c0.3,0.5,1.1,1.3,1.9,1.9c0.1,0.1,0.2,0.1,0.2,0.2c0.1,0.1,0.1,0.2-0.2,0.4l-4.4,3.2c-0.7,0.5-1.2,0.9-0.9,1.2
		c0.2,0.2,0.7,0.5,0.8,0.5c0,0.1,0,0.2-0.1,0.3c-0.1,0.1-0.3,0.1-0.5,0c-0.1,0-1.2-0.4-1.5-0.9c-0.4-0.6-0.1-1.4,0.6-1.9
		c0.1,0,0.1-0.1,0.1-0.1c0,0-0.1,0-0.1,0c-0.6,0-2.3-0.3-3.1-1.4C276.4,1143.7,277.1,1142.8,278.8,1141.6z"/>
	<path class="st0" d="M289.5,1148.5c-0.3-0.4-0.8-0.4-1.1-0.2c-1.3,1,0.2,4.6-1.4,5.8c-1.2,0.9-2.7,0.3-3.7-0.9
		c-1-1.3-1.2-2.6-0.5-3.1c0.4-0.3,0.9-0.3,1.3,0.2c0.1,0.1,0.1,0.2,0.1,0.2c-0.4,0.4-0.7,1.6,0,2.6c0.4,0.5,0.9,0.6,1.3,0.2
		c1.6-1.2-0.1-4.5,1.5-5.8c1-0.8,2.4-0.2,3.3,1c0.7,1,1,1.9,0.4,2.4c-0.4,0.3-0.8,0.1-1.1-0.2c-0.1-0.1-0.1-0.2-0.1-0.2
		C289.8,1150.2,290.1,1149.2,289.5,1148.5z"/>
	<path class="st0" d="M288.8,1155.7l3.8-3.1l-0.9-1.1l0.7-0.6c0.2,0.3,0.9,1.1,0.9,1.1l1.3-1.1c0.5,0.4,1.1,0.7,1.2,0.9
		c0.1,0.2,0.1,0.2-0.2,0.4l-1.3,1.1c0.1,0.1,1.2,1.4,1.6,1.6c0,0.1-0.1,0.2-0.2,0.3c-0.4,0.3-0.8,0.2-1.3-0.3
		c-0.2-0.3-0.9-1.1-0.9-1.1l-3.2,2.6c-1.4,1.1-1.6,1.4-1.1,1.9c0.3,0.4,1,0.9,1.3,1c0,0.1,0,0.2-0.1,0.3c-0.2,0.1-0.3,0.1-0.5,0.1
		c-0.7-0.1-1.8-0.7-2.3-1.3C287,1157.6,287.4,1156.8,288.8,1155.7z"/>
	<path class="st0" d="M299.8,1159.8c0.6,0.7,0.6,1.5,0.1,1.9c-0.5,0.5-1.1,0.2-1.4-0.2c0.2-0.5,0.4-1.2,0-1.6
		c-0.4-0.4-1.9-0.1-2.3,0.2l-3.2,2.8l0.7,1.4c0.1,0.2,0.1,0.3-0.1,0.5c-0.1,0.1-0.2,0.1-0.2,0.1s-1-1.3-1.6-2
		c-0.6-0.6-1.6-1.8-1.6-1.8s0-0.1,0.1-0.2c0.1-0.1,0.3-0.1,0.5,0l1.1,0.7l4.6-4c0,0-0.4-0.7-0.7-1c-0.2-0.4-0.1-0.4,0-0.5
		c0.1,0,0.2-0.1,0.2-0.1c0.4,0.4,1.2,1.2,2,1.7c0.1,0.1,0.2,0.1,0.3,0.2c0.1,0.1,0.1,0.2-0.1,0.4c0,0-0.7,0.6-1,0.8
		c-0.1,0-0.1,0.1-0.1,0.1c0,0,0.1,0,0.1,0C298.4,1159,299.3,1159.2,299.8,1159.8z"/>
	<path class="st0" d="M296.5,1165.7c0.8-0.7,1.7-0.8,2.9-0.4c1.2,0.4,2.3,1.6,2.3,1.6l0.8-0.7c0.7-0.7,0.8-1.4,0.1-2.1
		c-0.4-0.5-1.5-0.2-1.8,0.1c-0.1,0-0.2-0.1-0.3-0.2c-0.3-0.4-0.4-0.9,0-1.3c0.6-0.6,1.9,0,2.8,1c1.3,1.4,1.4,2.8,0.3,3.7l-2.6,2.3
		c-0.6,0.5-1.1,1-0.8,1.4c0.2,0.2,0.8,0.4,0.9,0.4c0,0.1,0,0.2-0.1,0.3c-0.1,0.1-0.3,0.1-0.5,0.1c-0.1,0-1.2-0.2-1.7-0.7
		c-0.4-0.4-0.4-1,0.2-1.7c0.1,0,0.1-0.1,0-0.1c0,0-0.1,0-0.1,0c-0.6,0-1.8,0.1-2.7-0.9C295.4,1167.5,295.7,1166.4,296.5,1165.7z
		 M297.8,1168.2c0.6,0.7,1.7,0.7,1.7,0.7l1.6-1.4c-0.1-0.1-0.3-0.4-0.4-0.5c-0.2-0.2-0.4-0.4-0.5-0.5c-0.6-0.4-1.6-0.4-2.2,0.2
		C297.4,1167.1,297.3,1167.7,297.8,1168.2z"/>
	<path class="st0" d="M303.1,1172l3.5-3.4l-1-1l0.6-0.6c0.2,0.3,0.9,1,0.9,1l1.2-1.2c0.5,0.4,1.1,0.6,1.3,0.8
		c0.1,0.1,0.1,0.2-0.1,0.4l-1.2,1.2c0.1,0.1,1.3,1.3,1.8,1.5c0,0.1-0.1,0.2-0.1,0.3c-0.4,0.4-0.8,0.3-1.3-0.2c-0.3-0.3-0.9-1-0.9-1
		l-2.9,2.8c-1.3,1.2-1.5,1.5-1,2c0.3,0.4,1.1,0.8,1.4,0.9c0,0.1,0,0.2-0.1,0.3c-0.1,0.1-0.3,0.1-0.5,0.1c-0.7-0.1-1.9-0.6-2.4-1.1
		C301.5,1174.1,301.8,1173.3,303.1,1172z"/>
	<path class="st0" d="M308.8,1175.9c-1.2,1.3-1.3,2.7-0.3,3.7c0.8,0.8,1.8,1.3,2.1,1.4c0,0.1,0,0.2-0.1,0.3
		c-0.1,0.1-0.3,0.1-0.5,0.1c-1-0.1-2-0.5-2.9-1.4c-1.5-1.5-1.3-3.7,0.2-5.2c1.7-1.7,4.6-2,6.2-0.4c1.3,1.3,0.9,2.9-1,4.9l-3.6-3.6
		L308.8,1175.9z M311.9,1177.5c0.4-0.4,1.6-1.9,0.5-2.9c-0.6-0.6-2.1-0.1-2.8,0.6L311.9,1177.5z"/>
	<path class="st0" d="M318,1179.7c-0.4-0.4-0.9-0.3-1.1,0c-1.1,1.2,0.9,4.5-0.5,5.9c-1,1.1-2.6,0.7-3.8-0.4c-1.2-1.1-1.6-2.4-1-3
		c0.3-0.4,0.9-0.4,1.3,0c0.1,0.1,0.2,0.2,0.2,0.2c-0.3,0.5-0.4,1.7,0.4,2.5c0.4,0.4,0.9,0.4,1.3,0c1.4-1.4-0.8-4.5,0.6-6
		c0.8-0.9,2.3-0.6,3.4,0.4c0.9,0.8,1.3,1.8,0.8,2.3c-0.3,0.3-0.7,0.3-1.1,0c-0.1-0.1-0.1-0.2-0.1-0.2
		C318.5,1181.3,318.7,1180.3,318,1179.7z"/>
	<path class="st0" d="M321,1189.2l3.2-3.7l-1-0.9l0.6-0.7c0.2,0.2,1,0.9,1,0.9l1.1-1.3c0.5,0.3,1.2,0.5,1.4,0.6
		c0.1,0.1,0.1,0.2-0.1,0.4l-1.1,1.3c0.1,0.1,1.4,1.1,1.9,1.3c0,0.1-0.1,0.2-0.1,0.3c-0.3,0.4-0.8,0.4-1.3,0c-0.3-0.2-1-0.9-1-0.9
		l-2.7,3.1c-1.2,1.3-1.3,1.6-0.8,2.1c0.4,0.3,1.1,0.7,1.5,0.8c0,0.1,0.1,0.2-0.1,0.3c-0.1,0.1-0.3,0.2-0.5,0.2
		c-0.7,0-1.9-0.4-2.4-0.9C319.6,1191.4,319.8,1190.6,321,1189.2z"/>
	<path class="st0" d="M333.4,1195l-3.1,3.8l0.7,1c0.1,0.2,0.1,0.3,0,0.5c-0.1,0.1-0.2,0.1-0.2,0.1s-1.1-1-1.7-1.5
		c-0.6-0.5-1.7-1.3-1.7-1.3s0-0.1,0.1-0.2c0.1-0.2,0.3-0.2,0.5-0.1l1,0.4l2.7-3.3c0.8-0.9,0.8-1.7,0-2.3c-0.3-0.3-0.7-0.4-1-0.4
		s-1.4,0.1-1.6,0.3l-2.9,3.5l0.6,1c0.1,0.2,0.1,0.3,0,0.5c-0.1,0.1-0.2,0.1-0.2,0.1s-1-1-1.6-1.4c-0.6-0.5-1.8-1.4-1.8-1.4
		s0-0.1,0.1-0.2c0.1-0.2,0.3-0.2,0.5-0.1l1.2,0.5l6.6-8.1c0,0-0.5-0.5-0.8-0.9c-0.2-0.3-0.2-0.4-0.1-0.5c0-0.1,0.1-0.1,0.2-0.1
		c0.4,0.4,1.3,0.9,2.2,1.3c0.1,0,0.2,0.1,0.3,0.1c0.1,0.1,0.1,0.2-0.1,0.4l-3.5,4.2c0,0.1-0.1,0.1,0,0.1c0,0,0.1,0,0.1,0
		c1.5-0.2,2.7,0.1,3.5,0.7C334.4,1192.9,334.2,1194,333.4,1195z"/>
	<path class="st0" d="M335.4,1199.3c-1.1,1.4-0.9,2.8,0.2,3.7c0.9,0.7,2,1.1,2.3,1.1c0,0.1,0.1,0.2,0,0.3c-0.1,0.1-0.3,0.2-0.5,0.2
		c-1,0.1-2.1-0.3-3-1c-1.7-1.3-1.8-3.5-0.5-5.2c1.5-1.9,4.3-2.5,6.1-1.2c1.4,1.1,1.3,2.8-0.4,5l-4.1-3.1L335.4,1199.3z
		 M338.7,1200.4c0.3-0.4,1.3-2,0.1-3c-0.7-0.5-2.1,0.2-2.7,1L338.7,1200.4z"/>
	<path class="st0" d="M346.3,1210.4C346.2,1210.4,346.2,1210.4,346.3,1210.4c-0.7,0.2-1.7,0.4-2.6-0.2c-1.6-1.1-1.4-3.3-0.3-4.9
		c1.4-2,4.2-2.6,6.1-1.3c0.3,0.2,0.6,0.7,0.7,0.7c0,0,0,0,0.1,0c0.2-0.3,1.8-2.7,1.8-2.7s-0.6-0.5-0.9-0.8c-0.3-0.3-0.2-0.4-0.2-0.5
		c0-0.1,0.1-0.1,0.2-0.1c0.5,0.3,1.5,0.9,2.4,1.2c0.1,0,0.2,0.1,0.3,0.1c0.1,0.1,0.1,0.2,0,0.4l-5.5,8c-0.5,0.7-0.8,1.2-0.5,1.5
		c0.2,0.2,0.8,0.2,0.9,0.2c0,0.1,0.1,0.2,0,0.3c-0.1,0.1-0.3,0.2-0.4,0.2c-0.1,0-1.2,0.1-1.8-0.3c-0.5-0.3-0.7-0.9-0.3-1.7
		C346.3,1210.4,346.3,1210.4,346.3,1210.4z M349.4,1205.8c-0.3-0.5-0.7-1.1-1.2-1.5c-0.8-0.6-2.4,0.4-3.3,1.7
		c-0.9,1.3-0.9,2.7,0.2,3.5c0.4,0.3,1,0.4,1.5,0.4L349.4,1205.8z"/>
	<path class="st0" d="M353.9,1208.5c0,0-0.6-0.5-0.9-0.8c-0.3-0.3-0.2-0.4-0.2-0.5c0-0.1,0.1-0.1,0.2-0.2c0.5,0.3,1.6,0.9,2.5,1.1
		c0.1,0,0.2,0.1,0.3,0.1c0.1,0.1,0.1,0.2,0,0.4l-3.8,5.8l0.8,1c0.1,0.2,0.2,0.3,0,0.5c-0.1,0.1-0.1,0.2-0.1,0.2s-1.2-0.9-1.9-1.3
		c-0.6-0.4-2-1.2-2-1.2s0-0.1,0.1-0.2c0.1-0.2,0.3-0.2,0.5-0.1l1.2,0.4L353.9,1208.5z M356.1,1206.4c0.5,0.3,1.2,0.2,1.5-0.3
		c0.3-0.5,0.1-1.1-0.3-1.4c-0.4-0.3-1.1-0.2-1.4,0.3C355.5,1205.4,355.6,1206.1,356.1,1206.4z"/>
	<path class="st0" d="M368.8,1211.3c1.3,0.8,2,2,1.5,2.7c-0.3,0.5-0.8,0.5-1.3,0.2c0-0.5-0.3-1.9-1.3-2.5c-0.5-0.3-1.2,0-2,1.3
		l-0.8,1.3c1.8,1.1,3.6,2.1,4.6,2.4c0.1,0,0.2,0,0.3,0.1c0.1,0.1,0.1,0.2,0,0.4l-3.6,6.1l0.8,0.9c0.1,0.2,0.2,0.3,0.1,0.5
		c-0.1,0.1-0.1,0.2-0.1,0.2s-1.3-0.9-1.9-1.3s-1.9-1-1.9-1s0-0.1,0.1-0.2c0.1-0.2,0.3-0.2,0.4-0.2l1.1,0.3l3.2-5.3l-3.4-2l-3.2,5.3
		l0.9,0.9c0.1,0.1,0.2,0.3,0.1,0.5c-0.1,0.1-0.1,0.2-0.1,0.2s-1.3-0.9-2-1.3c-0.6-0.4-2-1.1-2-1.1s0-0.1,0.1-0.2
		c0.1-0.2,0.3-0.2,0.4-0.2l1.2,0.3l3.2-5.3l-3.2-1.9l-3.2,5.3l0.8,0.9c0.1,0.1,0.2,0.3,0.1,0.5c-0.1,0.1-0.1,0.2-0.1,0.2
		s-1.3-0.9-1.9-1.3s-2-1.1-2-1.1s0-0.1,0.1-0.2c0.1-0.2,0.3-0.2,0.4-0.2l1.2,0.3l3.2-5.3c0,0-1-0.6-1.2-0.7l0.5-0.8
		c0.3,0.2,1.2,0.8,1.2,0.8l0.2-0.3c1.3-2.1,3.3-2.3,4.8-1.4c0.9,0.6,1.6,1.4,1.9,2.1C366.8,1210.7,367.9,1210.8,368.8,1211.3z
		 M364.3,1212.3c0.1-0.6-0.2-2.1-1.3-2.7c-0.7-0.4-1.3-0.2-2.1,1.2l-0.5,0.8l3.2,1.9L364.3,1212.3z"/>
	<path class="st0" d="M374.6,1220.7c-0.2-0.1-0.5-0.1-0.8,0c-0.9,0.3-1.6,0.8-2.2,2.1c-0.7,1.4-0.7,3,0.6,3.7
		c0.7,0.4,1.9,0.8,2.4,0.7c0,0.1,0.1,0.2,0,0.3c-0.1,0.2-0.2,0.2-0.4,0.3c-0.8,0.2-2.2,0-3.1-0.5c-1.8-1-2.1-3.2-1.1-5
		c1.1-2.1,4-3,6-1.9c0.9,0.5,1.7,1.3,1.3,2c-0.3,0.6-0.9,0.5-1.4,0.2C375.8,1221.9,375.5,1221.1,374.6,1220.7z"/>
	<path class="st0" d="M377.5,1227.1l1.8-3.6c0,0-0.6-0.4-1-0.7c-0.3-0.3-0.3-0.4-0.2-0.5c0-0.1,0.1-0.1,0.1-0.2
		c0.5,0.3,1.7,0.7,2.6,0.9c0.1,0,0.2,0,0.3,0c0.1,0.1,0.2,0.2,0,0.4l-2.1,4.2c-0.7,1.3-0.8,2,0.1,2.4c0.3,0.2,0.7,0.2,1.1,0.1
		c0.3,0,1.4-0.4,1.5-0.7l1.9-3.8c0,0-0.6-0.4-0.9-0.7c-0.3-0.3-0.3-0.4-0.2-0.5c0-0.1,0.1-0.1,0.1-0.2c0.5,0.3,1.6,0.7,2.5,0.8
		c0.1,0,0.2,0,0.3,0c0.1,0.1,0.2,0.2,0,0.4l-2.4,4.8c-0.4,0.7-0.6,1.3-0.3,1.5c0.2,0.1,0.8,0.1,0.9,0.1c0,0.1,0.1,0.2,0,0.3
		c-0.1,0.1-0.2,0.2-0.4,0.3c-0.1,0-1.2,0.2-1.8-0.1c-0.7-0.3-0.7-1.2-0.3-2c0-0.1,0.1-0.1,0-0.1c0,0-0.1,0-0.1,0
		c-0.6,0.3-2.2,0.8-3.4,0.2C376.4,1230,376.6,1228.9,377.5,1227.1z"/>
	<path class="st0" d="M390.3,1224.1c0,0-0.6-0.4-1-0.7c-0.3-0.3-0.3-0.4-0.2-0.4c0-0.1,0.1-0.1,0.1-0.2c0.5,0.2,1.7,0.6,2.6,0.8
		c0.1,0,0.2,0,0.3,0c0.1,0.1,0.2,0.2,0,0.4l-4.8,10.2l0.9,0.8c0.1,0.1,0.2,0.3,0.1,0.4c-0.1,0.1-0.1,0.2-0.1,0.2s-1.4-0.7-2-1.1
		c-0.7-0.3-2.1-0.9-2.1-0.9s0-0.1,0-0.2c0.1-0.2,0.2-0.2,0.4-0.2l1.3,0.2L390.3,1224.1z"/>
	<path class="st0" d="M391.2,1234.3l2-4.4l-1.3-0.6l0.4-0.8c0.3,0.2,1.3,0.6,1.3,0.6l0.7-1.5c0.6,0.2,1.3,0.1,1.5,0.2
		c0.2,0.1,0.2,0.2,0,0.4l-0.7,1.6c0.1,0.1,1.7,0.7,2.2,0.7c0,0.1,0,0.2,0,0.3c-0.2,0.5-0.6,0.6-1.3,0.3c-0.3-0.2-1.2-0.6-1.2-0.6
		l-1.7,3.7c-0.7,1.6-0.8,1.9-0.1,2.2c0.5,0.2,1.3,0.3,1.7,0.3c0,0.1,0.1,0.2,0,0.3c-0.1,0.2-0.2,0.2-0.4,0.3c-0.6,0.2-2,0.2-2.6-0.1
		C390.5,1236.8,390.4,1236,391.2,1234.3z"/>
	<path class="st0" d="M398.9,1232.7c0,0-0.6-0.4-1-0.6c-0.3-0.2-0.3-0.4-0.2-0.4c0-0.1,0.1-0.2,0.1-0.2c0.5,0.2,1.7,0.6,2.6,0.7
		c0.1,0,0.3,0,0.3,0c0.1,0,0.2,0.2,0.1,0.4l-2.7,6.4l1,0.8c0.2,0.1,0.2,0.3,0.1,0.4c0,0.1-0.1,0.2-0.1,0.2s-1.4-0.7-2.1-1
		s-2.2-0.8-2.2-0.8s0-0.1,0-0.2c0.1-0.2,0.2-0.2,0.4-0.2l1.3,0.1L398.9,1232.7z M400.6,1230.2c0.5,0.2,1.2,0,1.4-0.5
		c0.2-0.5-0.1-1.1-0.6-1.3c-0.5-0.2-1.1,0-1.3,0.5C399.9,1229.4,400.1,1230,400.6,1230.2z"/>
	<path class="st0" d="M403,1237.9c-0.7,1.6-0.1,3,1.2,3.5c1.1,0.4,2.2,0.5,2.5,0.4c0.1,0.1,0.1,0.2,0.1,0.3
		c-0.1,0.1-0.2,0.2-0.4,0.3c-0.9,0.3-2.1,0.3-3.2-0.2c-2-0.8-2.6-2.9-1.8-4.9c0.9-2.2,3.5-3.6,5.5-2.8c1.7,0.7,2,2.3,1,4.9l-4.7-1.9
		L403,1237.9z M406.5,1238.1c0.2-0.5,0.7-2.3-0.7-2.9c-0.8-0.3-2,0.8-2.3,1.7L406.5,1238.1z"/>
	<path class="st0" d="M412.8,1237.7c-0.5-0.2-0.9,0.1-1.1,0.4c-0.6,1.5,2.6,3.8,1.9,5.6c-0.5,1.4-2.2,1.7-3.6,1.1
		c-1.5-0.6-2.4-1.6-2.1-2.4c0.2-0.5,0.7-0.7,1.2-0.5c0.1,0,0.2,0.1,0.2,0.1c-0.1,0.6,0.3,1.8,1.4,2.2c0.5,0.2,1,0,1.2-0.5
		c0.7-1.9-2.5-3.8-1.8-5.7c0.4-1.2,1.9-1.5,3.3-0.9c1.1,0.4,1.9,1.1,1.6,1.8c-0.2,0.4-0.6,0.5-1,0.4c-0.1,0-0.2-0.1-0.2-0.1
		C413.9,1239,413.7,1238,412.8,1237.7z"/>
	<path class="st0" d="M419,1245.3l1.5-4.6l-1.3-0.4l0.3-0.8c0.3,0.1,1.3,0.5,1.3,0.5l0.5-1.6c0.6,0.1,1.3,0,1.5,0.1
		c0.2,0.1,0.2,0.2,0.1,0.4l-0.5,1.6c0.1,0,1.8,0.5,2.2,0.5c0,0.1,0,0.2,0,0.3c-0.2,0.5-0.6,0.7-1.2,0.5c-0.4-0.1-1.3-0.4-1.3-0.4
		l-1.3,3.9c-0.6,1.7-0.6,2,0.1,2.2c0.5,0.2,1.3,0.2,1.7,0.2c0,0.1,0.1,0.2,0.1,0.3c-0.1,0.2-0.2,0.3-0.4,0.3
		c-0.6,0.3-1.9,0.3-2.6,0.1C418.6,1247.8,418.5,1247,419,1245.3z"/>
	<path class="st0" d="M432.4,1245.8l-1.4,4.7l1.1,0.7c0.2,0.1,0.2,0.2,0.2,0.4c0,0.1-0.1,0.2-0.1,0.2s-1.5-0.5-2.2-0.8
		s-2.1-0.5-2.1-0.5s0-0.1,0-0.2c0.1-0.2,0.2-0.3,0.4-0.3l1.1,0l1.2-4.1c0.3-1.2,0.1-1.9-0.9-2.2c-0.4-0.1-0.7-0.1-1.1,0
		c-0.3,0.1-1.3,0.7-1.3,0.9l-1.3,4.3l0.9,0.7c0.2,0.1,0.2,0.2,0.2,0.4c0,0.1-0.1,0.2-0.1,0.2s-1.3-0.5-2-0.7s-2.2-0.6-2.2-0.6
		s0-0.1,0-0.2c0.1-0.2,0.2-0.3,0.4-0.3l1.3,0l3-10c0,0-0.7-0.3-1.1-0.5c-0.4-0.2-0.3-0.3-0.3-0.4c0-0.1,0.1-0.2,0.1-0.2
		c0.5,0.2,1.6,0.4,2.5,0.4c0.1,0,0.2,0,0.3,0c0.1,0,0.2,0.1,0.1,0.4l-1.6,5.2c0,0.1,0,0.1,0,0.1c0,0,0.1,0,0.1,0
		c1.3-0.7,2.5-0.9,3.5-0.6C432.5,1243.4,432.8,1244.5,432.4,1245.8z"/>
	<path class="st0" d="M433.3,1250.3c0.3-1,1-1.6,2.2-1.9c1.2-0.3,2.8,0.1,2.8,0.1l0.3-1c0.3-1-0.1-1.6-1-1.9c-0.6-0.2-1.4,0.7-1.5,1
		c-0.1,0-0.2,0-0.4,0c-0.5-0.1-0.8-0.6-0.7-1.1c0.2-0.8,1.6-1,2.9-0.6c1.9,0.5,2.6,1.6,2.3,3l-0.9,3.4c-0.2,0.8-0.4,1.4,0.1,1.6
		c0.3,0.1,0.9-0.1,1-0.1c0.1,0.1,0.1,0.2,0.1,0.3c0,0.2-0.2,0.3-0.4,0.3c-0.1,0-1.1,0.5-1.8,0.3c-0.5-0.1-0.9-0.7-0.7-1.6
		c0-0.1,0-0.1,0-0.1c0,0-0.1,0-0.1,0c-0.5,0.4-1.5,1.1-2.8,0.7C433.4,1252.4,433,1251.3,433.3,1250.3z M435.8,1251.7
		c0.9,0.2,1.8-0.3,1.8-0.3l0.6-2.1c-0.2-0.1-0.4-0.2-0.7-0.2c-0.2-0.1-0.5-0.1-0.7-0.1c-0.7,0-1.5,0.5-1.7,1.3
		C434.8,1251,435.1,1251.5,435.8,1251.7z"/>
	<path class="st0" d="M442.1,1252l1.2-4.7l-1.3-0.3l0.2-0.9c0.3,0.1,1.4,0.4,1.4,0.4l0.4-1.6c0.6,0.1,1.3-0.1,1.5-0.1
		c0.2,0,0.2,0.1,0.1,0.4l-0.4,1.7c0.1,0,1.8,0.3,2.3,0.3c0,0.1,0,0.2,0,0.3c-0.1,0.5-0.5,0.7-1.2,0.5c-0.4-0.1-1.3-0.3-1.3-0.3l-1,4
		c-0.4,1.7-0.5,2,0.3,2.2c0.5,0.1,1.3,0.1,1.7,0c0,0,0.1,0.1,0.1,0.3c0,0.2-0.2,0.3-0.3,0.4c-0.6,0.3-1.9,0.5-2.6,0.3
		C441.9,1254.6,441.7,1253.8,442.1,1252z"/>
	<path class="st0" d="M458.8,1251.5C458.8,1251.5,458.8,1251.5,458.8,1251.5c1.1-1,2.7-1.3,3.5-1.1c1.5,0.3,1.9,1.4,1.7,2.7l-1,4.9
		l1.1,0.6c0.2,0.1,0.3,0.2,0.2,0.4c0,0.1-0.1,0.2-0.1,0.2s-1.5-0.4-2.2-0.5c-0.7-0.1-2.1-0.3-2.1-0.3s0-0.1,0-0.2
		c0-0.2,0.2-0.3,0.4-0.3l1.1-0.1l0.8-4.2c0.2-1.2-0.1-1.9-1.1-2.1c-0.4-0.1-0.8,0-1.1,0.1c-0.3,0.2-1.2,0.8-1.2,1l-0.9,4.4l1,0.6
		c0.2,0.1,0.3,0.2,0.2,0.4c0,0.1-0.1,0.2-0.1,0.2s-1.4-0.4-2.1-0.5c-0.7-0.1-2.1-0.3-2.1-0.3s0-0.1,0-0.2c0-0.2,0.2-0.3,0.4-0.3
		l1.1-0.1l0.8-4.2c0.2-1.2-0.1-1.9-1.1-2.1c-0.4-0.1-0.8,0-1.1,0.1c-0.3,0.2-1.2,0.8-1.3,1l-0.9,4.4l1,0.6c0.2,0.1,0.3,0.2,0.2,0.4
		c0,0.1-0.1,0.2-0.1,0.2s-1.4-0.4-2.1-0.5c-0.7-0.1-2.3-0.4-2.3-0.4s0-0.1,0-0.2c0-0.2,0.2-0.3,0.4-0.3l1.3-0.1l1.2-6
		c0,0-0.7-0.2-1.1-0.4c-0.4-0.2-0.3-0.3-0.3-0.4c0-0.1,0.1-0.2,0.1-0.2c0.5,0.1,1.6,0.2,2.5,0.1c0.1,0,0.2,0,0.3,0
		c0.1,0,0.2,0.1,0.1,0.4c0,0-0.2,0.9-0.3,1.2c0,0.1,0,0.1,0,0.1c0,0,0.1,0,0.1,0c1.1-1,2.6-1.2,3.5-1.1c1.1,0.2,1.6,0.9,1.6,2
		C458.7,1251.5,458.7,1251.5,458.8,1251.5z"/>
	<path class="st0" d="M466.6,1256.5l0.6-4c0,0-0.7-0.2-1.1-0.4c-0.4-0.1-0.4-0.3-0.3-0.4c0-0.1,0.1-0.2,0.1-0.2
		c0.6,0.1,1.8,0.2,2.7,0c0.1,0,0.2-0.1,0.3,0c0.1,0,0.2,0.1,0.2,0.4l-0.7,4.6c-0.2,1.4-0.2,2.1,0.8,2.3c0.4,0.1,0.7-0.1,1.1-0.2
		c0.3-0.2,1.2-0.8,1.3-1.2l0.7-4.2c0,0-0.7-0.2-1.1-0.4c-0.4-0.2-0.4-0.3-0.3-0.4c0-0.1,0.1-0.2,0.1-0.2c0.6,0.1,1.7,0.1,2.7,0
		c0.1,0,0.2-0.1,0.3,0c0.1,0,0.2,0.1,0.2,0.4l-0.8,5.4c-0.1,0.8-0.2,1.4,0.2,1.5c0.3,0,0.8-0.1,0.9-0.2c0.1,0,0.1,0.2,0.1,0.3
		c0,0.2-0.2,0.3-0.3,0.4c-0.1,0-1.1,0.6-1.7,0.5c-0.7-0.1-1-0.9-0.9-1.8c0-0.1,0-0.1,0-0.1c0,0-0.1,0-0.1,0
		c-0.5,0.4-1.8,1.5-3.2,1.3C466.5,1259.7,466.3,1258.5,466.6,1256.5z"/>
	<path class="st0" d="M478.9,1253.8c-0.5-0.1-0.9,0.3-1,0.6c-0.2,1.6,3.3,3.1,3.1,5.1c-0.2,1.5-1.7,2.1-3.3,1.9
		c-1.6-0.2-2.7-1-2.6-1.9c0.1-0.5,0.5-0.9,1-0.8c0.1,0,0.2,0,0.2,0c0,0.6,0.7,1.7,1.8,1.8c0.6,0.1,1-0.2,1.1-0.7
		c0.3-2-3.3-3.2-3-5.2c0.2-1.2,1.5-1.9,3-1.7c1.2,0.2,2.1,0.7,2,1.4c-0.1,0.5-0.4,0.6-0.9,0.6c-0.1,0-0.2-0.1-0.2-0.1
		C480.2,1254.8,479.8,1253.9,478.9,1253.8z"/>
	<path class="st0" d="M483.1,1259.4l0.5-4.8l-1.4-0.2l0.1-0.9c0.3,0.1,1.4,0.2,1.4,0.2l0.2-1.7c0.6,0,1.3-0.3,1.5-0.3
		c0.2,0,0.2,0.1,0.2,0.4l-0.2,1.7c0.1,0,1.8,0.1,2.3,0c0,0.1,0.1,0.2,0.1,0.3c-0.1,0.5-0.4,0.8-1.1,0.7c-0.4,0-1.4-0.2-1.4-0.2
		l-0.4,4.1c-0.2,1.8-0.2,2.1,0.5,2.2c0.5,0.1,1.3-0.1,1.7-0.2c0,0,0.1,0.1,0.1,0.3c0,0.2-0.1,0.3-0.3,0.4c-0.5,0.4-1.8,0.7-2.5,0.7
		C483.2,1262,483,1261.2,483.1,1259.4z"/>
	<path class="st0" d="M494.2,1255.8c0,0.1,0,0.1,0,0.1c0,0,0.1,0,0.1,0c0.4-0.5,1.2-1.1,2.3-1.1c2.1,0.2,2.9,2.2,2.8,4
		c-0.2,2.2-2.1,4.4-4.7,4.2c-0.8-0.1-1.8-0.4-2.5-0.8l0.8-10.9c0,0-0.7-0.1-1.2-0.3c-0.4-0.1-0.4-0.2-0.4-0.3c0-0.1,0-0.2,0.1-0.2
		c0.6,0,1.8,0,2.7-0.2c0.1,0,0.2-0.1,0.3-0.1c0.1,0,0.2,0.1,0.2,0.4L494.2,1255.8z M493.9,1261.5c0.5,0.3,1.2,0.6,1.8,0.6
		c1,0.1,1.9-1.6,2-3.1c0.1-1.6-0.6-2.8-1.9-2.9c-0.5,0-1.2,0.2-1.5,0.4L493.9,1261.5z"/>
	<path class="st0" d="M502.2,1259.6c-0.1,1.8,0.8,2.9,2.2,2.9c1.2,0.1,2.2-0.2,2.5-0.4c0.1,0,0.2,0.1,0.1,0.3c0,0.1-0.1,0.3-0.3,0.4
		c-0.8,0.6-1.9,0.9-3.1,0.9c-2.1-0.1-3.4-1.9-3.3-4c0.1-2.4,2.1-4.5,4.3-4.4c1.8,0.1,2.7,1.6,2.5,4.3l-5.1-0.3L502.2,1259.6z
		 M505.6,1258.8c0-0.5-0.1-2.4-1.6-2.5c-0.8,0-1.6,1.4-1.7,2.3L505.6,1258.8z"/>
</g>
</svg>
