<?xml version="1.0" encoding="utf-8"?>
<!-- Generator: Adobe Illustrator 22.1.0, SVG Export Plug-In . SVG Version: 6.00 Build 0)  -->
<svg version="1.1" id="alverata" xmlns="http://www.w3.org/2000/svg" xmlns:xlink="http://www.w3.org/1999/xlink" x="0px" y="0px"
	 viewBox="0 0 1564 1316.5" style="enable-background:new 0 0 1564 1316.5;" xml:space="preserve">
<style type="text/css">
	.st0{fill:#9EC6BD;}
</style>
<g>
	<path class="st0" d="M313.9,1152.1c-0.2,1.5-0.2,2.3-0.2,2.3c0,0-0.5-0.7-1.1-1.2c-0.7-0.5-2-0.8-3.6-0.9l-4.5-0.1l-1.4,9.7
		l3.7,0.1c1.6,0,3-0.1,3.9-0.6c1.1-0.6,1.4-0.9,1.4-0.9s-0.3,1-0.5,2.8c-0.3,1.7-0.3,2.7-0.3,2.7s-0.2-0.4-1.1-1
		c-0.7-0.5-2.1-0.7-3.7-0.8l-3.7-0.1c-0.4,2.9-1.1,7.2-1.1,8.7c0,1.1,0.1,1.7,0.4,2.4l0.2,0.6c0,0-0.7-0.1-2.8-0.1c-2.1,0-3,0-3,0
		l0.4-0.6c0.9-1.4,1.2-1.7,2.7-12.4c0.4-2.7,1.2-8,1.2-9.6c0-1.1-0.1-1.7-0.3-2.4l-0.2-0.6c0,0,0.9,0.1,2.7,0.1l11.3,0.2
		C314.3,1150.3,314.1,1151,313.9,1152.1z"/>
	<path class="st0" d="M322.2,1176.4c-5.8-0.1-7.2-3.9-7.1-9.1c0-3,1.5-12.3,9.5-12.1c5.8,0.1,7.2,3.9,7.1,9.1
		C331.7,1167.2,330.2,1176.5,322.2,1176.4z M324.5,1157.4c-5.1-0.1-5.9,8.2-5.9,10.6c-0.1,5.8,2.1,6.3,3.8,6.3
		c5.1,0.1,5.9-8.2,5.9-10.6C328.3,1157.9,326.2,1157.4,324.5,1157.4z"/>
	<path class="st0" d="M340.4,1162.8c-0.9,7.3-1.1,9.6-1.1,10.2c0,0.6,0.1,0.9,0.7,1.4l0.5,0.4c0,0-0.8,1.5-2.8,1.5
		c-1.8,0-1.9-1.2-1.9-1.9c0-2.6,2.7-19.6,2.6-23.2c0-1-0.1-1.7-0.4-2.2l-0.3-0.5l4.7-1C342.4,1147.6,342,1149.6,340.4,1162.8z"/>
	<path class="st0" d="M364.8,1175l-0.4,0.5c0,0-0.7-0.1-1.8,0c-1.1,0-1.8,0.1-1.8,0.1l-2.1-15.1c-0.2-1.1-0.2-2.3-0.2-2.4
		c0,0.1-0.2,1.1-0.6,2.4l-5.1,15.3c0,0-0.7-0.1-2.1,0c-1.4,0-2.2,0.1-2.2,0.1l-2.6-16.2c-0.3-1.4-0.8-2.4-1.2-3l-0.4-0.6l4.2-1
		c0,0,0.2,0.8,1,6l1.5,10.3c0.1,1,0.2,2,0.2,2.1c0-0.1,0.2-0.8,0.6-2.1l5.4-16.2c0,0,0.8,0.1,1.9,0s1.9-0.1,1.9-0.1l2.3,16.1
		c0.2,1.4,0.2,2.1,0.2,2.1s5.3-10,5.1-15.8c0-1.7-1.1-2.1-1.1-2.1s0.8-0.8,2.2-0.8c2,0,2.2,1.5,2.2,2.2
		C372,1162.1,367.1,1171.8,364.8,1175z"/>
	<path class="st0" d="M383.6,1174c-3.4,6.2-5.1,8.7-8.7,8.8c-2.1,0.1-2.8-0.3-2.8-0.3s0.2-0.6,0.2-1.7c0.1-1.1,0.1-2,0.1-2
		c0.9,1.5,1.7,1.9,2.5,1.9c1.3-0.1,2.3-0.5,4.9-5l-4.2-16.8c-0.4-1.4-0.8-2.4-1.3-2.9l-0.5-0.6l4.5-1.1c0,0,0.3,1.9,1.5,7.6l1.7,7.6
		c0.4,1.8,0.5,2.8,0.5,2.8c0.1-0.4,5.2-10.5,5-15.7c-0.1-1.7-1.1-2.1-1.1-2.1s0.8-0.8,2.2-0.9c2.1-0.1,2.2,1.4,2.2,2.1
		C390.4,1160.2,386,1169.6,383.6,1174z"/>
	<path class="st0" d="M408.3,1170.5c0,0.6,0.1,0.9,0.8,1.4l0.5,0.3c0,0-0.8,1.5-2.7,1.6c-1.8,0.1-2-1.1-2.1-1.8
		c-0.1-1.8,1.1-11.4,1-14.3c0-0.8-0.2-2.4-2.4-2.2c-2.1,0.1-3.7,1.5-5.5,4.5l-0.3,4.4c-0.6,7.7-0.6,9.8-0.6,9.8s-0.8,0-1.8,0
		c-0.9,0.1-1.8,0.2-1.8,0.2s0.3-2.3,1-10.3c0.3-3.5,0.4-6.1,0.4-7.1c0-0.6-0.2-1.5-0.6-2.1l-0.2-0.3l4.5-1.2l-0.6,6.5
		c2.3-6.3,5.3-6.9,7.1-7c4.1-0.2,4.4,2.7,4.5,4C409.3,1159,408.2,1168.5,408.3,1170.5z"/>
	<path class="st0" d="M429.2,1161.1l-0.4,9.1c-0.1,2.7-0.2,5.4-2,7.4c-1.5,1.7-3.9,2.4-6.4,2.6c-4.2,0.3-6.5-0.2-6.5-0.2
		s0.2-0.8,0.3-2.1c0.1-1.5,0.1-2.6,0.1-2.6c1.4,2.3,2.3,3.1,5.6,2.8c4.6-0.4,5.5-2.6,5.7-6.4l0.1-1.1c0.1-2.4,0.4-4.6,0.4-4.6
		c-2.1,6.4-4.8,6.9-6.5,7c-3.3,0.3-5.3-1.8-5.7-6.7c-0.2-2.6-0.5-14,8.5-14.8c3.3-0.3,4.8,1.3,4.8,1.3l3-1.9
		C430,1150.8,429.6,1153.5,429.2,1161.1z M422.8,1153.7c-5.3,0.4-6,7.3-5.6,12.1c0.2,2.9,0.9,4.7,3.2,4.5c1-0.1,2.8-0.4,5.3-4.6
		l0.6-11.4C426.4,1154.3,425.3,1153.5,422.8,1153.7z"/>
	<path class="st0" d="M440.6,1161.8c-2.4,0.2-3.5,0.1-3.5,0.1s0,0.7,0,1c0.3,2.9,1.3,5.9,5.3,5.5c4-0.4,5.4-2.6,5.5-3.1
		c0.1,1.5-0.8,5.1-6.2,5.7c-2.5,0.2-7.3,0.1-7.9-7.1c-0.8-8.2,2.2-13.7,8.2-14.2c4.6-0.4,6.4,1.8,6.7,4.5
		C449.1,1159.9,444.5,1161.5,440.6,1161.8z M441.7,1151.9c-2.6,0.2-4.6,2.1-4.7,8.1c0,0,0.8,0.1,3-0.1c3.8-0.4,5.4-2,5.1-5.2
		C445,1153.3,444.3,1151.6,441.7,1151.9z"/>
	<path class="st0" d="M475.1,1156.5c-0.1,2.6-0.1,6.8,0,7.5c0.1,0.6,0.2,1,0.8,1.3l0.5,0.3c0,0-0.6,1.6-2.6,1.8
		c-1.7,0.2-2-1-2.1-1.7c-0.2-1.5,0.2-4.6,0.2-4.6c-1.9,6.5-4.4,7.1-6.2,7.3c-3.3,0.4-5.2-1.6-5.8-6.5c-0.3-2.6-1.1-14,7.9-15.1
		c3.3-0.4,4.8,1.1,4.8,1.1l2.8-2C475.4,1146,475.3,1148.5,475.1,1156.5z M468.5,1149.1c-5.3,0.6-5.7,7.6-5.1,12.3
		c0.3,2.9,1.1,4.7,3.4,4.4c1-0.1,2.7-0.5,5-4.8l0.2-11.4C472,1149.6,470.9,1148.8,468.5,1149.1z"/>
	<path class="st0" d="M484.8,1152.5c-0.1,7.3,0,9.6,0.1,10.3c0.1,0.6,0.2,0.9,0.9,1.3l0.5,0.3c0,0-0.7,1.6-2.6,1.8
		c-1.7,0.2-2.1-1-2.1-1.6c-0.3-2.5,0.4-19.8-0.1-23.3c-0.1-1-0.3-1.6-0.7-2.2l-0.3-0.4l4.6-1.5
		C484.9,1137.2,484.8,1139.2,484.8,1152.5z"/>
	<path class="st0" d="M510.3,1161.6l-0.3,0.6c0,0-0.7,0-1.8,0.2c-1.1,0.2-1.8,0.3-1.8,0.3l-3.9-14.7c-0.3-1.1-0.5-2.2-0.5-2.4
		c0,0.1,0,1.1-0.3,2.4l-3.2,15.8c0,0-0.7,0-2,0.2c-1.4,0.2-2.2,0.4-2.2,0.4l-4.6-15.8c-0.4-1.4-1.1-2.3-1.6-2.8l-0.5-0.5l4-1.5
		c0,0,0.3,0.7,1.7,5.8l2.7,10.1c0.3,0.9,0.4,2,0.5,2.1c0-0.1,0.1-0.8,0.4-2.2l3.4-16.7c0,0,0.8,0,1.9-0.2c1.2-0.2,1.9-0.4,1.9-0.4
		l4.2,15.7c0.3,1.3,0.5,2,0.5,2s4-10.6,3.1-16.3c-0.3-1.7-1.3-1.9-1.3-1.9s0.7-0.9,2.1-1.1c2-0.3,2.3,1.2,2.4,1.9
		C515.9,1147.9,512.1,1158.1,510.3,1161.6z"/>
	<path class="st0" d="M525.8,1150.6c-2.4,0.4-3.5,0.4-3.5,0.4s0,0.7,0.1,1c0.5,2.8,1.7,5.8,5.7,5.1c3.9-0.7,5.2-3,5.3-3.5
		c0.2,1.5-0.4,5.2-5.8,6.1c-2.4,0.4-7.2,0.7-8.4-6.5c-1.4-8.1,1.2-13.8,7.1-14.8c4.5-0.8,6.5,1.3,7,4
		C534.2,1148.1,529.7,1149.9,525.8,1150.6z M526.2,1140.5c-2.6,0.4-4.4,2.5-4.1,8.4c0,0,0.8,0,3-0.3c3.8-0.6,5.3-2.4,4.7-5.6
		C529.6,1141.8,528.7,1140.1,526.2,1140.5z"/>
	<path class="st0" d="M546.7,1155.1c-2.5,6.6-3.8,9.3-7.4,9.9c-2,0.4-2.8,0.1-2.8,0.1s0.1-0.6,0-1.7c0-1.1-0.2-2-0.2-2
		c1.1,1.4,2,1.6,2.7,1.5c1.3-0.2,2.2-0.8,4.1-5.6l-6.5-16.1c-0.5-1.4-1.2-2.3-1.7-2.7l-0.6-0.5l4.3-1.7c0,0,0.5,1.9,2.6,7.4l2.8,7.3
		c0.7,1.7,0.9,2.7,0.9,2.7c0.1-0.4,3.7-11.1,2.7-16.2c-0.3-1.7-1.3-1.9-1.3-1.9s0.7-0.9,2.1-1.2c2-0.4,2.4,1.1,2.5,1.8
		C551.6,1140.6,548.4,1150.4,546.7,1155.1z"/>
	<path class="st0" d="M631,1117.1c0.1,1,0.2,1.4,0.2,1.4s-0.5-0.2-3.4,0.5l-2.2,0.6l1.3,10.5c0.1,0.8,0.4,2.4,0.5,3
		c0.3,1.1,0.8,2.7,3.3,2.1c1.9-0.5,2.7-1.8,2.7-1.8s0.5,3.2-3.8,4.4c-3.9,1-4.9-1.5-5.3-3c-0.3-1.1-0.6-2.8-0.7-4.3
		c-0.8-6.6-1-9.9-1-9.9l-2.3,0.6c0.1-0.1,1-1.4,2-3.7c1-2.3,1.3-4.1,1.3-4.1l1.2-0.3l0.6,4.5l2.2-0.6c2.9-0.8,3.3-1.3,3.3-1.3
		S630.9,1116.1,631,1117.1z"/>
	<path class="st0" d="M651.1,1128.3c0.2,0.6,0.3,0.9,1,1.2l0.5,0.2c0,0-0.4,1.7-2.3,2.2c-1.7,0.5-2.2-0.7-2.4-1.3
		c-0.5-1.7-1.3-11.4-2.1-14.2c-0.2-0.8-0.7-2.3-2.9-1.7c-2,0.6-3.3,2.2-4.5,5.5l0.6,4.4c1,7.6,1.5,9.7,1.5,9.7s-0.7,0.1-1.7,0.4
		c-0.9,0.3-1.8,0.6-1.8,0.6s-0.3-2.7-1.4-11.9c-0.9-6.7-1.5-11.4-1.9-12.9c-0.3-0.9-0.5-1.6-1-2l-0.4-0.4l4.3-2.1c0,0,0.3,3,1.1,8.7
		l0.1,0.8c0.3,2.6,0.4,4.7,0.4,4.7c0.9-6.6,3.8-7.9,5.5-8.3c3.9-1.1,4.9,1.7,5.2,3C649.7,1117,650.5,1126.5,651.1,1128.3z"/>
	<path class="st0" d="M661.4,1119.1c-2.3,0.7-3.4,0.8-3.4,0.8s0.1,0.7,0.2,1c0.8,2.8,2.4,5.6,6.2,4.4c3.8-1.1,4.8-3.6,4.8-4.1
		c0.4,1.4,0.2,5.2-5,6.8c-2.4,0.7-7.1,1.5-9.2-5.4c-2.3-7.9-0.4-13.8,5.3-15.5c4.4-1.3,6.7,0.5,7.4,3.2
		C669.4,1115.6,665.1,1118,661.4,1119.1z M660.6,1109.1c-2.5,0.7-4.1,3-3.1,8.8c0,0,0.8-0.1,2.9-0.7c3.7-1.1,4.9-3,4-6.1
		C664.1,1109.9,663,1108.4,660.6,1109.1z"/>
	<path class="st0" d="M688,1100.1c0.2,1,0.3,1.4,0.3,1.4s-0.6-0.2-3.4,0.7l-2.2,0.7l1.8,10.4c0.1,0.8,0.5,2.4,0.7,2.9
		c0.4,1.1,1,2.7,3.4,1.9c1.9-0.6,2.6-2,2.6-2s0.7,3.2-3.6,4.6c-3.8,1.2-4.9-1.3-5.4-2.7c-0.4-1.1-0.7-2.8-0.9-4.3
		c-1.1-6.5-1.6-9.8-1.6-9.8l-2.3,0.7c0.1-0.1,1-1.5,1.8-3.8c0.9-2.4,1.1-4.2,1.1-4.2l1.2-0.4l0.8,4.5l2.2-0.7
		c2.8-0.9,3.3-1.5,3.3-1.5S687.9,1099.1,688,1100.1z"/>
	<path class="st0" d="M708.7,1110.3c0.2,0.5,0.4,0.9,1.1,1.1l0.6,0.2c0,0-0.3,1.7-2.2,2.3c-1.7,0.6-2.2-0.5-2.5-1.2
		c-0.6-1.7-1.9-11.3-2.8-14.1c-0.3-0.8-0.8-2.2-2.9-1.5c-2,0.7-3.1,2.4-4.2,5.7l0.9,4.3c1.4,7.6,2,9.6,2,9.6s-0.7,0.2-1.7,0.5
		c-0.9,0.3-1.8,0.7-1.8,0.7s-0.4-2.6-2.1-11.8c-1.2-6.6-2.1-11.3-2.6-12.8c-0.3-0.9-0.6-1.5-1.1-2l-0.4-0.4l4.2-2.4
		c0,0,0.4,3,1.5,8.6l0.1,0.8c0.5,2.5,0.7,4.7,0.7,4.7c0.6-6.7,3.4-8,5-8.6c3.9-1.3,4.9,1.5,5.3,2.7
		C706.7,1099,708.1,1108.4,708.7,1110.3z"/>
	<path class="st0" d="M720.7,1090c0.3,1.7,0.5,2.3,0.5,2.3c-1-1-1.8-1.5-3-1.1c-2.4,0.8-2.7,5.1-2.7,5.1l0.9,4.2
		c1.6,7.6,2.2,9.5,2.2,9.5s-0.7,0.2-1.7,0.5c-0.8,0.3-1.7,0.7-1.7,0.7s-0.4-2.3-1.9-10.2c-0.7-3.4-1.3-6-1.7-6.9
		c-0.2-0.6-0.6-1.4-1.1-1.8l-0.3-0.3l4-2.4l1.2,6.7c-0.1-4.5,0.9-7.5,3.1-8.3c1.4-0.5,2.1-0.1,2.1-0.1S720.4,1088.5,720.7,1090z"/>
	<path class="st0" d="M731.1,1096c-2.3,0.8-3.4,1-3.4,1s0.2,0.7,0.3,1c1,2.7,2.8,5.4,6.5,4c3.8-1.4,4.5-3.9,4.5-4.4
		c0.5,1.4,0.5,5.2-4.6,7.1c-2.3,0.9-7,2-9.5-4.8c-2.8-7.7-1.3-13.8,4.3-15.9c4.3-1.6,6.7,0.1,7.6,2.7
		C738.9,1092,734.7,1094.7,731.1,1096z M729.6,1086.1c-2.5,0.9-3.9,3.2-2.5,9c0,0,0.8-0.1,2.9-0.9c3.6-1.3,4.7-3.3,3.6-6.3
		C733.1,1086.7,732,1085.2,729.6,1086.1z"/>
	<path class="st0" d="M755.1,1082.7c1.7,7,2.2,9,2.4,9.7c0.2,0.5,0.4,0.8,1.1,1.1l0.6,0.2c0,0-0.2,1.7-2,2.4
		c-1.6,0.6-2.2-0.5-2.5-1.1c-0.6-1.4-1-4.5-1-4.5c-0.2,6.7-2.5,8-4.2,8.7c-3.1,1.2-5.5-0.2-7.3-4.9c-0.9-2.5-4.5-13.3,4-16.6
		c2.6-1,4.3-0.3,4.3-0.3c-0.5-1.9-1-4.1-1.4-5.1c-0.4-0.9-0.7-1.5-1.2-1.9l-0.4-0.3l4.1-2.5C751.6,1067.4,752,1069.6,755.1,1082.7z
		 M747.3,1079.6c-5,1.9-3.7,8.8-2,13.2c1,2.7,2.3,4.3,4.4,3.4c0.9-0.4,2.5-1.2,3.7-5.9l-2.6-11.1
		C750.9,1079.2,749.7,1078.7,747.3,1079.6z"/>
	<path class="st0" d="M781.8,1074.4c0.7,2.5,1.7,6.6,2,7.3c0.2,0.5,0.4,0.9,1.2,1.1l0.6,0.2c0,0-0.2,1.7-2,2.4
		c-1.6,0.7-2.2-0.4-2.5-1c-0.6-1.4-1.1-4.5-1.1-4.5c0,6.8-2.3,8.1-4,8.8c-3.1,1.3-5.5-0.1-7.4-4.7c-1-2.5-4.8-13.2,3.5-16.7
		c3.1-1.3,4.9-0.2,4.9-0.2l2.1-2.7C779.2,1064.2,779.7,1066.6,781.8,1074.4z M773.4,1069.1c-5,2.1-3.4,8.8-1.6,13.2
		c1.1,2.7,2.3,4.2,4.5,3.3c0.9-0.4,2.5-1.3,3.5-5.9l-2.9-11.1C776.9,1068.6,775.7,1068.1,773.4,1069.1z"/>
	<path class="st0" d="M794.2,1061.1c0.4,1.3,0.8,2.4,0.8,2.4c-1.6-1.4-3.1-2.5-5.8-1.4c-2.3,1-2.5,2.6-2,3.8
		c0.6,1.5,1.7,1.8,3.5,2.3l2.2,0.6c2.4,0.6,4.3,1.1,5.5,3.8c0.7,1.6,1.5,5.6-3.9,7.9c-3.3,1.4-5.4,1.2-5.4,1.2s-0.1-0.7-0.5-2
		c-0.4-1.3-0.8-2.4-0.8-2.4c1.5,1.2,3,2.5,6,1.2c2.6-1.1,2.5-3.1,2-4.2c-0.7-1.7-1.9-2-3.5-2.5l-2.3-0.6c-2.8-0.7-4.2-1.6-5.1-3.7
		c-1.2-2.8-0.2-5.7,3.8-7.5c3.1-1.3,5.2-1.1,5.2-1.1S793.8,1059.8,794.2,1061.1z"/>
	<path class="st0" d="M824,1063.9c0.2,0.5,0.5,0.8,1.2,1l0.6,0.1c0,0-0.2,1.7-1.9,2.5c-1.6,0.7-2.3-0.3-2.6-0.9
		c-0.8-1.6-3.1-11.1-4.3-13.7c-0.3-0.7-1-2.1-3.1-1.2c-1.9,0.9-2.9,2.7-3.6,6.1l1.3,4.2c2.2,7.4,3,9.3,3,9.3s-0.7,0.2-1.6,0.7
		c-0.9,0.4-1.7,0.8-1.7,0.8s-0.7-2.6-3.3-11.5c-1.9-6.4-3.3-11-4-12.4c-0.4-0.9-0.8-1.5-1.3-1.9l-0.4-0.3l3.9-2.8
		c0,0,0.8,2.9,2.4,8.4l0.2,0.8c0.7,2.5,1.2,4.6,1.2,4.6c-0.1-6.7,2.5-8.4,4.1-9.1c3.7-1.7,5.1,0.9,5.6,2.1
		C820.8,1052.9,823.2,1062.1,824,1063.9z"/>
	<path class="st0" d="M832.7,1053.1c-2.2,1-3.3,1.3-3.3,1.3s0.2,0.6,0.4,1c1.2,2.6,3.2,5.1,6.9,3.4s4.1-4.3,4.1-4.8
		c0.6,1.3,1,5.1-3.9,7.5c-2.2,1.1-6.8,2.6-9.9-3.9c-3.5-7.4-2.6-13.6,2.8-16.2c4.1-2,6.7-0.5,7.8,1.9
		C840.1,1048.4,836.2,1051.4,832.7,1053.1z M830.3,1043.4c-2.4,1.1-3.6,3.6-1.6,9.2c0,0,0.8-0.2,2.8-1.1c3.5-1.7,4.4-3.7,3-6.6
		C833.9,1043.6,832.6,1042.3,830.3,1043.4z"/>
	<path class="st0" d="M866.3,1043.1c0.3,0.5,0.5,0.8,1.2,0.9l0.6,0.1c0,0-0.1,1.7-1.8,2.6c-1.6,0.8-2.3-0.2-2.6-0.8
		c-0.8-1.6-3.5-10.9-4.8-13.5c-0.4-0.7-1.1-2.1-3.1-1.1c-1.9,1-2.8,2.8-3.3,6.3l1.5,4.2c2.5,7.3,3.4,9.2,3.4,9.2s-0.7,0.3-1.6,0.7
		c-0.8,0.4-1.6,0.9-1.6,0.9s-0.8-2.6-3.8-11.4c-2.2-6.4-3.8-10.9-4.5-12.2c-0.4-0.9-0.8-1.4-1.4-1.8l-0.4-0.3l3.8-3
		c0,0,0.9,2.9,2.8,8.3l0.3,0.8c0.8,2.4,1.3,4.5,1.3,4.5c-0.4-6.7,2.2-8.5,3.7-9.2c3.6-1.8,5.1,0.7,5.7,1.9
		C862.7,1032.2,865.4,1041.3,866.3,1043.1z"/>
	<path class="st0" d="M881.6,1026.5c0.9,2.5,2.3,6.4,2.7,7.1c0.3,0.5,0.5,0.8,1.3,1l0.6,0.1c0,0,0,1.7-1.8,2.6
		c-1.5,0.8-2.2-0.2-2.5-0.8c-0.7-1.4-1.5-4.4-1.5-4.4c0.6,6.7-1.6,8.3-3.2,9.1c-2.9,1.6-5.4,0.4-7.8-4c-1.3-2.4-6.1-12.7,1.9-16.9
		c3-1.6,4.9-0.7,4.9-0.7l1.9-2.9C878.1,1016.6,878.9,1019,881.6,1026.5z M872.7,1022.1c-4.7,2.5-2.6,9.1-0.3,13.3
		c1.4,2.5,2.7,4,4.8,2.9c0.9-0.5,2.3-1.5,3-6.3l-3.9-10.8C876.2,1021.2,874.9,1020.9,872.7,1022.1z"/>
	<path class="st0" d="M892,1010.9c0.4,0.9,0.6,1.3,0.6,1.3s-0.6-0.1-3.2,1.4l-2,1.1l3.8,9.8c0.3,0.7,0.9,2.2,1.2,2.7
		c0.6,1,1.5,2.4,3.7,1.2c1.7-1,2.2-2.4,2.2-2.4s1.3,3-2.7,5.2c-3.5,1.9-5.1-0.3-5.8-1.6c-0.6-1-1.2-2.6-1.8-4
		c-2.4-6.2-3.4-9.3-3.4-9.3l-2.1,1.2c0-0.1,0.7-1.6,1-4.1c0.4-2.5,0.3-4.3,0.3-4.3l1.1-0.6l1.7,4.3l2-1.1c2.6-1.4,2.9-2.1,2.9-2.1
		S891.6,1010,892,1010.9z"/>
	<path class="st0" d="M914.2,1016.9c0.3,0.5,0.5,0.8,1.3,0.9l0.6,0.1c0,0,0,1.7-1.7,2.7c-1.5,0.9-2.3-0.1-2.6-0.7
		c-0.9-1.6-4-10.8-5.4-13.3c-0.4-0.7-1.2-2-3.2-0.9c-1.8,1.1-2.6,2.9-3,6.4l1.7,4.1c2.9,7.1,3.8,9,3.8,9s-0.7,0.3-1.5,0.8
		c-0.8,0.5-1.6,1-1.6,1s-0.9-2.5-4.3-11.2c-2.5-6.2-4.3-10.7-5-12c-0.5-0.8-0.9-1.4-1.4-1.7l-0.5-0.3l3.7-3.1c0,0,1,2.9,3.1,8.1
		l0.3,0.7c1,2.4,1.5,4.5,1.5,4.5c-0.7-6.7,1.8-8.5,3.3-9.4c3.5-2,5.1,0.5,5.8,1.6C910.1,1006.3,913.2,1015.3,914.2,1016.9z"/>
	<path class="st0" d="M930.9,989.9c0.5,1.2,1.1,2.4,1.1,2.4c-1.7-1.2-3.2-2.3-5.8-0.7c-3.9,2.3-2.7,7.4,0,11.8
		c1.3,2.2,3.4,5.5,7.1,3.3c3.1-1.8,3.3-4.4,3.2-4.9c0.9,1.5,1.4,4.9-2.8,7.5c-5.4,3.3-8.6-0.8-10.1-3.4c-0.9-1.5-6.6-11.3,1.5-16.1
		c3.1-1.9,5-1.8,5-1.8S930.3,988.6,930.9,989.9z"/>
	<path class="st0" d="M948.1,1000.5c-4.9,3.1-8.1,0.6-10.9-3.8c-1.6-2.5-5.4-11.1,1.4-15.3c4.9-3,8.1-0.6,10.9,3.8
		C951.1,987.7,954.9,996.3,948.1,1000.5z M939.7,983.3c-4.3,2.7-0.5,10.1,0.8,12.1c3.1,5,5.1,4.2,6.6,3.3c4.3-2.7,0.5-10.1-0.8-12.1
		C943.2,981.7,941.2,982.4,939.7,983.3z"/>
	<path class="st0" d="M979.1,976.7c0.3,0.5,0.6,0.7,1.3,0.8l0.6,0c0,0,0.1,1.7-1.5,2.8c-1.5,1-2.3,0-2.6-0.6
		c-1-1.5-4.7-10.5-6.3-12.9c-0.4-0.7-1.3-2-3.2-0.7c-1.7,1.1-2.4,3.1-2.6,6.6l1.9,4c3.3,7,4.3,8.8,4.3,8.8s-0.6,0.3-1.5,0.9
		c-0.8,0.5-1.5,1.1-1.5,1.1s-0.6-1.7-3.3-7.5c-0.9-1.9-2.7-5.9-3.4-6.9c-0.6-0.9-1.4-2.1-3.3-0.9c-1.7,1.1-2.4,3.1-2.6,6.6l1.9,4
		c3.3,7,4.3,8.8,4.3,8.8s-0.7,0.4-1.5,0.9c-0.8,0.5-1.5,1-1.5,1s-0.9-2.2-4.3-9.5c-1.5-3.2-2.7-5.5-3.2-6.4
		c-0.4-0.5-0.9-1.2-1.6-1.5l-0.4-0.2l3.3-3.2l2.7,5.9c-1-5.8,0.5-8.2,2.6-9.5c3.5-2.3,5.2,0.3,5.8,1.3c0.4,0.6,0.8,1.7,0.9,1.9
		c-1.1-6.4,1.3-8.4,2.7-9.3c3.4-2.2,5.1,0.2,5.8,1.3C974.3,966.3,978,975.1,979.1,976.7z"/>
	<path class="st0" d="M986.1,964.7c-2,1.4-3,1.8-3,1.8s0.3,0.6,0.5,0.9c1.6,2.4,4,4.6,7.3,2.3c3.3-2.3,3.4-4.9,3.3-5.4
		c0.8,1.2,1.8,4.9-2.7,8c-2.1,1.4-6.3,3.6-10.4-2.4c-4.6-6.8-4.6-13,0.3-16.4c3.8-2.6,6.5-1.5,8,0.7
		C992.7,958.9,989.4,962.5,986.1,964.7z M982.3,955.4c-2.2,1.5-3,4.1-0.2,9.4c0,0,0.8-0.3,2.6-1.5c3.2-2.2,3.8-4.4,2-7
		C985.8,955.1,984.4,953.9,982.3,955.4z"/>
	<path class="st0" d="M1001.7,965.3c-1.5,0.7-2.5,0.4-3.2-0.6c-0.8-1.1-0.7-2.5,0.6-3.7c1.5-0.7,2.5-0.4,3.2,0.6
		C1003.2,962.8,1003,964.2,1001.7,965.3z"/>
</g>
<g>
	<path class="st0" d="M353.3,1046.9c-2,0-3,0.1-3,0.1l0.4-0.6c0.8-1.3,1.1-1.6,2.2-12.5l1.1-10.4l-2.1,0.1c-1.6,0-3,0.4-3.8,1
		c-1,0.6-1.3,0.9-1.3,1c0-0.1,0.2-1.3,0.4-3l0.1-1.1l17.4-0.4c0,0.2-0.1,0.5-0.1,1.1c-0.1,1.6-0.2,2.9-0.2,3c0,0-0.2-0.4-1.1-0.9
		c-0.8-0.5-2-0.8-3.6-0.8l-2.2,0.1l-1.1,10.8c-0.3,2.7-0.8,8.2-0.8,9.7c0,1.1,0.1,1.7,0.5,2.4l0.3,0.6
		C356.2,1046.9,355.3,1046.9,353.3,1046.9z"/>
	<path class="st0" d="M380,1043.1c0,0.6,0.1,0.9,0.7,1.4l0.5,0.3c0,0-0.8,1.5-2.7,1.6c-1.8,0.1-2-1.1-2-1.8
		c-0.1-1.8,1.4-11.4,1.2-14.3c0-0.8-0.1-2.4-2.4-2.3c-2.1,0.1-3.7,1.4-5.6,4.3l-0.4,4.4c-0.7,7.7-0.8,9.8-0.8,9.8s-0.7,0-1.7,0
		c-0.9,0-1.9,0.2-1.9,0.2s0.4-2.6,1.3-11.9c0.7-6.7,1.1-11.5,1-13c0-1-0.1-1.7-0.5-2.2l-0.3-0.5l4.7-1.1c0,0-0.4,3-0.9,8.7l-0.1,0.8
		c-0.3,2.6-0.7,4.7-0.7,4.7c2.4-6.3,5.5-6.8,7.2-6.9c4.1-0.2,4.3,2.8,4.4,4.1C381.2,1031.7,379.9,1041.2,380,1043.1z"/>
	<path class="st0" d="M392.2,1036.5c-2.4,0.1-3.5,0-3.5,0s0,0.7,0,1c0.2,2.9,1.1,6,5.1,5.7c4-0.2,5.4-2.4,5.6-2.9
		c0.1,1.5-1,5.1-6.4,5.4c-2.5,0.1-7.3-0.1-7.7-7.4c-0.5-8.2,2.7-13.6,8.7-13.9c4.6-0.3,6.4,2,6.5,4.8
		C400.8,1034.9,396.1,1036.2,392.2,1036.5z M393.6,1026.5c-2.6,0.2-4.6,2-5,7.9c0,0,0.8,0.1,3,0c3.8-0.2,5.5-1.8,5.3-5
		C396.8,1028.1,396.2,1026.4,393.6,1026.5z"/>
	<path class="st0" d="M422.5,1025.4c0,1.4,0,2.5,0,2.5c-1-1.9-2.2-3.4-5-3.1c-2.5,0.2-3.2,1.6-3.1,3c0.1,1.6,1,2.2,2.5,3.3l1.9,1.2
		c2,1.3,3.7,2.4,4,5.4c0.1,1.7-0.3,5.8-6.3,6.3c-3.6,0.3-5.5-0.6-5.5-0.6s0.1-0.7,0.1-2c0.1-1.4,0-2.6,0-2.6c1,1.6,2.1,3.3,5.3,3.1
		c2.8-0.2,3.3-2.1,3.2-3.3c-0.2-1.8-1.1-2.5-2.5-3.4l-2-1.3c-2.4-1.6-3.5-2.9-3.6-5.1c-0.3-3,1.6-5.5,5.9-5.9
		c3.4-0.3,5.3,0.6,5.3,0.6S422.6,1024,422.5,1025.4z"/>
	<path class="st0" d="M441.3,1030.8c-0.1,2.6-0.3,6.8-0.2,7.5c0.1,0.6,0.2,1,0.8,1.4l0.5,0.3c0,0-0.7,1.6-2.6,1.7
		c-1.7,0.2-2-1-2.1-1.7c-0.2-1.5,0.3-4.6,0.3-4.6c-2,6.5-4.6,7-6.4,7.2c-3.3,0.3-5.2-1.7-5.7-6.6c-0.3-2.6-0.8-14,8.2-14.9
		c3.3-0.3,4.8,1.2,4.8,1.2l2.8-2C441.8,1020.3,441.7,1022.8,441.3,1030.8z M434.8,1023.3c-5.3,0.5-5.8,7.5-5.4,12.2
		c0.3,2.9,1,4.7,3.3,4.5c1-0.1,2.7-0.5,5.1-4.7l0.4-11.4C438.3,1023.9,437.3,1023.1,434.8,1023.3z"/>
	<path class="st0" d="M473.1,1034.5c0.1,0.6,0.2,0.9,0.9,1.3l0.5,0.3c0,0-0.6,1.6-2.6,1.8c-1.8,0.2-2-1-2.1-1.7
		c-0.2-1.8,0.4-11.5,0-14.3c-0.1-0.8-0.3-2.4-2.6-2.1c-2.1,0.3-3.6,1.7-5.2,4.8l-0.1,4.4c-0.1,7.7,0,9.8,0,9.8s-0.7,0-1.8,0.1
		c-1,0.1-1.8,0.3-1.8,0.3s0.2-1.8,0.3-8.1c0-2.1,0.1-6.5-0.1-7.7c-0.1-1-0.4-2.5-2.6-2.2c-2.1,0.3-3.5,1.7-5.2,4.8l0,4.4
		c-0.1,7.7,0,9.8,0,9.8s-0.8,0-1.8,0.2c-0.9,0.1-1.8,0.3-1.8,0.3s0.1-2.3,0.3-10.4c0.1-3.5,0-6.1-0.1-7.1c-0.1-0.6-0.3-1.5-0.7-2
		l-0.3-0.3l4.4-1.5l-0.2,6.5c1.6-5.7,4-7.1,6.5-7.4c4.1-0.5,4.5,2.5,4.7,3.7c0.1,0.7,0,1.9,0,2.1c1.9-6.3,4.8-7,6.5-7.2
		c4-0.5,4.5,2.4,4.7,3.7C473.4,1023.1,472.9,1032.6,473.1,1034.5z"/>
	<path class="st0" d="M484.7,1026.8c-2.4,0.4-3.5,0.3-3.5,0.3s0,0.7,0.1,1c0.4,2.8,1.6,5.8,5.6,5.2c4-0.6,5.2-2.9,5.3-3.4
		c0.2,1.5-0.5,5.2-5.9,6c-2.5,0.4-7.2,0.5-8.3-6.6c-1.2-8.1,1.5-13.8,7.4-14.7c4.5-0.7,6.5,1.5,6.9,4.2
		C493.1,1024.4,488.5,1026.2,484.7,1026.8z M485.3,1016.7c-2.6,0.4-4.4,2.4-4.3,8.3c0,0,0.8,0.1,3-0.3c3.8-0.6,5.3-2.3,4.8-5.5
		C488.6,1018,487.8,1016.4,485.3,1016.7z"/>
	<path class="st0" d="M582.3,1015.9l-0.3,0.6c0,0-0.7,0.1-1.8,0.4c-1.1,0.3-1.8,0.5-1.8,0.5l-5.2-14.3c-0.4-1.1-0.7-2.2-0.7-2.3
		c0,0.1,0.1,1.1-0.1,2.5l-1.8,16.1c0,0-0.7,0.1-2,0.4c-1.3,0.3-2.1,0.6-2.1,0.6l-6-15.3c-0.5-1.3-1.3-2.2-1.8-2.6l-0.6-0.5l3.9-1.9
		c0,0,0.4,0.7,2.2,5.6l3.6,9.8c0.3,0.9,0.6,2,0.6,2c0-0.1,0-0.8,0.2-2.2l1.9-17c0,0,0.8-0.1,1.9-0.4c1.2-0.3,1.9-0.5,1.9-0.5
		l5.6,15.2c0.5,1.3,0.7,2,0.7,2s3.1-10.9,1.7-16.6c-0.4-1.7-1.5-1.8-1.5-1.8s0.6-1,2-1.3c2-0.5,2.4,1,2.6,1.7
		C586.6,1001.8,583.8,1012.3,582.3,1015.9z"/>
	<path class="st0" d="M596.7,1003.5c-2.3,0.6-3.5,0.7-3.5,0.7s0.1,0.7,0.2,1c0.7,2.8,2.2,5.6,6.1,4.6s4.9-3.5,4.9-4
		c0.4,1.4,0,5.2-5.2,6.6c-2.4,0.6-7.1,1.3-9-5.7c-2.1-7.9,0-13.9,5.7-15.4c4.4-1.2,6.6,0.7,7.3,3.4
		C604.8,1000.2,600.5,1002.5,596.7,1003.5z M596.2,993.5c-2.5,0.7-4.2,2.9-3.3,8.8c0,0,0.8,0,2.9-0.6c3.7-1,5-2.9,4.2-6
		C599.6,994.4,598.7,992.8,596.2,993.5z"/>
	<path class="st0" d="M617.9,1006.1c-1.9,6.8-2.9,9.6-6.4,10.6c-2,0.6-2.8,0.4-2.8,0.4s0-0.6-0.2-1.7c-0.1-1.1-0.4-2-0.4-2
		c1.2,1.3,2.1,1.5,2.8,1.3c1.2-0.4,2.1-1,3.6-6l-8-15.4c-0.7-1.3-1.4-2.2-2-2.5l-0.6-0.4l4.1-2.1c0,0,0.7,1.8,3.3,7.1l3.5,7
		c0.8,1.7,1.1,2.6,1.1,2.6c0-0.4,2.6-11.4,1.2-16.4c-0.5-1.7-1.5-1.8-1.5-1.8s0.6-1,2-1.4c2-0.6,2.5,0.9,2.7,1.6
		C621.4,991.1,619.2,1001.2,617.9,1006.1z"/>
	<path class="st0" d="M631.5,993.6c-2.3,0.7-3.4,0.8-3.4,0.8s0.1,0.7,0.2,1c0.8,2.8,2.4,5.5,6.3,4.4s4.7-3.6,4.8-4.2
		c0.4,1.4,0.2,5.2-5,6.8c-2.4,0.7-7.1,1.6-9.2-5.4c-2.4-7.9-0.5-13.8,5.2-15.6c4.4-1.3,6.7,0.5,7.5,3.1
		C639.5,990.1,635.2,992.5,631.5,993.6z M630.6,983.6c-2.5,0.8-4.1,3-3,8.9c0,0,0.8-0.1,2.9-0.7c3.7-1.1,4.9-3,4-6.1
		C634.1,984.4,633.1,982.9,630.6,983.6z"/>
	<path class="st0" d="M666.2,988.7c0.2,0.5,0.4,0.9,1.1,1.1l0.6,0.2c0,0-0.4,1.7-2.2,2.3c-1.7,0.6-2.2-0.5-2.4-1.2
		c-0.6-1.7-1.8-11.3-2.8-14.1c-0.3-0.8-0.8-2.2-2.9-1.5c-2,0.7-3.2,2.4-4.2,5.7l0.8,4.3c1.4,7.6,2,9.6,2,9.6s-0.7,0.2-1.7,0.5
		c-0.9,0.3-1.8,0.7-1.8,0.7s-0.4-2.6-2-11.8c-1.2-6.6-2.1-11.3-2.6-12.8c-0.3-0.9-0.6-1.5-1.1-2l-0.4-0.4l4.2-2.4c0,0,0.4,3,1.5,8.6
		l0.1,0.8c0.5,2.5,0.7,4.7,0.7,4.7c0.6-6.7,3.4-8,5-8.6c3.9-1.3,4.9,1.5,5.3,2.7C664.2,977.4,665.6,986.9,666.2,988.7z"/>
	<path class="st0" d="M676,979c-2.3,0.8-3.4,1-3.4,1s0.2,0.7,0.3,1c1,2.7,2.7,5.4,6.5,4.1s4.6-3.8,4.6-4.4c0.5,1.4,0.5,5.2-4.7,7
		c-2.3,0.8-7,1.9-9.4-4.9c-2.7-7.7-1.2-13.8,4.5-15.8c4.3-1.5,6.7,0.2,7.6,2.8C683.8,975,679.7,977.7,676,979z M674.7,969
		c-2.5,0.9-3.9,3.2-2.6,9c0,0,0.8-0.1,2.9-0.8c3.6-1.3,4.8-3.3,3.7-6.3C678.2,969.6,677.1,968.2,674.7,969z"/>
	<path class="st0" d="M720.9,968.4c0.2,0.5,0.4,0.8,1.1,1.1l0.6,0.2c0,0-0.2,1.7-2.1,2.4c-1.6,0.6-2.2-0.4-2.5-1.1
		c-0.7-1.7-2.5-11.2-3.5-13.9c-0.3-0.7-0.9-2.2-3-1.4c-1.9,0.8-3,2.5-3.9,5.9l1,4.3c1.8,7.5,2.4,9.5,2.4,9.5s-0.7,0.2-1.7,0.6
		c-0.9,0.4-1.7,0.7-1.7,0.7s-0.3-1.8-1.7-8c-0.5-2-1.5-6.3-1.9-7.4c-0.4-1-1-2.4-3.1-1.5c-1.9,0.8-3,2.5-3.8,5.9l1.1,4.3
		c1.8,7.5,2.4,9.5,2.4,9.5s-0.7,0.2-1.7,0.6c-0.8,0.3-1.6,0.7-1.6,0.7s-0.4-2.3-2.3-10.1c-0.8-3.4-1.5-6-1.8-6.9
		c-0.2-0.6-0.6-1.3-1.2-1.8l-0.3-0.3l3.9-2.5l1.4,6.4c0.2-5.9,2.2-7.9,4.5-8.8c3.9-1.5,5,1.3,5.4,2.4c0.3,0.7,0.5,1.8,0.5,2
		c0.3-6.5,3-7.9,4.6-8.6c3.8-1.5,5,1.2,5.5,2.4C718.3,957.2,720.1,966.6,720.9,968.4z"/>
	<path class="st0" d="M737.6,953.2c0.7,2.5,1.8,6.6,2,7.3c0.2,0.5,0.4,0.9,1.2,1.1l0.6,0.1c0,0-0.2,1.7-2,2.4
		c-1.6,0.7-2.2-0.4-2.5-1c-0.6-1.4-1.1-4.5-1.1-4.5c0,6.8-2.3,8.1-4,8.8c-3.1,1.3-5.5-0.1-7.4-4.7c-1-2.5-4.9-13.2,3.4-16.7
		c3.1-1.3,4.9-0.3,4.9-0.3l2.1-2.7C735,943,735.5,945.5,737.6,953.2z M729.2,948c-4.9,2.1-3.4,8.8-1.5,13.2c1.1,2.7,2.3,4.2,4.5,3.3
		c0.9-0.4,2.5-1.3,3.5-6l-2.9-11.1C732.7,947.5,731.5,947,729.2,948z"/>
	<path class="st0" d="M753.6,956.8c-0.9,7-1.6,9.9-4.9,11.4c-1.9,0.8-2.7,0.7-2.7,0.7s-0.1-0.6-0.4-1.7c-0.3-1.1-0.7-1.9-0.7-1.9
		c1.4,1.1,2.3,1.2,3,0.8c1.2-0.5,1.9-1.3,2.7-6.4l-10-14.1c-0.8-1.2-1.7-2-2.3-2.3l-0.7-0.3l3.8-2.7c0,0,1,1.7,4.2,6.6l4.4,6.5
		c1,1.5,1.5,2.4,1.5,2.5c0-0.4,1-11.6-1.1-16.4c-0.7-1.6-1.7-1.5-1.7-1.5s0.5-1.1,1.8-1.6c1.9-0.8,2.6,0.5,2.8,1.2
		C755,941.5,754.3,951.8,753.6,956.8z"/>
	<path class="st0" d="M1248.5,462.9c1.5,1,2,1.3,2,1.3c-1.4,0-2.4,0.2-2.9,1.3c-1.2,2.2,1.5,5.6,1.5,5.6l3.5,2.5
		c6.4,4.4,8.1,5.4,8.1,5.4s-0.4,0.6-0.9,1.6c-0.4,0.8-0.8,1.6-0.8,1.6s-1.9-1.4-8.4-6.1c-2.9-2-5.1-3.4-6-3.9
		c-0.6-0.3-1.3-0.6-2.1-0.6l-0.4,0l1.3-4.5l5.4,4c-3.1-3.2-4.5-6-3.4-8.2c0.7-1.3,1.4-1.5,1.4-1.5S1247.2,462,1248.5,462.9z"/>
	<path class="st0" d="M1260.1,460.1c-1.1,2.2-1.8,3.1-1.8,3.1s0.6,0.4,0.9,0.5c2.6,1.3,5.7,2,7.5-1.6c1.8-3.6,0.6-5.9,0.2-6.3
		c1.3,0.7,3.9,3.4,1.5,8.3c-1.1,2.2-3.7,6.2-10.2,3c-7.4-3.6-10.4-9.1-7.8-14.5c2-4.1,4.9-4.5,7.4-3.3
		C1263,451.9,1261.8,456.6,1260.1,460.1z M1252.2,453.9c-1.2,2.4-0.6,5,4.4,8.3c0,0,0.5-0.6,1.5-2.6c1.7-3.5,1.2-5.7-1.7-7.1
		C1255.2,451.9,1253.3,451.6,1252.2,453.9z"/>
	<path class="st0" d="M1260.8,435c0.8,0.5,1.2,0.7,1.2,0.7s-0.5,0.3-1.8,3l-1,2.1l8.8,5.8c0.7,0.4,2.1,1.3,2.6,1.5
		c1,0.5,2.6,1.1,3.7-1.1c0.9-1.8,0.4-3.3,0.4-3.3s2.8,1.7,0.9,5.7c-1.7,3.6-4.3,2.7-5.7,2.1c-1.1-0.5-2.5-1.4-3.8-2.2
		c-5.6-3.6-8.2-5.6-8.2-5.6l-1,2.2c0-0.1-0.4-1.7-1.5-3.9c-1.2-2.3-2.3-3.7-2.3-3.7l0.5-1.1l3.8,2.5l1-2c1.3-2.7,1.2-3.4,1.2-3.4
		S1260,434.5,1260.8,435z"/>
	<path class="st0" d="M1275.9,423.1c2.2,1.4,5.7,3.6,6.4,4c0.5,0.2,0.9,0.3,1.6,0l0.5-0.3c0,0,1,1.4,0.2,3.1
		c-0.7,1.6-1.9,1.2-2.5,0.9c-1.4-0.6-3.9-2.6-3.9-2.6c4.5,5,3.6,7.9,2.9,9.6c-1.7,3.7-4.5,2.5-5.6,2c-2.1-1-9.4-6-11.4-6.9
		c-0.9-0.4-1.5-0.6-2.2-0.6l-0.5,0l1.1-4.7c0,0,11.2,7.5,13.6,8.6c0.9,0.4,2.4,1,3.3-1.1c0.9-1.9,0.4-3.9-1.4-6.9l-3.7-2.4
		c-2.9-1.9-4.6-2.8-5.6-3.3c-0.9-0.4-1.5-0.6-2.2-0.6l-0.5,0l1.1-4.7C1267.2,417.5,1269.1,418.8,1275.9,423.1z"/>
	<path class="st0" d="M1275.7,404.4c1.5,0.9,2,1.2,2,1.2c-1.4,0.1-2.3,0.3-2.9,1.5c-1,2.3,1.9,5.5,1.9,5.5l3.7,2.2
		c6.6,4,8.4,4.9,8.4,4.9s-0.4,0.7-0.8,1.6c-0.4,0.8-0.7,1.7-0.7,1.7s-2-1.3-8.8-5.5c-3-1.8-5.3-3.1-6.2-3.5
		c-0.6-0.3-1.4-0.5-2.1-0.4l-0.4,0.1l1-4.5l5.7,3.7c-3.3-3-4.9-5.7-3.9-8c0.6-1.3,1.3-1.6,1.3-1.6S1274.4,403.6,1275.7,404.4z"/>
	<path class="st0" d="M1295.8,395.6c0.5,0.2,0.9,0.3,1.6-0.1l0.5-0.3c0,0,1,1.4,0.3,3.2c-0.7,1.6-1.9,1.3-2.5,1.1
		c-1.7-0.7-9.8-6.1-12.4-7.2c-0.7-0.3-2.2-0.9-3.1,1.2c-0.8,2-0.3,3.9,1.6,6.9l3.8,2.2c6.6,3.9,8.5,4.8,8.5,4.8s-0.4,0.7-0.8,1.6
		c-0.3,0.8-0.6,1.7-0.6,1.7s-2-1.3-8.9-5.4c-3-1.8-5.3-3.1-6.2-3.5c-0.6-0.2-1.4-0.5-2.1-0.4l-0.4,0.1l0.9-4.5l5.6,3.4
		c-4.7-4.8-3.8-7.8-3.2-9.4c1.6-3.8,4.3-2.8,5.5-2.3C1286,389.7,1294,394.9,1295.8,395.6z"/>
	<path class="st0" d="M1295,381.6c-0.9,2.2-1.5,3.2-1.5,3.2s0.6,0.3,0.9,0.5c2.7,1.1,5.9,1.5,7.3-2.2c1.5-3.7,0.1-6-0.3-6.3
		c1.4,0.5,4.2,3.1,2.2,8.1c-0.9,2.3-3.2,6.5-9.9,3.9c-7.6-3-11.2-8.2-9-13.8c1.7-4.3,4.5-4.9,7.1-3.9
		C1297.2,373.2,1296.4,378,1295,381.6z M1286.6,376.1c-1,2.4-0.2,5,5.1,7.9c0,0,0.5-0.7,1.3-2.7c1.4-3.6,0.7-5.7-2.3-6.9
		C1289.4,373.9,1287.5,373.7,1286.6,376.1z"/>
	<path class="st0" d="M1305.8,348.5c2.3,1.2,6,3.2,6.7,3.4c0.5,0.2,0.9,0.3,1.6-0.1l0.5-0.3c0,0,1.1,1.3,0.4,3.1
		c-0.6,1.6-1.8,1.3-2.4,1.1c-1.5-0.5-4-2.2-4-2.2c5,4.6,4.4,7.2,3.7,8.9c-1.1,3.1-3.8,4-8.4,2.2c-2.5-0.9-13-5.3-9.9-13.9
		c1.1-3.1,3.1-3.8,3.1-3.8l-0.6-3.4C1296.6,343.4,1298.7,344.7,1305.8,348.5z M1296.3,351.1c-1.8,5,4.2,8.5,8.6,10.1
		c2.7,1,4.7,1.2,5.5-1c0.3-0.9,0.7-2.7-2-6.6l-10.1-5.4C1298.3,348.2,1297.1,348.7,1296.3,351.1z"/>
	<path class="st0" d="M1319.5,332.1c0.5,0.2,0.9,0.2,1.5-0.2l0.5-0.3c0,0,1.1,1.3,0.5,3.1c-0.6,1.7-1.8,1.4-2.4,1.2
		c-1.7-0.6-10.1-5.4-12.9-6.3c-0.7-0.3-2.3-0.7-3,1.4c-0.7,2,0,3.9,2,6.8l4,2c6.9,3.5,8.8,4.3,8.8,4.3s-0.3,0.7-0.7,1.7
		c-0.3,0.9-0.5,1.7-0.5,1.7s-2-1.2-9.2-4.8c-3.1-1.6-5.5-2.7-6.5-3c-0.6-0.2-1.4-0.4-2.2-0.2l-0.4,0.1l0.6-4.6l5.8,3
		c-5-4.5-4.3-7.6-3.8-9.2c1.3-3.8,4.2-3,5.4-2.6C1309.3,326.8,1317.6,331.5,1319.5,332.1z"/>
	<path class="st0" d="M1326.6,320.9c-1.8,5.5-5.8,5.7-10.7,4.2c-2.8-0.9-11.3-5-8.9-12.6c1.8-5.5,5.8-5.7,10.7-4.2
		C1320.6,309.2,1329.1,313.3,1326.6,320.9z M1309.1,313.2c-1.6,4.9,6.2,8,8.4,8.7c5.6,1.8,6.6-0.1,7.1-1.8c1.6-4.9-6.2-8-8.4-8.7
		C1310.7,309.7,1309.6,311.6,1309.1,313.2z"/>
	<path class="st0" d="M1331.6,293.4c0.6,0.2,0.9,0.2,1.5-0.3l0.5-0.3c0,0,1.2,1.3,0.6,3.1c-0.5,1.7-1.7,1.5-2.4,1.3
		c-1.7-0.5-10.3-5-13.1-5.8c-0.8-0.2-2.3-0.6-2.9,1.5c-0.6,2,0.1,3.9,2.3,6.7l4,1.8c7,3.2,9,3.9,9,3.9s-0.3,0.7-0.6,1.7
		c-0.3,0.9-0.4,1.7-0.4,1.7s-2.1-1.1-9.4-4.5c-3.2-1.5-5.6-2.5-6.6-2.8c-0.6-0.2-1.4-0.4-2.2-0.2l-0.4,0.1l0.4-4.6l5.9,2.8
		c-5.1-4.3-4.6-7.4-4.1-9.1c1.2-3.9,4-3.2,5.3-2.8C1321.2,288.5,1329.7,292.9,1331.6,293.4z"/>
	<path class="st0" d="M1340.4,292.2c0,0-0.8-2.4-3.7-3.2c-1.8-0.5-2.3,0.4-2.3,0.4l-0.5-0.2c-1.4-0.6-2-1.6-1.8-3.1
		c0.7-1.5,2-1.5,3.4-1.1C1338.6,285.8,1341.5,288.5,1340.4,292.2z"/>
</g>
<g>
	<path class="st0" d="M152.1,888.2c-1.9-0.4-2.9-0.5-2.9-0.5l0.5-0.5c1.1-1.1,1.4-1.3,4.8-11.7l3.3-10l-2.1-0.4
		c-1.6-0.3-3-0.2-3.9,0.1c-1.1,0.4-1.4,0.6-1.5,0.7c0-0.1,0.5-1.3,1-2.8l0.4-1.1l17.1,3.4c0,0.2-0.2,0.5-0.3,1
		c-0.5,1.6-0.8,2.8-0.9,2.9c0,0-0.1-0.4-0.9-1.2c-0.6-0.6-1.8-1.2-3.3-1.5l-2.2-0.4l-3.4,10.3c-0.9,2.6-2.6,7.8-2.9,9.3
		c-0.2,1.1-0.2,1.7-0.1,2.4l0.1,0.6C154.9,888.8,154.1,888.6,152.1,888.2z"/>
	<path class="st0" d="M179,890.2c-0.1,0.6-0.1,0.9,0.4,1.5l0.4,0.4c0,0-1.1,1.3-3,1c-1.7-0.3-1.7-1.5-1.6-2.2
		c0.3-1.8,3.8-10.9,4.3-13.7c0.1-0.8,0.4-2.3-1.9-2.7c-2.1-0.4-3.9,0.6-6.4,3l-1.3,4.2c-2.3,7.3-2.8,9.4-2.8,9.4s-0.7-0.2-1.7-0.4
		c-0.9-0.2-1.9-0.3-1.9-0.3s0.9-2.5,3.8-11.4c2.1-6.4,3.5-11,3.8-12.5c0.2-1,0.2-1.6,0-2.3l-0.2-0.5l4.8-0.1c0,0-1,2.9-2.8,8.3
		l-0.2,0.8c-0.8,2.5-1.7,4.4-1.7,4.4c3.7-5.6,6.8-5.5,8.5-5.2c4,0.7,3.6,3.6,3.4,4.9C182.6,879.3,179.3,888.3,179,890.2z"/>
	<path class="st0" d="M201.1,886c-0.7,2.5-1.9,6.5-2,7.3c-0.1,0.6-0.1,1,0.5,1.5l0.4,0.4c0,0-1,1.3-3,1c-1.7-0.3-1.7-1.5-1.6-2.2
		c0.2-1.5,1.4-4.4,1.4-4.4c-3.5,5.8-6.2,5.7-8,5.4c-3.3-0.5-4.6-2.9-3.9-7.8c0.4-2.6,2.7-13.8,11.6-12.4c3.3,0.5,4.3,2.3,4.3,2.3
		l3.2-1.2C204.2,876,203.4,878.3,201.1,886z M196.6,877.2c-5.3-0.8-7.5,5.8-8.2,10.5c-0.4,2.8-0.2,4.8,2.1,5.2
		c1,0.2,2.8,0.2,6.1-3.3l3.3-11C199.9,878.6,199.1,877.5,196.6,877.2z"/>
	<path class="st0" d="M218.6,879.6c-0.2,0.9-0.3,1.4-0.3,1.4s-0.4-0.4-3.4-0.8l-2.3-0.3l-2.8,10.2c-0.2,0.8-0.6,2.4-0.6,2.9
		c-0.2,1.1-0.3,2.8,2.2,3.2c2,0.3,3.2-0.7,3.2-0.7s-0.7,3.2-5.2,2.6c-4-0.5-3.9-3.3-3.7-4.8c0.2-1.2,0.6-2.8,1-4.3
		c1.8-6.4,2.8-9.5,2.8-9.5l-2.4-0.3c0.1,0,1.5-0.9,3.2-2.7c1.8-1.8,2.8-3.3,2.8-3.3l1.2,0.2l-1.2,4.4l2.2,0.3
		c2.9,0.4,3.6,0.1,3.6,0.1S218.9,878.6,218.6,879.6z"/>
	<path class="st0" d="M214.7,903.7c0,0,2.2-1.1,2.6-4.2c0.2-1.9-0.8-2.2-0.8-2.2l0.1-0.6c0.4-1.5,1.3-2.2,2.8-2.2
		c1.5,0.4,1.8,1.7,1.7,3.2C220.7,900.9,218.6,904.1,214.7,903.7z"/>
	<path class="st0" d="M241.6,901.7c-3.3-0.3-4.6-2.1-4.6-2.1l-3.2,1.4c0,0,0.4-1.2,3-12c1.3-5.7,2.7-11.5,2.8-12.8
		c0.1-1,0.1-1.7-0.2-2.3l-0.2-0.5l4.8-0.4c0,0-0.8,2.8-2.1,8.3l-0.2,0.8c-0.5,1.9-1.2,4.3-1.3,4.6c3.2-5.9,5.8-6,7.6-5.8
		c3.3,0.3,4.8,2.7,4.4,7.6C252.3,891.3,250.6,902.6,241.6,901.7z M246.6,883.5c-1-0.1-2.8-0.1-5.9,3.6l-2.6,11.1c0,0,0.9,1,3.4,1.2
		c5.3,0.5,7.2-6.2,7.6-10.9C249.3,885.7,248.9,883.7,246.6,883.5z"/>
	<path class="st0" d="M263.1,902.4c-4.1,5.7-6.1,8-9.7,7.7c-2-0.1-2.8-0.6-2.8-0.6s0.2-0.6,0.4-1.7c0.3-1.1,0.3-2,0.3-2
		c0.7,1.6,1.5,2.1,2.2,2.1c1.3,0.1,2.3-0.3,5.4-4.4l-2.2-17.2c-0.2-1.5-0.5-2.5-1-3.1l-0.4-0.6l4.6-0.6c0,0,0,2,0.6,7.8l0.8,7.8
		c0.2,1.9,0.2,2.8,0.2,2.9c0.2-0.3,6.4-9.8,6.8-15c0.1-1.7-0.8-2.2-0.8-2.2s0.9-0.7,2.3-0.6c2,0.1,2,1.7,2,2.4
		C271.5,889.5,266,898.3,263.1,902.4z"/>
	<path class="st0" d="M297,894.5c-0.5,2.6-1.2,6.7-1.3,7.4c0,0.6,0,1,0.6,1.5l0.5,0.4c0,0-0.9,1.4-2.8,1.4c-1.7-0.1-1.8-1.3-1.8-2
		c0.1-1.5,0.9-4.5,0.9-4.5c-2.9,6.1-5.5,6.3-7.3,6.2c-3.3-0.1-4.9-2.4-4.7-7.4c0.1-2.7,1.2-14,10.2-13.6c3.3,0.1,4.6,1.9,4.6,1.9
		l3.1-1.6C299,884.2,298.5,886.6,297,894.5z M291.7,886.2c-5.4-0.2-6.8,6.6-7,11.3c-0.1,2.9,0.3,4.8,2.6,4.9c1,0,2.8-0.1,5.7-3.9
		l2.1-11.3C295,887.2,294.1,886.3,291.7,886.2z"/>
	<path class="st0" d="M324.4,887.8c-0.2,1.3-0.3,2.7-0.3,2.7c-0.8-1.9-1.5-3.6-4.6-3.7c-4.5-0.1-6.2,4.9-6.2,10.1
		c0,2.6,0,6.4,4.3,6.5c3.6,0.1,5.1-2,5.3-2.4c0,1.8-1.4,4.9-6.3,4.9c-6.3-0.1-6.9-5.3-6.8-8.2c0-1.8,0.4-13.1,9.8-12.9
		c3.6,0.1,5.2,1.2,5.2,1.2S324.5,886.5,324.4,887.8z"/>
	<path class="st0" d="M331.9,892.3c-0.9,7.3-1.1,9.6-1.1,10.2c0,0.6,0.1,0.9,0.7,1.4l0.5,0.4c0,0-0.8,1.5-2.8,1.5
		c-1.8,0-1.9-1.2-1.9-1.9c0-2.6,2.7-19.6,2.6-23.2c0-1-0.1-1.7-0.4-2.2l-0.3-0.5l4.7-1C333.9,877.1,333.5,879.1,331.9,892.3z"/>
	<path class="st0" d="M343.3,896.5c-2.4,0-3.5-0.2-3.5-0.2s-0.1,0.7-0.1,1c0,2.9,0.8,6,4.8,5.9s5.5-2.2,5.8-2.7
		c0,1.5-1.2,5.1-6.6,5.1c-2.5,0-7.2-0.4-7.4-7.7c-0.1-8.2,3.3-13.4,9.3-13.5c4.6-0.1,6.3,2.3,6.3,5
		C352,895.3,347.2,896.4,343.3,896.5z M345.2,886.6c-2.6,0-4.7,1.8-5.3,7.7c0,0,0.8,0.2,3,0.1c3.9-0.1,5.6-1.6,5.5-4.8
		C348.4,888.4,347.8,886.6,345.2,886.6z"/>
	<path class="st0" d="M374.4,903.9l-0.4,0.6c0,0-0.7,0-1.8,0s-1.8,0.1-1.8,0.1l-2.4-15.1c-0.2-1.1-0.3-2.3-0.3-2.4
		c0,0.1-0.2,1.1-0.5,2.4l-4.9,15.4c0,0-0.7,0-2.1,0c-1.4,0.1-2.2,0.2-2.2,0.2l-2.9-16.2c-0.3-1.4-0.9-2.4-1.3-2.9l-0.5-0.6l4.2-1.1
		c0,0,0.2,0.7,1.1,5.9l1.7,10.3c0.1,1,0.2,2,0.2,2.1c0-0.1,0.1-0.8,0.6-2.2l5.1-16.3c0,0,0.8,0,1.9,0s1.9-0.2,1.9-0.2l2.6,16
		c0.2,1.4,0.3,2.1,0.3,2.1s5.1-10.1,4.8-15.9c-0.1-1.7-1.1-2.1-1.1-2.1s0.8-0.8,2.2-0.9c2-0.1,2.2,1.4,2.2,2.1
		C381.4,890.8,376.7,900.6,374.4,903.9z"/>
	<path class="st0" d="M391,894.5c-2.4,0.2-3.5,0-3.5,0s0,0.7,0,1c0.2,2.9,1.1,5.9,5.1,5.7c4-0.3,5.4-2.5,5.6-3
		c0.1,1.5-0.9,5.1-6.4,5.5c-2.5,0.2-7.3,0-7.8-7.3c-0.6-8.2,2.6-13.6,8.6-14c4.6-0.3,6.4,2,6.6,4.7
		C399.6,892.8,394.9,894.2,391,894.5z M392.4,884.6c-2.6,0.2-4.6,2-4.9,8c0,0,0.8,0.1,3,0c3.8-0.3,5.5-1.9,5.2-5.1
		C395.6,886.1,394.9,884.4,392.4,884.6z"/>
	<path class="st0" d="M418.1,901.6c-5.8,0.6-7.6-3.1-8.1-8.2c-0.3-2.9,0.1-12.3,8-13.1c5.7-0.6,7.6,3.1,8.1,8.2
		C426.4,891.4,426,900.8,418.1,901.6z M418.2,882.4c-5.1,0.5-4.9,8.8-4.6,11.2c0.6,5.8,2.8,6,4.4,5.9c5.1-0.5,4.9-8.8,4.6-11.2
		C422,882.5,419.9,882.3,418.2,882.4z"/>
	<path class="st0" d="M440.6,872.2c0,1.2,0.1,2,0.1,2c-1.1-1.5-2.3-1.8-3.3-1.7c-1.2,0.1-1.8,0.5-2.3,1.3c-0.6,1-0.5,2.1-0.5,3.8
		l0,1.8l1-0.1c2.7-0.3,3.5-0.8,3.5-0.8s0,0.5-0.1,1.5c0,0.9,0.1,1.4,0.1,1.4s-0.9-0.3-3.5,0l-1,0.1l-0.2,14.7
		c0,5.7,0.5,10.9-4.6,11.4c-2.2,0.3-2.9-0.1-2.9-0.1s0.1-0.4,0.1-1.5c0-1.2,0-2,0-2c1,1.5,1.8,1.8,2.5,1.7c1.8-0.2,1.7-1.6,1.7-5
		l0.1-19l-2,0.2l0.4-0.4c1.2-1.3,1.7-2,1.7-2.9l0-0.6c0-2.9,0-6.9,6.2-7.6c2.3-0.3,3.2,0,3.2,0S440.6,871.1,440.6,872.2z"/>
	<path class="st0" d="M459.2,876.9c0,1,0.1,1.4,0.1,1.4s-0.5-0.3-3.5,0.1l-2.3,0.3l0,10.5c0,0.8,0.1,2.4,0.2,3
		c0.2,1.1,0.5,2.8,3,2.5c2-0.3,2.9-1.5,2.9-1.5s0.1,3.3-4.3,3.9c-4,0.6-4.7-2.1-4.9-3.6c-0.2-1.2-0.2-2.8-0.2-4.4
		c0-6.6,0.1-9.9,0.1-9.9l-2.4,0.3c0.1,0,1.2-1.3,2.4-3.4c1.3-2.2,1.8-3.9,1.8-3.9l1.2-0.2l0.1,4.6l2.2-0.3c2.9-0.4,3.5-0.9,3.5-0.9
		S459.2,875.9,459.2,876.9z"/>
	<path class="st0" d="M482.6,892l-0.3,0.6c0,0-0.7,0-1.8,0.2c-1.1,0.2-1.8,0.4-1.8,0.4l-4.2-14.7c-0.3-1.1-0.5-2.2-0.6-2.4
		c0,0.1,0,1.1-0.3,2.4l-3,15.9c0,0-0.7,0-2,0.3c-1.4,0.2-2.2,0.4-2.2,0.4l-4.8-15.7c-0.4-1.4-1.1-2.3-1.6-2.8l-0.5-0.5l4-1.6
		c0,0,0.3,0.7,1.8,5.8l2.9,10c0.3,0.9,0.5,2,0.5,2.1c0-0.1,0-0.8,0.3-2.2l3.2-16.8c0,0,0.8-0.1,1.9-0.2s1.9-0.4,1.9-0.4l4.5,15.6
		c0.4,1.3,0.5,2,0.5,2s3.9-10.7,2.9-16.4c-0.3-1.7-1.4-1.9-1.4-1.9s0.7-0.9,2.1-1.1c2-0.3,2.3,1.1,2.5,1.9
		C488,878.3,484.4,888.5,482.6,892z"/>
	<path class="st0" d="M501,888.4c-2.5,6.6-3.8,9.3-7.4,10c-2,0.4-2.8,0.1-2.8,0.1s0.1-0.6,0-1.7c0-1.1-0.2-2-0.2-2
		c1.1,1.4,2,1.6,2.7,1.5c1.3-0.2,2.2-0.9,4.1-5.6l-6.6-16c-0.6-1.4-1.2-2.3-1.7-2.7l-0.6-0.5l4.3-1.7c0,0,0.5,1.9,2.6,7.3l2.8,7.3
		c0.7,1.7,0.9,2.7,0.9,2.7c0.1-0.4,3.6-11.1,2.7-16.2c-0.3-1.7-1.4-1.9-1.4-1.9s0.7-0.9,2.1-1.2c2-0.4,2.4,1.1,2.5,1.8
		C505.8,873.8,502.8,883.7,501,888.4z"/>
	<path class="st0" d="M524.9,881.3c0.1,0.6,0.3,0.9,1,1.2l0.5,0.3c0,0-0.5,1.6-2.4,2c-1.7,0.4-2.2-0.8-2.3-1.5
		c-0.4-1.8-0.6-11.5-1.2-14.3c-0.2-0.8-0.5-2.3-2.7-1.8c-2.1,0.4-3.4,2-4.8,5.2l0.4,4.4c0.6,7.7,0.9,9.8,0.9,9.8s-0.8,0.1-1.8,0.3
		c-0.9,0.2-1.7,0.4-1.7,0.4s-0.1-2.3-0.6-10.4c-0.2-3.5-0.5-6.1-0.7-7.1c-0.1-0.6-0.4-1.4-0.9-2l-0.3-0.3l4.2-1.8l0.4,6.5
		c1.3-6.6,4.3-7.6,6-8c4-0.9,4.7,2,5,3.3C524.2,869.9,524.5,879.4,524.9,881.3z"/>
	<path class="st0" d="M530.2,888.5c0,0,1.7-1.8,1-4.8c-0.4-1.8-1.5-1.8-1.5-1.8l-0.1-0.6c-0.1-1.6,0.5-2.5,1.9-3.1
		c1.6-0.1,2.3,1,2.6,2.4C535,883.8,534,887.6,530.2,888.5z"/>
	<path class="st0" d="M591.7,856c0.4,2.6,1,6.7,1.2,7.4c0.2,0.6,0.3,0.9,1.1,1.2l0.6,0.2c0,0-0.4,1.7-2.2,2.2
		c-1.7,0.5-2.1-0.6-2.3-1.3c-0.4-1.5-0.6-4.6-0.6-4.6c-0.7,6.7-3.2,7.8-4.9,8.3c-3.2,0.9-5.4-0.7-6.8-5.4
		c-0.8-2.6-3.5-13.6,5.2-16.2c3.2-1,4.9,0.3,4.9,0.3l2.4-2.5C590.2,845.5,590.5,848,591.7,856z M583.9,849.8c-5.1,1.5-4.3,8.4-3,13
		c0.8,2.8,1.8,4.4,4.1,3.8c1-0.3,2.6-1,4.1-5.5l-1.7-11.3C587.4,849.7,586.3,849.1,583.9,849.8z"/>
	<path class="st0" d="M605.3,844c0.3,1.3,0.5,2.5,0.5,2.5c-1.4-1.6-2.9-2.8-5.6-1.9c-2.4,0.8-2.8,2.3-2.4,3.6
		c0.5,1.5,1.5,1.9,3.2,2.6l2.1,0.8c2.3,0.9,4.2,1.5,5.1,4.3c0.5,1.6,1,5.7-4.7,7.5c-3.4,1.1-5.5,0.7-5.5,0.7s-0.1-0.7-0.3-2
		c-0.2-1.4-0.5-2.5-0.5-2.5c1.3,1.4,2.8,2.8,5.8,1.8c2.7-0.9,2.8-2.8,2.4-4c-0.5-1.7-1.6-2.2-3.2-2.8l-2.3-0.8c-2.7-1-4-2-4.7-4.2
		c-0.9-2.9,0.3-5.7,4.5-7.1c3.2-1,5.3-0.5,5.3-0.5S605,842.7,605.3,844z"/>
	<path class="st0" d="M634.5,849.6c0.2,0.5,0.4,0.9,1.1,1.1l0.6,0.2c0,0-0.3,1.7-2.2,2.3c-1.7,0.6-2.2-0.5-2.5-1.2
		c-0.6-1.7-2-11.3-3-14c-0.3-0.7-0.8-2.2-3-1.5c-2,0.7-3.1,2.4-4.1,5.8l0.9,4.3c1.5,7.5,2.1,9.6,2.1,9.6s-0.7,0.2-1.7,0.5
		c-0.9,0.3-1.7,0.7-1.7,0.7s-0.4-2.6-2.2-11.8c-1.3-6.6-2.3-11.3-2.8-12.7c-0.3-0.9-0.6-1.5-1.1-2l-0.4-0.4l4.2-2.4
		c0,0,0.5,3,1.6,8.6l0.2,0.8c0.5,2.5,0.7,4.7,0.7,4.7c0.5-6.7,3.3-8.1,4.9-8.7c3.8-1.3,5,1.4,5.4,2.6
		C632.4,838.4,633.9,847.8,634.5,849.6z"/>
	<path class="st0" d="M644.2,839.7c-2.3,0.8-3.4,1-3.4,1s0.2,0.7,0.3,1c1,2.7,2.8,5.4,6.5,4s4.5-3.9,4.5-4.5
		c0.5,1.4,0.6,5.2-4.5,7.1c-2.3,0.9-7,2-9.5-4.8c-2.9-7.7-1.4-13.8,4.2-15.9c4.3-1.6,6.7,0.1,7.6,2.6
		C651.9,835.6,647.8,838.3,644.2,839.7z M642.6,829.8c-2.5,0.9-3.9,3.3-2.4,9c0,0,0.8-0.1,2.9-0.9c3.6-1.4,4.7-3.3,3.6-6.3
		C646.1,830.3,645,828.9,642.6,829.8z"/>
	<path class="st0" d="M678.4,832.5c0.2,0.5,0.4,0.8,1.2,1l0.6,0.2c0,0-0.2,1.7-2,2.4c-1.6,0.7-2.3-0.4-2.5-1
		c-0.7-1.7-2.6-11.2-3.7-13.9c-0.3-0.7-0.9-2.2-3-1.3c-2,0.8-3,2.6-3.8,6l1.1,4.3c1.9,7.5,2.6,9.4,2.6,9.4s-0.7,0.2-1.6,0.6
		c-0.9,0.4-1.7,0.8-1.7,0.8s-0.6-2.6-2.8-11.6c-1.7-6.5-2.9-11.2-3.5-12.6c-0.4-0.9-0.7-1.5-1.2-1.9l-0.4-0.3l4.1-2.6
		c0,0,0.6,3,2.1,8.5l0.2,0.8c0.6,2.5,1,4.6,1,4.6c0.1-6.7,2.8-8.3,4.4-8.9c3.8-1.5,5,1.1,5.5,2.3
		C675.7,821.4,677.7,830.7,678.4,832.5z"/>
	<path class="st0" d="M694.8,817.2c0.7,2.5,1.8,6.5,2.2,7.2c0.2,0.5,0.5,0.9,1.2,1l0.6,0.1c0,0-0.2,1.7-1.9,2.5
		c-1.6,0.7-2.2-0.4-2.5-1c-0.6-1.4-1.2-4.5-1.2-4.5c0.1,6.8-2.2,8.1-3.8,8.8c-3,1.3-5.5,0-7.5-4.6c-1.1-2.4-5.1-13.1,3.2-16.7
		c3.1-1.3,4.9-0.3,4.9-0.3l2.1-2.8C692.1,807,692.7,809.5,694.8,817.2z M686.3,812.1c-4.9,2.2-3.3,8.9-1.3,13.3
		c1.2,2.6,2.4,4.2,4.5,3.2c0.9-0.4,2.5-1.3,3.4-6l-3.1-11C689.8,811.5,688.6,811.1,686.3,812.1z"/>
	<path class="st0" d="M706.2,802.4c0.3,0.9,0.5,1.4,0.5,1.4s-0.6-0.1-3.3,1.1l-2.1,1l3.1,10.1c0.2,0.8,0.8,2.3,1,2.8
		c0.5,1,1.3,2.5,3.6,1.5c1.8-0.8,2.4-2.3,2.4-2.3s1.1,3.1-3,5c-3.7,1.7-5.1-0.7-5.7-2c-0.5-1.1-1-2.7-1.5-4.1
		c-1.9-6.4-2.7-9.6-2.7-9.6l-2.2,1c0.1-0.1,0.8-1.6,1.3-4c0.6-2.5,0.6-4.3,0.6-4.3l1.1-0.5l1.4,4.4l2.1-0.9c2.7-1.2,3.1-1.9,3.1-1.9
		S705.9,801.5,706.2,802.4z"/>
	<path class="st0" d="M727.9,810c0.3,0.5,0.5,0.8,1.2,1l0.6,0.1c0,0-0.1,1.7-1.9,2.6c-1.6,0.8-2.3-0.3-2.6-0.9
		c-0.8-1.6-3.3-11-4.5-13.6c-0.3-0.7-1.1-2.1-3.1-1.1c-1.9,0.9-2.8,2.8-3.4,6.2l1.4,4.2c2.4,7.3,3.2,9.3,3.2,9.3s-0.7,0.2-1.6,0.7
		c-0.8,0.4-1.7,0.9-1.7,0.9s-0.7-2.6-3.5-11.4c-2.1-6.4-3.5-11-4.2-12.3c-0.4-0.9-0.8-1.5-1.3-1.8l-0.4-0.3l3.9-2.9
		c0,0,0.8,2.9,2.6,8.3l0.2,0.8c0.8,2.5,1.2,4.6,1.2,4.6c-0.3-6.7,2.3-8.4,3.9-9.2c3.7-1.8,5.1,0.8,5.6,2
		C724.5,799,727.1,808.2,727.9,810z"/>
	<path class="st0" d="M750.7,789.6l3.2,8.5c0.9,2.6,1.9,5.1,1.1,7.6c-0.7,2.1-2.6,3.7-4.9,4.9c-3.7,1.9-6.1,2.4-6.1,2.4
		s-0.1-0.8-0.6-2.1c-0.5-1.4-1-2.5-1-2.5c2.2,1.6,3.4,1.9,6.3,0.4c4.1-2.1,4-4.6,2.7-8.2l-0.4-1.1c-0.8-2.2-1.5-4.4-1.5-4.4
		c0.6,6.7-1.7,8.2-3.2,9c-3,1.6-5.5,0.4-7.8-3.9c-1.2-2.3-5.9-12.7,2-16.9c3-1.6,4.9-0.7,4.9-0.7l2-2.9
		C747.3,779.8,748,782.5,750.7,789.6z M741.9,785.3c-4.8,2.5-2.6,9.1-0.4,13.3c1.3,2.6,2.7,4,4.8,2.9c0.9-0.5,2.4-1.5,3.1-6.3
		l-3.9-10.7C745.3,784.5,744.1,784.1,741.9,785.3z"/>
	<path class="st0" d="M765.9,793.9c-5.1,2.8-8.2,0.2-10.7-4.3c-1.4-2.6-4.8-11.4,2.2-15.2c5-2.8,8.2-0.2,10.7,4.3
		C769.5,781.2,772.9,790,765.9,793.9z M758.4,776.2c-4.5,2.5-1,10,0.1,12.1c2.8,5.1,4.9,4.4,6.4,3.6c4.5-2.5,1-10-0.1-12.1
		C762,774.8,759.9,775.4,758.4,776.2z"/>
	<path class="st0" d="M788.4,777.2c0.3,0.5,0.5,0.8,1.3,0.9l0.6,0.1c0,0,0,1.7-1.7,2.7c-1.5,0.9-2.3-0.1-2.6-0.7
		c-0.9-1.6-4.1-10.7-5.6-13.2c-0.4-0.7-1.2-2-3.2-0.9c-1.8,1.1-2.6,3-2.9,6.5l1.7,4.1c2.9,7.1,3.9,9,3.9,9s-0.7,0.3-1.6,0.8
		c-0.8,0.5-1.5,1-1.5,1s-0.8-2.2-3.8-9.7c-1.3-3.2-2.4-5.7-2.9-6.5c-0.3-0.6-0.8-1.2-1.5-1.6l-0.4-0.2l3.5-3.1l2.4,6.1
		c-0.8-6.7,1.7-8.6,3.2-9.4c3.5-2,5.1,0.4,5.8,1.6C784.1,766.6,787.4,775.5,788.4,777.2z"/>
	<path class="st0" d="M795.6,782.4c0,0,1.1-2.3-0.5-4.9c-1-1.6-2-1.2-2-1.2l-0.2-0.5c-0.6-1.4-0.3-2.5,0.8-3.5
		c1.5-0.6,2.5,0.3,3.3,1.5C798.7,776.5,799,780.4,795.6,782.4z"/>
</g>
<g>
	<path class="st0" d="M373.3,782.2c-2,0.1-3,0.2-3,0.2l0.4-0.6c0.8-1.3,1-1.6,1.8-12.5l0.7-10.5l-2.1,0.1c-1.6,0.1-3,0.5-3.8,1.1
		c-0.9,0.6-1.2,1-1.3,1c0-0.1,0.2-1.3,0.3-3l0.1-1.1l17.4-1c0,0.2,0,0.5-0.1,1.1c-0.1,1.6-0.1,2.9-0.1,3c0,0-0.2-0.3-1.1-0.9
		c-0.8-0.5-2-0.7-3.6-0.7l-2.2,0.1l-0.7,10.8c-0.2,2.8-0.5,8.2-0.5,9.7c0.1,1.1,0.2,1.7,0.5,2.3l0.3,0.6
		C376.2,782.1,375.3,782.1,373.3,782.2z"/>
	<path class="st0" d="M399.9,777.4c0,0.6,0.1,0.9,0.8,1.3l0.5,0.3c0,0-0.7,1.5-2.7,1.7c-1.8,0.1-2-1.1-2.1-1.7
		c-0.1-1.8,0.9-11.4,0.7-14.3c-0.1-0.8-0.2-2.4-2.5-2.2c-2.1,0.2-3.6,1.6-5.4,4.6l-0.2,4.4c-0.4,7.7-0.4,9.8-0.4,9.8s-0.7,0-1.7,0.1
		c-0.9,0.1-1.9,0.2-1.9,0.2s0.3-2.7,0.8-11.9c0.4-6.7,0.6-11.5,0.5-13c-0.1-1-0.2-1.6-0.6-2.2l-0.3-0.4l4.7-1.3c0,0-0.3,3-0.6,8.7
		l0,0.8c-0.2,2.6-0.5,4.7-0.5,4.7c2.2-6.4,5.2-7,6.9-7.1c4.1-0.3,4.4,2.6,4.5,3.9C400.6,766,399.7,775.5,399.9,777.4z"/>
	<path class="st0" d="M411.6,770.3c-2.4,0.3-3.5,0.2-3.5,0.2s0,0.7,0,1c0.3,2.9,1.4,5.9,5.3,5.5c4-0.4,5.3-2.7,5.5-3.2
		c0.2,1.5-0.8,5.1-6.2,5.7c-2.5,0.3-7.3,0.2-8-7c-0.9-8.2,2.1-13.7,8-14.3c4.5-0.5,6.4,1.7,6.7,4.5
		C420.2,768.3,415.5,769.8,411.6,770.3z M412.6,760.3c-2.6,0.3-4.5,2.2-4.6,8.1c0,0,0.8,0.1,3-0.1c3.8-0.4,5.4-2.1,5.1-5.2
		C415.9,761.7,415.2,760,412.6,760.3z"/>
	<path class="st0" d="M433.8,758.3c0,1.8,0,2.4,0,2.4c-0.8-1.2-1.5-1.8-2.8-1.7c-2.5,0.3-3.8,4.4-3.8,4.4l0,4.3
		c0,7.7,0.1,9.7,0.1,9.7s-0.8,0-1.8,0.2c-0.9,0.1-1.8,0.3-1.8,0.3s0.1-2.4,0.2-10.4c0-3.5-0.1-6.1-0.2-7.1c-0.1-0.6-0.3-1.5-0.7-2
		l-0.3-0.3l4.4-1.5l-0.3,6.7c0.9-4.4,2.4-7.1,4.8-7.4c1.4-0.2,2.1,0.3,2.1,0.3S433.8,756.8,433.8,758.3z"/>
	<path class="st0" d="M446,755.5c0,1,0.1,1.4,0.1,1.4s-0.5-0.3-3.5,0.1l-2.3,0.3l0.1,10.5c0,0.8,0.1,2.4,0.2,3
		c0.2,1.1,0.5,2.8,3,2.4c2-0.3,2.9-1.5,2.9-1.5s0.1,3.3-4.3,3.9c-4,0.6-4.7-2.1-4.9-3.6c-0.2-1.2-0.2-2.8-0.2-4.4
		c-0.1-6.6,0.1-9.9,0.1-9.9l-2.4,0.3c0.1,0,1.2-1.3,2.4-3.4c1.2-2.2,1.8-3.9,1.8-3.9l1.2-0.2l0.1,4.6l2.2-0.3
		c2.9-0.4,3.5-0.9,3.5-0.9S446,754.5,446,755.5z"/>
	<path class="st0" d="M457.1,773.5c-5.7,0.9-7.8-2.5-8.6-7.7c-0.5-2.9-0.7-12.3,7.2-13.6c5.7-0.9,7.8,2.5,8.6,7.7
		C464.8,762.8,465,772.2,457.1,773.5z M455.9,754.4c-5,0.8-4.3,9.1-3.9,11.4c1,5.8,3.2,5.8,4.8,5.6c5-0.8,4.3-9.1,3.9-11.4
		C459.8,754.2,457.6,754.1,455.9,754.4z"/>
	<path class="st0" d="M491.8,763.6c0.1,0.6,0.3,0.9,1,1.2l0.5,0.3c0,0-0.6,1.6-2.5,2c-1.7,0.4-2.1-0.8-2.3-1.5
		c-0.4-1.8-0.5-11.5-1-14.3c-0.2-0.8-0.5-2.3-2.7-1.9c-2.1,0.4-3.4,2-4.9,5.2l0.3,4.4c0.5,7.7,0.8,9.8,0.8,9.8s-0.7,0.1-1.7,0.3
		c-0.9,0.2-1.8,0.4-1.8,0.4s-0.1-2.7-0.6-12c-0.4-6.7-0.7-11.5-1-13c-0.2-1-0.4-1.6-0.8-2.1l-0.3-0.4l4.5-1.8c0,0,0.1,3,0.5,8.7
		l0.1,0.8c0.2,2.6,0.1,4.7,0.1,4.7c1.4-6.6,4.3-7.6,6-7.9c4-0.8,4.7,2.1,5,3.3C491.2,752.2,491.4,761.7,491.8,763.6z"/>
	<path class="st0" d="M510.7,751.6c0.2,2.6,0.6,6.8,0.8,7.5c0.1,0.6,0.3,0.9,1,1.2l0.5,0.2c0,0-0.5,1.6-2.4,2.1
		c-1.7,0.4-2.1-0.8-2.3-1.4c-0.3-1.5-0.3-4.6-0.3-4.6c-1.2,6.7-3.6,7.6-5.4,8c-3.2,0.7-5.4-1-6.5-5.9c-0.6-2.6-2.6-13.8,6.2-15.9
		c3.3-0.8,4.9,0.6,4.9,0.6l2.6-2.3C509.9,741.1,510,743.6,510.7,751.6z M503.3,745c-5.2,1.2-4.8,8.1-3.8,12.8c0.6,2.8,1.6,4.6,3.8,4
		c1-0.2,2.7-0.8,4.5-5.3l-1-11.4C506.9,745.1,505.8,744.5,503.3,745z"/>
	<path class="st0" d="M525,758.3l-0.2,0.6c0,0-0.5,0.1-1.8,0.4c-1.1,0.3-1.9,0.6-1.9,0.6l-6.3-15.2c-0.5-1.3-1.4-2.2-1.9-2.6
		l-0.6-0.4l4-1.9c0,0,0.4,0.8,3,7.3l3.2,7.8c0.6,1.4,0.8,2.5,0.8,2.5s3.6-11.8,2.2-17c-0.4-1.7-1.5-1.8-1.5-1.8s0.6-1,2-1.3
		c2-0.5,2.4,0.9,2.6,1.6C529.9,743.3,526.5,754.5,525,758.3z"/>
	<path class="st0" d="M539.6,745.7c-2.3,0.7-3.5,0.8-3.5,0.8s0.1,0.7,0.2,1c0.8,2.8,2.3,5.6,6.2,4.5c3.8-1.1,4.8-3.5,4.9-4.1
		c0.4,1.4,0.1,5.2-5.1,6.7c-2.4,0.7-7.1,1.4-9.1-5.6c-2.2-7.9-0.2-13.8,5.5-15.5c4.4-1.2,6.7,0.6,7.4,3.3
		C547.7,742.3,543.3,744.6,539.6,745.7z M538.9,735.6c-2.5,0.7-4.1,2.9-3.2,8.8c0,0,0.8,0,2.9-0.6c3.7-1,5-2.9,4.1-6
		C542.4,736.5,541.4,734.9,538.9,735.6z"/>
	<path class="st0" d="M560.7,722.4c-0.4,1.6-0.5,2,1.4,12.7c0.5,2.7,1.5,8,1.9,9.5c0.3,1.1,0.6,1.6,1.1,2.1l0.4,0.5
		c0,0-0.7,0.2-2.8,0.8S560,749,560,749l0.2-0.7c0.4-1.6,0.5-2-1.4-12.7c-0.5-2.7-1.5-8-1.9-9.5c-0.3-1.1-0.6-1.6-1.1-2.1l-0.4-0.5
		c0,0,0.7-0.1,2.7-0.8c2-0.6,2.8-1,2.8-1L560.7,722.4z"/>
	<path class="st0" d="M589.8,728c0.5,2.6,1.3,6.7,1.6,7.4c0.2,0.5,0.4,0.9,1.1,1.1l0.6,0.2c0,0-0.3,1.7-2.1,2.3
		c-1.6,0.6-2.2-0.5-2.4-1.2c-0.5-1.5-0.8-4.6-0.8-4.6c-0.4,6.7-2.8,7.9-4.5,8.5c-3.1,1.1-5.4-0.4-7.1-5.1
		c-0.9-2.5-4.1-13.4,4.5-16.4c3.2-1.1,4.9,0,4.9,0l2.3-2.6C587.8,717.7,588.2,720.2,589.8,728z M581.7,722.3
		c-5.1,1.8-3.9,8.6-2.4,13.1c0.9,2.7,2,4.4,4.3,3.6c1-0.3,2.5-1.1,3.9-5.7l-2.2-11.2C585.2,722,584,721.5,581.7,722.3z"/>
	<path class="st0" d="M700.5,669.5c0.6,1.7,0.9,2.2,0.9,2.2c-1.1-0.8-2-1.2-3.2-0.6c-2.2,1.2-1.9,5.5-1.9,5.5l1.5,4
		c2.8,7.2,3.6,9,3.6,9s-0.7,0.3-1.6,0.8c-0.8,0.4-1.5,0.9-1.5,0.9s-0.8-2.2-3.5-9.8c-1.2-3.3-2.3-5.7-2.8-6.6
		c-0.3-0.6-0.8-1.3-1.4-1.6l-0.4-0.2l3.6-3l2.2,6.4c-0.8-4.4-0.3-7.5,1.8-8.7c1.3-0.7,2-0.5,2-0.5S699.9,668,700.5,669.5z"/>
	<path class="st0" d="M711.6,673.8c-2.1,1.2-3.2,1.6-3.2,1.6s0.3,0.6,0.5,0.9c1.4,2.5,3.6,4.9,7.1,2.9s3.8-4.6,3.8-5.1
		c0.7,1.3,1.4,5-3.4,7.7c-2.2,1.2-6.6,3.1-10.2-3.2c-4.1-7.1-3.6-13.4,1.6-16.3c4-2.3,6.6-1,8,1.4
		C718.6,668.5,715,671.8,711.6,673.8z M708.5,664.2c-2.3,1.3-3.3,3.8-1,9.3c0,0,0.8-0.2,2.7-1.3c3.3-1.9,4.1-4,2.5-6.8
		C712.1,664.2,710.7,663,708.5,664.2z"/>
	<path class="st0" d="M746.7,659.7c0.3,0.5,0.6,0.8,1.3,0.8l0.6,0.1c0,0,0.1,1.7-1.6,2.7c-1.5,0.9-2.3,0-2.6-0.6
		c-0.9-1.5-4.4-10.6-5.9-13.1c-0.4-0.7-1.3-2-3.2-0.8c-1.8,1.1-2.5,3-2.8,6.5l1.8,4.1c3.1,7.1,4.1,8.9,4.1,8.9s-0.7,0.3-1.5,0.9
		c-0.8,0.5-1.6,1-1.6,1s-0.6-1.7-3.1-7.5c-0.8-1.9-2.6-5.9-3.2-7c-0.5-0.9-1.4-2.2-3.3-1c-1.8,1.1-2.5,3-2.7,6.5l1.8,4
		c3.1,7.1,4.1,8.9,4.1,8.9s-0.7,0.3-1.6,0.9c-0.8,0.5-1.5,1-1.5,1s-0.8-2.2-4-9.6c-1.4-3.2-2.5-5.6-3-6.5c-0.3-0.6-0.8-1.2-1.5-1.6
		l-0.4-0.2l3.4-3.1l2.5,6c-0.8-5.9,0.8-8.1,2.9-9.4c3.6-2.2,5.2,0.4,5.8,1.4c0.4,0.6,0.8,1.7,0.9,1.9c-0.9-6.5,1.5-8.3,3-9.2
		c3.5-2.1,5.1,0.3,5.8,1.4C742.2,649.2,745.7,658.1,746.7,659.7z"/>
	<path class="st0" d="M753.9,647.9c-2,1.3-3.1,1.8-3.1,1.8s0.3,0.6,0.5,0.9c1.6,2.4,3.9,4.6,7.2,2.4c3.3-2.2,3.5-4.8,3.4-5.3
		c0.8,1.2,1.7,4.9-2.9,7.9c-2.1,1.4-6.3,3.5-10.3-2.6c-4.5-6.9-4.4-13.1,0.6-16.4c3.8-2.5,6.5-1.4,8,0.9
		C760.6,642.2,757.2,645.7,753.9,647.9z M750.3,638.5c-2.2,1.4-3,4-0.4,9.4c0,0,0.8-0.3,2.6-1.5c3.2-2.1,3.9-4.3,2.1-7
		C753.8,638.3,752.4,637.1,750.3,638.5z"/>
	<path class="st0" d="M774,629.4c3.3,6.4,4.2,8.2,4.6,8.8c0.3,0.5,0.6,0.7,1.3,0.8l0.6,0c0,0,0.2,1.7-1.4,2.8
		c-1.4,1-2.3,0.1-2.7-0.5c-0.9-1.3-2-4.2-2-4.2c1.4,6.6-0.6,8.4-2.1,9.4c-2.8,1.9-5.4,1.1-8.3-3c-1.5-2.2-7.5-11.9,0-17.1
		c2.3-1.6,4.1-1.3,4.1-1.3c-0.9-1.7-1.9-3.7-2.5-4.6c-0.6-0.8-1-1.3-1.6-1.6l-0.5-0.2l3.4-3.4C767,615.4,767.9,617.4,774,629.4z
		 M765.8,628.2c-4.4,3.1-1.5,9.4,1.2,13.3c1.6,2.4,3.2,3.6,5.1,2.3c0.8-0.6,2.2-1.8,2.2-6.6l-5.2-10.2
		C769.1,627,767.9,626.8,765.8,628.2z"/>
	<path class="st0" d="M791.2,631.9c0.6,7,0.5,10-2.4,12.2c-1.7,1.2-2.5,1.3-2.5,1.3s-0.2-0.6-0.8-1.5c-0.5-1-1-1.7-1-1.7
		c1.6,0.8,2.5,0.6,3.1,0.2c1-0.8,1.6-1.7,1.3-6.8l-12.8-11.7c-1.1-1-2-1.6-2.7-1.7l-0.7-0.2l3.2-3.4c0,0,1.3,1.5,5.5,5.5l5.7,5.4
		c1.3,1.3,1.9,2,2,2.1c-0.1-0.4-1.5-11.6-4.5-15.8c-1-1.4-2-1.1-2-1.1s0.2-1.1,1.4-2c1.7-1.2,2.6,0,3,0.5
		C789.4,616.6,790.8,626.8,791.2,631.9z"/>
	<path class="st0" d="M799.6,615.4c-1.9,1.5-2.9,2-2.9,2s0.4,0.6,0.6,0.9c1.8,2.3,4.2,4.3,7.4,1.9c3.2-2.4,3.2-5.1,3-5.6
		c0.9,1.2,2,4.8-2.3,8.1c-2,1.5-6.1,4-10.5-1.8c-5-6.5-5.3-12.8-0.6-16.4c3.6-2.8,6.4-1.9,8.1,0.3
		C805.9,609.3,802.7,613.1,799.6,615.4z M795.3,606.4c-2.1,1.6-2.7,4.2,0.3,9.4c0,0,0.7-0.3,2.5-1.7c3.1-2.3,3.5-4.6,1.6-7.1
		C798.8,605.9,797.3,604.8,795.3,606.4z"/>
	<path class="st0" d="M1011.4,334.9c-0.8,1.5-2,1.4-2.7,1.1c-1.1-0.5-1.6-1.7-1-3c0.8-1.5,2-1.4,2.7-1.1
		C1011.5,332.5,1012,333.6,1011.4,334.9z M1022.8,340.9c2.9,1.9,6.1,4.1,6.7,4.4c0.5,0.3,0.9,0.4,1.6,0l0.5-0.3c0,0,0.9,1.4,0.1,3.2
		c-0.8,1.6-1.9,1.2-2.6,0.9c-1.7-0.8-10-7.1-13-8.6c-0.9-0.4-1.5-0.7-2.2-0.7l-0.5,0l1.2-4.6C1014.7,335.3,1017,336.9,1022.8,340.9z
		"/>
	<path class="st0" d="M1038.6,326.4c0.5,0.2,0.9,0.3,1.6,0l0.5-0.3c0,0,1,1.4,0.1,3.2c-0.8,1.6-1.9,1.2-2.6,0.9
		c-1.6-0.8-9.5-6.5-12.1-7.7c-0.7-0.3-2.2-1-3.1,1.1c-0.9,1.9-0.5,3.9,1.2,7l3.7,2.4c6.5,4.2,8.3,5.2,8.3,5.2s-0.4,0.7-0.8,1.6
		c-0.4,0.8-0.7,1.7-0.7,1.7s-1.9-1.4-8.6-5.8c-2.9-1.9-5.2-3.3-6.1-3.7c-0.6-0.3-1.4-0.6-2.1-0.5l-0.4,0l1.1-4.5l5.4,3.7
		c-4.4-5-3.5-8-2.7-9.6c1.7-3.7,4.5-2.6,5.6-2C1029.1,320,1036.9,325.5,1038.6,326.4z"/>
	<path class="st0" d="M1054.6,289.5c0.5,0.2,0.9,0.3,1.6-0.1l0.5-0.3c0,0,1,1.3,0.3,3.2c-0.7,1.6-1.9,1.3-2.5,1
		c-1.7-0.7-9.8-6-12.4-7.1c-0.7-0.3-2.2-0.9-3.1,1.2c-0.8,1.9-0.3,3.9,1.6,6.9l3.8,2.3c6.6,3.9,8.5,4.8,8.5,4.8s-0.3,0.6-0.7,1.6
		c-0.4,0.9-0.7,1.8-0.7,1.8s-1.4-1-6.9-4.3c-1.8-1.1-5.6-3.3-6.7-3.8c-1-0.4-2.4-1-3.2,1.1c-0.8,1.9-0.3,3.9,1.6,6.9l3.8,2.2
		c6.6,3.9,8.5,4.8,8.5,4.8s-0.4,0.7-0.8,1.6c-0.3,0.8-0.6,1.7-0.6,1.7s-2-1.3-8.9-5.4c-3-1.8-5.3-3.1-6.2-3.5
		c-0.6-0.2-1.4-0.5-2.1-0.4l-0.4,0.1l0.9-4.5l5.6,3.4c-4.1-4.3-4.2-7-3.2-9.3c1.6-3.9,4.4-2.7,5.5-2.2c0.7,0.3,1.6,0.9,1.8,1
		c-4.5-4.7-3.6-7.6-3-9.2c1.6-3.8,4.3-2.7,5.5-2.2C1044.8,283.5,1052.8,288.7,1054.6,289.5z"/>
	<path class="st0" d="M1061.7,277c4.3,5.6,5.9,8.1,4.6,11.5c-0.7,1.9-1.4,2.5-1.4,2.5s-0.5-0.4-1.5-0.9c-1-0.6-1.8-0.9-1.8-0.9
		c1.8-0.2,2.4-0.8,2.7-1.5c0.5-1.2,0.4-2.3-2.6-6.4l-17.1-2.8c-1.4-0.2-2.6-0.2-3.2,0l-0.7,0.2l0.8-4.6c0,0,1.9,0.5,7.6,1.6l7.7,1.4
		c1.8,0.3,2.7,0.6,2.8,0.7c-0.3-0.3-7.5-8.9-12.4-10.8c-1.6-0.6-2.3,0.2-2.3,0.2s-0.4-1.1,0.1-2.4c0.7-1.9,2.2-1.4,2.8-1.2
		C1051.8,265.2,1058.6,273,1061.7,277z"/>
	<path class="st0" d="M1054.3,243c0.9,0.4,1.3,0.6,1.3,0.6s-0.5,0.3-1.5,3.1l-0.8,2.2l9.4,4.7c0.7,0.4,2.2,1,2.7,1.2
		c1.1,0.4,2.7,0.8,3.5-1.6c0.6-1.9,0-3.3,0-3.3s3,1.4,1.5,5.6c-1.3,3.8-4,3.2-5.4,2.7c-1.1-0.4-2.6-1.1-4-1.8
		c-5.9-3-8.8-4.6-8.8-4.6l-0.8,2.3c0-0.1-0.6-1.7-2-3.7c-1.4-2.1-2.7-3.4-2.7-3.4l0.4-1.2l4.1,2l0.7-2.1c1-2.8,0.8-3.5,0.8-3.5
		S1053.4,242.5,1054.3,243z"/>
	<path class="st0" d="M1074.7,232.6c0.5,0.2,0.9,0.2,1.5-0.2l0.5-0.3c0,0,1.1,1.3,0.5,3.1c-0.5,1.7-1.8,1.5-2.4,1.3
		c-1.7-0.6-10.2-5.2-13-6.1c-0.8-0.2-2.3-0.7-3,1.5c-0.6,2,0.1,3.9,2.1,6.8l4,1.9c6.9,3.3,8.9,4.1,8.9,4.1s-0.3,0.7-0.6,1.6
		c-0.3,0.9-0.5,1.8-0.5,1.8s-2.4-1.2-10.7-5.3c-6.1-2.9-10.4-5-11.8-5.5c-0.9-0.3-1.6-0.4-2.2-0.3l-0.5,0.1l0.6-4.8
		c0,0,2.7,1.4,7.8,3.9l0.7,0.3c2.3,1.1,4.2,2.2,4.2,2.2c-5-4.4-4.5-7.5-3.9-9.1c1.2-3.9,4.1-3.1,5.3-2.7
		C1064.5,227.5,1072.9,232,1074.7,232.6z"/>
	<path class="st0" d="M1081.6,221.4c-1.6,5.6-5.7,5.9-10.6,4.4c-2.8-0.8-11.4-4.7-9.2-12.4c1.6-5.5,5.7-5.9,10.6-4.4
		C1075.3,209.9,1083.8,213.8,1081.6,221.4z M1063.8,214.2c-1.4,4.9,6.4,7.8,8.6,8.5c5.6,1.6,6.6-0.3,7.1-1.9
		c1.4-4.9-6.4-7.8-8.6-8.5C1065.4,210.6,1064.3,212.6,1063.8,214.2z"/>
	<path class="st0" d="M1078.7,191.2c2.4,1,6.3,2.6,7,2.8c0.6,0.1,1,0.2,1.6-0.3l0.5-0.4c0,0,1.2,1.2,0.7,3.1
		c-0.4,1.7-1.7,1.5-2.3,1.3c-1.5-0.4-4.2-1.9-4.2-1.9c5.3,4.2,4.9,7.2,4.4,9c-1,3.9-4,3.2-5.2,2.9c-2.3-0.6-10.3-4.3-12.4-4.9
		c-0.9-0.2-1.6-0.4-2.3-0.2l-0.5,0.1l0.3-4.8c0,0,12.3,5.5,14.8,6.2c1,0.3,2.5,0.6,3.1-1.6c0.5-2-0.3-3.9-2.5-6.6l-4-1.7
		c-3.1-1.4-5-2-6.1-2.3c-0.9-0.2-1.6-0.4-2.3-0.2l-0.5,0.1l0.3-4.8C1069.2,187.1,1071.3,188.1,1078.7,191.2z"/>
	<path class="st0" d="M1083.2,171.3l8.5,3.2c2.5,1,5.1,1.9,6.4,4.2c1.1,2,1.1,4.4,0.5,6.9c-1,4.1-2.2,6.1-2.2,6.1s-0.7-0.4-1.9-0.9
		c-1.4-0.6-2.5-0.9-2.5-0.9c2.6-0.7,3.7-1.3,4.4-4.5c1.1-4.5-0.8-6-4.4-7.4l-1.1-0.4c-2.2-0.8-4.3-1.8-4.3-1.8
		c5.5,4,5.1,6.7,4.7,8.4c-0.8,3.3-3.3,4.5-8.1,3.3c-2.6-0.6-13.5-3.9-11.4-12.6c0.8-3.3,2.7-4.2,2.7-4.2l-0.9-3.4
		C1073.7,167.4,1076.1,168.6,1083.2,171.3z M1074.2,175.1c-1.2,5.2,5.1,8,9.8,9c2.8,0.7,4.8,0.6,5.3-1.7c0.2-1,0.4-2.8-2.7-6.4
		l-10.7-4.1C1075.9,172,1074.8,172.7,1074.2,175.1z"/>
	<path class="st0" d="M1094.8,154c0.6,0.1,0.9,0.1,1.5-0.4l0.4-0.4c0,0,1.3,1.1,0.9,3.1c-0.4,1.7-1.6,1.7-2.3,1.5
		c-1.8-0.4-10.7-4.1-13.5-4.7c-0.8-0.2-2.3-0.5-2.8,1.8c-0.4,2.1,0.5,3.9,2.8,6.5l4.2,1.5c7.3,2.6,9.3,3.2,9.3,3.2s-0.2,0.7-0.4,1.7
		c-0.2,0.9-0.3,1.8-0.3,1.8s-2.5-1-11.2-4.2c-6.3-2.3-10.8-3.9-12.3-4.2c-1-0.2-1.6-0.3-2.3-0.1l-0.5,0.2l0.1-4.8c0,0,2.8,1.1,8.2,3
		l0.8,0.3c2.4,0.9,4.4,1.8,4.4,1.8c-5.5-3.9-5.2-7-4.9-8.7c0.8-4,3.8-3.5,5-3.3C1084.1,150,1092.9,153.6,1094.8,154z"/>
	<path class="st0" d="M1082.1,133.9c0.9,0.3,1.4,0.4,1.4,0.4s-0.4,0.4-1,3.3l-0.4,2.3l10,3.3c0.8,0.3,2.3,0.7,2.9,0.8
		c1.1,0.2,2.8,0.4,3.3-2.1c0.4-1.9-0.5-3.2-0.5-3.2s3.1,0.9,2.3,5.3c-0.7,4-3.5,3.7-5,3.5c-1.2-0.2-2.8-0.7-4.2-1.2
		c-6.3-2.1-9.4-3.3-9.4-3.3l-0.4,2.4c0-0.1-0.8-1.5-2.5-3.4c-1.7-1.9-3.1-3-3.1-3l0.2-1.2l4.4,1.4l0.4-2.2c0.5-2.9,0.3-3.6,0.3-3.6
		S1081.2,133.6,1082.1,133.9z"/>
	<path class="st0" d="M1106,139.1c0,0-1-2.3-4-2.8c-1.8-0.3-2.2,0.7-2.2,0.7l-0.6-0.2c-1.5-0.5-2.1-1.4-2.1-2.9
		c0.5-1.5,1.8-1.7,3.3-1.5C1103.5,132.9,1106.6,135.3,1106,139.1z"/>
</g>
<g>
	<path class="st0" d="M119.5,594c-0.7,1.4-1,2.1-1,2.1c0,0-0.2-0.8-0.7-1.5c-0.5-0.7-1.6-1.4-3.1-2l-4.2-1.5l-4.5,8.7l3.5,1.3
		c1.5,0.5,2.8,0.9,3.9,0.7c1.2-0.2,1.6-0.5,1.6-0.5s-0.6,0.9-1.4,2.4c-0.8,1.5-1.2,2.4-1.2,2.4s0-0.4-0.7-1.3
		c-0.5-0.7-1.7-1.4-3.2-1.9l-3.5-1.3c-1.3,2.6-3.4,6.5-3.9,7.9c-0.4,1-0.5,1.6-0.4,2.4l0,0.7c0,0-0.6-0.3-2.6-1c-2-0.7-2.9-1-2.9-1
		l0.6-0.4c1.3-1,1.6-1.2,6.7-10.9c1.3-2.4,3.7-7.2,4.3-8.7c0.4-1,0.5-1.6,0.5-2.4l0-0.7c0,0,0.8,0.3,2.5,1l10.6,3.9
		C120.3,592.5,119.9,593,119.5,594z"/>
	<path class="st0" d="M119.3,619.6c-5.5-1.8-5.7-5.9-4-10.8c0.9-2.8,5.1-11.2,12.7-8.7c5.5,1.8,5.7,5.9,4,10.8
		C131,613.7,126.8,622.1,119.3,619.6z M127.2,602.1c-4.8-1.6-8.1,6.1-8.8,8.3c-1.9,5.5,0.1,6.6,1.7,7.2c4.8,1.6,8.1-6.1,8.8-8.3
		C130.7,603.8,128.8,602.7,127.2,602.1z"/>
	<path class="st0" d="M148.5,609.4c-0.8,1.6-1,2.2-1,2.2c-0.2-1.4-0.6-2.3-1.8-2.7c-2.4-0.7-5.3,2.5-5.3,2.5l-1.8,3.9
		c-3.2,7-3.9,8.9-3.9,8.9s-0.7-0.3-1.7-0.6c-0.9-0.3-1.7-0.5-1.7-0.5s1.1-2.1,4.5-9.4c1.5-3.2,2.5-5.6,2.8-6.6
		c0.2-0.6,0.4-1.4,0.2-2.2l-0.1-0.4l4.6,0.5l-3,6c2.6-3.6,5.2-5.5,7.5-4.8c1.4,0.4,1.8,1.1,1.8,1.1S149.1,608,148.5,609.4z"/>
	<path class="st0" d="M159.6,620c-1.4,3.2-2.9,6.8-3.1,7.4c-0.2,0.6-0.2,0.9,0.3,1.5l0.4,0.5c0,0-1.2,1.2-3.1,0.7
		c-1.7-0.5-1.5-1.7-1.3-2.3c0.5-1.8,5.1-11.1,6-14.4c0.3-0.9,0.4-1.7,0.2-2.3l-0.1-0.5l4.7,0.3C163.5,611,162.4,613.6,159.6,620z
		 M163.2,607.6c-1.7-0.5-1.8-1.7-1.6-2.5c0.3-1.2,1.3-1.9,2.8-1.5c1.7,0.5,1.8,1.7,1.6,2.4C165.6,607.3,164.6,608,163.2,607.6z"/>
	<path class="st0" d="M177.6,616.2c-0.3,0.9-0.5,1.4-0.5,1.4s-0.4-0.5-3.3-1.2l-2.2-0.6l-4,9.8c-0.3,0.7-0.8,2.3-1,2.8
		c-0.3,1.1-0.6,2.8,1.8,3.4c1.9,0.5,3.3-0.3,3.3-0.3s-1.1,3.1-5.5,1.9c-3.9-1-3.5-3.7-3.1-5.2c0.3-1.2,0.9-2.7,1.5-4.1
		c2.5-6.2,3.9-9.1,3.9-9.1l-2.3-0.6c0.1,0,1.6-0.7,3.5-2.3c2-1.6,3.2-2.9,3.2-2.9l1.2,0.3l-1.7,4.2l2.2,0.6c2.9,0.7,3.6,0.5,3.6,0.5
		S178,615.3,177.6,616.2z"/>
	<path class="st0" d="M189.4,627.4c-1.2,3.2-2.5,6.9-2.7,7.6c-0.1,0.6-0.1,0.9,0.4,1.5l0.4,0.5c0,0-1.2,1.3-3.1,0.8
		c-1.7-0.4-1.6-1.6-1.4-2.3c0.4-1.9,4.6-11.4,5.3-14.6c0.2-0.9,0.3-1.7,0.1-2.3l-0.2-0.5l4.7,0.1
		C192.9,618.2,191.9,620.8,189.4,627.4z M192.4,614.8c-1.7-0.4-1.8-1.6-1.7-2.4c0.3-1.2,1.3-2,2.7-1.6c1.7,0.4,1.8,1.6,1.7,2.4
		C194.9,614.4,193.9,615.2,192.4,614.8z"/>
	<path class="st0" d="M206.9,624.1c-0.4,1.3-0.8,2.4-0.8,2.4c-0.5-2.1-1.1-3.8-3.9-4.4c-2.5-0.5-3.5,0.6-3.8,2
		c-0.3,1.6,0.3,2.4,1.5,3.8l1.5,1.7c1.6,1.9,2.9,3.4,2.3,6.3c-0.3,1.7-2,5.4-7.8,4.2c-3.5-0.7-5.1-2.1-5.1-2.1s0.3-0.6,0.7-1.9
		c0.5-1.3,0.8-2.5,0.8-2.5c0.5,1.9,1.1,3.8,4.2,4.4c2.8,0.6,3.8-1.1,4-2.3c0.4-1.8-0.4-2.7-1.5-4l-1.6-1.8c-1.9-2.2-2.5-3.7-2-6
		c0.6-3,3.1-4.8,7.4-4c3.3,0.7,4.9,2.1,4.9,2.1S207.4,622.8,206.9,624.1z"/>
	<path class="st0" d="M228.9,628c-0.4,1.3-0.7,2.4-0.7,2.4c-0.5-2.1-1.3-3.8-4.1-4.3c-2.5-0.4-3.5,0.8-3.8,2.1
		c-0.3,1.6,0.4,2.4,1.7,3.8l1.5,1.6c1.6,1.8,3,3.3,2.5,6.2c-0.3,1.7-1.8,5.5-7.6,4.5c-3.6-0.6-5.2-1.9-5.2-1.9s0.2-0.6,0.6-1.9
		c0.4-1.3,0.7-2.5,0.7-2.5c0.6,1.8,1.2,3.7,4.4,4.3c2.8,0.5,3.7-1.2,4-2.4c0.3-1.8-0.5-2.7-1.6-4l-1.6-1.8c-2-2.1-2.6-3.7-2.3-5.9
		c0.5-3,2.9-5,7.2-4.2c3.3,0.6,4.9,1.9,4.9,1.9S229.3,626.7,228.9,628z"/>
	<path class="st0" d="M244.2,645.1c-0.1,0.6-0.1,0.9,0.5,1.5l0.4,0.4c0,0-1.1,1.3-3,1.1c-1.7-0.2-1.8-1.5-1.7-2.2
		c0.3-1.8,3.4-11,3.8-13.8c0.1-0.8,0.3-2.4-2-2.7c-2.1-0.3-3.9,0.7-6.3,3.3l-1.2,4.3c-2.1,7.4-2.5,9.5-2.5,9.5s-0.7-0.2-1.7-0.3
		c-0.9-0.1-1.9-0.2-1.9-0.2s0.8-2.5,3.4-11.5c1.9-6.5,3.2-11.1,3.4-12.6c0.1-1,0.2-1.6-0.1-2.3l-0.2-0.5l4.8-0.2c0,0-1,2.9-2.5,8.4
		l-0.2,0.8c-0.7,2.5-1.5,4.5-1.5,4.5c3.5-5.7,6.6-5.7,8.3-5.4c4,0.6,3.8,3.5,3.6,4.8C247.4,634.2,244.5,643.2,244.2,645.1z"/>
	<path class="st0" d="M266,640.1c-0.6,2.5-1.7,6.6-1.7,7.3c-0.1,0.6,0,1,0.5,1.5l0.4,0.4c0,0-1,1.4-2.9,1.2
		c-1.7-0.2-1.7-1.4-1.7-2.1c0.2-1.5,1.2-4.5,1.2-4.5c-3.3,5.9-5.9,5.9-7.7,5.8c-3.3-0.4-4.7-2.7-4.2-7.7c0.3-2.6,2.1-13.9,11.1-12.9
		c3.3,0.4,4.4,2.1,4.4,2.1l3.2-1.4C268.7,629.9,268,632.3,266,640.1z M261.2,631.4c-5.3-0.6-7.3,6.1-7.8,10.8
		c-0.3,2.9,0,4.8,2.3,5.1c1,0.1,2.8,0.1,6-3.5l2.8-11.1C264.5,632.6,263.6,631.7,261.2,631.4z"/>
	<path class="st0" d="M277.3,651.9c-2.8-0.2-4-1.6-4-1.6l-0.3,1.3c-0.7,3.1-0.8,4.1-0.8,4.5c-0.1,0.9,0,1.5,0.2,2.3l0.2,0.6
		c0,0-0.5-0.1-2.6-0.3c-2.1-0.2-2.7-0.1-2.7-0.1l0.5-0.6c0.8-1.1,1-2.1,2.5-8.8l1.4-6.3c1.3-5.7,1.6-7.6,1.7-8.9
		c0-0.6,0-1.5-0.3-2.2l-0.2-0.4l4.6-0.5l-1.5,6.3c3.1-6,5.7-6.1,7.5-6c3.3,0.3,4.9,2.6,4.5,7.6C287.8,641.3,286.3,652.6,277.3,651.9
		z M282,633.6c-1-0.1-2.8,0-5.9,3.7l-2.4,11.2c0,0,0.9,1,3.4,1.2c5.3,0.4,7.1-6.3,7.5-11C284.8,635.7,284.3,633.8,282,633.6z"/>
	<path class="st0" d="M297.7,643.9c-2.4-0.1-3.5-0.4-3.5-0.4s-0.1,0.7-0.1,1c-0.1,2.9,0.4,6,4.4,6.2s5.7-1.8,5.9-2.3
		c-0.1,1.5-1.5,5-7,4.7c-2.5-0.1-7.2-0.9-6.9-8.1c0.4-8.2,4.2-13.2,10.1-12.9c4.6,0.2,6.1,2.7,6,5.4
		C306.4,643.2,301.6,644,297.7,643.9z M300.2,634.1c-2.6-0.1-4.8,1.5-5.8,7.3c0,0,0.8,0.2,3,0.3c3.8,0.2,5.6-1.2,5.8-4.4
		C303.2,636,302.7,634.3,300.2,634.1z"/>
	<path class="st0" d="M323.7,650.6c0,0.6,0.1,0.9,0.7,1.4l0.5,0.4c0,0-0.9,1.5-2.8,1.4c-1.8,0-1.9-1.3-1.9-1.9
		c0-1.8,2-11.3,2.1-14.2c0-0.8,0-2.4-2.3-2.4c-2.1,0-3.8,1.2-5.9,4l-0.7,4.4c-1.2,7.6-1.4,9.7-1.4,9.7s-0.8-0.1-1.8-0.1
		c-0.9,0-1.8,0-1.8,0s0.5-2.3,1.8-10.2c0.6-3.4,0.9-6.1,0.9-7.1c0-0.6,0-1.5-0.4-2.1l-0.2-0.4l4.6-0.8l-1.1,6.4
		c2.8-6.1,5.9-6.4,7.6-6.4c4.1,0.1,4.2,3,4.1,4.3C325.6,639.3,323.7,648.7,323.7,650.6z"/>
	<path class="st0" d="M353.6,642.6c-0.3,2.6-0.8,6.8-0.7,7.5c0,0.6,0.1,1,0.7,1.4l0.5,0.3c0,0-0.8,1.5-2.7,1.5
		c-1.7,0-1.9-1.2-1.9-1.9c0-1.5,0.6-4.6,0.6-4.6c-2.5,6.3-5.1,6.7-6.9,6.7c-3.3,0.1-5.1-2.1-5.2-7c-0.1-2.7,0.2-14,9.3-14.3
		c3.3-0.1,4.7,1.5,4.7,1.5l3-1.8C354.9,632.2,354.5,634.7,353.6,642.6z M347.7,634.7c-5.4,0.1-6.4,7-6.2,11.8c0.1,2.9,0.6,4.8,3,4.7
		c1,0,2.8-0.3,5.4-4.3l1.3-11.4C351.1,635.5,350.2,634.6,347.7,634.7z"/>
	<path class="st0" d="M369.7,634.5c-0.1,1.4-0.1,2.5-0.1,2.5c-1-1.9-2.1-3.4-4.9-3.3c-2.6,0.1-3.3,1.5-3.2,2.9
		c0.1,1.6,0.9,2.3,2.4,3.3l1.8,1.3c2,1.4,3.7,2.5,3.8,5.5c0.1,1.7-0.5,5.8-6.5,6.1c-3.6,0.2-5.4-0.7-5.4-0.7s0.1-0.7,0.2-2
		c0.1-1.4,0.1-2.6,0.1-2.6c1,1.7,2,3.4,5.2,3.2c2.8-0.1,3.4-2,3.3-3.2c-0.1-1.8-1-2.5-2.4-3.5l-2-1.4c-2.4-1.6-3.4-3-3.5-5.3
		c-0.2-3,1.8-5.5,6.1-5.7c3.4-0.2,5.2,0.8,5.2,0.8S369.8,633.2,369.7,634.5z"/>
	<path class="st0" d="M391.8,631.3c0,1,0,1.4,0,1.4s-0.5-0.3-3.5-0.1l-2.3,0.2l-0.5,10.5c0,0.8,0,2.4,0,3c0.1,1.1,0.4,2.8,2.9,2.6
		c2-0.2,3-1.3,3-1.3s0,3.3-4.5,3.6c-4,0.4-4.5-2.3-4.7-3.9c-0.1-1.2-0.1-2.8,0-4.4c0.3-6.6,0.7-9.9,0.7-9.9l-2.4,0.2
		c0.1,0,1.3-1.2,2.6-3.3c1.4-2.1,2-3.8,2-3.8l1.3-0.1l-0.2,4.6l2.3-0.2c2.9-0.3,3.5-0.7,3.5-0.7S391.8,630.3,391.8,631.3z"/>
	<path class="st0" d="M409.5,645.7c0.1,0.6,0.2,0.9,0.8,1.3l0.5,0.3c0,0-0.7,1.6-2.6,1.8c-1.8,0.2-2.1-1-2.1-1.7
		c-0.2-1.8,0.5-11.5,0.2-14.3c-0.1-0.8-0.3-2.4-2.6-2.1c-2.1,0.2-3.6,1.7-5.3,4.7l-0.1,4.4c-0.2,7.7-0.1,9.8-0.1,9.8s-0.7,0-1.7,0.1
		c-0.9,0.1-1.9,0.3-1.9,0.3s0.2-2.7,0.5-12c0.2-6.7,0.3-11.5,0.1-13c-0.1-1-0.3-1.6-0.6-2.2l-0.3-0.4l4.6-1.4c0,0-0.2,3-0.3,8.7
		l0,0.8c-0.1,2.6-0.3,4.7-0.3,4.7c2-6.4,5-7.2,6.7-7.4c4-0.5,4.5,2.5,4.7,3.7C409.9,634.2,409.3,643.8,409.5,645.7z"/>
	<path class="st0" d="M421,638.1c-2.4,0.3-3.5,0.3-3.5,0.3s0,0.7,0.1,1c0.4,2.9,1.6,5.8,5.5,5.3c4-0.6,5.2-2.9,5.4-3.4
		c0.2,1.5-0.6,5.2-5.9,5.9c-2.5,0.4-7.2,0.5-8.3-6.7c-1.2-8.1,1.6-13.8,7.5-14.6c4.5-0.6,6.5,1.5,6.9,4.2
		C429.5,635.8,424.9,637.5,421,638.1z M421.7,628.1c-2.6,0.4-4.5,2.3-4.3,8.3c0,0,0.8,0.1,3-0.2c3.8-0.5,5.3-2.3,4.9-5.4
		C425,629.4,424.2,627.7,421.7,628.1z"/>
	<path class="st0" d="M466.8,636.1c0.1,0.6,0.3,0.9,0.9,1.2l0.5,0.3c0,0-0.5,1.6-2.5,2c-1.7,0.3-2.1-0.8-2.2-1.5
		c-0.3-1.8-0.4-11.5-1-14.3c-0.2-0.8-0.5-2.3-2.7-1.9c-2,0.4-3.4,2-4.9,5.1l0.2,4.4c0.4,7.7,0.7,9.8,0.7,9.8s-0.7,0.1-1.7,0.3
		c-1,0.2-1.8,0.4-1.8,0.4s0.1-1.8-0.2-8.1c-0.1-2.1-0.4-6.5-0.6-7.7c-0.2-1-0.5-2.5-2.8-2.1c-2,0.4-3.4,1.9-4.8,5.1l0.3,4.4
		c0.4,7.7,0.7,9.8,0.7,9.8s-0.8,0.1-1.8,0.3c-0.9,0.2-1.8,0.4-1.8,0.4s0-2.3-0.4-10.4c-0.2-3.5-0.4-6.1-0.6-7.1
		c-0.1-0.6-0.4-1.4-0.9-2l-0.3-0.3l4.3-1.8l0.3,6.5c1.2-5.8,3.5-7.4,6-7.8c4.1-0.8,4.7,2.2,4.9,3.4c0.1,0.7,0.1,1.9,0.1,2.1
		c1.4-6.4,4.3-7.3,6-7.6c4-0.8,4.7,2.1,5,3.4C466.2,624.6,466.4,634.2,466.8,636.1z"/>
	<path class="st0" d="M485.6,623.9c0.3,2.6,0.7,6.8,0.8,7.5c0.1,0.6,0.3,0.9,1,1.2l0.5,0.2c0,0-0.5,1.6-2.4,2.1
		c-1.7,0.4-2.1-0.8-2.3-1.4c-0.4-1.5-0.4-4.6-0.4-4.6c-1.1,6.7-3.6,7.6-5.3,8c-3.2,0.8-5.4-1-6.5-5.8c-0.6-2.6-2.7-13.8,6.1-15.9
		c3.3-0.8,4.9,0.5,4.9,0.5l2.5-2.3C484.7,613.4,484.9,615.9,485.6,623.9z M478.2,617.4c-5.2,1.2-4.8,8.2-3.7,12.8
		c0.7,2.8,1.6,4.5,3.9,4c1-0.2,2.6-0.9,4.4-5.3l-1.1-11.4C481.7,617.4,480.6,616.8,478.2,617.4z"/>
	<path class="st0" d="M499.7,612.7c0.2,1.4,0.4,2.5,0.4,2.5c-1.3-1.7-2.7-2.9-5.5-2.2c-2.5,0.7-2.9,2.2-2.5,3.5
		c0.4,1.5,1.4,2,3.1,2.8l2.1,0.9c2.2,1,4.1,1.7,4.9,4.6c0.4,1.6,0.7,5.7-5.1,7.3c-3.5,0.9-5.5,0.4-5.5,0.4s0-0.7-0.2-2
		c-0.2-1.4-0.4-2.5-0.4-2.5c1.3,1.4,2.6,2.9,5.7,2.1c2.7-0.7,2.9-2.7,2.6-3.9c-0.5-1.7-1.5-2.3-3.1-2.9l-2.2-0.9
		c-2.7-1.1-3.9-2.2-4.5-4.4c-0.8-2.9,0.6-5.7,4.8-6.8c3.3-0.9,5.3-0.3,5.3-0.3S499.5,611.3,499.7,612.7z"/>
	<path class="st0" d="M511.1,618.6c-2.3,0.7-3.4,0.8-3.4,0.8s0.1,0.7,0.2,1c0.8,2.8,2.4,5.6,6.2,4.4s4.8-3.6,4.8-4.1
		c0.4,1.4,0.2,5.2-5,6.7c-2.4,0.7-7.1,1.5-9.1-5.5c-2.3-7.9-0.4-13.8,5.3-15.5c4.4-1.3,6.7,0.6,7.4,3.2
		C519.1,615.1,514.8,617.5,511.1,618.6z M510.3,608.5c-2.5,0.7-4.1,3-3.1,8.8c0,0,0.8-0.1,2.9-0.7c3.7-1.1,4.9-3,4-6.1
		C513.8,609.4,512.7,607.8,510.3,608.5z"/>
	<path class="st0" d="M529.6,597.1c-1.6,0.5-2.4-0.4-2.7-1.2c-0.4-1.2,0.1-2.3,1.5-2.8c1.6-0.5,2.4,0.4,2.7,1.2
		C531.4,595.5,531,596.6,529.6,597.1z M533.4,609.4c0.6,3.4,1.4,7.2,1.6,7.9c0.2,0.5,0.4,0.9,1.1,1.1l0.6,0.2c0,0-0.4,1.7-2.2,2.3
		c-1.7,0.6-2.2-0.6-2.4-1.2c-0.6-1.8-1.9-12.1-3-15.3c-0.3-0.9-0.6-1.6-1.1-2l-0.4-0.3l4.1-2.4C531.7,599.7,532.1,602.5,533.4,609.4
		z"/>
	<path class="st0" d="M546.8,597.6c0.3,1.3,0.6,2.5,0.6,2.5c-1.5-1.5-2.9-2.7-5.7-1.7c-2.4,0.9-2.7,2.4-2.2,3.7
		c0.5,1.5,1.5,1.9,3.3,2.5l2.1,0.7c2.3,0.8,4.2,1.4,5.2,4.2c0.6,1.6,1.1,5.7-4.5,7.7c-3.4,1.2-5.4,0.8-5.4,0.8s-0.1-0.7-0.4-2
		c-0.3-1.4-0.6-2.5-0.6-2.5c1.4,1.3,2.9,2.7,5.9,1.6c2.6-0.9,2.7-2.9,2.3-4c-0.6-1.7-1.7-2.1-3.3-2.7l-2.3-0.8
		c-2.8-0.9-4.1-1.9-4.8-4.1c-1-2.9,0.1-5.7,4.3-7.2c3.2-1.1,5.2-0.7,5.2-0.7S546.5,596.2,546.8,597.6z"/>
	<path class="st0" d="M581.1,602.6l-0.2,0.6c0,0-0.7,0.2-1.7,0.6c-1,0.4-1.7,0.8-1.7,0.8l-7.3-13.4c-0.6-1-1-2-1.1-2.2
		c0,0.1,0.2,1.1,0.3,2.4l0.6,16.1c0,0-0.7,0.2-1.9,0.7c-1.3,0.5-2,0.9-2,0.9L558,595c-0.7-1.3-1.6-2-2.2-2.3l-0.6-0.4l3.6-2.4
		c0,0,0.5,0.6,3,5.2l5,9.1c0.5,0.9,0.9,1.8,0.9,1.9c0-0.1-0.1-0.8-0.2-2.2l-0.6-17.1c0,0,0.7-0.2,1.8-0.7c1.1-0.4,1.8-0.8,1.8-0.8
		l7.8,14.2c0.6,1.2,1,1.9,1,1.9s1.4-11.3-0.8-16.6c-0.7-1.6-1.8-1.6-1.8-1.6s0.4-1,1.8-1.6c1.9-0.8,2.5,0.6,2.8,1.3
		C583.3,588,582.1,598.8,581.1,602.6z"/>
	<path class="st0" d="M594.6,577.5c0.5,1.7,0.7,2.3,0.7,2.3c-1.1-0.9-1.9-1.3-3.1-0.8c-2.3,1-2.3,5.3-2.3,5.3l1.2,4.1
		c2.2,7.4,2.9,9.3,2.9,9.3s-0.7,0.2-1.7,0.7c-0.8,0.4-1.6,0.8-1.6,0.8s-0.6-2.3-2.8-10c-1-3.3-1.8-5.9-2.2-6.8
		c-0.3-0.6-0.7-1.3-1.3-1.7l-0.3-0.2l3.8-2.7l1.7,6.5c-0.4-4.5,0.3-7.5,2.5-8.5c1.3-0.6,2.1-0.3,2.1-0.3S594.2,576,594.6,577.5z"/>
	<path class="st0" d="M609.5,591c-5.2,2.5-8.2-0.3-10.4-5c-1.3-2.7-4.1-11.6,3.1-15.1c5.2-2.5,8.2,0.3,10.4,5
		C613.8,578.5,616.6,587.5,609.5,591z M603,572.9c-4.6,2.2-1.6,10-0.6,12.1c2.5,5.3,4.6,4.7,6.2,4c4.6-2.2,1.6-10,0.6-12.1
		C606.7,571.7,604.5,572.2,603,572.9z"/>
	<path class="st0" d="M629.9,568.6c0.9,2.5,2.3,6.4,2.6,7.1c0.3,0.5,0.5,0.8,1.3,1l0.6,0.1c0,0-0.1,1.7-1.8,2.6
		c-1.5,0.8-2.2-0.2-2.5-0.8c-0.7-1.4-1.5-4.4-1.5-4.4c0.5,6.7-2,8.5-3.7,9.3c-3.6,1.9-5-0.8-5.6-1.9c-1.1-2.1-3.7-10.5-4.7-12.5
		c-0.4-0.8-0.8-1.4-1.4-1.8l-0.4-0.3l3.8-3c0,0,4.1,12.8,5.3,15.1c0.5,0.9,1.3,2.3,3.3,1.2c1.9-1,2.7-2.9,3.2-6.3l-1.4-4.1
		c-1.1-3.2-1.8-5-2.3-6c-0.4-0.8-0.8-1.4-1.4-1.8l-0.4-0.3l3.8-3C626.6,558.8,627.3,561,629.9,568.6z"/>
	<path class="st0" d="M647.6,558.6l3.4,8.5c1,2.5,2.1,5,1.2,7.6c-0.7,2.2-2.5,3.8-4.8,5c-3.6,2-6,2.5-6,2.5s-0.1-0.8-0.6-2
		c-0.5-1.4-1-2.4-1-2.4c2.3,1.5,3.4,1.8,6.3,0.3c4-2.2,3.9-4.7,2.5-8.2l-0.4-1c-0.9-2.2-1.6-4.4-1.6-4.4c0.7,6.7-1.5,8.3-3,9.1
		c-2.9,1.6-5.5,0.6-7.9-3.7c-1.3-2.3-6.3-12.6,1.6-17c2.9-1.6,4.9-0.8,4.9-0.8l1.9-3C644,548.9,644.8,551.5,647.6,558.6z
		 M638.7,554.5c-4.7,2.6-2.4,9.2-0.1,13.3c1.4,2.5,2.8,3.9,4.8,2.8c0.9-0.5,2.4-1.6,2.9-6.3l-4.2-10.6
		C642.2,553.6,640.9,553.3,638.7,554.5z"/>
	<path class="st0" d="M668.1,555.4c0.3,0.5,0.5,0.8,1.3,0.9l0.6,0.1c0,0,0,1.7-1.7,2.7c-1.5,0.9-2.3-0.1-2.6-0.6
		c-0.9-1.5-4.2-10.7-5.7-13.1c-0.4-0.7-1.3-2-3.2-0.9c-1.8,1.1-2.6,3-2.9,6.5l1.8,4.1c3,7.1,4,9,4,9s-0.7,0.3-1.5,0.8
		c-0.8,0.5-1.6,1-1.6,1s-0.9-2.5-4.5-11.1c-2.6-6.2-4.5-10.6-5.3-11.9c-0.5-0.8-0.9-1.4-1.5-1.7l-0.5-0.3l3.6-3.2
		c0,0,1.1,2.8,3.3,8.1l0.3,0.7c1,2.4,1.6,4.4,1.6,4.4c-0.9-6.7,1.6-8.6,3.1-9.5c3.5-2.1,5.1,0.4,5.8,1.5
		C663.8,544.8,667.1,553.8,668.1,555.4z"/>
	<path class="st0" d="M674.2,532.5c0.4,0.9,0.6,1.3,0.6,1.3s-0.6-0.1-3.1,1.5l-1.9,1.2l4.4,9.6c0.3,0.7,1.1,2.2,1.4,2.7
		c0.6,1,1.6,2.3,3.7,1c1.7-1.1,2-2.6,2-2.6s1.5,2.9-2.3,5.3c-3.4,2.2-5.1,0-5.9-1.3c-0.6-1-1.4-2.5-2-3.9c-2.8-6-4-9.1-4-9.1l-2,1.3
		c0-0.1,0.6-1.7,0.8-4.1c0.2-2.5,0-4.3,0-4.3l1.1-0.7l1.9,4.1l1.9-1.2c2.5-1.6,2.8-2.2,2.8-2.2S673.8,531.6,674.2,532.5z"/>
	<path class="st0" d="M701.4,526.3l-22,14.9l-1.1-2.2l22-14.9L701.4,526.3z"/>
</g>
<g>
	<path class="st0" d="M299.7,518.7c-2-0.1-3.3-0.1-3.3-0.1c1.1-0.6,1.5-1.5,1.6-2.9c0.1-0.9,0-2-0.2-5.3l-0.2-2.4l-7.8-0.5l-1,2.1
		c-2,3.9-2.5,4.9-2.5,6.2c-0.1,1.1,0.4,1.8,0.7,2.1c0,0-1.2-0.2-3-0.3c-1.9-0.1-3-0.1-3-0.1c1.4-1.2,2.2-2.7,5-8.2l7.2-14.3
		c0.2-0.5,0.5-1,0.5-1.5c0-0.6-0.2-0.7-0.2-0.7l6.7,0.5c0,0-0.4,0.2-0.4,1c0,0.4,0,1,0.1,1.3l1.2,14.8c0.5,6.1,0.6,7.3,1.6,8.7
		C302.9,519,301.8,518.8,299.7,518.7z M296.7,496.6c-0.2-1.8-0.1-2.6-0.1-2.7c0,0.1-0.3,0.8-1.2,2.6l-4.4,8.8l6.4,0.4L296.7,496.6z"
		/>
	<path class="st0" d="M321.5,516.6c0,0.6,0,0.9,0.6,1.4l0.5,0.4c0,0-0.9,1.5-2.8,1.4c-1.8,0-1.9-1.3-1.9-2c0-1.8,2.1-11.3,2.2-14.2
		c0-0.8,0-2.4-2.2-2.4c-2.1-0.1-3.8,1.2-5.9,3.9l-0.7,4.4c-1.2,7.6-1.4,9.7-1.4,9.7s-0.8-0.1-1.8-0.1c-0.9,0-1.8,0-1.8,0
		s0.5-2.3,1.9-10.2c0.6-3.4,1-6.1,1-7.1c0-0.6,0-1.5-0.4-2.1l-0.2-0.4l4.6-0.8l-1.2,6.4c2.8-6.1,5.9-6.4,7.7-6.4
		c4.1,0.1,4.1,3.1,4.1,4.4C323.5,505.3,321.5,514.6,321.5,516.6z"/>
	<path class="st0" d="M343.7,506.5c-0.9,7.1-1.1,9.2-1.1,9.9c0,0.6,0.1,0.9,0.7,1.4l0.5,0.4c0,0-0.8,1.5-2.7,1.5
		c-1.8,0-1.9-1.2-1.9-1.9c0-1.5,0.6-4.6,0.6-4.6c-2.5,6.2-5.1,6.6-6.9,6.7c-3.3,0.1-5.1-2.1-5.2-7.1c0-2.6,0.4-14,9.5-14.2
		c2.8,0,4.1,1.2,4.1,1.2c0.2-1.9,0.5-4.2,0.5-5.2c0-1-0.1-1.7-0.4-2.2l-0.3-0.5l4.7-1C345.7,491,345.4,493.1,343.7,506.5z
		 M337.6,500.9c-5.4,0.1-6.5,6.9-6.4,11.7c0,2.9,0.7,4.8,3,4.7c1,0,2.8-0.3,5.5-4.2l1.4-11.4C341,501.7,340.1,500.8,337.6,500.9z"/>
	<path class="st0" d="M372.4,514.8c0,0.6,0.1,0.9,0.8,1.4l0.5,0.3c0,0-0.8,1.5-2.7,1.7c-1.8,0.1-2-1.1-2.1-1.8
		c-0.1-1.8,1-11.4,0.8-14.3c-0.1-0.8-0.2-2.4-2.5-2.2c-2.1,0.1-3.6,1.5-5.5,4.5l-0.3,4.4c-0.5,7.7-0.5,9.8-0.5,9.8s-0.7,0-1.7,0
		c-0.9,0.1-1.9,0.2-1.9,0.2s0.3-2.7,1-11.9c0.5-6.7,0.8-11.5,0.7-13c-0.1-1-0.2-1.6-0.6-2.2l-0.3-0.4l4.7-1.2c0,0-0.3,3-0.7,8.7
		l-0.1,0.8c-0.2,2.6-0.5,4.7-0.5,4.7c2.2-6.3,5.3-6.9,7-7.1c4.1-0.3,4.4,2.6,4.5,3.9C373.2,503.4,372.2,512.9,372.4,514.8z"/>
	<path class="st0" d="M393.3,505.1c-0.1,2.6-0.2,6.8-0.1,7.5c0.1,0.6,0.2,1,0.8,1.4l0.5,0.3c0,0-0.7,1.6-2.6,1.8
		c-1.7,0.2-2-1-2.1-1.7c-0.2-1.5,0.2-4.6,0.2-4.6c-1.9,6.5-4.5,7.1-6.3,7.3c-3.3,0.4-5.2-1.6-5.8-6.6c-0.3-2.6-1-14,8-15
		c3.3-0.4,4.8,1.1,4.8,1.1l2.8-2C393.7,494.6,393.6,497.1,393.3,505.1z M386.8,497.7c-5.3,0.6-5.8,7.5-5.2,12.2
		c0.3,2.9,1,4.7,3.4,4.4c1-0.1,2.7-0.5,5.1-4.7l0.3-11.4C390.3,498.2,389.2,497.4,386.8,497.7z"/>
	<path class="st0" d="M408.9,494.1c0,1,0.1,1.4,0.1,1.4s-0.5-0.3-3.5,0.1l-2.3,0.3l0.1,10.5c0,0.8,0.1,2.4,0.2,3
		c0.2,1.1,0.5,2.8,3,2.4c2-0.3,2.9-1.5,2.9-1.5s0.1,3.3-4.3,3.9c-4,0.6-4.7-2.1-4.9-3.6c-0.2-1.2-0.2-2.8-0.2-4.4
		c-0.1-6.6,0.1-9.9,0.1-9.9l-2.4,0.3c0.1,0,1.2-1.3,2.4-3.4c1.2-2.2,1.8-3.9,1.8-3.9l1.2-0.2l0.1,4.6l2.2-0.3
		c2.9-0.4,3.5-0.9,3.5-0.9S408.9,493.1,408.9,494.1z"/>
	<path class="st0" d="M428.1,507.1c0.1,0.6,0.2,0.9,0.9,1.3l0.5,0.3c0,0-0.6,1.6-2.5,2c-1.7,0.3-2.1-0.9-2.3-1.5
		c-0.3-1.8-0.2-11.5-0.7-14.3c-0.1-0.8-0.5-2.3-2.7-1.9c-2.1,0.4-3.5,1.9-5,5.1l0.2,4.4c0.3,7.7,0.6,9.8,0.6,9.8s-0.7,0.1-1.7,0.2
		c-0.9,0.2-1.8,0.4-1.8,0.4s0-2.7-0.3-12c-0.3-6.7-0.5-11.5-0.7-13c-0.2-1-0.4-1.6-0.8-2.1l-0.3-0.4l4.5-1.7c0,0,0,3,0.3,8.7l0,0.8
		c0.1,2.6,0,4.7,0,4.7c1.5-6.5,4.5-7.5,6.2-7.8c4-0.7,4.7,2.2,4.9,3.4C427.8,495.7,427.8,505.2,428.1,507.1z"/>
	<path class="st0" d="M450.7,487c0.2,1.4,0.3,2.5,0.3,2.5c-1.3-1.7-2.6-3-5.4-2.3c-2.5,0.6-3,2.1-2.6,3.4c0.4,1.5,1.3,2.1,3,2.8
		l2,0.9c2.2,1,4.1,1.9,4.7,4.7c0.4,1.6,0.5,5.8-5.3,7.1c-3.5,0.8-5.5,0.3-5.5,0.3s0-0.7-0.2-2c-0.1-1.4-0.3-2.5-0.3-2.5
		c1.2,1.5,2.6,3,5.7,2.3c2.7-0.6,3-2.6,2.7-3.8c-0.4-1.8-1.5-2.3-3-3l-2.2-1c-2.6-1.2-3.8-2.3-4.4-4.6c-0.7-2.9,0.8-5.7,5-6.7
		c3.3-0.8,5.3-0.1,5.3-0.1S450.6,485.6,450.7,487z"/>
	<path class="st0" d="M465.2,501.9c-5.6,1.5-8-1.7-9.3-6.7c-0.8-2.8-2-12.2,5.7-14.3c5.6-1.5,8,1.7,9.3,6.7
		C471.7,490.5,472.8,499.8,465.2,501.9z M462,483c-4.9,1.3-3.3,9.5-2.7,11.8c1.5,5.6,3.7,5.5,5.4,5c4.9-1.3,3.3-9.5,2.7-11.8
		C465.9,482.5,463.7,482.6,462,483z"/>
	<path class="st0" d="M497.9,482.5c2.3,12.2,2.6,12.8,2.7,13.3c0.3,0.9,0.6,1.4,1,2l0.4,0.4c0,0-0.5,0.1-2.5,0.8
		c-2,0.7-2.6,0.9-2.6,0.9l0.2-0.8c0.3-1.4,0.1-2.7-0.8-7.7l-0.1-0.8c-0.4-2.3-0.7-4.8-0.7-4.8c-0.5,6.7-2.9,7.9-4.6,8.5
		c-3.2,1.1-5.5-0.5-7.1-5.2c-0.8-2.5-3.8-13.5,4.8-16.4c3.1-1.1,5,0.1,5,0.1l2.4-2.6C495.8,470.2,495.9,471.6,497.9,482.5z
		 M489.5,474.7c-5.1,1.7-4,8.6-2.5,13.1c0.9,2.7,2,4.4,4.3,3.6c1-0.3,2.6-1.1,4-5.7l-2.1-11.3C493.1,474.5,491.9,473.9,489.5,474.7z
		"/>
	<path class="st0" d="M517.5,473.1c0.6,2.5,1.5,6.6,1.8,7.3c0.2,0.5,0.4,0.9,1.2,1.1l0.6,0.2c0,0-0.2,1.7-2.1,2.4
		c-1.6,0.6-2.2-0.5-2.4-1.1c-0.6-1.4-1-4.5-1-4.5c-0.3,6.7-3,8.2-4.7,8.9c-3.8,1.5-4.9-1.4-5.4-2.5c-0.8-2.2-2.5-10.9-3.3-12.9
		c-0.3-0.9-0.7-1.5-1.2-1.9l-0.4-0.3l4.1-2.5c0,0,2.7,13.2,3.6,15.6c0.4,1,1,2.4,3.1,1.6c2-0.7,3-2.5,3.9-5.9l-0.9-4.3
		c-0.7-3.3-1.3-5.2-1.7-6.3c-0.3-0.9-0.7-1.5-1.2-1.9l-0.4-0.3l4.1-2.5C515.3,463,515.7,465.3,517.5,473.1z"/>
	<path class="st0" d="M529.3,469.9c-2.2,0.9-3.3,1.2-3.3,1.2s0.2,0.7,0.3,1c1.1,2.6,3,5.2,6.7,3.7c3.7-1.6,4.3-4.1,4.3-4.7
		c0.6,1.4,0.8,5.1-4.2,7.3c-2.3,1-6.9,2.3-9.7-4.3c-3.2-7.5-2-13.7,3.5-16c4.2-1.8,6.7-0.2,7.7,2.3
		C536.8,465.5,532.9,468.4,529.3,469.9z M527.3,460c-2.4,1-3.7,3.4-2,9.1c0,0,0.8-0.1,2.8-1c3.5-1.5,4.6-3.5,3.3-6.5
		C530.8,460.4,529.7,459,527.3,460z"/>
	<path class="st0" d="M551.1,469c-0.8,7-1.4,10-4.6,11.5c-1.9,0.9-2.7,0.8-2.7,0.8s-0.1-0.6-0.5-1.7c-0.3-1.1-0.7-1.9-0.7-1.9
		c1.4,1.1,2.3,1.1,3,0.8c1.2-0.6,1.9-1.4,2.6-6.5l-10.4-13.9c-0.9-1.2-1.7-1.9-2.3-2.2l-0.7-0.3l3.8-2.8c0,0,1,1.7,4.4,6.5l4.6,6.4
		c1.1,1.5,1.5,2.4,1.5,2.4c0-0.4,0.8-11.7-1.5-16.4c-0.7-1.6-1.8-1.5-1.8-1.5s0.4-1.1,1.7-1.7c1.9-0.9,2.6,0.5,2.9,1.1
		C552.1,453.6,551.6,464,551.1,469z"/>
	<path class="st0" d="M573,455.6c0.3,0.5,0.5,0.8,1.3,0.9l0.6,0.1c0,0-0.1,1.7-1.8,2.6c-1.6,0.8-2.3-0.2-2.6-0.8
		c-0.8-1.6-3.6-10.9-4.9-13.5c-0.4-0.7-1.1-2.1-3.1-1c-1.9,1-2.7,2.8-3.2,6.3l1.5,4.2c2.6,7.3,3.4,9.2,3.4,9.2s-0.7,0.3-1.6,0.8
		c-0.8,0.4-1.6,0.9-1.6,0.9s-0.7-2.2-3.3-9.8c-1.1-3.3-2.1-5.8-2.6-6.7c-0.3-0.6-0.7-1.3-1.4-1.7l-0.4-0.2l3.6-2.9l2.1,6.2
		c-0.5-6.7,2.1-8.5,3.6-9.3c3.6-1.9,5.1,0.7,5.7,1.8C569.3,444.7,572.1,453.8,573,455.6z"/>
	<path class="st0" d="M580.9,432.6c0.4,0.9,0.6,1.3,0.6,1.3s-0.6-0.1-3.2,1.4l-2,1.1l3.9,9.8c0.3,0.7,1,2.2,1.2,2.7
		c0.6,1,1.5,2.4,3.7,1.2c1.7-1,2.2-2.5,2.2-2.5s1.3,3-2.6,5.2c-3.5,2-5.1-0.3-5.8-1.6c-0.6-1-1.2-2.6-1.8-4
		c-2.5-6.2-3.5-9.3-3.5-9.3l-2.1,1.2c0-0.1,0.6-1.6,1-4.1c0.4-2.5,0.2-4.3,0.2-4.3l1.1-0.6l1.7,4.2l2-1.1c2.6-1.5,2.9-2.1,2.9-2.1
		S580.5,431.6,580.9,432.6z"/>
	<path class="st0" d="M593.3,437c-2.1,1.3-3.1,1.6-3.1,1.6s0.3,0.6,0.5,0.9c1.5,2.5,3.7,4.8,7.2,2.7c3.4-2.1,3.7-4.7,3.6-5.2
		c0.8,1.3,1.5,5-3.1,7.8c-2.1,1.3-6.5,3.3-10.2-2.9c-4.3-7-3.9-13.3,1.2-16.4c3.9-2.4,6.6-1.2,8,1.2
		C600.2,431.6,596.7,435,593.3,437z M590,427.6c-2.2,1.4-3.2,3.9-0.7,9.3c0,0,0.8-0.3,2.6-1.4c3.3-2,4-4.2,2.3-6.9
		C593.5,427.5,592.2,426.2,590,427.6z"/>
	<path class="st0" d="M631.4,422l0,0.7c0,0-0.6,0.3-1.5,1c-0.9,0.6-1.5,1.1-1.5,1.1l-10.1-11.4c-0.8-0.8-1.4-1.8-1.5-1.9
		c0.1,0.1,0.5,1,0.8,2.3l4.2,15.6c0,0-0.6,0.4-1.7,1.1c-1.1,0.8-1.8,1.3-1.8,1.3l-11.1-12.1c-1-1.1-2-1.6-2.7-1.8l-0.7-0.2l2.9-3.1
		c0,0,0.6,0.5,4.1,4.4l6.9,7.8c0.6,0.7,1.3,1.6,1.3,1.7c-0.1-0.1-0.3-0.8-0.7-2.1l-4.4-16.5c0,0,0.7-0.4,1.6-1.1
		c1-0.7,1.6-1.2,1.6-1.2l10.8,12.1c0.9,1,1.3,1.6,1.3,1.6s-1.1-11.3-4.5-16c-1-1.4-2.1-1.1-2.1-1.1s0.2-1.1,1.4-1.9
		c1.7-1.2,2.6,0,3,0.6C630.3,407.2,631.5,418,631.4,422z"/>
	<path class="st0" d="M640.8,404.5c-1.9,1.5-2.9,2-2.9,2s0.4,0.6,0.6,0.9c1.8,2.3,4.2,4.3,7.4,1.9s3.1-5.1,3-5.6
		c0.9,1.2,2.1,4.8-2.2,8.1c-2,1.5-6.1,4-10.5-1.8c-5-6.5-5.4-12.8-0.7-16.4c3.6-2.8,6.4-1.9,8.1,0.3
		C647,398.4,643.8,402.2,640.8,404.5z M636.4,395.5c-2.1,1.6-2.7,4.2,0.3,9.4c0,0,0.7-0.3,2.5-1.7c3-2.4,3.5-4.6,1.6-7.1
		C639.9,395,638.4,393.9,636.4,395.5z"/>
	<path class="st0" d="M661.7,398.2c1,7,1.2,10-1.6,12.3c-1.6,1.3-2.4,1.5-2.4,1.5s-0.3-0.6-0.9-1.5c-0.6-1-1.2-1.7-1.2-1.7
		c1.6,0.7,2.5,0.5,3.1,0c1-0.8,1.5-1.8,0.9-6.9L646,391.1c-1.1-0.9-2.1-1.4-2.8-1.5l-0.7-0.1l2.9-3.6c0,0,1.4,1.4,5.8,5.2l6,5
		c1.4,1.2,2,1.9,2.1,2c-0.1-0.4-2.2-11.5-5.5-15.5c-1.1-1.3-2.1-1-2.1-1s0.2-1.2,1.2-2.1c1.6-1.3,2.6-0.2,3.1,0.4
		C658.8,383.1,660.9,393.2,661.7,398.2z"/>
	<path class="st0" d="M669.4,380.8c-1.8,1.6-2.8,2.2-2.8,2.2s0.4,0.6,0.6,0.8c1.9,2.1,4.5,4,7.5,1.3s2.8-5.3,2.6-5.8
		c1,1.1,2.4,4.6-1.7,8.2c-1.9,1.7-5.8,4.4-10.6-1c-5.5-6.1-6.3-12.3-1.8-16.3c3.4-3,6.2-2.4,8.1-0.3
		C675.1,374.2,672.3,378.2,669.4,380.8z M664.3,372.1c-2,1.8-2.4,4.4,1,9.3c0,0,0.7-0.4,2.3-1.9c2.9-2.6,3.2-4.8,1-7.2
		C667.8,371.4,666.3,370.4,664.3,372.1z"/>
	<path class="st0" d="M680.4,358.4c0.8,1.1,1.6,2,1.6,2c-2-0.8-3.8-1.3-5.9,0.7c-1.8,1.8-1.5,3.3-0.5,4.3c1.1,1.1,2.2,1.1,4,0.9
		l2.2-0.2c2.4-0.2,4.4-0.5,6.5,1.7c1.2,1.2,3.4,4.7-0.9,8.8c-2.6,2.5-4.6,3-4.6,3s-0.3-0.6-1.2-1.7c-0.8-1.1-1.6-2-1.6-2
		c1.8,0.7,3.7,1.3,6-0.9c2-1.9,1.3-3.7,0.4-4.6c-1.2-1.3-2.4-1.3-4.1-1.1l-2.4,0.3c-2.9,0.3-4.5-0.1-6.1-1.7
		c-2.1-2.2-2.2-5.3,0.9-8.3c2.4-2.3,4.5-2.8,4.5-2.8S679.6,357.3,680.4,358.4z"/>
	<path class="st0" d="M751.6,255c0.9,0.8,1.6,1.2,1.6,1.2c-1.9-0.1-2.8,0.7-3.3,1.5c-0.6,1-0.7,1.8-0.5,2.6c0.4,1.1,1.3,1.7,2.6,2.8
		l1.4,1.1l0.5-0.9c1.5-2.3,1.6-3.2,1.6-3.2s0.4,0.4,1.1,1c0.7,0.6,1.1,0.8,1.1,0.8s-0.8,0.5-2.2,2.7l-0.5,0.8l11.3,9.4
		c4.4,3.6,8.7,6.5,6,10.7c-1.2,1.9-1.9,2.2-1.9,2.2s-0.3-0.4-1.1-1c-0.9-0.7-1.5-1.2-1.5-1.2c1.8,0.1,2.5-0.3,2.9-0.9
		c1-1.5-0.2-2.3-2.8-4.5l-14.7-12l-1.1,1.7l-0.1-0.6c-0.2-1.8-0.5-2.5-1.3-3.1l-0.4-0.4c-2.2-1.8-5.4-4.4-2-9.6c1.2-1.9,2-2.5,2-2.5
		S750.8,254.3,751.6,255z"/>
	<path class="st0" d="M777.2,264.1c-2.9,5-6.9,4.3-11.4,1.7c-2.5-1.5-9.9-7.3-5.9-14.2c2.9-5,6.9-4.3,11.4-1.7
		C773.9,251.4,781.3,257.3,777.2,264.1z M761.8,252.8c-2.6,4.4,4.3,9.2,6.3,10.3c5,3,6.5,1.3,7.4-0.1c2.6-4.4-4.3-9.2-6.3-10.3
		C764.1,249.7,762.6,251.3,761.8,252.8z"/>
	<path class="st0" d="M773.5,233c1.4,1.1,1.9,1.4,1.9,1.4c-1.4-0.1-2.4,0.1-3,1.2c-1.2,2.2,1.4,5.6,1.4,5.6l3.5,2.5
		c6.2,4.6,7.9,5.6,7.9,5.6s-0.4,0.6-0.9,1.5c-0.4,0.8-0.8,1.6-0.8,1.6s-1.9-1.5-8.3-6.3c-2.8-2.1-5-3.5-5.9-4
		c-0.6-0.3-1.3-0.6-2.1-0.6l-0.4,0l1.4-4.4l5.3,4.2c-3.1-3.3-4.4-6.1-3.2-8.3c0.7-1.3,1.5-1.5,1.5-1.5S772.2,232,773.5,233z"/>
	<path class="st0" d="M781.9,213.7c0.8,0.5,1.2,0.8,1.2,0.8s-0.5,0.3-1.8,2.9l-1,2.1l8.8,5.9c0.7,0.4,2.1,1.3,2.6,1.5
		c1,0.5,2.6,1.2,3.7-1.1c0.9-1.8,0.4-3.3,0.4-3.3s2.8,1.7,0.8,5.8c-1.8,3.6-4.4,2.7-5.7,2c-1.1-0.5-2.5-1.4-3.7-2.3
		c-5.5-3.7-8.2-5.7-8.2-5.7l-1.1,2.2c0-0.1-0.4-1.7-1.5-3.9c-1.1-2.3-2.2-3.7-2.2-3.7l0.6-1.1l3.8,2.5l1-2c1.3-2.7,1.2-3.4,1.2-3.4
		S781.1,213.1,781.9,213.7z"/>
	<path class="st0" d="M803.3,214c-2.4,5.3-6.4,5-11.1,2.9c-2.7-1.2-10.7-6.2-7.4-13.5c2.4-5.3,6.4-5,11.1-2.9
		C798.6,201.7,806.6,206.8,803.3,214z M786.7,204.4c-2.1,4.7,5.2,8.6,7.4,9.6c5.3,2.4,6.6,0.6,7.3-0.9c2.1-4.7-5.2-8.6-7.4-9.6
		C788.7,201.1,787.4,202.8,786.7,204.4z"/>
	<path class="st0" d="M807.3,175.2l8,4.3c2.4,1.3,4.8,2.5,5.8,5c0.9,2.1,0.5,4.5-0.5,6.9c-1.5,3.9-3,5.8-3,5.8s-0.6-0.5-1.8-1.2
		c-1.3-0.8-2.3-1.2-2.3-1.2c2.7-0.3,3.8-0.8,5-3.8c1.7-4.3,0-6.1-3.4-7.9l-1-0.5c-2.1-1.1-4-2.3-4-2.3c4.9,4.7,4.2,7.3,3.6,8.9
		c-1.2,3.1-3.9,4-8.5,2.2c-2.5-0.9-12.9-5.6-9.6-14c1.2-3.1,3.2-3.8,3.2-3.8l-0.5-3.5C798.3,170.1,800.6,171.6,807.3,175.2z
		 M797.8,177.8c-1.9,5,4,8.6,8.5,10.3c2.7,1,4.7,1.2,5.5-1c0.4-0.9,0.8-2.7-1.9-6.7l-10-5.5C799.9,174.9,798.7,175.5,797.8,177.8z"
		/>
	<path class="st0" d="M821.7,167.6c-1.9,5.5-5.9,5.6-10.8,4c-2.8-0.9-11.2-5.2-8.6-12.7c1.8-5.5,5.9-5.6,10.8-4
		C815.8,155.8,824.2,160,821.7,167.6z M804.2,159.6c-1.6,4.8,6,8.1,8.3,8.8c5.5,1.9,6.6,0,7.2-1.6c1.6-4.8-6-8.1-8.3-8.8
		C805.9,156.1,804.8,158,804.2,159.6z"/>
	<path class="st0" d="M824.1,126.9l-7.3,25.5l-2.2-0.9l7.3-25.5L824.1,126.9z"/>
</g>
<g>
	<path class="st0" d="M58.5,274.9c-1.4-1.4-2.4-2.3-2.4-2.3c1.2,0.2,2.1-0.1,3.1-1.1c0.7-0.7,1.3-1.5,3.3-4.1l1.4-1.9l-5.5-5.5
		l-2.2,0.9c-4.1,1.6-5.1,2-6,2.9c-0.8,0.8-0.9,1.5-0.9,2c0,0-0.8-0.9-2-2.2c-1.3-1.4-2.1-2.1-2.1-2.1c1.9,0,3.4-0.6,9.2-2.8
		l14.9-5.9c0.5-0.2,1-0.4,1.4-0.8c0.4-0.4,0.4-0.7,0.4-0.7l4.7,4.8c0,0-0.4-0.1-1,0.5c-0.3,0.3-0.7,0.8-0.8,1l-8.9,11.9
		c-3.7,4.9-4.4,5.8-4.6,7.5C60.7,277.2,60,276.4,58.5,274.9z M71,256.4c1.1-1.5,1.6-2.1,1.7-2.1c-0.1,0-0.8,0.4-2.6,1.2l-9.1,3.6
		l4.5,4.6L71,256.4z"/>
	<path class="st0" d="M76.6,287.7c-0.4,0.4-0.6,0.7-0.4,1.5l0.1,0.6c0,0-1.6,0.5-3.1-0.8c-1.3-1.2-0.6-2.2-0.2-2.7
		c1.2-1.3,9-7.2,10.9-9.3c0.5-0.6,1.6-1.8-0.1-3.3c-1.6-1.4-3.6-1.6-7-0.9l-3.4,2.9c-5.9,5-7.4,6.4-7.4,6.4s-0.5-0.6-1.3-1.3
		c-0.7-0.6-1.4-1.2-1.4-1.2s1.9-1.4,8.1-6.5c2.7-2.2,4.7-4,5.3-4.7c0.4-0.5,0.9-1.1,1.1-1.9l0.1-0.4l4,2.4l-5.1,4.1
		c6.1-2.8,8.7-1,9.9,0.2c3,2.7,1.1,5,0.3,6C85.4,280.5,77.9,286.3,76.6,287.7z"/>
	<path class="st0" d="M100.2,294.5c-5.2,4.9-6.7,6.4-7.2,6.9c-0.4,0.4-0.5,0.8-0.4,1.5l0.1,0.6c0,0-1.6,0.6-3.1-0.6
		c-1.4-1.1-0.7-2.2-0.3-2.7c1-1.2,3.4-3.1,3.4-3.1c-5.9,3.2-8.2,1.8-9.6,0.7c-2.6-2.1-2.6-4.9,0.6-8.8c1.7-2,9.3-10.5,16.4-4.8
		c2.2,1.8,2.4,3.6,2.4,3.6c1.4-1.3,3-2.9,3.7-3.7c0.6-0.8,1-1.3,1.1-2l0.1-0.5l4.2,2.3C111.7,283.8,110.1,285.2,100.2,294.5z
		 M99.1,286.2c-4.2-3.4-9.4,1.2-12.4,4.9c-1.8,2.2-2.6,4.1-0.7,5.6c0.8,0.6,2.3,1.6,6.9,0.3l8.3-7.8
		C101.2,289.1,101.1,287.8,99.1,286.2z"/>
	<path class="st0" d="M129.2,298.7c-0.8,0.9-1.3,1.5-1.3,1.5c0.2-1.9-0.5-2.9-1.3-3.4c-1-0.7-1.7-0.8-2.6-0.6
		c-1.1,0.3-1.8,1.2-2.9,2.4l-1.2,1.3l0.8,0.6c2.2,1.6,3.1,1.7,3.1,1.7s-0.4,0.4-1.1,1.1c-0.6,0.7-0.9,1.1-0.9,1.1s-0.4-0.8-2.6-2.3
		l-0.8-0.6l-9.9,10.8c-3.8,4.3-6.9,8.4-11,5.5c-1.8-1.3-2.1-2-2.1-2s0.4-0.3,1-1c0.8-0.9,1.3-1.5,1.3-1.5c-0.2,1.8,0.1,2.5,0.7,2.9
		c1.5,1,2.3,0,4.6-2.5l12.8-14l-1.7-1.2l0.6-0.1c1.8-0.1,2.5-0.4,3.2-1.1l0.4-0.4c1.9-2.1,4.6-5.1,9.7-1.5c1.9,1.3,2.4,2.1,2.4,2.1
		S129.9,297.9,129.2,298.7z"/>
	<path class="st0" d="M118.9,323.9c-4.9-3.1-4-7.1-1.2-11.5c1.6-2.5,7.7-9.6,14.5-5.3c4.8,3.1,4,7.1,1.2,11.5
		C131.7,321.1,125.6,328.2,118.9,323.9z M130.9,308.9c-4.3-2.8-9.3,3.9-10.6,5.8c-3.2,4.9-1.6,6.4-0.2,7.4c4.3,2.8,9.3-3.9,10.6-5.8
		C133.8,311.4,132.3,309.8,130.9,308.9z"/>
	<path class="st0" d="M150.3,321.2c-1.1,1.4-1.4,1.9-1.4,1.9c0.1-1.4,0-2.4-1.2-3c-2.2-1.3-5.7,1.2-5.7,1.2l-2.6,3.4
		c-4.7,6.1-5.8,7.8-5.8,7.8s-0.6-0.4-1.5-1c-0.8-0.5-1.6-0.8-1.6-0.8s1.5-1.8,6.5-8.1c2.1-2.7,3.7-4.9,4.2-5.8
		c0.3-0.6,0.7-1.3,0.7-2.1l0-0.4l4.4,1.5l-4.3,5.2c3.4-3,6.3-4.2,8.4-3c1.2,0.7,1.5,1.5,1.5,1.5S151.2,320,150.3,321.2z"/>
	<path class="st0" d="M169.3,330c-0.5,0.8-0.8,1.2-0.8,1.2s-0.3-0.5-2.9-1.9l-2.1-1l-6,8.7c-0.5,0.7-1.3,2-1.6,2.6
		c-0.5,1-1.2,2.6,1.1,3.7c1.8,0.9,3.2,0.4,3.2,0.4s-1.8,2.7-5.8,0.7c-3.6-1.8-2.6-4.4-1.9-5.7c0.5-1.1,1.4-2.5,2.3-3.7
		c3.8-5.5,5.8-8.1,5.8-8.1l-2.2-1.1c0.1,0,1.7-0.4,3.9-1.4c2.3-1.1,3.7-2.2,3.7-2.2l1.1,0.6l-2.6,3.8l2,1c2.6,1.3,3.4,1.3,3.4,1.3
		S169.9,329.2,169.3,330z"/>
	<path class="st0" d="M177.7,351.6c-0.2,0.5-0.3,0.9,0,1.6l0.3,0.5c0,0-1.4,1-3.2,0.2c-1.6-0.7-1.3-1.9-1-2.5
		c0.7-1.6,6.3-9.6,7.5-12.2c0.3-0.7,0.9-2.2-1.1-3.1c-1.9-0.9-3.9-0.4-7,1.4l-2.3,3.8c-4.1,6.5-5.1,8.4-5.1,8.4s-0.6-0.4-1.5-0.8
		c-0.9-0.4-1.7-0.7-1.7-0.7s1.5-2.2,6.5-10.1c3.6-5.7,6.1-9.8,6.8-11.1c0.4-0.9,0.6-1.5,0.6-2.2l0-0.5l4.7,1.1c0,0-1.7,2.5-4.7,7.3
		l-0.4,0.7c-1.4,2.2-2.7,3.9-2.7,3.9c5-4.5,7.9-3.6,9.5-2.9c3.7,1.7,2.6,4.4,2.1,5.6C183.9,342,178.5,349.9,177.7,351.6z"/>
	<path class="st0" d="M192.3,351.1c-2.2-0.9-3.2-1.5-3.2-1.5s-0.3,0.6-0.4,0.9c-1,2.7-1.5,5.9,2.2,7.3c3.7,1.4,6,0.1,6.3-0.3
		c-0.5,1.4-3,4.2-8.1,2.3c-2.3-0.9-6.6-3.1-3.9-9.9c3-7.7,8.1-11.2,13.7-9.1c4.3,1.7,4.9,4.5,3.9,7.1
		C200.8,353.2,195.9,352.5,192.3,351.1z M197.8,342.6c-2.5-1-5-0.1-7.8,5.1c0,0,0.7,0.5,2.7,1.2c3.6,1.4,5.7,0.6,6.9-2.3
		C200,345.4,200.2,343.6,197.8,342.6z"/>
	<path class="st0" d="M224.1,368.1c-0.2,0.6-0.2,0.9,0.2,1.5l0.3,0.5c0,0-1.3,1.2-3.1,0.6c-1.7-0.5-1.5-1.7-1.3-2.4
		c0.5-1.7,5-10.3,5.9-13.1c0.2-0.8,0.7-2.3-1.5-2.9c-2-0.6-3.9,0.1-6.7,2.2l-1.8,4c-3.2,7-4,9-4,9s-0.7-0.3-1.6-0.6
		c-0.9-0.3-1.8-0.5-1.8-0.5s1.2-2.4,5.2-10.8c2.8-6.1,4.8-10.5,5.3-11.9c0.3-0.9,0.4-1.6,0.3-2.3l-0.1-0.5l4.8,0.5
		c0,0-1.4,2.7-3.7,7.9l-0.3,0.7c-1.1,2.3-2.2,4.2-2.2,4.2c4.3-5.1,7.4-4.6,9.1-4.1c3.9,1.2,3.2,4,2.8,5.3
		C229,357.7,224.6,366.2,224.1,368.1z"/>
	<path class="st0" d="M236.4,374.8c-5.6-1.4-6.1-5.4-4.9-10.4c0.7-2.9,4.2-11.6,11.9-9.7c5.6,1.4,6.1,5.4,4.9,10.4
		C247.7,367.9,244.2,376.7,236.4,374.8z M242.8,356.7c-5-1.2-7.5,6.7-8.1,9c-1.4,5.7,0.6,6.6,2.3,7c5,1.2,7.5-6.7,8.1-9
		C246.5,358.1,244.5,357.1,242.8,356.7z"/>
	<path class="st0" d="M267.3,370.1c-0.8,2.5-2.1,6.4-2.3,7.2c-0.1,0.6-0.1,1,0.4,1.5l0.4,0.4c0,0-1.1,1.3-3,0.9
		c-1.7-0.3-1.6-1.5-1.5-2.2c0.3-1.5,1.5-4.4,1.5-4.4c-3.7,5.6-6.8,5.4-8.6,5.1c-4-0.7-3.5-3.8-3.3-5c0.4-2.3,3.5-10.6,3.9-12.7
		c0.2-0.9,0.2-1.6,0-2.3l-0.2-0.5l4.8,0c0,0-4.6,12.7-5.1,15.2c-0.2,1-0.4,2.6,1.8,3c2.1,0.4,3.9-0.6,6.4-3l1.4-4.1
		c1.1-3.2,1.6-5.1,1.8-6.2c0.2-0.9,0.2-1.6,0-2.3l-0.2-0.5l4.8,0C270.7,360.3,269.9,362.5,267.3,370.1z"/>
	<path class="st0" d="M285.2,365.3c-0.3,1.3-0.6,2.5-0.6,2.5c-0.6-2-1.4-3.7-4.2-4.1c-2.5-0.3-3.5,0.9-3.7,2.3
		c-0.2,1.6,0.5,2.4,1.8,3.7l1.6,1.6c1.7,1.8,3.1,3.2,2.7,6.1c-0.2,1.7-1.6,5.6-7.5,4.8c-3.6-0.5-5.2-1.7-5.2-1.7s0.2-0.6,0.6-2
		c0.4-1.3,0.6-2.5,0.6-2.5c0.6,1.8,1.3,3.7,4.5,4.1c2.8,0.4,3.7-1.4,3.9-2.6c0.2-1.8-0.5-2.7-1.7-3.9l-1.7-1.7
		c-2-2.1-2.7-3.6-2.4-5.8c0.4-3,2.8-5,7.1-4.5c3.4,0.5,5,1.8,5,1.8S285.6,363.9,285.2,365.3z"/>
	<path class="st0" d="M300.7,373.5c-0.7,3.4-1.5,7.2-1.6,7.9c0,0.6,0,0.9,0.6,1.5l0.4,0.4c0,0-1,1.4-3,1.2c-1.8-0.1-1.8-1.4-1.8-2.1
		c0.2-1.9,2.9-11.9,3.2-15.2c0.1-1,0.1-1.7-0.2-2.3l-0.2-0.5l4.7-0.6C302.9,363.9,302.2,366.7,300.7,373.5z M302,360.7
		c-1.7-0.1-2.1-1.4-2-2.1c0.1-1.2,1-2.1,2.4-2c1.7,0.1,2.1,1.4,2,2.1C304.3,359.9,303.4,360.8,302,360.7z"/>
	<path class="st0" d="M318,367.7c-0.2,1.4-0.4,2.5-0.4,2.5c-0.8-2-1.7-3.6-4.6-3.7c-2.6-0.1-3.4,1.2-3.5,2.6
		c-0.1,1.6,0.7,2.3,2.1,3.6l1.7,1.4c1.8,1.6,3.4,2.9,3.3,5.8c-0.1,1.7-1.1,5.7-7,5.4c-3.6-0.2-5.3-1.3-5.3-1.3s0.2-0.6,0.4-2
		c0.2-1.4,0.4-2.5,0.4-2.5c0.8,1.8,1.6,3.6,4.8,3.7c2.8,0.1,3.6-1.7,3.6-2.9c0.1-1.8-0.8-2.6-2.1-3.7l-1.8-1.6
		c-2.2-1.9-3.1-3.3-3-5.6c0.1-3,2.3-5.3,6.6-5.1c3.4,0.2,5.1,1.3,5.1,1.3S318.2,366.3,318,367.7z"/>
	<path class="st0" d="M335.1,365.7l-1.2,10.2c-0.9,7.7-1,9.6-1,9.6s-0.7-0.1-1.7,0c-1,0-1.8,0.1-1.8,0.1s0.4-2.7,1.5-11.9
		c0.8-6.9,1.4-11.4,1.4-12.9c0-1-0.1-1.7-0.4-2.3l-0.3-0.5l4.7-1C336.2,357.1,335.7,360.6,335.1,365.7z M340.2,373.3
		c-1.6,1-2.2,1.3-2.2,1.3l2.6,4.8c1.8,3.3,2.2,3.8,3.4,4.5l0.5,0.2c0,0-0.8,1.5-2.7,1.5c-1.5,0-2-0.7-2.5-1.7
		c-2.3-4.2-4.9-9.3-4.9-9.3s1.4-0.7,4.2-2.8c2.7-2,3.6-3.3,3.6-5.1c0-1.2-0.9-1.6-0.9-1.6s0.8-0.7,2-0.7c1.7,0,2.3,0.9,2.3,2.1
		C345.9,368.8,344.1,370.9,340.2,373.3z"/>
	<path class="st0" d="M360,366.2c-0.1,1.8-0.1,2.4-0.1,2.4c-0.7-1.2-1.3-1.9-2.6-1.9c-2.5,0.2-4,4.2-4,4.2l-0.3,4.3
		c-0.5,7.7-0.5,9.7-0.5,9.7s-0.8,0-1.8,0c-0.9,0.1-1.8,0.2-1.8,0.2s0.2-2.4,0.9-10.3c0.2-3.5,0.3-6.1,0.3-7.1c0-0.6-0.2-1.5-0.6-2.1
		l-0.2-0.3l4.5-1.2l-0.7,6.7c1.1-4.3,2.9-7,5.3-7.1c1.4-0.1,2,0.4,2,0.4S360.1,364.6,360,366.2z"/>
	<path class="st0" d="M372.3,382.3c-3,6.4-4.5,9-8.1,9.4c-2,0.2-2.8-0.1-2.8-0.1s0.1-0.6,0.1-1.7c0.1-1.1,0-2,0-2
		c1,1.5,1.8,1.8,2.6,1.7c1.3-0.1,2.2-0.7,4.5-5.3l-5.3-16.5c-0.4-1.4-1-2.4-1.5-2.8l-0.5-0.5l4.4-1.4c0,0,0.4,1.9,2,7.5l2.2,7.5
		c0.5,1.8,0.7,2.7,0.7,2.8c0.1-0.4,4.5-10.8,3.9-16c-0.2-1.7-1.2-2-1.2-2s0.8-0.9,2.2-1c2-0.2,2.3,1.3,2.4,2
		C378.3,368.2,374.4,377.8,372.3,382.3z"/>
	<path class="st0" d="M397.5,376.5c0.1,0.6,0.2,0.9,0.9,1.3l0.5,0.3c0,0-0.6,1.6-2.5,1.9c-1.7,0.3-2.1-0.9-2.2-1.6
		c-0.3-1.8,0-11.5-0.5-14.3c-0.1-0.8-0.4-2.3-2.7-2c-2.1,0.3-3.5,1.8-5.1,5l0.1,4.4c0.2,7.7,0.4,9.8,0.4,9.8s-0.8,0.1-1.8,0.2
		c-0.9,0.1-1.8,0.4-1.8,0.4s0.1-2.3-0.1-10.4c-0.1-3.5-0.2-6.1-0.4-7.1c-0.1-0.6-0.3-1.4-0.8-2l-0.3-0.3l4.3-1.6l0,6.5
		c1.6-6.5,4.6-7.4,6.3-7.7c4-0.7,4.6,2.2,4.8,3.5C397.4,365.1,397.2,374.6,397.5,376.5z"/>
	<path class="st0" d="M406.4,357.6l0.8,10.3c0.6,7.7,0.9,9.6,0.9,9.6s-0.7,0.1-1.7,0.3c-1,0.2-1.8,0.5-1.8,0.5s-0.1-2.7-0.8-11.9
		c-0.5-6.9-0.9-11.5-1.2-12.9c-0.2-1-0.5-1.6-0.9-2.1l-0.4-0.4l4.4-1.9C405.8,348.9,406,352.4,406.4,357.6z M413,364
		c-1.4,1.3-1.9,1.8-1.9,1.8l3.5,4.2c2.4,2.9,2.9,3.3,4.2,3.7l0.5,0.1c0,0-0.5,1.6-2.4,2c-1.4,0.3-2.1-0.3-2.8-1.2
		c-3.1-3.7-6.6-8.2-6.6-8.2s1.3-0.9,3.6-3.5c2.3-2.5,2.9-3.9,2.5-5.7c-0.3-1.2-1.1-1.4-1.1-1.4s0.7-0.8,1.9-1.1
		c1.7-0.4,2.5,0.5,2.7,1.6C417.6,358.5,416.3,360.9,413,364z"/>
	<path class="st0" d="M428.1,363.5c-2.3,0.6-3.5,0.7-3.5,0.7s0.1,0.7,0.2,1c0.8,2.8,2.3,5.6,6.1,4.6s4.8-3.5,4.9-4
		c0.4,1.4,0.1,5.2-5.2,6.6c-2.4,0.7-7.1,1.4-9-5.6c-2.2-7.9-0.1-13.8,5.6-15.4c4.4-1.2,6.6,0.7,7.4,3.3
		C436.2,360.1,431.8,362.4,428.1,363.5z M427.5,353.4c-2.5,0.7-4.1,2.9-3.3,8.8c0,0,0.8,0,2.9-0.6c3.7-1,5-2.9,4.2-6
		C430.9,354.3,429.9,352.8,427.5,353.4z"/>
	<path class="st0" d="M443,354.6c1.2,7.2,1.6,9.5,1.8,10.1c0.2,0.5,0.3,0.9,1.1,1.1l0.6,0.2c0,0-0.4,1.7-2.3,2.3
		c-1.7,0.5-2.2-0.6-2.4-1.2c-0.8-2.4-3-19.6-4.1-23c-0.3-0.9-0.6-1.6-1-2l-0.4-0.4l4.3-2.3C440.6,339.5,440.8,341.5,443,354.6z"/>
	<path class="st0" d="M455.3,355c-2.3,0.8-3.4,1-3.4,1s0.2,0.7,0.3,1c1,2.7,2.7,5.4,6.5,4.1c3.8-1.3,4.6-3.8,4.6-4.4
		c0.5,1.4,0.5,5.2-4.6,7c-2.3,0.8-7,1.9-9.4-4.9c-2.8-7.7-1.2-13.8,4.4-15.8c4.3-1.5,6.7,0.2,7.6,2.8
		C463.1,351,458.9,353.6,455.3,355z M453.9,345c-2.5,0.9-3.9,3.2-2.6,9c0,0,0.8-0.1,2.9-0.8c3.6-1.3,4.8-3.3,3.7-6.3
		C457.4,345.6,456.3,344.1,453.9,345z"/>
	<path class="st0" d="M479.6,341.2c1.8,7,2.4,8.9,2.7,9.6c0.2,0.5,0.4,0.8,1.1,1l0.6,0.2c0,0-0.2,1.7-2,2.4c-1.6,0.7-2.2-0.4-2.5-1
		c-0.6-1.4-1.1-4.5-1.1-4.5c0,6.7-2.3,8.1-4,8.8c-3.1,1.3-5.5-0.1-7.4-4.7c-1-2.4-4.8-13.2,3.5-16.7c2.6-1.1,4.3-0.4,4.3-0.4
		c-0.5-1.8-1.1-4.1-1.5-5c-0.4-0.9-0.7-1.5-1.2-1.9l-0.4-0.3l4-2.6C475.7,326,476.1,328.1,479.6,341.2z M471.7,338.2
		c-4.9,2.1-3.4,8.8-1.6,13.2c1.1,2.7,2.4,4.2,4.5,3.3c0.9-0.4,2.5-1.3,3.6-6l-2.9-11.1C475.3,337.7,474.1,337.2,471.7,338.2z"/>
	<path class="st0" d="M499,324.8c0.3,0.9,0.5,1.4,0.5,1.4s-0.6-0.1-3.3,1.2l-2.1,1l3.4,10c0.3,0.8,0.9,2.3,1.1,2.8
		c0.5,1,1.4,2.5,3.6,1.4c1.8-0.9,2.3-2.4,2.3-2.4s1.2,3-2.9,5.1c-3.6,1.8-5.1-0.5-5.8-1.9c-0.5-1.1-1.1-2.6-1.6-4.1
		c-2.1-6.3-3-9.5-3-9.5l-2.2,1.1c0-0.1,0.7-1.6,1.2-4c0.5-2.5,0.5-4.3,0.5-4.3l1.1-0.6l1.5,4.3l2-1c2.6-1.3,3-1.9,3-1.9
		S498.7,323.8,499,324.8z"/>
	<path class="st0" d="M515.9,337.8c-5.1,2.8-8.2,0.2-10.7-4.3c-1.4-2.6-4.8-11.4,2.1-15.2c5-2.8,8.2-0.2,10.7,4.3
		C519.5,325.1,522.9,333.9,515.9,337.8z M508.3,320.2c-4.5,2.5-1,10,0.2,12.1c2.8,5.1,4.9,4.4,6.4,3.6c4.5-2.5,1-10-0.2-12.1
		C511.9,318.7,509.8,319.3,508.3,320.2z"/>
	<path class="st0" d="M542.1,308.9c1.1,2.4,2.9,6.1,3.4,6.8c0.3,0.5,0.6,0.8,1.4,0.8l0.6,0c0,0,0.1,1.7-1.5,2.8
		c-1.4,1-2.2,0-2.6-0.6c-0.9-1.3-1.9-4.2-1.9-4.2c1.2,6.6-0.8,8.4-2.3,9.4c-2.8,1.8-5.4,0.9-8.1-3.2c-1.5-2.2-7.3-12,0.3-17
		c2.8-1.8,4.8-1.2,4.8-1.2l1.6-3.1C537.6,299.3,538.6,301.6,542.1,308.9z M532.9,305.3c-4.5,3-1.7,9.3,0.9,13.3
		c1.6,2.4,3.1,3.7,5,2.4c0.8-0.6,2.2-1.7,2.3-6.5l-4.9-10.3C536.2,304.1,534.9,303.9,532.9,305.3z"/>
	<path class="st0" d="M563.1,302.8c0.3,0.5,0.6,0.7,1.4,0.7l0.6,0c0,0,0.2,1.7-1.4,2.9c-1.4,1.1-2.3,0.2-2.7-0.4
		c-1.1-1.4-5.3-10.2-7-12.5c-0.5-0.6-1.5-1.9-3.3-0.5c-1.7,1.3-2.2,3.2-2.2,6.8l2.2,3.9c3.7,6.7,4.9,8.5,4.9,8.5s-0.6,0.4-1.5,1
		c-0.7,0.5-1.4,1.1-1.4,1.1s-1-2.1-4.9-9.2c-1.7-3.1-3-5.3-3.6-6.2c-0.4-0.5-0.9-1.1-1.6-1.4l-0.4-0.2l3.1-3.4l3,5.8
		c-1.6-6.5,0.7-8.7,2.1-9.7c3.3-2.4,5.1-0.2,5.9,0.9C557.7,292.7,562,301.2,563.1,302.8z"/>
	<path class="st0" d="M574.3,280.8c3.8,6.1,5,7.8,5.4,8.4c0.4,0.4,0.7,0.7,1.4,0.7l0.6,0c0,0,0.3,1.7-1.1,2.9
		c-1.4,1.1-2.2,0.3-2.7-0.2c-1-1.2-2.4-4-2.4-4c2,6.4,0.2,8.4-1.2,9.6c-2.6,2.1-5.3,1.6-8.5-2.2c-1.7-2-8.5-11.2-1.6-17
		c2.2-1.8,4-1.6,4-1.6c-1.1-1.6-2.3-3.5-2.9-4.3c-0.6-0.7-1.1-1.2-1.7-1.5l-0.5-0.2l3-3.7C566.1,267.5,567.2,269.4,574.3,280.8z
		 M566,280.4c-4.1,3.4-0.7,9.5,2.4,13.1c1.8,2.2,3.5,3.3,5.3,1.8c0.7-0.6,2-2,1.6-6.8l-6.1-9.7C569.2,278.8,567.9,278.7,566,280.4z"
		/>
	<path class="st0" d="M584.1,253.3c0.7,1,1.3,1.5,1.3,1.5c-1.8-0.6-2.9,0-3.6,0.7c-0.9,0.8-1.1,1.5-1.1,2.4c0.1,1.1,0.9,2,1.8,3.3
		l1.1,1.5l0.7-0.7c2-1.9,2.3-2.7,2.3-2.7s0.3,0.5,0.9,1.3c0.6,0.8,0.9,1.1,0.9,1.1s-0.9,0.3-2.8,2.1l-0.7,0.7l8.7,11.8
		c3.4,4.6,6.9,8.4,3.2,11.9c-1.6,1.5-2.4,1.7-2.4,1.7s-0.2-0.4-0.8-1.2c-0.7-0.9-1.2-1.5-1.2-1.5c1.7,0.6,2.5,0.3,3-0.2
		c1.3-1.2,0.4-2.3-1.6-5l-11.3-15.2l-1.5,1.4l0.1-0.6c0.2-1.8,0.1-2.6-0.5-3.3l-0.3-0.5c-1.7-2.3-4.2-5.5,0.4-9.8
		c1.7-1.6,2.5-2,2.5-2S583.4,252.4,584.1,253.3z"/>
	<path class="st0" d="M597.1,251.5c1.1,1.4,1.5,1.8,1.5,1.8c-1.3-0.4-2.3-0.5-3.2,0.4c-1.8,1.8-0.2,5.8-0.2,5.8l2.6,3.4
		c4.8,6.1,6.1,7.5,6.1,7.5s-0.6,0.5-1.3,1.2c-0.6,0.6-1.2,1.3-1.2,1.3s-1.4-1.9-6.2-8.3c-2.1-2.8-3.8-4.8-4.6-5.5
		c-0.5-0.5-1.1-1-1.8-1.2l-0.4-0.1l2.6-3.9l4,5.5c-2.1-4-2.5-7.1-0.8-8.8c1-1,1.8-1,1.8-1S596.1,250.3,597.1,251.5z"/>
	<path class="st0" d="M616.3,257.9c-3.9,4.3-7.6,2.9-11.5-0.6c-2.2-2-8.3-9.2-3-15.1c3.8-4.3,7.6-2.9,11.5,0.6
		C615.6,244.8,621.6,252,616.3,257.9z M603.4,243.7c-3.4,3.8,2.4,9.8,4.1,11.4c4.3,3.9,6.1,2.6,7.2,1.3c3.4-3.8-2.4-9.8-4.1-11.4
		C606.3,241.2,604.6,242.4,603.4,243.7z"/>
	<path class="st0" d="M627.3,252.7c0,0,0.3-2.5-2.1-4.5c-1.4-1.2-2.3-0.5-2.3-0.5l-0.4-0.4c-1.1-1.2-1.1-2.3-0.4-3.6
		c1.2-1.1,2.5-0.6,3.6,0.3C628.2,246.1,629.8,249.7,627.3,252.7z"/>
</g>
</svg>
