<?xml version="1.0" encoding="utf-8"?>
<!-- Generator: Adobe Illustrator 22.1.0, SVG Export Plug-In . SVG Version: 6.00 Build 0)  -->
<svg version="1.1" xmlns="http://www.w3.org/2000/svg" xmlns:xlink="http://www.w3.org/1999/xlink" x="0px" y="0px"
	 viewBox="0 0 600 600" style="enable-background:new 0 0 600 600;" xml:space="preserve">
<style type="text/css">
	.st0{fill:#4A2D37;}
	.st1{fill:#E8D7D7;}
</style>
<g id="Coin_2_back">
	<g>
		<path class="st0" d="M181,98.6l-3.7,2.4l-3.7-4.1c-1.4-1.6-3.7-4.6-5.2-6.6c1.1,2.1,2.8,5.3,3.6,7.5l2.1,5.2l-3.3,2.1l-3.9-4
			c-1.6-1.7-4.2-4.9-5.4-6.4c1,1.8,3,5.4,3.9,7.4l2.3,5l-3.7,2.4l-7.4-17.7l3.8-2.5l4.3,4.4c1.9,2.1,3.9,4.6,5.3,6.3
			c-1-1.9-2.5-4.7-3.7-7.4l-2.3-5.6l3.7-2.4L181,98.6z"/>
		<path class="st0" d="M149.9,103.6l8.3,10.6l-4,3.2l-7.8-9.9c-1.1-1.4-2.2-1.3-3.3-0.4c-1.1,0.9-1.8,1.8-2.2,2.7l-2-3.7
			c0.6-1.1,1.6-2.4,2.9-3.5C144.7,100.2,147.5,100.5,149.9,103.6z M162,118c1,1.2,0.8,3-0.7,4.2c-1.5,1.2-3.2,1-4.2-0.3
			s-0.8-3,0.7-4.2C159.2,116.5,161,116.7,162,118z"/>
		<path class="st0" d="M133.2,117.6l6.3,6.6l2.8-2.6l2.9,3.1l-2.8,2.6l3.5,3.7l-2.2,5.1l-5-5.3l-4.1,3.9l-2.9-3.1l4.1-3.9l-5.7-6
			c-1.2-1.3-2.2-1.2-3.2-0.3c-1.1,1-1.4,2-1.8,3.1l-2.4-3.8c0.5-1.3,1-2.4,2.6-3.8C127.8,114.6,130.5,114.8,133.2,117.6z"/>
		<path class="st0" d="M134.1,142.6l-1.7,5.3l-6.7-6c0.1,1.6-0.2,3.3-1.7,5c-2.6,3-6,2.9-9.8-0.4l-8.7-7.7l3.4-3.8l8.2,7.3
			c2.2,2,3.7,1.9,4.9,0.5c1.2-1.3,1.3-3-0.9-4.8l-8.3-7.4l3.4-3.8L134.1,142.6z"/>
		<path class="st0" d="M102.9,177.9l3.3-5.5l3.8,2.3l-9.3,15.3l-3.8-2.3l3.3-5.5l-17.8-10.8l2.6-4.4L102.9,177.9z"/>
		<path class="st0" d="M98.1,192.6l-0.3,5.6l-8.1-4c0.5,1.5,0.7,3.2-0.3,5.3c-1.8,3.6-5,4.4-9.6,2.2l-10.5-5.1l2.2-4.6l9.9,4.8
			c2.7,1.3,4,0.8,4.9-0.8c0.8-1.6,0.4-3.2-2.1-4.4l-10-4.9l2.2-4.6L98.1,192.6z"/>
		<path class="st0" d="M75.9,205.3c5.9,2.2,7.8,7.1,6,11.7c-1.9,4.9-6.4,6.6-12.4,4.3c-0.6-0.2-0.9-0.4-1.2-0.5l4.4-11.4
			c-2.5-0.7-4.5,0.3-5.3,2.5c-0.7,2-0.7,3.3-0.5,5.3l-4,0.5c-0.4-2.7-0.3-4.7,0.8-7.6C65.3,205.3,69.9,203,75.9,205.3z M73,217.7
			c2.4,0.7,4.2,0.3,5.1-2.2c0.8-2-0.2-3.7-2.4-4.9L73,217.7z"/>
		<path class="st0" d="M60.6,224.5l3.3,2.5c-1.7,1.6-3.2,4-3.8,6c-0.5,1.8-0.1,2.7,0.8,3c1,0.3,1.5,0,2.8-2.4c2.5-4.3,4.6-6.5,8-5.6
			c3.5,1,4.9,4.1,3.6,8.6c-0.9,3.1-2.2,5-3.9,6.8l-3.3-2.5c1.7-1.7,2.8-3.4,3.4-5.6c0.4-1.6,0.1-2.4-0.8-2.6c-0.9-0.3-1.5,0-2.8,2.4
			c-2.6,4.3-4.4,6.6-8,5.6c-4-1.1-5-4.4-3.8-8.9C57.2,228.8,58.7,226.4,60.6,224.5z"/>
		<path class="st0" d="M62.5,247c6.2,1.1,8.9,5.6,8,10.5c-1,5.2-5.1,7.7-11.5,6.5c-0.6-0.1-1-0.2-1.3-0.3l2.2-12
			c-2.6-0.2-4.4,1.1-4.8,3.4c-0.4,2.1-0.1,3.4,0.4,5.4l-3.9,1.2c-0.8-2.6-1.2-4.6-0.6-7.6C52.1,248.9,56.3,245.8,62.5,247z
			 M62,259.6c2.5,0.2,4.2-0.5,4.7-3.1c0.4-2.1-0.8-3.6-3.3-4.4L62,259.6z"/>
		<path class="st0" d="M56.5,268.9l11.6,1.1l-0.5,5.1l-10.9-1c-2.9-0.3-4.1,0.6-4.2,2.5c-0.2,1.8,0.7,3.1,3.6,3.4l11.1,1l-0.5,5.1
			l-18.8-1.7l0.5-5.1l1.6,0.2c-1-1.3-1.8-2.8-1.6-5C48.7,270.4,51.4,268.4,56.5,268.9z"/>
		<path class="st0" d="M49.3,291l3.8,1.6c-1.3,2-2.1,4.7-2.1,6.8c0,1.8,0.6,2.7,1.6,2.7s1.4-0.4,2.1-3.1c1.3-4.8,2.8-7.5,6.3-7.4
			c3.6,0.1,5.8,2.7,5.7,7.4c-0.1,3.2-0.8,5.4-2,7.5l-3.8-1.5c1.2-2.1,1.8-4,1.9-6.3c0-1.6-0.5-2.3-1.4-2.3c-0.9,0-1.4,0.4-2.1,3
			c-1.4,4.8-2.6,7.5-6.3,7.4c-4.2-0.1-6-3-5.9-7.6C47.1,296,47.9,293.2,49.3,291z"/>
		<path class="st0" d="M65.1,338.3l-0.6-3.2l4.2-0.7l0.6,3.2l0.9-0.2c4.3-0.8,6.6,1.4,7.2,4.8c0.4,2.1,0.1,3.7-0.1,4.7l-3.8,0.7
			c0.2-0.7,0.3-1.8,0.1-3.1c-0.3-1.4-0.9-2.4-2.6-2.1l-1,0.2l0.8,4.8l-4.2,0.7l-0.8-4.6l-14.4,2.5l-0.9-5L65.1,338.3z"/>
		<path class="st0" d="M72.8,355.2l1.3,4.9l-2.1,0.6c1.8,0.8,3.3,2.3,3.9,4.3c0.5,1.7,0.4,3.1,0,4l-5.3-0.2c0.5-1.2,0.8-2.2,0.4-3.8
			c-0.6-2.3-2.7-3.2-5.5-2.5l-9.7,2.6l-1.3-4.9L72.8,355.2z"/>
		<path class="st0" d="M65.8,377.9c3.8-1.4,6.8,0.8,8.2,4.6c0.6,1.7,0.8,3.1,0.6,4.3l1.2-0.5c2-0.7,2.4-2.1,1.6-4.1
			c-0.7-1.9-1.7-3.2-3.1-4.5l2.9-2.6c1.7,1.6,3.1,3.6,4.2,6.6c1.7,4.7,0.4,7.9-3.8,9.4l-11.7,4.3l-1.8-4.8l1.6-0.6
			c-1.5-0.8-3-2.2-3.7-4.1C60.8,382.7,61.7,379.4,65.8,377.9z M68.9,388.9l2.7-1c0.1-1,0-2.1-0.5-3.6c-0.7-1.8-1.9-2.4-3.4-1.8
			c-1.6,0.6-2.2,1.8-1.6,3.5C66.6,387.4,67.8,388.5,68.9,388.9z"/>
		<path class="st0" d="M85.1,392.4l1.8,3.8l-1.2,0.6c1.3,0.2,2.3,0.9,2.9,2.2c0.7,1.5,0.6,2.7-0.1,3.8c1.5,0.5,2.5,1.2,3.2,2.7
			c1.1,2.3,0.3,4.4-3.1,6l-12.6,6l-1.8-3.8L86,408c1.4-0.7,1.8-1.4,1.4-2.2c-0.4-0.8-1.3-1.2-2.7-0.5L73,410.9l-1.8-3.8l11.8-5.6
			c1.4-0.7,1.8-1.5,1.4-2.3s-1.3-1.1-2.7-0.4l-11.8,5.6l-1.8-3.8L85.1,392.4z"/>
		<path class="st0" d="M86.5,416.7c5.4-3.2,10.4-1.7,12.9,2.6c2.7,4.5,1.2,9.1-4.3,12.4c-0.6,0.3-0.9,0.5-1.2,0.7l-6.3-10.5
			c-2.1,1.5-2.6,3.7-1.4,5.7c1.1,1.8,2.1,2.6,3.9,3.7l-2.1,3.5c-2.3-1.4-3.9-2.7-5.5-5.3C79.9,425,81,419.9,86.5,416.7z M94.4,426.6
			c2-1.5,2.8-3.1,1.5-5.4c-1.1-1.9-3-2.2-5.4-1.1L94.4,426.6z"/>
		<path class="st0" d="M97.7,435.4c5.5-3.9,9.7-3.5,12.1-0.3c1.2,1.7,1.3,3.4,1.2,4.9l5.4-3.9l4.8,2.9l-21.3,15.4l-3-4.1l1.4-1
			c-1.7-0.3-3.3-1-4.6-2.7C91.6,443.6,92.1,439.5,97.7,435.4z M101.3,447l6.4-4.6c0.3-1.2,0.2-2.5-0.7-3.6c-1.2-1.6-3-1.6-6.2,0.8
			c-3.5,2.5-3.8,4.2-2.7,5.8C98.9,446.4,100.1,446.9,101.3,447z"/>
		<path class="st0" d="M124.2,479.1l-1.1,1.2l-3.7-3.5l16.7-17.3l5.2,2L135,468c1.8,0.1,3.5,0.4,5.1,1.9c2.6,2.5,2.7,6.6-2,11.5
			c-4.7,4.9-9,5.2-11.8,2.5C124.7,482.4,124.3,480.7,124.2,479.1z M134.2,477.9c2.9-3,3.1-4.7,1.6-6.1c-0.9-0.9-2.2-1.2-3.5-1.2
			l-5.5,5.7c0,1.3,0.3,2.5,1.3,3.5C129.7,481.2,131.4,480.8,134.2,477.9z"/>
		<path class="st0" d="M140.2,495.9l6.4-19.3l4.4,3.5l-3.8,9.6c-0.5,1.1-1.4,3-2.1,4c0.9-0.8,2.5-2.2,3.4-2.8l8.6-5.9l4.2,3.4
			l-23.3,14.1l-3.9-3.1L140.2,495.9z"/>
		<path class="st0" d="M179.1,515.6l4.3-8l-3.4-1.8l2-3.7l3.4,1.8l2.4-4.5l5.5,0.5l-3.5,6.5l4.9,2.7l-2,3.7l-4.9-2.7l-3.9,7.3
			c-0.9,1.6-0.5,2.4,0.7,3.1c1.3,0.7,2.3,0.7,3.5,0.7l-2.8,3.5c-1.4,0-2.6-0.2-4.5-1.2C177.9,521.7,177.2,519,179.1,515.6z"/>
		<path class="st0" d="M202.6,507l5.6,0l-3.5,8.3c1.5-0.6,3.2-0.9,5.3,0c3.7,1.6,4.7,4.8,2.7,9.5l-4.6,10.7l-4.7-2l4.3-10.1
			c1.2-2.7,0.6-4.1-1.1-4.8c-1.6-0.7-3.2-0.3-4.3,2.3l-4.4,10.2l-4.7-2L202.6,507z"/>
		<path class="st0" d="M216.4,528.5c1.9-6,6.7-8.1,11.4-6.6c5,1.6,6.9,6.1,4.9,12.2c-0.2,0.6-0.3,1-0.4,1.3l-11.6-3.8
			c-0.6,2.5,0.5,4.5,2.8,5.2c2,0.6,3.3,0.6,5.4,0.3l0.7,4c-2.7,0.5-4.7,0.6-7.6-0.4C216.9,539.1,214.4,534.6,216.4,528.5z
			 M228.9,530.7c0.5-2.5,0.1-4.2-2.4-5c-2.1-0.7-3.7,0.3-4.8,2.7L228.9,530.7z"/>
		<path class="st0" d="M259.3,530.4l4.2,0.6l-0.2,1.3c0.9-0.9,2-1.4,3.4-1.2c1.6,0.2,2.6,0.9,3.2,2.2c1.2-1,2.3-1.4,4-1.2
			c2.5,0.3,3.8,2.1,3.3,5.9l-1.9,13.8l-4.2-0.6l1.7-12.9c0.2-1.6-0.2-2.3-1.1-2.4c-0.9-0.1-1.7,0.5-1.9,2l-1.7,12.9l-4.2-0.6
			l1.7-12.9c0.2-1.6-0.2-2.3-1.1-2.4c-0.9-0.1-1.7,0.5-1.9,2l-1.7,12.9l-4.2-0.6L259.3,530.4z"/>
		<path class="st0" d="M280.4,542.5c0.3-6.3,4.3-9.6,9.2-9.4c5.3,0.2,8.3,4,8,10.4c0,0.6,0,1-0.1,1.3l-12.2-0.5
			c0.1,2.6,1.7,4.2,4.1,4.3c2.1,0.1,3.4-0.4,5.2-1.2l1.7,3.7c-2.4,1.2-4.4,1.8-7.5,1.7C283.7,552.5,280.1,548.8,280.4,542.5z
			 M293,541.3c-0.1-2.5-1-4.1-3.7-4.2c-2.2-0.1-3.5,1.3-3.9,3.9L293,541.3z"/>
		<path class="st0" d="M302.5,546.8c-0.2-4.1,2.9-6.2,6.9-6.4c1.8-0.1,3.2,0.2,4.3,0.7l-0.1-1.3c-0.1-2.1-1.2-2.9-3.4-2.8
			c-2,0.1-3.6,0.6-5.3,1.6l-1.6-3.5c2.1-1.1,4.4-1.8,7.6-2c5-0.2,7.6,2.1,7.8,6.5l0.5,12.4l-5.1,0.2l-0.1-1.7
			c-1.2,1.2-3,2.2-5.1,2.3C305.5,553,302.6,551.1,302.5,546.8z M313.9,547.2l-0.1-2.8c-1-0.4-2-0.7-3.6-0.6
			c-1.9,0.1-2.9,1.1-2.8,2.7c0.1,1.7,1.1,2.6,2.8,2.5C311.8,548.9,313.1,548.1,313.9,547.2z"/>
		<path class="st0" d="M323.5,532.7l5.1-0.7l0.2,1.6c1-1.3,2.3-2.4,4.5-2.7c4-0.5,6.5,1.7,7.2,6.7l1.6,11.6l-5.1,0.7l-1.5-10.9
			c-0.4-2.9-1.5-3.8-3.4-3.6c-1.7,0.2-2.9,1.4-2.5,4.2l1.5,11l-5.1,0.7L323.5,532.7z"/>
		<path class="st0" d="M345.7,539.1c-1.5-6.6,0.6-10.4,4.5-11.2c2.1-0.5,3.6,0.1,5,0.9l-1.5-6.5l4.5-3.3l5.8,25.6l-5,1.1l-0.4-1.7
			c-1,1.4-2.2,2.7-4.3,3.2C350.8,548,347.3,545.9,345.7,539.1z M357.9,540.3l-1.8-7.7c-1-0.7-2.2-1.1-3.6-0.8
			c-1.9,0.4-2.6,2.1-1.7,6c1,4.2,2.3,5.2,4.2,4.7C356.3,542.3,357.2,541.4,357.9,540.3z"/>
		<path class="st0" d="M367,533.9c-1.9-6,0.6-10.5,5.4-12c5-1.6,9.2,0.8,11.2,7c0.2,0.6,0.3,1,0.4,1.3l-11.6,3.8
			c1,2.4,3,3.3,5.3,2.6c2-0.6,3-1.5,4.5-2.9l2.9,2.8c-1.9,2-3.5,3.2-6.4,4.2C373.7,542.1,369,540,367,533.9z M378.4,528.3
			c-1-2.3-2.4-3.5-4.9-2.6c-2.1,0.7-2.8,2.5-2.3,5L378.4,528.3z"/>
		<path class="st0" d="M386.1,517.4l4.7-2l0.9,2c0.5-1.9,1.8-3.6,3.7-4.4c1.6-0.7,3-0.8,4-0.6l0.5,5.3c-1.2-0.4-2.3-0.5-3.9,0.1
			c-2.2,0.9-2.8,3.2-1.7,5.8l3.9,9.2l-4.7,2L386.1,517.4z"/>
		<path class="st0" d="M422.5,499.2l4.3-2.8l1,1.5c0.5-1.7,1.1-3.3,3-4.6c3-2,7.1-1.2,10.8,4.5c3.7,5.6,3.1,9.9-0.2,12.1
			c-1.7,1.2-3.5,1.2-5,0.9l3.5,5.3l-3,4.7L422.5,499.2z M437.3,500.8c-2.3-3.5-4-4-5.6-2.9c-1.1,0.7-1.7,1.8-1.9,3.1l4.4,6.6
			c1.3,0.3,2.5,0.3,3.7-0.5C439.5,505.9,439.5,504.1,437.3,500.8z"/>
		<path class="st0" d="M447.4,498c-2.6-3.2-1.3-6.7,1.8-9.2c1.4-1.1,2.7-1.7,3.9-2l-0.8-1c-1.3-1.6-2.7-1.6-4.4-0.3
			c-1.6,1.3-2.5,2.6-3.3,4.4l-3.4-1.9c1-2.1,2.5-4.1,5-6.1c3.9-3.1,7.4-2.8,10.1,0.6l7.8,9.7l-4,3.2l-1-1.3
			c-0.3,1.7-1.1,3.5-2.7,4.8C453.5,501.2,450.1,501.4,447.4,498z M456.9,491.5l-1.8-2.2c-1,0.2-2,0.6-3.3,1.7
			c-1.5,1.2-1.7,2.6-0.7,3.8c1.1,1.3,2.4,1.5,3.8,0.4C456.2,494.2,456.8,492.7,456.9,491.5z"/>
		<path class="st0" d="M468.2,481l-6.3-6.6l-2.8,2.6l-2.9-3.1l2.8-2.6l-3.6-3.7l2.1-5.1l5.1,5.3l4.1-3.9l2.9,3.1l-4.1,3.9l5.7,6
			c1.2,1.3,2.2,1.2,3.2,0.2c1.1-1,1.4-2,1.7-3.1l2.4,3.7c-0.5,1.3-1,2.4-2.5,3.9C473.6,484,470.9,483.9,468.2,481z"/>
		<path class="st0" d="M483.8,465.2l-6.9-6l-2.5,2.9l-3.2-2.8l2.5-2.9l-3.9-3.4l1.7-5.2l5.5,4.8l3.7-4.2l3.2,2.8l-3.7,4.2l6.2,5.4
			c1.4,1.2,2.3,1,3.2,0c1-1.1,1.2-2.1,1.5-3.3l2.8,3.5c-0.3,1.3-0.8,2.5-2.2,4.1C489.5,467.7,486.8,467.8,483.8,465.2z"/>
		<path class="st0" d="M491.9,449.5c-5.1-3.7-5.7-8.9-2.8-12.9c3.1-4.3,7.9-4.7,13.1-0.9c0.5,0.4,0.8,0.6,1.1,0.8l-7.2,9.9
			c2.2,1.3,4.4,0.9,5.8-1c1.2-1.7,1.6-3,1.9-5l4,0.6c-0.3,2.7-0.9,4.6-2.7,7.1C502.1,452.2,497.1,453.2,491.9,449.5z M497.8,438.3
			c-2.2-1.3-4-1.4-5.5,0.8c-1.3,1.7-0.8,3.6,1.1,5.4L497.8,438.3z"/>
		<path class="st0" d="M497.7,424.9l2.6-4.4l1.9,1.1c-0.7-1.8-0.6-4,0.4-5.8c0.9-1.5,1.9-2.4,2.9-2.8l3.5,4c-1.2,0.4-2.2,1-3,2.4
			c-1.2,2-0.4,4.2,2,5.7l8.6,5.1l-2.6,4.4L497.7,424.9z"/>
		<path class="st0" d="M507.4,408.1l2.2-4.6l1.5,0.7c-0.5-1.5-0.7-3.2,0.2-5.3c1.7-3.6,5-4.5,9.6-2.3l10.5,5l-2.2,4.6l-9.9-4.7
			c-2.7-1.3-4-0.8-4.8,0.9c-0.8,1.6-0.4,3.2,2.2,4.4l10,4.8l-2.2,4.6L507.4,408.1z"/>
		<path class="st0" d="M532.3,372.5c-6.3-1.7-8.5-6.4-7.2-11.1c1.3-4.8,5.5-7.7,11.8-6c6.3,1.7,8.5,6.4,7.2,11.2
			C542.9,371.3,538.6,374.2,532.3,372.5z M535.6,360.4c-3.7-1-5.8-0.1-6.3,2.1c-0.6,2.2,0.7,4,4.4,5c3.6,1,5.8,0.1,6.4-2.1
			C540.7,363.2,539.2,361.4,535.6,360.4z"/>
		<path class="st0" d="M528.7,348.8l0.9-5l1.6,0.3c-0.9-1.3-1.6-2.9-1.2-5.1c0.7-3.9,3.6-5.7,8.6-4.8l11.5,2l-0.9,5l-10.8-1.9
			c-2.9-0.5-4.1,0.3-4.4,2.1c-0.3,1.7,0.5,3.2,3.3,3.7l11,1.9l-0.9,5L528.7,348.8z"/>
		<path class="st0" d="M547.2,302.9l-9.1,0.1l0.1,3.8l-4.2,0.1l-0.1-3.8l-5.1,0.1l-2.3-5l7.3-0.1l-0.1-5.6l4.2-0.1l0.1,5.6l8.3-0.1
			c1.8,0,2.4-0.8,2.3-2.2c0-1.5-0.5-2.4-1.1-3.4l4.4,0.8c0.6,1.2,1.1,2.4,1.1,4.5C553,301,551.1,302.9,547.2,302.9z"/>
		<path class="st0" d="M528.3,286.5l-2.7-4.9l9-0.8c-1.3-1-2.3-2.4-2.5-4.6c-0.4-4,2-6.4,7-6.9l11.6-1.1l0.5,5.1l-10.9,1
			c-2.9,0.3-3.9,1.4-3.7,3.2c0.2,1.8,1.3,3,4.1,2.7l11.1-1l0.5,5.1L528.3,286.5z"/>
		<path class="st0" d="M540.6,264.1c-6.2,1.1-10.3-2-11.2-6.9c-1-5.2,2-9,8.4-10.2c0.6-0.1,1-0.2,1.3-0.2l2.2,12
			c2.5-0.7,3.7-2.6,3.3-4.9c-0.4-2.1-1.1-3.2-2.3-4.8l3.2-2.5c1.7,2.1,2.7,3.9,3.3,6.9C549.7,258.6,546.9,262.9,540.6,264.1z
			 M536.6,252.1c-2.4,0.7-3.7,1.9-3.3,4.5c0.4,2.1,2.1,3.1,4.6,2.9L536.6,252.1z"/>
		<path class="st0" d="M520.8,222.9l-1.8-4.8l2.1-0.8c-1.9-0.6-3.5-2-4.3-3.9c-0.6-1.6-0.7-3-0.4-4l5.3-0.3c-0.4,1.2-0.6,2.3,0,3.9
			c0.8,2.2,3.1,3,5.7,2l9.4-3.6l1.8,4.8L520.8,222.9z"/>
		<path class="st0" d="M522.4,201.2c-5.7,2.8-10.5,0.8-12.7-3.6c-2.3-4.8-0.4-9.2,5.3-12c0.6-0.3,0.9-0.4,1.2-0.6l5.4,11
			c2.2-1.3,2.9-3.5,1.8-5.6c-0.9-1.9-1.9-2.8-3.5-4l2.4-3.3c2.2,1.6,3.7,3,5,5.8C529.6,193.5,528.1,198.4,522.4,201.2z M515.3,190.7
			c-2.2,1.3-3.1,2.9-1.9,5.2c0.9,1.9,2.8,2.4,5.3,1.6L515.3,190.7z"/>
		<path class="st0" d="M504.9,187.1l-2.9-4.8l6.9-7.7c0.8-0.8,2.4-2.2,3.3-3c-1.2,0.4-3.2,1.1-4.3,1.5l-10.1,2.6l-2.8-4.6l19.7-3.9
			l2.6,4.3L504.9,187.1z"/>
		<path class="st0" d="M501.1,163c-5.1,3.7-10.2,2.7-13.1-1.3c-3.1-4.3-2.1-9,3.1-12.8c0.5-0.4,0.8-0.6,1.1-0.8l7.3,9.9
			c1.9-1.7,2.2-3.9,0.8-5.9c-1.2-1.7-2.4-2.4-4.2-3.3l1.8-3.6c2.5,1.1,4.1,2.3,6,4.8C506.8,154.1,506.2,159.3,501.1,163z M492.2,154
			c-1.9,1.7-2.5,3.4-1,5.5c1.3,1.7,3.2,1.9,5.4,0.6L492.2,154z"/>
		<path class="st0" d="M479.4,150.1l-3.4-3.8l1.6-1.5c-2,0.1-4-0.6-5.4-2.2c-1.2-1.3-1.7-2.6-1.8-3.6l4.9-2.1c0,1.3,0.2,2.4,1.3,3.6
			c1.6,1.8,3.9,1.7,6-0.2l7.5-6.6l3.4,3.8L479.4,150.1z"/>
		<path class="st0" d="M478,123.1l-3.8,1.7c-0.7-2.3-2-4.7-3.6-6.2c-1.3-1.3-2.4-1.4-3-0.7c-0.7,0.7-0.7,1.3,0.8,3.6
			c2.7,4.2,3.6,7.1,1.2,9.7c-2.5,2.6-5.9,2.4-9.3-0.8c-2.3-2.2-3.5-4.3-4.2-6.6l3.7-1.8c0.7,2.3,1.7,4.1,3.4,5.6
			c1.2,1.1,2,1.2,2.7,0.5c0.6-0.7,0.7-1.3-0.8-3.6c-2.6-4.3-3.8-6.9-1.2-9.6c2.9-3,6.2-2.4,9.6,0.8
			C475.8,118.1,477.3,120.5,478,123.1z"/>
		<path class="st0" d="M457.2,114.4c-3.9,4.9-9.1,5.3-13,2.2c-4.2-3.3-4.4-8.1-0.4-13.2c0.4-0.5,0.6-0.8,0.9-1l9.6,7.6
			c1.4-2.2,1.1-4.4-0.8-5.9c-1.6-1.3-2.9-1.7-4.9-2.1l0.8-4c2.7,0.5,4.6,1.1,7,3C460.4,104.3,461.2,109.4,457.2,114.4z M446.3,108
			c-1.4,2.1-1.5,3.9,0.5,5.6c1.7,1.3,3.6,1,5.4-0.9L446.3,108z"/>
		<path class="st0" d="M439.2,93.2c-1.2,1.8-3.4,2.2-5.2,1c-1.8-1.2-2.4-3.4-1.2-5.2c1.2-1.8,3.4-2.2,5.3-1S440.4,91.4,439.2,93.2z"
			/>
	</g>
	<path id="theseus_head" class="st1" d="M215.8,460.5c1.5-4.1,3.9-8,5.4-12.2c1.1-3.2,1.1-6.7,1.9-10c0.7-2.8,1.8-5.6,2.8-8.4
		c2-5.7,2-11.6,0.8-17.5c-0.2-0.9,0.3-1.8,0.2-2.8c-0.1-2-0.3-4.1-0.6-6.1c-0.1-0.6-0.8-1.4-0.6-1.9c1.6-4.5-0.3-8.7-1-13
		c-0.7-5-1.8-10.1-2.7-15.1c-0.6-3.5-1.1-7.1-2.1-10.5c-0.8-2.6-2.3-4.9-3.4-7.4c-0.4-0.8-1.1-1.6-1-2.3c0.7-5-1.4-2.4-3.7-1.8
		c-3.6,1.1-7.5,1.5-11.2,2.2c-0.3,0-0.5-0.1-0.8,0c-2.7,0.6-5.3,1.8-8,1.8c-2.8,0-5.7-1.2-8.5-1.8c-0.9-0.2-1.9-0.2-2.8-0.5
		c-7.4-2.1-11.8-7.6-14.6-14.2c-1.6-3.8-2-8.1-2.9-12.1c0-0.2,0.1-0.5,0-0.6c-3.3-3.6-0.7-6.6,0.6-10c0.6-1.5-0.9-4.4-2.1-6.1
		c-3.2-4.4-3.1-9.3-3.9-14.3c-1.1-6.8,1.6-12.5,3-18.6c0.8-3.3,3.8-6.1,5.6-9.2c3.4-5.7,9.1-8.6,14.1-12.3c1.1-0.8,1.7-3.9,1.1-5.1
		c-2.6-5-5.8-9.8-8.9-14.5c-0.5-0.7-2.2-0.8-3.3-0.8c-2.8,0-5.6,0.3-8.3,0.5c-0.5,0-1.1-0.1-1.5,0.1c-3.2,1.6-5.8,0.6-8.1-1.8
		c-2.6-2.6-5.2-5.2-7.6-7.9c-0.7-0.8-0.7-2-1.1-3.1c0.1,0,0.3-0.1,0.4-0.1c-0.6-4.8-1-9.6-1.9-14.3c-0.7-4,2.7-10.4,7.8-12.8
		c1.9-0.9,4.7-0.2,6.1-1.3c3.1-2.5,5.9-5.6,8.5-8.7c4.1-5,8-10.1,11.7-15.3c1.8-2.5,3.5-5.3,4.2-8.3c1.1-4.4,3-7.5,6.8-10.3
		c4.9-3.7,9-8.5,13.5-12.8c1-1,2.2-1.7,3.2-2.7c1.9-1.8,3.5-3.9,5.5-5.6c3-2.6,6.2-4.9,9.5-7.3c1.8-1.3,3.6-2.8,5.6-3.4
		c2.6-0.7,5.5-0.4,8.3-0.6c0.2,0,0.4,0.3,0.5,0.2c3.8-1.7,8.7-0.2,11.5-5.2c1.9-3.3,5.3-6.5,10.2-5.7c0.6,0.1,1.3-0.5,1.9-0.9
		c6.1-4.2,12.6-5.3,19.6-2.8c1.7,0.6,3.3,1.9,5.1,2c1.9,0.1,4.1-0.3,5.8-1.2c3.9-2.1,7.7-4.6,11.4-7.1c3-2,6-1.6,9.3-1.1
		c3.2,0.5,6.5-0.1,9.6,0.6c3.5,0.8,6.7,2.6,10.1,3.7c3.7,1.1,7.5,2.2,11.4,2.8c4.6,0.8,9.2,1.1,13.9,1.5c3.5,0.3,7.1,0.2,10.5,0.9
		c3.3,0.7,6.5,2,9.7,3.1c1.5,0.5,3,1,4.4,1.7c1.2,0.6,2.4,1.4,3.4,2.4c3.5,3.4,6.5,7.4,10.3,10.4c2,1.6,5.2,1.8,7.9,2.3
		c1.8,0.3,3.9-0.7,5.6-0.2c2,0.5,3.9,1.9,5.7,3.1c4.8,3,10.2,5.5,14.2,9.4c4.4,4.2,8.4,9.1,9,15.7c0.3,2.7,0.8,5.4,1.9,7.9
		c1.8,4.1-1.4,6.5-3,9c-1.7,2.9-4.7,5.2-7.5,7.2c-1.8,1.2-4.3,1.3-6.4,2.2c-2.1,0.9-1.9,2.1-1.1,4.3c2.9,7.3,5.7,14.6,7.7,22.2
		c2,7.7,3.4,15.7,4.2,23.6c0.6,5.3,0.1,10.7-0.5,16c-1.4,12.2,1.8,23.6,4.9,35.1c1.5,5.5,1.6,11.4,2.1,17.1c0.2,2.5,0.1,5.1-0.3,7.5
		c-0.1,0.8-1.7,1.3-2.6,2c-0.1-0.9-0.3-1.8-0.5-2.7c-0.5-2.6-1-5.2-1.4-7.8c-0.3-2.4-0.4-4.8-0.6-7.1c-0.2-1.4-0.5-2.7-0.8-4.1
		c-1.7-5.6-3.3-11.2-5.1-16.7c-0.4-1.2-1.2-2.2-1.9-3.3c-0.9,0.8-2.1,1.4-2.6,2.4c-1.4,2.7-2.8,5.4-3.7,8.3
		c-0.5,1.7-0.2,3.8,0.3,5.6c0.9,3.4,2.2,6.6,3.3,9.9c2.3,7,5.2,13.7,9.6,19.7c0.8,1,1,3,0.6,4.2c-2.1,5.8-5.5,10.8-11.6,12.5
		c-3.2,0.9-7,0-10.5-0.1c-0.3,0-0.6-0.4-0.9-0.4c-2.8,0.5-5.7,0.7-8.2,1.8c-3.8,1.6-6.4,0.6-9.3-2.1c-3-2.8-5.3-8.8-3.3-12.2
		c1.5-2.7,3.7-5,5.6-7.4c1.5-1.8,3.2-1.3,3.8,0.6c0.3,1.1-0.6,2.7-1.4,3.9c-1,1.6-2.6,2.8-3.3,4.4c-0.4,1,0.6,2.6,1.3,3.7
		c0.2,0.3,2-0.2,2.7-0.7c4.3-3.3,9.1-3.4,13.9-2.3c2.1,0.5,4.1,2.2,5.9,3.6c2.4,1.9,5.1,1.4,6.7-1.3c0.8-1.4,1.9-2.6,2.4-4.1
		c0.3-0.9,0.2-2.3-0.2-3.2c-1.6-3.8-3.2-7.7-5-11.4c-1-2.2-2.7-4-3.6-6.2c-1.7-4-2.7-8.3-4.6-12.1c-4-8.2-8.5-16.1-12.4-24.3
		c-1.6-3.2-2-7-3.3-10.4c-1.3-3.6-3.1-7.1-4.2-10.8c-0.5-1.7,0.5-3.7,0.8-5.6c1.8,0.4,3.9,0.4,5.4,1.4c2.3,1.4,4.2,2.8,6.9,1.2
		c1.2-0.7,2.6-1.1,3.8-1.9c0.6-0.4,1-1.3,1.4-2c-0.7-0.2-1.4-0.2-2-0.5c-0.8-0.5-1.8-1-2.2-1.8c-0.4-0.7-0.1-1.7-0.1-2.6
		c0.7,0.1,1.4,0.2,2,0.3c0.4,0,1,0,1.3-0.2c5.4-3.6,10.4-0.9,15.5,0.8c0.5,0.2,2.1-1,2-1.3c-0.8-3.1-1.7-6.2-2.7-9.3
		c-0.1-0.4-0.7-0.6-1.1-0.9c-0.4,0.6-0.8,1.2-1.1,1.8c-0.4,0.6-0.8,1.3-1.2,1.9c-0.5-0.5-1.3-0.9-1.5-1.5c-1.6-4.9-2.9-10-4.8-14.8
		c-1.3-3.3-2.9-6.9-5.4-9.3c-1.1-1.1-4.8,0.5-7.3,1c-4.2,0.9-8.4,1.9-12.6,2.8c-0.4,0.1-0.9,0-1.2,0.2c-3.7,2.6-7.9,2.4-12,2.2
		c-0.4,0-0.9,0.3-1.3,0.4c-3.8,0.7-7.6,1.3-11.3,2c-2.6,0.5-5.2,1-7.8,1.4c-2.2,0.3-4.5,0.3-6.8,0.6c-1.6,0.2-3.1,0.7-4.7,0.9
		c-3.1,0.4-6.2,0.8-9.4,1.2c-0.4,0-0.8-0.1-1.2,0c-3.2,0.9-6.4,2.4-9.7,2.7c-3.6,0.4-7.2-0.4-10.8-0.3c-2.7,0-5.3,0.5-8,1
		c-0.4,0.1-1.1,1.2-1,1.8c0.5,2.6,0.7,5.4,1.8,7.7c3.7,7.8,2.3,15-1.3,22.5c-3.5,7.4-9.6,11.7-16.1,15.8c-1.9,1.2-3.5,1.6-5-0.6
		c-0.3-0.5-1.2-0.6-1.8-0.8c0,0.7-0.1,1.5,0,2.2c0.6,3.6,1.5,7.2,1.9,10.9c0.5,3.9,0.9,7.9,0.7,11.8c-0.1,2.7-0.9,5.7-2.3,8
		c-3.3,5.6-7.1,10.9-10.8,16.2c-0.3,0.4-0.9,0.6-1.2,1c-1.3,1.4-2.6,2.8-4,4.2c2.2,1.6,4.2,4,6.7,4.8c7.3,2.3,14.7,4,18.1,12.2
		c2.3,5.6-1.3,15.4-6.9,18.8c-1.2,0.7-1.9,2.9-2.2,4.6c-0.7,4.4-0.7,8.9,2.1,12.8c3.1,4.1,6,8.3,9.2,12.3c2.1,2.5,4.4,5,7.1,6.8
		c2.8,1.9,6.2,2.6,9.1,4.4c8.1,4.9,17.7,4.8,26.4,7.7c2.1,0.7,4.6-0.4,7-0.3c3.6,0.1,7.2,0.7,10.9,0.8c2.1,0.1,4.2-0.4,6.3-0.3
		c4.5,0.2,8.9,0.6,13.4,1c3.7,0.3,7.4,0.6,11,1.2c4.2,0.6,8.3,1.6,12.5,2.3c0.7,0.1,1.6-0.1,2.2-0.5c4.6-2.8,9.4-5.5,13.6-8.8
		c2.6-2,5.3-4.8,6.4-7.8c1.1-2.8,0.3-6.4,0.3-9.6c0-2.1-0.6-4.8,0.5-6.1c7.4-8.9,8.4-20.1,9.5-30.5c0.7-6.1,4.2-11,4.4-17
		c0-1,1.2-2,1.8-3c0.6,1.4,1.9,2.8,1.8,4.1c-0.2,2.8-1.3,5.6-1.8,8.4c-0.3,1.8-0.1,3.7-0.1,5.5c0,0.3,0.2,0.7,0,1
		c-3.6,5.7-1.6,12.6-4.2,18.5c-2.6,6.1-5,12.2-7.1,18.5c-0.6,1.7-0.4,4,0.1,5.8c1.3,5.4-2.2,9.4-4.6,13.2
		c-2.8,4.4-7.3,7.8-11.4,11.1c-2,1.7-4.8,2.8-7.4,3.4c-5.9,1.3-12,2.2-18,3.2c-1,0.2-2.2-0.3-3.3-0.4c-0.4,0-1.1,0.1-1.2,0.3
		c-1.7,5.1-3.9,10.2-4.8,15.4c-0.7,4.1,2.7,6.5,5.9,8.9c5.9,4.3,11.5,9,16.8,14.1c1.2,1.1,0.7,4.1,0.9,6.3c0,0.1-0.7,0.5-0.8,0.5
		c-1.8-1.1-3.7-2.3-5.5-3.5c-2.1-1.5-4.2-3-6.3-4.6c-1.8-1.3-3.4-2.8-5.2-4.1c-1.8-1.2-3.8-3.2-5.6-3.1c-1.3,0.1-2.5,3-3.6,4.8
		c-0.8,1.3-1.6,2.8-2.2,4.2c-0.2,0.6,0,1.4,0,2.1c0.6-0.2,1.2-0.3,1.7-0.6c1.4-1,2.5-2.2,4-3c0.9-0.4,2.2,0,3.3,0.1
		c-0.2,1.5,0.1,3.5-0.7,4.3c-2.1,2-4.8,3.4-7.2,5.1c-2.6,1.9-3.4,4.2-1.8,7.3c0.6,1.2,0.6,2.7,0.8,4.1c-1.3,0.2-2.8,0.1-4,0.7
		c-2.6,1.4-5,3.1-7.4,4.8c-5.7,4.1-10.8,9.5-17.1,12c-5.6,2.2-9.9,5.2-14.6,8.5c-4.5,3.2-10.4,4.4-15.7,6.5
		c-0.4,0.2-0.9,0.3-1.3,0.3c-3.8,0.6-7.5,1.2-11.3,1.9c-2.6,0.5-5.2,1.1-7.8,1.6c-1.7,0.3-3.4,0.6-5.1,0.7c-2.1,0.2-4.3,0.5-6.4,0.5
		c-0.9,0-2.2-0.6-2.6-1.3c-0.4-0.7-0.4-2.6,0.1-2.8c1.8-1,3.8-1.7,5.8-2.1c2-0.4,4.1-0.1,6.1-0.5c3.1-0.7,6.1-1.9,9.2-2.7
		c4.2-1,8.5-1.7,12.7-2.9c2.3-0.7,4.3-2.7,6.6-3.1c8.1-1.3,13.5-8.2,20.9-10.1c6.8-1.8,11.8-5.8,17.4-9c1.5-0.8,1.9-3.5,2.8-5.3
		c-1.4-0.5-2.8-0.9-4.3-1.4c-0.6-0.2-1.5,0-1.7-0.4c-2.5-3.6-4.8-1-7.3-0.1c-2.4,0.9-4.9,1.5-7.4,2c-0.4,0.1-1.6-1.1-1.5-1.5
		c0.4-1.3,0.9-2.8,1.9-3.6c1.2-1,2.9-1.3,4.3-1.9c-1-1.5-1.8-3.1-2.9-4.4c-2.2-2.4-4.6-4.5-6.9-6.8c-2.2-2.2-5-4-6.5-6.6
		c-2.3-3.8-3-8.7-5.6-12.2c-3.8-5-8.7-9.2-13.1-13.8c-0.8-0.8-1.6-1.6-2.3-2.5c-4-4.6-7.6-9.7-12.1-13.8c-3.8-3.6-8.5-6.3-12.9-9.1
		c-2.4-1.5-5.4-2.2-7.8-3.7c-1.4-0.9-2.6-2.5-3.2-4c-0.3-0.6,1-2.8,1.5-2.8c1.9,0.1,3.8,0.5,5.5,1.4c2.9,1.4,5.7,3.1,8.4,4.8
		c2,1.2,3.9,2.7,5.8,4.1c1.8,1.3,3.5,2.6,5.2,4.1c3.1,2.7,6.2,5.3,9.1,8.2c3.5,3.6,6.1,8.2,10,11c8.8,6.3,11.5,16.7,17.8,24.6
		c3.8,4.8,8,9.3,12.2,13.8c0.3,0.4,1.6,0.3,2.2-0.1c3.2-1.9,6.4-3.7,9.3-5.9c1.8-1.4,2.9-3.5,4.4-5.3c1.6-2.1,3.4-4,4.8-6.3
		c0.5-0.8,0.5-2.5-0.1-3.3c-3.4-4.5-3.8-10.9-0.9-15.7c0.5-0.8,0.6-2.8,0.1-3.2c-1.3-0.9-3-1.5-4.6-1.7c-3.5-0.4-7-0.5-10.5-0.6
		c-2.3-0.1-4.7,0.3-6.9-0.1c-5.2-0.9-10.5-1.9-15.6-3.3c-4.7-1.3-9.5-2.9-13.9-5.2c-4.4-2.3-8.2-5.7-12.5-8.4
		c-7.9-5.1-10.8-14-16.3-20.8c-2.1-2.6-4.7-4.8-7.5-6.6c-1.2-0.8-3.7-0.5-5.1,0.3c-3.5,1.8-6.3,1-9.3-1.2c-2-1.5-4.7-2.3-6.6-3.9
		c-2-1.7-3.4-4.2-5.3-6.1c-1.9-1.9-4-3.6-6.1-5.4c-0.2-0.2-1.1,0.1-1.1,0.3c-0.2,0.7-0.4,1.6-0.1,2c3.9,6.4,4.8,13.5,5.5,20.7
		c0.4,4.6,1.2,9.2,1.6,13.8c0.1,1.3-0.7,2.8-1.2,4.1c0,0.1-0.9,0.2-1,0c-1-1.5-2.4-3-2.7-4.7c-0.8-4.9-1-10-1.7-14.9
		c-0.7-4.2-1.5-8.5-2.8-12.5c-0.7-2.4-2.3-4.5-3.6-6.6c0-0.1-1.5,0.4-1.7,0.8c-2.6,7-2.6,14.1-1,21.4c1.6,7.4,2.6,14.9,3.3,22.4
		c0.8,7.6,1.5,15.3,1.2,22.8c-0.4,8.1-1.6,16.2-3.3,24.1c-1.8,8.3-4.7,16.3-7.3,24.4C222.4,472.9,210.8,471.5,215.8,460.5z
		 M271.4,149.6c1.6,1.2,3,2.7,4.7,3.6c3.2,1.7,4.9,3.8,3.9,7.6c-0.5,1.8-0.9,3.7-1,5.5c0,1.1,0.6,2.4,1.3,3.4
		c0.2,0.3,1.7-0.4,2.6-0.5c1.4-0.2,2.9-0.5,4.3-0.4c0.9,0.1,1.7,1,2.6,1.6c0.5-1.2,1.5-2.5,1.4-3.5c-0.8-5.1-2.1-10.2-3-15.3
		c-0.2-1,0.2-2.5,0.9-3.1c0.6-0.5,2.2-0.3,3,0.3c1.1,0.9,2.2,2.1,2.7,3.4c1.4,3.4,2.3,7,3.7,10.4c0.2,0.6,1.9,1.2,2.5,1
		c0.8-0.4,1.9-1.8,1.7-2.4c-1.1-3.5-2.6-7-3.8-10.5c-1.4-4.1-6.8-5.8-6.4-11c0-0.2-0.4-0.5-0.6-0.8c-3.6-4.2-7.2-8.5-10.8-12.6
		c-2.7-3-3.4-7.9-8.3-8.8c-0.5-0.1-1.2-0.6-1.5-0.4c-0.4,0.2-0.8,1-0.7,1.5c0.3,1.9,0.6,3.9,1.2,5.8c0.2,0.8,0.9,1.5,1.5,2
		c2.8,1.9,6.6,3,8.2,5.6c2.6,4.2,4,9.2,5.5,14c0.3,1-1.3,3.8-2.1,3.9c-6.3,0.3-10.1-4.5-13.9-8.2c-5.2-5-8.4-11.3-4.6-19
		c0.2-0.4,0-1.2-0.3-1.6c-0.1-0.2-0.9-0.2-1.2,0c-7.1,3.9-12.8,8.9-14.4,17.3c-0.5,2.4-1.4,4.7-1.6,7c-0.2,2.8,0.3,5.6,0.6,8.4
		c0.1,0.6,0.8,1.1,1.3,1.6c0.5-0.5,1.1-1,1.4-1.6c1.3-2.8,2.6-5.7,3.5-8.6c0.5-1.5-0.2-3.4,0.2-5c0.6-2.3,1.7-4.4,2.6-6.6
		c1.2,1.1,2.8,2.1,3.6,3.4c2.4,4.4,1,8.5-1.3,12.6c-1.3,2.4-2.5,5.1-2.8,7.7c-0.2,1.4,1.6,3.1,2.6,4.6c1.8,2.7,3,6.8,7.4,2.9
		c0.1-0.1,0.2-0.1,0.4-0.1c3.6-1.1,5-4.9,2.9-8.1c-0.7-1.1-1.5-2.1-2-3.2C268.2,151.2,267.8,149.5,271.4,149.6z M247.6,333.7
		c-0.5-0.9-1.4-2.8-2.7-4.3c-0.4-0.4-2.2,0.6-3.4,0.8c-0.5,0.1-1.3-0.3-1.5-0.7c-3.6-5.4-7.3-10.8-10.6-16.4
		c-1.1-1.8-1.4-4.1-1.8-6.2c-0.5-2.3-0.7-4.7-0.9-7.1c-0.3-3-1.2-6-0.7-8.9c0.9-6.1,6.5-7.7,13-4.3c0.8,0.4,2.2,0.2,3.1-0.2
		c0.5-0.2,1-1.8,0.7-2.1c-0.6-0.8-1.7-1.3-2.7-1.8c-0.5-0.3-1.2-0.5-1.7-0.8c-2-0.9-4-1.9-6.1-2.6c-1.2-0.4-2.7-0.8-3.8-0.3
		c-2.1,0.9-3.9,2.3-5.8,3.5c-3.5,2.3-6,8.7-4.9,11.5c0.7,1.8,0.8,3.8,1.3,5.7c0.7,2.9,1.2,5.8,2.2,8.6c1.4,4.3,4.2,8.4,4.5,12.8
		c0.3,4.9,3,8.1,5.3,11.7c0.7,1.1,2.3,1.6,3.5,2.3c1.2,0.8,2.5,1.3,3.5,2.3c1.8,1.7,3.2,3.8,5,5.3c3.3,2.7,7.3,4.7,10.1,7.9
		c2.6,2.9,4.1,7.8,8.9,5.5c2.9-1.3,4.7-4.9,7-7.5c0,0-0.2-0.2-0.2-0.3c0-1.2-0.6-3.2,0-3.6c1.9-1.5,4.6-3.9,6.3-3.4
		c2.9,0.8,2.9-0.7,3.3-2.2c0.8-2.9-2.1-5.5-5.7-5.2c-2.2,0.2-4.6,0.9-6.6,0.3c-3.3-1.2-6.4-3.2-9.5-4.9c-0.6-0.3-1.1-0.7-1.7-1
		c-0.4,1.2-1,2.4-1.3,3.7c-0.1,0.4,0.8,0.9,1.2,1.4c1.4,1.6,3.4,3.1,3.8,4.9c0.2,0.9-2.3,3.1-4,3.7
		C251.6,342.7,247.6,338.8,247.6,333.7z M337.6,149.2c-0.5-0.9-0.7-1.4-1-1.8c-2.1-2.3-4.2-4.7-6.4-6.9c-2.5-2.5-4.9-4.9-7.6-7.1
		c-1.5-1.2-3.4-1.9-5.2-2.5c-4.3-1.4-8.7-2.8-13.1-3.8c-2.3-0.5-4.8-0.3-7.2-0.6c-1.7-0.2-3.3-0.9-5-0.9c-1.3,0-2.7,0.5-4,0.8
		c1.9,2,3.9,4.1,5.9,6.1c0.3,0.3,1.3,0.1,1.9,0.1c0.1,0,0.1-0.1,0.2-0.1c2-0.2,4.3-1.1,5.9-0.3c4.6,2.3,10.6,1.8,13.7,7.1
		c0.1,0.2,0.5,0.2,0.7,0.3c5.8,1.4,10.5,4.2,13.4,9.5c0.4,0.8,0.9,1.6,1.5,2.1c1.3,0.8,2.9,2,4.1,1.7
		C336.2,152.4,336.8,150.4,337.6,149.2z M245.5,298.3c-0.3,1.5-0.5,2.7-0.9,3.8c-0.2,0.4-1.6,0.8-1.6,0.8c-1.4-2.5-4-5.1-3.8-7.6
		c0.2-3.2-1.7-3.4-3.3-3.4c-1.1,0-3,1.3-3.2,2.3c-0.5,2-0.3,4.3,0,6.4c0.6,3.6,0.7,7.6,2.3,10.7c2.6,5.1,5,10.6,10.8,13.3
		c0.8,0.4,1.8,0.9,2.5,0.6c0.7-0.3,1.7-1.6,1.5-2.1c-0.3-0.9-1.3-1.7-2.1-2.4c-0.9-0.7-2.2-0.9-2.9-1.8c-1.7-2.1-3.4-4.2-4.5-6.6
		c-0.6-1.4-0.2-3.3-0.2-5c1.5,0.4,2.9,0.8,4.4,1.3c0.8,0.2,2,0.9,2.4,0.6c1.3-1.1,3.4-3.4,3.1-3.7c-3.5-4.9,0.1-10.3-1.3-15.2
		c-0.3-1.1-0.8-2.2-1.6-3c-0.2-0.2-2.3,0.5-2.4,1.1c-0.4,2.1-0.6,4.2-0.5,6.3C244.3,296.1,245.1,297.3,245.5,298.3z M230.4,128.6
		c0.1,0.1-0.5-0.9-1.1-1.7c-0.1-0.1-0.8,0-1,0.2c-1.8,2.1-3.5,4.2-5.2,6.3c-0.6,0.7-1.3,1.3-2,2c-0.4-1.2-0.9-2.4-1.3-3.6
		c-0.2-0.6-0.2-1.3-0.3-2c-0.7,0.2-1.6,0.2-1.9,0.6c-2.3,3.1-4.4,6.2-6.5,9.3c-1.4,2-2.5,4.2-4,6.1c-1.6,2-3.6,3.8-5.3,5.8
		c-0.4,0.6-0.2,1.7-0.2,2.6c0.7-0.2,1.8-0.2,2.2-0.7c2.9-3.2,5.6-6.5,8.4-9.8c0.8-1,1.8-1.8,2.7-2.7c1,1.2,2.4,2.3,2.8,3.6
		c0.3,1-0.7,2.3-1,3.6c-0.2,0.7-0.3,1.5-0.4,2.2c0,0.1,0.9,0.4,1.2,0.2c3.5-2.6,8-4.7,10.1-8.2C229.6,138.9,229.4,134,230.4,128.6z
		 M274.9,285.5c-1.3-2.2-2.3-4.2-3.6-6c-0.4-0.5-2-0.9-2.5-0.6c-3,2.3-6,2.2-9.3,0.7c-1.2-0.6-3-1.1-4.2-0.6
		c-2.9,1.2-4.4-0.3-5.8-2.3c-0.4-0.6-1.1-1-1.6-1.5c-0.5,0.8-1.2,1.6-1.3,2.5c-0.1,0.8,0.1,2,0.7,2.4c2.7,1.9,5.6,3.7,8.4,5.5
		c0.3,0.2,0.7,0.1,0.9,0.3c0.7,0.7,1.8,1.4,1.8,2.2c0.1,1.3-0.6,2.6-0.8,3.9c0,0.4,1,1.2,1,1.2c2.4-1.9,4.7-3.7,7-5.7
		c1.1-0.9,2-1.9,3-2.9c0.7,0.8,2.2,1.7,2.1,2.4c-0.2,1.3-1.1,2.6-2.1,3.5c-3.5,3.4-7.2,6.7-10.7,10.2c-0.8,0.8-1,2.2-1.2,3.3
		c0,0.2,1.3,1.1,1.5,0.9c4.5-3.1,10-5.1,12.4-10.8C271.6,291.1,273.3,288.4,274.9,285.5z M256.4,270c-0.5,0.3-1,0.6-1.5,0.9
		c0.7,0.9,1.3,2.2,2.2,2.4c0.7,0.2,2.1-0.7,2.7-1.4c2.4-3.4,0-6-1.6-8.8c-0.6-1-0.4-3.3,0.4-4.2c2.2-2.8,5.2-5.1,7.4-7.9
		c1.8-2.3,2.9-5,4.2-7.6c0.2-0.4-0.2-1.2-0.4-1.8c-0.5,0.2-1.3,0.2-1.6,0.5c-2.2,2.7-4.4,5.3-6.4,8.1c-1.3,1.9-1.8,5.2-5.2,2.4
		c-0.3-0.2-1.2,0.5-1.8,0.4c-1-0.1-2.9-0.1-3-0.6c-1-3.5-1.8-7.1-2.6-10.6c-0.1-0.6-0.2-1.2-0.3-1.9c-0.5,0.1-1.4,0.1-1.4,0.4
		c-0.9,3.2-2.9,6.7-2.3,9.7c0.6,3.4,3.5,6.3,5.4,9.5C252.5,263,254.4,266.5,256.4,270z M270.1,210.4c0,4.8-1.5,6-5.1,5.2
		c-1.4-0.3-3.1-1.1-4.2-0.5c-3.4,1.7-6.7,3.8-9.9,6.1c-2.6,1.8-4.4,1.6-5.9-1.3c-1-1.8-2.1-3.6-3.3-5.3c-0.3-0.5-1-0.7-1.6-1
		c-0.1,0.8-0.4,1.6-0.3,2.3c0.1,0.8,0.8,2,0.6,2.3c-2,2-2.5,4.1-1.3,6.6c0.3,0.7,0,2.3,0.2,2.3c1.6,0.3,3.5,1,4.7,0.4
		c3.1-1.4,6-3.5,9-5.2c1.8-1.1,3.6-2.5,5.6-3c3.5-0.8,7-0.9,10.6-1.2c0.3,0,0.7,0.3,0.9,0.2c1.4-0.7,4-1.5,4-2.2
		c0-3.7-0.7-7.4-1.3-11.1c-0.6-3.8-1.3-7.7-2.2-11.5c-0.3-1.2-1.4-2.2-2.1-3.2c-0.8,0.7-2.3,1.3-2.3,2c0,2.3,0.4,4.6,0.9,6.9
		C268.2,203.3,269.3,207.4,270.1,210.4z M292.2,218.5c-1.4,3.5-3.1,7.8-4.9,12c-0.4,0.8-1.3,1.5-2,2.2c-0.5-1.2-1.5-2.5-1.4-3.6
		c0.2-2.3,1.1-4.5,1.6-6.8c0.1-0.6-0.2-1.4-0.3-2.1c-0.7,0.3-1.7,0.3-2,0.8c-1.1,1.5-2.3,3-2.9,4.7c-0.5,1.2-0.8,3.1-0.2,4
		c1.5,2.2,1.3,3.7-0.7,5.1c-1.5,1.1-3.5,1.7-4.7,3c-0.7,0.8-0.5,2.6-0.5,3.9c0,0.1,1.4,0.7,1.8,0.4c2.6-1.6,5.1-3.5,7.7-5
		c1.6-0.9,3.6-2.4,5-2c4.1,1.1,5-1.4,5.4-4.1c0.8-5.4,1.3-10.9,1.6-16.4c0.1-0.9-0.8-2-1.5-2.9c-0.2-0.3-1.7,0-1.9,0.4
		c-0.5,1-0.8,2.1-1,3.2C291.2,216,291.6,216.8,292.2,218.5z M374,150.2c0.1,0.2,0.3,0.7,0.5,1.2c0.9-0.6,2.2-1.1,2.6-1.9
		c1-2.2,1.7-4.5,2.2-6.8c0.2-0.9-0.2-2.4-0.8-2.9c-1.8-1.4-4.1-2.2-5.9-3.6c-3.9-3.1-7.8-6.4-11.5-9.7c-2.4-2.2-4.4-4.8-6.9-7
		c-1.5-1.3-3.4-2.2-5.1-3.2c-0.9-0.5-2-1-2.8-0.8c-0.7,0.2-1.9,1.6-1.8,1.9c0.5,1,1.4,2,2.4,2.7c2.8,2,6.3,3.4,8.4,6
		c4.1,4.8,8.5,9.2,13.7,13C371.9,141.2,375.1,144.9,374,150.2z M278.7,179.4c0-0.2,0.1-0.4,0.1-0.7c0.3,0,0.7,0.1,1,0
		c1.9-1,3.7-2.1,5.5-3.2c0.2-0.1-0.1-1.2-0.1-1.2c-1.9,0-3.9,0.3-5.8,0.2c-2-0.2-4-0.6-5.9-1.2c-3-1-5.8-3.1-8.8-3.4
		c-4.6-0.5-7.8-2.8-10.8-5.8c-0.6-0.6-1.5-1-2.2-1.4c0,1.1-0.5,2.4-0.1,3.2c1.7,3.1,3.7,6,5.6,9c0.3,0.5,0.8,1,1.3,1.1
		C265.2,177.1,272,178.2,278.7,179.4z M309.9,150.9c-1.3-1.6-1.7-2.7-2.4-3c-1-0.4-2.2-0.3-3.3-0.3c-0.1,1.7-0.9,3.8-0.2,5.1
		c1.8,3.5,3.8,6.7,1.7,10.8c-0.2,0.5-0.1,1.4,0.3,1.9c1.7,2.6,0.3,3.8-1.8,5c-2.6,1.5-5.1,3-7.5,4.7c-0.5,0.4-0.6,1.9-0.3,2.6
		c0.3,0.6,1.7,1.4,2.2,1.1c4.7-2.6,9.3-5.3,13.8-8.4c0.6-0.4,0.4-2.7,0-4c-0.4-1.3-2.2-2.4-2.3-3.6
		C309.7,158.7,309.9,154.5,309.9,150.9z M295.4,192.9c0.2-0.1,0.4-0.1,0.5-0.2c-0.8-2.2-2.3-4.4-2.1-6.4c0.3-3.4-2.1-3.9-3.8-3.4
		c-2,0.6-4.8,2.6-4.9,4.2c-0.2,2.8,1.3,5.7,2.1,8.6c0.5,1.7,0.7,3.5,1.3,5.1c0.4,1.1,1.8,3,2.1,2.9c2.2-0.8,4.4-1.8,6.1-3.4
		c0.6-0.6-0.2-2.8-0.4-4.2C296.1,195,295.7,194,295.4,192.9z M249.2,191.9c0.4-0.2,0.8-0.4,1.1-0.6c-0.7-0.9-1.3-2.6-2-2.6
		c-2,0-4.4,0-5.8,1.1c-1.1,0.8-1.2,3.3-1.1,4.9c0,1.1,1,2.4,1.9,3.2c1.3,1.2,4.1,1.8,4.3,3.1c0.5,2.6-0.3,5.4-0.6,8.1
		c-0.1,1.1-0.8,2.9-0.4,3.2c1.5,0.9,3.2,1.5,4.9,1.7c0.7,0.1,1.6-1.1,2.4-1.8c0.1-0.1,0.1-0.5,0.1-0.8c-0.6-2.6-1.3-5.2-1.8-7.9
		c-0.3-1.8-0.2-3.7-0.7-5.5C250.9,196,249.9,194,249.2,191.9z M423.2,256.4c-0.3-0.7-0.8-1.7-1.2-2.7c-1.2-2.8-2.4-5-5.8-2.3
		c-0.8,0.6-2.3,0.7-3.4,0.6c-3.2-0.3-9.2,4.4-8.9,7.6c0.1,1.1,1.6,2.1,2.5,3.2c2.9-2.8,6.1-1.6,9.3-0.7
		C417.8,262.8,423.2,258.8,423.2,256.4z M207.8,175.4c0.7-2.3-1.5-3.3-3.9-2c-3.1,1.8-7,3.8-5.2,7.9c2.2,4.9,5.6,9.4,8.7,13.8
		c0.7,1,2.7,1,4.2,1.5c-0.3-1.3-0.5-2.5-0.9-3.8c-1-2.9-2.4-5.8-2.9-8.8C207.4,181.3,207.8,178.3,207.8,175.4z M342,123.7
		c-0.4,0.3-0.9,0.6-1,1c-0.1,0.6-0.1,1.4,0.2,1.9c1.4,2.1,2.6,4.5,4.6,6c4.7,3.6,9.8,6.7,14.8,9.9c0.1,0.1,1.6-1.5,1.5-1.6
		c-2-2.9-3.8-6-6.4-8.3c-2.8-2.6-6.1-4.6-9.3-6.8C345.1,124.9,343.5,124.5,342,123.7z M245,138.8c-0.2-0.4-0.6-0.9-0.9-1.5
		c-0.4,0.5-1,0.9-1.2,1.4c-0.9,2-1.3,4.2-2.6,5.9c-4.2,5.8-8.7,11.3-13.1,17c-0.4,0.5-0.1,1.4-0.2,2c0.6-0.1,1.2-0.3,1.8-0.4
		c1.2-0.2,2.5-0.3,3.6-0.6c1.1-0.3,2.3-0.6,3.1-1.4c0.5-0.4-0.1-1.8,0.1-2.6c0.5-2.2,0.6-5.5,2-6.2
		C243.1,149.5,243.6,144.2,245,138.8z M318.6,183.5c0.2-0.1,0.4-0.2,0.5-0.3c-0.4-0.5-0.7-1.4-1.2-1.5c-2.6-0.5-5.3,3-4.6,5.5
		c0.6,2.5,0.7,5.1,1.2,7.6c0.3,1.5,0.7,3.3,1.8,4.3c0.8,0.7,3.7,0.7,3.8,0.3c0.6-1.7,1-3.8,0.8-5.6
		C320.3,190.4,319.3,187,318.6,183.5z M177.3,324.8c1,1.2,1.8,2.3,2.8,3.2c0.9,0.8,2,1.2,3,1.9c2,1.5,1.8,5,6,4.8
		c2.6-0.1,5.3,2.5,8,3.8c0.6,0.3,1.4,0.3,2.1,0.4c-0.2-0.9-0.2-2.3-0.8-2.7c-2.9-2-6.2-3.4-8.9-5.6c-2.9-2.2-5.4-5-8.1-7.5
		c-0.7-0.7-1.4-1.4-2.1-2.1C178.6,322.3,178.1,323.4,177.3,324.8z M212.2,180.8c0.6,2,0.8,5.4,2.5,7.3c1.8,2,5,3.2,7.8,3.7
		c1.4,0.2,3.3-1.8,4.9-2.8c-0.9-0.6-1.9-1.8-2.7-1.7c-3.1,0.6-4.4-1.3-5.6-3.5c-1-1.9-2-3.7-3.1-5.6c-0.6-1-1.2-2-1.9-3
		c-0.6,1.2-1.2,2.4-1.8,3.6C212.4,179.2,212.4,179.6,212.2,180.8z M368.6,190.1c-0.8-5.4-1.5-10.1-2.4-14.8c-0.2-0.9-1.8-2.2-2.4-2
		c-1,0.3-2.5,1.5-2.6,2.5c-0.1,2,0.5,4.1,0.9,6.1c0.7,3.4,1.4,6.8,2.1,10.2c0.2,0.7,0.4,1.4,0.7,2.1c0.8-0.3,1.8-0.4,2.3-1
		C367.9,192.1,368.3,190.8,368.6,190.1z M279.5,190.5c0.4-0.2,0.8-0.4,1.2-0.6c-0.7-1-1.3-2.6-2.1-2.7c-1-0.2-2.9,0.7-3.2,1.5
		c-0.5,1.6-0.4,3.5-0.2,5.3c0.2,2,0.7,3.9,1.4,5.8c0.7,1.8,1.7,3.5,2.8,5.1c0.1,0.2,2.7-0.7,2.8-1.4c0.4-2,0.6-4.3,0.2-6.3
		C281.8,194.9,280.5,192.7,279.5,190.5z M218.8,272.3c1.2,1.8,1.7,2.8,2.5,3.5c0.3,0.2,1.6-0.1,1.9-0.6c0.5-0.9,1-2,0.9-3
		c-0.2-2.6-1.3-5.3-1-7.9c0.4-3.9,1.7-7.7,2.5-11.5c0.3-1.4,0-2.9,0-4.3c-1.1,1.2-2.1,2.5-3.1,3.8c-0.2,0.3-0.2,0.8-0.3,1.1
		C220.9,259.9,219.8,266.3,218.8,272.3z M259.2,207.7c-0.2,0.1-0.4,0.2-0.6,0.2c0.6,1,1,2.3,1.8,2.9c1.1,0.7,2.6,0.8,3.9,1.2
		c-0.1-1.3-0.1-2.6-0.4-3.9c-0.8-3.3-1.6-6.5-2.6-9.7c-0.9-2.8-2-5.6-3.1-8.4c-0.2-0.4-1-0.6-1.5-1c-0.3,0.6-0.9,1.2-0.8,1.7
		c0.2,2,0.6,3.9,1,5.8C257.6,200.3,258.4,204,259.2,207.7z M185.5,314.4c0.1,0.2,0.3,1.2,0.7,2.1c2.2,5.1,6.1,8.2,11.6,9
		c0.9,0.1,2-0.9,2.8-1.5c0.1-0.1-0.2-1.4-0.7-1.6c-3.8-1.7-7.8-3.2-9.6-7.5c-0.5-1.2-1.2-2.4-2-3.5c-0.8-1.1-1.8-2-2.8-3
		c0,1.3,0,2.6,0,3.9C185.5,312.7,185.5,313.2,185.5,314.4z M302.5,193.1c-0.1,1.3-0.3,1.8-0.2,2c1.3,1.8,2.6,3.6,3.9,5.4
		c0.6-1.8,1.5-3.5,1.6-5.3c0.1-2.2-0.4-4.5-0.9-6.8c-0.3-1.4-0.7-3.1-1.6-3.9c-0.9-0.7-3.7-0.6-3.7-0.4c-0.5,1.7-0.7,3.5-0.5,5.2
		C301.3,190.9,302.2,192.4,302.5,193.1z M362.9,447.8c-0.3-0.7-0.5-1.3-0.8-1.5c-0.2-0.1-0.8,0.2-1.2,0.4c-0.8,0.6-1.8,1.1-2.3,1.9
		c-2.5,3.2-4.9,6.5-7,9.9c-0.2,0.4,2,2.5,3.4,3.5c0.7,0.5,2.3,0.9,2.8,0.5c0.8-0.6,1.2-1.9,1.5-3.1c0.6-2.4,0.8-4.8,1.4-7.1
		C361.2,450.8,362.1,449.3,362.9,447.8z M189.5,293.8c0.5,1,0.7,1.8,1.1,1.9c0.4,0.1,1.3-0.2,1.6-0.6c1-1.5,1.8-3.1,2.8-4.6
		c2.5-3.6,3.9-7.3,1.6-11.6c-0.5-0.9-0.3-2.1-0.5-3.1c-0.2-0.8-0.5-1.5-0.7-2.2c-0.8,0.5-1.9,0.9-2.2,1.6c-0.4,0.8-0.1,1.9-0.1,2.9
		c0,2.7,0.6,5.5,0,8C192.4,288.9,190.7,291.4,189.5,293.8z M379.6,178.2c-0.9-1-2.2-2.6-3.4-4.1c-1.2,1.5-3.6,3.3-3.4,4.6
		c0.6,4.2,2.1,8.2,3.4,12.3c0.2,0.5,1.3,0.7,2,1c0.1-0.8,0.4-1.7,0.4-2.5c0-1.3-0.4-2.6-0.3-3.8C378.5,183.5,379,181.4,379.6,178.2z
		 M350.4,152.8c0.1,0.2,0.3,1.4,0.6,1.5c3.3,0.5,6.6,2.8,9.9,0.1c0.7-0.6,1.8-1.5,1.6-2c-0.3-1-1.1-2-2-2.7c-0.7-0.6-1.7-0.7-2.7-1
		c-2.1-0.6-4.3-1-6.4-1.6c-0.7-0.2-0.7-0.3-1,5C350.5,152.1,350.5,152.1,350.4,152.8z M399.7,144.3c0.1,0,0.2,0,0.2,0
		c-0.2-0.8-0.1-1.8-0.6-2.2c-2-1.7-4.1-3.4-6.3-4.7c-0.3-0.2-2.2,1.4-2.7,2.5c-0.5,1.1-0.6,2.9,0,3.7c1.3,1.7,3.2,3.1,5,4.3
		c1.3,0.9,2.8,1.3,4.2,1.9c0.1-1.4,0.2-2.7,0.2-4.1C399.9,145.3,399.8,144.8,399.7,144.3z M176.3,224c-0.6-1-0.8-1.8-1.4-2.2
		c-1.6-1.1-3.6-1.8-4.9-3.1c-1.7-1.8-2.8-4-4.2-6c-0.5-0.7-1.3-1.4-1.9-2c-0.5,1-1.2,2.1-1.4,3.2c-0.1,0.7,0.2,1.8,0.7,2.4
		c2.7,3.1,5.6,6.1,8.4,9.1c0.5,0.5,1.5,1.2,2,1C174.6,225.7,175.3,224.8,176.3,224z M423,243.4c-0.8-1.4-1.6-3.4-3-5
		c-0.2-0.3-2.6,1.2-3.9,1.8c-0.6,0.3-1.2,0.7-1.7,1c-2.4,1.4-4.8,2.7-7.1,4.2c-0.5,0.3-0.6,1.4-0.8,2.2c0.7-0.1,1.4,0,2-0.3
		c1.6-0.8,3-2.3,4.7-2.6c2.5-0.5,5.5-1.3,6.9,2.3c0.2,0.5,0.7,0.8,1.1,1.2c0.4-0.4,1-0.8,1.2-1.3C422.7,246,422.8,245.1,423,243.4z
		 M172.1,199.9c1.4,3.5,2.1,6.7,3.7,9.1c1.4,2.1,3.9,3.5,6,5.2c0.3,0.3,0.9,0.3,1.3,0.4c0.2-0.6,0.6-1.5,0.4-1.8
		c-1.2-1.4-2.4-3.1-4-3.9c-3.4-1.7-4.4-4.7-2.4-7.9c0.7-1.1,1-2.5,1.2-3.7c0.1-0.3-1-1.2-1-1.2C175.6,197.2,174,198.5,172.1,199.9z
		 M224.8,167.1c0.5-0.1,1-0.2,1.5-0.3c-0.4-0.8-0.8-1.7-1.4-2.5c-0.2-0.2-1.1-0.3-1.2-0.1c-1.3,2.2-3.6,4.6-3.4,6.7
		c0.3,3.5,2.3,6.8,3.7,10.2c0.2,0.4,0.9,0.6,1.3,0.9c0.3-0.6,1-1.3,0.9-1.8C225.8,175.8,225.3,171.5,224.8,167.1z M330.2,184.4
		c0.4-0.3,0.8-0.6,1.2-0.9c-1-0.9-2.1-2.6-3.1-2.6c-3.3,0-4.8,3.2-3.1,6c1,1.7,1.8,3.6,3,5.1c0.6,0.8,1.9,1,2.9,1.4
		c0.4-1.4,1.2-2.9,1-4.3C332,187.6,330.9,186,330.2,184.4z M231.2,174c0.1,0.4,0,0.9,0.2,1.3c1.8,3.3,4.3,5.9,8.1,6.7
		c1.3,0.3,2.6,0,3.9-0.1c-0.5-0.9-0.8-2-1.4-2.8c-2.3-2.5-4.8-5-7.2-7.4c-0.6-0.6-1.2-1.3-1.8-2c-0.5,0.9-1.1,1.9-1.6,2.8
		C231.3,173,231.3,173.5,231.2,174z M232.4,206.1c0.3-0.3,0.6-0.6,0.9-0.9c-1.5-0.9-3-2.1-4.6-2.6c-0.9-0.3-2.4,0.1-3.2,0.7
		c-0.5,0.4-0.4,2-0.1,2.8c1,2.1,2.2,4.1,3.5,6c0.4,0.6,2,1.3,2.1,1.2c0.9-1.1,1.9-2.3,2.2-3.6C233.4,208.6,232.7,207.3,232.4,206.1z
		 M206.4,307.1c0.7,1.2,1.3,2.3,2,3.3c0.4,0.6,0.9,1,1.4,1.5c0.4-0.6,1.2-1.3,1.2-1.8c-0.1-1.7-0.8-3.4-0.8-5.1
		c0.1-3.4,0.6-6.9,0.9-10.3c0-0.6-0.3-1.3-0.4-2c-0.4,0.5-0.8,0.9-1.3,1.4C205.4,297.9,209,303.1,206.4,307.1z M385.5,185.5
		c-0.3,0.1-0.6,0.3-0.9,0.4c0.9,1.1,1.8,2.2,2.8,3.2c0.3-0.6,0.9-1.1,0.9-1.7c0.6-4.7,1.1-9.4,1.6-14.1c0.1-0.6-0.2-1.2-0.3-1.8
		c-1.5,0.7-3.1,1.2-4.4,2.1c-0.7,0.5-1.2,1.8-1.1,2.7C384.4,179.4,385,182.4,385.5,185.5z M330.2,113.1c-0.6-0.6-0.9-1-1.3-1.2
		c-4.5-1.8-8.7-1.4-12.3,1.9c-0.8,0.7-0.7,2.3-1,3.5c1.1,0.1,2.3,0.5,3.4,0.2c3.2-0.8,5.2-4.9,9.4-3.2
		C328.6,114.5,329.3,113.7,330.2,113.1z M196.8,155.8c-1.3-0.4-3.1-1.4-3.4-1.1c-2.6,3.1-5.1,6.4-7.4,9.8c-0.2,0.3,0.4,1.3,0.6,1.9
		c0.6-0.2,1.4-0.2,1.8-0.6c2.5-2.5,5-5.1,7.5-7.7C196.1,157.7,196.2,157.1,196.8,155.8z M342.2,180.6c0.3-0.1,0.5-0.2,0.8-0.3
		c-0.7-1.3-1.4-2.6-2.1-3.9c-0.8,1.2-2.3,2.5-2.2,3.7c0.3,3.2,1.2,6.3,2.1,9.3c0.3,0.9,1.5,1.5,2.3,2.2c0.2-1.2,0.6-2.4,0.4-3.6
		C343.3,185.5,342.7,183.1,342.2,180.6z M347.2,180.5c0.8,1.2,1.7,2.3,2.5,3.5c1.9-1.6,4.2-3,5.4-5c0.4-0.7-1.7-4.4-2.5-4.3
		C349.5,174.7,347.1,176.4,347.2,180.5z M236.9,264.2c0.3-0.1,0.6-0.3,0.9-0.4c-1.1-2.3-2.2-4.6-3.4-6.9c-0.4-0.7-1.2-1.1-1.8-1.6
		c-0.1,1-0.6,2-0.4,2.9c1.1,4.3,2.2,8.5,3.6,12.7c0.4,1,2,1.7,3.1,2.4c0.2,0.2,1.1-0.2,1.1-0.3c-0.1-0.9-0.1-1.9-0.4-2.7
		C238.8,268.2,237.8,266.2,236.9,264.2z M215.6,218.6c-0.8-1.2-1.9-3.2-3.3-4.9c-0.5-0.6-1.9-0.5-2.9-0.7c-0.2,1.1-0.6,2.3-0.4,3.3
		c0.6,2.6,1.5,5.1,2.5,7.5c0.4,1.1,1.2,2,1.9,3.1c0.5-1,1.1-1.9,1.4-2.9C215.1,222.6,215.2,221,215.6,218.6z M242.4,169.1
		c1.7,3.4,3,6.8,7.1,7.9c0.6,0.2,1.3,0.1,2,0.2c-0.1-0.8,0-1.7-0.3-2.3c-1.4-2.3-2.9-4.6-4.5-6.8c-0.7-1-1.5-1.8-2.2-2.8
		C243.8,166.5,243.2,167.8,242.4,169.1z M239.9,130.4c-0.4-0.7-0.6-1.2-0.9-1.6c-0.4,0.2-0.8,0.4-1.1,0.7c-2.4,3.3-4.9,6.5-7.1,9.9
		c-0.5,0.7,0,2.1,0,3.1c1,0,2.8,0.3,3-0.2C236.1,138.4,238,134.4,239.9,130.4z M215,325.1c-2.6-2.6-5.1-5.4-7.8-7.8
		c-1.4-1.2-4-1.6-2.9,1.3c1,2.8,3.5,5.1,5.7,7.2c0.8,0.8,2.6,0.7,3.9,0.9C214.1,326.6,214.4,326,215,325.1z M192.9,258
		c0.3,0.4,0.7,1.2,0.8,1.2c1.4-0.6,2.9-1.1,4-2c0.5-0.4,0.9-2,0.5-2.4c-1.8-2.5-0.2-3.5,1.6-4.7c0.9-0.6,1.4-1.7,2.1-2.5
		c-1.5-0.3-3-1.1-4.4-0.9c-0.8,0.1-2.3,2.2-2.1,2.4c1.8,2.5,0.3,4-1.1,5.7C193.6,255.6,193.4,256.8,192.9,258z M300.4,119.4
		c-0.3,0.3-0.7,0.7-1,1c1.3,0.7,2.6,1.4,4,1.9c0.8,0.3,1.8,0.2,2.7,0.2c-0.2-1-0.4-2-0.7-2.9c-0.7-1.9-1.7-3.7-2.3-5.7
		c-0.3-0.7,0-1.6,0-2.4c-0.8,0.1-1.8,0-2.4,0.5c-0.7,0.6-1.3,1.6-1.2,2.4C299.5,116.1,300,117.8,300.4,119.4z M216.1,156.8
		c-1.7,2.3-3.5,4.8-5.4,7.3c0.6,0.2,1.2,0.7,1.8,0.7c0.9,0,1.8-0.4,2.8-0.6c0.8-0.2,1.9-0.1,2.2-0.5c1.2-1.7,2.1-3.6,3.1-5.4
		C219.5,157.9,218.4,157.5,216.1,156.8z M209.2,262.2c0.9,1.8,1.4,3,2.1,4.1c0.3,0.5,1.1,0.7,1.6,1.1c0.2-0.8,0.7-1.5,0.7-2.3
		c0-1.6-0.5-3.3-0.2-4.9c0.5-3,1.4-5.9,2-8.9c0.1-0.4-0.1-1-0.2-1.5c-0.3,0.2-0.8,0.3-0.9,0.5C212.6,254.3,210.9,258.3,209.2,262.2z
		 M323.3,155.4c-1.6-1.5-3-3.2-3.4-3c-1.9,1-4.1,2.2-5,3.9c-0.4,0.7,1.9,3,3,4.5C319.6,159.2,321.2,157.5,323.3,155.4z M386,145.1
		c-0.4-1-0.4-2.1-0.9-2.4c-0.5-0.3-1.7-0.1-2.2,0.4c-0.5,0.5-0.9,1.8-0.6,2.2c2.6,3.8,1.3,7.6,0.5,11.5c-0.2,0.9,0.1,1.9,0.1,2.9
		c0.5-0.1,1.2,0,1.4-0.3c0.6-0.9,1.4-2,1.5-3C386.1,152.6,386,148.7,386,145.1z M201,208.6c-0.9-1.1-1.3-1.9-2-2.3
		c-1.5-1-3.1-1.9-4.8-2.6c-0.6-0.3-1.8-0.2-2.3,0.3c-0.6,0.5-1.1,1.7-0.8,2.4c1.1,3.1,3.8,4.3,6.8,4.4
		C198.8,210.8,199.7,209.5,201,208.6z M368.6,161.2c1.4,1.5,2.3,2.4,3.1,3.3c1.2-1.9,2.8-3.7,3.6-5.8c0.3-0.8-1.4-2.3-2.1-3.5
		C371.8,157,370.4,158.9,368.6,161.2z M357.5,164.7c1.2-0.6,2.4-0.9,3.3-1.7c0.7-0.6,1.1-1.7,1.6-2.5c-0.7-0.3-1.5-0.8-2.2-0.8
		c-2.1,0-4.1,0.1-6.2,0.3c-0.7,0.1-1.5,0.3-2.2,0.4c0.2,0.7,0.1,1.9,0.5,2.1C354,163.5,355.8,164,357.5,164.7z M247.4,154.9
		c-1.2-1-1.6-1.4-2.1-1.8c-1.9,2.4-3.8,4.8-5.4,7.4c-0.1,0.2,1.5,1.6,2.3,2.4C243.9,160.3,245.5,157.7,247.4,154.9z M333.7,127.5
		c-1.9-1.6-3.8-3.4-5.8-5c-0.5-0.4-1.5,0-2.2,0c0.1,0.8-0.1,1.8,0.4,2.3c1.5,1.6,3.2,3,4.9,4.4c0.4,0.3,1.1,0.7,1.4,0.5
		C332.8,129.6,332.9,128.9,333.7,127.5z M195,170.7c0.3,0.7,0.9,1.9,1.5,3.1c0.1,0.2,1.1,0.1,1.2,0c0.5-1.3,1-2.7,1.1-4.1
		c0.1-0.7-0.7-1.4-1-2.1c-0.4-1.3-0.7-2.6-1-4c-0.2-0.6-0.4-1.2-0.6-1.8c-0.4,0.5-1.1,1.1-1.2,1.6C194.9,165.5,195,167.7,195,170.7z
		 M426.4,166.1c-1.6-1.3-2.6-2.3-2.6-2.2c-1.9,2-3.7,4.1-5.4,6.3c-0.1,0.1,0.6,0.9,1,1.3C421.6,169.8,423.7,168.2,426.4,166.1z
		 M377.4,130.1c1.9,2,3.2,3.4,4.6,4.8c0.9-0.8,2.6-2.2,2.5-2.5c-1.1-1.7-2.4-3.3-3.9-4.6C380.4,127.7,378.8,129,377.4,130.1z
		 M223.5,239.7c-0.6-0.8-0.9-1.6-1.5-2c-0.3-0.2-1.3,0.1-1.5,0.5c-1.4,2.5-2.6,5-3.9,7.6c-0.2,0.4,0,0.9,0,1.3
		c0.5-0.1,1.2,0,1.4-0.2C220,244.6,221.7,242.3,223.5,239.7z M272.1,227.4c-0.2-1-0.2-1.3-0.3-1.4c-1.1-0.4-2.9-1.4-3.3-0.9
		c-1.6,1.5-2.8,3.4-4,5.2c-0.2,0.3,0,0.9,0.1,1.3c0,0.1,0.4,0.3,0.5,0.2C267.5,230.4,269.9,228.8,272.1,227.4z M373.9,126.2
		c-2.8-2.2-4.5-3.6-6.4-4.8c-0.7-0.4-1.8-0.2-2.7-0.3c0.4,1,0.6,2.3,1.4,3c1.3,1.3,2.9,2.3,4.5,3.2
		C371.1,127.4,371.9,126.8,373.9,126.2z M207.3,225.1c0-0.3,0.1-0.7,0-0.9c-1-1.6-2.1-3.2-3.2-4.8c0,1.4,0,2.8,0,4.1
		c0,0.5-0.3,1.1-0.1,1.6c0.5,1.3,1.2,2.5,1.8,3.7c0.5-1,1-2,1.4-3C207.3,225.6,207.3,225.3,207.3,225.1z M412.3,153.2
		c-1.1-1.3-2.1-2.4-3-3.5c-0.7,0.8-2.2,1.8-2.1,2.3c0.5,1.8,1.6,3.4,2.5,5.1C410.5,156,411.2,154.9,412.3,153.2z M191,238.7
		c-1.1-1.4-2-2.5-2.9-3.7c-0.8,0.9-2.5,2-2.3,2.6c0.6,1.7,1.8,3.1,2.8,4.7C189.3,241.2,190,240.2,191,238.7z M333.1,158.2
		c-1.3-0.8-2.2-1.6-2.4-1.5c-1.6,1-3.2,2.2-4.7,3.4c1.1,0.6,2.5,1.9,3.3,1.6C330.6,161.3,331.5,159.8,333.1,158.2z M198.9,236.4
		c1.1,1.4,2.1,2.6,3,3.8c0.8-0.8,2.4-1.9,2.2-2.4c-0.6-1.7-1.8-3.2-2.8-4.8C200.6,234,199.9,235,198.9,236.4z M209.4,281.4
		c-1.2-1.3-2.2-2.3-3.3-3.3c-0.8,0.8-2.3,1.9-2.1,2.3c0.7,1.7,2,3.1,3,4.7C207.7,283.9,208.4,282.9,209.4,281.4z M196.5,191.7
		c-0.8,1.6-1.5,2.6-1.3,2.9c1.3,2.2,2.9,4.2,4.4,6.2c0,0,1.4-0.9,1.4-0.9C199.7,197.4,198.3,195,196.5,191.7z M284.6,209.7
		c-1.2,1.8-2.4,2.8-2.3,3.6c0.2,1.2,1.4,2.3,2.2,3.4c0.9-1,2.4-1.9,2.6-3C287.2,212.7,285.8,211.6,284.6,209.7z M190.8,202.1
		c-1-1-1.8-1.7-1.8-1.7c-1.5,1.2-2.9,2.4-4.2,3.8c-0.1,0.1,1.2,1.5,1.8,2.3C187.9,205.1,189.2,203.7,190.8,202.1z M269.8,131.3
		c-0.1,0.7-0.2,1.5-0.2,2.2c1.7,1.2,3.3,2.5,5.1,3.4c0.3,0.2,1.4-1.2,2.1-1.8c-1.6-1.5-3.2-3-5-4.3
		C271.5,130.5,270.5,131.1,269.8,131.3z M263.4,321.5c-0.6,1.1-1.2,2-1.2,2c1.7,1.3,3.5,2.6,5.4,3.8c0,0,1.1-1.5,1.1-1.5
		C267.1,324.4,265.4,323.1,263.4,321.5z M245.4,124.8c1.4,1.3,2.6,2.7,2.8,2.6c1.2-0.9,2.3-2,3.3-3.3c0.1-0.1-1.3-1.9-1.7-1.8
		C248.4,122.8,247.2,123.7,245.4,124.8z M224.2,230.5c0,0,0.7,0.7,0.8,0.7c0.9-0.7,2.4-1.9,2.3-2.2c-0.8-1.8-2-3.4-3.1-5.1
		C224.2,225.8,224.2,227.8,224.2,230.5z M345.7,143.8c0.3-0.6,0.6-1.2,1-1.8c-1.2-0.6-2.4-1.6-3.5-1.5c-0.8,0-2.3,1.5-2.3,2.3
		c0,0.9,1.2,2.2,2.2,2.5C343.6,145.5,344.8,144.4,345.7,143.8z M192.8,182c-0.3-0.6-0.8-1.6-1.5-2.5c-0.1-0.2-1.1-0.1-1.2,0.1
		c-0.2,1-0.4,2-0.5,3c0,0.5,0.1,1,0.3,1.6c0.2,0.8,0.4,1.7,0.6,2.5c0.6-0.8,1.2-1.6,1.7-2.4C192.5,183.8,192.5,183.1,192.8,182z
		 M180.1,265.8c1.2-1.5,2.3-2.4,2.6-3.5c0.1-0.5-1.3-1.4-2-2.2c-0.9,0.9-2,1.7-2.5,2.7C178,263.4,179.2,264.5,180.1,265.8z
		 M257.6,316.7c-0.5,1.2-1.1,2-1,2.3c1.1,1.6,2.3,3,3.5,4.5c0.4-0.5,1.3-1.3,1.2-1.5C260.4,320.4,259.2,318.8,257.6,316.7z
		 M202.4,310.6c-1.4-1.7-2.5-3-3.6-4.4c-0.4,0.5-1.2,1.3-1.1,1.5c0.8,1.5,1.9,2.9,2.8,4.3C201,311.6,201.5,311.2,202.4,310.6z
		 M242.5,243.5c-0.7-0.7-1.1-1.2-1.5-1.7c-0.8,0.9-2,1.7-2.4,2.8c-0.2,0.5,1,1.6,1.6,2.4C240.9,245.9,241.6,244.8,242.5,243.5z
		 M197.6,297.6c0.6,0.7,0.9,1.1,1.3,1.5c0.9-0.9,2.1-1.7,2.7-2.8c0.2-0.4-0.9-1.5-1.5-2.3C199.3,295.1,198.5,296.3,197.6,297.6z
		 M205.6,330.2c-0.4,0.7-1,1.4-0.9,1.6c0.6,0.9,1.4,1.7,2.1,2.5c0.8-0.7,1.5-1.5,2.3-2.2C208,331.5,207,330.9,205.6,330.2z
		 M317.6,282.4c-0.6-0.3-1.6-0.8-1.6-0.9c0.3-0.9,0.6-2,1.2-2.4c3.8-2.4,7.7-4.8,11.7-6.8c4.3-2.1,8.9-3.7,13.3-5.5
		c0.4-0.1,0.9,0.1,1.3,0.1c3.6,0.5,7,3.2,10.8,0.9c0.4-0.2,1.3,0.4,1.8,0.2c1.2-0.4,2.9-0.8,3.3-1.7c0.6-1.3,0.9-4,0.2-4.5
		c-4.1-2.8-8.8-1.4-13.2-1c-2.4,0.2-4.7,1-7,1.8c-4.9,1.8-9.8,3.4-14.4,5.7c-4,2-7.6,4.7-11.3,7.2c-1.2,0.9-2.1,2.3-2.9,3.6
		c-1.9,3.4-3.5,6.9-5.4,10.3c-1.3,2.2-0.7,3.8,1.4,4.2c2.2,0.4,4.6-0.2,6.9-0.3c2-0.1,4.2-0.7,6-0.1c4.1,1.2,8,3.4,12.2,4.2
		c3.7,0.7,8.1,1,11.5-0.3c5.3-2.2,9.9-5.9,14.9-8.9c5.2-3.2,6.1-6.7,2.6-11.8c-0.7-1.1-2-2.7-3-2.6c-2.8,0.3-5.6,1.1-8.3,2
		c-3.8,1.2-7.6,2.5-11.4,3.8c-0.1,0-0.3,0-0.4,0c-2.5,0.8-4.9,1.5-7.4,2.3c-0.7,0.2-1.3,0.8-2,0.7c-3.6-0.2-7.2-0.5-10.8-0.8
		C317.7,282.1,317.7,282.3,317.6,282.4z M301.1,268.5c1.4,0.4,3.3,1.6,4.2,1.1c7.1-4,14.1-7.7,22.5-8.3c4.3-0.3,8.6-1.8,12.8-2.7
		c5-1.1,9.9-2.5,15-2.9c2.6-0.2,6.3,0.4,8,2.1c3,2.9,6.1,1.2,8.7,0.9c1.8-0.3,3.6-3.6,4.5-5.9c1-2.6,0.9-5.6,1.6-8.4
		c0.9-3.2-0.7-7.8-3.8-8.8c-1-0.3-2.7,0.4-3.7,1.1c-0.8,0.7-1.2,2.1-1.4,3.2c-0.3,1.5,0.3,3.9-0.6,4.4c-1.3,0.9-3.4,0.8-5.2,0.9
		c-2.2,0.1-4.4-0.2-6.6-0.1c-2.3,0.1-4.5,0.4-6.8,0.8c-3.6,0.5-7.5,0.6-10.8,1.9c-6.3,2.5-12.4,5.7-18.5,8.6
		c-0.3,0.2-0.8,0.1-1.2,0.2c-4.1,1-8.4,1.5-12.1,3.3c-2.9,1.4-4.9,4.5-7.3,6.9C300.8,267.2,301,267.9,301.1,268.5z M415.8,341.4
		c-1.6-0.8-4.3-1.2-5.9-0.5c-4,2-7.3,5-12.5,3c-1.2-0.4-5.4-0.6-7.3,3c-1,2.1-4.3,4.2-6.6,4.2c-5,0.2-9,2.4-9.5,7.3
		c-0.2,2.3-0.1,4.8,0.6,7c0.4,1.5,1.9,2.7,2.9,4c1.1-1,2.4-1.9,3.3-3.1c1.7-2.2,2.7-5.1,4.7-6.8c3.1-2.6,6.9-4.3,10.4-6.4
		c0.4-0.3,1-0.3,1.5-0.4c1.6-0.2,3.3-0.5,4.9-0.7c1.3-0.1,2.6-0.1,3.9-0.1c-0.6,1.3-0.9,3.2-1.9,3.6c-1.9,0.8-4.6,0.1-6.1,1.3
		c-3.7,2.9-7.1,6.4-10.2,10c-0.5,0.6,0.3,2.9,1.1,4c0.5,0.7,2.4,1.2,3.3,0.8c3.6-1.7,7-3.9,10.6-5.6c1-0.4,2.5,0.2,3.7,0.4
		c1,0.2,2.8,0.8,2.9,0.6c1-2,2-4.1,2.3-6.3c0.4-2.7,0-5.5,0.5-8.1c0.2-1.1,2.3-2.9,2.9-2.7c4.5,1.8,2.8-2.2,4.4-4.1
		C418.4,344.4,417.4,342.3,415.8,341.4z M319.1,467.5c-1.5-1.6-2.8-3.6-4.5-5.1c-2.8-2.4-5.9-4.5-8.9-6.8c-3.9-2.9-7.7-5.9-11.7-8.7
		c-0.8-0.6-2.2-0.4-3-1.1c-4.6-3.6-9.2-7.3-13.7-10.9c-2.2-1.8-4.3-3.7-6.6-5.3c-4.2-3.1-8.6-5.9-12.8-9c-2.7-2-5.1-4.3-7.7-6.3
		c-0.4-0.3-1.3-0.3-1.9-0.1c-3.3,1.2-3.5,3.1-1,5.3c1.4,1.3,2.4,3,3.9,4.2c3.1,2.5,6.5,4.7,9.5,7.3c3.3,2.8,6.2,6,9.5,8.9
		c1.5,1.3,3.3,2.3,5,3.3c2.5,1.5,5.2,2.8,7.6,4.5c3.6,2.5,6.9,5.4,10.5,8c1.8,1.3,3.7,2.4,5.4,3.8c2.6,2.1,5,4.5,7.7,6.5
		c3.1,2.3,6.3,4.4,9.6,6.4c1.5,0.9,3.2,1.6,5,2c0.3,0.1,1.1-2,1.9-3.7C321.4,469.6,320.2,468.6,319.1,467.5z"/>
</g>
<g id="Coin_2_front">
</g>
<g id="Coin_1_back">
</g>
<g id="Coin_1_front">
</g>
</svg>
