<?xml version="1.0" encoding="utf-8"?>
<!-- Generator: Adobe Illustrator 22.1.0, SVG Export Plug-In . SVG Version: 6.00 Build 0)  -->
<svg version="1.1" xmlns="http://www.w3.org/2000/svg" xmlns:xlink="http://www.w3.org/1999/xlink" x="0px" y="0px"
	 viewBox="0 0 600 600" style="enable-background:new 0 0 600 600;" xml:space="preserve">
<style type="text/css">
	.st0{fill:#4A2D37;}
	.st1{fill:#E8D7D7;}
</style>
<g id="Coin_2_back">
</g>
<g id="Coin_2_front">
	<path id="minotaur_head_3_" class="st1" d="M275.2,491.1c1.1-0.6,2.2-1,3.3-1.6c4.2-2.4,8.3-5.1,12.6-7.2c2.1-1,4.8-0.8,7.2-1.4
		c2.4-0.6,4.7-1.3,6.9-2.2c0.4-0.2,0.7-1.6,0.4-2.2c-0.3-0.7-1.3-1.3-2.1-1.4c-0.5,0-1.5,1-1.6,1.6c-0.1,1.5-0.7,1.7-1.9,1.4
		c-2.6-0.6-5.3-1.3-7.9-1.8c-3.3-0.7-6.6-1.3-9.9-1.9c-0.5-0.1-1.3-0.2-1.5,0c-1.3,1.9-3.1,1.2-4.9,1.3c-1.9,0.1-3.8,1.1-5.6,2
		c-2.3,1.2-4.4,2.7-6.6,4.1c-2.4,1.5-4.7,3.1-7.1,4.5c-1.9,1.1-3.8,2.3-5.8,3.2c-1.5,0.7-2.8,0.7-3.5-1.3c-0.2-0.5-1.3-1.1-1.7-1
		c-6.4,0.5-7.3,0.4-9.7-1.1c-0.2-0.2-0.3-0.4-0.5-0.5c0,0-6.6,0.6-11.3,0.8c-1.6-0.3-3.1-0.5-4.7-0.8c-0.5-0.1-1.2-0.5-1.2-0.8
		c0.1-0.5,0.5-1,0.8-1.5c0.1-0.1,0.3-0.1,0.4-0.2c3.2-0.3,6.5-0.4,9.7-0.8c2.6-0.3,5.1-0.9,7.6-1.7c4.1-1.3,8.1-2.9,10.8-6.5
		c0.3-0.5,0.3-1.2,0.5-1.8c-0.6-0.1-1.3-0.3-1.9-0.2c-1.1,0.3-2.2,0.8-3.2,1.3c-2.9,1.4-5.9,1.8-9.1,0.9c-0.7-0.2-1.7,0-2.4,0.3
		c-2.9,1.2-5.6,3-8.6,3.7c-3.1,0.7-6.5,0.5-9.7,0.4c-1.8-0.1-3.6-1.1-5.4-1.4c-0.7-0.1-2,0.3-2.1,0.7c-0.7,2.6-2.7,3.4-5,4.3
		c-6.9,2.8-14.7,3.7-9.9,0.7c4.7-0.8,8.6-3.2,12.5-5.6c0.4-0.2,0.8-1,0.6-1.3c-0.3-0.6-0.9-1.4-1.5-1.5c-3-0.3-5.9-0.9-9.1-0.2
		c-3.8,0.9-7.7,0.4-11-2.3c-0.9-0.8-2.5-1.1-3.8-1.1c-2.6-0.1-6-1.7-6.9-4c3.1-0.2,5.7,0.7,8.4,1.9c2.5,1.1,5,2.5,7.7,3.1
		c2.2,0.5,4.7-0.2,7-0.3c1.1,0,2.3,0.1,3.4,0c0.7-0.1,1.3-0.5,2-0.8c-0.3-0.5-0.7-0.9-0.9-1.4c-0.9-1.9-1.7-3.9-2.5-5.9
		c-0.1-0.3,0.5-0.8,0.7-1.2c0.5,0.4,1.2,0.6,1.6,1.1c1.1,1.4,2,3,3.1,4.4c0.4,0.5,1.4,0.8,1.9,0.7c3.5-1.3,6.5,0,9.5,1.5
		c1.7,0.9,3.1,2.4,4.8,3.3c1,0.6,2.3,0.9,3.4,0.8c1.5-0.2,2.9-0.9,4.4-1.5c0.5-0.2,0.8-0.8,1.3-1.2c-0.4-0.4-0.9-0.8-1.3-1
		c-0.9-0.6-2-0.9-2.7-1.7c-0.5-0.4-0.5-1.4-0.8-2.1c0.8-0.3,1.7-0.9,2.3-0.7c1.9,0.7,3.6,1.7,5.4,2.5c0.6,0.3,1.3,0.3,1.9,0.4
		c0-0.6-0.1-1.2-0.1-1.8c0-0.6-0.2-1.5,0-1.6c0.7-0.4,1.8-0.9,2.3-0.6c1.1,0.6,1.9,1.6,2.8,2.5c0.4,0.4,0.9,0.6,1.4,1
		c0.2-0.5,0.5-1,0.7-1.5c0.2-0.8,0.2-1.6,0.4-2.3c0.4-0.1,0.6-0.2,0.7-0.1c2.2,1.6,4.3,0.9,6.8,0.2c2.8-0.8,5.8-0.6,8.8-0.9
		c0.9-0.1,1.8-0.6,2.6-0.9c-0.6-0.8-1.1-1.6-1.7-2.3c-0.8-0.8-1.8-1.4-2.5-2.2c-1.3-1.6-2.3-1.4-4-0.4c-1.2,0.7-2.9,0.5-4.3,0.4
		c-4.1-0.2-8.2-0.7-12.2-0.9c-1.9-0.1-3.8,0-5.7,0c-0.4,0-0.9,0-1.1,0.3c-2,2.8-5.3,2.2-7.9,2.7c-3.2,0.6-6.7,0-9.7-2.1
		c-2.8-1.9-5.7-3.9-8.9-5.2c-0.2-5.8,10.8,4,16.9,4.3c1.4,0.1,2.8,0,4.3,0c0.4,0,0.7-0.5,1-0.7c-0.1-0.3-0.1-0.5-0.2-0.6
		c-4.7-1.5-7.4-5.3-10.4-8.9c-0.1-0.2-0.4-0.3-0.5-0.5c-2.6-5.1-6.1-5.3-10.7-8l-2.9-3.1c-1.1-1.9-2.4-3.7-3.4-5.6
		c-1-2-1.5-4.2-0.1-6.8c0.6,0.8,1.5,1.4,1.4,1.9c-0.3,4.1,2.5,6.7,4.4,9.8c2.5,3.8,6.3,5,10.4,5.8c0.7,0.1,1.6,0,2.3-0.3
		c0.5-0.2,0.9-0.8,1.4-1.2c-0.4-0.4-0.8-0.8-1.3-1.1c-1.9-0.9-3.9-1.8-5.2-2.4c-1.6-3.5-2.9-6.7-4.5-9.6c-0.4-0.8-1.9-1-3.2-1.6
		c0.2-0.4,0.5-1.4,0.8-1.4c2,0,2.4-1.3,2.6-2.9c0-0.2,0.3-0.4,1.2-0.7c0.3,1.8,0.6,3.6,0.9,5.4c0.1,0.4-0.2,0.8-0.1,1.1
		c0.2,1.3,6.5,4,7.6,3.1c0.3-0.2,0.5-0.6,0.6-0.9c0.5-2.4-1.9-7.3-3.9-8.8c-1.2-0.9-2.1-2.3-3-3.6c-0.2-0.3,0.1-1.1,0.2-1.6
		c0.5,0.2,1.2,0.3,1.5,0.6c2.2,2.5,4.2,5.2,6.7,7.4c1.2,1.1,3.5,2.2,4.8,1.8c2.8-0.8,3.5,1,4.7,2.5c1.2,1.5,2.2,3.2,3.5,4.5
		c0.6,0.6,1.9,0.7,3.4,1.2c-0.4-1.1-0.4-1.7-0.6-1.8c-2.7-0.8-3.5-3.5-5.4-5.1c-0.3-0.2-0.3-0.7-0.5-0.9c-0.7-1-1.5-1.9-2.4-2.6
		c-0.6-1.2-1.3-2.5-1.9-3.7c-0.8-1.6-1.7-3.3-2.3-5c-0.6-1.7-1.3-2.6-3.2-1.6c-0.7,0.4-1.6,0.4-3.1,0.8c0.6-1.5,1-2.5,1.4-3.4
		c0.3-0.8,0.9-1.5,1-2.3c0.3-2-1.2-3-2.9-1.9c-3.9,2.5-7.7,5.3-11.6,7.9c-4.2,2.8-8,6.3-12.9,8c-2.6,0.9-5.3,1.6-8.1,1.8
		c-1.1,0.1-2.6-0.9-3.3-1.9c-1.7-2.4-1.6-5.2-0.8-8c0.1-0.5,1-0.8,1.5-1.1c0.3,0.5,0.8,1,1,1.5c0.2,0.5-0.1,1.1,0,1.6
		c0.2,0.9,0.5,1.8,0.7,2.8c0.7-0.5,1.4-1,2.1-1.3c0.6-0.2,1.3-0.2,1.9-0.1c1.3,0.2,2-0.5,1.6-1.5c-1.8-4.2,1.5-7,2.7-10.3
		c0.8-2.3,2.7-4.2,4-6.3c0.4-0.7,0.9-1.8,0.7-2.5c-1.6-5.5,1-9.7,3.8-13.9c0.5-0.7,1-1.7,0.8-2.4c-0.2-0.5-1.4-0.8-2.2-1
		c-3.5-1.1-5.3,1.5-7.4,3.5c-1.1,1-2.3,1.9-3.5,2.9c-0.2,0.1-0.4,0.2-0.6,0.4c-2,2.3-4.1,4.5-7.6,2.7c-0.2-0.1-1.1,0.8-1.3,1.4
		c-0.5,0.9-0.6,2-1,3c-0.7,1.9-1.7,2.6-4.1,2.5c-1.7,0-3.5,2.3-5.2,3.6c-0.3,0.3-0.3,0.9-0.6,1.2c-0.4,0.4-0.9,0.6-1.4,0.8
		c-0.1-0.5-0.3-1-0.4-1.6c0-0.6,0.1-1.3,0.1-1.9c-0.7,0-1.5-0.1-2.1,0.1c-1.7,0.5-3.3,1.2-5,1.8c-2.3,0.8-4.7,1.6-5.8,4.1
		c-0.2,0.4-0.9,0.5-1.4,0.8c0-0.5-0.3-1.2-0.1-1.6c1.9-4.7,4.8-8.7,9.4-11.2c1-0.6,2-1.4,3.5-0.2c0.5,0.4,3.1-1.1,4.2-2.2
		c2.8-2.6,5.4-5.5,8.1-8.3c0.1-0.1,0.4-0.1,0.9-0.2c0,0.8-0.1,1.5,0,2.2c0.1,0.6,0.6,1.2,0.9,1.8c0.5-0.3,1.3-0.5,1.5-1
		c0.6-1.2,1.2-2.5,1.4-3.8c0.5-3.9,4.3-8.8,7.7-9.6c0.7-0.2,1.5,0.2,2.2,0.4c-0.5,0.6-0.9,1.2-1.4,1.7c-1,1.3-2.1,2.5-3.1,3.9
		c-0.2,0.3,0.1,0.9,0.1,1.4c0.5-0.2,1.2-0.2,1.5-0.6c1.8-1.9,3.5-3.9,5.2-6c1-1.2,1.9-1.1,3-0.1c-0.3,0.9-0.6,1.8-1.1,3.2
		c2-0.9,3.7-1.7,5.4-2.4c0.7-0.3,1.5-0.6,2.2-0.7c0.6,0,1.2,0.4,1.7,0.5c-0.2,0.5-0.4,1-0.7,1.5c-0.4,0.6-0.9,1.2-1.3,1.9
		c0.9,0.1,1.9,0.4,2.7,0.2c3.6-1,5.8-3.9,8.2-6.5c2.5-2.7,5.1-5.2,7.6-7.9c0.8-0.9,1.3-2.1,2.2-2.9c0.7-0.6,1.8-0.8,2.8-1.2
		c0.3,1,0.9,2,0.8,2.9c-0.2,2.2-0.6,4.3-1,6.6c-1.6-0.5-2.7,0.6-3.5,2.5c-0.2,0.5-0.5,1-1,1.3c-2.4,1.4-4.7,2.7-7.2,3.9
		c-3,1.6-6.3,2.8-9.1,4.6c-0.9,0.6-0.8,2.7-1.3,4.1c-0.4,1.2-1.2,2.4-1.6,3.7c-1,2.7-3.2,5.1-1.5,8.3c0.3,0.6,0.5,1.3,0.7,2
		c0.8,1.9,0.3,3-1.8,3.2c-2,0.2-2.2,1.3-1.7,2.9c0.7,2.3,0.4,4.3-1.1,6.2c-0.2,0-0.5,0-0.7,0c0.1-0.9,0.3-1.8,0.2-2.7
		c0-0.8-0.4-1.6-0.6-2.4c-0.8,0.5-1.9,0.8-2.2,1.5c-0.8,1.7-1.5,3.5-1.8,5.4c-0.3,1.8-0.2,3.8-0.2,5.6c0,0.2,1.2,0.7,1.6,0.5
		c3.4-2,7.2-3.5,9.4-7.1c1.8-2.9,3.6-5.7,5.5-8.4c0.4-0.6,1.1-1.1,1.8-1.3c3.9-1.6,5.5-4.5,6.2-8.6c0.8-4.6,2.3-9,3.6-13.4
		c0.2-0.5,1.1-1.2,1.7-1.2c2.4,0.2,3.5-1.2,2.9-3.7c-0.2-0.9,0-2,0.4-3.1c1.2,1.2,1.1,3.8,3.6,2.6c1.4-0.7,2.4-2,3.9-3.2
		c0,0.4,0.2,1,0,1.4c-1.5,3.8-1.8,7.7-1.7,11.8c0.1,2.8-1.2,5.7-1.3,8.5c-0.1,1.7,0.4,3.7,1.3,5.1c2.2,3.4,2.9,7.2,3.5,11
		c0.1,0.7,0.2,1.5,0.3,2.2c0.3,2,0.3,4.1,0.8,6c1,3.6,1.4,7.5,4.1,10.6c0.6,0.7,0.9,1.6,1.4,2.4c0.3,0.6,0.5,1.4,1,1.7
		c0.7,0.5,1.6,0.6,2.5,0.8c-0.1-0.8,0-1.6-0.3-2.3c-1.2-2.3-2.8-4.4-3.6-6.8c-1.2-3.9-1.9-8-2.8-12.1c-0.2-0.9-0.6-1.7-0.9-2.7
		c1.7-0.3,2.8,0.4,3.2,2.1c0.8,3.5,1.5,7.1,2.4,10.5c0.3,1.3,1.3,2.4,1.9,3.6c0.6,1.2,1.3,2.4,1.8,3.7c0.9,2.3,1,4.8,3.3,6.4
		c0.5,0.3,0.8,1.6,0.6,2.1c-1.4,2.8,0.5,4.9,1.6,7c1.1,2.1,3,3.8,4.1,6c1.3,2.5,3.7,3.1,5.7,4.4c0.3,0.2,1-0.1,1.5-0.1
		c-0.1-0.6,0.1-1.4-0.2-1.7c-3.3-3.3-5.2-7.4-6.7-11.8c-0.9-2.6-2.6-5-3.8-7.5c-0.3-0.7-0.3-1.6-0.4-2.4c0.2-0.2,0.5-0.3,0.7-0.5
		c0.7,0.7,1.7,1.3,2.1,2.1c0.6,1.4,1.2,2,2.8,1.6c0.5-0.2,1.5,0,1.8,0.4c1.2,1.4,2.1,3.2,3.4,4.5c1.3,1.5,2.8,2.9,4.5,4
		c1,0.7,2.3,0.3,2.1-1.3c-0.2-1.5-0.7-3-1.1-4.5c-0.2-0.8-0.7-1.6-0.8-2.4c-0.1-0.6,0.2-1.4,0.6-1.8c0.2-0.2,1.2,0.1,1.5,0.4
		c0.7,0.7,1.4,1.4,1.8,2.3c0.7,1.8,1.1,3.7,1.8,5.5c0.3,0.9,0.9,1.7,1.4,2.5c0.3-0.1,0.7-0.3,1-0.4c-0.3-1.1-0.6-2.2-0.8-3.3
		c-0.1-0.7,0.2-1.5,0.2-2.2c0.6,0.4,1.3,0.8,1.8,1.4c0.9,1.2,1.6,2.6,2.7,3.7c0.3,0.3,1.4,0.4,1.9,0.1c1.5-0.8,2.7-1.2,4,0.4
		c0.6,0.8,1.9,1,2.6,1.8c0.6,0.7,0.8,1.7,1.2,2.6c-0.9,0.3-1.8,0.8-2.7,0.9c-1.2,0.1-2.4-0.1-3.9-0.3c1.5,4.2,5.9,7.2,10.3,7.4
		c0.5,0,1-0.1,1.4,0c2.1,0.9,2.7-0.5,2.8-2.1c0.1-1.9,0.7-2.1,2.4-1.9c2.6,0.4,4.7,1.2,6.8,3.2c2.4,2.2,5.8,3.4,8.9,4.6
		c2.1,0.8,4.4,1.1,6.7,1.6c0.4,0.1,1-0.1,1.4-0.2c-0.2-0.4-0.3-0.9-0.6-1.3c-1.9-2.3-3.8-4.6-5.6-7c-0.3-0.4,0-1.1,0-1.7
		c0.5,0.1,1.1-0.1,1.4,0.2c1.9,1.7,4.3,3,5,5.8c0.1,0.6,1,0.9,1.5,1.4c0.1-0.6,0.1-1.3,0.1-1.9c0-0.4-0.1-0.7,0.3-1.6
		c0.7,0.5,1.6,0.8,1.9,1.5c1.4,2.5,3.6,4.1,6.2,5.2c0.3,0.1,0.8,0.4,1.1,0.3c1.7-0.6,2.7,0,3.5,1.5c0.3,0.5,1.1,0.8,1.7,0.9
		c1.7,0.4,3.4,0.7,5.1,0.8c0.7,0,1.4-0.7,2.1-1.2c-0.6-0.5-1.1-1.2-1.8-1.6c-0.4-0.3-1.1,0-1.5-0.3c-0.7-0.5-1.3-1.3-1.9-1.9
		c1-0.4,2.2-1.2,3-1c2,0.6,3.8,1.9,5.8,2.7c2.1,0.8,4.3,1.6,6.5,2c0.5,0.1,1.3-1.5,2-2.3c-0.7-0.2-1.4-0.4-2.1-0.5
		c-0.3,0-0.6,0.2-0.9,0.1c-0.5-0.2-1-0.5-1.5-0.8c0.4-0.4,0.7-0.9,1.2-1.1c1.3-0.4,2.7-0.5,4.3-1.4c-1-0.4-2-1.1-2.9-1
		c-3.1,0.4-5.5-1.3-7.5-3c-2.5-2.1-4.5-4.8-6.5-7.4c-0.5-0.7-0.4-1.9-0.5-2.9c0.8,0.2,1.9,0.3,2.5,0.8c0.7,0.6,1.3,1.5,1.7,2.4
		c1,2.7,3.2,3.9,5.8,4.5c0.3,0.1,0.9-0.1,1-0.3c0.1-0.4,0-0.9-0.2-1.2c-1.3-1.8-2.7-3.6-4-5.4c-0.2-0.3-0.2-1.1,0-1.2
		c0.3-0.3,1.2-0.5,1.4-0.3c2.1,2.1,4.1,3.2,7.1,1.4c0.8-0.5,2.4,0.3,3.7,0.5c0.4,0.6,0.9,1.6,1.3,1.6c1.5,0,2.2,0.9,3.1,1.9
		c1.4,1.8,3,1.4,4.1-0.8c-1.6-0.6-3.4-0.8-4.6-1.8c-1.3-1.2-2.4-1.4-3.9-0.9c-0.3-0.9-0.6-1.8-0.9-2.8c3.6-2.5,9-1.6,11.5,1.9
		c0.7,1,1.7,1.8,2.8,2.9c-1,0.2-1.8,0.3-3.1,0.6c0.8,1,1.5,1.7,2.1,2.6c0.6,0.9,1,1.8,1.5,2.7c-0.7,0.3-1.4,0.7-2.1,1.1
		c-0.4,0.2-0.9,0.5-0.9,0.8c-0.1,1.6-0.2,3.1-0.1,4.7c0,0.3,0.9,0.8,1.2,0.8c0.7-0.2,1.5-0.6,1.9-1.1c0.6-0.8,1-1.8,1.4-2.7
		c1,1.7,2.1,3,2.7,4.5c1.6,4.1,4.4,6.9,8.6,8.2c2.7,0.9,5.4,1.6,8.1,2.4c0.5,0.2,0.9,0.8,1.5,1c1,0.3,2,0.7,3,0.6
		c0.4,0,1.1-1.7,1-1.7c-1.9-1.4-2.1-4.2-4.7-5.1c-1.6-0.5-2.9-1.9-4.1-3.2c-1.2-1.2-0.7-2.9,0.6-3.5c1.4-0.7,3.5-1.3,4.8-0.8
		c6,2.6,11.9,5.6,17.8,8.5c-0.1,0.2-0.2,0.4-0.2,0.6c-0.7-0.1-1.5-0.3-2.1-0.2c-0.8,0.2-1.4,0.7-2.2,1.1c0.8,0.8,1.8,2.3,2.4,2.2
		c1.8-0.4,4.3,0.4,5-2.5c0.1-0.3,1.5-0.5,2.2-0.4c1.2,0.1,2.4,0.5,3.6,0.6c3.3,0.2,5.5-2.4,4.7-5.5c-0.4-1.5-1.3-2.9-3.3-2.3
		c-0.3,0.1-0.6,0.1-0.9,0.2c-7.4,3.3-12.2-1.4-17.1-5.5c-3.1-2.6-6.4-4.4-10.3-5.1c-2.1-0.4-4.3-0.7-6.4-0.8c-0.7,0-1.7,0.7-2,1.3
		c-0.8,2-1.9,1.7-3.2,0.7c-1.9-1.4-3.8-2.7-5.6-4.2c-1.1-1-1.9-2.1-0.1-3.6c1.1-0.9,0.9-3.2,2.9-3.3c2.4-0.2,4.8-0.4,7.3-0.6
		c0.8-0.1,1.9,0.1,2.4-0.3c3-2.6,6.4-2.2,9.8-1.5c1.4,0.3,2.9,1.2,4,2.2c1.6,1.5,2.9,3.3,4.3,5c0.2,0.3,0.6,0.6,0.9,0.6
		c3.5,0.8,7,1.7,10.5,2.3c0.7,0.1,1.9-0.4,2.4-1c1.6-2.1,3.7-2.2,6-2.1c0.4,0,0.8,0.2,1.1,0.1c0.9-0.3,1.7-0.8,2.6-1.2
		c-0.5-0.7-0.8-1.4-1.4-2c-0.6-0.6-1.3-1-2.4-1.8c1.1-0.4,1.9-0.5,2.5-1c0.7-0.6,1.2-1.5,1.7-2.2c-0.9-0.3-1.8-0.8-2.7-0.8
		c-2.6,0.2-5.1,0.7-7.7,0.8c-2.6,0.1-4.7-1.5-6.4-4.6c2.4,0.3,4.3,0.5,6.3,0.8c2.2,0.3,4.4,0.7,6.7,0.9c1.9,0.2,3.8,0.1,5.7,0.2
		c0.8,0,1.5,0.2,2.2,0.1c1.2-0.3,1.9-0.1,2.7,1c0.5,0.7,1.8,1.4,2.6,1.3c2.5-0.4,5.1-0.8,6.5-3.6c0.8-1.6,2.6-2.9,4.2-3.8
		c2.5-1.5,3.1-4,4-6.3c0.6-1.3-0.8-1.3-1.8-1.2c-1.2,0.2-2.5,0.6-2.8-1.5c0.6,0,1.2,0.2,1.7,0.1c1.3-0.4,1.9-1.1,0.9-2.4
		c-1.5-2.1-2.8-4.4-5.7-5c-0.5-0.1-0.8-0.8-1.2-1.2c0.6-0.2,1.1-0.7,1.7-0.7c3,0,6,0.3,9.1,0.2c0.5,0,1-1.4,1.3-2.3
		c2.2-1.4,2.7-3.8,3.4-6.1c0.3-1.1,1.1-2.1,1.4-3.2c0.3-0.8,0.2-1.8,0.3-2.7c0.1-1.2-0.3-2.8,0.3-3.6c1-1.2,4.8-0.7,5.9,0.2
		c1.5,1.3,3,2.5,4.4,3.8c0.3,0.3,0.2,1.1,0.3,1.7c-0.9,0-1.9,0.4-2.7,0.1c-0.9-0.4-1.5-1.6-2.4-2.1c-0.8-0.4-1.8-0.4-2.8-0.6
		c0.3,1,0.3,2.2,0.9,3c0.7,0.9,2,1.4,3,2.1c-0.1,0.3-0.3,0.6-0.4,0.9c-1.1-0.3-2.3-0.7-3.4-1c-0.6-0.2-1.2-0.2-1.8-0.3
		c0.3,0.6,0.6,1.2,1,1.8c0.3,0.4,0.7,0.7,0.9,1.7c-0.7,0-1.4-0.1-2.1-0.1c-0.5,0-1,0.3-1.4,0.4c0.3,0.4,0.5,1.1,1,1.3
		c1.3,0.7,2.7,1.2,3.9-0.3c0.3-0.4,1.1-0.3,1.7-0.4c1.7-0.3,3.1-0.9,4.1-2.5c0.7-1.2,2.3-1.9,3.6-2.6c2.8-1.3,4-3.3,3.7-6.7
		c-0.2-0.1-0.4-0.3-0.6-0.2c-3.4,1.3-5.6-0.5-7.3-3c-1.7-2.5-2.9-5.1-2-8.2c0.4-1.5,0.6-3,1.2-4.4c0.6-1.3,0.2-2.1-1-2.5
		c-2-0.7-2.5-1.9-1.5-3.7c0.9-1.7-0.1-2.8-1.6-3.1c-0.8-0.2-1.7,0.5-2.6,0.8c0,0.3,0,0.6,0,0.9c-0.7-0.4-1.4-0.7-2-1.2
		c-1.6-1.2-2.9-1.1-4.2,0.5c-0.3,0.4-0.7,0.8-1.1,1.2c-2.5,2.7-4.3,2.7-7.6,0.6c-1.9-1.3-4.3-1.9-6.3-3c-1-0.5-1.7-1.4-2.4-2.4
		c2.3,0.2,4.6-0.1,5.8,2.3c0.3,0.5,1.3,0.6,2.2,0.9c-0.6-4.7-3.9-6.1-7.3-6.8c-2.2-0.4-2.5-1.5-2.8-3.1c-0.2-1.1-0.1-2.9-0.8-3.3
		c-1.4-0.7-3.4-1.3-4.8-0.9c-4.4,1.5-7.3-1.3-10.7-2.8c0-0.2,0.1-0.5,0.1-0.7c2.2,0.2,4.4,0.4,6.4,0.6c-1.1-1.7-1.9-3.2-2.8-4.5
		c-0.3-0.5-0.8-1.1-1.3-1.2c-2-0.4-4-0.7-6-0.8c-0.2,0-0.9,1.1-0.8,1.5c0.4,1.2,1.2,2.3,1.7,3.5c0.3,0.8,0.4,1.7,0.6,2.6
		c0,0.2-0.1,0.6,0,0.7c1.5,1.4,3,3,4.7,4.2c0.9,0.6,1.5,0.8,0.8,2c-1.6,2.8-2.6,3.1-5.5,1.5c-2.1-1.1-4.3-2-6.3-3.1
		c-0.5-0.3-0.8-1.1-1.1-1.6c0.6,0,1.3-0.2,1.8,0c1,0.3,2,0.9,3,1.2c0.6,0.2,1.2,0,1.9-0.1c-0.2-0.6-0.3-1.5-0.7-1.8
		c-1.6-1-3.3-1.9-5-2.8c-2.3-1.2-4.5-2.4-6.8-3.6c0.1-0.3,0.2-0.6,0.3-0.9c2.5,0.5,4.9,0.9,7.4,1.4c0.8,0.1,1.5,0,2.3,0
		c-0.4-0.7-0.6-1.5-1.1-2c-2.1-1.8-4.2-3.6-6.4-5.1c-0.9-0.6-2.2-0.5-3.5-0.7c0.9-0.6,2-1,2.3-1.8c0.3-0.8-0.1-1.9-0.3-3.1
		c1.3-0.7,2.8-1.5,4.2-2.4c0.4-0.2,0.7-0.8,0.8-1.2c0-0.2-0.6-0.7-0.9-0.8c-2-0.3-4-0.5-6-0.7c-1.4-0.1-2.7-0.1-4.1-0.3
		c-0.3,0-0.7-0.5-0.8-0.9c-0.1-0.2,0.2-0.8,0.5-0.9c0.7-0.4,1.5-0.5,2.1-0.9c0.6-0.3,1.1-0.9,1.6-1.4c-0.5-0.5-1-1.2-1.6-1.4
		c-1.2-0.5-2.5-0.6-3.7-1.2c-1.7-0.7-3.2-1.8-4.8-2.5c-1.3-0.6-2.7-1-4.1-1.2c-1.2-0.2-2.4-0.4-2-1.8c0.1-0.6,1.5-0.9,2.3-1.3
		c0.7-0.3,1.4-0.3,2.1-0.5c-0.6-0.4-1.2-0.9-1.9-1.2c-2.3-0.9-4.7-1.2-7.2-0.2c-0.5,0.2-1.3-0.3-2-0.5c0.4-0.5,0.7-1.1,1.3-1.4
		c0.7-0.4,1.6-0.4,2.4-0.8c0.6-0.3,1.1-0.8,1.7-1.1c-0.6-0.5-1.3-1.5-1.8-1.4c-2.4,0.6-4.8,1.4-7.1,2.2c-0.5,0.2-0.8,0.8-1.2,1
		c-0.4,0.2-1,0-1.5-0.1c0.1-0.5,0.1-1,0.4-1.4c1.7-2.9,4.7-3.4,7.6-4.3c0.7-0.2,1.3-0.8,1.9-1.2c-0.6-0.5-1.2-1.2-1.9-1.4
		c-2.7-0.8-5.4-1.7-8.1-2.2c-0.9-0.2-2.4,0.4-3.1,1.1c-2.1,2.4-5,1.8-7.5,2c-1.7,0.1-3.5-0.5-5.2-0.8c-0.5-0.1-0.9-0.7-1.4-1
		c0.3-0.4,0.6-1,1.1-1.1c3.8-0.8,5-4.1,6.5-6.9c0.6-1.1-0.6-3.3-1.1-5.3c-0.1,0,0.3-0.2,0.7-0.4c2.2-1.1,2.2-1.6,0.4-3.1
		c-0.9-0.8-1.3-2.1-1.9-3.1c0.1-0.1,0.3-0.3,0.4-0.4c0.4,0.1,0.9,0.1,1.2,0.4c1.7,1.8,3.3,3.6,5,5.4c1.5,1.6,3,3.2,4.7,4.5
		c0.5,0.4,2,0.3,2.4-0.2c0.4-0.4,0.4-2.1,0-2.4c-2.2-1.5-3.1-4.7-6.3-5c-0.5-0.1-1-1.6-1.2-2.6c-0.4-1.2-0.1-2.8-0.8-3.7
		c-1.7-2.3-7.3-2.4-9.3-0.4c-1.5,1.5-1.4,4,0.2,6.1c0.7,0.9,1.3,2,1.9,3c-0.2,0.2-0.5,0.4-0.7,0.6c-0.6-0.6-1.3-1-1.6-1.7
		c-0.9-2.1-1.7-4.3-2.5-6.5c-0.2-0.4-0.2-1.1-0.5-1.3c-1.9-0.9-1.4-2.4-1.3-4c0.2-2.9-0.1-5.8,0.1-8.7c0.1-1.8,0.8-3.6,3.8-3.6
		c-0.7,0.6-1.2,0.8-1.5,1.2c-0.9,1-0.3,3.1,0.8,2.9c3-0.7,4.9,1.5,7.2,2.4c0.5,0.2,0.9,0.3,2.2,0.6c-1.1-2.9-1.9-5.3-3-7.7
		c-0.7-1.5-1.6-2.9-2.5-4.2c-0.6-0.9-1.3-1.8-2.2-2.4c-1.4-1-2.3-0.3-3.1,1.1c-1.2,2.1-2.7,4-4.1,5.9c-0.2,0.2-0.6,0.3-1,0.4
		c-0.2-0.1-0.4-0.3-0.6-0.4c0.7-1.4,1.5-2.8,2.2-4.3c0.4-0.8,0.5-1.8,0.8-2.6c-0.8,0.1-1.7,0.2-2.5,0.3c-3.4,0.7-4.8,5.6-4.3,8.2
		c0.3,1.4,1.8,2.5,2.8,3.7c0.4,0.5,1,1,1.8,1.9c-2.8-0.1-4.2-1.1-5.1-2.9c-1.1-2.1-2.5-2.3-4.1-0.6c-0.5,0.5-1.1,1.1-1.5,1.7
		c-0.3,0.4-0.5,0.9-0.8,1.4c0.5,0.2,1.1,0.5,1.6,0.4c2.6-0.4,2.3-0.5,2.1,2.1c-0.5,5-3.2,7.6-7.7,9c-0.6,0.2-1.5,1.1-1.5,1.4
		c0.3,1.2,0.8,2.4,1.5,3.3c0.6,0.8,1.9,1.1,2.5,1.8c1,1.3,0.1,6.1-1.3,7c-0.6,0.3-1.4,0.2-2.1,0.2c0-0.7-0.2-1.4-0.1-2.1
		c0.2-1.1,0.8-2.2,0.7-3.2c-0.2-1.5-1.1-2.5-3-1.9c-0.6,0.2-1.4-0.3-2.1-0.4c0.3-0.5,0.6-1,0.9-1.6c0.2-0.6,0.7-1.5,0.5-1.7
		c-0.8-0.8-1.7-1.7-2.7-1.8c-2.9-0.2-5.9,0.4-8.7-0.2c-3.4-0.7-6,1-9.1,1.5c-0.7,0.1-1.5-0.4-2.3-0.7c0.6-0.5,1.2-1.1,1.9-1.4
		c1.2-0.6,2.4-0.9,3.6-1.4c2.1-0.9,4.2-1.8,6.4-0.6c2.9,1.5,4.8-0.6,6.3-2.3c0.7-0.8,0.1-2.8-0.1-4.3c0-0.4-0.6-1-1-1
		c-0.3,0-0.9,0.5-1.1,0.9c-0.5,0.8-0.9,1.8-1.4,2.6c-1,1.6-1.9,2.6-4.2,1c-1-0.7-3.9,0.5-5.4,1.5c-1.8,1.3-3.4,2-5.5,1.3
		c-0.6-0.2-1.2-1.1-1.2-1.6c0-1.1,0.5-2.1,0.9-3.2c0.1-0.3,0.7-0.5,1.1-0.6c2.3-0.5,4.8-0.6,7-1.3c2.2-0.7,2.8-4,1.2-5.6
		c-1.1-1.1-2.1-0.7-2.6,0.8c-0.7,2.2-2.4,3.1-4.5,3.5c-2.9,0.6-5.2,2.7-5.3,5.6c-0.1,2.6-2,4.4-3.5,5.7c-1.6,1.4-4.2,1.6-6.5,2.1
		c-0.3,0.1-0.9-0.6-1.3-0.9c0.3-0.4,0.5-1,0.9-1.2c0.8-0.4,1.8-0.5,2.6-0.8c0.8-0.3,1.5-0.7,2.5-1.3c-3.9-1.8-6.2-1.4-9,1.2
		c-0.6,0.6-2,0.3-3.5,0.5c-0.1,0.3-0.7,1-0.7,1.8c-0.4,4.5-4.1,6.4-7,9c-1.9,1.6-3.6,3.3-5.5,5c-0.9,0.7-1.8,1.4-3.1,2.2
		c-0.6-2.7-2-2.6-3.7-1.9c-2.3,1-4.3,0-5.8-1.6c-1-1.1-2-2-2.9-0.7c-0.5,0.7-0.1,2.6,0.6,3.5c1.4,1.9,3.2,3.5,4.9,5.3
		c-2,1.9-4.1,0.1-6.1-0.1c-1.6-0.2-3.1-1.2-3.9-3.1c-0.7-1.8-2.4-3.1-3.6-4.7c-0.6-0.8-1.4-1.8-1.5-2.7c-0.3-2.2-0.8-4.6-0.4-6.8
		c0.5-2.9,1.6-5.8,2.5-8.7c2.2,1,2.8,2.7,1.7,4.9c-1.3,2.7-1.2,5.4-1.1,8.4c0,2.4,1.4,3.8,2.2,5.6c0.2,0.4,0.8,0.6,1.2,0.9
		c0.2-0.4,0.6-1,0.4-1.3c-1.3-3.4-0.9-6.8-0.3-10.1c0.3-1.7,1.6-3.2,2.5-4.7c0.6-1,1.3-1.9,2.3-3.4c-3.6,0.7-5.4-0.3-6.1-3.1
		c-0.1-0.2-0.4-0.5-0.7-0.6c-3.7-1.4-3.9-4.9-4.8-7.9c-0.1-0.5,0.2-1.7,0.5-1.7c2.9-0.8,3.3-3.9,5.4-5.4c0.3-0.2,0.5-0.6,0.7-0.9
		c0.5-0.6,0.9-1.2,1.4-1.8c-0.8,0-1.6,0-2.4,0c-0.4,0-0.7,0.2-1.1,0.3c-0.2-0.2-0.3-0.4-0.5-0.6c0.8-0.8,1.6-1.6,2.5-2.3
		c1-0.8,2.1-1.4,3.2-2c0.5-0.3,1.1-0.2,1.7-0.3c0.5-0.1,1.3,0,1.5-0.3c1.5-2.3,2.6-0.5,3.9,0.2c1.8,0.9,3.7,2.3,5.5,2.2
		c1.6-0.1,3.2-1.9,4.7-3.1c1.6-1.4,3.1-2.9,4.6-4.4c0.2,0.2,0.5,0.3,0.7,0.5c-0.9,1.1-1.6,2.4-2.7,3.3c-1.5,1.3-2.4,2.5-1.6,4.5
		c0.1,0.3,0.2,0.6,0.1,0.9c-0.3,2.3-5.4,5.9-7.7,5.4c-2.5-0.6-5-1.2-7.4-1.8c-1.7-0.4-4.7,0.8-5.6,2.2c-1.5,2.3-1.9,4.5-1.8,7.5
		c0.1,4.1,3.3,5.5,5.2,8c0.3,0.5,0.9,0.9,1.1,1.4c0.4,1.3,1.2,1.8,2.4,1.3c2-0.8,2.6,1.2,3.9,1.8c1.5,0.8,2.5,6,1.7,7.6
		c-0.8,1.7-1.3,3.5-3.6,4c-0.8,0.2-1.4,1.3-2.1,2.1c1.9,1.7,3.4,0.2,4.8-0.3c0.6-0.2,1-1.2,1.4-1.9c0.2-0.3,0.1-0.8,0.3-1
		c1.6-1.2,3.5-2,4.8-3.5c1.5-1.6,2.5-3.8,3.5-5.7c0.1-0.2-0.6-1.1-1-1.2c-1.3-0.5-2.8-0.8-4.1-1.4c-1.1-0.5-2.5-1.2-3-2.2
		c-1.8-3.2-3-6.8-1.9-10.5c0.9-2.7,4.2-4.1,7.1-3.3c4.3,1.2,6.4,0.3,8.7-3.6c0.5-0.8,1.2-1.4,1.7-2.1c0.3-0.5,0.5-1.1,0.8-1.6
		c-0.6-0.1-1.3-0.3-1.9-0.1c-0.9,0.2-1.7,0.6-2.9,1.1c1-2.9,1.9-3.5,4.1-2.9c0.7,0.2,1.4,0.7,2.2,0.7c0.6,0.1,1.5,0,1.9-0.4
		c0.3-0.3,0.1-1.3-0.2-1.8c-1.8-2.9-1.6-9.9,1-12c1.7-1.4,4.5-2.3,6.6-2c3.1,0.4,5.9,2.1,8.9,3.4c1.6,0.7,3.4,4.2,2.5,5.1
		c-1.2,1.2-3.4,2.5-4.7,2.1c-2.9-0.8-3.4,1.2-3.7,2.7c-0.3,1.2,0.2,3.2,1,4.1c2.1,2.2,2.6,4.5,1.8,7.3c-0.3,0.9-0.3,1.8-0.7,2.6
		c-0.2,0.6-0.7,1.1-1.2,1.4c-1,0.5-2.2,0.5-3,1.1c-0.9,0.8-2,2-2,3c0,1.4,0.6,3.6,1.6,4c1.1,0.4,3-0.5,4.3-1.3
		c0.3-0.2-0.3-2-0.6-3.5c-0.2,0.2,0-0.1,0.2-0.2c4.2-1,5-4.5,6-7.9c0.2-0.6,0.7-1,1.1-1.5c0.4,0.5,1,1,1,1.5c0,1.1-0.4,2.2-0.6,3.3
		c-0.1,0.5-0.4,1.2-0.2,1.4c0.2,0.3,1.1,0.4,1.4,0.2c1.5-0.8,3-1.7,4.5-2.7c0.1-0.1-0.2-1.2-0.6-1.5c-0.6-0.6-1.5-0.9-2.1-1.8
		c0.5-0.1,0.9-0.2,1.4-0.2c1.1,0,2.3,0.3,3.3,0.1c2.7-0.6,4.6,0.3,6.4,2.3c2.2,2.5,4.7,4.8,7.2,7.1c1.7,1.6,1.7,2.4,0.2,4
		c-0.3,0.3-0.4,1.2-0.2,1.5c1.5,1.8,5.3,1.9,7.1,0.2c0.8-0.8,1.4-1.6,2.2-2.5c-1,0-2.1,0-3.1,0c-1.7,0-1.6-1-1.1-2
		c0.6-1.1,1.6-1.9,2.7-3.2c-1.5-0.3-2.7-0.4-3.8-0.7c-0.9-0.2-2.4,1-2.5-1c2.4-0.7,4.7-1.1,6.8-2c1.1-0.5,2-2,2.4-3.2
		c0.2-0.7-0.8-1.8-1.2-2.7c-0.6,0.7-1.2,1.2-1.7,2c-0.9,1.4-4.5,2.9-6.2,2.6c-2.7-0.5-4.8-1.7-6.9-3.5c-1.7-1.4-4.1-2.1-6.2-3.1
		c-2.6-1.3-3.8-3.8-3.2-6.8c0.2-1.1,0-2.4,0.5-3.3c1.2-2.4,3.8-2.5,6-2.7c1.3-0.1,2.9,0.4,4,1.1c0.8,0.5,1.1,1.8,1.3,2.9
		c0.3,1.5,0.4,3.1,0.7,4.7c0.1,0.4,0.7,0.7,1,1.1c0.3-0.4,0.8-0.7,1-1.1c1.3-2.5,0.6-8.9-1.2-10.9c-0.4-0.5-1.2-0.8-1.8-1
		c-1.5-0.5-3.1-1-4.7-1.5c-1.1-0.3-1.6,0-1.5,1.3c0.1,0.5-0.2,1-0.3,1.5c-0.5-0.2-1.1-0.4-1.5-0.7c-0.6-0.5-1-1.1-1.4-1.4
		c1-0.9,2.6-1.6,2.6-2.5c0.1-1.9-1.9-2.2-3.3-3c-2-1.1-4-0.7-6.1-0.8c-3.6-0.3-5.1,1.9-7,3.9c-0.2,0.2-0.6,0.1-0.9,0.2
		c0-3,2.6-5.8,5.9-7.1c1.3-0.5,2.4-1.4,3.4-2.3c0.3-0.3,0.4-1.4,0.1-1.7c-1.4-1.4-2.8-3.1-4.6-3.9c-1.4-0.6-3.2-0.1-4.9-0.2
		c-0.6,0-1.1-0.4-1.7-0.6c0.3-0.5,0.5-1.3,0.9-1.6c3.8-2.3,9.2-0.3,10.8,3.8c0.3,0.8,1.5,1.9,2,1.8c1.6-0.3,0.9-1.6,0.7-2.6
		c-0.6-2.6-2.3-4.4-4.6-5.6c-0.8-0.4-1.4-1.1-2.4-1.9c1.8-0.1,2.9,0,4-0.1c2-0.3,2.5-1.3,2.4-3.5c-0.2-3.9-1.2-8.1,1.8-11.6
		c0.4-0.5,0.5-1.2,1.1-2.5c-2.3,0.8-4.1,1-5.4,1.9c-0.9,0.6-2,1.9,0,3.4c0.7,0.5,0.2,2.7,0.2,4.2c0,1,0.1,2.1,0,3.1
		c0,0.6-0.3,1.2-0.4,1.8c-0.6-0.3-1.6-0.5-1.8-1c-0.7-1.9-2.4-3.9,0.3-5.7c0.3-0.2,0-1.4-0.1-2.2c-0.6,0.3-1.4,0.5-1.6,1
		c-0.8,1.9-2.3,2.6-4.1,3.3c-1.7,0.7-3.4,1.6-4.8,2.7c-2.5,1.9-2.3,4.7-1.9,7.3c0.4,2.3,1.4,4.6,2.1,6.8c0.1,0.3,0,0.6,0,0.8
		c-0.2,0.1-0.4,0.2-0.7,0.3c-1.2-2.2-2.5-4.5-3.7-6.7c-0.4-0.7-0.6-1.6-1.1-2.2c-1.3-1.7-1.4-6.6,0-8.1c0.9-1,2-1.8,2.9-2.8
		c0.3-0.4,0.6-1.2,0.4-1.6c-0.3-0.5-1.2-1.1-1.5-1c-1,0.5-2.1,1.1-2.8,1.9c-0.8,0.8-1.1,2-1.8,3c-0.4,0.5-1,0.8-2,1.6
		c0.5-2.1,0.8-3.5,1-4.9c0.2-1.1,0.1-2.5-1.5-2.1c-4,0.8-7.7,2.1-9.6,6.2c-1,2.1-0.2,4.7,1.1,6.6c1.2,1.7,2,3.9,2.6,5.9
		c0.4,1.5-2.2,2.9-4.2,2c-2.2-1-4.1-0.7-6.2,0c-3.7,1.2-4.6,3-3.3,6.8c1.3,4.1,1.3,3.9,5.2,2.8c1.8-0.5,3.9-0.4,5.8-0.8
		c1-0.2,1.8-1.1,2.6-1.8c0.8-0.7,1.4-2.1,2.3-2.3c2.7-0.6,3.2-2.6,3-4.6c-0.3-3-0.1-5.7,1.2-8.4c0.4-0.8-0.1-2-0.1-3.1
		c0.2-0.1,0.4-0.1,0.6-0.2c0.4,1.7,0.8,3.4,1.1,5.1c0.2,1.2-0.2,2.5,0.1,3.6c0.8,3.1,0.8,5.9-2.4,7.7c-0.3,0.1-0.4,0.4-0.9,0.9
		c1.6,0.6,2.8,1,3.9,1.4c0,0.3,0,0.6,0.1,0.9c-1.9,0.4-3.8,1.3-5.5,1c-2.3-0.4-3.2,0.3-3.3,1.5c-3.6,1.2-6.8,2.2-10,3.3
		c-0.3,0.1-0.8,0.4-0.8,0.7c-0.8,2.9-2.5,5.5-1.7,8.7c0.1,0.5-0.3,1.1-0.5,1.7c-0.6-0.3-1.5-0.5-1.7-1c-0.3-0.6-0.2-1.5-0.1-2.2
		c0.3-3.2-0.5-4.7-3.5-3.5c-2.4,1-5.2,1-6.8,3.4c-0.1,0.2-0.4,0.3-0.6,0.3c-1.6,0-3.2-0.1-5.5-0.2c1.8-1.3,3.1-2.8,4.7-3.3
		c3.2-1,6.2-3.1,10-2.2c1,0.2,2.2-0.4,3.3-0.9c1.7-0.8,0.9-2.2,0.4-3.2c-0.9-1.6-1.1-4.1-3.6-4.3c-0.2,0-0.5,0.8-0.8,1.2
		c-1.6,2.3-3.2,4.7-6.2,5.2c-1.1,0.2-2.3,0.1-3.4-0.1c-2.1-0.5-4.3-2-6.3-1.7c-3,0.4-6,1.6-8.7,3.1c-1.5,0.8-2.3,2.9-3.5,4.3
		c-0.3,0.3-0.7,0.4-1.7,1c0.7-2.4,1.2-4.2,1.9-6c0.6-1.6,0.1-2.3-1.5-2.7c-4.7-1.1-6.8,1.7-9.1,5c-1.3,1.9-2.8,3.5-2.5,5.9
		c0.1,0.9,0.5,1.9,0.7,2.8c0.7-0.4,1.5-0.9,2.2-1.3c0.7-0.4,1.3-1,2-1.4c0.8-0.5,1.8-0.7,2.4-1.3c1.2-1.4,2.1-1.2,3.4,0
		c-1.8,1.2-3.5,2.4-5.1,3.6c-0.5,0.4-0.8,1-1,1.6c-0.1,0.3,0.5,1.1,0.6,1.1c0.6-0.1,1.3-0.3,1.7-0.7c2.6-2.4,7-3.1,10.1-1.6
		c2.5,1.2,6.2,7.6,5.8,10.4c-0.1,0.8-0.8,1.6-1.2,2.3c-0.7-0.4-1.3-0.9-2-1.1c-2-0.7-4.2-1.9-6.1-1.7c-2.8,0.4-6.1,0.9-7.3,4.3
		c-0.1,0.2-0.3,0.3-0.9,0.8c-0.3-2.5,0.9-4,2-5.6c0.5-0.7,0.7-1.6,1-2.4c-0.9-0.1-1.9-0.6-2.6-0.3c-1.6,0.7-3.1,1.9-4.7,2.6
		c-0.5,0.2-1.6,0-1.8-0.4c-1.1-1.8-1.9-1-3.1,0c-1.7,1.4-3.5,2.5-5.3,3.8c-0.6,0.4-1.5,1-1.5,1.4c0.1,0.7,0.6,1.7,1.2,2
		c2.9,1.6,5.9,2.9,9.3,1.3c1.2-0.5,2.5-1,3.7-1.2c0.6-0.1,1.7,0.2,1.8,0.6c0.2,0.7,0.2,2-0.2,2.4c-1.4,1.2-3,2.1-4.5,3.2
		c-0.4,0.3-1.1,0.7-1.1,1c0.1,0.7,0.4,1.6,0.9,1.9c1.4,0.9,2.9,1.6,4.5,2.4c0.3,0.1,0.8,0.3,0.9,0.2c1.6-2.7,4.8-0.6,6.8-2.1
		c0.6-0.5,1.2-1.1,1.8-1.6c-0.5-0.6-1.1-1.1-1.6-1.7c-0.6-0.8-1.1-1.6-1.6-2.5c0.1-0.2,0.3-0.3,0.4-0.5c1.3,0.3,2.6,0.4,3.9,0.8
		c3.6,0.9,4.1,4,4.8,6.9c0.1,0.4-0.7,1.5-1.1,1.5c-1.4,0-2.9-0.8-4.2-0.5c-3,0.7-6.2,1.3-8.6,2.9c-1.2,0.8-1.1,3.7-1.1,5.7
		c0,1.3,0,2.2-1.3,2.8c-2.6,1.3-5.1,2.7-7.7,4c-1.5,0.8-2.8,4-2.5,5.9c0.2,1.1,1.5,2.6-0.4,3.3c-0.3,0.1-1.6-1.7-2-2.7
		c-1.3-3.4,1.1-5.8,2.9-8.2c1.8-2.4,4.3-3.5,7.5-3c0.3,0,1.1-0.7,1.1-1c-0.3-2.6-0.6-5.3-1.1-7.9c-0.3-1.5-1.1-2.6-2.5-0.5
		c-0.7,1.1-1.5,2.4-2.5,3.2c-0.9,0.7-2.1,1.3-3.3,1.3c-3.7,0.2-7,1-9.9,3.4c-1.1,1-2.2,1.7-3.5,0.1c-1.2-1.4-4.3-0.7-5.3,1.1
		c-0.4,0.8-0.9,1.6-1.4,2.5c-0.9-0.5-1.6-0.9-2.3-1.2c-1.5-0.5-2.6-0.3-2.7,1.6c-0.2,1.9-1.4,2.5-3.3,1.8c-1-0.4-2.3-1.1-3.2-0.8
		c-1.1,0.3-2.2,1.3-2.9,2.3c-1.4,2.3-1.5,2.4-3.3,0.4c-0.2-0.2-0.4-0.3-0.8-0.6c-0.4,0.7-0.9,1.2-1.1,1.8c-0.7,2.4-2.5,2.8-4.5,2.4
		c-1.6-0.3-2.6,0.2-3.9,1.2c-3.2,2.5-6.5,4.6-11,4.7c-2.9,0.1-5.8,0.6-8.7-0.1c-1.4-0.3-2.2-0.7-2.6-2.1c-0.1-0.4-0.7-0.6-1.1-0.9
		c-0.3,0.4-0.8,0.8-0.7,1.2c0.3,2.3-0.9,1.8-2.2,1.3c-0.4-0.1-0.7-0.4-1.1-0.4c-0.7,0-1.4,0.1-2.1,0.2c0.5,0.6,1,1.7,1.6,1.9
		c1.5,0.4,3.1,0.5,4.7,0.7c1.8,0.3,3.6,0.5,5.5,1.4c-1.4,0.2-2.7,0.7-4.1,0.6c-5.2-0.3-10.2-1.8-15.2-3.5c-0.8-0.3-1.9,0-2.7-0.3
		c-1.6-0.5-3.1-0.9-4.6-1.8c-2.4-1.3-5.1-2.8-8.3-2c-1.3,0.4-2.9,0-4.3,0.1c-0.4,0-0.8,0.6-1.2,0.9c0.3,0.4,0.6,1,1,1.1
		c1.1,0.2,2.2,0.2,3.3,0.2c1.5,0.1,3.1-0.1,4.4,0.4c3.6,1.4,7.1,3.1,8.5,7.1c-1.2,0.6-2.3,0.2-3.1-1.3c-1.4-2.6-5.6-4.7-8.4-4.3
		c-0.6,0.1-1.3-0.2-2-0.2c-0.4,0-0.8,0.3-1.2,0.4c0.2,0.4,0.4,0.9,0.7,1c1.7,0.5,3.5,0.7,5.3,1.2c0.6,0.1,1.2,0.5,1.7,0.9
		c0.1,0.1-0.1,1-0.2,1c-0.6,0.1-1.3,0.1-1.9,0c-0.5,0-1-0.1-1.5-0.1c-0.1,0.2-0.1,0.4-0.2,0.6c0.7,0.4,1.5,0.8,2.2,1.3
		c2.6,2,5.1,4.3,7.9,6c2.6,1.6,5.7,2.4,8.6,3.6c0.4,0.1,0.8,0.2,1.1,0.3c3.5,1.9,7.4,2.1,11.2,2.6c3.6,0.5,7.3,0.3,10.9,0.4
		c4.7,0.2,9.2-1.4,13.9-1.8c10.8-0.9,20.5-5.7,30.7-8.6c1.8-0.5,3.8-0.5,5.6-0.9c1.2-0.3,2.3-0.7,3.4-1.2c1.2-0.6,2.1-1.6,3.3-2.1
		c1.2-0.5,2.9-1.2,3.2,0.7c0.2,1.2-0.8,2.7-1.5,3.9c-0.2,0.4-1.1,0.4-1.7,0.6c-2.7,0.8-5.3,1.4-8,2.2c-1.6,0.5-3.2,1-2.6,3.3
		c0.1,0.5-0.4,1.3-0.7,1.9c-1.2,1.8-2.6,3.6-3.9,5.3c-0.2,0.3-0.4,0.8-0.7,0.8c-2,0.5-3.6,1.4-4.8,3.1c-0.3,0.4-1.5,0.1-2.2,0.1
		c0.4-0.6,0.8-1.4,1.3-1.7c3.8-1.7,6.4-4.7,8.8-7.9c0.3-0.4,0.2-1.3-0.1-1.7c-0.3-0.4-1-0.7-1.5-0.7c-0.7,0-1.3,0.3-2,0.5
		c-6,2-11.9,4.2-18,5.9c-3.7,1-7.7,1.2-11.6,1.6c-2.2,0.3-4.4,0.5-6.6,0.5c-3.5,0-7,0-10.5-0.5c-3.5-0.4-7-1.1-10.4-2.1
		c-3.3-1-6.5-2.6-9.8-3.9c-1.7-0.7-3.6-1.1-5.3-1.8c-1-0.4-1.8-1.3-2.7-2c-0.9-0.8-1.7-2.2-2.6-2.3c-3.4-0.4-4.6-3.5-7-5.1
		c-0.7-0.4-1.3-1-1.8-1.6c-1.8-2.1-3.7-4.1-5.2-6.4c-1.6-2.7-2.6-5.8-4.2-8.5c-1.3-2.2-3.1-4.1-4.6-6.2c-0.5-0.7-0.9-1.6-1.2-2.5
		c-1.2-3.5-2.7-6.9-3.4-10.5c-1.2-5.9-2.2-11.9-2.1-18.1c0.1-7.3,2.3-14.3,2.6-21.5c0.2-4.8,2.2-8.8,4.4-12.9c0.5-1,0.6-2.2,1.1-3.2
		c0.5-1.1,1.2-2.1,1.8-3.1c1.3-2.4,2.9-4.7,4-7.2c1.9-4.2,5-7.4,8-10.7c0.9-1,1.9-2,3-2.8c0.7-0.5,2.1-1.3,2.5-1
		c1.1,0.7,2.5,1.9,2.7,3c0.3,2.3-0.3,4.5-1.8,6.6c-2.1,3-4.6,5.9-4.6,9.9c0,1-0.5,2.1-1,3c-2.5,5.7-3.3,11.7-3.6,17.8
		c-0.1,1.6-0.5,3.2-1,4.7c-1.6,5,0.5,9.5,1.9,14c0.7,2.4,1.5,4.9,2.1,7.3c0.3,1.4-0.1,3,0.4,4.2c1.2,2.7,2.5,5.5,4.2,7.9
		c2.1,3.1,4.6,5.9,7,8.9c1.7,2.1,3.3,4.2,4.9,6.4c0.3,0.4,0.6,0.9,0.9,1c4.3,0.7,7.9,4,12.6,3.3c2.9,2.4,5.8,0.7,8.7-0.1
		c0.5-0.1,1.1-0.1,1.5,0.2c2.1,1.6,3.1,1.6,5-0.3c0.4-0.4,1-0.9,1.3-0.8c2.9,1.2,5.3-0.6,7.7-1.5c4.2-1.6,8.2-3.6,12.4-5.3
		c1.3-0.5,2.8-0.3,4.2-0.5c0.7-0.1,1.3-0.3,1.9-0.6c1.4-0.8,2.7-1.6,4.1-2.4c2-1.2,4.1-2.3,6.1-3.5c0.4-0.2,0.6-0.9,0.7-1.3
		c0.2-2.2,0.6-4.1,2.4-5.8c1.7-1.7,3.3-3.4,5.7-3.9c2-0.4,2.4-1.5,1.8-3.4c-0.7-2.2,0.2-3.2,2.3-4c2.1-0.8,4-2.2,6.1-3
		c3.6-1.3,5-3.3,4.5-7.3c-0.5-3.5,1.5-6.5,4.1-9c1.7-1.6,2.6-4,4.3-5.7c0.9-1,2.5-1.6,3.8-2c2.2-0.6,4.5-0.9,6.7-1.2
		c1.4-0.2,2.8-0.2,4.2-0.2c1.7,0.1,3.3,0.3,5,0.6c3.4,0.5,4.7-0.9,3.5-4.1c-1-2.6-1.2-5.2,0.8-7c2.9-2.6,4.4-6.7,8.7-8
		c1.7-0.5,3-2,4.7-2.7c1.8-0.8,3.6-0.6,5.6,0.1c1,0.3,3-0.4,3.6-1.3c2.9-4.7,7.3-7.1,12.3-8.7c0.9-0.3,2.3,0.1,3.2,0.7
		c1.8,1.2,3.5,1.3,5.6,0.8c1.8-0.4,3.8-0.3,5.6-0.1c1.9,0.2,3.2-0.2,4.7-1.6c1.6-1.6,3.2-4.3,6.3-2.9c5.4-1.7,10.3,1.5,15.4,1.6
		c1.3,0,3.1-0.7,3.8-1.7c3-4.2,5.9-8.5,8.5-13c1.4-2.3,2.1-5.1,2.9-7.7c0.7-2.1,1.3-4.4,1.4-6.6c0.2-3.7,0.2-7.5-0.1-11.2
		c-0.3-4.3-1.1-8.5-1.7-12.8c-0.1-0.5-0.2-1.1-0.4-1.6c-1.4-4.5-2.9-9-4.4-13.4c-0.4-1.1-1.1-2-1.6-3c-0.3-0.7-1-1.4-0.9-2.1
		c0.3-4.7-2.7-7.9-5-11.4c-1.6-2.3-3.1-4.8-5-6.7c-5.4-5.4-12.3-8.4-19.2-11.5c-1.7-0.8-2.8-1.9-3.6-3.6c-0.5-1.1-1.3-2.6-2.3-3
		c-3.1-1.3-3.7-4.3-5.3-6.6c-2-3-3.3-6.1-3-9.7c0.2-2.5,0.8-5.1,1.2-7.6c0.1-0.5,0.2-1.1,0.2-1.6c0-1.1-1.1-2.5,0.8-3
		c1.7-0.4,3.1-1.5,5.2,0.3c2.4,2,3.8,4.3,5,7.1c1.6,3.6,4,6.8,6.1,10.2c0.2,0.3,0.6,0.5,0.9,0.7c7.3,4.5,14.4,9.3,22.5,12.5
		c5.6,2.3,10,6.3,14.1,10.7c2.5,2.7,5.2,5.1,7.7,7.8c1,1.1,1.9,2.4,2.7,3.7c1.5,2.3,2.8,4.6,4.2,6.9c1.5,2.2,3,4.4,4.6,6.6
		c0.3,0.5,0.7,1,0.9,1.6c1.9,5.5,3.8,10.9,5.4,16.4c0.6,2.2,0.5,4.7,0.6,7.1c0.5,10.5,0.9,21.1,1.3,31.6c0.1,1.3,0.2,2.6-1.1,3.8
		c-0.8,0.8-0.6,2.5-0.9,3.8c0.6,0.1,1.3,0.2,2.3,0.4c-0.3,1.4-0.6,3.3-1.1,5.1c-0.7,2.8-1.6,5.6-2,8.5c-0.3,2.1,0.2,4.4,0.3,6.6
		c0.1,3.2,0.5,6.4,0.3,9.6c-0.3,3.9-1.5,7.7-3.9,10.8c-0.7,1-2.3,1.5-3.6,1.8c-3.3,0.8-5.6,3-8.1,5.1c-1,0.8-2.3,1.1-3.5,1.6
		c-3.4,1.4-3.8,5.7-1.8,8.6c1.6,2.4,3.9,3.4,6,5c1.2,0.9,2.2,2.2,3,3.6c1.9,3.1,4.3,5.9,4.8,9.7c0.1,0.6,0.7,1.7,1,1.7
		c0.7,0,1.5-0.6,2.1-1c0.6-0.4,1-1,1.6-1.5c0.3,0.2,0.5,0.4,0.8,0.6c-1.6,2.4-3.1,4.8-4.7,7.2c-0.3,0.5-0.5,1.1-0.8,1.7
		c0.6,0.1,1.3,0.3,1.9,0.1c1.4-0.5,2.7-1.1,4.1-1.7c0.1,0.2,0.3,0.4,0.4,0.6c-0.6,0.6-1.3,1.2-1.9,1.9c-0.9,1.1-1.2,2.1,0.6,2.6
		c1.7,0.5,2.6,1.4,1.8,3.4c-0.2,0.4,0.1,1.3,0.4,1.7c1.8,1.8,3.7,3.6,5.7,5.2c1,0.9,2.2,1.5,1.4,3.2c-0.2,0.4-0.2,1,0,1.3
		c0.5,0.8,1.1,1.5,1.6,2.2c0.6-0.7,1.4-1.4,1.7-2.2c1-3.1-0.3-5.4-2.6-7.5c-0.4-0.4-0.7-0.9-1-1.7c1.6,0.2,3.4-1.2,4.7,1
		c0.2,0.4,1,0.5,1.5,0.7c0.1-0.5,0.4-1,0.4-1.4c-0.3-1.9-4-4.8-5.8-4.4c-0.7,0.2-1.3,1.1-2.2,1.9c-0.6-0.5-1.5-1.1-2.3-1.8
		c0.1-0.2,0.2-0.4,0.2-0.6c1.7,0.4,3.2,0.6,4-1.4c0.1-0.3,1.3-0.1,2-0.2c0.8-0.1,1.6-0.3,2.5-0.5c-0.4-0.6-0.8-1.1-1.1-1.8
		c-1.2-2.4-3.5-1.7-5.4-2.1c-0.5-0.1-1-0.5-1.4-0.7c0.4-0.4,0.7-1.1,1.1-1.2c0.7-0.2,1.6,0.1,2.4-0.1c0.9-0.2,2.4-0.6,2.5-1.2
		c0.4-1.4-0.7-1.8-2.1-1.9c-2-0.1-3.9-0.5-6.4-0.9c2.5-2.6,4.9-1.5,7.9-1.2c-1-1.3-1.5-2.4-2.2-2.8c-2.6-1.4-5.3-2-8-0.3
		c-1.7,1.1-2.9-0.3-4-1c-0.7-0.4-1.2-2.1-0.9-2.9c0.5-1.6-0.1-2.4-1.2-3.3c-2-1.7-3.8-3.5-5.7-5.3c0.1-0.2,0.2-0.4,0.2-0.6
		c1,0.4,1.9,0.8,2.9,1.1c0.6,0.2,1.2,0,1.9,0c-0.2-0.6-0.2-1.2-0.5-1.6c-1.5-1.9-5.1-1.6-6.4,0.5c-1.6-0.3-2.4-1.1-2.8-2.8
		c-0.2-0.9-1.2-1.5-1.8-2.4c-0.3-0.5-0.4-1.2-0.6-1.8c0.5-0.2,1.1-0.6,1.6-0.5c0.8,0.2,1.5,0.7,2.3,1.1c3.1,1.6,6,3.5,9.2,4.6
		c4,1.4,7.2,3.7,10.3,6.3c1.6,1.4,3.7,2.1,5.5,3.3c1.3,0.9,2.6,1.9,3.4,3.2c1.5,2.6,2.8,5.3,3.8,8.2c0.7,2,0.8,4.2,0.7,6.3
		c-0.4,9.3,1.2,18.2,5,26.5c2,4.4,5.7,8.2,9.3,11.6c4.6,4.5,10,8.1,14.8,12.5c2.3,2.2,5,4.2,6.1,7.5c0.4,1.1,1.6,1.8,2.4,2.8
		c1.4,1.7,3.5,3.3,3.9,5.3c0.6,2.8,1.5,4.7,3.7,6.5c1.6,1.3,2.4,3.7,3.5,5.5c0.2,0.3,0.4,0.7,0.7,0.9c4.6,2.6,9.2,4.6,14.7,4.4
		c2.3-0.1,4.7,1.3,7.1,1.5c4.4,0.4,6.8,3.7,9.8,6.2c1.7,1.4,3.3,3,5.1,4.3c3,2.1,4.5,4.8,4.1,8.6c-0.2,2,0.4,4.1,0.3,6.2
		c-0.1,2.6-0.5,5.3-1,7.8c-1.2,5.6-4.6,9.9-8.8,13.7c-7.7,7.1-13.1,15.8-18.3,24.8c-5.6,9.8-12.2,18.9-20.2,26.8
		c-3.5,3.5-7.2,6.8-11.1,10c-4.9,3.8-13.3,4-19.5,6.7c-3.1,1.4-1.7,1.3-4.9,1.7c-3.6,0.5-10.9-3.4-19-3.4
		c-6.6,2.2-19.7,0.7-25.4-0.7c-4.7,1.6-0.6,9.3-0.9,13c-2.1,4.2-8.9,6.8-10.6,6.6c-3.6-0.6-6.1-3-9-4.6c-1.1-0.6-2.8-0.8-3.8-0.4
		c-2.6,1.1-5,0.4-7.6,0c-3.4-0.6-6.9-0.8-10.3-1.2c-1-0.1-2.1-0.3-3.1-0.6c-0.4-0.1-0.8-0.8-0.8-1.2c0.1-0.4,0.7-0.8,1.1-0.9
		c0.6-0.1,1.2,0,1.8,0c3.6,0,7.1,0.1,10.7,0.1c0.4,0,0.9-0.2,1.3-0.3c-1.5-3.2-4.7-4.5-7.9-3.7c-3.6,0.9-7.3,1.6-11,2.1
		c-1,0.1-2.2-0.7-3.3-0.8c-3.1-0.3-6.2-0.5-9.2-0.5c-0.8,0-1.6,0.8-2.3,1.4c-2.6,2-5.2,4-7.7,6C279.8,494.2,272.9,492.2,275.2,491.1
		z M372.3,170.9c-0.3-2.2-0.4-4.5-0.5-6.7c0-0.3,0.2-0.6,0.4-0.8c2.1-1.5,1.2-2.4-0.4-3.7c-0.9-0.7-2.1-2.1-0.3-3.4
		c0.4-0.3,0.7-0.8,1.1-1.3c-0.6-0.2-1.2-0.2-1.7-0.5c-1.6-1-3.2-2-4.8-3.1c-0.5-0.4-0.8-1.1-1.2-1.6c-0.6-0.9-1.3-1.8-2.3-3.1
		c2,0.3,3.1,0.5,4.3,0.6c0.5,0,0.9-0.1,1.4-0.2c-0.3-0.5-0.4-1-0.8-1.3c-0.8-0.6-2-0.9-2.4-1.7c-0.7-1.4-0.9-3.2-3.2-2.5
		c-0.1,0-0.4-0.3-0.5-0.4c-0.9-1.1-0.4-4.8,0.7-5.8c0.4-0.3,0.5-0.9,0.7-1.4c-0.6-0.1-1.4-0.5-1.9-0.2c-0.6,0.3-0.9,1.1-1.5,1.9
		c-0.4-2-2-3.6,0.3-5.3c1-0.7,0.1-2.4-1.3-2.7c-0.7-0.2-1.7-0.6-2-1.2c-1.5-2.6-2.8-5.4-4.4-8.1c-2.6-4.4-3.8-4.9-8.1-4.4
		c-1.1,0.1-2.2,0.5-1.6,1.8c0.8,1.7,1.9,3.3,3,4.8c0.3,0.4,1,0.4,1.6,0.6c0.2-0.5,0.6-1.1,0.5-1.6c-0.2-1-0.6-2-1-3.1
		c2.1,0.3,4.4,5.2,4.5,8.9c-0.2,0.1-0.4,0.1-0.6,0.2c-0.2-0.6-0.3-1.3-0.6-1.9c-0.3-0.5-0.7-1-1.1-1.4c-0.3,0.6-0.9,1.1-0.9,1.7
		c0,0.8,0.5,1.6,0.7,2.4c0.4,1.2,1.1,2.4,1,3.5c-0.3,3.2,0.4,5.8,2.7,8.1c0.5,0.5,0.6,1.5,0.7,2.4c0.4,3.5,0.5,7,1.2,10.5
		c0.4,2.2,0.3,3.9-0.6,5.9c-0.8,1.8-1.1,4-1.1,6c0,2.4,1,4.9,0.6,7.1c-0.9,4.8-1.9,9.7-4.6,14c-2.9,4.7-5.5,9.5-8.4,14.2
		c-0.7,1.2-1.7,2.1-2.5,3.2c-1.1,1.6-2.5,3.1-3.2,4.8c-1.5,3.8-2.7,7.7-4.1,11.6c-0.5,1.4-1.9,3-0.3,4.1c0.7,0.5,2.7-0.5,3.7-1.3
		c3.4-2.6,7.3-2.7,11-1.7c4.5,1.2,6.9,4.8,8.2,9.2c0.2,0.7,1.1,1.2,1.7,1.8c0.5-0.7,1-1.3,1.4-2c0.2-0.4,0.1-1,0.3-1.3
		c2.2-3.5,4.4-7,6.6-10.6c0.5-0.8,0.9-1.6,1-2.5c0.4-2.7,0.5-5.5,0.9-8.3c0.8-4.8,3.6-9.4,1.5-14.5c-0.1-0.3-0.1-0.6-0.1-0.9
		C365.9,183.1,373.2,176,372.3,170.9z M308.5,247.7c-0.4-0.7-0.4-1-0.6-1c-3.8-1.2-7.5-2.7-11.4-3.6c-2.1-0.5-3.8,1.3-4,3.5
		c-0.1,1.9-0.2,3.9-0.1,5.8c0,0.7,0.3,1.5,0.7,2c0.8,1.1,2.2,1.9,2.5,3c0.7,2.4-1.1,3.7-3.8,3.2c-2.8-0.5-4.7,1.1-5,3.8
		c-0.2,1.9-0.8,3.8-1.1,5.8c-0.1,0.7-0.3,1.5-0.1,2.2c0.7,2.4,1.4,4.7,2.3,7c0.2,0.6,1.4,1.4,1.7,1.3c2-1.1,3.9-2.3,5.8-3.6
		c0.1-0.1,0.2-0.4,0.2-0.6c0.3-2.6-2-5-4.5-4.9c-0.4,0-0.8-0.1-1.1-0.2c0.5-0.7,1.1-1,1.7-1.2c2.5-0.8,5-1.6,7.4-2.5
		c2.2-0.7,3-2.6,2.2-4.8c-0.7-1.9-1.3-3.8-2.1-5.6c-1.2-2.5-0.3-4.7,1.1-6.4c0.8-0.9,1.6-2.7,3.8-2
		C305.3,249.2,306.9,248.2,308.5,247.7z M332.4,260.9c-1.7-0.8-3-1.1-3.8-1.8c-1.1-1-2.4-2.3-2.7-3.7c-0.4-1.7,0.2-3.6,0.1-5.3
		c0-0.4-1-1.1-1.5-1c-1.2,0.2-2.5,0.6-3.4,1.3c-1,0.9-2.2,2.3-2.1,3.3c0.2,1.5,0,4,2.8,3.9c0.3,0,0.7,0.3,1,0.5c3,1.7,5.9,4,9.2,5
		c1.8,0.5,4.7-0.5,6.1-1.9c1.7-1.6,2.7-4.2,3.3-6.5c0.5-1.8,0.9-3.3,2.4-4.5c0.3-0.3,0.3-0.9,0.4-1.4c-0.5-0.1-1.3-0.4-1.6-0.2
		c-1.2,0.8-2.2,1.8-3.3,2.7c-1.6,1.1-2.2,2.4-1.7,4.4c0.1,0.6-0.3,1.3-0.4,1.9c-0.6-0.5-1.7-1.1-1.6-1.5c0.3-2.2,0.5-4.6,1.7-6.4
		c1-1.5,3.2-2.2,4.9-3.2c1-0.6,2-1,3.2-1.7c0.4,0.2,1.1,0.7,1.8,0.8c0.9,0.1,1.8-0.1,2.7-0.1c-0.1-0.9,0-1.8-0.3-2.5
		c-0.7-1.6-4.7-3.2-6.6-2.7c-2.6,0.7-5.2,1.5-7.7,2.5c-1.6,0.6-2.3,2.1-1.8,3.8c1,3,0.5,5.8-0.9,8.5c-0.3,0.6-0.1,1.4-0.1,2.2
		C332.5,258.2,332.5,259.3,332.4,260.9z M268.1,217.8c-0.7-1.8-1.9-2.2-3.2-1.1c-2.1,1.8-4.1,3.7-5.9,5.7c-0.8,0.9-1.5,2.4-1.4,3.5
		c0.4,3.4,1.2,6.8,1.7,10.3c0.3,1.8,1.1,1.8,2.6,1.4c2.4-0.6,2.7-2.8,3.6-4.5c0.8-1.4,1.4-1.7,2.6-0.7c0.3,0.2,0.6,0.3,1.4,0.5
		c-0.3-1.3-0.6-2.3-0.6-3.2c-0.1-1.2-0.2-2.4,0.1-3.5c0.4-1.7,1.1-3.3,1.8-4.8c0.2-0.4,0.8-0.7,1.2-0.9c1.9-0.8,5.4,0.2,6.9,1.8
		c0.4,0.4,1.3,0.4,1.9,0.6c0.2-0.7,0.7-1.4,0.5-2c-0.3-1.3-0.8-2.7-1.4-3.9c-1-2.2-5.1-3.8-7.3-2.7
		C271.2,215.2,269.9,216.5,268.1,217.8z M247.8,455.2c-0.6-1.1-0.6-1.5-0.9-1.6c-2-1.4-3.9-2.8-5.9-4.2c-0.2-0.2-0.6-0.2-0.9-0.2
		c-5.9-0.4-10.8-3.1-15.4-6.6c-1-0.8-2.5-1.6-3.7-1.5c-2.8,0.3-5.5,1.1-8.2,1.7c-0.3,0.1-0.5,0.3-0.7,0.4c0.8,4,7.8,10.3,10.8,9.7
		c-0.1-0.4-0.2-0.9-0.4-1.3c-0.9-1.4-2-2.7-2.7-4.2c-0.3-0.6,0.2-1.6,0.3-2.4c0.5,0.4,1.2,0.7,1.6,1.2c2.4,3.3,4.9,6.8,9.1,8
		c2.7,0.8,5.6,1,8.5,1.2C241.9,455.6,244.6,455.3,247.8,455.2z M307.7,83.1c0.1-0.2,0.1-0.4,0.2-0.5c0.8,0.7,1.9,1.2,2.4,2
		c2.1,3.9,5,6.9,9.3,8.2c1.2,0.4,2.2,1,3.3,1.7c2.3,1.5,4.5,3.1,6.9,4.4c0.7,0.4,2.3,0.4,2.7-0.1c0.9-1.1,0-1.9-1.1-2.5
		c-0.8-0.4-1.6-0.6-2.3-1.1c-2.9-1.9-6.7-2.8-7.6-6.9c-0.1-0.5-0.9-1.1-1.4-1.4c-4.2-1.9-7.3-4.8-9.5-8.8c-0.2-0.4-0.9-0.6-1.4-0.9
		c-0.3,0.5-0.6,1.1-0.7,1.3c-0.9-1.3-1.8-2.7-2.5-3.7c0.5-1.1,0.9-1.9,1.2-2.6c-0.7-0.2-1.5-0.1-2-0.5c-0.9-0.7-2.8-0.5-2.3-2.5
		c0.3-1,0.2-2.1-1.1-1.8c-0.6,0.1-1.2,1.1-1.4,1.9c-0.2,0.8,0.3,2.1-0.1,2.4c-2.1,1.5-0.8,3.2-0.4,4.7c0.4,1.5,1,3.1,1.7,4.5
		c1.1,2.1,2.3,4.2,3.6,6.2c0.3,0.4,1.1,0.7,1.6,0.6c0.8-0.2,2.2-0.8,2.2-1.2C308.7,85.4,308.1,84.3,307.7,83.1z M100.3,267.9
		c-0.2,0.1-0.4,0.1-0.7,0.2c0,0.8-0.1,1.6,0.2,2.3c1.9,5.8,3.9,11.7,5.9,17.5c0.1,0.4,0.4,0.7,0.6,1c1.6,2.3,3.4,4.6,4.8,7
		c0.7,1.1,1.1,1.3,2.4,1.2c3.1-0.2,6.1,0.1,9.2,0.2c0.9,0,1.8-0.3,2.7-0.4c-0.7-0.6-1.4-1.4-2.2-1.9c-0.4-0.2-1,0-1.5,0.1
		c-1.9,0.2-3.7,0.5-5.6,0.4c-0.8,0-1.9-0.9-2.3-1.6c-1-1.9-1.5-4-2.4-6c-0.4-0.8-1.1-1.4-1.4-1.7c0.5-0.8,1.8-1.9,1.6-2.7
		c-0.6-2.9-1.8-5.7-2.6-8.6c-1.1-4-2.1-8-3.1-12c-0.6-2.4-1.3-4.9-2.1-7.3c-0.1-0.4-0.9-0.5-1.4-0.7c-0.1,0.5-0.3,1.1-0.3,1.6
		c0.1,0.7,0.5,1.4,0.7,2.1c1,4.5,2,9.1,3,13.6c0.3,1.3,0.8,2.5,1.1,3.8c0.1,0.5-0.1,1-0.1,1.5c-0.4,0-1,0.1-1.3-0.2
		c-0.8-0.6-1.7-1.3-2.1-2.1c-0.8-1.6-1.3-3.3-1.9-4.9C101.1,269.2,100.7,268.6,100.3,267.9z M246,448.3c-1.9-3.1-3.7-6.1-5.6-9
		c-1.3-1.9-4.1-3-5.5-2c-1.5,1.1-2.1,0.3-3.1-0.6c-0.5-0.5-1.2-0.8-1.8-1.3c-2.2-1.8-4.9-3.2-6.3-5.4c-1.6-2.6-3.4-4-6.4-4.2
		c-0.5,0-1.3,0.2-1.6,0.6c-0.2,0.4,0.1,1.1,0.3,1.6c0.6,1.2,1.4,2.4,2,3.6c1.5,3.1,2.8,6.1,6.4,7.6c3.7,1.5,7,3.7,10.6,5.5
		c0.5,0.3,1.6,0,2.1-0.4c0.9-0.8,1.3-0.6,2.2,0.2C241.1,446.3,242.7,448.6,246,448.3z M327.1,207.6c-0.2-0.2-0.5-0.3-0.7-0.5
		c-0.2-0.2-0.5-0.5-0.7-0.5c-0.4,0.1-0.7,0.5-1,0.7c-1.7,1.2-3.4,2.4-5,3.6c-0.5,0.4-1.4,0.7-1.4,1.1c0,0.7,0.3,1.7,0.8,2.2
		c1.6,1.6,1.6,2-0.4,3c-1.8,0.9-1.9,1.8-0.4,3.2c0.5,0.5,0.7,1.4,0.9,2.2c0.2,0.9,0.3,1.9,0.3,2.9c0.1,0.8,0.3,1.7,0.1,2.4
		c-0.7,2.4,0.2,3.7,2.7,3.7c1.3,0,2.5,0.2,3.8,0c0.4-0.1,1-1,0.9-1.5c-0.2-1.4-1.2-2.8-1-4c0.6-2.7-0.6-5-1.5-7.3
		c-1.2-3.3-1-6.4,1-9.3C325.9,208.8,326.6,208.2,327.1,207.6z M441,447.3c-3.5-0.6-6.1,1.2-8.9,2.4c-1.3,0.5-2.7,1.1-4,1.3
		c-2,0.2-4.1-0.1-6.2-0.1c-1.4,0-2.5,0.5-2,2.2c0.4,1.3,6.8,5.6,8,5.4C434.7,457.5,437.4,451.9,441,447.3z M258.7,469.6
		c0-0.1,0-0.3-0.1-0.4c1.8-0.2,3.7,0,5.4-0.6c4.4-1.5,8.8-0.5,13.3-0.4c0.8,0,1.6-0.8,2.4-1.2c-0.7-0.6-1.3-1.6-2-1.7
		c-2.9-0.3-5.7-0.9-8.2-2.5c-1.5-1-3.1-1.2-4.8-0.2c-3.6,2.1-7.3,4.2-10.8,6.3c-0.3,0.2-0.4,0.9-0.6,1.3c0.5,0.2,1,0.5,1.4,0.5
		C256,470.3,257.3,469.9,258.7,469.6z M298.5,469.1c-0.5-3.4-1.8-4.7-4-5.1c-3.4-0.6-6.8-1.3-10.1-2.3c-1.9-0.6-3.5-2.3-5.8-1.3
		c-0.2,0.1-0.5-0.1-0.6-0.2c-2.9-1.9-5.8-3.9-8.7-5.9c-0.7-0.5-1.3-1.3-1.9-2c-0.4,0.5-0.7,0.9-1.1,1.4c0.6,1.2,0.8,2.9,1.7,3.7
		c1.8,1.6,4,2.8,6.1,4c0.6,0.4,1.6,0.7,2.1,0.4c2.1-0.8,3.2,0.4,4.6,1.5c0.9,0.7,2,1.5,3.1,1.7c4.2,0.7,8.5,1,12.1,3.6
		C296.7,468.9,297.5,468.8,298.5,469.1z M359,467.1c0.2-0.2,0.5-0.4,0.7-0.5c-0.1-0.6-0.3-1.3-0.2-1.9c0.1-0.7,0.4-1.3,0.6-1.9
		c0.5,0.4,1.1,0.7,1.5,1.1c1,0.9,1.8,2,2.9,2.7c3.2,2.2,7,1.5,10.6,1.8c1,0.1,1.6-0.8,0.7-1.7c-0.5-0.5-1.2-0.9-1.9-1
		c-1.4-0.2-3,0.1-4.2-0.5c-3.8-1.7-7.6-3.5-7.2-8.7c0-0.2-0.1-0.5-0.2-0.6c-0.5-0.4-1-0.9-1.6-1.1c-0.4-0.1-0.9,0.4-1.3,0.7
		c0.3,0.5,0.7,1,1,1.5c0.2,0.4,0.5,0.7,0.8,1.1c-1.1,1.1-2.1,1.8-3.8,1.1c-0.6-0.3-1.7-0.1-2.1,0.3c-0.4,0.4-0.2,1.4,0,2.1
		c0.3,1,0.5,2.2,1.1,3C357,465.6,358.1,466.3,359,467.1z M281.5,290.2c0.3,0,0.6,0,1,0c0.7-1.3,1.6-2.6,2.2-4c0.6-1.4,1.6-3,1.3-4.2
		c-0.9-3.5-2.3-6.8-3.6-10.1c-0.3-0.6-1-1.4-1.6-1.5c-0.9-0.2-2-0.2-2.9,0.1c-0.4,0.1-0.9,1.4-0.7,1.8c1.5,3,3.1,6,4.7,9
		c0.4,0.3,0,1,0.2,1.4c0.8,1.8,0.3,3.3-0.6,5C281.1,288.2,281.5,289.3,281.5,290.2z M307.2,459.7c-0.1,0.2-0.5,0.5-0.5,0.8
		c0,0.3,0.3,0.6,0.6,0.8c0.6,0.5,1.3,1,1.9,1.5c2,1.8,3.9,3.8,6.2,5.2c1.9,1.2,4.2,1.7,6.4,2.2c0.8,0.2,1.7-0.5,2.6-0.7
		c-0.4-0.7-0.7-1.8-1.3-2.1c-1.7-0.9-2.7-2-3.3-3.9c-0.2-0.7-1.1-1.5-1.8-1.7c-2.2-0.7-4.5-1.1-6.8-1.6
		C309.9,460.1,308.6,459.9,307.2,459.7z M143.4,303.2c-0.9-0.8-1.7-1.3-2.1-2c-1.1-1.8-2.1-1.1-2.8,0.1c-1.2,2.1-2.7,2.1-4.6,1
		c-1.7-1-3.5-2.4-5.3-2.6c-3-0.4-6.2,0.2-9.1-1.1c-0.7-0.3-1.5-0.4-2.2-0.5c-0.3,0-0.7,0.3-0.9,0.5c-0.1,0.2-0.1,0.7,0.1,0.8
		c1.5,0.8,2.5,2.4,4.8,2c2.6-0.4,5.4,0.2,8.2,0.4c0.2,0,0.3,0.3,0.5,0.4c2.5,1.5,4.9,3.1,7.5,4.3c0.9,0.4,2.5,0,3.4-0.5
		C142,305.5,142.6,304.2,143.4,303.2z M262,284.7c-1,1-2.5,1.9-3,3.1c-0.6,1.6-0.4,3.5-0.4,5.3c0,0.2,0.8,0.6,1.3,0.7
		c2.3,0.2,4.4,0.1,6.2-2c2.2-2.5,2.9-3.6,1.5-5.5C266.4,284.4,264.5,284.2,262,284.7z M347.2,463.3c-0.3,0.4-0.9,1-0.8,1.4
		c0.3,1,0.7,2,1.3,2.8c1.1,1.2,2.5,1.9,3.6,3.1c2.1,2.3,4.8,2.6,7.7,2.2c0.4-0.1,0.8-0.5,1.3-0.7c-0.3-0.4-0.5-0.9-0.9-1.2
		c-1.1-1-2.2-2-3.4-2.8c-2.4-1.6-5-3.2-7.5-4.7C348.3,463.2,347.8,463.3,347.2,463.3z M253.4,477.8c-0.1-0.2-0.5-1.3-0.8-1.3
		c-0.8,0.1-1.9,0.4-2.1,1c-1.2,3.2-4.2,3.5-6.8,4.3c-0.9,0.3-1.7,0.7-2.4,1.2c-0.4,0.3-0.4,1-0.6,1.6c0.5,0.1,1.1,0.4,1.6,0.3
		c2.2-0.6,4.3-1.3,6.4-1.8c1.9-0.5,3.9-0.7,5.8-1.3c1.3-0.4,3.6-0.5,2.8-2.7C257,478.3,255,478.2,253.4,477.8z M276.1,446.8
		c-0.3-0.2-0.4-0.3-0.5-0.3c-2.7,0.1-5.1-0.4-6.8-2.9c-0.2-0.3-1.6-0.4-2,0c-0.4,0.3-0.4,1.5-0.1,2c2.5,4.6,6.5,7.6,11.4,9.5
		c0.4,0.1,1.1,0.1,1.2-0.1c0.2-0.4,0.2-1,0-1.5c-0.2-0.4-0.7-0.7-1.1-1C275.8,450.7,275.2,449,276.1,446.8z M299.2,462.1
		c-0.1,0.4-0.4,1.1-0.2,1.3c1.8,2,3.5,4.3,5.7,5.6c2.1,1.2,4.9,1.4,7.5,1.8c0.7,0.1,1.5-0.4,2.2-0.6c-0.6-0.6-1-1.4-1.7-1.8
		c-1.5-1-3.1-2-4.7-2.8c-2.6-1.3-5.3-2.4-7.9-3.5C299.9,462,299.7,462.1,299.2,462.1z M115.9,289.6c1.8,0.4,2.9,0.3,2.8-1.8
		c0-0.5,0.3-1.3,0.7-1.5c1.6-0.8,1.3-1.8,0.8-3.1c-0.5-1.3-0.9-2.6-1.5-3.8c-0.3-0.5-1.1-1.2-1.6-1.2c-1.2,0.2-2.4,0.7-3.4,1.2
		c-0.4,0.2-0.8,1.1-0.7,1.4c0.6,1.6,1.1,3.5,2.2,4.7C116.3,286.9,116.7,288,115.9,289.6z M469,408.9c-0.3-0.2-0.6-0.5-0.8-0.7
		c-1.4,0.9-3.1,1.6-4,2.9c-2.2,3.1-4,6.6-6,9.9c-0.3,0.5-0.3,1.1-0.4,1.7c0.6,0,1.3,0.1,1.9-0.2c2.9-1.5,4.8-3.6,5.4-7
		c0.3-1.4,1.4-2.7,2.2-4C467.8,410.6,468.4,409.8,469,408.9z M366.3,276.8c2.3-0.6,3-1.7,1.7-3c-1.4-1.4-3.1-2.6-4.8-3.6
		c-0.7-0.4-2.2-0.6-2.7-0.1c-0.7,0.7-1.2,2-1.1,3C359.5,275.9,363,277.7,366.3,276.8z M344.9,467.4c-0.6-2.3-1.8-2.7-4-2.4
		c-2.1,0.3-4.3-0.2-6.5-0.4c-0.7,0-1.4-0.1-2.1-0.1c0.4,0.7,0.6,1.9,1.2,2.2c2.8,1.3,5.7,2.5,8.6,3.5c0.8,0.3,2.1,0.2,2.7-0.3
		C345.2,469.5,344.9,468.2,344.9,467.4z M216.2,438.9c0.7-1.3,2-3,1.7-3.7c-0.8-1.5-2.3-2.8-3.9-3.7c-1.7-0.9-3.7-1.3-5.5-1.9
		c-0.6-0.2-1.2-0.1-1.8-0.1c0.2,0.7,0.1,1.7,0.5,2.1c1.3,1.3,2.9,2.4,4.4,3.5C212.9,436.4,214.3,437.5,216.2,438.9z M108.6,246.7
		c-0.2,0-0.4,0.1-0.6,0.1c0.1,2.7,0.1,5.3,0.3,8c0,0.3,0.7,0.9,1.1,0.9c0.4,0,1-0.6,1.1-0.9c0.2-1.1,0.2-2.3,0.2-3.4
		c0-4.4-0.1-8.7-0.2-13.1c0-0.5-0.4-1-0.7-1.5c-0.3,0.3-0.9,0.6-1,1c-0.7,2.6-1.4,5.3-2.1,8C107.5,246,108,246.3,108.6,246.7z
		 M437.6,437.4c-0.8-2.4-2.9-2.8-4.4-1.1c-0.8,0.9-1.2,2.1-1.9,3.1c-1,1.4-0.2,2.4,0.9,3c1.4,0.8,3.4,2,4.5,0.2
		C437.6,441.1,437.4,438.9,437.6,437.4z M295.8,460c-0.1-0.3-0.2-0.6-0.3-0.9c-1-0.3-2-0.7-3-0.8c-2.9-0.3-5.9-0.6-8.8-0.7
		c-0.5,0-1,0.7-1.5,1.1c0.4,0.4,0.8,1.1,1.2,1.1c3.5,0.6,7,1.2,10.6,1.7C294.6,461.5,295.2,460.5,295.8,460z M323.9,236.5
		c-0.9,2.4-0.8,2.4,2.3,3c1.3,0.2,2.4,1,3.6,1.4c0.6,0.2,1.2,0.2,1.8,0.3c-0.1-0.6,0.1-1.4-0.2-1.7c-1.9-1.8-3.9-3.6-6-5.2
		c-0.8-0.6-2.1-0.6-3.1-0.8C322.8,234.4,323.3,235.3,323.9,236.5z M238.7,254.6c-1.5,0.4-2.5,1.1-1.9,3.1c0.5,1.8,1.4,2.3,3.2,1.7
		c1-0.3,2.2-0.1,3.3-0.3c0.7-0.1,1.5-0.4,2-0.8c0.2-0.2,0-1.2-0.3-1.6C243.8,254.9,240.8,254,238.7,254.6z M331.3,469.9
		c-0.9-1.2-1.6-2.1-2.4-3.1c-1.4-1.7-2.6-3.5-4.2-5c-0.4-0.4-1.8,0.1-2.7,0.1c0.2,0.8,0.1,1.8,0.6,2.4c1.3,1.7,2.6,3.4,4.2,4.9
		c0.8,0.8,2.1,1.2,3.2,1.5C330.4,470.9,331,470.2,331.3,469.9z M258.7,255.6c0.1,0.3,0.1,0.6,0.2,0.9c2.9,1.4,6.4-0.2,9.2,1.8
		c0.5,0.4,1.3,0.3,2,0.4c1.4,0,2.9,0.1,3.6-2c-1.1,0-2,0-2.9,0c-3.3-0.1-6-3.2-9.5-1.9C260.5,255.1,259.6,255.3,258.7,255.6z
		 M214.4,476.1c0.3-1.3,0.7-2.5,0.6-2.6c-2.8-1.3-5.7-2.5-8.6-3.6c-0.4-0.1-1.2,0.6-1.5,1.1c-0.2,0.3,0,1.2,0.3,1.4
		C208.1,473.6,210.9,474.7,214.4,476.1z M350.9,249.9c-0.6-0.4-1.1-1-1.5-0.9c-0.6,0.1-1.3,0.6-1.7,1c-1.4,1.7-2.8,3.5-4.1,5.4
		c-0.4,0.6-0.8,1.3-0.9,2c0,0.3,0.8,1,1.1,0.9c0.7-0.2,1.4-0.7,2-1.2c1.1-1,2.3-1.9,3.1-3.1C349.8,252.8,350.3,251.3,350.9,249.9z
		 M262.5,446.6c-0.1-1.7-1.9-2.7-3.3-2.1c-1.8,0.7-1,2-0.5,3.1c0.8,1.5,1.8,3,2.9,4.3c0.3,0.4,1.5,0.6,1.9,0.3
		c0.4-0.3,0.7-1.3,0.5-1.9C263.8,448.9,263.1,447.8,262.5,446.6z M482.1,381.1c-2.1-2.2-4-4.5-6.2-6.6c-0.3-0.3-1.2,0.1-1.9,0.1
		c0.1,0.6-0.1,1.4,0.3,1.8c1.7,2.1,3.6,4,5.5,6c0.5,0.5,1.2,0.8,1.8,1.3C481.8,383,481.9,382.2,482.1,381.1z M210.8,280
		c1.2-0.4,2-0.5,2.6-0.9c0.5-0.3,1-1.1,0.8-1.5c-0.1-0.5-0.9-0.9-1.5-1.1c-0.4-0.1-1,0.2-1.5,0.3c-1.9,0.4-3.8,2-5.9,0.6
		c-0.2-0.1-0.8,0.5-1.2,0.7c0.3,0.4,0.4,1,0.8,1.2C206.9,280.5,209,281.2,210.8,280z M369.3,471.2c0,1.3-0.1,2.2,0.1,3.2
		c0.1,0.5,0.5,1.3,0.9,1.3c1.2,0.2,2.4,0.4,3.6,0.2c1-0.2,1.8-1,2.8-1.5c-0.9-0.6-1.8-1.2-2.7-1.7c-0.5-0.3-1.4-0.3-1.7-0.7
		C371.2,470.5,370.1,470.7,369.3,471.2z M336.3,227.7c-0.5,0.7-0.8,1.3-1.2,1.9c0.9,0.5,1.8,1.1,2.7,1.3c1.2,0.2,2.5,0.2,3.7,0
		c0.8-0.1,1.4-0.8,2.1-1.3c-0.4-0.6-0.8-1.7-1.2-1.8C340.5,227.6,338.5,227.7,336.3,227.7z M283,471c0,0.3,0,0.6,0,0.8
		c1.3,0.2,2.7,0.4,4,0.6c1.8,0.2,3.6,0.4,5.3,0.6c0.6,0,1.3-0.1,1.9-0.2c-0.4-0.5-0.8-1.4-1.3-1.5c-2.6-0.6-5.3-1-8-1.3
		C284.4,469.9,283.7,470.6,283,471z M354.1,445.4c-0.1,0.2-0.2,0.5-0.3,0.7c2.7,5.4,5.5,7.3,7.7,5.4c-1.4-1.7-2.8-3.4-4.4-4.9
		C356.4,445.9,355.2,445.7,354.1,445.4z M344.4,472.4c0,0.1,0,0.3,0,0.4c-0.6,0.2-1.2,0.3-1.7,0.6c-0.5,0.3-0.9,0.8-1.3,1.3
		c0.6,0.2,1.2,0.5,1.8,0.5c2.1,0,4.2,0,6.3-0.1c0.6,0,1.2-0.4,1.8-0.7c-0.5-0.6-0.9-1.6-1.5-1.7C348,472.3,346.2,472.4,344.4,472.4z
		 M448.6,435c-0.3-0.2-0.6-0.3-0.9-0.5c-0.6,1.2-1.1,2.4-1.7,3.5c-0.3,0.5-0.7,1.1-1.2,1.5c-0.9,0.7-2,1.2-2.9,1.9
		c-0.5,0.4-0.7,1.1-1,1.7c0.7,0.2,1.4,0.6,2,0.4c0.7-0.1,1.5-0.6,1.9-1.2C446.1,439.9,447.3,437.4,448.6,435z M369.1,302.6
		c0.9-0.7,1.5-1.2,2.2-1.7c1.6-1.2,1.3-2.1-0.4-3c-2.3-1.1-2.8,0.7-3.6,2c-0.4,0.6-0.6,1.8-0.3,2.2
		C367.4,302.6,368.4,302.5,369.1,302.6z M250,435.2c1.5,2.2,2.8,4.4,4.3,6.5c0.3,0.3,1.5,0.5,1.8,0.2c0.4-0.4,0.7-1.5,0.4-1.9
		C254.9,437.6,253.2,435.3,250,435.2z M127.5,292.7c-0.7-2.9-2.8-3.7-4.7-4.6c-0.3-0.1-1,0.1-1.2,0.4c-0.2,0.3-0.2,1,0,1.2
		c1.3,1.3,2.7,2.6,4.2,3.8c0.3,0.2,1.1,0.2,1.4,0C127.5,293.4,127.5,292.7,127.5,292.7z M346.7,482.7c0.3,0.7,0.5,1.1,0.8,1.6
		c0.2,0.4,0.7,0.8,0.8,1.2c0.3,2.2,1.3,2.9,3.6,2.4C350.9,482.9,350.4,482.4,346.7,482.7z M264.7,474.7
		C264.7,474.7,264.7,474.7,264.7,474.7c0.7-0.3,1.5-0.4,2.1-0.8c0.4-0.3,0.7-0.8,1.1-1.3c-0.6-0.3-1.1-0.8-1.6-0.7
		c-1.2,0.2-2.4,0.4-3.5,1c-0.8,0.4-1.5,1.3-2.2,1.9c1,0.1,2,0.2,3,0.2C264,475.1,264.4,474.8,264.7,474.7z M221.5,410.1
		c-0.4,2.1,0.6,3.8,1.6,5.5c0.2,0.3,1.1,0.3,1.4,0.1c0.4-0.3,0.9-0.9,0.9-1.4C225.6,412.6,223.7,410.6,221.5,410.1z M327.6,202.7
		c-0.1-0.2-0.1-0.4-0.2-0.6c-0.5-0.1-1.1-0.3-1.6-0.2c-2,0.2-3.6,1.2-4.6,3c-0.4,0.6-0.6,1.3-1,1.9c0.8-0.2,1.7-0.3,2.4-0.7
		c1.2-0.7,2.3-1.5,3.5-2.3C326.6,203.4,327.1,203.1,327.6,202.7z M414.2,473.6c0-0.3-0.1-0.6-0.1-0.9c-0.4-0.1-0.9-0.2-1.3-0.3
		c-1.6-0.3-3.1-0.7-4.7-0.8c-0.7,0-1.5,0.5-2.2,0.9c-0.1,0.1-0.1,0.9,0,1c0.6,0.2,1.3,0.3,1.9,0.3c0.7,0.1,1.5,0.1,2.3,0.1
		C411.5,473.9,412.9,473.7,414.2,473.6z M432.7,347.8c-0.9-0.9-1.7-1.7-2.6-2.4c-0.2-0.1-1.1,0.4-1.1,0.5c0.3,1.1,0.5,2.4,1.1,3.4
		c0.4,0.6,1.3,1,2,1.4C432.3,349.8,432.5,348.9,432.7,347.8z M379.2,468.9c-0.5,1.2-1.1,2.2-1,2.2c1.2,0.8,2.4,1.5,3.6,2.3
		c0.3-0.7,1.1-2,1-2.1C381.9,470.4,380.7,469.8,379.2,468.9z M416.7,452.6c-1.8-0.5-2.9-0.9-4.1-1.1c-0.2,0-0.5,1.3-0.8,2
		c1,0.4,2,0.9,3.1,1C415.3,454.6,415.8,453.7,416.7,452.6z M348.8,490.8c-2-0.8-3.5-1.5-5-2c-0.1,0-0.4,0.8-0.7,1.2
		c1.4,0.8,2.8,1.6,4.2,2.2C347.5,492.2,348,491.5,348.8,490.8z M315.4,477c-0.9-1.2-4.6-2.1-5.4-1.3c-0.3,0.2-0.2,1.5,0.1,1.6
		C311.9,478.5,313.7,477.9,315.4,477z M418.7,338.8c-0.7,0.8-1.1,1.4-1.6,2c0.9,0.4,1.9,1.1,2.8,1.1c0.5,0,0.9-1.4,1.3-2.1
		C420.4,339.5,419.7,339.2,418.7,338.8z M361.7,469c1,2.5,3.1,2.2,4.7,2.7c0.2,0.1,0.6-0.3,0.6-0.5c0-0.3-0.1-0.9-0.3-1
		C365.2,469.8,363.6,469.5,361.7,469z M390.7,474.2c0.1-0.3,0.2-0.7,0.2-1c-1.3-0.3-2.5-0.5-3.8-0.8c-0.1,0.5-0.4,1.1-0.2,1.4
		C388,475.1,389.3,474.8,390.7,474.2z M474.2,384.5c0.3-1.3,0.7-2.2,0.4-2.5c-0.5-0.5-1.4-0.7-2.1-1c-0.2,0.6-0.7,1.4-0.5,1.9
		C472.3,383.4,473.1,383.7,474.2,384.5z M396,475.3c-0.1-0.2-0.1-0.4-0.2-0.7c-0.9-0.1-1.8-0.3-2.7-0.2c-0.3,0-0.5,0.9-0.7,1.4
		c0.9,0.2,1.7,0.5,2.6,0.5C395.3,476.4,395.7,475.7,396,475.3z M357.3,452.5c-1.6-0.4-2.8-0.7-4-1c0.1,0.5,0,1.2,0.3,1.5
		C354.5,454.3,355.6,454.3,357.3,452.5z M216.2,401.2c-0.1,1-0.4,1.8-0.2,1.9c0.8,0.6,1.7,1.1,2.5,1.6c0.2-0.4,0.6-1.1,0.5-1.3
		C218.2,402.8,217.3,402.2,216.2,401.2z M403.4,474.5c-1-0.3-1.8-0.7-2.2-0.5c-0.4,0.2-0.8,1.1-0.6,1.6c0.1,0.4,1.2,1,1.4,0.9
		C402.6,476.1,402.8,475.4,403.4,474.5z M414,329.8c-1-0.9-1.6-1.5-2.3-2c-0.4-0.2-1-0.3-1.5-0.2c-0.2,0-0.4,0.7-0.3,0.9
		c0.2,0.4,0.6,0.9,1,1C411.8,329.7,412.7,329.7,414,329.8z M311.7,480.4c-1.3-0.1-2-0.4-2.6-0.2c-0.4,0.1-0.6,0.8-0.9,1.3
		c0.8,0.1,1.5,0.4,2.3,0.3C310.7,481.9,311,481.2,311.7,480.4z M325,475.1c0-0.2-0.1-0.4-0.1-0.7c-0.7-0.1-1.5-0.4-2.2-0.4
		c-0.3,0-0.6,0.6-1,1c0.6,0.3,1.2,0.8,1.8,0.9C324,475.9,324.5,475.4,325,475.1z M329.1,481.2c-1-0.5-1.7-0.8-2.3-1.1
		c-0.2,0.5-0.6,1.1-0.4,1.4c0.3,0.5,0.9,0.9,1.5,1C328.1,482.7,328.5,481.9,329.1,481.2z M352.2,451.1c0.2-0.1,0.4-0.2,0.6-0.3
		c0-0.7,0.1-1.4-0.2-2c-0.2-0.4-0.9-0.6-1.3-0.8c-0.1,0.6-0.4,1.3-0.3,1.8C351.2,450.3,351.8,450.7,352.2,451.1z M259.9,461
		c0.1-1.2,0.4-1.8,0.2-2.2c-0.2-0.5-0.9-0.8-1.3-1.2c-0.2,0.6-0.7,1.2-0.5,1.6C258.3,459.6,259,460,259.9,461z M321.6,301.2
		c2.3,0,4.5-0.1,6.8-0.1c0.7,0,1.4,0.2,2.1,0.1c0.9-0.2,1.7-0.5,2.5-0.8c-0.4-0.8-0.8-1.5-1.2-2.3c-0.4-0.7-0.7-1.6-1.3-2.2
		c-1.2-1.1-2.6-2-4.2-3.1c0.9-0.2,2.4-1,3.4-0.7c1.4,0.5,3,1.7,3.7,3c0.8,1.7,1.1,3.3,3.6,3c0.7-0.1,2,0.7,2.3,1.3
		c1,2.4,3.3,3.1,5.2,4.2c3.8,2.2,3.9,2.6,2.9,6.1c-0.2,0.6,0.4,1.8,1,2.3c1.8,1.4,2.3,3,1.8,5.3c-0.2,1,0.1,2.6,0.8,3.1
		c2.6,1.9,1.3,4,0.6,6.1c-0.6,1.7-1,3.4-1.7,5c-1.5,3.1,0.8,5.8,0.7,8.8c0,0.5,1.5,1.6,2.3,1.5c1.2-0.1,2.9-0.5,3.3-1.4
		c0.8-1.6,1.2-3.6,1.3-5.5c0.2-1.8-0.2-3.7-0.3-5.5c0-0.6,0-1.2,0.2-1.8c0.2-0.5,0.7-0.9,1-1.4c0.4,0.4,1,0.8,1.1,1.3
		c0.2,2,0.2,3.9,0.4,5.9c0.1,1.2,0.4,2.3,1,3.5c1.6-1.6,2.1-3.2,1-5.2c-0.3-0.4,0.1-1.2,0.2-1.9c0.6,0.4,1.6,0.7,1.6,1.1
		c0.1,2.3,0.3,4.8-0.2,7c-0.7,2.8-2.1,5.4-3.3,8.1c-0.6,1.4-4.7,1.4-5.8,0.4c-0.5-0.5-1.6-0.9-2.3-0.8c-2.9,0.4-3.5,0-4.7-2.7
		c-0.6-1.4-1.6-2.8-2.5-4.1c-0.2-0.3-0.8-0.5-1.2-0.4c-0.3,0.1-0.7,0.6-0.8,1c-0.1,0.7-0.1,1.5-0.1,2.3c0.2,2.9,0,5.6-1.4,8.2
		c-0.6,1.1,0,3,0.4,4.4c0.4,1.2,1.4,0.9,2-0.1c0.6-1.1,1.2-2.3,1.9-3.4c0.2-0.4,0.8-0.5,1.3-0.7c0.2,0.4,0.6,1,0.5,1.3
		c-0.4,1.8-0.5,3.6-2.1,5.1c-0.9,0.9-0.9,3-0.9,4.5c-0.1,1.1,0.3,2.3,0.6,3.4c0.2,0.5,0.7,0.8,1.1,1.2c0.3-0.5,0.9-1.2,0.8-1.6
		c-1.1-3,0.9-5.2,2-7.5c0.1-0.2,0.4-0.4,0.6-0.6c0.2,0.1,0.4,0.1,0.6,0.2c-0.3,0.8-0.4,1.7-0.8,2.4c-0.7,1.4-0.8,2.3,0.4,3.8
		c1.7,2.2,2.9,4.9,2.3,7.9c-0.4,1.7-0.4,3.6-1.1,5.2c-0.5,1.3-1.7,2.4-2.6,3.6c-0.2,0.3-0.8,0.2-1.2,0.3c-0.1-0.5-0.2-0.9-0.2-1.4
		c-0.1-1.2,0-2.5-0.3-3.6c-0.5-1.8-1.3-3.6-2.1-5.4c-0.3-0.6-1-1-1.4-1.4c-0.1,0.6-0.2,1.2-0.2,1.8c0,3.5,0.1,7.1-1.7,10.3
		c-0.5,1-2,1.7-3.2,2.1c-2.7,0.9-5.5,1.6-8.2,2.4c-0.7,0.2-1.5,0.5-2.5,0.8c0.2,1.5,0.3,3,0.7,4.4c0.5,1.8-0.1,2.7-1.8,3
		c-1.5,0.2-3.2,1.4-4.8-0.5c1.7-0.6,3.2-1,4.7-1.6c0.4-0.2,0.7-0.7,1-1.1c-0.5-0.3-1-0.7-1.4-0.7c-1.4,0-2.7,0.2-4.1,0.2
		c-0.6,0-1.1-0.5-1.7-0.7c0.4-0.5,0.8-1,1.2-1.3c0.2-0.2,0.6-0.2,0.9-0.2c2,0.5,3.3,0.3,2.3-2.3c-0.1-0.2,0.8-1,1.4-1.2
		c1.6-0.5,3.3-0.7,4.9-1.1c0.4-0.1,0.7-0.7,1-1.1c-0.4-0.3-0.8-0.7-1.2-0.7c-1.7,0-3.3,0.1-5,0.4c-2.6,0.4-5.3,0.9-7.9,1.2
		c-0.5,0.1-1.4-0.4-1.6-0.9c-0.2-0.6-0.2-1.6,0.2-2.1c0.9-1.3,4.3-2,5.6-1.3c3.5,1.9,6.3-0.3,9.3-1.6c1-0.5,2.1-1,3-1.6
		c0.6-0.5,1.7-1.5,1.5-1.8c-0.4-0.8-1.2-1.4-2-2c-0.5-0.3-1.2-0.4-2.6-0.7c1.8-0.9,3-1.5,4.2-2.1c0-0.3-0.1-0.6-0.1-0.8
		c-1-0.1-1.9-0.4-2.9-0.3c-1.6,0.2-2.7-0.3-3.9-1.5c-2.4-2.5-5.1-4.3-9-4.1c-3,0.1-6.1-0.6-9-1.2c-1.1-0.2-1.9-1.7-3-2
		c-1.8-0.4-3.8-0.1-5.7-0.4c-2.2-0.3-4.4-0.5-6.4-1.4c-2.6-1.2-5.1-1.6-8-1c-1.5,0.4-3.3-0.3-4.9-0.5c-1.6-0.2-2.9-0.2-3.3,1.9
		c-0.1,0.4-0.8,0.9-1.3,1.1c-3.4,1.8-6.7,3.5-10.1,5.3c-0.1,0.1-0.3,0.1-0.4,0.2c-0.6,1.1-1.2,2.3-1.7,3.4c1-0.4,2.1-0.9,3.1-1.3
		c2-0.8,3.9-1.7,5.9-2.4c0.3-0.1,1.1,0.4,1.2,0.7c0.1,0.3-0.3,1.1-0.6,1.2c-1.1,0.5-2.3,0.8-3.4,1.3c-0.8,0.4-1.6,1-2.1,1.6
		c-0.8,1.1-0.5,2,0.9,2c2,0,4.1-0.1,6.1-0.5c2.5-0.5,3.4,0,4.9,2.1c0.7,0.9,2.1,1.7,3.3,1.8c2.3,0.3,4.7,0.2,7,0
		c0.9-0.1,2-0.8,2.4-1.5c0.9-1.7,2-2.1,3.7-1.7c3.3,0.8,6.1,0.2,9-2.1c1.8-1.4,4.7-1.5,7.1-2.2c0.4-0.1,1,0.3,1.3,0.1
		c0.4-0.2,0.6-0.7,0.9-1.1c-0.4-0.2-0.8-0.5-1.2-0.5c-1.9-0.1-3.7-0.2-5.8-0.3c0.7-1.6,1.7-2.2,3.1-1.6c2.7,1.3,5.5,0.6,8.3,0.7
		c0.6,0,1.4,0.5,1.9,1c1,0.9,1.8,2.4,2.9,2.6c1.6,0.3,2.4,1.3,3.5,2.2c1.3,1,1.3,2.1,0.8,3.5c-0.8,2-5.1,3.8-6.4,3
		c0.9-1.2,1.8-2.4,3-3.9c-3-0.4-5.4-0.9-7.7-1c-1.5-0.1-2.7,0.7-2.1,2.6c0.1,0.4,0.1,0.8,0,1.1c-0.2,0.9-6,3.9-6.8,4.1
		c-1.5,0.3-3,1.1-4.5,1.4c-2.4,0.5-1.9,2.1-1.7,3.8c0.1,1.1,0,2.3-0.2,3.4c-0.1,0.4-0.6,1.2-0.8,1.1c-0.5-0.1-1.3-0.5-1.3-0.9
		c-0.1-1.3,0-2.6,0.1-3.9c0-0.9,0.3-1.7,0.1-2.5c-0.1-0.2-1.5-0.5-1.8-0.2c-0.5,0.5-0.8,1.3-0.9,2.1c-0.4,3.2-0.8,6.4-1.2,10.1
		c-0.7-0.6-1.5-1-1.5-1.3c-0.1-2-0.1-4.1-0.1-6.1c0-0.5,0.3-1,0.4-1.5c0.5-3.9-0.5-4.9-4.3-4.4c-0.6,0.1-1.1,1-1.6,1.5
		c0.8,0.2,1.6,0.4,2.5,0.7c0.3-0.1,0.5-0.2,0.8-0.3c0,2.3-0.1,4.7-0.1,7c0,2.4,0.1,4.8,0.1,7.1c0,0.3,0.1,0.6,0.2,0.9
		c0.3,1.3-0.2,2.4-1.5,2.2c-0.7-0.1-1.6-1.2-1.8-2c-0.6-2.1-1-4.2-1.4-6.3c-0.4-2-0.8-4.1-0.8-6.1c-0.1-3.5-0.5-3.8-3.9-4.1
		c-2.9-0.3-5.7-1.2-8.5-1.8c-1.3-0.3-2.7-0.4-4-0.9c-0.5-0.1-0.7-0.9-1-1.4c0.5-0.1,1.1-0.3,1.6-0.2c1.9,0.4,3.8,0.9,5.7,1.3
		c0.4,0.1,0.8-0.2,1.2-0.3c-0.3-0.5-0.4-1.2-0.8-1.4c-2.8-1.7-6-1.7-9-1.2c-1.8,0.3-3.4,0.9-4.6-1.2c-0.4-0.6-1.5-0.7-2.2-1
		c-1.2-0.6-2.4-1.2-3.5-1.7c-0.5-0.2-0.9-0.5-1.4-0.7c-4-1.5-7.9-3-11.8-4.5c0.2-1.3,0.1-2.1,0.4-2.8c0.2-0.5,0.8-1.1,1.3-1.2
		c1.8-0.4,3.7-0.8,5.5-1c1.7-0.2,3.5-0.4,5.1,0.1c2.7,0.8,3.7,0.3,5.4-2.1c1.9-2.5,4.9-3.4,8.3-3.5c-0.3,0.6-0.6,1.3-1.1,1.7
		c-1.6,1.2-3.4,2.4-5.1,3.5c-0.3,0.2-0.7,0.4-0.9,0.7c-0.4,0.8-0.6,1.6-0.9,2.4c0.7-0.3,1.5-0.5,2.2-0.9c1.6-1,3.1-2.2,4.6-3.2
		c1.6-1.1,3.5-2,4.9-3.3c3.6-3.5,7.8-4.5,12.6-3.7c1.9,0.3,3.8,0.2,5.6,0.6c1.5,0.3,3,0.9,4.4,1.6c3.1,1.7,9-1.1,10-4.5
		c0.3-0.9,1.2-1.9,2-2.4c1.1-0.6,2.5-0.8,3.7-1.2c1.6-0.5,3-0.1,4.2,1.2c1.3,1.3,3.2,1.6,5.2,0.8c0.2-2.8-3.1-1.7-4.1-3.8
		c1.4-0.5,2.7-0.8,3.9-1.3c0.4-0.2,0.7-0.9,1-1.4c-0.5-0.2-1-0.7-1.4-0.6c-3.8,1-7-1.2-10.6-1.4c-1.5-0.1-3-0.4-4.5-0.7
		c-0.8-0.2-1.8-0.3-2.3-0.9c-1.9-2-4.2-1.9-6.5-1.7c-1.9,0.2-3.9,0.4-5.8,0.6c-1.9,0.2-3,1.3-3.7,3c-0.7,1.7-1.5,1.7-2.5,0.1
		c-1.6-2.3-5.3-3.8-7.6-2.8c-1,0.5-1.9,1.5-2.6,2.3c-0.5,0.6-0.6,1.7-1.2,2.2c-0.6,0.6-1.6,0.7-2.5,1.1c-0.1-0.8-0.5-1.6-0.3-2.3
		c1.3-5,8.1-8.2,12.8-6.1c3.1,1.3,7.8-1.5,8.1-4.8c0-0.5,0.6-1.2,1.1-1.5c0.6-0.4,1.4-0.6,2.1-0.8c3.4-1.1,3.3-1.1,3.2,2.3
		c0,1.3,0.3,2.7,0.6,4.6c2.6-0.6,5.2-1.1,7.7-1.8c0.3-0.1,0.5-0.9,0.7-1.4c-0.5-0.1-1.1-0.4-1.6-0.4c-0.8,0.1-1.7,0.5-2.5,0.5
		c-0.5,0-1.4-0.5-1.5-0.9c-0.1-0.6,0.2-1.5,0.6-1.9c2.5-1.8,7.5-0.5,8.9,2.3c1.1,2.2,3.1,2.5,4.8,0.7c0.5-0.5,1.2-1,1.8-1.2
		c0.4-0.1,1.2,0,1.4,0.3c0.3,0.4,0.5,1.6,0.3,1.7c-1.7,0.9-1.4,2.7-1.9,4.1c-0.2,0.5-0.2,1-0.2,1.6c0.6,0,1.4,0.3,1.7,0.1
		c1.2-1,2.6-2,3.4-3.3c1.5-2.4,2.4-2.9,5.2-2c1.3,0.5,5.3-1.2,5.7-2.5c0.1-0.5-0.5-1.1-0.7-1.7c-0.1-0.4-0.2-0.9-0.2-1.4
		c0.4,0.1,0.9,0.2,1.3,0.4c0.6,0.2,1.1,0.5,1.7,0.8c0.1-0.7,0.5-1.5,0.2-2c-0.5-1-1.2-2.4-2.1-2.7c-2.5-1-4.4-2.5-5.9-4.8
		c-0.4-0.7-1.5-1.1-2.3-1.3c-2-0.5-4-0.8-6-1.4c-0.9-0.3-1.6-1.2-2.7-2c2.3-0.3,4.1-0.6,6.2-0.9c-1.2-2.7-3.7-3.1-5.6-3.1
		c-2.8,0-4-2.1-6.1-3.1c2.3-1.4,4.7-0.5,6.7,0.3c3.1,1.2,6.1,2.9,9.1,4.4c3.9,2,7.7,1.9,11.5-0.2c0.8-0.4,1.6-0.9,2.4-1.3
		c1.8-1.1,2-3.2,0-3.9c-2.9-1.1-5.9-1.9-9-2.4c-1.3-0.2-2.7,1-4.1,1.1c-1.9,0.2-3.8,0-5.7-0.3C322.7,303.6,321.3,303.5,321.6,301.2z
		 M343.1,333.6c0.6,0.1,1.1,0.2,1.1,0.1c1-1.6,3.7-2.2,2.9-5c-0.1-0.5,0.9-1.3,1.3-2c0.5-0.8,1.5-1.7,1.4-2.3
		c-0.4-1.4-1.1-2.8-2.1-3.9c-1.1-1.1-1.6-2.1-1.1-3.6c0.6-1.8-0.8-3.6-2.7-3.5c-2.1,0.1-4.1,0.3-6.1,0.7c-1.9,0.3-2.2,1.3-1,2.7
		c1.6,1.9,2.5,1.9,5.2-0.2c1.4,1.9,1.4,1.9-0.3,3.4c-0.7,0.6-1.5,1.8-1.3,2.5c0.5,2.4,1.1,4.9,2.3,6.9
		C343.6,330.8,344.5,331.9,343.1,333.6z M336.7,338.6c2.3-0.2,3.1-1.7,1.8-3.9c-0.3-0.5-0.5-0.9-0.7-1.4c-1-2.1-2.3-2.3-4.1-0.9
		c-1.3,1-3,1.8-4.5,2.6c-0.5,0.3-1.3,0.3-1.7,0.7c-0.4,0.4-0.9,1.2-0.8,1.6c0.1,0.5,0.8,1.1,1.3,1.3c2,0.8,4.1,1.6,6.2,2.3
		c0.9,0.3,1.8,0.2,2.8,0.2C336.9,340.3,336.8,339.5,336.7,338.6z M335.7,347.3c-1.5-1.5-2.8-3.1-4.4-4.2c-1.1-0.7-2.7-0.7-4.2-0.8
		c-0.4,0-1,0.4-1.2,0.8c-0.1,0.4,0.1,1.2,0.4,1.4c2.4,1.6,4.9,3.1,7.3,4.5c0.4,0.2,1.2,0.1,1.4-0.1
		C335.4,348.5,335.5,347.9,335.7,347.3z M339.8,368.8c-0.1,0-0.2,0-0.3,0c-0.2-0.4-0.3-1-0.6-1.2c-0.6-0.4-1.3-0.7-2-1
		c0,0.6-0.2,1.4,0.1,1.9c1.9,3.7,1.8,5.5-0.6,8.2c-0.3,0.3-0.3,1.3-0.2,1.4c0.9,0.4,1.9,0.8,2.8,0.7c0.6-0.1,1.4-1.1,1.4-1.6
		C340.3,374.3,340,371.6,339.8,368.8z M253.3,360.9c-0.8,0.9-1.3,1.5-1.9,2.2c0.7,0.4,1.3,1,2,1.1c1.4,0.3,2.8,0.5,4.2,0.4
		c0.7,0,1.4-0.7,2-1.2c-0.4-0.6-0.8-1.7-1.4-1.9C256.8,361.1,255.1,361.1,253.3,360.9z M327.9,358.8c-0.4,0.4-0.9,0.8-0.9,1
		c0.2,0.5,0.5,1.1,1,1.4c1.5,0.9,3,1.7,4.6,2.4c0.5,0.2,1,0.1,1.6,0.2c-0.2-0.6-0.2-1.4-0.6-1.7c-1.1-1-2.4-1.9-3.7-2.7
		C329.3,359,328.6,359,327.9,358.8z M327.6,350.6c0.1,0.8,0,1.8,0.4,1.9c1.3,0.7,2.6,1.3,4,1.7c0.5,0.1,1.4-0.6,1.8-1.1
		c0.2-0.3-0.2-1.5-0.5-1.5C331.5,351.1,329.8,350.9,327.6,350.6z M313.9,335.9c-0.2-2.3-1.6-2.7-2.9-3c-0.4-0.1-1.1,0.4-1.4,0.9
		c-0.1,0.2,0.3,1.1,0.7,1.2C311.4,335.5,312.5,335.6,313.9,335.9z M291.4,382.8c-0.2,0-0.4,0-0.6,0c-0.4,0.8-0.8,1.6-1,2.5
		c-0.1,0.3,0.4,0.8,0.6,1.2c0.3-0.3,0.9-0.6,0.9-0.9C291.4,384.7,291.4,383.7,291.4,382.8z M387.5,415.9c0.2,1.7,0.3,3.3,0.6,4.8
		c0.2,0.8,0.8,1.9,1.4,2.1c0.8,0.2,1.9-0.4,3.4-0.8c-1-0.8-1.5-1.1-1.8-1.4c-0.3-0.3-0.6-0.7-0.8-1.2c0,0,0.4-0.4,0.4-0.4
		c0.4,0.2,0.9,0.5,1.2,0.8c0.3,0.3,0.6,0.7,0.8,1.1c1.9-1.9,2-6.5,1-8.5c-1.2-2.5-1.8-5.3-2.7-8c-0.4-1-1-1.9-1.5-2.8
		c-0.6,0.4-1.1,1-1.8,1.2c-0.5,0.1-1.5-0.2-1.6-0.5c-0.6-2.2-2.4-4.1-1.7-6.7c0.2-0.7-0.3-1.9-0.9-2.5c-1.3-1.6-0.9-3.2-0.2-4.7
		c1.8-3.8,1.2-8.7-1.7-11.9c-1.8-2-3.4-4.1-5.2-6.1c-0.5-0.5-1.3-0.8-2-1c-1.4-0.5-2.8-0.9-4.2-1.4c0.1-0.3,0.1-0.5,0.2-0.8
		c0.4-0.1,0.7-0.2,1.1-0.2c2.5-0.1,2.5-0.1,1.5-2.4c-1-2.3-2-4.7-1.1-7.3c0.2-0.6,0.7-1.2,1-1.7c0.4,0.6,0.9,1.2,1.1,1.8
		c0.6,2.6,1,5.2,1.6,7.8c0.2,0.6,1,1.1,1.5,1.6c0.2-0.7,0.4-1.3,0.4-2c0.1-1.6,0.1-3.1,0.1-5.1c2.1,4.3,4,8.3,6,12.3
		c-0.5,0-1.4-0.1-2.6-0.1c0.1,0.7,0,1.5,0.3,1.9c2.9,3,4.7,6.5,6.1,10.3c0.2,0.5,1.4,1.1,1.9,0.9c0.5-0.3,1.1-1.3,1-1.9
		c-0.4-1.8-0.8-3.6-2.7-4.5c-0.5-0.2-1.2-0.6-1.4-1.1c-0.4-0.7-0.4-1.5-0.6-2.3c0.7,0,1.4,0,2,0c0.7,0,1.5,0.1,2.2,0.1
		c0-0.7,0.2-1.5,0-2.2c-0.3-1-0.8-1.9-1.3-2.9c0.2-0.2,0.3-0.4,0.5-0.6c0.9,0.7,1.9,1.4,2.8,2.2c0.9,0.8,1.6,1.7,2.5,2.5
		c0.4,0.4,1.1,0.6,1.2,1c0.9,2.4,1.7,4.9,2.4,7.4c0.1,0.4-0.1,1-0.3,1.5c-0.4,0.8-1.3,1.6-1.2,2.1c0.7,2.2,1.6,4.3,2.7,6.3
		c0.1,0.3,1.3,0.2,1.9,0.1c2.9-0.6,3.7,0.3,3.8,3.3c0.1,2,0.7,4.1,1.3,6c0.2,0.6,1.2,0.9,2.2,1.6c-0.3-5.2-0.3-5.2,0.9-6.5
		c0.7,1.3,1.4,2.5,1.8,3.7c0.7,1.9,1.7,2.3,3.5,1.6c0.7-0.3,1.9-0.3,2.4,0.1c0.8,0.6,1.1,1.5,0.4,2.8c-1.4,2.5-2.6,5-3.5,7.7
		c-1.2,3.8-0.9,7.5,0.7,11.2c1.2,3-0.1,4.2-3.3,3.4c-1.3-0.3-2.6-1-4-1c-0.7-0.1-1.9,0.5-2.2,1.2c-0.3,0.5,0.1,1.7,0.6,2.2
		c1.1,1.2,2.5,2.2,3.8,3.3c0.5,0.4,0.8,1,1.2,1.5c-0.6,0.3-1.2,0.8-1.8,0.8c-3.2,0.3-8.7-2.9-10-5.9c-0.9-2-1.6-3.2-4.2-2.4
		c-1.5,0.5-3.3,0-4.4-2c-1.2-2.4-3.4-2.5-5.2-0.4c-1.9,2.1-6.1,1.7-8-0.6c-1.1-1.3-2.4-2.5-3.8-3.5c-2.1-1.5-4-3.1-4.6-5.7
		c-0.1-0.5-0.1-1.4,0.3-1.7c0.3-0.3,1.1,0,1.6,0.2c1,0.3,2,0.6,3,1c0.5,0.2,1,0.6,1.4,1c1.8,2.3,3.6,4.6,5.3,7
		c0.3,0.4,0.3,1.1,0.5,1.5c0.3,0.5,0.8,1,1.3,1.5c0.1,0,0.7-0.3,0.7-0.4c-0.1-0.7-0.1-1.4-0.4-1.9c-0.7-1.2-1.6-2.3-2.3-3.5
		c-0.5-0.9-0.7-1.9-1.1-3.1c2.3-0.2,2.4,1.2,2.7,2.3c0.5,1.7,1.1,3.2,2.9,3.8c0.4,0.1,1,0.2,1.4,0c0.2-0.1,0.2-0.8,0.1-1.2
		c-0.3-1-0.7-1.9-0.9-2.8C384.9,416.6,385.7,415.8,387.5,415.9z M395.1,409.3c0.2-0.1,0.3-0.2,0.5-0.2c0.1-1.3,0.2-2.6,0.3-4
		c0.2,0,0.5,0,0.7,0c0.5,1,0.8,2.1,1.4,3.1c0.4,0.7,1.2,1.2,1.8,1.8c0.8,0.7,1.7,1.2,2.3,2c0.8,1.1,1.2,2.5,2,3.6
		c0.3,0.4,1.2,0.3,1.8,0.5c0.1-0.6,0.2-1.1,0.2-1.7c0-1.6-0.1-3.3-0.1-4.9c0-1.2,0.5-2.9-0.1-3.4c-2.2-2-2.8-4.6-3.4-7.2
		c-0.7-2.9-2.9-3.6-5.1-4.4c-0.5-0.2-1.1,0.2-1.7,0.3c0.2,0.6,0.2,1.3,0.6,1.8c1,1.4,2.2,2.6,3.1,4c0.4,0.6,0.3,1.5,0.4,2.3
		c-0.7-0.1-1.5-0.1-2.1-0.4c-2.1-1-4-7.7-3-10.2c0.9-2.3,0.2-5.2-1.7-7.1c-2.1,2.3-4.2,4.6-6.3,7c0.6,0.6,1.1,2.5,2.7,0.6
		c0.4-0.5,1-0.7,1.5-1c0.2,0.7,0.6,1.4,0.6,2.1c0.3,2.2,0.4,4.3,0.7,6.5c0.1,0.7,0.4,1.5,0.6,2.2
		C393.6,404.9,394.4,407.1,395.1,409.3z M411.6,408.1c-0.4-0.2-0.9-0.8-1.2-0.6c-0.7,0.3-1.6,0.8-1.7,1.3c-0.4,2.4-0.9,4.8-0.8,7.2
		c0,0.7,1.8,1.3,2.8,2c0.2-0.7,0.4-1.4,0.5-2.1c0.1-0.6,0.1-1.2,0.2-1.8C411.5,412.1,411.6,410.2,411.6,408.1z M399.5,425.9
		c0.1,0,0.3,0,0.4,0c0.1,0.3,0.2,0.6,0.3,0.9c0.5,1,0.8,2.4,2.4,1.8c1.5-0.6,0.7-1.7,0.5-2.7c-0.2-1.3-0.2-2.7-0.5-4
		c-0.1-0.7-0.5-1.4-0.7-2.1c-0.7,0.5-1.9,0.8-2,1.4C399.4,422.8,399.6,424.4,399.5,425.9z M268.9,322c0.4-2.3,1.5-3.9,3.9-4.7
		c0.8-0.3,1.3-1.3,2-1.9c-0.9-0.3-1.8-0.7-2.7-0.7c-2.6,0-5.2,0.1-7.8,0.2c-0.6,0-1.3-0.1-1.8,0.2c-3,1.4-5.8-0.5-8.7-0.4
		c0,0-0.4-1.7-0.2-1.9c0.6-0.4,1.7-0.8,2.3-0.5c2,0.7,3.6,0.1,5.1-1.1c3.7,2.5,15.5,2.2,17.9-0.8c-1.3-0.4-2.6-0.5-3.7-1.1
		c-2.3-1.3-4.4-2.8-6.6-4.2c-0.2-0.1,0-1.1,0.2-1.3c0.3-0.2,1-0.1,1.4,0.1c2.1,1.2,4.2,2.5,6.3,3.6c1.2,0.6,2-0.5,2.1-2.5
		c1.8,0,3.3-0.1,4.6,1.8c1.3,1.8,3.4,0.9,3.7-1.4c0.4-3,2.5-5,4.7-6.7c1.6-1.3,2-2.6,1.5-4.6c-0.4-1.5-0.4-3.3-0.3-4.9
		c0-0.3,1-0.6,1.5-0.9c0.3,0.5,0.8,1,0.8,1.5c-0.4,5,0.2,5.9,5,6.7c2.4,0.4,4.9,1.4,6.8-0.1c-1.1-2.7-2.2-5.2-3-7.8
		c-0.3-0.9,0-2.3,0.5-3.1c0.5-0.7,1.7-1,2.6-1.4c0.1,0.9,0.6,2,0.2,2.6c-1.3,2.3,0,4.3,0.6,6.4c0.2,0.6,1,1.2,1.6,1.3
		c0.4,0.1,1-0.6,1.5-1c0.5-0.4,1-0.8,1.4-1.2c0.4,0.5,1,1,1.1,1.5c0.6,2.6,1.8,4.5,4.4,5.4c0.8,0.3,1.5,1,2.2,1.5
		c-0.1,0.2-0.1,0.4-0.2,0.6c-1.5-0.3-3-0.6-4.5-0.8c-2-0.3-4-0.5-6-0.7c-0.7-0.1-1.4-0.2-2-0.1c-1.3,0.2-2.6,0.3-3.7,0.8
		c-1.7,0.8-3.2,1.9-4.8,2.8c-2.3,1.3-4.8,2.4-6.8,4c-1.1,0.8-1.5,2.5-2.4,4.1c-0.3-0.3-0.9-0.8-1.2-1.4c-0.9-1.7-2.1-1.3-3.2-0.3
		c-1.1,1-1.9,2.1-3,3.1c-0.5,0.5-1.4,0.6-2.1,1c-0.8,0.4-1.6,0.8-2.9,1.4c2.7,0.8,4.8,1.3,6.9,1.9c0.5,0.1,1.2,0.1,1.4,0.5
		c1.6,2,2.4,1,3-0.7c0.5-1.5,1.6-2.5,2.8-1.8c0.9,0.5,1.2,2.2,1.5,3.5c0.1,0.4-0.4,1.1-0.8,1.6c-1.9,2.7-9.6,3.7-12.4,1.6
		c0.3-0.3,0.6-0.6,0.9-0.9c0.3-0.2,0.6-0.4,0.9-0.7c-1.1-2.2-3.7-2.1-6.2-0.3c-1.8,1.4-4,2.3-6,3.4
		C269.3,322.6,269.1,322.3,268.9,322z M299.3,299.1c-1.4-0.3-2.9-1.1-3.6-0.7c-1.8,1.1-3.4,2.6-4.9,4.1c-0.4,0.4-0.4,1.4-0.3,2.1
		c0,0.2,1.1,0.6,1.4,0.5c2.2-1.4,4.4-3,6.5-4.5C298.7,300.3,298.8,299.9,299.3,299.1z M428.9,429.2c3.9,0.2,7.9,0,11.4,2.4
		c1.2,0.8,2,0.1,1.8-1.4c-0.2-2.4,0.3-4.4,3-5.1c1.6-0.4,1.7-1.6,1.3-3.1c-0.7-3.2-2.6-5.3-5-7.4c-1.4-1.3-2.5-1.3-3.1-0.1
		c-1.7,3.3-5,4.1-8,5.3c-0.8,0.3-2.4,0.1-2.9-0.5c-0.9-0.9-0.4-2,0.8-2.8c1.1-0.8,2.6-2.1,2.6-3.1c-0.1-1.9-1-3.8-2-5.4
		c-0.6-1-2.2-1.5-3.4-0.1c-0.4,0.5-1.1,0.8-1.6,1.2c-1.5,1.1-3.8,2-4.4,3.5c-1.2,2.8-2.6,5.9-0.7,9.2
		C420.6,425.9,423.8,428.9,428.9,429.2z M279,410c-0.9-0.2-2.3,0-3.1-0.6c-2.7-2.3-5.3-4.8-7.9-7.2c-1.5-1.4-3-2.7-4.6-4.1
		c-0.9-0.8-1.5-1.6-0.3-2.4c1-0.7,1.9-0.7,2.7,0.5c0.6,1,1.6,1.9,2.5,2.7c0.3,0.3,0.9,0.2,2.1,0.4c-1.1-1.8-1.7-3-2.5-4.2
		c-0.3-0.4-0.9-0.7-1-1.2c-0.2-1.1-0.3-2.2-0.4-3.4c0.8,0.7,1.7,1.2,2.3,2c2.1,2.7,4.2,5.4,6.3,8.1c0.3,0.4,0.7,0.9,0.9,1.3
		c0.6,1.4,1.2,2.3,2.4,0.4c0.7-1.2,1.5-0.8,2.5,0c2.5,2,5,3.9,7.6,5.9c0.1,0.1,0.3,0.2,0.4,0.2c1.4,0.5,2.9,0.9,4.3,1.3
		c0.3-1.2,0.6-2.5,1-4.2c0.7,0.6,1.8,1.2,2.3,2c1.3,2.4,3.4,3.6,6.2,3.6c2.9,0,5.8,0.3,9.1,0.5c-1.7-2.2-4.5-3.1-3.9-6.3
		c3.3,2.2,6.5,4.5,10,6.5c1,0.6,3.2,0.6,3.6,0c1.1-1.4-0.7-1.8-1.6-2.3c-1.1-0.6-2.4-0.9-3.2-1.7c-0.4-0.4-0.1-1.5-0.2-2.4
		c0.7,0.2,1.3,0.5,2,0.7c0.7,0.1,2,0.4,2.2,0.1c0.8-1.2,1.6-1,2.5-0.5c2.3,1.1,4.6,2.2,6.8,3.4c0.6,0.3,1.4,1.6,1.2,1.9
		c-0.7,1.2-1.5,2.7-2.7,3.1c-1.4,0.6-3.2,0.2-4.9,0.3c-0.9,0.1-1.9,0.5-2.8,0.7c-1.3,0.4-2.7,1-4,1.1c-3.6,0.1-7.2,0.1-10.8-0.2
		c-2.5-0.2-4.9-0.9-7.3-1.6c-3.7-1.1-7.4-2.2-11-3.7c-2-0.8-3.8-2.3-5.7-3.3c-0.7-0.4-1.5-0.4-2.3-0.6
		C279.4,407.6,279.2,408.5,279,410z M322.4,407.4c-0.1,1-0.3,1.7-0.2,1.8c0.8,0.5,1.6,0.9,2.5,1.2c0,0,0.6-1.1,0.6-1.1
		C324.5,408.6,323.6,408.1,322.4,407.4z M207.8,344.1c-0.4,0.2-0.9,0.4-1.4,0.5c-1.7,0.3-3.4,0.5-5.2,0.7c-1.1,0.1-2.3,0-3.3,0.3
		c-1.9,0.5-3.8,1.2-5.7,2c-0.5,0.2-0.9,1-1.4,1.1c-4,1.3-7.3,3.8-10.5,6.5c-0.7,0.6-1.2,1.3-1.9,1.9c-2.6,2.2-5.3,4.4-8,6.6
		c-3.9,3.3-6.1,7.8-8.4,12.2c-0.5,1-1.1,2.2-2,2.8c-2.9,1.7-5.9,3.1-8.9,4.6c-0.5,0.2-1.1,0.3-1.4,0.7c-3.7,4.4-9.3,7.1-11.2,13
		c-0.3,0.9-1.2,1.5-1.7,2.4c-0.3,0.6-0.3,1.4-0.4,2.1c0.3,0.1,0.6,0.2,0.8,0.3c1.5-1.7,3-3.4,4.5-5.1c1.4-1.6,2.3-3.7,4-4.9
		c2.7-1.9,5.9-3.1,8.9-4.7c0.5-0.3,1-0.7,1.5-1.1c1.9-1.8,4.1-3.5,5.7-5.5c1.8-2.4,3.8-5,4.6-7.8c0.8-2.8,2.6-4.9,4.5-6.3
		c2.3-1.7,5.1-2.7,7.1-5.1c1.7-2,3.9-3.5,5.9-5.2c0.6-0.5,1.1-1.3,1.9-1.6c6.4-2.7,13.2-4.2,20.1-5.2c3.9-0.6,7.8-1.6,11.6-2.6
		c1-0.3,1.7-1.5,2.6-2.3c-1.8-2-3.3-1.2-4.9-0.7c-2.2,0.8-2.5,0.6-2.6-2.3C211,342.3,209.4,343.3,207.8,344.1z M356.3,370
		c-0.2,0.9-0.5,1.8-0.5,2.8c-0.1,3.3-1.2,5.9-4,7.8c-1.2,0.8-2.5,1.5-3.6,2.3c-0.4,0.3-0.6,0.9-0.6,1.3c0,0.2,0.6,0.5,1,0.6
		c0.6,0.2,1.4,0.2,1.9,0.6c1.3,1,4.8,1.3,6.1,0.5c1.9-1.3,3-1,3.9,1c0.6,1.3,1.2,2,2.7,1.9c2.7-0.2,5.3-0.2,8,0
		c0.7,0,1.8,0.9,1.9,1.4c0.1,3.8,0.4,7.6,0,11.3c-0.5,3.7,0.3,6.1,3.5,7.9c0.9,0.5,1.6,1.3,2.1,2.2c0.9,1.4,1.8,2.2,3.3,0.8
		c1.6-1.4,3.1-2.9,4.6-4.4c0.4-0.4,0.3-1.2,0.4-1.7c-0.7,0-1.4-0.2-2,0c-0.4,0.1-0.6,0.9-1.1,1.1c-1.3,0.6-2.7,1-4,1.5
		c-0.2-1.4-0.5-2.8-0.5-4.3c0-0.5,0.5-1.1,0.8-1.6c0.3-0.6,0.6-1.1,0.7-1.7c0.1-0.4-0.2-0.9-0.3-1.4c-0.4,0.2-1,0.3-1.3,0.7
		c-0.7,1.1-1.2,2.3-1.9,3.4c-0.2,0.3-0.8,0.6-1.2,0.6c-0.2,0-0.5-0.7-0.6-1.1c-0.1-1.7-0.2-3.3-0.1-5c0.2-3.1,0.6-6.1,3.5-8.1
		c3.5-2.4,2.9-5.8,2.6-9.9c-0.5,0.8-0.7,1.1-0.8,1.4c-0.9,2.1-1.8,4.2-2.9,6.2c-0.3,0.6-1.3,1.1-2,1.2c-0.3,0.1-1.2-0.7-1.2-1.1
		c0-0.7,0.4-1.5,0.8-2.1c0.9-1.5,1.8-3,2.7-4.5c-0.3-0.2-0.5-0.4-0.8-0.6c-0.5,0.4-1.1,0.8-1.5,1.3c-3.2,3.8-7.4,4.6-12.1,3.9
		c-0.4-0.1-0.9-0.5-0.9-0.8c0-0.3,0.4-0.8,0.7-1c0.7-0.3,1.5-0.4,2.2-0.7c3-1.3,3.7-4.1,1.5-6.6c-2.1,0.8-1.9,4.4-5.4,4.1
		c0.6-1.5,1.2-2.8,1.6-4.1c0.1-0.4-0.2-1.1-0.4-1.6c-0.4,0.2-1,0.4-1.3,0.8c-0.3,0.4-0.4,1-0.7,1.4c-1.5,1.8-2.9,3.7-4.7,5.2
		c-0.7,0.7-2.1,0.6-3.2,0.9c-0.1-0.2-0.2-0.4-0.3-0.6c3.1-3.9,7-7.5,4.3-13.1C356.9,370.1,356.6,370.1,356.3,370z M350.2,305.9
		c0.8-0.2,2.2-0.2,2.4-0.7c1.2-2.2,2.1-4.5,3-6.8c0.4-1,0.4-2.1,0.9-3c0.9-1.7,1-2.9-1.2-3.8c-1.7-0.6-2.8-3.4-2.5-5.3
		c0.1-1-0.1-2.2-0.6-3.1c-0.2-0.3-1.6,0.1-2.5,0.3c-0.9,0.1-1.8,0.3-2.7,0.5c-0.2-0.3-0.4-0.6-0.6-0.9c1.8-2.7,3.6-5.3,5.4-8
		c0.2-0.3,0.3-0.8,0.2-1c-0.2-0.3-0.7-0.6-1.1-0.7c-2.1-0.2-4.2,1.7-4.2,3.9c0,0.6-0.1,1.4-0.5,1.9c-2,2.2-4,4.4-6.2,6.7
		c1.2,0.9,2.2,1.7,3.4-0.2c0.7-1.1,1.6-0.8,1.9,0.4c0.6,1.8-0.1,3.3-1.1,4.9c-0.5,0.9-0.5,2.3-0.3,3.3c0.2,1.2,1.1,2.3,1.4,3.5
		c0.4,1.4,1.1,1.7,2.3,1.3c2.5-0.8,3.7-2.7,4.9-4.8c0.4-0.6,1.1-1.1,1.6-1.6c0.1,0.8,0.4,1.7,0.2,2.4c-0.7,2-2.1,3.9-2.3,5.9
		c-0.2,1.9-0.6,3.2-2.5,4C350,305.3,350.1,305.6,350.2,305.9z M151,412.4c0.3-0.4,0.4-0.9,0.6-1.3c-0.5-0.2-1.1-0.6-1.6-0.5
		c-0.6,0.1-1.2,0.6-1.7,0.9c-0.8,0.4-1.6,0.9-2.4,1.3c0.1-0.9-0.1-1.9,0.3-2.7c0.8-1.7,0.4-2.9-0.9-4.4c-0.7,0.6-1.4,1.1-1.9,1.7
		c-1.2,1.7-2,1.4-2.7-0.4c-0.4-0.9-0.7-1.9-1.2-2.7c-0.4-0.7-1.1-1.1-1.7-1.7c-0.2,0.1-0.4,0.3-0.7,0.4c0.3,1.2,0.5,2.5,1,3.6
		c0.9,1.9,2.4,3.6,3.1,5.5c1.8,4.5,4.3,8.4,8.4,10.9c0.7,0.5,2,0.2,3,0c0.4-0.1,1.1-1,1-1.3c-0.9-2.5,0.7-4.2,1.5-6.3
		c0.2-0.6,0-1.3,0-1.9c-0.7,0.1-1.4,0-1.9,0.3c-0.7,0.4-1.1,1.2-1.6,1.9c-0.5,0.6-1,1.2-1.7,2C148.2,415.1,149.8,413.8,151,412.4z
		 M325.8,324.2c-3.2-4.5-7.9-6.7-12.8-8.7c-0.5-0.2-1.4-0.6-1.4-0.9c0-0.7,0.4-1.4,0.8-2c0.3-0.6,0.8-1.1,1.2-1.7
		c-1.2-0.3-2.3-0.8-3.6-1c-0.3,0-1,0.7-1,1.1c0.1,1.7-1,2.2-2.4,2.6c-1.1,0.3-2.5,0.5-2.3,2.2c1.3,0.2,2.6,0.2,3.9,0.5
		c0.5,0.1,0.9,0.8,1.4,1.2c-0.5,0.3-0.9,0.8-1.4,0.9c-0.6,0.1-1.3-0.2-2-0.2c-1.8-0.1-3.7-0.3-5.5-0.3c-0.5,0-0.9,0.8-1.4,1.2
		c0.4,0.3,0.8,0.9,1.3,1c2.9,0.2,5.8,0.2,8.7,0.5c2.9,0.2,6-0.4,8.7,1.4c1.7,1.1,3.4,2,5.3,2.9c0.7,0.3,1.7,0.1,2.6,0.2
		C325.7,324.8,325.8,324.5,325.8,324.2z M248.5,298c-2.7-1.8-2.7-1.8-4.2,0.7c-0.4,0.7-1,1.5-1.7,1.8c-2.5,1-5,2-7.6,2.7
		c-3.1,0.8-5.9,1.6-5.3,5.7c0.1,0.8,0.2,1.6,0.3,2.4c0.6-0.5,1.4-1,1.8-1.7c1.4-1.9,2.3-4.2,5.5-3.6c1,0.2,2.2-0.9,3.3-1.3
		c0.6-0.3,1.3-0.5,2-0.7c0,0.7,0.2,1.6-0.1,2.2c-1.3,2.5-0.6,7,1.5,8.8c0.2,0.2,0.7,0.2,1.9,0.4C242.2,308.5,245.7,303.3,248.5,298z
		 M393.5,367.7c0.7,1.2,1.1,2.7,2.1,3.4c3.3,2.5,3.9,6.4,5.7,9.7c0.2,0.3,0,0.9,0,1.4c-0.1,1.3-0.4,2.6-0.3,3.8
		c0,0.7,0.6,1.3,0.9,1.9c0.5-0.7,1.3-1.3,1.4-2c0.2-1.8,0-3.6,0.2-5.4c0.2-1.9-0.2-3.4-1.6-4.8c-0.5-0.4-0.9-1.7-0.6-2
		c0.8-1.1,1.8-2.1,3-2.7c0.5-0.3,1.6,0.7,2.5,0.9c0.5,0.1,1.1-0.1,1.6-0.2c-0.2-0.5-0.2-1.4-0.5-1.5c-1.5-0.6-3-1.1-4.5-1.3
		c-2.8-0.4-6.1,1.4-8.4-1.6c-0.1-0.1-0.4-0.1-0.7-0.1C394,367.4,393.7,367.6,393.5,367.7z M257.4,347.5c1.8-0.6,2.8,0.3,3.8,1.4
		c0.4,0.4,0.6,1.5,0.4,1.9c-0.3,0.5-1.3,0.7-2,0.7c-1,0-1.9-0.6-2.9-0.6c-0.6,0-1.4,0.4-1.9,0.8c-0.3,0.2-0.3,1.3-0.1,1.4
		c0.6,0.3,1.4,0.5,2,0.3c1.7-0.5,3.1-0.1,4.1,1.3c1.2,1.5,3.2,1.4,4.1-0.2c0.8-1.2,1.8-2.3,2.7-3.5c0.4-0.5,0.8-1.1,1.2-1.6
		c-0.2-0.1-0.3-0.2-0.5-0.3c-0.4,0.5-0.7,1.2-1.3,1.4c-0.8,0.3-1.7,0.1-2.5,0.1c0.1-0.9,0-1.9,0.4-2.6c0.3-0.6,1.3-0.7,2-1.1
		c0.4-0.3,0.7-0.7,1.1-1.1c-0.2-0.2-0.3-0.5-0.5-0.7c-0.8,0.5-1.7,1-2.5,1.4c-0.8,0.3-1.7,0.9-2.4,0.7c-3.4-0.9-6.7-2.1-10.5-3.3
		C252.4,346.3,255.4,348.1,257.4,347.5z M227.1,340.1c0.8-2,1.2-4.3,2.4-5.9c1.2-1.6,2.7-4,6-2.4c-2.6,3.1-4.8,6.2-4.7,10.3
		c0.7-0.7,1.7-1.6,1.7-2.3c-0.3-3.2,2.9-4.1,4-6.4c0.4-0.8,1.2-2.8,3.1-1.8c0.2-0.6,0.7-1.5,0.5-1.9c-0.9-1.5-6.8-2.6-8.3-1.4
		c-3,2.5-4.3,6.1-5.8,9.5c-0.3,0.6,0.3,1.5,0.4,2.3C226.6,340.2,226.8,340.2,227.1,340.1z M163.8,415.3c-0.4,0.3-0.5,1.5-0.3,2
		c0.5,0.9,1.8,1.6,1.9,2.5c0.3,3.2,3.2,4.2,4.8,6.2c0.9,1.1,2.8,0.3,3.8-1.2c0.9-1.3,0.2-2-0.9-2.5c-2.1-0.9-3.8-2.1-3.4-4.4
		C169.2,415.9,165.2,414.3,163.8,415.3z M331.6,444.2c0.1,0.4,0,0.8,0.2,1.1c1,2.6,2.8,4.4,5.2,5.7c0.4,0.2,0.7,0.7,1,1.1
		c-0.4,0.2-0.8,0.6-1.1,0.5c-3.7-0.8-7.4-1.7-11-2.5c-0.4-0.1-0.9,0.1-1.4,0.2c0.1,0.5,0,1.3,0.4,1.6c0.6,0.5,1.5,0.8,2.3,0.9
		c2.6,0.5,5.2,0.9,7.8,1.5c4.9,1.1,6,0.4,5.8-3.3c-1.7-1.3-3.2-2.4-4.6-3.7c-1.4-1.2-2.6-2.5-3.9-3.8
		C332.1,443.8,331.9,444,331.6,444.2z M210.9,334.1c2.8-3.5,4-6.3,0.7-9c-0.7,1.5-1.4,2.7-1.8,4.1c-1.1,3.4-4.8,8.4-9.7,7
		c-0.4-0.1-1,0.1-1.9,0.3C202.9,339.7,207.1,338.9,210.9,334.1z M363,433c-0.1,0.6-0.5,1.7-0.3,1.9c2.3,1.7,4.5,3.5,7,4.9
		c1.2,0.7,2.1,0.1,1.8-1.5c-0.5-3-0.5-3,2.6-2.8c0.4,0,0.8-0.4,1.3-0.6c-0.3-0.3-0.4-0.9-0.8-1c-3.6-1.2-7.2-3.1-11.1-0.5
		C363.4,433.3,363.2,433.2,363,433z M356.9,350.9c-0.2,1.4-0.2,2.9-0.7,4.2c-1.2,2.7-0.5,5.1,0.7,7.5c1.4,2.7,2.8,5.3,4.3,8
		c0.3,0.5,0.8,0.7,1.2,1.1c0.2-0.6,0.8-1.3,0.7-1.7c-1.1-2.7-2.4-5.2-3.5-7.9c-0.6-1.4-1-2.9-1.1-4.4c-0.1-1.6,0.3-3.3,0.3-5
		c0-0.7-0.7-1.4-1.1-2C357.4,350.8,357.1,350.9,356.9,350.9z M230.8,301c2.9,0.9,7.4-1,9.2-3.5c1.6-2.3,2.7-4.8,2.7-7.6
		c0-0.5-0.3-0.9-0.4-1.4c-0.5,0.2-1.2,0.3-1.3,0.6c-0.6,1.3-1.3,2.7-1.6,4.2c-0.4,1.6-0.8,3.1-2.6,3.6c-2.6,0.8-5.3,1.7-8.1,2.7
		C229.2,300,229.9,300.7,230.8,301z M418.3,378.7c0.1,1-0.1,2.2,0.2,3.1c0.7,1.8,1.7,3.4,2.6,5.1c0.5,1,2.3,1,3.1,0.1
		c1.1-1.2,2.2-2.5,3.7-4.2c-0.8-1.3-1.8-3.2-3-5c-0.3-0.5-1.1-0.7-1.7-1.1c-0.1,0.6-0.4,1.3-0.2,1.9c0.4,1.4,1.1,2.7,1.4,4.1
		c0.1,0.5-0.3,1.2-0.4,1.8c-0.6-0.3-1.4-0.5-1.8-1c-1.1-1.5-2-3.2-3-4.8C418.9,378.7,418.6,378.7,418.3,378.7z M429.9,400.1
		c0.7,1.8,1.3,3.6,2.1,5.3c0.2,0.5,1.3,1,1.8,0.8c0.5-0.2,1-1.2,0.9-1.7c-1-4.3-2.3-8.4-5.2-11.8c-0.4-0.4-1.3-0.4-1.9-0.6
		c-0.1,0.6-0.5,1.4-0.3,1.9c0.9,2,1.9,4,2.9,5.9C430.1,400,430,400.1,429.9,400.1z M397.2,346c-1.1-2.1-2.5-3.2-4.8-2.8
		c-1.2,0.2-1.9,0.8-1.5,2.2c0.7,3,6.8,6.5,9.7,5.4c0.1,0,0.2-0.2,0.3-0.3C399.6,349,398.1,347.7,397.2,346z M284,240.7
		c-2.6-0.1-5.4,1.4-8,2.6c-0.7,0.3-0.8,2.1-1,3.2c-0.1,0.5,0.3,1,0.4,1.6c0.5-0.3,1.3-0.5,1.6-0.9c1.7-2.8,5-4.3,8.3-3.9
		c0.5,0.1,1.5-0.3,1.7-0.8c0.6-0.9,0.9-2.1,1.3-3.2c-0.7-0.4-1.4-0.8-2.5-1.4C286.8,240.5,286.5,240.8,284,240.7z M242.7,423.5
		c0.2,0.3,0.8,0.5,1.1,0.5c0.3-0.1,0.9-0.8,0.8-0.9c-1.2-2.3,0.8-5.6-2.1-7.4c-1.1-0.7-2.3-1.2-3.4-1.8c-0.1,1.3-0.2,2.6-0.3,3.9
		C240.2,419.7,241.4,421.6,242.7,423.5z M251.5,324.9c2.3-2,4.1-4.5,8-3.6c1.7,0.4,3.9-1.1,6.3-1.9c-0.9-0.5-1.2-0.9-1.5-0.9
		c-3.8-0.5-7.8-0.9-11.1,1.6c-1.2,0.9-1.6,3-2.4,4.5C251,324.7,251.2,324.8,251.5,324.9z M160,418c-1.6-1.2-2.6-0.6-2.6,1.4
		c0,1.6,0.3,3.1,2,3.9c1.8,0.9,3.6,1.4,5.9-0.6C163.4,421,161.8,419.4,160,418z M392.3,430.5c-4.2-0.9-8.1-1.7-12-2.5
		c-0.4-0.1-0.9-0.1-1.3,0c-0.5,0.1-0.9,0.4-1.4,0.7C379.9,431.7,389.7,433,392.3,430.5z M439.8,392.2c0.8,1.2,1.4,2.5,2.4,3.4
		c0.9,0.8,1.9,0.6,2.1-0.9c0.2-2.2-3.7-8-5.9-8.6c-0.4-0.1-0.9,0.2-1.4,0.3c0.1,0.4,0.2,0.9,0.4,1.2c1,1.4,2,2.7,3.1,4.1
		C440.2,391.8,440,392,439.8,392.2z M415.3,391.5c-0.6-1-1.2-2.1-1.9-3c-0.9-1.1-2-2.2-3-3.2c-0.4-0.4-0.9-0.6-1.3-0.9
		c-0.1,0.5-0.4,1.2-0.2,1.6c0.5,1.4,0.8,2.5-1.2,2.9c-0.3,0.1-0.5,0.6-0.8,1c0.4,0.3,0.8,0.6,1.2,0.8c0.9,0.3,1.8,0.4,2.7,0.7
		c1.3,0.3,2.6,0.7,3.9,1.1C414.9,392.1,415.1,391.8,415.3,391.5z M334.2,389.9c-1.7-0.4-2.4,0.5-2.5,1.8c-0.1,0.6,0.8,1.7,1.4,2
		c1.2,0.4,2.5,0.6,3.8,0.4c2-0.2,3.1-2.4,2.6-3.3C337.4,390.4,335.8,390.3,334.2,389.9z M444.7,378.7c-0.2-0.2-0.9,0.1-1.4,0.1
		c0.2,0.5,0.2,1,0.5,1.3c1.8,2.1,3.7,4.2,5.5,6.2c0.5,0.5,1.2,0.9,1.8,1.3c0.3-0.7,0.5-1.4,1-2.5C449.5,383,447.1,380.8,444.7,378.7
		z M431.2,377.8c-1.8-1.8-3.6-3.6-5.4-5.4c-0.5-0.5-1.1-0.9-1.6-1.4c-0.3,0.3-0.8,0.8-0.8,1c0.2,0.7,0.5,1.4,0.9,1.9
		c1.3,1.5,2.6,2.9,4,4.3c0.7,0.7,1.4,1.4,2.2,1.9c0.3,0.2,1.1,0,1.4-0.2c0.3-0.2,0.3-0.8,0.4-1.3C432,378.4,431.6,378.1,431.2,377.8
		z M421.3,400.5c-0.4-1.1-0.8-2.1-1.4-3.1c-0.2-0.3-0.8-0.4-1.3-0.6c-0.2,0.4-0.5,0.8-0.5,1.1c0.4,2.9,0.7,5.9,1.2,8.8
		c0.1,0.5,0.7,0.8,1.1,1.2c0.4-0.4,1-0.8,1-1.3c0.1-2,0.1-4,0.1-6C421.5,400.5,421.4,400.5,421.3,400.5z M377.7,327
		c0.1-0.6-0.2-1.3-0.6-1.8c-0.1-0.2-1-0.2-1.4,0.1c-1.8,1.3-3.5,2.7-5.4,4.1C373.1,331.2,377.4,329.7,377.7,327z M382,354.3
		c-1.8-2.1-3.6-4.2-5.5-6.3c-0.2-0.3-0.9-0.4-1.1-0.3c-0.3,0.2-0.6,0.9-0.5,1.1c1.2,2,2.2,4.1,3.8,5.8
		C379.1,355.1,380.9,354.4,382,354.3C382,354.2,382,354.3,382,354.3z M306.7,344.4c-0.5-0.3-1-0.8-1.6-1c-2.8-0.8-5.7-1.6-8.6-2.3
		c-0.4-0.1-0.9,0.3-1.3,0.5c0.3,0.4,0.6,1.1,1,1.2c2.9,0.8,5.8,1.6,8.7,2.3c0.5,0.1,1-0.1,1.5-0.1
		C306.5,344.8,306.6,344.6,306.7,344.4z M435.6,367.8c-2.5-1.3-4.9-2.7-7.4-4c-0.3-0.2-0.9,0.3-1.4,0.4c0.2,0.5,0.3,1.3,0.7,1.5
		c2.5,1.1,5,2.1,7.6,3.1C435.2,368.5,435.4,368.2,435.6,367.8z M455.1,376c-0.4-0.6-0.6-1.4-1.1-1.7c-2.6-1.2-5.2-2.3-7.9-3.4
		c-0.1,0.3-0.3,0.6-0.4,0.9c3,1.6,5.9,3.1,8.9,4.7C454.8,376.3,455,376.2,455.1,376z M257,306c-0.3-0.4-0.9-0.7-1.4-0.9
		c-0.1-0.1-0.8,0.6-0.7,0.7c0.8,1.5,1.5,3,2.5,4.3c0.3,0.4,1.2,0.2,1.9,0.3C258.4,308.6,257.8,307.2,257,306z M306.2,383.9
		c0.3,0.5,1.4,0.4,2.2,0.6c-0.2-1.8-0.3-3-0.4-4.4C306.5,381.1,305,382,306.2,383.9z M416.9,365.3c0.6,1,1.1,2,1.9,2.8
		c0.3,0.3,1.2-0.1,1.9-0.2c-0.2-0.6-0.2-1.4-0.5-1.7c-0.7-0.6-1.6-1-2.5-1.5C417.4,365,417.2,365.1,416.9,365.3z M409.5,365
		c-0.1,0.9-0.4,1.8-0.3,2.7c0.1,0.5,1,0.8,1.5,1.2c0.3-0.8,0.5-1.5,0.9-2.6C410.7,365.7,410.1,365.3,409.5,365z M313.4,379.5
		c-0.7,0-1.5-0.1-1.9,0.2c-0.5,0.4-0.9,1.3-0.7,1.8c0.2,0.5,1,0.9,1.6,1.3c0.3-0.7,0.5-1.3,0.8-2
		C313.3,380.4,313.4,379.9,313.4,379.5z M305.4,408c-0.8-0.5-1.6-1-2.3-1.5c-0.2,0.4-0.6,1-0.5,1.1c0.8,0.6,1.7,1.2,2.6,1.7
		c0.2,0.1,0.5-0.2,1.2-0.4C305.8,408.4,305.6,408.2,305.4,408z M382.1,354.2c0.7,0.5,1.4,1.1,2.2,1.5c0.4,0.2,0.9-0.1,1.4-0.1
		c-0.2-0.5-0.3-1.4-0.5-1.4C384.2,354.1,383.1,354.2,382.1,354.2C382,354.3,382,354.2,382.1,354.2z"/>
	<g>
		<path class="st0" d="M75.2,415.4l-2.3-4.7l19.5-17.3l2.3,4.6l-4.1,3.4l2.8,5.5l5.2-1.3l2.3,4.5L75.2,415.4z M87.3,404.1l-2.4,2.1
			c-2.6,2-5,3.7-6.8,5c2.1-0.7,4.9-1.5,8.1-2.4l3-0.7L87.3,404.1z"/>
		<path class="st0" d="M73.6,397.5l-1.9-4.8l1.5-0.6c-1.5-0.7-2.9-1.7-3.7-3.8c-1.5-3.7,0.1-6.7,4.8-8.5l10.9-4.3l1.9,4.8l-10.2,4
			c-2.7,1.1-3.4,2.4-2.7,4.1c0.6,1.6,2.1,2.5,4.7,1.4l10.4-4.1l1.9,4.8L73.6,397.5z"/>
		<path class="st0" d="M75.1,374.9c-6.3,1.8-10.5-1-11.9-5.8c-1.4-4.7,0.7-9.4,6.9-11.2c6.2-1.8,10.6,1,12,5.8
			C83.4,368.4,81.3,373.1,75.1,374.9z M71.6,362.9c-3.7,1.1-5,2.9-4.3,5.1c0.6,2.2,2.7,3,6.4,2c3.6-1.1,5-2.9,4.4-5.1
			C77.3,362.7,75.2,361.8,71.6,362.9z"/>
		<path class="st0" d="M72.2,348.9l-9,1.8l0.7,3.7l-4.2,0.8l-0.7-3.7l-5.1,1l-3.1-4.5l7.2-1.4L57,341l4.2-0.8l1.1,5.5l8.1-1.6
			c1.8-0.3,2.2-1.2,1.9-2.5c-0.3-1.4-0.9-2.2-1.7-3.2l4.5,0c0.8,1.1,1.5,2.2,1.9,4.2C77.7,345.9,76.1,348.1,72.2,348.9z"/>
		<path class="st0" d="M50.7,334.1l-2.7-4.9l9-0.9c-1.3-1-2.3-2.4-2.5-4.6c-0.4-4,1.9-6.4,7-6.9l11.6-1.2l0.5,5.1l-10.9,1.1
			c-2.9,0.3-3.9,1.4-3.7,3.3c0.2,1.8,1.3,2.9,4.1,2.6l11.1-1.2l0.5,5.1L50.7,334.1z"/>
		<path class="st0" d="M63.2,312.1c-6.3,0.1-9.8-3.7-9.9-8.7c-0.1-5.3,3.5-8.5,10-8.6c0.6,0,1,0,1.3,0l0.2,12.2
			c2.6-0.3,4.1-1.9,4-4.3c0-2.1-0.6-3.3-1.5-5.2l3.6-1.9c1.3,2.4,2,4.3,2.1,7.3C73.1,308.1,69.6,312,63.2,312.1z M61.3,299.5
			c-2.5,0.3-4,1.3-4,3.9c0,2.2,1.5,3.4,4.1,3.6L61.3,299.5z"/>
		<path class="st0" d="M53.9,287.8l0.4-5.1l2.2,0.2c-1.5-1.3-2.4-3.3-2.2-5.4c0.1-1.8,0.7-3,1.3-3.8l4.9,2c-0.9,0.9-1.5,1.8-1.7,3.5
			c-0.2,2.4,1.5,4,4.3,4.2l10,0.7l-0.4,5.1L53.9,287.8z"/>
		<path class="st0" d="M68.6,248.1c-5.7-1.5-8.5-6.1-7.1-11.6c0.8-3.1,2.5-4.9,5-6.1l2.1,4.1c-1.6,0.7-2.6,1.4-3.1,3.3
			c-0.6,2.4,1.2,4.5,4.4,5.4c3.3,0.9,5.8,0.1,6.5-2.7c0.4-1.7-0.1-3.2-1.3-4.7l3.6-2.2c1.7,2.3,2.5,5,1.7,8.2
			C79.2,246.8,74.7,249.7,68.6,248.1z"/>
		<path class="st0" d="M74.1,228c-6.2-2.2-7.9-7-6.2-11.7c1.7-4.6,6.1-7.2,12.2-5c6.1,2.2,8,7.1,6.3,11.7
			C84.7,227.7,80.2,230.2,74.1,228z M78.3,216.2c-3.6-1.3-5.7-0.6-6.5,1.6c-0.8,2.1,0.4,4,4,5.3c3.6,1.3,5.8,0.6,6.5-1.5
			C83.1,219.5,81.9,217.5,78.3,216.2z"/>
		<path class="st0" d="M70.1,197.5c-1.4-0.7-2-2.3-1.2-4.1c0.8-1.7,2.4-2.3,3.9-1.7c1.4,0.7,2.1,2.3,1.3,4
			C73.2,197.6,71.6,198.2,70.1,197.5z M87.4,205l-12.2-5.7l2.2-4.7l11.4,5.3c1.6,0.8,2.5,0.1,3.1-1.1c0.6-1.3,0.7-2.4,0.8-3.4
			l3.5,2.5c0,1.2-0.3,2.9-1,4.4C93.5,205.6,90.9,206.6,87.4,205z"/>
		<path class="st0" d="M82.9,183.3l2.6-4.4l1.4,0.8c-0.4-1.6-0.5-3.3,0.7-5.2c2-3.5,5.3-4.1,9.7-1.5l10.1,5.9l-2.6,4.4l-9.5-5.5
			c-2.6-1.5-4-1.1-4.9,0.5c-0.9,1.5-0.7,3.2,1.8,4.6l9.6,5.6l-2.6,4.4L82.9,183.3z"/>
		<path class="st0" d="M120.5,157.4l-1.9-3.7c2.3-0.8,4.6-2.3,6-3.9c1.2-1.4,1.3-2.4,0.5-3.1c-0.8-0.7-1.3-0.6-3.6,1
			c-4.1,2.9-6.9,4-9.6,1.7c-2.7-2.3-2.7-5.7,0.3-9.3c2.1-2.4,4.1-3.7,6.4-4.5l1.9,3.6c-2.3,0.8-4,2-5.4,3.7
			c-1.1,1.2-1.1,2.1-0.4,2.7c0.7,0.6,1.3,0.6,3.6-1c4.1-2.8,6.7-4.1,9.6-1.7c3.2,2.7,2.7,6.1-0.3,9.6
			C125.4,155,123,156.5,120.5,157.4z"/>
		<path class="st0" d="M118.3,126l2.1-5.1l6.3,6.4c0-1.6,0.4-3.3,2-4.9c2.9-2.8,6.2-2.5,9.8,1.1l8.2,8.3l-3.6,3.6l-7.7-7.8
			c-2.1-2.1-3.5-2.1-4.9-0.8c-1.3,1.2-1.5,2.9,0.5,4.9l7.8,7.9l-3.6,3.6L118.3,126z"/>
		<path class="st0" d="M143.3,122.2c-4.2-5.1-3.2-10.1,0.6-13.2c3.8-3.1,8.9-3.1,13.1,2c4.1,5,3.2,10.2-0.6,13.3
			C152.5,127.3,147.4,127.2,143.3,122.2z M152.9,114.2c-2.4-3-4.6-3.4-6.4-2c-1.8,1.4-1.7,3.7,0.7,6.6c2.4,2.9,4.6,3.5,6.4,2
			C155.4,119.5,155.3,117.2,152.9,114.2z"/>
		<path class="st0" d="M153.5,101.7l3.7-2.5l3.7,4c1.4,1.6,3.8,4.5,5.3,6.5c-1.1-2.1-2.8-5.3-3.8-7.4l-2.2-5.2l3.2-2.2l4,3.9
			c1.6,1.7,4.3,4.8,5.5,6.3c-1-1.8-3.1-5.4-4-7.3l-2.4-4.9l3.7-2.5l7.7,17.6l-3.7,2.5l-4.3-4.3c-2-2.1-4-4.5-5.4-6.2
			c1,1.9,2.6,4.7,3.8,7.3l2.4,5.6l-3.7,2.5L153.5,101.7z"/>
		<path class="st0" d="M182.2,103.3l-0.5-4.1c2.4,0.1,5.1-0.5,7-1.6c1.6-0.9,2-1.8,1.5-2.7c-0.5-0.9-1.1-1-3.7-0.3
			c-4.8,1.3-7.9,1.3-9.6-1.8c-1.7-3.1-0.5-6.3,3.6-8.6c2.8-1.5,5.1-2,7.5-2l0.6,4.1c-2.4,0-4.4,0.4-6.4,1.5
			c-1.4,0.8-1.8,1.6-1.3,2.4c0.5,0.8,1,1,3.7,0.3c4.8-1.2,7.8-1.5,9.6,1.7c2,3.7,0.4,6.7-3.7,8.9
			C187.6,102.7,184.8,103.3,182.2,103.3z"/>
		<path class="st0" d="M221.8,80.5l-2.9-8.7l-3.6,1.2l-1.4-4l3.6-1.2l-1.6-4.9l4.1-3.7l2.3,7l5.3-1.8l1.4,4l-5.3,1.8l2.6,7.8
			c0.6,1.7,1.5,2,2.8,1.6c1.4-0.5,2.1-1.2,2.9-2.1l0.6,4.4c-1,1-2,1.8-3.9,2.4C225.4,85.5,223,84.2,221.8,80.5z"/>
		<path class="st0" d="M233.6,57.3l4.5-3.3l2.1,8.8c0.9-1.4,2-2.6,4.3-3.1c3.9-0.9,6.6,1.1,7.8,6l2.7,11.3l-5,1.2l-2.5-10.7
			c-0.7-2.9-1.9-3.7-3.7-3.2c-1.7,0.4-2.7,1.7-2.1,4.5l2.6,10.8l-5,1.2L233.6,57.3z"/>
		<path class="st0" d="M257.1,66.8c-0.9-6.2,2.4-10.2,7.3-11c5.2-0.8,8.9,2.4,9.8,8.8c0.1,0.6,0.1,1,0.2,1.3l-12.1,1.8
			c0.6,2.5,2.4,3.8,4.8,3.5c2.1-0.3,3.2-1,4.9-2.1l2.4,3.3c-2.2,1.6-4,2.6-7,3C262.3,76.1,258,73.1,257.1,66.8z M269.3,63.3
			c-0.6-2.5-1.8-3.8-4.4-3.4c-2.1,0.3-3.2,2-3.1,4.5L269.3,63.3z"/>
		<path class="st0" d="M347.6,69c-0.3-2.7-0.3-5.2-0.3-7.1c-0.3,1.8-0.8,4.2-1.3,6.5l-1.8,8.4l-4.1-0.9l5.4-24.6l4.4,0.9l0.6,8.8
			c0.2,2.9,0.3,5.3,0.2,7.2c0.7-1.8,1.8-3.9,3.2-6.5L358,54l4.4,0.9L357,79.6l-4.1-0.9l1.8-8.4c0.5-2.3,1-4.6,1.5-6.5
			c-0.8,1.7-1.9,3.9-3.3,6.3l-4.5,8.1L347.6,69z"/>
		<path class="st0" d="M366.4,76.8l4-12.8l4.9,1.5l-3.8,12c-0.5,1.7,0.2,2.5,1.5,2.9c1.3,0.4,2.5,0.4,3.5,0.3l-2,3.8
			c-1.2,0.1-2.9,0.1-4.5-0.4C366.6,82.9,365.3,80.5,366.4,76.8z M371.6,58.7c0.5-1.5,2-2.3,3.9-1.7c1.8,0.6,2.6,2.1,2.1,3.6
			c-0.5,1.5-2,2.3-3.8,1.8C371.9,61.8,371.1,60.2,371.6,58.7z"/>
		<path class="st0" d="M387.3,69.5l4.7,2l-0.6,1.5c1.5-0.6,3.2-0.9,5.3,0c3.7,1.5,4.7,4.7,2.8,9.4L395,93.2l-4.7-2l4.2-10.1
			c1.1-2.7,0.6-4.1-1.1-4.8c-1.6-0.7-3.2-0.2-4.3,2.4l-4.3,10.3l-4.7-2L387.3,69.5z"/>
		<path class="st0" d="M402.6,86.3c3.1-5.8,8.1-6.9,12.4-4.6c4.4,2.3,6.3,7,3.3,12.8c-3,5.7-8.1,6.9-12.5,4.6
			C401.4,96.8,399.5,92,402.6,86.3z M413.6,92.1c1.8-3.4,1.4-5.6-0.6-6.6c-2-1.1-4.1-0.2-5.9,3.2c-1.8,3.3-1.4,5.6,0.6,6.7
			C409.8,96.4,411.9,95.5,413.6,92.1z"/>
		<path class="st0" d="M423.2,102.3l5-7.7l-3.2-2.1l2.3-3.6l3.2,2.1l2.8-4.3l5.4,0.9l-4,6.2l4.7,3.1l-2.3,3.6l-4.7-3.1l-4.5,6.9
			c-1,1.5-0.7,2.4,0.5,3.1c1.2,0.8,2.2,0.9,3.4,1l-3.1,3.2c-1.4-0.2-2.6-0.4-4.3-1.6C421.6,108.3,421.1,105.6,423.2,102.3z"/>
		<path class="st0" d="M437.2,111c2.5-3.2,6.2-2.8,9.4-0.4c1.4,1.1,2.3,2.2,2.8,3.4l0.8-1c1.3-1.6,0.9-3-0.8-4.3
			c-1.6-1.2-3.1-1.9-5-2.2l1.1-3.7c2.3,0.5,4.5,1.5,7,3.5c3.9,3.1,4.4,6.5,1.7,10l-7.7,9.8l-4-3.2l1-1.3c-1.7,0.1-3.7-0.3-5.3-1.6
			C435.4,117.7,434.5,114.4,437.2,111z M445.6,118.7l1.8-2.2c-0.4-0.9-1.1-1.8-2.4-2.8c-1.5-1.2-2.9-1-3.9,0.2
			c-1,1.3-0.9,2.7,0.5,3.8C442.9,118.7,444.4,118.9,445.6,118.7z"/>
		<path class="st0" d="M454.8,123.5l8-8.5l3.7,3.5l-7.5,8c-2,2.2-2,3.6-0.6,4.9c1.3,1.2,2.9,1.4,4.9-0.7l7.6-8.1l3.7,3.5l-12.9,13.8
			l-3.7-3.5l1.1-1.2c-1.6,0.1-3.3-0.3-4.9-1.8C451.2,130.6,451.3,127.2,454.8,123.5z"/>
		<path class="st0" d="M479.9,131.6l3.4,3.8l-1.6,1.5c2-0.1,4,0.6,5.4,2.2c1.2,1.3,1.7,2.6,1.8,3.6l-4.9,2.2c0-1.3-0.2-2.4-1.3-3.6
			c-1.6-1.8-3.9-1.7-6,0.2l-7.5,6.6l-3.4-3.8L479.9,131.6z"/>
		<path class="st0" d="M497.9,169.4c5.6-3.4,10.4-1.8,13,2.5c2.6,4.2,1.8,9.3-3.8,12.7c-5.5,3.4-10.5,1.8-13.1-2.4
			C491.4,177.8,492.3,172.8,497.9,169.4z M504.4,180.1c3.3-2,4-4.1,2.9-6c-1.2-1.9-3.4-2.2-6.7-0.2c-3.2,2-4.1,4.1-2.9,6.1
			C498.8,181.8,501.1,182.1,504.4,180.1z"/>
		<path class="st0" d="M517.6,184.3l2.3,4.6l-1.5,0.7c1.5,0.5,3,1.4,4,3.5c1.8,3.6,0.4,6.7-4.1,8.9l-10.5,5.1l-2.3-4.6l9.9-4.8
			c2.6-1.3,3.1-2.7,2.3-4.3c-0.8-1.6-2.3-2.3-4.8-1l-10,4.9l-2.3-4.6L517.6,184.3z"/>
		<path class="st0" d="M523,232.6l8.8-2.5l-1-3.7l4.1-1.2l1,3.7l5-1.4l3.5,4.3l-7.1,2l1.5,5.4l-4.1,1.2l-1.5-5.4l-8,2.2
			c-1.7,0.5-2.1,1.4-1.7,2.7c0.4,1.4,1.1,2.2,1.9,3l-4.5,0.4c-0.9-1-1.7-2-2.2-4C517.9,236,519.3,233.7,523,232.6z"/>
		<path class="st0" d="M545.7,245.6l3.1,4.6l-8.8,1.7c1.3,0.9,2.5,2.2,2.9,4.4c0.7,3.9-1.4,6.6-6.4,7.5l-11.5,2.1l-0.9-5l10.8-2
			c2.9-0.5,3.7-1.7,3.4-3.6c-0.3-1.7-1.6-2.8-4.4-2.3l-10.9,2l-0.9-5L545.7,245.6z"/>
		<path class="st0" d="M535,268.6c6.3-0.6,10.1,2.9,10.6,7.8c0.5,5.3-2.8,8.8-9.2,9.4c-0.6,0.1-1,0.1-1.3,0.1l-1.2-12.2
			c-2.5,0.5-3.9,2.2-3.7,4.6c0.2,2.1,0.8,3.3,1.9,5l-3.4,2.2c-1.5-2.2-2.4-4.1-2.7-7.2C525.5,273.3,528.6,269.2,535,268.6z
			 M537.9,280.9c2.5-0.5,3.9-1.6,3.6-4.2c-0.2-2.2-1.8-3.3-4.4-3.3L537.9,280.9z"/>
		<path class="st0" d="M541.5,316.9l0.3-3.2l4.2,0.4l-0.3,3.2l0.9,0.1c4.4,0.4,6.1,3,5.8,6.5c-0.2,2.1-0.8,3.6-1.3,4.5l-3.8-0.3
			c0.4-0.7,0.8-1.6,0.9-3c0.1-1.4-0.3-2.6-1.9-2.7l-1-0.1l-0.4,4.8l-4.2-0.4l0.4-4.7l-14.6-1.2l0.4-5.1L541.5,316.9z"/>
		<path class="st0" d="M543.8,336.2l-0.9,5l-2.2-0.4c1.3,1.5,2,3.5,1.7,5.6c-0.3,1.7-1,2.9-1.7,3.7l-4.7-2.5c1-0.8,1.7-1.7,2-3.3
			c0.4-2.3-1.1-4.1-3.9-4.6l-9.9-1.7l0.9-5L543.8,336.2z"/>
		<path class="st0" d="M531.1,353.2c6.3,1.7,8.5,6.4,7.2,11.1c-1.3,4.8-5.5,7.7-11.8,6c-6.3-1.7-8.5-6.4-7.2-11.2
			C520.5,354.4,524.8,351.5,531.1,353.2z M527.8,365.3c3.7,1,5.8,0.1,6.3-2.1c0.6-2.2-0.7-4-4.4-5c-3.6-1-5.8-0.1-6.4,2.1
			C522.7,362.5,524.1,364.3,527.8,365.3z"/>
		<path class="st0" d="M533.9,377.8l-1.8,4.8l-1.6-0.6c0.7,1.5,1,3.1,0.2,5.3c-1.4,3.7-4.5,4.9-9.3,3.2l-10.9-4l1.8-4.8l10.3,3.8
			c2.8,1,4.1,0.4,4.7-1.3c0.6-1.7,0.1-3.2-2.6-4.2l-10.4-3.9l1.8-4.8L533.9,377.8z"/>
		<path class="st0" d="M512.1,396.4l8.3,3.9l1.6-3.4l3.8,1.8l-1.6,3.4l4.6,2.2l-0.2,5.5l-6.6-3.2l-2.4,5.1l-3.8-1.8l2.4-5.1
			l-7.5-3.6c-1.6-0.8-2.5-0.3-3.1,0.9c-0.6,1.3-0.6,2.3-0.5,3.5l-3.6-2.6c0-1.4,0.1-2.6,1-4.5C506,395.5,508.6,394.7,512.1,396.4z"
			/>
		<path class="st0" d="M502.9,416.6l-3.3,5.6l-7.5-8.5l1.9-3.2L502.9,416.6z"/>
	</g>
</g>
<g id="Coin_1_back">
</g>
<g id="Coin_1_front">
</g>
</svg>
