<?xml version="1.0" encoding="utf-8"?>
<!-- Generator: Adobe Illustrator 22.1.0, SVG Export Plug-In . SVG Version: 6.00 Build 0)  -->
<svg version="1.1" xmlns="http://www.w3.org/2000/svg" xmlns:xlink="http://www.w3.org/1999/xlink" x="0px" y="0px"
	 viewBox="0 0 600 600" style="enable-background:new 0 0 600 600;" xml:space="preserve">
<style type="text/css">
	.st0{fill:#4A2D37;}
	.st1{fill:#E8D7D7;}
</style>
<g id="Coin_2_back">
</g>
<g id="Coin_2_front">
</g>
<g id="Coin_1_back">
</g>
<g id="Coin_1_front">
	<g>
		<path class="st1" d="M336,473.3c-29.2,0-53-23.8-53-53v-43h-43c-29.2,0-53-23.8-53-53v-12c0-62.3,50.7-113,113-113
			s113,50.7,113,113v12c0,42.5-34.5,77-77,77c-10.5,0-19,8.5-19,19s8.5,19,19,19c63.4,0,115-51.6,115-115v-12
			c0-83.3-67.7-151-151-151s-151,67.7-151,151v12c0,50.2,40.8,91,91,91c2.8,0,5,2.2,5,5s-2.2,5-5,5c-55.7,0-101-45.3-101-101v-12
			c0-88.8,72.2-161,161-161c88.8,0,161,72.2,161,161v12c0,68.9-56.1,125-125,125c-16,0-29-13-29-29s13-29,29-29
			c36.9,0,67-30.1,67-67v-12c0-56.8-46.2-103-103-103c-56.8,0-103,46.2-103,103v12c0,23.7,19.3,43,43,43h43v-55c0-9.4,7.6-17,17-17
			s17,7.6,17,17v12c0,10.5,8.5,19,19,19s19-8.5,19-19v-12c0-30.3-24.7-55-55-55s-55,24.7-55,55v12c0,2.8-2.2,5-5,5s-5-2.2-5-5v-12
			c0-35.8,29.2-65,65-65c35.8,0,65,29.2,65,65v12c0,16-13,29-29,29s-29-13-29-29v-12c0-3.9-3.1-7-7-7c-3.9,0-7,3.1-7,7v55h43
			c23.7,0,43-19.3,43-43v-12c0-43.6-35.4-79-79-79s-79,35.4-79,79v12c0,10.5,8.5,19,19,19s19-8.5,19-19v-12c0-22.6,18.4-41,41-41
			s41,18.4,41,41v12c0,2.8-2.2,5-5,5s-5-2.2-5-5v-12c0-17.1-13.9-31-31-31c-17.1,0-31,13.9-31,31v12c0,16-13,29-29,29s-29-13-29-29
			v-12c0-49.1,39.9-89,89-89c49.1,0,89,39.9,89,89v12c0,29.2-23.8,53-53,53h-43v43c0,23.7,19.3,43,43,43c76.6,0,139-62.4,139-139
			v-12c0-96.5-78.5-175-175-175s-175,78.5-175,175v12c0,63.4,51.6,115,115,115c10.5,0,19-8.5,19-19s-8.5-19-19-19
			c-42.5,0-77-34.5-77-77v-12c0-75.5,61.5-137,137-137s137,61.5,137,137v12c0,55.7-45.3,101-101,101c-2.8,0-5-2.2-5-5s2.2-5,5-5
			c50.2,0,91-40.8,91-91v-12c0-70-57-127-127-127c-70,0-127,57-127,127v12c0,36.9,30.1,67,67,67c16,0,29,13,29,29s-13,29-29,29
			c-68.9,0-125-56.1-125-125v-12c0-102,83-185,185-185c102,0,185,83,185,185v12C485,406.5,418.2,473.3,336,473.3z"/>
	</g>
	<g>
		<path class="st0" d="M113.2,451c-6.9,5.1-12.5,5.1-15.8,0.6c-3.3-4.4-1.8-9.8,5-14.9c6.9-5.1,12.5-5,15.8-0.6
			C121.6,440.4,120.1,445.8,113.2,451z M105.6,440.7c-5.1,3.8-6,6.2-4.5,8.2c1.5,2,4,1.7,9.1-2.1c5.1-3.8,6-6.2,4.5-8.2
			C113.1,436.6,110.6,436.9,105.6,440.7z"/>
		<path class="st0" d="M94.5,436.1l-2.7-4.3l1.4-0.9c-1.6-0.4-3.1-1.1-4.3-3.1c-2.1-3.4-1.1-6.6,3.2-9.3l9.9-6.1l2.7,4.3l-9.3,5.8
			c-2.5,1.6-2.9,3-1.9,4.6c0.9,1.5,2.5,2.1,4.9,0.6l9.5-5.8l2.7,4.3L94.5,436.1z"/>
		<path class="st0" d="M91.8,413.5c-5.6,2.8-10.5,0.9-12.7-3.5c-2.4-4.7-0.5-9.2,5.2-12.1c0.6-0.3,0.9-0.5,1.2-0.6l5.5,11
			c2.2-1.4,2.9-3.5,1.8-5.6c-0.9-1.9-1.9-2.8-3.6-4l2.4-3.3c2.2,1.5,3.7,2.9,5.1,5.7C99,405.7,97.5,410.6,91.8,413.5z M84.6,403
			c-2.1,1.4-3.1,2.9-1.9,5.2c1,1.9,2.8,2.4,5.3,1.5L84.6,403z"/>
		<path class="st0" d="M74.7,374c-5.7,1.6-10.4-0.9-12-6.3c-0.9-3.1-0.4-5.5,1.2-7.8l3.9,2.4c-1,1.5-1.5,2.6-1,4.4
			c0.7,2.4,3.4,3.3,6.5,2.3c3.3-1,5-2.9,4.2-5.7c-0.5-1.7-1.7-2.6-3.5-3.4l2-3.8c2.7,1.1,4.7,3,5.6,6.2
			C83.2,367.5,80.8,372.2,74.7,374z"/>
		<path class="st0" d="M69.1,354c-6.4,1.2-10.4-2-11.3-6.8c-0.9-4.8,1.5-9.3,7.9-10.6c6.4-1.2,10.5,2,11.4,6.8
			C78.1,348.3,75.5,352.8,69.1,354z M66.8,341.7c-3.8,0.7-5.2,2.4-4.8,4.7s2.4,3.3,6.2,2.5c3.7-0.7,5.2-2.4,4.8-4.7
			C72.5,342,70.5,341,66.8,341.7z"/>
		<path class="st0" d="M50.1,329.8c-1.6,0.2-2.9-0.9-3.1-2.9c-0.2-1.9,0.9-3.2,2.5-3.4c1.6-0.2,3,0.9,3.1,2.8
			C52.8,328.3,51.7,329.7,50.1,329.8z M68.7,327.4l-13.4,1.4l-0.5-5.1l12.5-1.3c1.8-0.2,2.2-1.2,2.1-2.6c-0.1-1.4-0.6-2.5-1.1-3.3
			l4.2,0.3c0.6,1.1,1.2,2.6,1.4,4.3C74.3,324.8,72.6,327,68.7,327.4z"/>
		<path class="st0" d="M53.8,311.1l-0.1-5.1l1.7,0c-1.2-1.1-2.1-2.6-2.1-4.8c-0.1-4,2.5-6.2,7.5-6.3l11.7-0.2l0.1,5.1l-11,0.2
			c-3,0-4,1.1-3.9,2.9c0,1.8,1.1,3,3.9,3l11.1-0.2l0.1,5.1L53.8,311.1z"/>
		<path class="st0" d="M65.1,269.2c-6.6-1.1-9.4-4.5-8.7-8.4c0.4-2.1,1.5-3.3,2.7-4.3l-6.6-1.1l-1.3-5.4l25.9,4.3l-0.8,5l-1.7-0.3
			c1,1.4,1.6,3.1,1.3,5.2C75.2,267.8,71.9,270.3,65.1,269.2z M70.8,258.4l-7.8-1.3c-1.1,0.6-1.9,1.6-2.1,3c-0.3,2,1,3.2,4.9,3.9
			c4.2,0.7,5.7-0.2,6-2.1C72,260.6,71.6,259.4,70.8,258.4z"/>
		<path class="st0" d="M68.6,248.1c-6.1-1.6-8.5-6.2-7.2-11c1.3-5.1,5.7-7.3,11.9-5.6c0.6,0.2,1,0.3,1.3,0.4l-3.1,11.8
			c2.5,0.4,4.4-0.7,5-3.1c0.5-2,0.4-3.4,0-5.4l4-0.9c0.6,2.6,0.8,4.6,0,7.6C79.2,246.9,74.8,249.7,68.6,248.1z M70.1,235.5
			c-2.5-0.4-4.2,0.2-4.9,2.7c-0.5,2.1,0.6,3.7,3,4.6L70.1,235.5z"/>
		<path class="st0" d="M65.7,223.5l1.7-4.8l1.7,0.6c-0.7-1.7-1.1-3.3-0.3-5.4c1.2-3.4,5-5.2,11.4-2.8c6.3,2.3,8.4,6.1,7,9.8
			c-0.7,2-2.1,3-3.5,3.7l6,2.2l0.4,5.6L65.7,223.5z M78.5,215.9c-3.9-1.4-5.6-0.9-6.3,1c-0.4,1.2-0.2,2.5,0.3,3.6l7.4,2.7
			c1.2-0.5,2.2-1.3,2.7-2.6C83.3,218.8,82.3,217.3,78.5,215.9z"/>
		<path class="st0" d="M70.3,197.1c-1.4-0.7-2-2.3-1.2-4.1c0.8-1.7,2.4-2.3,3.9-1.6s2.1,2.3,1.2,4C73.4,197.2,71.7,197.8,70.3,197.1
			z M87.5,204.6l-12.2-5.7l2.2-4.7l11.4,5.3c1.6,0.8,2.5,0.1,3.1-1.1c0.6-1.3,0.7-2.4,0.8-3.4l3.5,2.5c0,1.2-0.3,2.9-1,4.4
			C93.6,205.2,91,206.2,87.5,204.6z"/>
		<path class="st0" d="M91.1,187.9c-5.1-3-6.6-8.2-3.7-13.1c1.6-2.8,3.7-4.1,6.5-4.6l1,4.5c-1.8,0.3-2.9,0.7-3.9,2.3
			c-1.3,2.2,0,4.7,2.8,6.3c3,1.7,5.6,1.6,7-0.8c0.9-1.5,0.7-3.1,0.1-4.9l4.1-1.2c1,2.7,1,5.5-0.6,8.3
			C101.6,189.5,96.5,191.1,91.1,187.9z"/>
		<path class="st0" d="M107.8,168.4l-7.4-5.3l-2.2,3.1l-3.5-2.5l2.2-3.1l-4.2-3l1.1-5.4l6,4.3l3.3-4.6l3.5,2.5l-3.3,4.6l6.7,4.8
			c1.5,1,2.4,0.8,3.2-0.4c0.9-1.2,1-2.2,1.1-3.4l3.1,3.2c-0.2,1.4-0.5,2.6-1.8,4.3C113.6,170.3,111,170.7,107.8,168.4z"/>
		<path class="st0" d="M120.7,157.1l-1.9-3.7c2.3-0.8,4.6-2.3,6-3.9c1.2-1.4,1.3-2.4,0.5-3.1s-1.3-0.6-3.6,1c-4.1,2.9-6.9,4-9.6,1.7
			c-2.7-2.3-2.7-5.7,0.3-9.3c2.1-2.4,4.1-3.7,6.4-4.5l1.9,3.6c-2.3,0.8-4,1.9-5.4,3.6c-1.1,1.2-1.1,2.1-0.4,2.7
			c0.7,0.6,1.3,0.6,3.6-1c4.1-2.8,6.8-4.1,9.6-1.7c3.2,2.7,2.7,6.1-0.3,9.6C125.6,154.7,123.2,156.2,120.7,157.1z"/>
		<path class="st0" d="M145.9,124.5c-2.6-3.2-1.4-6.7,1.7-9.2c1.4-1.2,2.7-1.7,3.9-2l-0.8-1c-1.3-1.6-2.7-1.6-4.4-0.2
			c-1.6,1.3-2.5,2.6-3.3,4.4l-3.4-1.9c1-2.2,2.4-4.1,4.9-6.1c3.9-3.2,7.4-2.9,10.2,0.5l7.9,9.7l-4,3.2l-1-1.3
			c-0.3,1.7-1.1,3.5-2.7,4.8C152.1,127.7,148.7,127.9,145.9,124.5z M155.4,117.9l-1.8-2.2c-1,0.2-2,0.6-3.3,1.7
			c-1.5,1.2-1.6,2.6-0.6,3.9c1.1,1.3,2.4,1.5,3.8,0.4C154.7,120.6,155.3,119.2,155.4,117.9z"/>
		<path class="st0" d="M175.5,87.3l4.5-2.5l1.1,1.9c0.3-1.9,1.5-3.8,3.3-4.8c1.5-0.9,2.9-1.1,3.9-1l1,5.2c-1.3-0.3-2.4-0.3-3.8,0.5
			c-2.1,1.1-2.5,3.4-1.1,5.9l4.8,8.8l-4.5,2.5L175.5,87.3z"/>
		<path class="st0" d="M196.7,86.6c-2.6-6-0.4-10.6,4.2-12.6c4.5-2,9.4-0.6,12,5.4c2.6,5.9,0.4,10.7-4.2,12.6
			C204.2,94.1,199.3,92.5,196.7,86.6z M208.2,81.6c-1.5-3.5-3.5-4.5-5.6-3.6c-2.1,0.9-2.7,3.1-1.1,6.6c1.5,3.5,3.5,4.6,5.6,3.7
			C209.2,87.3,209.7,85,208.2,81.6z"/>
		<path class="st0" d="M217.7,80.1L214,69l4.8-1.6l3.5,10.4c0.9,2.8,2.2,3.5,4,2.9c1.7-0.6,2.6-1.9,1.7-4.6l-3.5-10.5l4.8-1.6
			l6,17.9l-4.8,1.6l-0.5-1.6c-0.7,1.5-1.8,2.8-4,3.5C222.2,86.6,219.3,84.9,217.7,80.1z"/>
		<path class="st0" d="M235.2,62.2l5-1.2l0.4,1.6c0.9-1.4,2-2.6,4.3-3.1c3.9-0.9,6.6,1.1,7.8,6l2.7,11.4l-5,1.2l-2.5-10.7
			c-0.7-2.9-1.9-3.7-3.7-3.2c-1.7,0.4-2.7,1.7-2.1,4.5l2.6,10.8l-5,1.2L235.2,62.2z"/>
		<path class="st0" d="M257.5,66.9c-1-6.7,1.4-10.3,5.4-10.8c2.1-0.3,3.6,0.4,4.9,1.3l-0.9-6.6l4.7-2.9l3.7,26l-5.1,0.7l-0.2-1.7
			c-1.1,1.4-2.4,2.5-4.6,2.8C261.8,76.1,258.4,73.8,257.5,66.9z M269.4,69.1l-1.1-7.8c-0.9-0.8-2.1-1.3-3.5-1.1
			c-2,0.3-2.8,1.9-2.2,5.9c0.6,4.2,1.9,5.3,3.8,5C267.7,70.9,268.7,70.1,269.4,69.1z"/>
		<path class="st0" d="M278.6,63.9c-0.3-6.3,3.3-10,8.3-10.2c5.3-0.3,8.6,3.2,9,9.6c0,0.6,0.1,1,0,1.3l-12.2,0.6
			c0.4,2.5,2,4,4.5,3.9c2.1-0.1,3.3-0.7,5.1-1.7l2.1,3.5c-2.3,1.4-4.2,2.2-7.3,2.4C282.9,73.6,279,70.2,278.6,63.9z M291.1,61.5
			c-0.4-2.5-1.4-4-4.1-3.8c-2.2,0.1-3.3,1.7-3.5,4.2L291.1,61.5z"/>
		<path class="st0" d="M299.9,63.1c0.2-6.7,3.2-9.9,7.2-9.7c2.1,0.1,3.5,1,4.6,2.1l0.2-6.7l5.2-2L316.2,73l-5.1-0.2l0.1-1.7
			c-1.3,1.1-2.8,2-5,1.9C302.5,72.9,299.6,70,299.9,63.1z M311.3,67.4l0.3-7.9c-0.8-1-1.9-1.7-3.3-1.7c-2-0.1-3.1,1.4-3.2,5.4
			c-0.2,4.3,0.9,5.6,2.9,5.7C309.3,68.9,310.4,68.3,311.3,67.4z"/>
		<path class="st0" d="M346.6,71.8l4-18.2l5.5-1L351.8,72c-0.4,1.8,0.4,2.5,1.8,2.8c1.4,0.3,2.5,0.2,3.5,0l-1.6,3.9
			c-1.2,0.2-2.9,0.3-4.6,0C347.3,77.9,345.8,75.6,346.6,71.8z"/>
		<path class="st0" d="M362.2,74.8c1.2-3.9,4.9-4.8,8.7-3.6c1.8,0.6,2.9,1.3,3.8,2.1l0.4-1.3c0.6-2-0.2-3.2-2.2-3.8
			c-1.9-0.6-3.6-0.7-5.5-0.3l-0.3-3.9c2.3-0.4,4.7-0.2,7.8,0.8c4.8,1.5,6.4,4.6,5.1,8.8l-3.8,11.9l-4.9-1.5l0.5-1.6
			c-1.6,0.7-3.5,1-5.5,0.4C362.9,81.7,360.9,79,362.2,74.8z M372.8,79.1l0.9-2.7c-0.8-0.7-1.6-1.3-3.2-1.8c-1.8-0.6-3.1,0-3.6,1.6
			c-0.5,1.6,0.1,2.8,1.8,3.4C370.2,80.1,371.8,79.7,372.8,79.1z"/>
		<path class="st0" d="M385.9,87.6l-0.6,1.5l-4.7-2l9.3-22.2l5.6,0l-3.5,8.4c1.7-0.6,3.4-0.9,5.5-0.1c3.4,1.4,4.9,5.2,2.3,11.5
			c-2.6,6.2-6.5,8.1-10.2,6.6C387.5,90.5,386.5,89.1,385.9,87.6z M394.8,82.9c1.6-3.8,1.1-5.5-0.7-6.3c-1.2-0.5-2.5-0.4-3.7,0.1
			l-3,7.3c0.4,1.2,1.2,2.2,2.5,2.8C391.7,87.6,393.2,86.6,394.8,82.9z"/>
		<path class="st0" d="M404.2,98l2.7-20.2l5,2.6l-1.9,10.1c-0.3,1.2-0.9,3.2-1.3,4.3c0.8-1,2.1-2.6,2.8-3.4l7.3-7.4l4.8,2.5
			l-20.2,18.2l-4.4-2.3L404.2,98z"/>
		<path class="st0" d="M428.8,89.9l4.3,2.8l-1.2,1.8c1.9-0.6,4-0.5,5.8,0.7c1.5,1,2.3,2,2.7,3l-4.1,3.4c-0.4-1.2-0.9-2.2-2.3-3.1
			c-2-1.3-4.2-0.6-5.7,1.8l-5.5,8.4l-4.3-2.8L428.8,89.9z"/>
		<path class="st0" d="M441.1,114.7l8.3-10.6l4,3.2l-7.8,9.9c-1.1,1.4-0.7,2.4,0.4,3.3c1.1,0.9,2.2,1.3,3.1,1.6l-3.2,2.8
			c-1.2-0.3-2.7-1-4.1-2C439.1,120.6,438.7,117.8,441.1,114.7z M452.3,99.7c1-1.2,2.7-1.4,4.2-0.2c1.5,1.2,1.7,2.9,0.7,4.1
			c-1,1.2-2.7,1.5-4.2,0.3C451.5,102.7,451.3,100.9,452.3,99.7z"/>
		<path class="st0" d="M463.2,115.3l3.7,3.5l-1.1,1.2c1.6,0,3.3,0.3,4.9,1.8c2.9,2.7,2.7,6.1-0.7,9.8l-8,8.5l-3.7-3.5l7.5-8
			c2-2.1,2-3.6,0.6-4.9c-1.3-1.2-2.9-1.4-4.9,0.7l-7.6,8.1l-3.7-3.5L463.2,115.3z"/>
		<path class="st0" d="M471.8,142.7l6.8-6.1l-2.5-2.9l3.2-2.8l2.5,2.9l3.9-3.4l5,2.3l-5.5,4.9l3.7,4.2l-3.2,2.8l-3.7-4.2l-6.2,5.5
			c-1.3,1.2-1.3,2.1-0.4,3.2c1,1.1,1.9,1.5,3,1.9l-3.8,2.3c-1.3-0.5-2.4-1.1-3.8-2.7C468.6,148,468.8,145.3,471.8,142.7z"/>
		<path class="st0" d="M497.8,144.5l4.8,2.8l-7.2,5.3c1.6,0.2,3.2,0.9,4.5,2.7c2.4,3.2,1.6,6.5-2.5,9.5l-9.4,6.9l-3-4.1l8.8-6.5
			c2.4-1.8,2.6-3.2,1.5-4.7c-1-1.4-2.6-1.9-4.9-0.2l-9,6.6l-3-4.1L497.8,144.5z"/>
		<path class="st0" d="M509,188c5.9-2.9,10.6-0.8,12.7,3.6c2.2,4.4,1,9.4-4.9,12.3c-5.8,2.8-10.6,0.8-12.8-3.6
			C501.8,195.9,503.2,190.9,509,188z M514.5,199.3c3.5-1.7,4.4-3.7,3.4-5.8c-1-2-3.2-2.5-6.6-0.8c-3.4,1.7-4.4,3.7-3.4,5.8
			C508.8,200.5,511.1,201,514.5,199.3z"/>
		<path class="st0" d="M527.3,204.7l1.8,4.8l-1.5,0.6c1.5,0.7,2.8,1.7,3.6,3.8c1.4,3.7-0.2,6.7-4.9,8.5l-10.9,4.2l-1.8-4.8l10.3-3.9
			c2.8-1.1,3.4-2.4,2.7-4.1c-0.6-1.6-2-2.5-4.7-1.5l-10.4,4l-1.8-4.8L527.3,204.7z"/>
		<path class="st0" d="M528.3,253.3l9-1.7l-0.7-3.8l4.2-0.8l0.7,3.8l5.1-0.9l3.1,4.6l-7.2,1.3l1,5.5l-4.2,0.8l-1-5.5l-8.1,1.5
			c-1.8,0.3-2.2,1.2-1.9,2.5c0.3,1.5,0.9,2.3,1.6,3.2l-4.5,0c-0.8-1.1-1.5-2.2-1.8-4.2C522.8,256.2,524.4,254,528.3,253.3z"/>
		<path class="st0" d="M549.6,268.3l2.7,4.9l-9,0.8c1.3,1,2.3,2.4,2.5,4.6c0.4,4-2,6.4-7,6.9l-11.6,1.1l-0.5-5.1l10.9-1
			c2.9-0.3,3.9-1.4,3.7-3.2c-0.2-1.8-1.3-3-4.1-2.7l-11.1,1l-0.5-5.1L549.6,268.3z"/>
		<path class="st0" d="M536.8,290.2c6.3-0.1,9.9,3.7,9.9,8.7c0.1,5.3-3.5,8.5-9.9,8.6c-0.6,0-1,0-1.3,0l-0.2-12.2
			c-2.6,0.3-4.1,1.9-4,4.3c0,2.1,0.6,3.3,1.5,5.2l-3.6,1.9c-1.3-2.4-2-4.3-2.1-7.3C526.9,294.2,530.4,290.4,536.8,290.2z
			 M538.7,302.8c2.5-0.3,4-1.3,4-3.9c0-2.2-1.5-3.4-4.1-3.6L538.7,302.8z"/>
		<path class="st0" d="M539,338.9l0.6-3.2l4.2,0.7l-0.6,3.2l0.9,0.2c4.3,0.8,5.8,3.6,5.2,7c-0.4,2.1-1.1,3.5-1.7,4.3l-3.8-0.7
			c0.4-0.6,0.9-1.6,1.2-2.9c0.2-1.4-0.1-2.6-1.7-2.9l-1-0.2l-0.8,4.8l-4.2-0.7l0.8-4.6l-14.4-2.5l0.9-5L539,338.9z"/>
		<path class="st0" d="M539.4,358.4l-1.3,4.9l-2.1-0.6c1.2,1.6,1.7,3.7,1.1,5.7c-0.5,1.7-1.2,2.8-2,3.5l-4.5-2.9
			c1.1-0.7,1.9-1.5,2.3-3.1c0.6-2.3-0.7-4.2-3.4-4.9l-9.7-2.6l1.3-4.9L539.4,358.4z"/>
		<path class="st0" d="M525.2,374.1c6.1,2.3,7.8,7.1,6.1,11.7c-1.7,4.6-6.2,7.2-12.3,4.9c-6.1-2.3-7.9-7.2-6.2-11.8
			C514.6,374.4,519.1,371.9,525.2,374.1z M520.9,385.9c3.6,1.3,5.7,0.6,6.5-1.5c0.8-2.1-0.3-4-4-5.4c-3.5-1.3-5.8-0.6-6.5,1.5
			C516.1,382.6,517.3,384.6,520.9,385.9z"/>
		<path class="st0" d="M525.8,398.9l-2.2,4.6l-1.5-0.7c0.5,1.5,0.7,3.2-0.2,5.3c-1.7,3.6-5,4.5-9.6,2.3l-10.5-5l2.2-4.6l9.9,4.7
			c2.7,1.3,4,0.8,4.8-0.9c0.8-1.6,0.4-3.2-2.2-4.4l-10-4.8l2.2-4.6L525.8,398.9z"/>
		<path class="st0" d="M502.4,415.4l7.9,4.7l1.9-3.3l3.7,2.2l-1.9,3.3l4.4,2.6l-0.7,5.5l-6.3-3.8l-2.9,4.8l-3.7-2.2l2.9-4.8
			l-7.1-4.2c-1.5-0.9-2.4-0.6-3.1,0.6c-0.8,1.3-0.8,2.3-0.8,3.5l-3.4-3c0.1-1.4,0.3-2.6,1.4-4.4C496.4,414,499,413.4,502.4,415.4z"
			/>
		<path class="st0" d="M491.4,434.7l-3.8,5.3l-6.7-9.1l2.2-3L491.4,434.7z"/>
	</g>
</g>
</svg>
