<?xml version="1.0" encoding="utf-8"?>
<!-- Generator: Adobe Illustrator 22.1.0, SVG Export Plug-In . SVG Version: 6.00 Build 0)  -->
<svg version="1.1" xmlns="http://www.w3.org/2000/svg" xmlns:xlink="http://www.w3.org/1999/xlink" x="0px" y="0px"
	 viewBox="0 0 600 600" style="enable-background:new 0 0 600 600;" xml:space="preserve">
<style type="text/css">
	.st0{fill:#4A2D37;}
	.st1{fill:#E8D7D7;}
</style>
<g id="Coin_2_back">
</g>
<g id="Coin_2_front">
</g>
<g id="Coin_1_back">
	<g>
		<path class="st0" d="M106.4,147c3.3,2.4,3,6.2,0.7,9.4c-1.1,1.5-2.2,2.3-3.3,2.9l1.1,0.8c1.7,1.2,3,0.9,4.3-0.9
			c1.2-1.6,1.8-3.2,2.1-5.1l3.8,0.9c-0.4,2.3-1.3,4.6-3.2,7.1c-3,4-6.4,4.6-10,2l-10-7.4l3-4.1l1.3,1c-0.1-1.7,0.2-3.7,1.4-5.4
			C99.6,145.4,102.9,144.4,106.4,147z M98.9,155.7l2.3,1.7c0.9-0.5,1.8-1.1,2.7-2.5c1.1-1.5,0.9-2.9-0.4-3.9c-1.4-1-2.7-0.8-3.7,0.6
			C98.8,152.9,98.6,154.5,98.9,155.7z"/>
		<path class="st0" d="M104.2,172.2l-2.6,4.4l-1.4-0.9c0.4,1.6,0.4,3.3-0.8,5.2c-2.1,3.4-5.4,4-9.7,1.3l-10-6l2.6-4.4l9.4,5.7
			c2.5,1.5,3.9,1.2,4.9-0.4c0.9-1.5,0.7-3.1-1.7-4.6l-9.5-5.8l2.6-4.4L104.2,172.2z"/>
		<path class="st0" d="M85.2,185.4c6,3,7.7,6.9,5.9,10.6c-0.9,1.9-2.4,2.8-3.8,3.4l6,2.9l-0.3,5.6l-23.6-11.5l2.2-4.6l1.6,0.8
			c-0.5-1.7-0.7-3.4,0.3-5.4C75.1,183.9,79,182.4,85.2,185.4z M76.6,194.1l7.1,3.5c1.2-0.3,2.3-1,2.9-2.3c0.9-1.8,0-3.4-3.6-5.1
			c-3.8-1.9-5.5-1.4-6.3,0.3C76.1,191.7,76.2,192.9,76.6,194.1z"/>
		<path class="st0" d="M63.1,229.3l8.8,2.5l1-3.7l4.1,1.1l-1,3.7l5,1.4l0.8,5.4l-7.1-2l-1.5,5.4l-4.1-1.1l1.5-5.4l-8-2.2
			c-1.7-0.5-2.5,0.1-2.9,1.4c-0.4,1.4-0.2,2.4,0.1,3.6l-4-2c-0.3-1.3-0.4-2.6,0.2-4.6C57,229.5,59.4,228.2,63.1,229.3z"/>
		<path class="st0" d="M76.7,250.3l1.2,5.4l-8.9-1.6c0.9,1.3,1.5,2.9,1.1,5.2c-0.7,3.9-3.6,5.6-8.6,4.7l-11.5-2.1l0.9-5l10.8,2
			c2.9,0.5,4.1-0.3,4.5-2.1c0.3-1.7-0.4-3.2-3.2-3.7l-10.9-2l0.9-5L76.7,250.3z"/>
		<path class="st0" d="M58.8,268.5c6.3,0.6,9.4,4.7,8.9,9.7c-0.5,5.3-4.4,8.1-10.8,7.5c-0.6-0.1-1-0.1-1.3-0.2l1.1-12.2
			c-2.6,0-4.3,1.4-4.5,3.9c-0.2,2.1,0.2,3.4,0.9,5.3l-3.8,1.5c-1.1-2.5-1.6-4.4-1.3-7.5C48.6,271.4,52.4,267.9,58.8,268.5z
			 M59.4,281.2c2.5,0,4.1-0.8,4.4-3.5c0.2-2.2-1.2-3.5-3.7-4.1L59.4,281.2z"/>
		<path class="st0" d="M66.6,313.6l0.4,5.1l-2.2,0.2c1.6,1.1,2.8,2.9,3,4.9c0.1,1.8-0.2,3.1-0.7,4l-5.2-1.2c0.7-1,1.2-2.1,1.1-3.7
			c-0.2-2.4-2.1-3.7-4.9-3.4l-10,0.8l-0.4-5.1L66.6,313.6z"/>
		<path class="st0" d="M59.1,334c6.2-1.1,10.3,2.1,11.2,7c0.9,5.2-2.1,9-8.5,10.1c-0.6,0.1-1,0.2-1.3,0.2l-2.1-12.1
			c-2.5,0.7-3.7,2.5-3.3,4.9c0.4,2.1,1.1,3.2,2.3,4.9l-3.2,2.5c-1.7-2.1-2.7-3.9-3.2-6.9C50,339.4,52.8,335.1,59.1,334z M63,346
			c2.4-0.7,3.8-1.9,3.3-4.5c-0.4-2.1-2-3.1-4.6-3L63,346z"/>
		<path class="st0" d="M72,352.4l1.5,5.4l-8.8,5.5c-1,0.5-2.9,1.5-4,2c1.2-0.1,3.4-0.2,4.5-0.3l10.4,0.3l1.4,5.2l-20.1-1.7l-1.3-4.9
			L72,352.4z"/>
		<path class="st0" d="M69,376.6c5.9-2.2,10.5,0.2,12.2,4.9c1.8,5-0.5,9.2-6.5,11.4c-0.6,0.2-0.9,0.4-1.3,0.4l-4.3-11.5
			c-2.3,1.1-3.2,3.2-2.4,5.4c0.7,2,1.6,3,3.1,4.4l-2.7,3c-2-1.8-3.3-3.3-4.4-6.2C61.1,383.6,63.1,378.8,69,376.6z M75.1,387.7
			c2.3-1.1,3.4-2.6,2.4-5c-0.8-2-2.6-2.7-5.1-2.1L75.1,387.7z"/>
		<path class="st0" d="M86.3,395l2.2,4.6l-2,0.9c1.9,0.4,3.7,1.7,4.6,3.6c0.8,1.6,0.9,2.9,0.8,3.9l-5.3,0.7c0.3-1.2,0.4-2.4-0.3-3.9
			c-1-2.1-3.3-2.7-5.8-1.5l-9,4.3l-2.2-4.6L86.3,395z"/>
		<path class="st0" d="M80.2,421.3l4.1-0.6c0,2.4,0.7,5.1,1.8,6.9c0.9,1.6,1.9,2,2.8,1.5c0.9-0.5,1-1.1,0.2-3.7
			c-1.4-4.8-1.6-7.8,1.5-9.7c3.1-1.8,6.3-0.7,8.7,3.3c1.6,2.7,2.2,5,2.2,7.5l-4,0.7c-0.1-2.4-0.6-4.4-1.7-6.3
			c-0.8-1.4-1.6-1.7-2.4-1.2c-0.8,0.5-1,1.1-0.2,3.7c1.4,4.8,1.7,7.7-1.4,9.6c-3.6,2.1-6.7,0.6-9-3.4C81,426.7,80.3,424,80.2,421.3z
			"/>
		<path class="st0" d="M97.9,435.4c5.1-3.7,10.2-2.6,13.1,1.4c3.1,4.3,2,9-3.2,12.8c-0.5,0.4-0.8,0.6-1.1,0.8l-7.2-9.9
			c-1.9,1.7-2.2,3.9-0.8,5.8c1.2,1.7,2.4,2.4,4.2,3.4l-1.8,3.6c-2.4-1.2-4.1-2.3-5.9-4.8C92.1,444.2,92.7,439.1,97.9,435.4z
			 M106.7,444.5c1.9-1.7,2.5-3.4,1-5.5c-1.3-1.7-3.2-1.9-5.4-0.6L106.7,444.5z"/>
		<path class="st0" d="M125.2,469.4c4.7-4.9,9-5.2,11.9-2.4c1.5,1.5,1.9,3.1,2,4.6l4.6-4.8l5.2,2l-18.2,18.9l-3.7-3.5l1.2-1.2
			c-1.7,0-3.4-0.4-5-1.9C120.7,478.5,120.4,474.4,125.2,469.4z M130.9,480.2l5.5-5.7c0.1-1.2-0.3-2.5-1.3-3.5c-1.4-1.4-3.2-1-6,1.9
			c-3,3.1-3,4.8-1.6,6.1C128.4,480,129.6,480.3,130.9,480.2z"/>
		<path class="st0" d="M141.3,484.4c3.9-4.9,9.1-5.2,13-2.1c4.1,3.3,4.3,8.1,0.3,13.2c-0.4,0.5-0.6,0.8-0.9,1l-9.6-7.7
			c-1.4,2.2-1.1,4.3,0.7,5.9c1.6,1.3,2.9,1.7,4.9,2.1l-0.8,4c-2.7-0.5-4.6-1.1-7-3.1C138.1,494.5,137.3,489.3,141.3,484.4z
			 M152.2,490.8c1.4-2.1,1.6-3.9-0.5-5.6c-1.7-1.4-3.6-1-5.4,0.8L152.2,490.8z"/>
		<path class="st0" d="M164.4,490.5l4.3,2.8l-1,1.5c1.8-0.3,3.5-0.3,5.4,1c3,2,3.8,6.1,0.1,11.7c-3.7,5.6-7.9,6.7-11.2,4.5
			c-1.7-1.2-2.5-2.7-2.8-4.3l-3.5,5.3l-5.5-1L164.4,490.5z M168.7,504.8c2.3-3.5,2.2-5.2,0.5-6.3c-1.1-0.7-2.3-0.8-3.6-0.5l-4.4,6.6
			c0.2,1.3,0.7,2.4,1.9,3.2C164.8,508.8,166.5,508.1,168.7,504.8z"/>
		<path class="st0" d="M179.4,515.8l6.4-11.8l4.5,2.4l-6,11c-0.9,1.6-0.3,2.5,0.9,3.2s2.4,0.9,3.4,1L186,525
			c-1.2-0.1-2.9-0.5-4.4-1.3C178.4,521.9,177.6,519.3,179.4,515.8z M187.9,499.1c0.8-1.4,2.4-1.9,4.1-1c1.7,0.9,2.2,2.6,1.4,4
			c-0.8,1.4-2.4,1.9-4.1,1C187.6,502.2,187.1,500.5,187.9,499.1z"/>
		<path class="st0" d="M196.6,520.2c2.3-5.4,7.3-7.5,12.5-5.3c2.9,1.3,4.5,3.2,5.3,5.9l-4.4,1.5c-0.5-1.7-1-2.8-2.8-3.6
			c-2.3-1-4.7,0.5-6,3.6c-1.3,3.1-0.9,5.7,1.7,6.9c1.6,0.7,3.1,0.3,4.9-0.5l1.6,3.9c-2.6,1.3-5.3,1.7-8.3,0.4
			C196.3,530.9,194.1,526,196.6,520.2z"/>
		<path class="st0" d="M219.6,533.8l2.8-8.7l-3.6-1.2l1.3-4l3.6,1.2l1.6-4.9l5.5-0.5l-2.3,7l5.3,1.7l-1.3,4l-5.3-1.7l-2.6,7.9
			c-0.6,1.7,0,2.5,1.3,2.9c1.4,0.5,2.4,0.3,3.6,0.1l-2.1,3.9c-1.4,0.2-2.6,0.2-4.6-0.4C219.6,539.9,218.4,537.5,219.6,533.8z"/>
		<path class="st0" d="M236.3,542.8l2.4-3.4c1.7,1.6,4.1,3,6.2,3.5c1.8,0.4,2.7,0,3-1c0.2-1-0.1-1.5-2.6-2.7c-4.4-2.3-6.7-4.3-6-7.7
			c0.8-3.5,3.8-5.1,8.4-4c3.1,0.7,5.1,1.9,6.9,3.5l-2.3,3.4c-1.8-1.6-3.6-2.6-5.8-3.1c-1.6-0.4-2.4,0-2.6,0.9
			c-0.2,0.9,0.1,1.5,2.5,2.7c4.4,2.3,6.8,4.1,6,7.7c-0.9,4.1-4.2,5.3-8.7,4.2C240.7,546,238.2,544.7,236.3,542.8z"/>
		<path class="st0" d="M280.3,546c0.2-4.1,3.4-5.9,7.4-5.8c1.8,0.1,3.1,0.5,4.2,1.1l0.1-1.3c0.1-2.1-1-3-3.1-3.1
			c-2-0.1-3.6,0.3-5.4,1.1l-1.3-3.7c2.2-0.9,4.5-1.4,7.7-1.3c5,0.2,7.4,2.7,7.2,7.2l-0.5,12.4l-5.1-0.2l0.1-1.7
			c-1.3,1.1-3.1,1.9-5.2,1.8C282.8,552.5,280.1,550.3,280.3,546z M291.7,547.4l0.1-2.8c-0.9-0.5-1.9-0.8-3.6-0.9
			c-1.9-0.1-3,0.8-3,2.5c-0.1,1.7,0.8,2.7,2.6,2.8C289.4,549,290.8,548.3,291.7,547.4z"/>
		<path class="st0" d="M322.2,532.8l4.2-0.6l0.2,1.3c0.6-1.1,1.6-1.9,3-2.1c1.6-0.2,2.7,0.2,3.6,1.3c0.9-1.2,1.9-2,3.5-2.2
			c2.5-0.3,4.2,1,4.7,4.8l1.9,13.8l-4.2,0.6l-1.7-12.9c-0.2-1.6-0.8-2.2-1.7-2.1c-0.9,0.1-1.5,0.9-1.3,2.5l1.7,12.9l-4.2,0.6
			l-1.7-12.9c-0.2-1.6-0.8-2.2-1.7-2.1s-1.5,0.9-1.3,2.5l1.7,12.9l-4.2,0.6L322.2,532.8z"/>
		<path class="st0" d="M345.6,539c-1.5-6.4,1.6-10.5,6.5-11.5c4.8-1.1,9.4,1.2,10.8,7.6c1.4,6.3-1.7,10.5-6.5,11.6
			C351.6,547.8,347.1,545.3,345.6,539z M357.8,536.2c-0.9-3.8-2.6-5.1-4.8-4.6s-3.2,2.5-2.3,6.3c0.8,3.7,2.6,5.2,4.8,4.7
			C357.7,542,358.7,539.9,357.8,536.2z"/>
		<path class="st0" d="M366.2,524.3l4.9-1.6l0.7,2.1c0.7-1.9,2.1-3.4,4.1-4.1c1.7-0.5,3-0.5,4-0.2l0,5.3c-1.2-0.5-2.3-0.7-3.9-0.2
			c-2.3,0.7-3.1,2.9-2.2,5.6l3.1,9.5l-4.9,1.6L366.2,524.3z"/>
		<path class="st0" d="M387.8,526.9c-2.5-5.8-0.3-10.5,4.2-12.5c4.9-2.1,9.2,0,11.7,5.9c0.3,0.6,0.4,0.9,0.5,1.2l-11.2,4.8
			c1.2,2.2,3.3,3,5.5,2.1c1.9-0.8,2.9-1.8,4.2-3.3l3.1,2.6c-1.7,2.1-3.2,3.5-6,4.7C395.2,534.5,390.3,532.8,387.8,526.9z
			 M398.6,520.4c-1.2-2.2-2.7-3.2-5.1-2.2c-2,0.9-2.6,2.7-1.8,5.2L398.6,520.4z"/>
		<path class="st0" d="M423.6,498.5l4.3-2.8l1.2,1.8c0.2-2,1.1-3.9,2.9-5c1.5-1,2.8-1.3,3.8-1.3l1.5,5.1c-1.3-0.2-2.4-0.1-3.8,0.8
			c-2,1.3-2.2,3.6-0.7,6l5.5,8.3l-4.3,2.8L423.6,498.5z"/>
		<path class="st0" d="M445.1,495.2c-3.9-4.9-3.1-10,0.8-13.2c4.1-3.3,8.9-2.5,12.9,2.6c0.4,0.5,0.6,0.8,0.8,1.1l-9.6,7.7
			c1.8,1.8,4,2.1,5.9,0.5c1.6-1.3,2.3-2.5,3.2-4.3l3.7,1.6c-1,2.5-2.1,4.2-4.5,6.2C454.3,500.6,449.1,500.2,445.1,495.2z M453.8,486
			c-1.8-1.8-3.5-2.4-5.5-0.7c-1.7,1.3-1.7,3.3-0.4,5.5L453.8,486z"/>
		<path class="st0" d="M462.4,481.1c-4.1-4.3-4.1-9.7,0-13.6c2.3-2.2,4.7-2.9,7.5-2.6l-0.3,4.6c-1.8-0.2-3-0.2-4.4,1.2
			c-1.8,1.7-1.3,4.5,1,6.9c2.4,2.5,4.9,3.1,7,1.1c1.2-1.2,1.5-2.8,1.4-4.7l4.3,0c0.2,2.9-0.5,5.6-2.9,7.8
			C472,485.6,466.7,485.7,462.4,481.1z"/>
		<path class="st0" d="M483.8,465.2l-6.9-6l-2.5,2.9l-3.2-2.8l2.5-2.9l-3.9-3.4l1.7-5.2l5.5,4.8l3.7-4.2l3.2,2.8l-3.7,4.2l6.2,5.4
			c1.4,1.2,2.3,1,3.2,0c1-1.1,1.2-2.1,1.5-3.3l2.8,3.5c-0.3,1.3-0.8,2.5-2.2,4.1C489.5,467.7,486.8,467.8,483.8,465.2z"/>
		<path class="st0" d="M494.8,451.5c-3.3-2.4-3.1-6.1-0.7-9.4c1.1-1.5,2.2-2.4,3.2-2.9l-1.1-0.8c-1.7-1.2-3-0.8-4.3,0.9
			c-1.2,1.6-1.8,3.2-2,5.1l-3.8-0.9c0.4-2.3,1.3-4.6,3.2-7.2c2.9-4.1,6.4-4.7,10-2.1l10.1,7.3l-3,4.1l-1.3-1
			c0.1,1.7-0.1,3.7-1.4,5.4C501.6,453,498.3,454.1,494.8,451.5z M502.3,442.8l-2.3-1.7c-0.9,0.5-1.8,1.1-2.7,2.5
			c-1.1,1.5-0.9,2.9,0.4,3.9c1.4,1,2.7,0.8,3.7-0.6C502.3,445.5,502.5,444,502.3,442.8z"/>
		<path class="st0" d="M496.9,426.2l2.6-4.4l1.4,0.8c-0.4-1.6-0.4-3.3,0.7-5.2c2-3.4,5.4-4,9.7-1.4l10,6l-2.6,4.4l-9.4-5.6
			c-2.5-1.5-3.9-1.2-4.9,0.4c-0.9,1.5-0.7,3.1,1.7,4.6l9.6,5.7l-2.6,4.4L496.9,426.2z"/>
		<path class="st0" d="M529.7,414c1.8-4.9,1.5-6.6-1.5-8l-0.7-0.3c0.5,1.7,0.7,3.5-0.3,5.4c-1.6,3.2-5.3,4.7-11.5,1.8
			c-6.1-2.9-7.8-6.9-6-10.5c0.9-1.9,2.4-2.8,3.8-3.4l-1.4-0.7l2.2-4.6l14.8,7.1c5.6,2.7,6.7,6.2,4.3,12.9L529.7,414z M524.2,404.1
			l-7.1-3.4c-1.2,0.3-2.3,1.1-2.9,2.4c-0.9,1.8,0,3.4,3.7,5.1c3.9,1.8,5.5,1.4,6.3-0.4C524.8,406.5,524.7,405.3,524.2,404.1z"/>
		<path class="st0" d="M527.2,393.2l-10.9-4.1l1.8-4.8l10.3,3.8c2.8,1,4.1,0.4,4.7-1.3c0.6-1.7,0.1-3.2-2.5-4.2l-10.4-3.9l1.8-4.8
			l17.7,6.6l-1.8,4.8l-1.6-0.6c0.7,1.5,1,3.1,0.2,5.3C535.1,393.8,532,394.9,527.2,393.2z"/>
		<path class="st0" d="M537.6,368.4l-18-4.9l-0.8-5.5l19.2,5.2c1.7,0.5,2.5-0.3,2.9-1.6c0.4-1.4,0.3-2.5,0.2-3.5l3.8,1.8
			c0.2,1.2,0.2,2.9-0.3,4.6C543.8,368,541.4,369.4,537.6,368.4z"/>
		<path class="st0" d="M541.4,351.7c-4-0.7-5.4-4.2-4.7-8.1c0.3-1.8,0.9-3.1,1.6-4.1l-1.3-0.2c-2.1-0.4-3.1,0.6-3.5,2.7
			c-0.4,2-0.2,3.6,0.4,5.5l-3.8,0.8c-0.7-2.3-0.8-4.7-0.3-7.8c0.9-4.9,3.7-7,8-6.2l12.3,2.2l-0.9,5l-1.6-0.3
			c0.9,1.5,1.5,3.4,1.1,5.4C548.1,350.1,545.6,352.4,541.4,351.7z M544.2,340.6l-2.8-0.5c-0.6,0.8-1.1,1.8-1.4,3.4
			c-0.3,1.8,0.5,3,2,3.3c1.7,0.3,2.8-0.5,3.1-2.2C545.5,343,545,341.5,544.2,340.6z"/>
		<path class="st0" d="M532.3,326.6l0.4-5.1l2.2,0.2c-1.4-1.4-2.3-3.3-2.1-5.4c0.1-1.8,0.7-3,1.3-3.8l4.9,2
			c-0.9,0.9-1.6,1.8-1.7,3.5c-0.2,2.4,1.5,4,4.3,4.2l10,0.8l-0.4,5.1L532.3,326.6z"/>
		<path class="st0" d="M543,285.9c-6.7,0.6-10.2-1.9-10.6-5.9c-0.2-2.1,0.6-3.6,1.5-4.8l-6.7,0.6l-2.7-4.9l26.1-2.4l0.5,5.1
			l-1.7,0.2c1.3,1.1,2.4,2.5,2.6,4.7C552.4,282,549.9,285.3,543,285.9z M545.8,274.1l-7.9,0.7c-0.9,0.9-1.4,2-1.3,3.5
			c0.2,2,1.7,2.9,5.8,2.5c4.3-0.4,5.4-1.6,5.2-3.6C547.5,275.9,546.8,274.8,545.8,274.1z"/>
		<path class="st0" d="M540.6,264.1c-6.2,1.1-10.3-2-11.2-6.9c-1-5.2,2-9,8.4-10.2c0.6-0.1,1-0.2,1.3-0.2l2.2,12
			c2.5-0.7,3.7-2.6,3.3-4.9c-0.4-2.1-1.1-3.2-2.3-4.8l3.2-2.5c1.7,2.1,2.7,3.9,3.3,6.9C549.7,258.6,546.9,262.9,540.6,264.1z
			 M536.6,252.1c-2.4,0.7-3.7,1.9-3.3,4.5c0.4,2.1,2.1,3.1,4.6,2.9L536.6,252.1z"/>
		<path class="st0" d="M543.7,239.7l-4.1-0.5c0.6-2.3,0.7-5.1,0.1-7.1c-0.5-1.8-1.3-2.4-2.3-2.1c-1,0.3-1.2,0.8-1.2,3.5
			c0.1,5-0.5,8-4,8.9c-3.5,1-6.3-0.9-7.5-5.4c-0.9-3.1-0.8-5.4-0.2-7.8l4.1,0.4c-0.6,2.4-0.6,4.4,0,6.5c0.4,1.6,1.1,2.1,2,1.8
			c0.9-0.3,1.2-0.8,1.2-3.5c-0.1-5,0.3-7.9,3.9-8.9c4-1.1,6.6,1.1,7.9,5.6C544.4,234.3,544.4,237.2,543.7,239.7z"/>
		<path class="st0" d="M515,222.6c-1.5,0.6-3.1-0.1-3.8-2c-0.7-1.8,0-3.4,1.5-3.9c1.5-0.6,3.1,0.1,3.8,1.9
			C517.2,220.4,516.5,222,515,222.6z M532.3,215.4l-12.6,4.8l-1.8-4.8l11.7-4.5c1.7-0.6,1.9-1.7,1.4-3s-1.2-2.2-1.9-2.9l4.2-0.8
			c0.9,0.9,1.8,2.2,2.5,3.8C537.1,211.4,536,214,532.3,215.4z"/>
		<path class="st0" d="M532,190.9c-2.8-4.5-4.2-5.2-7.1-3.8l-0.7,0.3c1.6,0.7,3.1,1.6,4.1,3.6c1.6,3.2,0.5,7.1-5.8,10.1
			c-6,3-10.2,1.8-12-1.8c-0.9-1.9-0.8-3.6-0.3-5.1l-1.4,0.7l-2.2-4.6l14.8-7.2c5.6-2.7,9-1.4,12.8,4.6L532,190.9z M520.9,189.1
			l-7.1,3.5c-0.5,1.2-0.6,2.4,0.1,3.7c0.9,1.8,2.7,2.1,6.3,0.3c3.8-1.9,4.5-3.4,3.6-5.2C523.2,190.2,522.2,189.5,520.9,189.1z"/>
		<path class="st0" d="M504.2,185.9l-2.7-4.4l1.4-0.9c-1.6-0.4-3.1-1.2-4.3-3.1c-2.1-3.4-1-6.6,3.3-9.3l10-6l2.7,4.4l-9.4,5.7
			c-2.5,1.5-2.9,2.9-1.9,4.5c0.9,1.5,2.4,2.1,4.9,0.6l9.5-5.8l2.7,4.4L504.2,185.9z"/>
		<path class="st0" d="M503.1,155.5c-1.7,1.3-3.9,0.9-5.2-0.9c-1.3-1.8-1-4,0.7-5.3c1.7-1.3,4-0.9,5.3,0.9
			C505.2,151.9,504.8,154.2,503.1,155.5z"/>
	</g>
	<g>
		<polygon class="st1" points="455,445 285,445 285,365 205,365 205,215 395,215 395,385 315,385 315,415 425,415 425,185 175,185 
			175,395 255,395 255,405 165,405 165,175 435,175 435,425 305,425 305,375 385,375 385,225 215,225 215,355 285,355 285,295 
			315,295 315,335 345,335 345,265 255,265 255,325 245,325 245,255 355,255 355,345 305,345 305,305 295,305 295,355 365,355 
			365,245 235,245 235,335 265,335 265,275 335,275 335,325 325,325 325,285 275,285 275,345 225,345 225,235 375,235 375,365 
			295,365 295,435 445,435 445,165 155,165 155,415 265,415 265,385 185,385 185,195 415,195 415,405 325,405 325,395 405,395 
			405,205 195,205 195,375 275,375 275,425 145,425 145,155 455,155 		"/>
	</g>
</g>
<g id="Coin_1_front">
</g>
</svg>
