<?xml version="1.0" encoding="utf-8"?>
<!-- Generator: Adobe Illustrator 22.1.0, SVG Export Plug-In . SVG Version: 6.00 Build 0)  -->
<svg version="1.1" xmlns="http://www.w3.org/2000/svg" xmlns:xlink="http://www.w3.org/1999/xlink" x="0px" y="0px"
	 viewBox="0 0 1600 1600" style="enable-background:new 0 0 1600 1600;" xml:space="preserve">
<style type="text/css">
	.st0{fill:#D5E7E2;}
</style>
<g id="og_text">
</g>
<g id="circle">
	<g>
		<path class="st0" d="M1306.8,195.7l3.6,3.1l-8.5,12.8c-1.7,2.5-4.9,6.7-6.6,8.9c1.9-1.9,5.8-5.6,8-7.6l11.9-9.9l3.1,2.7l-8.2,13.1
			c-1.6,2.6-4.8,6.9-6.3,9.1c1.9-1.9,5.6-5.7,7.8-7.8l11.5-10.2l3.6,3.1l-25.7,22.2l-3.5-3.1l6.7-11c2.3-3.6,5.5-8.4,7.4-11
			c-2.3,2.3-6.7,6.2-9.9,8.9l-9.9,8.2l-3.4-3L1306.8,195.7z"/>
		<path class="st0" d="M1330.8,218.1l5.4,1.7l-8.5,9.1c2.3-0.3,4.9,0.1,7.1,2.2c3.9,3.6,3.9,8.2-0.8,13.2l-10.6,11.3l-3.7-3.4
			l10.1-10.8c3.2-3.4,3.3-6,1-8.1c-2.2-2.1-5.2-2.3-8.3,1.1l-10.2,10.9l-3.7-3.4L1330.8,218.1z"/>
		<path class="st0" d="M1337.9,261l13.3-13.2l3.6,3.6l-12.7,12.6c-1.7,1.7-1.5,3.3,0,4.8s3,2.3,4.1,2.7l-3.6,2.6
			c-1.1-0.4-3.1-1.6-4.7-3.2C1334.9,267.9,1334.5,264.4,1337.9,261z M1355.8,242.2c1.3-1.2,3.2-1.2,4.6,0.2c1.4,1.4,1.4,3.3,0.1,4.6
			c-1.2,1.2-3.2,1.2-4.6-0.2C1354.6,245.4,1354.6,243.4,1355.8,242.2z"/>
		<path class="st0" d="M1358,281.8l19.2-17.6l5.3,2.1l-20.4,18.7c-1.8,1.7-1.7,3.2-0.2,4.7c1.4,1.6,2.9,2.4,4,2.9l-3.7,2.5
			c-1.1-0.5-3-1.7-4.5-3.3C1354.7,288.6,1354.4,285.1,1358,281.8z"/>
		<path class="st0" d="M1377.3,293.8c6.2-5.3,13-4.8,17.2,0.1c4.5,5.3,3.2,11.6-2.7,16.6c-0.7,0.6-1.1,0.9-1.5,1.2l-11-12.9
			c-3.2,3.2-3.7,6.8-1.3,9.7c1.9,2.3,3.7,3.1,6.2,4l-1.4,3.9c-3.4-1.3-5.7-2.4-8.3-5.5C1370.8,306.6,1370.2,299.9,1377.3,293.8z
			 M1390.1,305.8c3-3,4-6.1,1.2-9.3c-2.2-2.6-5.5-2.8-9.2-0.1L1390.1,305.8z"/>
		<path class="st0" d="M1406.3,345.5l4.3-0.6c0,3,0.8,6,2.6,8.4c1.9,2.6,3.8,3.1,5.4,2s1.7-2.1-0.1-6.6c-2.4-5.9-2.2-9.5,1.2-12
			c3.6-2.6,7.9-1.4,11.2,3.1c2.3,3.2,3.2,6.3,3.3,9.2l-4.2,0.6c-0.1-2.9-0.8-5.2-2.6-7.6c-1.6-2.2-3.3-2.6-4.6-1.6
			c-1.4,1-1.9,2-0.1,6.4c2.3,5.7,2.9,9.4-0.9,12.2c-4.3,3.1-8.6,1.1-11.9-3.3C1407.3,352.3,1406.4,348.9,1406.3,345.5z"/>
		<path class="st0" d="M1430.7,362.1c7.2-4.8,13.7-3.1,17.2,2.1c3.5,5.3,2.7,11.8-4.5,16.6c-7.1,4.8-13.8,3.2-17.3-2
			C1422.5,373.6,1423.5,366.9,1430.7,362.1z M1440.5,376.6c4.9-3.3,5.9-6.9,3.9-10c-2.1-3.1-5.8-3.5-10.7-0.2s-6,7-4,10.1
			C1431.7,379.6,1435.6,379.9,1440.5,376.6z"/>
		<path class="st0" d="M1457.1,379.1l2.4,3.8l-1.6,1c1.8,0.1,3.3,0.7,4.3,2.4c1.2,1.9,1.1,3.5,0.2,5.2c2.1,0.3,3.7,1.1,5,3.1
			c1.9,3,0.8,5.9-3.5,8.6l-15.5,9.6l-2.4-3.8l14.9-9.2c2.5-1.6,3.1-2.9,2.2-4.3c-0.8-1.3-2.5-1.8-5-0.3l-14.9,9.3l-2.4-3.8l14.9-9.2
			c2.5-1.6,3.1-2.9,2.2-4.3c-0.8-1.3-2.5-1.8-5-0.3l-14.9,9.3l-2.4-3.8L1457.1,379.1z"/>
		<path class="st0" d="M1462.1,411c7.1-4,13.7-2.2,16.9,3.3c3.4,6,1,12-5.7,15.8c-0.8,0.4-1.3,0.7-1.7,0.9l-8.4-14.7
			c-3.8,2.5-4.9,6-3.1,9.3c1.5,2.6,3,3.7,5.3,5.1l-2.1,3.6c-3.1-1.9-5.1-3.4-7.1-6.9C1453.3,422.4,1454,415.6,1462.1,411z
			 M1472.4,425.2c3.5-2.4,5-5.2,3-8.9c-1.7-3-4.9-3.7-9-1.8L1472.4,425.2z"/>
		<path class="st0" d="M1489.8,462.7c7.9-3.8,14.3-0.6,17.1,5.3c1.7,3.6,1.6,6.7,0.5,9.7l-4.4-1.5c0.9-2.3,1.2-4.1,0-6.7
			c-1.8-3.8-6-4.5-10.7-2.3c-4.9,2.3-7.2,5.8-5.2,10.1c1.1,2.3,3.1,3.5,5.6,4.2l-1.5,4.1c-3.2-0.9-6.1-2.8-8-6.6
			C1480.2,473.1,1481.9,466.4,1489.8,462.7z"/>
		<path class="st0" d="M1498.9,497.1l24-10.2l4.3,3.8l-25.4,10.9c-2.3,1-2.6,2.4-1.8,4.4c0.8,1.9,1.9,3.2,2.8,4l-4.3,1.1
			c-0.9-0.8-2.3-2.6-3.2-4.6C1493.6,502.5,1494.4,499,1498.9,497.1z"/>
		<path class="st0" d="M1508.5,516.9c5.2-2,9.2,1.2,11.1,6c0.9,2.3,1.1,4.5,0.9,6.1l2.2-0.9c3.1-1.2,3.9-3.3,2.8-6.4
			c-1-2.5-2.3-4.2-4.3-5.9l3-2.9c2.1,1.9,3.9,4.5,5.2,7.9c2.1,5.6,0.8,9.8-4.7,11.9l-16,6.1l-1.8-4.8l2.5-1c-2.2-1-4.5-2.7-5.6-5.8
			C1502.2,523.5,1503,519,1508.5,516.9z M1512.9,532l4.3-1.6c0.2-1.6,0.1-3.3-0.9-5.8c-1.1-3-3.2-4-5.8-3.1
			c-2.8,1.1-3.6,3.2-2.6,5.7C1508.9,529.8,1510.9,531.3,1512.9,532z"/>
		<path class="st0" d="M1519.7,550.5l17.7-6l1.6,4.8l-16.9,5.8c-2.3,0.8-2.8,2.3-2.1,4.3c0.7,2,1.7,3.3,2.5,4.3l-4.4,0.7
			c-0.8-0.9-2.1-2.8-2.8-4.9C1513.9,555.4,1515.1,552.1,1519.7,550.5z M1544,541.5c1.7-0.6,3.4,0.3,4,2.2c0.6,1.9-0.2,3.6-1.9,4.2
			c-1.6,0.6-3.4-0.3-4-2.2C1541.5,543.8,1542.4,542,1544,541.5z"/>
		<path class="st0" d="M1544.3,565.2l1.3,4.3l-1.8,0.5c1.7,0.5,3,1.5,3.5,3.4c0.6,2.2,0.1,3.7-1.2,5.1c1.9,0.8,3.3,2,4,4.3
			c1,3.4-0.7,5.9-5.6,7.4l-17.5,5.2l-1.3-4.3l16.8-5c2.9-0.9,3.7-2,3.3-3.5c-0.4-1.5-1.9-2.4-4.7-1.5l-16.8,5l-1.3-4.3l16.8-5
			c2.9-0.9,3.7-2,3.3-3.5c-0.4-1.5-1.9-2.4-4.7-1.5l-16.8,5l-1.3-4.3L1544.3,565.2z"/>
		<path class="st0" d="M1543.2,632.9l14-3l-1.1-5l4.2-0.9l1.1,5l7.2-1.6l3.5,4.4l-9.6,2.1l1.7,7.7l-4.2,0.9l-1.7-7.7l-13.2,2.9
			c-2.4,0.5-3.1,1.6-2.7,3.6c0.5,2.1,1.3,3.1,2.2,4.2l-4.7,0.2c-1-1.2-1.7-2.4-2.3-5C1536.8,636.9,1538.4,633.9,1543.2,632.9z"/>
		<path class="st0" d="M1573.6,651.3l3.3,4.5l-12.3,2.2c2.1,1.1,3.8,3,4.3,6.1c0.9,5.2-1.7,8.9-8.6,10.1l-15.3,2.7l-0.9-5l14.6-2.6
			c4.6-0.8,6.2-2.8,5.7-5.9c-0.5-3-2.8-4.9-7.3-4.1l-14.7,2.6l-0.9-5L1573.6,651.3z"/>
		<path class="st0" d="M1553.9,683.1c5.6-0.8,8.7,3.3,9.4,8.4c0.3,2.5,0.1,4.6-0.5,6.2l2.4-0.3c3.3-0.5,4.6-2.3,4.1-5.6
			c-0.4-2.7-1.3-4.7-2.8-6.7l3.5-2.1c1.6,2.3,2.8,5.2,3.3,8.9c0.8,5.9-1.4,9.7-7.2,10.5l-17,2.4l-0.7-5l2.7-0.4
			c-1.9-1.5-3.8-3.7-4.2-6.9C1546.3,688.2,1548,684,1553.9,683.1z M1554.8,698.8l4.5-0.6c0.6-1.5,0.8-3.2,0.5-5.8
			c-0.4-3.1-2.2-4.7-5-4.3c-3,0.4-4.2,2.3-3.9,5C1551.3,695.8,1552.9,697.7,1554.8,698.8z"/>
		<path class="st0" d="M1557.2,717.9l14.3-1.4l-0.5-5.1l4.3-0.4l0.5,5.1l7.3-0.7l2.9,4.8l-9.7,1l0.8,7.9l-4.3,0.4l-0.8-7.9
			l-13.4,1.4c-2.4,0.2-3.3,1.2-3.1,3.3c0.2,2.1,0.9,3.2,1.7,4.4l-4.7-0.3c-0.8-1.3-1.4-2.6-1.7-5.2
			C1550.4,721.1,1552.3,718.4,1557.2,717.9z"/>
		<path class="st0" d="M1561.1,775.2l14.3-0.4l-0.1-5.1l4.3-0.1l0.1,5.1l7.3-0.2l2.6,5l-9.8,0.3l0.2,7.9l-4.3,0.1l-0.2-7.9
			l-13.5,0.3c-2.4,0.1-3.4,1-3.3,3.1c0.1,2.2,0.7,3.2,1.4,4.5l-4.6-0.6c-0.7-1.4-1.2-2.7-1.3-5.3
			C1554.2,778,1556.3,775.4,1561.1,775.2z"/>
		<path class="st0" d="M1587.7,799.2l2.4,5.1l-12.5-0.2c1.8,1.5,3.2,3.7,3.1,6.8c-0.1,5.3-3.4,8.4-10.4,8.3l-15.5-0.3l0.1-5
			l14.8,0.2c4.7,0.1,6.6-1.5,6.7-4.7c0-3-1.8-5.4-6.4-5.4l-14.9-0.2l0.1-5L1587.7,799.2z"/>
		<path class="st0" d="M1567.3,826.6c8.2,0.4,12.8,5.5,12.5,11.8c-0.3,7-5.6,10.6-13.3,10.3c-0.9,0-1.4-0.1-1.9-0.2l0.8-16.9
			c-4.5,0.1-7.4,2.4-7.6,6.2c-0.1,3,0.6,4.7,1.8,7.2l-3.7,1.9c-1.6-3.2-2.5-5.6-2.3-9.7C1553.8,831.5,1558,826.2,1567.3,826.6z
			 M1568.4,844.1c4.3-0.1,7.1-1.7,7.3-5.9c0.2-3.4-2.1-5.8-6.7-6.4L1568.4,844.1z"/>
		<path class="st0" d="M1563.1,884.2c8.6,1.1,12.4,6.7,11.6,12.9c-0.8,6.3-5.7,10.7-14.3,9.6c-8.5-1.1-12.5-6.7-11.7-12.9
			C1549.5,887.5,1554.6,883.2,1563.1,884.2z M1561,901.6c5.9,0.7,9-1.3,9.5-5c0.5-3.7-2.1-6.5-8-7.2s-9.2,1.3-9.6,5
			C1552.5,898.1,1555.2,900.9,1561,901.6z"/>
		<path class="st0" d="M1571.3,918.5l-0.8,5l-3.6-0.6c2.1,1.9,3.5,5,3,8.1c-0.4,2.3-1.2,3.9-2.1,4.9l-4.7-2.5c1.1-1,1.9-2.1,2.3-4.3
			c0.7-4.2-2.5-6.8-6.9-7.5l-12.8-2.1l0.8-5L1571.3,918.5z"/>
		<path class="st0" d="M1547.3,947.2l18.4,3.7l-1,5l-17.5-3.5c-2.4-0.5-3.5,0.6-4,2.6c-0.4,2.1-0.2,3.7,0,5l-4.2-1.6
			c-0.3-1.2-0.4-3.5,0-5.7C1539.8,948.6,1542.5,946.3,1547.3,947.2z M1572.8,951.7c1.7,0.4,2.8,2,2.4,3.9c-0.4,2-2,3-3.7,2.7
			c-1.7-0.3-2.8-1.9-2.4-3.9C1569.5,952.4,1571.1,951.3,1572.8,951.7z"/>
		<path class="st0" d="M1529.4,972c-1.4,7.7-0.1,9.9,4.9,11.1l1.2,0.3c-1.3-2.1-2.2-4.6-1.5-7.8c1.1-4.6,5.8-7.7,14.5-5.6
			c8.7,2.1,12.1,7.1,10.9,12.3c-0.7,2.9-2.5,4.6-4.5,5.9l2.4,0.6l-1.2,4.9l-21.8-5.3c-7.7-1.9-10.2-6-8.6-15.4L1529.4,972z
			 M1539.3,984.3l11.3,2.7c1.9-0.8,3.7-2.5,4.3-4.9c0.8-3.4-1.6-5.7-7.5-7.1c-6.3-1.5-8.9-0.1-9.7,3.1
			C1537.2,980.4,1537.9,982.4,1539.3,984.3z"/>
		<path class="st0" d="M1534.1,1003.2l18,5.1l-1.4,4.9l-17.2-4.9c-2.4-0.7-3.6,0.3-4.1,2.3c-0.6,2-0.5,3.7-0.3,4.9l-4.1-1.9
			c-0.2-1.2-0.2-3.5,0.5-5.7C1526.6,1004,1529.4,1001.9,1534.1,1003.2z M1559.2,1009.5c1.7,0.5,2.6,2.2,2.1,4.1
			c-0.5,1.9-2.2,2.9-3.9,2.4c-1.7-0.5-2.6-2.1-2.1-4.1C1555.8,1010,1557.6,1009.1,1559.2,1009.5z"/>
		<path class="st0" d="M1545.5,1031l-1.6,4.8l-2.6-0.8c1.3,2,1.9,4.5,1,7.4c-1.6,5-5.7,7-12.3,4.9l-14.8-4.8l1.6-4.8l14.1,4.6
			c4.4,1.4,6.8,0.5,7.8-2.5c0.9-2.9-0.1-5.6-4.5-7.1l-14.2-4.6l1.6-4.8L1545.5,1031z"/>
		<path class="st0" d="M1520.1,1052.1c5.3,1.9,6.1,7,4.4,11.8c-0.9,2.3-2.1,4.1-3.3,5.2l2.3,0.8c3.1,1.1,5.1,0.1,6.3-3
			c0.9-2.5,1-4.7,0.7-7.2l4.1-0.2c0.3,2.8,0,5.9-1.2,9.4c-2.1,5.6-5.8,7.9-11.3,5.9l-16.1-5.9l1.8-4.8l2.5,0.9c-1-2.2-1.6-5-0.5-8
			C1511.1,1053,1514.6,1050,1520.1,1052.1z M1513.6,1066.3l4.3,1.6c1.2-1.1,2.2-2.4,3.1-4.9c1.1-3,0.2-5.2-2.4-6.1
			c-2.8-1-4.8,0-5.8,2.6C1511.9,1062,1512.5,1064.5,1513.6,1066.3z"/>
		<path class="st0" d="M1506.4,1084.9l24.1,9.9l0.3,5.7l-25.6-10.5c-2.3-0.9-3.6-0.2-4.4,1.8c-0.8,2-0.9,3.6-0.9,4.8l-3.8-2.3
			c0-1.2,0.2-3.4,1.1-5.5C1498.8,1084.9,1501.9,1083.1,1506.4,1084.9z"/>
		<path class="st0" d="M1482.9,1137.3l23.3,11.7l-0.1,5.7l-24.7-12.4c-2.2-1.1-3.5-0.4-4.5,1.5c-0.9,1.9-1.2,3.5-1.3,4.7l-3.6-2.6
			c0-1.2,0.5-3.4,1.5-5.4C1475.4,1136.7,1478.6,1135.1,1482.9,1137.3z"/>
		<path class="st0" d="M1474,1157.4c4.9,2.7,5,7.8,2.5,12.3c-1.2,2.2-2.7,3.7-4.1,4.7l2.1,1.2c2.9,1.6,5,0.9,6.6-2
			c1.3-2.4,1.7-4.5,1.7-7l4.1,0.4c-0.1,2.8-0.9,5.9-2.7,9.1c-2.9,5.3-6.9,6.9-12.1,4.1l-15-8.3l2.5-4.5l2.4,1.3
			c-0.7-2.3-0.8-5.2,0.7-8C1464.9,1156.9,1468.8,1154.6,1474,1157.4z M1465.4,1170.5l4,2.2c1.4-0.9,2.6-2,3.8-4.4
			c1.5-2.8,1-5.1-1.4-6.4c-2.6-1.5-4.8-0.7-6.1,1.7C1464.4,1166,1464.5,1168.6,1465.4,1170.5z"/>
		<path class="st0" d="M1452.5,1185.2l-2.2-1.3l2.6-4.4l27.9,16.7l-0.5,5.6l-10.7-6.4c0.6,2.4,0.8,5.1-0.9,7.8
			c-2.6,4.3-7.9,5.7-15.6,1.1c-7.7-4.6-9.4-10.4-6.7-14.9C1447.9,1186.8,1450.1,1185.7,1452.5,1185.2z M1455.6,1199.8
			c5.3,3.2,8.4,2.8,10.1-0.1c1.2-2,1.2-4.2,0.4-6.4l-10-6c-2.2,0.2-4.3,1.2-5.6,3.4C1448.8,1193.8,1450.4,1196.7,1455.6,1199.8z"/>
		<path class="st0" d="M1434.1,1210.3l26.1,5.7l-3.1,4.7l-17.2-4.4c-0.9-0.3-2.3-0.8-3.1-1.2c0.7,0.7,1.8,1.7,2.3,2.4l11.1,14
			l-3,4.5l-21.5-29.4l2.8-4.2L1434.1,1210.3z"/>
		<path class="st0" d="M1441.7,1243.9l-2.9,4.2l-3-2.1c1.1,2.6,0.9,6-0.9,8.6c-1.4,1.9-2.8,3-4,3.5l-3.1-4.3c1.4-0.4,2.7-1,4-2.8
			c2.4-3.4,0.7-7.3-2.9-9.8l-10.6-7.5l2.9-4.2L1441.7,1243.9z"/>
		<path class="st0" d="M1407.5,1259.2l14.9,11.4l-3.1,4l-14.2-10.9c-1.9-1.5-3.4-1.1-4.7,0.6c-1.3,1.7-1.8,3.3-2.1,4.5l-3.1-3.3
			c0.3-1.2,1.1-3.3,2.5-5.1C1400.2,1257.2,1403.6,1256.3,1407.5,1259.2z M1428.5,1274.4c1.4,1.1,1.6,3,0.4,4.6
			c-1.2,1.6-3.1,1.8-4.5,0.8c-1.4-1.1-1.7-3-0.4-4.6C1425.2,1273.6,1427.1,1273.4,1428.5,1274.4z"/>
		<path class="st0" d="M1407.8,1289.3l-3.2,3.9l-2.1-1.7c0.5,2.3,0.2,4.9-1.8,7.2c-3.4,4.1-7.9,4.4-13.3,0l-11.9-9.9l3.2-3.9
			l11.4,9.4c3.6,3,6.1,3,8.2,0.5c1.9-2.3,2-5.3-1.6-8.2l-11.5-9.5l3.2-3.9L1407.8,1289.3z"/>
		<path class="st0" d="M1371.5,1303.3l10.7,9.6l3.4-3.8l3.2,2.9l-3.4,3.8l5.5,4.9l-1.5,5.4l-7.3-6.5l-5.3,5.9l-3.2-2.9l5.3-5.9
			l-10.1-9c-1.8-1.6-3.1-1.6-4.5,0c-1.4,1.6-1.7,2.9-2.1,4.2l-2.9-3.6c0.4-1.5,0.9-2.8,2.7-4.8
			C1364.5,1300.5,1367.9,1300.1,1371.5,1303.3z"/>
		<path class="st0" d="M1374.5,1338.8l-1.7,5.3l-9-8.7c0.3,2.3-0.2,4.9-2.3,7.1c-3.7,3.8-8.2,3.8-13.2-1l-11.2-10.7l3.5-3.6
			l10.7,10.2c3.4,3.2,5.9,3.4,8.1,1.1c2.1-2.2,2.3-5.1-1-8.3l-10.8-10.3l3.5-3.6L1374.5,1338.8z"/>
		<path class="st0" d="M1310.5,1365l12.5,14l-3.8,3.4l-11.9-13.3c-1.6-1.8-3.2-1.7-4.7-0.3c-1.6,1.4-2.4,2.9-2.9,4l-2.4-3.8
			c0.5-1.1,1.7-3,3.4-4.5C1303.8,1361.6,1307.3,1361.4,1310.5,1365z M1328.4,1383.8c1.2,1.3,1,3.3-0.4,4.6c-1.5,1.3-3.4,1.2-4.6-0.1
			c-1.2-1.3-1.1-3.2,0.4-4.6C1325.2,1382.4,1327.2,1382.5,1328.4,1383.8z"/>
		<path class="st0" d="M1290.9,1377.2l0.8,4.2c-3,0.2-6,1.2-8.2,3.1c-2.5,2.1-2.9,4-1.6,5.5c1.3,1.5,2.2,1.6,6.6-0.5
			c5.7-2.7,9.3-2.8,12,0.4c2.8,3.4,1.9,7.8-2.4,11.4c-3.1,2.5-6.1,3.6-9,3.9l-0.9-4.1c2.9-0.3,5.1-1.1,7.4-3.1
			c2.1-1.7,2.4-3.4,1.3-4.7c-1.1-1.3-2.1-1.7-6.4,0.3c-5.6,2.7-9.2,3.5-12.2-0.2c-3.4-4.1-1.7-8.5,2.6-12.1
			C1284.2,1378.6,1287.5,1377.5,1290.9,1377.2z"/>
		<path class="st0" d="M1244,1418.8l8.3,11.7l4.1-2.9l2.5,3.5l-4.2,2.9l4.2,6l-2.7,4.9l-5.7-8l-6.5,4.6l-2.5-3.5l6.5-4.6l-7.8-11
			c-1.4-2-2.7-2.3-4.4-1.1c-1.8,1.2-2.3,2.4-3,3.7l-2-4.2c0.7-1.4,1.5-2.5,3.7-4C1237.8,1414.5,1241.2,1414.9,1244,1418.8z"/>
		<path class="st0" d="M1238.9,1454.1l-2.9,4.8l-6.8-10.4c-0.2,2.3-1.3,4.7-3.9,6.4c-4.4,2.9-8.9,1.9-12.7-3.9l-8.5-13l4.2-2.8
			l8.1,12.4c2.5,3.9,5,4.7,7.6,2.9c2.5-1.7,3.4-4.5,0.9-8.3l-8.2-12.5l4.2-2.8L1238.9,1454.1z"/>
		<path class="st0" d="M1204.7,1452.6c4.2,7,2.5,13.6-2.9,16.9c-6,3.6-11.9,1.3-15.9-5.4c-0.4-0.7-0.7-1.3-0.9-1.7l14.5-8.7
			c-2.6-3.7-6.1-4.8-9.3-2.8c-2.6,1.5-3.6,3.1-5,5.5l-3.6-2.1c1.8-3.2,3.3-5.2,6.8-7.3C1193.1,1444.1,1199.9,1444.6,1204.7,1452.6z
			 M1190.8,1463.2c2.5,3.5,5.4,4.9,8.9,2.8c2.9-1.8,3.6-5,1.6-9.1L1190.8,1463.2z"/>
		<path class="st0" d="M1156.4,1484.9c4.9,9.7,3.6,17.6-3.2,21c-4.8,2.4-8.5,1.4-12.4-2l3-3.8c3,2.4,4.9,3,7.4,1.7
			c3.9-2,4.4-6.8,0.5-14.6c-3.9-7.8-8.2-10.2-12.1-8.3c-2.6,1.3-3.3,3.5-3.3,7.2l-4.7-0.1c-0.1-4.7,1.3-8.7,6.1-11.1
			C1144.7,1471.3,1151.6,1475.3,1156.4,1484.9z"/>
		<path class="st0" d="M1130.5,1507l-4.6,2.1l-1.5-3.4c-0.4,2.8-2.2,5.7-5.1,7c-2.1,1-3.9,1.1-5.2,1l-0.6-5.3
			c1.4,0.4,2.8,0.4,4.9-0.5c3.8-1.8,4.3-5.9,2.4-10l-5.4-11.8l4.6-2.1L1130.5,1507z"/>
		<path class="st0" d="M1102,1506.1c3.1,7.5,0.5,13.9-5.4,16.3c-6.4,2.6-12-0.5-14.9-7.7c-0.3-0.8-0.5-1.4-0.6-1.8l15.7-6.4
			c-2-4-5.3-5.7-8.8-4.2c-2.8,1.1-4,2.5-5.8,4.7l-3.3-2.6c2.3-2.8,4.1-4.6,7.8-6.2C1091.9,1496,1098.5,1497.5,1102,1506.1z
			 M1086.7,1514.5c1.9,3.8,4.6,5.7,8.4,4.1c3.2-1.3,4.3-4.4,2.9-8.7L1086.7,1514.5z"/>
		<path class="st0" d="M1067.1,1513.4l5,13.5l4.8-1.8l1.5,4.1l-4.8,1.8l2.5,6.9l-3.9,4l-3.4-9.2l-7.4,2.7l-1.5-4.1l7.4-2.7
			l-4.7-12.7c-0.8-2.3-2-2.9-4-2.2c-2,0.7-2.8,1.7-3.8,2.7l-0.9-4.6c1.1-1.1,2.1-2,4.6-2.9
			C1062.3,1507.6,1065.4,1508.8,1067.1,1513.4z"/>
		<path class="st0" d="M1046.2,1522.2c1.7,5.3-1.7,9.1-6.6,10.7c-2.4,0.8-4.5,0.9-6.2,0.6l0.7,2.3c1,3.1,3,4.1,6.2,3.1
			c2.6-0.8,4.4-2.1,6.1-3.9l2.7,3.1c-2,2-4.7,3.7-8.2,4.8c-5.7,1.9-9.8,0.3-11.6-5.3l-5.3-16.3l4.8-1.6l0.8,2.6c1.1-2.2,3-4.3,6-5.3
			C1039.9,1515.6,1044.4,1516.5,1046.2,1522.2z M1030.9,1525.8l1.4,4.3c1.6,0.3,3.3,0.3,5.8-0.6c3-1,4.2-3,3.4-5.6
			c-0.9-2.9-3-3.8-5.6-2.9C1033.3,1521.8,1031.7,1523.8,1030.9,1525.8z"/>
		<path class="st0" d="M1022.7,1548l-4.8,1.4l-0.7-2.6c-0.9,2.2-2.6,4.1-5.6,4.9c-5.1,1.4-9-0.8-10.9-7.5l-4.2-14.9l4.8-1.4l4,14.2
			c1.3,4.5,3.4,5.9,6.4,5.1c2.9-0.8,4.6-3.3,3.4-7.7l-4.1-14.4l4.8-1.4L1022.7,1548z"/>
		<path class="st0" d="M964.4,1550.1c1.7,8.5-2.4,13.9-8.5,15.1c-6.2,1.3-11.9-2-13.6-10.5c-1.7-8.4,2.4-14,8.5-15.2
			C956.9,1538.2,962.7,1541.6,964.4,1550.1z M947.3,1553.6c1.2,5.8,4.1,8.1,7.8,7.4c3.7-0.7,5.4-4,4.3-9.8c-1.2-5.8-4.2-8.3-7.8-7.5
			C947.9,1544.4,946.1,1547.8,947.3,1553.6z"/>
		<path class="st0" d="M936.7,1568.3l-5,0.8l-0.4-2.7c-1.2,2-3.1,3.8-6.1,4.3c-5.2,0.9-8.9-1.9-10-8.7l-2.5-15.3l5-0.8l2.4,14.6
			c0.8,4.6,2.7,6.3,5.8,5.8c3-0.5,5-2.7,4.2-7.3l-2.4-14.7l5-0.8L936.7,1568.3z"/>
		<path class="st0" d="M907.2,1560.4c1,8.1-3.2,13.5-9.5,14.3c-6.9,0.9-11.4-3.6-12.4-11.4c-0.1-0.9-0.1-1.4-0.1-1.9l16.8-2.1
			c-0.9-4.4-3.6-6.9-7.4-6.4c-3,0.4-4.6,1.4-6.8,3l-2.5-3.4c2.9-2.2,5.1-3.4,9.1-3.9C900.1,1547.9,906,1551.1,907.2,1560.4z
			 M890.2,1564.4c0.9,4.2,2.9,6.6,7.1,6.1c3.4-0.4,5.3-3.1,5.1-7.7L890.2,1564.4z"/>
		<path class="st0" d="M870.1,1559.6l-7.2,0.6l3.1-13.8l3.8-0.3L870.1,1559.6z"/>
		<path class="st0" d="M820.4,1562.4c0.1,5.6-4.3,8.2-9.5,8.3c-2.5,0-4.6-0.5-6.1-1.2l0,2.4c0.1,3.3,1.7,4.8,5,4.8
			c2.7,0,4.8-0.8,7-2l1.7,3.8c-2.5,1.3-5.5,2.2-9.2,2.2c-6,0.1-9.5-2.6-9.5-8.4l-0.3-17.1l5.1-0.1l0,2.7c1.7-1.8,4.1-3.3,7.3-3.3
			C816.3,1554.3,820.3,1556.5,820.4,1562.4z M804.7,1561.5l0.1,4.6c1.5,0.7,3,1.2,5.7,1.2c3.2-0.1,4.9-1.7,4.9-4.4
			c0-3-1.8-4.5-4.5-4.4C808.2,1558.4,806,1559.8,804.7,1561.5z"/>
		<path class="st0" d="M790.3,1580.2l-5-0.1l0.1-2.7c-1.5,1.8-3.7,3.1-6.8,3c-5.3-0.1-8.4-3.5-8.2-10.4l0.4-15.5l5,0.1l-0.4,14.8
			c-0.1,4.7,1.5,6.7,4.6,6.7c3,0.1,5.4-1.7,5.5-6.3l0.4-14.9l5,0.1L790.3,1580.2z"/>
		<path class="st0" d="M762.8,1566.5c-0.6,9-4.9,13.2-10.2,12.8c-3-0.2-5-1.6-6.5-3.4l-0.6,9.8l-5.2,2.1l2.2-34.9l5.1,0.3l-0.2,2.7
			c1.8-1.7,4.1-3,7.3-2.8C759.5,1553.4,763.4,1557.6,762.8,1566.5z M747.1,1559.9l-0.7,11.6c1.1,1.8,3,3.2,5.6,3.4
			c3.4,0.2,5.4-2.6,5.7-8.6c0.4-6.4-1.4-8.7-4.8-9C750.6,1557.2,748.7,1558.3,747.1,1559.9z"/>
		<path class="st0" d="M701.2,1581.5l-5.3,1.7l1.7-12.4c-1.7,1.6-4.1,2.7-7.1,2.3c-5.2-0.7-7.9-4.4-7-11.3l2.1-15.4l5,0.7l-2,14.6
			c-0.6,4.6,0.7,6.8,3.8,7.2c3,0.4,5.5-1.1,6.2-5.7l2-14.8l5,0.7L701.2,1581.5z"/>
		<path class="st0" d="M677,1552.9c-1,5.5-5.8,7.3-10.9,6.4c-2.5-0.4-4.4-1.4-5.7-2.4l-0.4,2.4c-0.6,3.3,0.8,5.1,4,5.6
			c2.6,0.5,4.8,0.2,7.2-0.6l0.9,4c-2.7,0.8-5.8,1.1-9.5,0.4c-5.9-1-8.8-4.3-7.8-10.1l3-16.9l5,0.9l-0.5,2.6c2-1.4,4.7-2.4,7.8-1.9
			C674.5,1544.1,678,1547.1,677,1552.9z M661.8,1548.9l-0.8,4.5c1.3,1,2.8,1.8,5.4,2.2c3.1,0.6,5.1-0.7,5.6-3.4
			c0.5-3-0.9-4.7-3.6-5.2C665.8,1546.6,663.4,1547.5,661.8,1548.9z"/>
		<path class="st0" d="M648.9,1542.6l-2.8,3.3c-2-2.2-4.6-4-7.5-4.6c-3.1-0.7-4.9,0.2-5.3,2.1s0.1,2.7,4.5,4.8
			c5.7,2.8,8,5.6,7.1,9.7c-0.9,4.3-5,6.3-10.4,5.1c-3.9-0.8-6.6-2.6-8.6-4.7l2.7-3.2c2,2.1,4,3.3,7,4c2.6,0.6,4.2-0.2,4.5-1.9
			c0.4-1.7,0.1-2.7-4.2-4.8c-5.6-2.7-8.4-5.1-7.4-9.7c1.1-5.2,5.7-6.6,11.1-5.4C643.7,1538.3,646.6,1540.1,648.9,1542.6z"/>
		<path class="st0" d="M582.1,1544.9l4.4,1.3l-1.2,4.1l-4.4-1.3l-0.5,1.7c-1.7,5.6-5.6,6.6-9.5,5.4c-2.4-0.7-3.9-1.9-4.9-2.7l1.2-4
			c0.8,0.7,2,1.7,3.8,2.2c2,0.6,3.8,0.4,4.6-2.2l0.5-1.8l-6.6-2l1.2-4.1l6.5,1.9l6-20l4.9,1.5L582.1,1544.9z"/>
		<path class="st0" d="M564,1530.7c-2.8,8.2-9,10.8-15,8.8c-6-2-9.3-7.8-6.5-15.9c2.8-8.1,9.1-10.9,15-8.9
			C563.5,1516.7,566.7,1522.6,564,1530.7z M547.4,1525.2c-1.9,5.6-0.5,9.1,3,10.3c3.5,1.2,6.7-0.8,8.6-6.3c1.9-5.6,0.6-9.2-2.9-10.4
			C552.5,1517.5,549.3,1519.6,547.4,1525.2z"/>
		<path class="st0" d="M536.5,1518.2l-5.5,14.5l-4.7-1.8l5.3-13.8c1.7-4.3,0.8-6.8-2.1-7.9c-2.8-1.1-5.6-0.2-7.3,4.2l-5.3,13.9
			l-4.7-1.8l9-23.5l4.7,1.8l-1,2.5c2-1.2,4.6-1.7,7.4-0.6C537.2,1507.5,539,1511.7,536.5,1518.2z"/>
		<path class="st0" d="M503.4,1521.9l-4.6-2l1.1-2.5c-2.1,1.1-4.6,1.5-7.4,0.3c-4.9-2.1-6.5-6.3-3.8-12.7l6.1-14.3l4.6,2l-5.8,13.6
			c-1.8,4.3-1.1,6.7,1.8,8c2.8,1.2,5.6,0.4,7.4-3.9l5.9-13.7l4.6,2L503.4,1521.9z"/>
		<path class="st0" d="M483,1499c-3.8,8.1-9.4,10.4-14.2,8.2c-2.7-1.3-4-3.3-4.8-5.6l-4.2,8.9l-5.6,0l14.9-31.6l4.6,2.2l-1.2,2.5
			c2.3-0.9,5-1.3,7.9,0.1C484.7,1485.7,486.8,1491,483,1499z M470.8,1487.1l-5,10.5c0.4,2.1,1.6,4.1,3.9,5.2
			c3.1,1.5,5.9-0.4,8.5-5.9c2.7-5.8,1.9-8.7-1.1-10.1C475.1,1485.9,472.9,1486.2,470.8,1487.1z"/>
		<path class="st0" d="M431.2,1473.1c-4.4,7.8-10.1,9.7-14.8,7.1c-2.6-1.5-3.8-3.6-4.3-5.9l-4.9,8.6l-5.6-0.4l17.3-30.4l4.4,2.5
			l-1.4,2.4c2.4-0.7,5-0.9,7.8,0.7C433.9,1459.9,435.6,1465.4,431.2,1473.1z M420,1460.3l-5.8,10.1c0.3,2.1,1.3,4.2,3.5,5.5
			c3,1.7,5.9,0.1,8.9-5.2c3.2-5.6,2.6-8.5-0.4-10.1C424.3,1459.4,422.2,1459.5,420,1460.3z"/>
		<path class="st0" d="M390.2,1472.5c-0.9,1.5-2.8,1.9-4.5,0.9c-1.7-1.1-2.1-2.9-1.2-4.4c0.9-1.5,2.8-1.9,4.5-0.9
			C390.7,1469.1,391.1,1471,390.2,1472.5z M403.3,1450.1l-9.9,15.9l-4.3-2.7l9.4-15.2c1.3-2.1,0.7-3.5-1.1-4.6
			c-1.8-1.1-3.4-1.5-4.7-1.7l2.9-3.4c1.2,0.2,3.4,0.8,5.3,2C404.6,1442.7,405.8,1446,403.3,1450.1z"/>
		<path class="st0" d="M370.6,1446.3l3.8,2.5l-2.4,3.6l-3.8-2.5l-1,1.4c-3.3,4.9-7.3,4.6-10.7,2.4c-2.1-1.4-3.2-3-3.9-4l2.3-3.5
			c0.6,0.9,1.4,2.2,2.9,3.2c1.7,1.2,3.5,1.5,5-0.8l1-1.6l-5.7-3.9l2.4-3.6l5.7,3.8l11.7-17.3l4.2,2.8L370.6,1446.3z"/>
		<path class="st0" d="M346.5,1429.7l3.7,2.7l-2.5,3.5l-3.7-2.7l-1,1.4c-3.4,4.7-7.5,4.4-10.8,2c-2.1-1.5-3.1-3.1-3.7-4.1l2.5-3.4
			c0.5,0.9,1.3,2.2,2.8,3.3c1.7,1.2,3.4,1.6,5.1-0.6l1.1-1.5l-5.6-4.1l2.5-3.5l5.5,4l12.3-16.9l4.1,3L346.5,1429.7z"/>
		<path class="st0" d="M333.9,1410.2c-5.1,6.4-11.9,7.2-16.9,3.3c-5.5-4.3-5.4-10.7-0.6-16.8c0.5-0.7,0.9-1.1,1.3-1.4l13.3,10.5
			c2.5-3.8,2.3-7.4-0.6-9.7c-2.3-1.8-4.2-2.3-6.9-2.7l0.6-4.1c3.6,0.6,6,1.3,9.2,3.8C337.8,1396.4,339.7,1402.9,333.9,1410.2z
			 M319.1,1401c-2.4,3.6-2.7,6.7,0.6,9.3c2.7,2.1,5.9,1.6,9.1-1.7L319.1,1401z"/>
		<path class="st0" d="M300.6,1399.5l-3.9-3.3l2.4-2.8c-2.7,0.9-6.1,0.4-8.4-1.6c-1.8-1.5-2.7-3.1-3.1-4.3l4.5-2.8
			c0.3,1.4,0.8,2.8,2.5,4.2c3.2,2.7,7.2,1.4,10.1-2l8.4-9.9l3.9,3.3L300.6,1399.5z"/>
		<path class="st0" d="M289.3,1373.3c-5.5,6-12.4,6.3-17.1,2c-5.1-4.7-4.6-11.1,0.6-16.8c0.6-0.6,1-1,1.4-1.3l12.5,11.5
			c2.8-3.6,2.9-7.2,0.1-9.8c-2.2-2-4-2.6-6.7-3.2l0.9-4.1c3.5,0.8,5.9,1.7,8.9,4.4C294.2,1359.8,295.6,1366.4,289.3,1373.3z
			 M275.2,1363c-2.6,3.4-3.2,6.5-0.1,9.3c2.5,2.3,5.8,2.1,9.2-1L275.2,1363z"/>
		<path class="st0" d="M258.5,1361.7l-3.6-3.5l1.9-1.9c-2.3,0.3-4.9-0.3-7-2.4c-3.8-3.7-3.7-8.3,1.2-13.2l10.9-11l3.6,3.5
			l-10.4,10.5c-3.3,3.3-3.5,5.9-1.2,8.1c2.1,2.1,5.1,2.4,8.3-0.9l10.5-10.6l3.6,3.5L258.5,1361.7z"/>
		<path class="st0" d="M247.7,1324.3l-10.5,9.8l3.5,3.7l-3.2,3l-3.5-3.7l-5.4,5l-5.2-2l7.1-6.7l-5.4-5.8l3.2-3l5.4,5.8l9.8-9.2
			c1.8-1.7,1.9-3,0.5-4.5c-1.5-1.6-2.7-2-4-2.5l3.9-2.6c1.4,0.6,2.7,1.2,4.5,3.1C251.1,1317.6,251.2,1321,247.7,1324.3z"/>
		<path class="st0" d="M200.3,1299.3l-2.9-3.6l7.5-8.3c1.6-1.7,4.4-4.4,6.1-6.1c-2,1.3-5.2,3.3-7.4,4.4l-10.1,5.1l-2.6-3.3l7.2-8.8
			c1.6-1.9,4.4-4.9,5.9-6.3c-1.8,1.2-5.2,3.5-7.3,4.7l-9.7,5.5l-2.9-3.6l22.6-12.1l2.9,3.5l-7.6,9.4c-1.8,2.2-4,4.4-5.6,6
			c1.9-1.3,4.6-2.8,7.1-4.2l10.8-5.4l2.8,3.5L200.3,1299.3z"/>
		<path class="st0" d="M194.7,1264.2c-4.5,3.4-9.2,1.3-12.3-2.8c-1.5-2-2.3-4-2.5-5.7l-1.9,1.4c-2.7,2-2.9,4.2-0.9,6.9
			c1.6,2.2,3.4,3.4,5.7,4.5l-2.1,3.6c-2.5-1.3-5-3.2-7.2-6.2c-3.6-4.8-3.4-9.2,1.3-12.7l13.7-10.2l3,4.1l-2.2,1.6
			c2.4,0.4,5.1,1.4,7,4C198.9,1256.2,199.5,1260.7,194.7,1264.2z M186.4,1250.9l-3.7,2.7c0.2,1.6,0.8,3.2,2.4,5.3
			c1.9,2.5,4.2,3,6.4,1.4c2.4-1.8,2.6-4,1-6.2C190.9,1251.9,188.5,1251,186.4,1250.9z"/>
		<path class="st0" d="M178.9,1229.8l-15.2,22l-3.2-4.6l10.6-14.3c0.7-0.7,1.6-1.8,2.3-2.4c-0.9,0.4-2.3,1-3.1,1.2l-17.2,4.9
			l-3.1-4.5l35.4-8.7l2.9,4.2L178.9,1229.8z"/>
		<path class="st0" d="M165.2,1213.8l-4.3,0.3c0.2-3-0.4-6.1-2-8.6c-1.7-2.7-3.6-3.4-5.2-2.3c-1.7,1.1-1.8,2-0.3,6.6
			c2,6,1.6,9.6-2,11.9c-3.7,2.4-8,0.9-11-3.8c-2.1-3.4-2.8-6.5-2.7-9.4l4.2-0.3c-0.1,2.9,0.5,5.2,2.1,7.8c1.4,2.3,3.1,2.8,4.5,1.9
			c1.5-0.9,2-1.9,0.5-6.4c-2-5.9-2.3-9.5,1.7-12.1c4.5-2.8,8.7-0.6,11.6,4.1C164.6,1207,165.4,1210.4,165.2,1213.8z"/>
		<path class="st0" d="M129.8,1162l-12.7,6.8l2.4,4.5l-3.8,2l-2.4-4.5l-6.5,3.5l-4.5-3.3l8.6-4.6l-3.7-7l3.8-2l3.7,7l11.9-6.3
			c2.2-1.2,2.6-2.4,1.6-4.2c-1-1.9-2.1-2.6-3.2-3.4l4.4-1.5c1.2,0.9,2.3,1.8,3.5,4.2C134.9,1156.4,134.1,1159.7,129.8,1162z"/>
		<path class="st0" d="M114,1145c-7.8,3.8-14,1.1-16.8-4.5c-2.8-5.7-1-12.1,6.8-15.8c7.7-3.8,14.1-1.2,16.9,4.4
			C123.7,1134.8,121.7,1141.3,114,1145z M106.3,1129.3c-5.3,2.6-6.8,6-5.2,9.4c1.6,3.4,5.3,4.3,10.6,1.7s7-6.1,5.3-9.4
			C115.4,1127.6,111.6,1126.7,106.3,1129.3z"/>
		<path class="st0" d="M98.7,1087.5l-4.3-0.5c0.8-2.9,0.7-6.1-0.4-8.8c-1.2-3-2.9-4-4.7-3.3c-1.8,0.7-2.2,1.6-1.6,6.4
			c0.8,6.3-0.2,9.7-4.2,11.3c-4.1,1.6-8-0.7-10-5.8c-1.5-3.7-1.5-6.9-0.9-9.7l4.2,0.5c-0.6,2.8-0.5,5.2,0.6,8c1,2.5,2.5,3.3,4.1,2.7
			c1.6-0.6,2.3-1.5,1.7-6.1c-0.8-6.1-0.5-9.8,4-11.5c4.9-1.9,8.6,1.1,10.7,6.2C99.5,1080.7,99.6,1084.2,98.7,1087.5z"/>
		<path class="st0" d="M67.1,1068.2l-1.7-4.8l2.6-0.9c-2.3-1.1-4.4-2.6-5.5-5.7c-1.7-4.7,0.7-9.7,9.1-12.7c8.5-3,14-0.7,15.8,4.4
			c1,2.9,0.4,5.2-0.6,7.3l8.8-3.1l4,4L67.1,1068.2z M73.5,1049c-5.8,2-7.5,4.7-6.4,7.8c0.8,2.2,2.5,3.6,4.6,4.4l11-3.9
			c1.3-1.8,1.8-4.1,1-6.5C82.5,1047.6,79.2,1046.9,73.5,1049z"/>
		<path class="st0" d="M56.8,1038.3l-1.5-4.9l3.5-1.1c-2.7-0.7-5.3-2.9-6.2-5.9c-0.7-2.2-0.6-4-0.3-5.3l5.3,0.1
			c-0.5,1.4-0.8,2.8-0.2,4.9c1.2,4,5.3,5,9.6,3.7l12.4-3.8l1.5,4.9L56.8,1038.3z"/>
		<path class="st0" d="M61.3,1010.1c-7.9,2.1-13.8-1.3-15.5-7.5c-1.8-6.7,2-11.8,9.6-13.8c0.8-0.2,1.4-0.3,1.9-0.4l4.4,16.4
			c4.3-1.5,6.3-4.5,5.3-8.2c-0.8-2.9-2-4.3-3.9-6.3l3-2.9c2.5,2.6,4.1,4.6,5.1,8.5C72.7,1001.3,70.3,1007.7,61.3,1010.1z
			 M54.9,993.8c-4,1.4-6.2,3.8-5.1,7.8c0.9,3.3,3.8,4.8,8.3,4L54.9,993.8z"/>
		<path class="st0" d="M58.8,980.8c-5.5,1.2-8.9-2.5-10.1-7.5c-0.6-2.4-0.5-4.6,0-6.2l-2.3,0.5c-3.2,0.7-4.4,2.7-3.6,5.9
			c0.6,2.6,1.7,4.5,3.4,6.4l-3.3,2.4c-1.8-2.2-3.2-5-4.1-8.6c-1.3-5.8,0.6-9.8,6.3-11.1l16.7-3.8l1.1,5l-2.6,0.6
			c2.1,1.3,4.1,3.4,4.8,6.5C65.9,975.1,64.5,979.5,58.8,980.8z M56.5,965.2l-4.4,1c-0.4,1.6-0.5,3.2,0.1,5.8
			c0.7,3.1,2.6,4.5,5.3,3.9c2.9-0.7,4-2.6,3.4-5.3C60.3,968,58.5,966.2,56.5,965.2z"/>
		<path class="st0" d="M48.1,953.8c-8.8,1.7-14-1.5-14.9-6.7c-0.6-3,0.3-5.2,1.7-7.2l-9.7,1.8l-3.3-4.5l34.4-6.5l0.9,5l-2.7,0.5
			c2.1,1.4,3.9,3.3,4.5,6.4C59.9,947.4,56.8,952.2,48.1,953.8z M50.6,937l-11.5,2.2c-1.4,1.5-2.4,3.7-1.9,6.2
			c0.6,3.4,3.8,4.6,9.8,3.4c6.3-1.2,8.1-3.5,7.5-6.8C54,939.7,52.6,938.2,50.6,937z"/>
		<path class="st0" d="M43.2,895.9c-5.6,0.6-8.6-3.5-9.2-8.6c-0.3-2.5,0.1-4.6,0.7-6.2l-2.4,0.3c-3.3,0.4-4.6,2.2-4.3,5.5
			c0.3,2.7,1.2,4.7,2.6,6.8l-3.6,2c-1.5-2.3-2.7-5.3-3.1-9c-0.7-6,1.7-9.7,7.5-10.3l17-1.9l0.6,5.1l-2.7,0.3c1.9,1.5,3.7,3.8,4,7
			C50.9,891.1,49.1,895.2,43.2,895.9z M42.7,880.2l-4.5,0.5c-0.6,1.5-0.9,3.1-0.6,5.8c0.3,3.1,2.1,4.7,4.8,4.4c3-0.3,4.3-2.2,4-4.9
			S44.5,881.4,42.7,880.2z"/>
		<path class="st0" d="M35.2,867.1c-8.8,0.6-13.5-4.6-14-11.1c-0.3-4,0.9-6.8,3.1-9.2l3.6,3c-1.6,1.9-2.6,3.4-2.4,6.2
			c0.3,4.2,4,6.4,9.1,6c5.5-0.4,8.8-2.8,8.5-7.5c-0.2-2.6-1.6-4.4-3.7-5.9l2.9-3.2c2.7,2,4.7,4.8,5,9.1
			C47.9,860.8,44,866.5,35.2,867.1z"/>
		<path class="st0" d="M20.6,836l-0.2-5.1l3.7-0.1c-2.5-1.4-4.4-4.2-4.5-7.3c-0.1-2.4,0.4-4.1,1.1-5.2l5.1,1.5
			c-0.9,1.2-1.5,2.5-1.4,4.7c0.2,4.2,3.8,6.2,8.3,6l13-0.5l0.2,5.1L20.6,836z"/>
		<path class="st0" d="M32.2,810.1c-8.6-0.1-13-5.3-12.9-11.6c0.1-6.3,4.5-11.2,13.2-11.1c8.6,0.1,13.2,5.3,13.1,11.6
			C45.4,805.3,40.8,810.2,32.2,810.1z M32.4,792.6c-5.9-0.1-8.8,2.3-8.9,6c-0.1,3.7,2.8,6.2,8.7,6.3c5.9,0.1,9-2.3,9-6
			C41.3,795.1,38.3,792.7,32.4,792.6z"/>
		<path class="st0" d="M42.5,780.4l-3.7-2.2c1.9-2.3,3.1-5.3,3.2-8.2c0.1-3.2-1-4.8-3-4.9s-2.7,0.6-4,5.2c-1.8,6.1-4.1,8.8-8.4,8.7
			c-4.4-0.2-7.1-3.8-6.8-9.4c0.2-4,1.4-7,3.1-9.2l3.7,2.1c-1.7,2.3-2.6,4.6-2.7,7.6c-0.1,2.7,0.9,4.1,2.6,4.1c1.7,0.1,2.7-0.4,4-4.9
			c1.7-5.9,3.5-9.1,8.3-9c5.3,0.2,7.5,4.5,7.3,10C45.9,774.4,44.6,777.7,42.5,780.4z"/>
		<path class="st0" d="M43.8,751.8l-3.6-2.3c2-2.3,3.3-5.1,3.5-8.1c0.2-3.2-0.8-4.8-2.8-5c-2-0.1-2.7,0.5-4.2,5.1
			c-2,6-4.5,8.7-8.7,8.3c-4.4-0.3-6.9-4.1-6.5-9.6c0.3-4,1.6-6.9,3.4-9.1l3.6,2.2c-1.8,2.3-2.7,4.5-3,7.5c-0.2,2.7,0.8,4.1,2.5,4.2
			c1.7,0.1,2.7-0.3,4.2-4.8c1.9-5.9,3.9-9,8.6-8.6c5.3,0.4,7.3,4.7,6.9,10.2C47.4,746,46,749.2,43.8,751.8z"/>
		<path class="st0" d="M46.5,689.1l-14.2-2.2l-0.8,5l-4.3-0.7l0.8-5l-7.3-1.1l-1.7-5.4l9.7,1.5l1.2-7.8l4.3,0.7L33,682l13.3,2
			c2.4,0.4,3.5-0.4,3.8-2.4c0.3-2.1-0.1-3.3-0.5-4.7l4.4,1.5c0.5,1.5,0.7,2.8,0.3,5.5C53.8,687.7,51.3,689.8,46.5,689.1z"/>
		<path class="st0" d="M24.6,661l-1.5-5.4l12.3,2.3c-1.5-1.8-2.5-4.2-1.9-7.2c1-5.2,4.8-7.7,11.6-6.4l15.2,2.9l-0.9,5l-14.5-2.8
			c-4.6-0.9-6.8,0.4-7.4,3.5c-0.6,3,0.8,5.6,5.4,6.5l14.7,2.8l-0.9,5L24.6,661z"/>
		<path class="st0" d="M49.5,637.4c-8-1.8-11.6-7.7-10.1-13.9c1.6-6.8,7.4-9.5,14.9-7.7c0.8,0.2,1.4,0.4,1.8,0.5l-3.8,16.5
			c4.5,0.7,7.7-1,8.5-4.7c0.7-2.9,0.3-4.8-0.5-7.4l4-1.2c1,3.5,1.4,6,0.5,9.9C63.6,635,58.6,639.5,49.5,637.4z M51.5,620
			c-4.2-0.6-7.2,0.4-8.2,4.5c-0.8,3.3,1.1,6.1,5.4,7.5L51.5,620z"/>
		<path class="st0" d="M51.3,579.3l1.4-4.4l11.1,1.6c2.3,0.4,6.1,1.2,8.5,1.7c-2.2-1-5.6-2.5-7.8-3.7l-9.9-5.6l1.2-4l11.3,1.1
			c2.5,0.2,6.5,1,8.5,1.4c-2-0.8-5.8-2.4-7.9-3.4l-10-5l1.4-4.4l22.6,12.1l-1.4,4.4l-12-1.1c-2.8-0.3-5.9-0.9-8.1-1.3
			c2.1,0.9,4.9,2.2,7.4,3.5l10.5,6l-1.3,4.3L51.3,579.3z"/>
		<path class="st0" d="M72.6,553.9c-8.1-2.9-10.6-9.2-8.5-15.1c2.1-6,7.9-9.2,16-6.3c8.1,2.9,10.8,9.2,8.7,15.2
			C86.7,553.6,80.7,556.7,72.6,553.9z M78.4,537.4c-5.6-2-9.1-0.6-10.3,2.9c-1.3,3.5,0.7,6.8,6.2,8.7c5.6,2,9.2,0.7,10.5-2.8
			C86,542.6,84,539.3,78.4,537.4z"/>
		<path class="st0" d="M72,518.6l1.9-4.7l3.4,1.4c-1.7-2.3-2.3-5.6-1.2-8.5c0.9-2.2,2-3.5,3.1-4.3l4.1,3.4c-1.3,0.7-2.4,1.6-3.2,3.7
			c-1.6,3.9,1,7.2,5.1,8.9l12,4.8l-1.9,4.7L72,518.6z"/>
		<path class="st0" d="M101.8,495.6l-23.8-10.6l-0.2-5.7l25.3,11.2c2.2,1,3.6,0.3,4.4-1.7c0.9-1.9,1-3.6,1-4.8l3.7,2.4
			c0,1.2-0.3,3.4-1.2,5.5C109.3,495.9,106.2,497.6,101.8,495.6z"/>
		<path class="st0" d="M105.4,473.3c-8.1-3.9-10.3-9.5-8-14.3c1.3-2.7,3.4-4,5.7-4.7l-8.8-4.3l0-5.6l31.4,15.4l-2.2,4.6l-2.5-1.2
			c0.8,2.3,1.2,5-0.2,7.9C118.8,475.2,113.4,477.3,105.4,473.3z M117.5,461.3l-10.5-5.1c-2.1,0.4-4.1,1.6-5.2,3.8
			c-1.5,3.1,0.3,5.9,5.8,8.6c5.8,2.8,8.6,2,10.1-1C118.7,465.6,118.4,463.5,117.5,461.3z"/>
		<path class="st0" d="M126.1,442.4l3.4-6.4l9.8,10.2l-1.8,3.4L126.1,442.4z"/>
	</g>
	<g>
		<path class="st0" d="M356.6,1129.3c-7,5-13.6,3.5-17.3-1.7c-3.7-5.2-3-11.7,4.1-16.7c7-5,13.7-3.5,17.4,1.6
			C364.4,1117.6,363.6,1124.3,356.6,1129.3z M346.4,1115.1c-4.8,3.4-5.7,7.1-3.6,10.1c2.2,3,5.9,3.3,10.7-0.1
			c4.8-3.4,5.9-7.2,3.7-10.2C355.1,1111.9,351.2,1111.7,346.4,1115.1z"/>
		<path class="st0" d="M341.5,1096.8l-12.1,7.7l2.7,4.3l-3.6,2.3l-2.7-4.3l-6.2,3.9l-4.8-2.9l8.3-5.3l-4.3-6.7l3.6-2.3l4.3,6.7
			l11.4-7.2c2.1-1.3,2.4-2.6,1.3-4.3c-1.2-1.8-2.3-2.4-3.5-3.2l4.3-1.8c1.3,0.8,2.4,1.6,3.9,3.9
			C346.1,1090.8,345.6,1094.2,341.5,1096.8z"/>
		<path class="st0" d="M306.5,1089.6l-4.6-3.2l10.9-6.1c-2.3-0.4-4.6-1.6-6.1-4.3c-2.6-4.6-1.3-9,4.7-12.4l13.5-7.6l2.5,4.4
			l-12.9,7.3c-4.1,2.3-5,4.7-3.4,7.4c1.5,2.6,4.2,3.7,8.3,1.5l13-7.3l2.5,4.4L306.5,1089.6z"/>
		<path class="st0" d="M310.1,1055.5c-7.3,3.6-13.8,1.4-16.6-4.3c-3.1-6.2-0.3-12,6.6-15.5c0.8-0.4,1.3-0.6,1.8-0.8l7.5,15.2
			c3.9-2.3,5.3-5.7,3.6-9.1c-1.3-2.7-2.8-3.8-5.1-5.4l2.3-3.5c3,2,4.9,3.7,6.7,7.3C319.5,1044.6,318.5,1051.3,310.1,1055.5z
			 M300.7,1040.8c-3.7,2.2-5.3,4.9-3.5,8.7c1.5,3.1,4.7,4,8.9,2.3L300.7,1040.8z"/>
		<path class="st0" d="M284.6,1031.3l-2-4.7l3.4-1.5c-2.8-0.4-5.6-2.3-6.9-5.2c-0.9-2.2-1.1-3.9-0.9-5.2l5.3-0.5
			c-0.4,1.4-0.5,2.8,0.4,4.9c1.7,3.9,5.8,4.4,9.9,2.6l11.9-5.2l2,4.7L284.6,1031.3z"/>
		<path class="st0" d="M295.1,998.2l-4.3-0.6c0.8-2.9,0.8-6-0.2-8.8c-1.1-3-2.8-4-4.6-3.4c-1.8,0.7-2.2,1.6-1.7,6.4
			c0.7,6.3-0.4,9.7-4.4,11.2c-4.1,1.5-8-0.8-9.9-6c-1.4-3.7-1.4-7-0.7-9.7l4.2,0.5c-0.6,2.8-0.6,5.2,0.4,8c0.9,2.5,2.4,3.4,4,2.8
			c1.6-0.6,2.3-1.4,1.8-6.1c-0.7-6.1-0.3-9.8,4.2-11.4c5-1.8,8.6,1.3,10.5,6.4C296,991.4,296,994.9,295.1,998.2z"/>
		<path class="st0" d="M267.5,946.9c-8.5,2.2-14.1-2.1-15.7-8.5c-1-3.9-0.3-6.9,1.4-9.6l4,2.3c-1.3,2.1-2,3.8-1.2,6.6
			c1,4,5,5.6,10.1,4.3c5.3-1.4,8.2-4.3,7-8.9c-0.6-2.5-2.4-4.1-4.6-5.2l2.3-3.7c3,1.5,5.5,3.9,6.6,8
			C278.9,938.5,276,944.7,267.5,946.9z"/>
		<path class="st0" d="M265.3,911.3l-25.6,5.1l-3.4-4.6l27.1-5.4c2.4-0.5,3.1-1.8,2.6-4c-0.4-2.1-1.2-3.5-1.9-4.5l4.5-0.2
			c0.7,0.9,1.7,3,2.2,5.2C271.7,907.2,270.1,910.4,265.3,911.3z"/>
		<path class="st0" d="M260,890c-5.6,0.8-8.7-3.2-9.5-8.3c-0.4-2.5-0.1-4.6,0.5-6.2l-2.4,0.3c-3.3,0.5-4.6,2.3-4.1,5.6
			c0.4,2.7,1.4,4.7,2.9,6.7l-3.5,2.2c-1.6-2.3-2.8-5.2-3.4-8.9c-0.9-5.9,1.4-9.7,7.2-10.5l17-2.5l0.7,5l-2.7,0.4
			c2,1.5,3.8,3.7,4.2,6.9C267.6,884.9,265.9,889.1,260,890z M259,874.3l-4.5,0.7c-0.6,1.5-0.8,3.2-0.4,5.8c0.5,3.1,2.3,4.7,5,4.3
			c3-0.4,4.2-2.3,3.8-5C262.5,877.4,260.9,875.4,259,874.3z"/>
		<path class="st0" d="M230.9,857.8c-1.8,0.2-3.2-1.1-3.4-3.1c-0.2-2,1-3.5,2.8-3.6c1.7-0.2,3.2,1.1,3.4,3.1
			C233.9,856.2,232.7,857.7,230.9,857.8z M256.7,854.7l-18.6,1.7l-0.5-5.1l17.8-1.6c2.4-0.2,3.2-1.5,3-3.7c-0.2-2.1-0.9-3.6-1.4-4.7
			l4.5,0.3c0.6,1.1,1.4,3.2,1.6,5.4C263.4,851.3,261.5,854.3,256.7,854.7z"/>
		<path class="st0" d="M236.2,834.5L236,830l1.9-0.1c-1.5-0.9-2.5-2.2-2.6-4.2c-0.1-2.3,0.8-3.6,2.4-4.6c-1.7-1.3-2.7-2.8-2.8-5.1
			c-0.1-3.5,2.2-5.6,7.3-5.8l18.2-0.7l0.2,4.5l-17.5,0.7c-3,0.1-4.1,1-4,2.6c0.1,1.5,1.3,2.8,4.2,2.7l17.6-0.7l0.2,4.5l-17.5,0.7
			c-3,0.1-4.1,1-4,2.6c0.1,1.5,1.3,2.8,4.2,2.7l17.6-0.7l0.2,4.5L236.2,834.5z"/>
		<path class="st0" d="M254.8,769.2l-14.3-0.9l-0.3,5.1l-4.3-0.3l0.3-5.1l-7.3-0.5l-2.1-5.2l9.8,0.6l0.5-7.9l4.3,0.3l-0.5,7.9
			l13.5,0.9c2.4,0.2,3.5-0.7,3.6-2.8c0.1-2.2-0.4-3.3-1-4.6l4.5,1.1c0.6,1.4,1,2.8,0.8,5.4C262,767.2,259.6,769.5,254.8,769.2z"/>
		<path class="st0" d="M230.7,742.8l-1.8-5.3l12.4,1.5c-1.6-1.7-2.8-4-2.4-7c0.6-5.2,4.2-8,11.1-7.2l15.4,1.8l-0.6,5l-14.7-1.7
			c-4.6-0.5-6.8,0.9-7.1,4c-0.4,3,1.2,5.5,5.8,6l14.8,1.7l-0.6,5L230.7,742.8z"/>
		<path class="st0" d="M258.8,718c-5.5-0.9-7.3-5.8-6.4-10.8c0.4-2.5,1.3-4.4,2.3-5.7l-2.4-0.4c-3.3-0.6-5.1,0.8-5.6,4.1
			c-0.5,2.6-0.1,4.8,0.7,7.2l-4,1c-0.8-2.7-1.1-5.8-0.5-9.5c1-5.9,4.3-8.8,10.1-7.8l16.9,2.9l-0.9,5l-2.6-0.5c1.4,2,2.5,4.7,1.9,7.8
			C267.5,715.5,264.6,719,258.8,718z M262.6,702.8l-4.5-0.8c-1,1.3-1.7,2.8-2.2,5.4c-0.5,3.1,0.7,5.1,3.4,5.6c3,0.5,4.7-0.9,5.2-3.6
			C265,706.8,264.1,704.4,262.6,702.8z"/>
		<path class="st0" d="M266.3,683.9l-14-3.2l-1.1,5l-4.2-1l1.1-5l-7.2-1.6l-1.3-5.5l9.6,2.2l1.7-7.7l4.2,1l-1.7,7.7l13.2,3
			c2.4,0.5,3.5-0.1,4-2.2c0.5-2.1,0.1-3.3-0.2-4.7l4.3,1.8c0.3,1.5,0.5,2.9-0.1,5.5C273.7,683,271,685,266.3,683.9z"/>
		<path class="st0" d="M281.4,628.6l-13.6-4.6l-1.6,4.8l-4.1-1.4l1.6-4.8l-7-2.4l-0.7-5.6l9.3,3.2l2.6-7.5l4.1,1.4l-2.6,7.5
			l12.8,4.3c2.3,0.8,3.5,0.2,4.2-1.7c0.7-2,0.5-3.3,0.3-4.7l4.1,2.2c0.2,1.5,0.2,2.9-0.6,5.5C288.9,628.4,286,630.1,281.4,628.6z"/>
		<path class="st0" d="M265,596.8l-0.4-5.6l11.6,4.6c-1.1-2.1-1.6-4.6-0.5-7.4c2-4.9,6.2-6.6,12.6-4l14.4,5.8l-1.9,4.7l-13.7-5.5
			c-4.3-1.7-6.8-0.9-7.9,2c-1.1,2.8-0.2,5.6,4,7.4l13.9,5.5l-1.9,4.7L265,596.8z"/>
		<path class="st0" d="M278.7,564.4c-1.6-0.7-2.2-2.6-1.4-4.4c0.8-1.8,2.6-2.5,4.2-1.7c1.6,0.7,2.3,2.5,1.4,4.4
			C282.1,564.5,280.3,565.1,278.7,564.4z M302.5,574.6l-17-7.9l2.1-4.6l16.2,7.5c2.2,1,3.6,0.3,4.5-1.6c0.9-1.9,1.1-3.6,1.1-4.8
			l3.7,2.5c0,1.2-0.4,3.5-1.3,5.5C310,575.1,306.9,576.7,302.5,574.6z"/>
		<path class="st0" d="M315.7,555.8l-2.4-3.6c2.7-1.3,5.1-3.4,6.4-6c1.5-2.8,1.2-4.8-0.6-5.7c-1.7-0.9-2.7-0.6-5.9,3
			c-4.2,4.7-7.5,6.2-11.3,4.2c-3.9-2.1-4.7-6.5-2.1-11.4c1.9-3.5,4.3-5.7,6.8-7l2.4,3.5c-2.5,1.4-4.3,3-5.7,5.7
			c-1.3,2.4-0.9,4.1,0.6,4.9c1.5,0.8,2.6,0.8,5.8-2.7c4.1-4.6,7.1-6.7,11.3-4.5c4.7,2.5,4.8,7.3,2.2,12.1
			C321.4,551.9,318.8,554.2,315.7,555.8z"/>
		<path class="st0" d="M322.2,485.5c-1.5-1-1.8-2.9-0.7-4.5c1.1-1.7,3-2,4.5-1c1.4,1,1.8,2.9,0.7,4.5
			C325.6,486.1,323.6,486.4,322.2,485.5z M344.1,499.3l-15.5-10.4l2.8-4.2l14.8,10c2,1.4,3.5,0.8,4.7-0.9s1.6-3.4,1.9-4.6l3.3,3.1
			c-0.2,1.2-0.9,3.4-2.2,5.2C351.5,500.9,348.2,502.1,344.1,499.3z"/>
		<path class="st0" d="M360.2,482.8l-1.8-3.9c2.9-0.9,5.5-2.6,7.3-4.9c1.9-2.6,1.9-4.5,0.3-5.7c-1.6-1.2-2.5-1-6.3,2
			c-4.9,4-8.4,4.9-11.8,2.4c-3.5-2.7-3.6-7.2-0.3-11.6c2.4-3.2,5.1-4.9,7.8-5.8l1.8,3.8c-2.7,1-4.7,2.3-6.5,4.7
			c-1.6,2.1-1.5,3.9-0.2,4.9c1.4,1,2.5,1.2,6.1-1.8c4.8-3.9,8.1-5.5,11.9-2.7c4.2,3.2,3.6,7.9,0.3,12.3
			C366.3,479.8,363.4,481.7,360.2,482.8z"/>
		<path class="st0" d="M391.6,435.6c-4.1-3.8-2.9-8.8,0.6-12.6c1.7-1.8,3.5-2.9,5.1-3.5l-1.8-1.6c-2.4-2.3-4.7-2.1-6.9,0.3
			c-1.8,2-2.8,4-3.4,6.4l-3.9-1.4c0.8-2.7,2.3-5.5,4.8-8.2c4.1-4.4,8.4-5,12.7-1l12.6,11.7l-3.5,3.7l-2-1.8c0.1,2.4-0.5,5.2-2.7,7.6
			C400.3,438.3,396,439.6,391.6,435.6z M403.2,425l-3.3-3.1c-1.5,0.5-3,1.4-4.8,3.3c-2.2,2.3-2.2,4.7-0.2,6.6
			c2.2,2.1,4.4,1.8,6.3-0.2C403,429.6,403.5,427.1,403.2,425z"/>
		<path class="st0" d="M408.3,410.7c-6.1-6.3-5.2-13.3-0.5-17.9c2.9-2.8,5.8-3.7,9.1-3.6l0,4.7c-2.5-0.1-4.2,0.2-6.3,2.2
			c-3,2.9-2.4,7.2,1.3,10.9c3.8,3.9,7.8,5,11.2,1.7c1.9-1.8,2.3-4.1,2.2-6.6l4.3,0.1c0.2,3.3-0.6,6.7-3.7,9.7
			C421.3,416.4,414.4,417,408.3,410.7z"/>
		<path class="st0" d="M437.5,391.6l-9.4-10.8l-3.8,3.3l-2.8-3.3l3.8-3.3l-4.8-5.5l2.2-5.2l6.4,7.4l6-5.2l2.8,3.3l-6,5.2l8.9,10.2
			c1.6,1.8,2.9,2,4.5,0.6c1.6-1.4,2-2.6,2.6-3.9l2.5,4c-0.6,1.4-1.3,2.6-3.3,4.4C444.1,395.2,440.7,395.2,437.5,391.6z"/>
		<path class="st0" d="M453.3,373.9l-9.6-12.2l4-3.1l9.1,11.6c2.9,3.7,5.4,4.2,7.9,2.2c2.4-1.9,3-4.8,0.2-8.4l-9.2-11.7l4-3.1
			l15.5,19.8l-4,3.1l-1.7-2.1c0,2.4-0.9,4.8-3.3,6.7C462.1,380,457.6,379.4,453.3,373.9z"/>
		<path class="st0" d="M476.7,358.3c-3.2-4.6-1-9.2,3.2-12.2c2-1.4,4.1-2.2,5.7-2.4l-1.4-2c-1.9-2.7-4.1-3-6.8-1.1
			c-2.2,1.5-3.5,3.3-4.7,5.6l-3.5-2.2c1.3-2.5,3.4-4.9,6.4-7c4.9-3.5,9.3-3.2,12.6,1.6l9.9,14l-4.2,2.9l-1.5-2.2
			c-0.4,2.4-1.6,5-4.2,6.9C484.6,362.8,480.1,363.2,476.7,358.3z M490.2,350.3l-2.6-3.7c-1.6,0.2-3.2,0.7-5.4,2.3
			c-2.6,1.8-3.1,4.1-1.6,6.4c1.7,2.5,4,2.7,6.2,1.2S490.1,352.5,490.2,350.3z"/>
		<path class="st0" d="M506.8,339.3l-13.9-22.1l3-4.8l14.7,23.4c1.3,2.1,2.8,2.2,4.6,1.1c1.8-1.1,2.9-2.4,3.5-3.4l1.7,4.1
			c-0.6,1-2.2,2.7-4.1,3.9C512.9,343.7,509.3,343.4,506.8,339.3z"/>
		<path class="st0" d="M531.4,324.5l-12.7-22.8l3.3-4.6l13.4,24.2c1.2,2.1,2.7,2.4,4.6,1.3c1.8-1,3-2.3,3.7-3.2l1.5,4.2
			c-0.7,0.9-2.3,2.6-4.3,3.6C537.2,329.3,533.7,328.8,531.4,324.5z"/>
		<path class="st0" d="M561,315.9l-19.5-18.3l5-2.5l12.5,12.6c0.6,0.8,1.6,1.9,2.1,2.7c-0.2-0.9-0.6-2.4-0.8-3.2l-2.4-17.7l4.9-2.4
			l3.4,36.3l-4.5,2.2L561,315.9z"/>
		<path class="st0" d="M602.5,289.4c-1.9-5.3,1.4-9.2,6.2-11c2.3-0.9,4.5-1,6.1-0.8l-0.8-2.3c-1.1-3.1-3.2-4-6.3-2.9
			c-2.5,0.9-4.3,2.3-5.9,4.2l-2.8-3c1.9-2,4.5-3.8,8-5.1c5.6-2.1,9.8-0.6,11.8,4.9l5.9,16.1l-4.8,1.7l-0.9-2.5
			c-1,2.2-2.8,4.5-5.8,5.6C609,295.8,604.5,294.9,602.5,289.4z M617.7,285.2l-1.6-4.3c-1.6-0.2-3.3-0.1-5.8,0.8
			c-3,1.1-4.1,3.2-3.2,5.8c1,2.8,3.1,3.7,5.7,2.7C615.4,289.3,617,287.3,617.7,285.2z"/>
		<path class="st0" d="M657.5,269.4l-3.7-15l4.9-1.2l3.6,14.3c1.1,4.5,3.2,6,6.3,5.3c2.9-0.7,4.7-3.1,3.6-7.6l-3.6-14.5l4.9-1.2
			l6.1,24.5l-4.9,1.2l-0.6-2.6c-1,2.1-2.8,4-5.7,4.7C663,278.5,659.1,276.1,657.5,269.4z"/>
		<path class="st0" d="M682.8,247.4l4.9-1l0.5,2.6c1.1-2.1,3-3.8,6-4.4c5.2-1,8.9,1.6,10.2,8.4l2.9,15.2l-4.9,1l-2.8-14.5
			c-0.9-4.6-2.9-6.2-6-5.6c-3,0.6-4.9,2.8-4,7.4l2.8,14.7l-4.9,1L682.8,247.4z"/>
		<path class="st0" d="M716,234.2c-0.2-1.8,1-3.3,2.9-3.6c2-0.3,3.5,0.9,3.8,2.6c0.2,1.7-0.9,3.3-2.9,3.6
			C717.8,237.1,716.2,235.9,716,234.2z M720.2,259.8l-2.6-18.5l5-0.7l2.4,17.7c0.3,2.4,1.7,3.2,3.8,2.9c2.1-0.3,3.6-1,4.7-1.7
			l-0.1,4.5c-1,0.6-3.1,1.5-5.4,1.9C724,266.3,720.9,264.6,720.2,259.8z"/>
		<path class="st0" d="M739.5,238.3l5.6-0.5l7.1,16.4c0.3,0.8,0.8,2.3,1,3.2c0.1-0.9,0.3-2.5,0.4-3.3l4.2-17.4l5.4-0.5l-7.3,25.9
			l-4.8,0.4L739.5,238.3z"/>
		<path class="st0" d="M770.3,248.4c-0.3-8.2,4.4-13.2,10.8-13.4c7-0.2,11.1,4.7,11.3,12.4c0,0.9,0,1.4,0,1.9l-16.9,0.6
			c0.5,4.5,3,7.2,6.8,7c3-0.1,4.7-1,7-2.3l2.2,3.6c-3.1,1.9-5.4,2.9-9.5,3.1C776.3,261.5,770.6,257.8,770.3,248.4z M787.6,245.9
			c-0.5-4.3-2.3-6.9-6.5-6.7c-3.4,0.1-5.6,2.6-5.8,7.2L787.6,245.9z"/>
		<path class="st0" d="M802.9,235.2l5.1,0.1L808,239c1.5-2.4,4.4-4.1,7.6-4.1c2.4,0,4,0.7,5.1,1.3l-1.8,5c-1.1-0.9-2.4-1.6-4.6-1.7
			c-4.2-0.1-6.4,3.5-6.5,7.9l-0.2,13l-5.1-0.1L802.9,235.2z"/>
		<path class="st0" d="M828.7,258.5l2.3-3.6c2.3,1.9,5.2,3.3,8.1,3.5c3.2,0.2,4.8-0.9,5-2.8c0.1-2-0.5-2.7-5.1-4.2
			c-6-2-8.7-4.4-8.4-8.6c0.3-4.4,4.1-6.9,9.6-6.5c4,0.3,6.9,1.6,9.1,3.4l-2.2,3.6c-2.3-1.7-4.5-2.7-7.5-2.9
			c-2.7-0.2-4.1,0.8-4.2,2.5c-0.1,1.7,0.3,2.7,4.8,4.2c5.9,1.9,9,3.8,8.7,8.6c-0.4,5.3-4.7,7.3-10.2,6.9
			C834.5,262.1,831.4,260.6,828.7,258.5z"/>
		<path class="st0" d="M856.9,255.6c0.7-5.6,5.4-7.6,10.5-6.9c2.5,0.3,4.5,1.1,5.8,2.1l0.3-2.4c0.4-3.3-1-5-4.3-5.4
			c-2.7-0.3-4.8,0.1-7.2,1l-1.2-4c2.6-0.9,5.8-1.4,9.4-0.9c6,0.7,9,3.9,8.3,9.7l-2.1,17l-5-0.6l0.3-2.7c-1.9,1.5-4.5,2.7-7.7,2.3
			C859.8,264.2,856.2,261.5,856.9,255.6z M872.3,258.8l0.6-4.5c-1.3-0.9-2.8-1.6-5.5-1.9c-3.1-0.4-5.1,1-5.4,3.7
			c-0.4,3,1.1,4.7,3.8,5C868.4,261.3,870.7,260.3,872.3,258.8z"/>
		<path class="st0" d="M891.9,261.7l4.5-25.7l5.5-1.5l-4.8,27.2c-0.4,2.4,0.6,3.5,2.7,3.9c2.1,0.4,3.7,0.1,4.9-0.2l-1.5,4.2
			c-1.1,0.3-3.4,0.5-5.6,0.1C893.5,269.1,891.1,266.5,891.9,261.7z"/>
		<path class="st0" d="M947.6,254.7l4.9,1.4l-0.8,2.6c2.2-1.2,4.7-2,7.8-1.1c4.8,1.4,7.5,6.2,5,14.8c-2.5,8.6-7.6,11.8-12.7,10.3
			c-2.9-0.8-4.5-2.6-5.6-4.8l-2.6,8.9l-5.6,0.9L947.6,254.7z M959.5,271.1c1.7-5.9,0.6-8.8-2.7-9.8c-2.2-0.6-4.3-0.1-6.3,1.2
			l-3.2,11.2c0.7,2.1,2.3,3.9,4.7,4.6C955.4,279.2,957.8,276.9,959.5,271.1z"/>
		<path class="st0" d="M969.3,279.4c1.8-5.3,6.9-6.2,11.7-4.6c2.4,0.8,4.1,2,5.3,3.3l0.8-2.3c1.1-3.1,0-5.1-3.1-6.2
			c-2.5-0.9-4.8-0.9-7.2-0.5l-0.3-4.1c2.8-0.4,5.9-0.1,9.4,1.1c5.7,2,8,5.7,6.1,11.2l-5.6,16.2l-4.8-1.7l0.9-2.5
			c-2.2,1.1-5,1.7-8,0.6C970.3,288.4,967.4,284.9,969.3,279.4z M983.7,285.7l1.5-4.3c-1.1-1.2-2.4-2.2-5-3.1c-3-1-5.2-0.1-6.1,2.5
			c-1,2.9,0.1,4.8,2.7,5.7S981.9,286.8,983.7,285.7z"/>
		<path class="st0" d="M1001.7,292.4l5.4-13.3l-4.7-1.9l1.6-4l4.7,1.9l2.8-6.8l5.6-0.4l-3.7,9.1l7.3,3l-1.6,4l-7.3-3l-5.1,12.5
			c-0.9,2.3-0.4,3.5,1.5,4.3c2,0.8,3.3,0.7,4.7,0.6l-2.5,4c-1.5,0.1-2.9,0.1-5.4-1C1001.4,299.9,999.8,296.9,1001.7,292.4z"/>
		<path class="st0" d="M1028.1,303.7l6.1-13l-4.6-2.2l1.8-3.9l4.6,2.2l3.1-6.6l5.6-0.1l-4.2,8.9l7.2,3.4l-1.8,3.9l-7.2-3.4
			l-5.7,12.2c-1,2.2-0.6,3.5,1.2,4.4c2,0.9,3.2,0.8,4.7,0.8l-2.7,3.8c-1.5,0-2.9-0.1-5.4-1.2C1027.4,311.2,1026,308.1,1028.1,303.7z
			"/>
		<path class="st0" d="M1051.2,307.9c3.9-7.2,10.4-9.2,16.1-6.1c6.1,3.3,7.2,9.6,3.5,16.4c-0.4,0.8-0.7,1.2-1,1.6l-14.9-8
			c-1.8,4.1-1,7.7,2.3,9.5c2.6,1.4,4.5,1.5,7.3,1.5l0.1,4.2c-3.6,0.1-6.2-0.2-9.7-2.1C1049.8,322.2,1046.8,316.2,1051.2,307.9z
			 M1067.4,314.5c1.7-3.9,1.5-7.1-2.2-9.1c-3-1.6-6.1-0.6-8.6,3.3L1067.4,314.5z"/>
		<path class="st0" d="M1086,312.9l4.3,2.6l-1.9,3.2c2.5-1.3,5.9-1.3,8.6,0.3c2,1.2,3.1,2.6,3.7,3.7l-4.1,3.4
			c-0.5-1.4-1.2-2.6-3.1-3.7c-3.6-2.2-7.3-0.2-9.6,3.6l-6.7,11.1l-4.3-2.6L1086,312.9z"/>
		<path class="st0" d="M1109.3,327.3l4.2,2.8l-1.5,2.2c2.3-0.7,4.8-0.6,7.4,1.1c4.4,3,5.1,7.5,1.2,13.2l-8.7,12.8l-4.2-2.8l8.3-12.2
			c2.6-3.8,2.4-6.4-0.2-8.2c-2.5-1.7-5.5-1.5-8.1,2.4l-8.4,12.3l-4.2-2.8L1109.3,327.3z"/>
		<path class="st0" d="M1149.1,380.1l9.3-10.9l-3.9-3.3l2.8-3.3l3.9,3.3l4.7-5.6l5.4,1.4l-6.3,7.5l6,5.1l-2.8,3.3l-6-5.1l-8.7,10.3
			c-1.6,1.9-1.5,3.2,0.1,4.5c1.6,1.4,2.9,1.6,4.3,2l-3.6,3c-1.5-0.4-2.8-0.9-4.8-2.6C1146.5,387.1,1146,383.8,1149.1,380.1z"/>
		<path class="st0" d="M1184.7,376.5l5.3,1.7l-8.6,9.1c2.3-0.3,4.9,0.2,7.1,2.3c3.8,3.6,3.9,8.2-0.9,13.2l-10.6,11.3l-3.7-3.5
			l10.1-10.8c3.2-3.4,3.4-5.9,1-8.1c-2.2-2.1-5.2-2.3-8.3,1.1l-10.2,10.9l-3.7-3.5L1184.7,376.5z"/>
		<path class="st0" d="M1187.8,413.8c4.1-3.9,9-2.4,12.5,1.3c1.7,1.8,2.7,3.7,3.2,5.3l1.7-1.7c2.4-2.3,2.4-4.5,0.1-6.9
			c-1.9-1.9-3.8-3-6.2-3.8l1.6-3.8c2.6,0.9,5.3,2.6,7.9,5.3c4.1,4.3,4.5,8.7,0.3,12.7l-12.4,11.8l-3.5-3.7l1.9-1.9
			c-2.4-0.1-5.2-0.8-7.4-3.1C1184.6,422.3,1183.6,417.9,1187.8,413.8z M1197.8,426l3.3-3.2c-0.4-1.6-1.2-3-3-5
			c-2.2-2.3-4.6-2.5-6.5-0.6c-2.2,2.1-2.1,4.3-0.2,6.3C1193.2,425.6,1195.6,426.2,1197.8,426z"/>
		<path class="st0" d="M1210.8,440.1l10.9-9.4l-3.3-3.9l3.3-2.8l3.3,3.9l5.6-4.8l5.1,2.2l-7.4,6.4l5.2,6l-3.3,2.8l-5.2-6l-10.2,8.8
			c-1.9,1.6-2,2.9-0.6,4.5c1.4,1.6,2.6,2.1,3.9,2.6l-4,2.4c-1.4-0.6-2.6-1.3-4.4-3.3C1207.1,446.7,1207.1,443.3,1210.8,440.1z"/>
		<path class="st0" d="M1257,467.8l2.7,3.8l-8,7.8c-1.7,1.6-4.7,4.1-6.5,5.6c2.1-1.1,5.4-2.9,7.7-3.9l10.5-4.4l2.4,3.4l-7.8,8.3
			c-1.7,1.8-4.8,4.5-6.3,5.9c1.9-1.1,5.4-3.1,7.6-4.1l10.1-4.8l2.6,3.8l-23.4,10.4l-2.6-3.7l8.3-8.8c2-2,4.3-4.1,6-5.6
			c-2,1.1-4.8,2.5-7.4,3.7l-11.2,4.6l-2.6-3.7L1257,467.8z"/>
		<path class="st0" d="M1260,503.3c4.8-3,9.3-0.5,12,3.9c1.3,2.1,1.9,4.2,2,5.9l2-1.3c2.8-1.7,3.3-3.9,1.5-6.8
			c-1.4-2.3-3.1-3.7-5.3-5l2.4-3.4c2.4,1.5,4.7,3.6,6.6,6.8c3.2,5.1,2.6,9.4-2.4,12.5l-14.6,9l-2.7-4.3l2.3-1.4
			c-2.4-0.6-4.9-1.9-6.6-4.6C1255.1,510.9,1255,506.4,1260,503.3z M1267.1,517.2l3.9-2.4c-0.1-1.6-0.5-3.2-1.9-5.5
			c-1.7-2.7-3.9-3.4-6.3-1.9c-2.6,1.6-3,3.8-1.5,6.1S1265,517,1267.1,517.2z"/>
		<path class="st0" d="M1271,531l4.3,0c-0.4,3,0.1,6.1,1.5,8.7c1.5,2.8,3.3,3.6,5.1,2.6c1.7-0.9,2-1.9,0.7-6.5
			c-1.6-6.1-1-9.7,2.7-11.7c3.9-2.1,8-0.3,10.7,4.5c1.9,3.5,2.4,6.7,2.1,9.5l-4.2,0.1c0.2-2.9-0.1-5.2-1.6-7.9
			c-1.3-2.4-2.9-3-4.4-2.2c-1.5,0.8-2.1,1.8-0.9,6.3c1.6,6,1.7,9.6-2.5,11.9c-4.6,2.5-8.7,0-11.4-4.8
			C1271.1,537.8,1270.6,534.4,1271,531z"/>
		<path class="st0" d="M1305.7,577.8c8.1-3.4,14.3,0.1,16.8,6.1c1.5,3.7,1.3,6.7,0,9.7l-4.3-1.7c1-2.3,1.4-4,0.3-6.7
			c-1.6-3.9-5.8-4.8-10.6-2.8c-5,2.1-7.5,5.5-5.7,9.8c1,2.4,2.9,3.7,5.4,4.5l-1.7,4c-3.2-1-6-3.1-7.7-7
			C1295.6,587.7,1297.6,581.1,1305.7,577.8z"/>
		<path class="st0" d="M1329.4,602.9l1.7,4.8l-3.5,1.2c2.8,0.6,5.4,2.7,6.5,5.6c0.8,2.2,0.8,4,0.6,5.3l-5.3,0.1
			c0.5-1.4,0.7-2.8-0.1-4.9c-1.4-4-5.5-4.8-9.7-3.3l-12.2,4.4l-1.7-4.8L1329.4,602.9z"/>
		<path class="st0" d="M1326.1,631.3c7.8-2.3,13.9,0.9,15.7,7c2,6.7-1.7,11.9-9.2,14.1c-0.8,0.2-1.4,0.4-1.9,0.5l-4.8-16.2
			c-4.2,1.6-6.2,4.7-5.1,8.3c0.9,2.9,2.1,4.3,4.1,6.2l-2.9,3c-2.6-2.5-4.2-4.5-5.4-8.4C1315,640.4,1317.2,634,1326.1,631.3z
			 M1332.9,647.4c4-1.5,6.1-4,4.9-8c-1-3.3-3.9-4.7-8.4-3.8L1332.9,647.4z"/>
		<path class="st0" d="M1329.4,660.6c5.5-1.3,9,2.4,10.2,7.4c0.6,2.4,0.5,4.6,0.1,6.2l2.3-0.6c3.2-0.8,4.3-2.7,3.6-5.9
			c-0.6-2.6-1.8-4.5-3.5-6.4l3.3-2.5c1.8,2.1,3.3,4.9,4.2,8.5c1.4,5.8-0.5,9.8-6.1,11.2l-16.7,4l-1.2-4.9l2.6-0.6
			c-2.1-1.3-4.1-3.3-4.9-6.4C1322.3,666.3,1323.7,662,1329.4,660.6z M1331.9,676.1l4.4-1.1c0.4-1.6,0.5-3.2-0.1-5.8
			c-0.7-3.1-2.7-4.4-5.4-3.8c-2.9,0.7-4,2.7-3.3,5.4S1329.9,675.2,1331.9,676.1z"/>
		<path class="st0" d="M1336,694.9l14.1-2.6l-0.9-5l4.2-0.8l0.9,5l7.2-1.3l3.3,4.5l-9.6,1.8l1.4,7.8l-4.2,0.8l-1.4-7.8l-13.3,2.5
			c-2.4,0.4-3.2,1.5-2.8,3.5c0.4,2.1,1.2,3.1,2.1,4.3l-4.7,0.1c-0.9-1.2-1.6-2.4-2.1-5.1C1329.5,698.6,1331.2,695.7,1336,694.9z"/>
		<path class="st0" d="M1346,716.1c8.1-1.1,13.5,3.1,14.4,9.4c0.9,6.9-3.6,11.5-11.3,12.5c-0.9,0.1-1.4,0.1-1.9,0.2l-2.2-16.8
			c-4.4,0.9-6.8,3.7-6.3,7.4c0.4,3,1.4,4.6,3,6.8l-3.3,2.5c-2.2-2.9-3.4-5.1-4-9.1C1333.6,723.3,1336.7,717.3,1346,716.1z
			 M1350.2,733.1c4.2-0.9,6.6-3,6.1-7.1c-0.4-3.4-3.1-5.3-7.7-5.1L1350.2,733.1z"/>
		<path class="st0" d="M1349.2,744.8c8.9-0.7,13.7,3,14.1,8.3c0.2,3-0.9,5.2-2.5,6.9l9.8-0.8l2.8,4.9l-34.9,2.7l-0.4-5.1l2.7-0.2
			c-1.9-1.6-3.6-3.7-3.8-6.9C1336.8,750,1340.3,745.5,1349.2,744.8z M1344.9,761.3l11.6-0.9c1.6-1.4,2.8-3.4,2.6-6
			c-0.3-3.4-3.3-4.9-9.4-4.5c-6.4,0.5-8.5,2.6-8.2,6C1341.7,758.2,1343,760,1344.9,761.3z"/>
		<path class="st0" d="M1345.9,809.6l18.7,0.5l-0.1,5.1l-17.9-0.4c-2.4-0.1-3.4,1.2-3.4,3.3c-0.1,2.1,0.4,3.7,0.9,4.9l-4.4-0.8
			c-0.5-1.1-1-3.3-1-5.6C1338.9,812.2,1341.1,809.5,1345.9,809.6z M1371.9,809.5c1.8,0,3.1,1.5,3,3.4c0,2-1.4,3.3-3.2,3.3
			c-1.7,0-3.1-1.4-3-3.4C1368.7,810.8,1370.1,809.5,1371.9,809.5z"/>
		<path class="st0" d="M1363.8,834l-0.4,5l-2.7-0.2c1.7,1.6,2.9,3.9,2.7,6.9c-0.4,5.3-3.9,8.2-10.8,7.6l-15.5-1.2l0.4-5l14.7,1.1
			c4.6,0.4,6.7-1.1,7-4.3c0.2-3-1.5-5.5-6-5.8l-14.9-1.1l0.4-5L1363.8,834z"/>
		<path class="st0" d="M1344.7,889.4c8.8,1.6,12.5,6.4,11.5,11.6c-0.5,3-2.2,4.8-4.2,6.1l9.7,1.8l1.5,5.4l-34.4-6.3l0.9-5l2.7,0.5
			c-1.4-2-2.5-4.5-1.9-7.6C1331.4,891.2,1335.9,887.8,1344.7,889.4z M1336.3,904.2l11.5,2.1c1.9-0.9,3.6-2.6,4-5.1
			c0.6-3.4-1.9-5.6-7.9-6.7c-6.3-1.2-8.9,0.4-9.5,3.7C1334.1,900.5,1334.9,902.5,1336.3,904.2z"/>
		<path class="st0" d="M1332,923.4l18.2,4.4l-1.2,4.9l-17.4-4.2c-2.4-0.6-3.6,0.4-4,2.5s-0.3,3.7-0.1,4.9l-4.1-1.7
			c-0.2-1.2-0.3-3.5,0.2-5.7C1324.6,924.4,1327.3,922.2,1332,923.4z M1357.4,928.7c1.7,0.4,2.7,2.1,2.3,4c-0.5,2-2.1,3-3.8,2.5
			c-1.7-0.4-2.7-2-2.3-4C1354,929.3,1355.7,928.3,1357.4,928.7z"/>
		<path class="st0" d="M1338.5,955.7l1.3-4.4l4.1,1.2l-1.3,4.4l1.7,0.5c5.6,1.7,6.6,5.6,5.5,9.5c-0.7,2.4-1.9,4-2.6,4.9l-4-1.2
			c0.7-0.8,1.6-2,2.2-3.8c0.6-2,0.4-3.8-2.2-4.6l-1.8-0.5l-2,6.6l-4.1-1.2l1.9-6.5l-20-5.9l1.4-4.9L1338.5,955.7z"/>
		<path class="st0" d="M1329.6,983.8l1.5-4.3l4.1,1.4l-1.5,4.3l1.6,0.6c5.5,2,6.3,5.9,4.9,9.8c-0.9,2.4-2.1,3.8-2.9,4.7l-3.9-1.4
			c0.7-0.8,1.8-1.9,2.4-3.6c0.7-1.9,0.6-3.8-2-4.7l-1.8-0.6l-2.3,6.5l-4.1-1.4l2.3-6.4l-19.7-7l1.7-4.8L1329.6,983.8z"/>
		<path class="st0" d="M1314.5,1001.4c7.5,3.1,10.2,9.5,7.7,15.4c-2.7,6.4-8.8,8.1-16,5.1c-0.8-0.3-1.3-0.6-1.7-0.8l6.5-15.6
			c-4.3-1.4-7.7-0.3-9.2,3.2c-1.1,2.7-1.1,4.7-0.8,7.4l-4.2,0.5c-0.4-3.6-0.4-6.1,1.1-9.9C1300.1,1001.4,1305.8,997.8,1314.5,1001.4
			z M1309.6,1018.2c4.1,1.3,7.2,0.8,8.8-3.1c1.3-3.1,0-6.2-4.1-8.3L1309.6,1018.2z"/>
		<path class="st0" d="M1313,1036.6l-2.2,4.6l-3.3-1.6c1.5,2.4,1.9,5.8,0.6,8.6c-1,2.1-2.3,3.4-3.3,4.1l-3.8-3.7
			c1.3-0.6,2.5-1.5,3.4-3.5c1.8-3.8-0.5-7.3-4.5-9.2l-11.7-5.6l2.2-4.6L1313,1036.6z"/>
		<path class="st0" d="M1290.5,1054.3c7.2,3.9,9.1,10.5,6,16.1c-3.3,6.1-9.6,7.2-16.5,3.4c-0.8-0.4-1.2-0.7-1.6-1l8.1-14.9
			c-4.1-1.9-7.7-1.1-9.5,2.3c-1.4,2.6-1.5,4.5-1.5,7.2l-4.2,0.1c0-3.6,0.2-6.2,2.2-9.7C1276.2,1052.8,1282.2,1049.8,1290.5,1054.3z
			 M1283.8,1070.5c3.9,1.8,7.1,1.5,9.1-2.1c1.6-3,0.6-6.1-3.2-8.6L1283.8,1070.5z"/>
		<path class="st0" d="M1286.4,1087.2l-2.6,4.3l-2.3-1.4c0.8,2.2,0.8,4.8-0.8,7.4c-2.8,4.5-7.2,5.5-13.1,1.8l-13.2-8.1l2.6-4.3
			l12.6,7.8c4,2.4,6.5,2.1,8.2-0.6c1.6-2.6,1.2-5.5-2.7-7.9l-12.7-7.8l2.6-4.3L1286.4,1087.2z"/>
		<path class="st0" d="M1252.3,1106l11.8,8.2l2.9-4.2l3.6,2.5l-2.9,4.2l6,4.2l-0.9,5.5l-8.1-5.6l-4.5,6.5l-3.6-2.5l4.5-6.5
			l-11.1-7.7c-2-1.4-3.3-1.2-4.5,0.5c-1.2,1.8-1.3,3-1.6,4.5l-3.4-3.3c0.2-1.5,0.6-2.9,2.1-5.1
			C1245.1,1104.1,1248.3,1103.3,1252.3,1106z"/>
		<path class="st0" d="M1225.9,1151.5c6.7,5.7,6.4,12.8,2.1,17.7c-2.6,3-5.4,4.2-8.7,4.4l-0.5-4.6c2.5-0.2,4.2-0.6,6.1-2.7
			c2.7-3.2,1.7-7.3-2.2-10.7c-4.2-3.6-8.3-4.2-11.3-0.7c-1.7,2-2,4.3-1.6,6.8l-4.3,0.3c-0.5-3.3,0-6.7,2.8-10
			C1212.5,1147,1219.3,1145.8,1225.9,1151.5z"/>
		<path class="st0" d="M1204.6,1171.6l11.2,10.7l-3.5,3.6l-10.7-10.2c-3.4-3.2-5.9-3.4-8.1-1.1c-2.1,2.2-2.3,5.1,1,8.3l10.8,10.3
			l-3.5,3.6l-18.2-17.4l3.5-3.6l1.9,1.9c-0.3-2.3,0.2-4.9,2.3-7.1C1195,1166.8,1199.6,1166.7,1204.6,1171.6z"/>
		<path class="st0" d="M1177.9,1194.1l17.9,18.9l-2.1,5.3l-19-20.1c-1.7-1.8-3.2-1.6-4.8-0.1c-1.5,1.5-2.3,2.9-2.8,4l-2.5-3.7
			c0.4-1.1,1.6-3,3.3-4.6C1171,1191,1174.6,1190.6,1177.9,1194.1z"/>
		<path class="st0" d="M1157.2,1213l9.3,10.9l3.9-3.3l2.8,3.3l-3.9,3.3l4.8,5.6l-2.3,5.1l-6.3-7.5l-6,5.1l-2.8-3.3l6-5.1l-8.7-10.3
			c-1.6-1.9-2.9-2-4.5-0.7c-1.6,1.4-2.1,2.6-2.7,3.9l-2.4-4c0.6-1.4,1.3-2.6,3.3-4.4C1150.7,1209.3,1154.1,1209.3,1157.2,1213z"/>
		<path class="st0" d="M1141.2,1230.5l9.4,12.3l-4,3.1l-9-11.8c-2.8-3.7-5.3-4.3-7.8-2.3c-2.4,1.8-3.1,4.7-0.3,8.4l9.1,11.9l-4,3.1
			l-15.3-20l4-3.1l1.6,2.1c0.1-2.4,0.9-4.8,3.4-6.6C1132.5,1224.3,1137,1225,1141.2,1230.5z"/>
		<path class="st0" d="M1124.9,1262l-4.2,2.9l-2.1-3c0.1,2.8-1.2,6-3.8,7.7c-1.9,1.3-3.7,1.8-4.9,1.9l-1.5-5.1
			c1.5,0.1,2.9,0,4.7-1.3c3.5-2.4,3.2-6.5,0.7-10.2l-7.3-10.7l4.2-2.9L1124.9,1262z"/>
		<path class="st0" d="M1096.6,1266.1c4.2,7,2.6,13.6-2.8,17c-5.9,3.6-11.9,1.4-16-5.3c-0.4-0.7-0.7-1.3-0.9-1.7l14.5-8.8
			c-2.6-3.7-6.1-4.8-9.3-2.8c-2.5,1.5-3.6,3.1-5,5.5l-3.7-2c1.8-3.2,3.3-5.2,6.7-7.3C1085,1257.6,1091.7,1258.1,1096.6,1266.1z
			 M1082.7,1276.8c2.5,3.5,5.4,4.9,9,2.7c2.9-1.8,3.6-5,1.5-9.1L1082.7,1276.8z"/>
		<path class="st0" d="M1066,1272.7l0,4.3c-3-0.4-6.1,0-8.7,1.4c-2.8,1.5-3.6,3.3-2.7,5s1.9,2,6.5,0.8c6.1-1.6,9.7-0.9,11.7,2.8
			c2.1,3.9,0.3,8-4.6,10.7c-3.5,1.9-6.7,2.4-9.5,2l0-4.2c2.9,0.3,5.2-0.1,7.9-1.5c2.4-1.3,3-2.9,2.2-4.4c-0.8-1.5-1.7-2.1-6.3-1
			c-6,1.5-9.7,1.6-11.9-2.6c-2.5-4.6,0-8.7,4.9-11.3C1059.1,1272.7,1062.6,1272.3,1066,1272.7z"/>
	</g>
	<g>
		<path class="st0" d="M1038.8,591.4c6.7-5.5,13.4-4.3,17.3,0.5c4,4.9,3.7,11.5-3,17c-6.7,5.4-13.5,4.4-17.5-0.5
			C1031.7,603.5,1032.2,596.8,1038.8,591.4z M1049.9,604.9c4.6-3.7,5.3-7.4,2.9-10.3c-2.4-2.9-6.1-2.9-10.7,0.8
			c-4.6,3.7-5.4,7.5-3,10.4C1041.4,608.7,1045.3,608.6,1049.9,604.9z"/>
		<path class="st0" d="M1068.1,615.9l-2.5-3.8l3.6-2.4l2.5,3.8l1.4-1c4.9-3.3,8.5-1.5,10.8,1.8c1.4,2.1,1.8,4,2.1,5.1l-3.5,2.3
			c-0.2-1-0.5-2.6-1.5-4.1c-1.2-1.7-2.7-2.7-5-1.2l-1.6,1l3.9,5.7l-3.6,2.4l-3.8-5.7l-17.3,11.6l-2.8-4.2L1068.1,615.9z"/>
		<path class="st0" d="M1083.7,672.9l13.2-5.7l-2-4.7l4-1.7l2,4.7l6.7-2.9l4.2,3.7l-9,3.9l3.1,7.3l-4,1.7l-3.1-7.3l-12.4,5.3
			c-2.2,1-2.8,2.2-2,4.1c0.9,2,1.9,2.8,2.9,3.7l-4.5,1.1c-1.2-1-2.1-2-3.2-4.5C1078.3,678,1079.3,674.8,1083.7,672.9z"/>
		<path class="st0" d="M1117.4,686.5l3.9,4l-11.9,3.8c2.2,0.9,4.2,2.5,5.1,5.4c1.6,5-0.5,9-7.1,11.2l-14.8,4.8l-1.6-4.8l14.1-4.6
			c4.4-1.4,5.8-3.6,4.8-6.6c-0.9-2.9-3.4-4.5-7.8-3.1l-14.2,4.6l-1.6-4.8L1117.4,686.5z"/>
		<path class="st0" d="M1106.9,719.5c8-1.8,13.8,1.9,15.2,8.1c1.5,6.8-2.5,11.7-10.1,13.4c-0.8,0.2-1.4,0.3-1.9,0.3l-3.7-16.5
			c-4.3,1.3-6.5,4.3-5.6,8c0.7,2.9,1.8,4.4,3.6,6.5l-3.1,2.8c-2.4-2.7-3.9-4.8-4.8-8.7C1095.1,727.8,1097.7,721.6,1106.9,719.5z
			 M1112.5,736c4.1-1.3,6.3-3.5,5.4-7.6c-0.7-3.3-3.6-5-8.1-4.4L1112.5,736z"/>
		<path class="st0" d="M1128.8,774.8l0.2,4.7l-11,2.2c-2.3,0.4-6.2,0.9-8.6,1.2c2.4,0.2,6.1,0.5,8.6,0.9l11.2,1.9l0.2,4.2l-11,2.8
			c-2.4,0.6-6.4,1.2-8.5,1.6c2.2,0.1,6.3,0.3,8.6,0.6l11.1,1.4l0.2,4.6l-25.4-3.9l-0.2-4.6l11.7-2.9c2.8-0.6,5.8-1.1,8.1-1.5
			c-2.3-0.2-5.4-0.5-8.2-0.9l-11.9-2.1l-0.2-4.5L1128.8,774.8z"/>
		<path class="st0" d="M1117,806.1c8.6,0.5,12.8,5.8,12.5,12.1c-0.3,6.3-5,11-13.6,10.5c-8.6-0.5-12.9-5.8-12.6-12.1
			C1103.6,810.3,1108.4,805.6,1117,806.1z M1116.1,823.6c5.9,0.3,8.9-2,9.1-5.7c0.2-3.7-2.5-6.3-8.4-6.6c-5.9-0.3-9,2-9.3,5.6
			C1107.3,820.7,1110.2,823.2,1116.1,823.6z"/>
		<path class="st0" d="M1127,840.6l-0.7,5l-3.7-0.5c2.2,1.8,3.5,4.9,3.1,8c-0.3,2.3-1.2,3.9-2,4.9l-4.7-2.4c1.1-1,1.9-2.1,2.2-4.3
			c0.6-4.2-2.6-6.8-7.1-7.4l-12.8-1.9l0.7-5L1127,840.6z"/>
		<path class="st0" d="M1102.9,869.7l25.3,6.2l1.2,5.6l-26.9-6.5c-2.4-0.6-3.5,0.4-4.1,2.5c-0.5,2.1-0.4,3.7-0.2,4.9l-4.1-1.7
			c-0.2-1.1-0.3-3.4,0.2-5.6C1095.4,870.8,1098.2,868.5,1102.9,869.7z"/>
		<path class="st0" d="M1103,892.4c8.5,2.9,11.4,8.2,9.7,13.2c-1,2.9-2.9,4.4-5,5.4l9.3,3.2l0.7,5.6l-33.1-11.4l1.7-4.8l2.6,0.9
			c-1.1-2.2-1.8-4.8-0.8-7.8C1089.5,892.2,1094.6,889.5,1103,892.4z M1092.5,905.8l11,3.8c2-0.6,3.9-2.1,4.7-4.5
			c1.1-3.3-1-5.8-6.8-7.8c-6.1-2.1-8.8-0.9-9.9,2.2C1090.8,901.8,1091.3,903.9,1092.5,905.8z"/>
		<path class="st0" d="M1072.8,949.2l12.5,7.1l2.5-4.4l3.8,2.1l-2.5,4.4l6.4,3.6l-0.4,5.6l-8.5-4.8l-3.9,6.9l-3.8-2.1l3.9-6.9
			l-11.7-6.7c-2.1-1.2-3.4-0.9-4.4,0.9c-1.1,1.9-1.1,3.1-1.2,4.6l-3.6-2.9c0.1-1.5,0.3-2.9,1.7-5.2
			C1065.4,947.9,1068.6,946.8,1072.8,949.2z"/>
		<path class="st0" d="M1082.2,984.2l-0.9,5.5l-10.2-7.1c0.6,2.3,0.6,4.8-1.2,7.4c-3,4.3-7.5,5.1-13.2,1.1l-12.7-8.9l2.9-4.1
			l12.1,8.5c3.8,2.7,6.4,2.5,8.2-0.1c1.7-2.5,1.5-5.4-2.3-8.1l-12.2-8.5l2.9-4.1L1082.2,984.2z"/>
		<path class="st0" d="M1045.6,992.7c4.3,3.6,3.4,8.7,0,12.6c-1.6,1.9-3.4,3.1-4.9,3.8l1.8,1.5c2.5,2.1,4.8,1.9,6.9-0.6
			c1.7-2.1,2.6-4.1,3.1-6.6l4,1.2c-0.7,2.7-2,5.6-4.4,8.4c-3.9,4.6-8.2,5.4-12.6,1.6l-13.1-11.1l3.3-3.9l2.1,1.7
			c-0.2-2.4,0.2-5.3,2.3-7.7C1036.8,990.4,1041.1,988.8,1045.6,992.7z M1034.6,1003.8l3.5,2.9c1.5-0.6,2.9-1.5,4.6-3.6
			c2-2.4,2-4.8-0.1-6.6c-2.3-2-4.5-1.6-6.3,0.5C1034.5,999.2,1034.2,1001.7,1034.6,1003.8z"/>
		<path class="st0" d="M1021.7,1017.9l10.1,10.2l3.6-3.6l3,3.1l-3.6,3.6l5.2,5.2l-1.9,5.3l-6.9-7l-5.6,5.6l-3-3.1l5.6-5.6l-9.5-9.6
			c-1.7-1.7-3-1.8-4.5-0.3c-1.5,1.5-1.9,2.7-2.4,4.1l-2.7-3.8c0.5-1.5,1.1-2.7,3-4.6C1014.9,1014.7,1018.3,1014.4,1021.7,1017.9z"/>
		<path class="st0" d="M995.3,1065.7l-3.9,2.6l-7.7-8.1c-1.6-1.8-4.1-4.7-5.6-6.6c1.1,2.1,2.8,5.5,3.8,7.7l4.3,10.5l-3.5,2.3
			l-8.2-7.9c-1.8-1.7-4.5-4.8-5.8-6.4c1.1,1.9,3.1,5.5,4.1,7.6l4.7,10.1l-3.8,2.6l-10.2-23.6l3.8-2.6l8.7,8.4c2,2,4,4.3,5.5,6.1
			c-1.1-2-2.5-4.8-3.6-7.4l-4.5-11.2l3.7-2.5L995.3,1065.7z"/>
		<path class="st0" d="M962.3,1072.6c3.9,7.1,2,13.7-3.6,16.8c-6.1,3.4-12,0.8-15.7-6c-0.4-0.8-0.7-1.3-0.8-1.7l14.8-8.2
			c-2.5-3.8-5.9-5-9.2-3.2c-2.6,1.4-3.7,3-5.2,5.3l-3.6-2.2c1.9-3.1,3.5-5.1,7.1-7C951.1,1063.6,957.8,1064.4,962.3,1072.6z
			 M948,1082.6c2.4,3.6,5.2,5.1,8.8,3.1c3-1.6,3.8-4.8,1.9-9L948,1082.6z"/>
		<path class="st0" d="M938.5,1099.1l-4.7,2l-1.5-3.4c-0.4,2.8-2.3,5.6-5.2,6.9c-2.2,0.9-3.9,1.1-5.2,0.9l-0.5-5.3
			c1.4,0.4,2.8,0.5,4.9-0.4c3.9-1.7,4.4-5.8,2.6-9.9l-5.2-11.9l4.7-2L938.5,1099.1z"/>
		<path class="st0" d="M909.6,1097.7c2.5,7.8-0.5,13.9-6.6,15.9c-6.6,2.2-11.9-1.4-14.3-8.8c-0.3-0.8-0.4-1.4-0.5-1.9l16.1-5.3
			c-1.7-4.2-4.9-6-8.5-4.9c-2.8,0.9-4.2,2.2-6.1,4.2l-3.1-2.8c2.5-2.7,4.4-4.3,8.2-5.6C900.2,1086.8,906.7,1088.8,909.6,1097.7z
			 M893.7,1105c1.7,4,4.1,6,8.1,4.7c3.2-1.1,4.6-4,3.6-8.5L893.7,1105z"/>
		<path class="st0" d="M855.6,1125l-4.4,0.6l-0.2-1.9c-0.8,1.6-2,2.7-3.9,2.9c-2.2,0.3-3.6-0.5-4.8-2c-1.1,1.8-2.5,2.9-4.8,3.3
			c-3.5,0.5-5.7-1.7-6.4-6.7l-2.4-18.1l4.4-0.6l2.3,17.4c0.4,3,1.4,4,3,3.8c1.5-0.2,2.7-1.5,2.3-4.4l-2.3-17.4l4.4-0.6l2.3,17.4
			c0.4,2.9,1.4,4,3,3.8c1.5-0.2,2.7-1.5,2.3-4.4l-2.3-17.4l4.4-0.6L855.6,1125z"/>
		<path class="st0" d="M823.1,1113.3l0.6,15.5l-5,0.2l-0.6-14.8c-0.2-4.7-1.9-6.6-5.1-6.4c-3,0.1-5.2,2.1-5.1,6.7l0.6,14.9l-5,0.2
			l-1-25.2l5-0.2l0.1,2.7c1.4-1.9,3.5-3.4,6.6-3.5C819.5,1103.2,822.8,1106.3,823.1,1113.3z"/>
		<path class="st0" d="M789,1110.6l-0.7,14.3l5.1,0.3l-0.2,4.3l-5.1-0.3l-0.4,7.3l-5.2,2.2l0.5-9.8l-7.9-0.4l0.2-4.3l7.9,0.4
			l0.7-13.5c0.1-2.4-0.7-3.5-2.8-3.6c-2.2-0.1-3.3,0.5-4.6,1l1-4.6c1.4-0.6,2.7-1,5.4-0.9C786.8,1103.5,789.2,1105.8,789,1110.6z"/>
		<path class="st0" d="M765.3,1112.2l-2.2,15.3l-5-0.7l2.1-14.6c0.7-4.6-0.7-6.8-3.8-7.2c-3-0.4-5.5,1.1-6.2,5.7l-2.1,14.8l-5-0.7
			l3.6-24.9l5,0.7l-0.4,2.7c1.7-1.6,4.1-2.7,7.1-2.2C763.6,1101.6,766.3,1105.3,765.3,1112.2z"/>
		<path class="st0" d="M737.9,1105.9c-1.3,5.5-6.2,6.9-11.2,5.7c-2.4-0.6-4.3-1.6-5.6-2.7l-0.6,2.3c-0.8,3.2,0.5,5.1,3.7,5.9
			c2.6,0.6,4.8,0.5,7.3-0.2l0.7,4.1c-2.7,0.6-5.9,0.7-9.5-0.1c-5.8-1.4-8.5-4.8-7.2-10.5l4-16.7l4.9,1.2l-0.6,2.6
			c2.1-1.3,4.8-2.2,7.9-1.4C736,1097,739.3,1100.2,737.9,1105.9z M723,1101.1l-1.1,4.4c1.2,1.1,2.7,1.9,5.3,2.5
			c3.1,0.7,5.2-0.4,5.8-3.1c0.7-2.9-0.6-4.8-3.2-5.4C727.1,1098.9,724.7,1099.8,723,1101.1z"/>
		<path class="st0" d="M704,1095.6l-8.4,24.7l-5.6,0.7l8.9-26.2c0.8-2.3-0.1-3.6-2.1-4.3c-2-0.7-3.7-0.7-4.9-0.6l2.1-4
			c1.2-0.1,3.4,0,5.6,0.7C703.5,1088.1,705.5,1091,704,1095.6z"/>
		<path class="st0" d="M677.2,1085.5l-10.6,23.8l-5.7,0.1l11.2-25.3c1-2.2,0.3-3.6-1.7-4.4c-1.9-0.9-3.6-1-4.8-1l2.5-3.7
			c1.2,0,3.4,0.3,5.5,1.2C677.4,1078,679.1,1081.1,677.2,1085.5z"/>
		<path class="st0" d="M653,1066.7l-4,26.5l-4.9-2.8l3.3-17.5c0.3-1,0.6-2.3,1-3.2c-0.6,0.7-1.6,1.9-2.2,2.5l-13.2,12l-4.7-2.7
			l27.9-23.4l4.4,2.5L653,1066.7z"/>
		<path class="st0" d="M587.9,1061.6c-1.1,1.4-3.1,1.5-4.6,0.2c-1.5-1.3-1.7-3.2-0.6-4.5c1.1-1.3,3-1.5,4.6-0.2
			C588.9,1058.3,589,1060.2,587.9,1061.6z M604,1041.2l-12,14.3l-3.9-3.3l11.5-13.7c1.6-1.9,1.2-3.4-0.4-4.7c-1.6-1.4-3.2-2-4.4-2.3
			l3.4-2.9c1.2,0.3,3.2,1.3,5,2.7C606.4,1034.1,607.1,1037.5,604,1041.2z"/>
		<path class="st0" d="M573.5,1039.4l-3.6-3.6l1.9-1.9c-2.3,0.2-4.9-0.3-7-2.5c-3.7-3.7-3.6-8.3,1.3-13.2l11-10.9l3.6,3.6
			l-10.5,10.4c-3.3,3.3-3.5,5.8-1.3,8.1c2.1,2.1,5.1,2.5,8.4-0.8l10.6-10.5l3.6,3.6L573.5,1039.4z"/>
		<path class="st0" d="M563.1,1010.3c-6.9,5.7-12.9,5.5-16.3,1.4c-1.9-2.3-2.2-4.7-2-7.1l-7.6,6.3l-5.1-2.4l27-22.3l3.2,3.9
			l-2.1,1.7c2.5,0.2,5,1,7.1,3.4C570.3,998.9,570,1004.6,563.1,1010.3z M557.1,994.3l-9,7.4c-0.5,2-0.3,4.4,1.3,6.4
			c2.2,2.7,5.5,2.2,10.2-1.7c5-4.1,5.4-7,3.3-9.6C561.5,995,559.5,994.3,557.1,994.3z"/>
		<path class="st0" d="M544.3,987.8c-6.7,4.6-13.5,3.3-17.1-1.9c-3.9-5.7-2-11.8,4.4-16.2c0.7-0.5,1.2-0.8,1.6-1l9.6,14
			c3.5-2.8,4.4-6.3,2.3-9.5c-1.7-2.5-3.3-3.4-5.8-4.7l1.8-3.8c3.3,1.6,5.4,3,7.6,6.3C552.2,975.7,552.1,982.5,544.3,987.8z
			 M532.9,974.5c-3.3,2.7-4.6,5.6-2.2,9.1c1.9,2.8,5.2,3.3,9.2,1.1L532.9,974.5z"/>
		<path class="st0" d="M516.6,968.5l-2.5-4.4l2.4-1.3c-2.4-0.7-4.8-1.9-6.3-4.7c-2.4-4.4-1-9.7,6.9-14s13.7-3,16.3,1.7
			c1.5,2.6,1.3,5,0.6,7.3l8.1-4.5l4.6,3.3L516.6,968.5z M519.7,948.4c-5.4,3-6.6,5.9-5,8.8c1.1,2,3,3.1,5.3,3.5l10.2-5.6
			c0.9-2,1.1-4.3-0.1-6.5C528.4,945.5,525,945.4,519.7,948.4z"/>
		<path class="st0" d="M514.2,937.7c-7.5,3.3-13.9,0.8-16.4-5c-2.8-6.4,0.2-12,7.3-15.1c0.8-0.3,1.3-0.5,1.8-0.7l6.8,15.5
			c4-2.1,5.5-5.4,4-8.9c-1.2-2.7-2.6-4-4.8-5.7l2.5-3.4c2.9,2.2,4.7,4,6.3,7.6C524.1,927.4,522.8,934,514.2,937.7z M505.5,922.6
			c-3.8,2-5.5,4.7-3.9,8.5c1.4,3.1,4.5,4.2,8.8,2.7L505.5,922.6z"/>
		<path class="st0" d="M490.5,913.8L489,909l2.6-0.8c-2.2-0.8-4.2-2.4-5.2-5.4c-1.7-5,0.4-9,7-11.2l14.7-4.9l1.6,4.8l-14,4.7
			c-4.4,1.5-5.8,3.6-4.8,6.6c1,2.9,3.5,4.5,7.8,3l14.2-4.7l1.6,4.8L490.5,913.8z"/>
		<path class="st0" d="M494.3,883c-8.7,2-14-0.9-15.2-6.1c-0.7-2.9,0.1-5.2,1.4-7.2l-9.6,2.2l-3.5-4.4l34.1-7.9l1.2,5l-2.7,0.6
			c2.1,1.3,4.1,3.1,4.8,6.2C505.8,876.1,503,881,494.3,883z M496,866.1l-11.4,2.6c-1.4,1.6-2.2,3.8-1.6,6.3c0.8,3.4,4,4.4,9.9,3
			c6.3-1.5,8-3.9,7.2-7.1C499.6,868.7,498.1,867.2,496,866.1z"/>
		<path class="st0" d="M487.5,854.5c-8.1,1.1-13.5-3-14.4-9.4c-0.9-6.9,3.5-11.5,11.2-12.5c0.9-0.1,1.4-0.1,1.9-0.2l2.3,16.8
			c4.4-0.9,6.8-3.7,6.3-7.5c-0.4-2.9-1.4-4.5-3.1-6.7l3.3-2.5c2.2,2.9,3.5,5.1,4,9.1C499.9,847.2,496.8,853.2,487.5,854.5z
			 M483.2,837.5c-4.2,0.9-6.6,3-6,7.1c0.5,3.4,3.1,5.3,7.7,5L483.2,837.5z"/>
		<path class="st0" d="M471.3,824.9l-0.2-5l2.7-0.1c-1.9-1.4-3.4-3.5-3.5-6.6c-0.2-5.3,2.9-8.6,9.8-8.9l15.5-0.7l0.2,5l-14.8,0.7
			c-4.7,0.2-6.5,1.9-6.4,5.1c0.1,3,2.1,5.2,6.7,5l14.9-0.7l0.2,5L471.3,824.9z"/>
		<path class="st0" d="M489.3,790.3l-14.3-0.7l-0.2,5.1l-4.3-0.2l0.2-5.1l-7.3-0.3l-2.2-5.1l9.8,0.5l0.4-7.9l4.3,0.2l-0.4,7.9
			l13.5,0.6c2.4,0.1,3.4-0.8,3.5-2.8c0.1-2.2-0.5-3.3-1-4.6l4.6,1c0.6,1.4,1,2.7,0.9,5.4C496.5,788,494.2,790.5,489.3,790.3z"/>
		<path class="st0" d="M494.1,761.8c-2.5-0.3-4.1-2.6-3.7-5.1c0.4-2.5,2.5-4.2,4.9-3.9c2.6,0.4,4.1,2.6,3.8,5.1
			C498.8,760.4,496.7,762.1,494.1,761.8z"/>
	</g>
</g>
</svg>
