<?xml version="1.0" encoding="utf-8"?>
<!-- Generator: Adobe Illustrator 22.1.0, SVG Export Plug-In . SVG Version: 6.00 Build 0)  -->
<svg version="1.1" id="Layer_1" xmlns="http://www.w3.org/2000/svg" xmlns:xlink="http://www.w3.org/1999/xlink" x="0px" y="0px"
	 viewBox="0 0 658.8 766.7" style="enable-background:new 0 0 658.8 766.7;" xml:space="preserve">
<style type="text/css">
	.st0{fill:#9EC6BD;}
</style>
<g>
	<path class="st0" d="M328.9,766.7C118.4,766.7,0,617,0,400.1C0,329.9,2.1,0,329.9,0c210.5,0,328.9,149.8,328.9,366.6
		C658.8,436.8,656.8,766.7,328.9,766.7z M328.9,62.8c-114.2,0-229.4,76.5-229.4,324.7c0,243,112.1,316.3,230.4,316.3
		c114.2,0,229.4-76.5,229.4-324.7C559.3,136.2,447.3,62.8,328.9,62.8z"/>
</g>
<g>
	<path class="st0" d="M329.2,572.5c-103.9,0-162.2-73.9-162.2-180.8c0-34.6,1-197.4,162.8-197.4c103.9,0,162.2,73.9,162.2,180.8
		C491.9,409.7,490.9,572.5,329.2,572.5z M329.2,225.3C272.8,225.3,216,263,216,385.4c0,119.9,55.3,156,113.7,156
		c56.3,0,113.2-37.7,113.2-160.2C442.8,261.4,387.6,225.3,329.2,225.3z"/>
</g>
<g>
	<path class="st0" d="M329.3,452c-37.7,0-58.9-26.8-58.9-65.6c0-12.6,0.4-71.6,59.1-71.6c37.7,0,58.9,26.8,58.9,65.6
		C388.4,392.9,388,452,329.3,452z M329.3,326c-20.4,0-41.1,13.7-41.1,58.1c0,43.5,20.1,56.6,41.3,56.6c20.4,0,41.1-13.7,41.1-58.1
		C370.6,339.1,350.5,326,329.3,326z"/>
</g>
</svg>
