<?xml version="1.0" encoding="utf-8"?>
<!-- Generator: Adobe Illustrator 22.1.0, SVG Export Plug-In . SVG Version: 6.00 Build 0)  -->
<svg version="1.1" id="Layer_1" xmlns="http://www.w3.org/2000/svg" xmlns:xlink="http://www.w3.org/1999/xlink" x="0px" y="0px"
	 viewBox="0 0 658.8 483.7" style="enable-background:new 0 0 658.8 483.7;" xml:space="preserve">
<style type="text/css">
	.st0{fill:#9EC6BD;}
</style>
<g>
	<path class="st0" d="M382.6,98c0,46.1,1.1,64.9,1.1,64.9l-9.1-4.8c-18.8-10.2-26.8-13.4-184.9-13.4H85.2c1.1,0.5,30,9.1,63.8,24.1
		L343,255l-193.5,85.8c-34.3,15.5-60,23-63.8,24.1h109.3c156,0,158.1-2.1,179.6-13.4l9.1-4.8c0,0-1.1,17.7-1.1,50.4
		c0,33.2,1.1,52,1.1,52l-9.1-4.8c-20.4-10.7-24.1-13.4-184.9-13.4c-156,0-158.1,2.1-179.6,13.4L1,449c0,0,1.1-21.4,1.1-70.2
		c0-44.5-1.1-63.2-1.1-63.2l144.2-63.8c13.4-5.9,20.9-7.5,22-8c-1.1,0-7.5-2.1-22-8.6L1,170.9c0,0,1.1-20.4,1.1-65.9
		C2.1,57.2,1,34.7,1,34.7l9.1,4.8C30,50.3,34.3,52.9,195.1,52.9c156,0,158.1-2.1,179.6-13.4l9.1-4.8C383.7,34.7,382.6,52.4,382.6,98
		z"/>
	<path class="st0" d="M399.5,87.9c0,37.7-0.9,53.2-0.9,53.2l7.5-4c12.8-7.1,15.8-11.1,111.8-11.1c51.5,0,66.9,1.8,76.6,7.5
		c7,4.4,15.4,12.4,15.4,33.2c0,27.9-15.4,36.3-21.6,39c-13.6-1.3-30.4-1.8-54.1-1.8h-15.8c-95.9,0-99.5-4-112.2-11.1l-7.5-4
		c0,0,0.9,15.5,0.9,53.2c0,37.7-0.9,53.2-0.9,53.2l7.5-4c12.8-7.1,15.8-11.1,111.8-11.1c51.5,0,66.9,1.8,76.6,7.1
		c7,4.4,15.4,12,15.4,31.9c0,32.8-19.8,38.6-19.8,38.6h-71.7c-95.5,0-99.5-4-112.2-11.1l-7.5-4c0,0,0.9,15.5,0.9,53.2
		c0,37.7-0.9,53.2-0.9,53.2l7.5-4c12.8-7.1,16.3-11.1,112.2-11.1h17.6c76.1,0,88.5,4,101.2,11.1l7.5,4l11-90.4l-61.6,2.2
		c47.1-10.2,63.4-38.6,63.4-77.5c0-41.2-16.7-68.2-56.8-75.8c42.2-11.5,57.2-39.9,57.2-77.5c0-34.6-11.4-56.7-32.1-67.8
		c-18.5-10.6-39.6-12.4-91.1-12.4h-16.3c-95.9,0-99.5-4-112.2-11.1l-7.5-4C398.6,34.7,399.5,50.2,399.5,87.9z"/>
</g>
</svg>
