<?xml version="1.0" encoding="utf-8"?>
<!-- Generator: Adobe Illustrator 22.1.0, SVG Export Plug-In . SVG Version: 6.00 Build 0)  -->
<svg version="1.1" xmlns="http://www.w3.org/2000/svg" xmlns:xlink="http://www.w3.org/1999/xlink" x="0px" y="0px"
	 viewBox="0 0 263.2 386.6" style="enable-background:new 0 0 263.2 386.6;" xml:space="preserve">
<style type="text/css">
	.st0{display:none;}
	.st1{display:inline;}
	.st2{fill:#9EC6BD;}
	.st3{display:inline;fill:none;stroke:#28705D;stroke-miterlimit:10;}
	.st4{fill:none;stroke:#28705D;stroke-miterlimit:10;}
	.st5{display:inline;fill:#9EC6BD;}
	.st6{display:none;fill:none;stroke:#28705D;stroke-miterlimit:10;}
</style>
<g id="Layer_1" class="st0">
	<text transform="matrix(1 0 0 1 -97.4424 -1010.4062)" class="st1"><tspan x="0" y="0" class="st2" style="font-family:'AlverataBl'; font-size:400px;">C</tspan><tspan x="247.6" y="0" class="st2" style="font-family:'AlverataMd'; font-size:400px;"> onstruct</tspan></text>
	<text transform="matrix(1 0 0 1 -97.4424 -528.4062)" class="st5" style="font-family:'Alverata'; font-size:400px;">C onstruct</text>
	<g class="st1">
		<path class="st2" d="M144.7,349.7C15.5,349.7,3.5,255.3,3.5,208.1c0-95.2,52.8-148.8,144-148.8c50.4,0,70.4,11.6,70.4,11.6
			s-0.8,9.2-0.8,26c0,16.4,0.8,28,0.8,28c-17.2-24.8-31.2-39.2-70-39.2c-40.8,0-101.2,17.2-101.2,120.4c0,64,20.4,117.2,99.6,117.2
			c40,0,54.4-15.2,71.6-40c0,0-0.8,13.2-0.8,30.4c0,15.2,0.8,24.4,0.8,24.4S190.7,349.7,144.7,349.7z"/>
	</g>
	<polygon class="st3" points="-75.7,204.5 -37.4,61.5 210.3,204.5 	"/>
	<polygon class="st3" points="-75.7,204.5 -37.4,347.5 210.3,204.5 	"/>
	<polygon class="st4" points="-75.7,204.5 -37.4,61.5 210.3,204.5 	"/>
	<polygon class="st4" points="-75.7,204.5 -37.4,347.5 210.3,204.5 	"/>
</g>
<g id="Layer_1_copy" class="st0">
	<text transform="matrix(1 0 0 1 -97.4424 -1010.4062)" class="st1"><tspan x="0" y="0" class="st2" style="font-family:'AlverataBl'; font-size:400px;">C</tspan><tspan x="247.6" y="0" class="st2" style="font-family:'AlverataMd'; font-size:400px;"> onstruct</tspan></text>
	<text transform="matrix(1 0 0 1 -97.4424 -528.4062)" class="st5" style="font-family:'Alverata'; font-size:400px;">C onstruct</text>
	<path class="st5" d="M3.5,194.5h43.2c0.2-38,8.7-64.2,21.4-82.1L36,93.8C15.4,118.2,4.1,152.1,3.5,194.5z"/>
	<path class="st5" d="M46.7,216.1c0-0.5,0-1.1,0-1.6H3.5c0,1.2,0,2.4,0,3.6c0,26.4,3.8,67.5,29.7,98.7l33-19
		C51.7,276.5,46.7,247.6,46.7,216.1z"/>
	<polygon class="st4" points="-75.7,204.5 -37.4,61.5 210.3,204.5 	"/>
	<polygon class="st4" points="-75.7,204.5 -37.4,347.5 210.3,204.5 	"/>
	<path class="st5" d="M157.5,39.3c-49,0-86.9,15.5-111.5,44.6l32.1,18.6c21.3-30,54.3-36.7,79.8-36.7c0.9,0,1.7,0,2.6,0V39.3
		C159.5,39.3,158.5,39.3,157.5,39.3z"/>
	<path class="st5" d="M156.3,343.3c-40.2,0-65.2-13.7-80.2-35.6l-33,19c20.4,24.6,54.6,42.9,111.5,42.9c2,0,3.9,0,5.8-0.1v-26.4
		C159.1,343.2,157.7,343.3,156.3,343.3z"/>
	<path class="st5" d="M247.9,104.9c0,0-0.8-11.6-0.8-28c0-16.8,0.8-26,0.8-26s-19.2-11.1-67.4-11.6v26.4
		C217.3,66.3,231.1,80.6,247.9,104.9z"/>
	<path class="st5" d="M247.1,333.7c0-17.2,0.8-30.4,0.8-30.4c-16.6,23.9-30.6,38.9-67.4,39.9v26.4c42.5-0.9,67.4-11.5,67.4-11.5
		S247.1,348.9,247.1,333.7z"/>
</g>
<g id="Layer_1_copy_2">
	<polygon class="st6" points="-75.7,204.5 -37.4,61.5 210.3,204.5 	"/>
	<polygon class="st6" points="-75.7,204.5 -37.4,347.5 210.3,204.5 	"/>
	<path class="st2" d="M90.8,93.8l32.1,18.6c-12.7,17.9-21.2,44.1-21.4,82.1H58.3C58.9,152.1,70.2,118.2,90.8,93.8z M46.7,216.1
		c0-0.5,0-1.1,0-1.6H3.5c0,1.2,0,2.4,0,3.6c0,26.4,3.8,67.5,29.7,98.7l33-19C51.7,276.5,46.7,247.6,46.7,216.1z M168.6,8.2
		c-49,0-86.9,15.5-111.5,44.6l32.1,18.6c21.3-30,54.3-36.7,79.8-36.7c0.9,0,1.7,0,2.6,0V8.2C170.6,8.2,169.6,8.2,168.6,8.2z
		 M192.8,301.2c-40.2,0-65.2-13.7-80.2-35.6l-33,19c20.4,24.6,54.6,42.9,111.5,42.9c2,0,3.9,0,5.8-0.1v-26.4
		C195.6,301.1,194.2,301.2,192.8,301.2z M259,104.1c0,0-0.8-11.6-0.8-28c0-16.8,0.8-26,0.8-26S239.8,39,191.6,38.6V65
		C228.4,65.6,242.2,79.9,259,104.1z M247.1,347.1c0-17.2,0.8-30.4,0.8-30.4c-16.6,23.9-30.6,38.9-67.4,39.9v26.4
		c42.5-0.9,67.4-11.5,67.4-11.5S247.1,362.3,247.1,347.1z"/>
</g>
</svg>
