<?xml version="1.0" encoding="utf-8"?>
<!-- Generator: Adobe Illustrator 22.1.0, SVG Export Plug-In . SVG Version: 6.00 Build 0)  -->
<svg version="1.1" id="Layer_1" xmlns="http://www.w3.org/2000/svg" xmlns:xlink="http://www.w3.org/1999/xlink" x="0px" y="0px"
	 viewBox="0 0 658.8 483.7" style="enable-background:new 0 0 658.8 483.7;" xml:space="preserve">
<style type="text/css">
	.st0{fill:#9EC6BD;}
</style>
<g>
	<path class="st0" d="M216.6,483.7c-7.8-7.6-17.1-14.3-27.1-21.1l-59.1-38.1c-44.6-28.9-96.5-59.1-96.5-132
		c0-61.7,40.7-115.6,147.7-115.6c67,0,105.1,19,105.1,19s-1.3,15.1-1.3,42c0,27.6,1.3,46.6,1.3,46.6
		c-27.6-40.1-54.5-64.3-106.4-64.3c-25.6,0-83.4,3.3-83.4,64.3c0,39.4,26.3,55.8,63,80.1l46.6,30.2c39,25,74.9,46.2,89.8,88.7
		L216.6,483.7z"/>
</g>
<g>
	<path class="st0" d="M423.1,0c8.9,22.8,30.8,36.7,58.6,55.1l46.6,30.2c51.2,32.8,97.2,59.1,97.2,135.9c0,90.6-65,122.8-158.2,122.8
		c-76.8,0-114.3-20.4-114.3-20.4s1.3-15.1,1.3-40.1c0-27.6-1.3-49.9-1.3-49.9c27.6,39.4,55.2,67,113.6,67c39.4,0,95.2-6.6,95.2-69.6
		c0-40.7-22.3-59.1-50.6-78.1l-59.1-38.1c-41-26.5-88-54.1-95.5-114.8L423.1,0z"/>
</g>
</svg>
