<?xml version="1.0" encoding="utf-8"?>
<!-- Generator: Adobe Illustrator 22.1.0, SVG Export Plug-In . SVG Version: 6.00 Build 0)  -->
<svg version="1.1" id="Layer_1" xmlns="http://www.w3.org/2000/svg" xmlns:xlink="http://www.w3.org/1999/xlink" x="0px" y="0px"
	 viewBox="0 0 658.8 483.7" style="enable-background:new 0 0 658.8 483.7;" xml:space="preserve">
<style type="text/css">
	.st0{fill:#9EC6BD;}
</style>
<g>
	<path class="st0" d="M388.4,380.4c0-38.8-21.2-65.6-58.9-65.6c-58.7,0-59.1,59.1-59.1,71.6c0,38.8,21.2,65.6,58.9,65.6
		C388,452,388.4,392.9,388.4,380.4z M288.3,384.1c0-44.4,20.6-58.1,41.1-58.1c21.2,0,41.3,13.1,41.3,56.6
		c0,44.4-20.6,58.1-41.1,58.1C308.3,440.7,288.3,427.6,288.3,384.1z"/>
	<path class="st0" d="M106.4,483.7c-4.5-28.6-6.9-60.6-6.9-96.2c0-248.2,115.2-324.7,229.4-324.7c118.4,0,230.4,73.3,230.4,316.3
		c0,39-2.8,73.7-8.1,104.6h98.3c9.1-51.8,9.3-96.1,9.3-117.1C658.8,149.8,540.5,0,329.9,0C2.1,0,0,329.9,0,400.1
		c0,29.2,2.2,57.1,6.4,83.6H106.4z"/>
	<path class="st0" d="M216,385.4c0-122.5,56.8-160.2,113.2-160.2c58.4,0,113.7,36.2,113.7,156c0,44.7-7.6,78-19.9,102.4h49.6
		c19.1-44.2,19.4-91.7,19.4-108.6c0-107-58.4-180.8-162.2-180.8C168,194.3,166.9,357,166.9,391.6c0,34.6,6.1,65.8,17.9,92.1h49.8
		C223,460.1,216,428.1,216,385.4z"/>
</g>
</svg>
