<?xml version="1.0" encoding="utf-8"?>
<!-- Generator: Adobe Illustrator 22.1.0, SVG Export Plug-In . SVG Version: 6.00 Build 0)  -->
<svg version="1.1" id="Layer_1" xmlns="http://www.w3.org/2000/svg" xmlns:xlink="http://www.w3.org/1999/xlink" x="0px" y="0px"
	 viewBox="0 0 658.8 483.7" style="enable-background:new 0 0 658.8 483.7;" xml:space="preserve">
<style type="text/css">
	.st0{fill:#9EC6BD;}
</style>
<g>
	<path class="st0" d="M169.4,370.5c-18,0-25.6,0.7-25.6,0.7l3-5.7c6.3-12.3,8.3-15.6,8.3-106.1H39.6c0,90.8,1.3,93.2,8.3,106.1
		l3,5.7c0,0-7.3-0.7-25.3-0.7S0,371.1,0,371.1l3-5.7c6.7-12.6,8.3-15,8.3-114.8c0-96.8-1.3-98.2-8.3-111.5l-3-5.7
		c0,0,7.3,0.7,25.3,0.7s25.6-0.7,25.6-0.7l-3,5.7c-6.3,12-8.3,15.3-8.3,98.2h115.5c0-82.2-1.7-85.5-8.3-98.2l-3-5.7
		c0,0,7.3,0.7,25.3,0.7s25.6-0.7,25.6-0.7l-3,5.7c-6.7,12.6-8.3,15-8.3,114.8c0,96.8,1.3,98.2,8.3,111.5l3,5.7
		C194.7,371.1,187.3,370.5,169.4,370.5z"/>
	<path class="st0" d="M407.6,335.9c0,5.3,0.7,8.7,6,13.3l4,3.3c0,0-14,22.3-45.9,22.3c-30.9,0-30.6-21.6-30.6-29.9
		c0-20,14-93.8,14-109.1c0-5-1.3-12.3-12.6-12.3c-8.3,0-19.6,5.7-29.9,22.6l-5,35.3c-10,69.9-11,89.8-11,89.8s-10-0.7-33.9-0.7
		c-22.3,0-33.6,0.7-33.6,0.7s1.3-3.7,16.3-109.1c4.3-30.3,14.3-101.8,14.3-121.8c0-6-0.7-13.6-4.3-19.6l-2-3.3l79.2-8.3
		c0,0-5,26.3-12,78.5l-1,7.3c-2.7,19.6-8.7,46.6-8.7,46.6c20.3-56.2,46.6-66.9,70.9-66.9c39.3,0,40.9,27,40.9,37.9
		C422.6,236.4,407.6,318.2,407.6,335.9z"/>
	<path class="st0" d="M633.6,370.5c-18,0-25.6,0.7-25.6,0.7l3-5.7c6.3-12.3,8.3-15.6,8.3-106.1H503.8c0,90.8,1.3,93.2,8.3,106.1
		l3,5.7c0,0-7.3-0.7-25.3-0.7c-18,0-25.6,0.7-25.6,0.7l3-5.7c6.7-12.6,8.3-15,8.3-114.8c0-96.8-1.3-98.2-8.3-111.5l-3-5.7
		c0,0,7.3,0.7,25.3,0.7c18,0,25.6-0.7,25.6-0.7l-3,5.7c-6.3,12-8.3,15.3-8.3,98.2h115.5c0-82.2-1.7-85.5-8.3-98.2l-3-5.7
		c0,0,7.3,0.7,25.3,0.7c18,0,25.6-0.7,25.6-0.7l-3,5.7c-6.7,12.6-8.3,15-8.3,114.8c0,96.8,1.3,98.2,8.3,111.5l3,5.7
		C658.8,371.1,651.5,370.5,633.6,370.5z"/>
</g>
</svg>
