<?xml version="1.0" encoding="utf-8"?>
<!-- Generator: Adobe Illustrator 22.1.0, SVG Export Plug-In . SVG Version: 6.00 Build 0)  -->
<svg version="1.1" id="Layer_1" xmlns="http://www.w3.org/2000/svg" xmlns:xlink="http://www.w3.org/1999/xlink" x="0px" y="0px"
	 viewBox="0 0 658.8 703.3" style="enable-background:new 0 0 658.8 703.3;" xml:space="preserve">
<style type="text/css">
	.st0{fill:#9EC6BD;}
</style>
<path class="st0" d="M276.4,376.1c-10.7,10.7-20.9,18.1-20.9,18.1c59.7,59.7,65.9,63.6,83.4,68.7l7.4,2.3c0,0-7.9,6.8-26.3,25.2
	c-18.1,18.1-25.2,26.3-25.2,26.3l-2.3-7.4c-4.8-16.1-5.7-19.8-90.5-104.7c-82.3-82.3-84.6-82.3-101.8-87.7l-7.4-2.3
	c0,0,8.5-7.4,21.5-20.4c11.9-11.9,26.6-27.7,35.1-36.2c27.7-27.7,80.6-76.6,138-19.2C341.8,293.2,307.8,344.7,276.4,376.1z
	 M167.8,277.1c-8.5,8.5-14.1,15.3-14.1,15.3l83.7,83.7c0,0,4.8-3.1,17.3-15.6c41-41,14.1-71.3-2-87.4
	C216.7,237.2,186.8,258.2,167.8,277.1z M420,183.6c-10.7-10.7-18.1-20.9-18.1-20.9c-59.7,59.7-63.6,65.9-68.7,83.4l-2.3,7.4
	c0,0-6.8-7.9-25.2-26.3c-18.1-18.1-26.3-25.2-26.3-25.2l7.4-2.3c16.1-4.8,19.8-5.7,104.7-90.5c82.3-82.3,82.3-84.6,87.7-101.8
	l2.3-7.4c0,0,7.4,8.5,20.4,21.5c11.9,11.9,27.7,26.6,36.2,35.1c27.7,27.7,76.6,80.6,19.2,138C502.9,248.9,451.4,215,420,183.6z
	 M519,75c-8.5-8.5-15.3-14.1-15.3-14.1L420,144.5c0,0,3.1,4.8,15.6,17.3c41,41,71.3,14.1,87.4-2C558.9,123.9,538,93.9,519,75z
	 M612.6,327.2c10.7-10.7,20.9-18.1,20.9-18.1c-59.7-59.7-65.9-63.6-83.4-68.7l-7.4-2.3c0,0,7.9-6.8,26.3-25.2
	c18.1-18.1,25.2-26.3,25.2-26.3l2.3,7.4c4.8,16.1,5.7,19.8,90.5,104.7c82.3,82.3,84.6,82.3,101.8,87.7l7.4,2.3
	c0,0-8.5,7.4-21.5,20.4c-11.9,11.9-26.6,27.7-35.1,36.2c-27.7,27.7-80.6,76.6-138,19.2C547.2,410,581.2,358.6,612.6,327.2z
	 M721.2,426.2c8.5-8.5,14.1-15.3,14.1-15.3l-83.7-83.7c0,0-4.8,3.1-17.3,15.6c-41,41-14.1,71.3,2,87.4
	C672.3,466,702.2,445.1,721.2,426.2z M469,519.7c10.7,10.7,18.1,20.9,18.1,20.9c59.7-59.7,63.6-65.9,68.7-83.4l2.3-7.4
	c0,0,6.8,7.9,25.2,26.3c18.1,18.1,26.3,25.2,26.3,25.2l-7.4,2.3c-16.1,4.8-19.8,5.7-104.7,90.5c-82.3,82.3-82.3,84.6-87.7,101.8
	l-2.3,7.4c0,0-7.4-8.5-20.4-21.5c-11.9-11.9-27.7-26.6-36.2-35.1c-27.7-27.7-76.6-80.6-19.2-138C386.1,454.4,437.6,488.3,469,519.7z
	 M370,628.3c8.5,8.5,15.3,14.1,15.3,14.1l83.7-83.7c0,0-3.1-4.8-15.6-17.3c-41-41-71.3-14.1-87.4,2C330.1,579.4,351,609.4,370,628.3
	z"/>
</svg>
